<svg xmlns="http://www.w3.org/2000/svg" width="76" height="76" viewBox="0 0 76 76">
    <g fill="none" fill-rule="evenodd">
        <circle cx="38" cy="38" r="38" fill="#FFF"/>
        <g fill="#FF7900" fill-rule="nonzero">
            <path d="M20 19h3v-2h-4a1 1 0 0 0-1 1v4h2v-3zM57 17h-4v2h3v3h2v-4a1 1 0 0 0-1-1zM20 54h-2v4a1 1 0 0 0 1 1h4v-2h-3v-3zM56 57h-3v2h4a1 1 0 0 0 1-1v-4h-2v3z"/>
        </g>
        <g fill="#FF7900" fill-rule="nonzero">
            <path d="M28 24.517v26.966C28 52.871 29.107 54 30.469 54H46.53C47.893 54 49 52.871 49 51.483V24.517C49 23.129 47.893 22 46.531 22H30.47C29.107 22 28 23.13 28 24.517zm1.226 26.966V24.517c0-.699.558-1.267 1.243-1.267H44.79v18.414a.62.62 0 0 0 .613.625.62.62 0 0 0 .613-.625V23.25h.515c.685 0 1.243.568 1.243 1.267v26.966c0 .699-.558 1.267-1.243 1.267h-.515v-5.589a.62.62 0 0 0-.613-.625.62.62 0 0 0-.613.625v5.589H30.47a1.256 1.256 0 0 1-1.243-1.267z"/>
            <path d="M32.5 36.824v-3.648c0-.373-.224-.676-.5-.676s-.5.303-.5.676v3.648c0 .373.224.676.5.676s.5-.303.5-.676zM32.5 29.838v-3.676c0-.365-.224-.662-.5-.662s-.5.297-.5.662v3.676c0 .365.224.662.5.662s.5-.296.5-.662zM35.5 35.864v-9.728c0-.351-.224-.636-.5-.636s-.5.285-.5.636v9.728c0 .351.224.636.5.636s.5-.285.5-.636zM38 35.394v-2.788c0-.335-.224-.606-.5-.606s-.5.271-.5.606v2.788c0 .335.224.606.5.606s.5-.271.5-.606zM36.5 27.162v2.676c0 .917.757 1.662 1.688 1.662h2.624c.93 0 1.688-.745 1.688-1.662v-2.676c0-.917-.757-1.662-1.688-1.662h-2.624c-.93 0-1.688.745-1.688 1.662zm4.312-.29c.162 0 .293.13.293.29v2.676c0 .16-.131.29-.293.29h-2.624a.291.291 0 0 1-.293-.29v-2.676c0-.16.131-.29.293-.29h2.624zM41 35.394v-2.788c0-.335-.224-.606-.5-.606s-.5.271-.5.606v2.788c0 .335.224.606.5.606s.5-.271.5-.606zM42 48.379V39.62a.626.626 0 0 0-.63-.621h-9.74a.626.626 0 0 0-.63.621v8.758c0 .343.282.621.63.621h9.74c.348 0 .63-.278.63-.621zm-1.26-8.137v7.516h-1.81l-.022-.006a2.238 2.238 0 0 1-1.65-2.168v-3.168c0-1.018.679-1.91 1.65-2.168l.021-.006h1.81zm-6.084 5.08c-.74 0-1.343-.593-1.343-1.322 0-.73.602-1.323 1.343-1.323.74 0 1.342.593 1.342 1.323s-.602 1.323-1.342 1.323zm2.103-5.08a3.49 3.49 0 0 0-.712 1.592 2.614 2.614 0 0 0-1.391-.4 2.608 2.608 0 0 0-2.396 1.562v-2.754h4.499zm-4.499 4.762a2.607 2.607 0 0 0 2.396 1.561c.511 0 .988-.147 1.39-.399.1.59.35 1.136.713 1.592H32.26v-2.754zM44.583 43.722c-.252.378.113.881.55.76a.505.505 0 0 0 .366-.458.505.505 0 0 0-.32-.491.504.504 0 0 0-.596.189z"/>
        </g>
    </g>
</svg>
