<svg xmlns="http://www.w3.org/2000/svg" width="30" height="61" viewBox="0 0 30 61">
    <path fill="#FFF" fill-rule="evenodd" d="M15 0c.51 0 .93.303.992.695l.008.1v29.987c7.956.506 14.25 7.014 14.25 14.968 0 8.284-6.828 15-15.25 15s-15.25-6.716-15.25-15c0-7.954 6.294-14.461 14.25-14.968V.794c0-.405.381-.739.875-.788L15 0zm1 32.787l-.001 14.983 4.518-3.84a.873.873 0 0 1 1.206.06l.077.09c.29.387.259.937-.058 1.283l-.085.082-5.715 4.86c-.122.274-.428.478-.8.52l-.142.008c-.435 0-.804-.22-.942-.527l-5.715-4.861A1.012 1.012 0 0 1 8.2 44.08a.877.877 0 0 1 1.19-.222l.093.07L14 47.77V32.787C7.167 33.29 1.783 38.9 1.783 45.75c0 7.18 5.918 13 13.217 13 7.3 0 13.217-5.82 13.217-13 0-6.849-5.385-12.46-12.217-12.963z"/>
</svg>
