<svg xmlns="http://www.w3.org/2000/svg" width="60" height="60" viewBox="0 0 60 60">
    <g fill="none" fill-rule="evenodd">
        <path fill="#FF7900" fill-rule="nonzero" d="M60 0H0v60h60z"/>
        <path fill="#FFF" d="M23.007 30.122L23 30c0-.535.414-.976.947-1.036l.125-.007H34.7l-4.321-5.262a1.023 1.023 0 0 1 .067-1.378l.1-.088a1.093 1.093 0 0 1 1.416.066l.09.097 5.749 7 .051.076.031.054.039.082.04.115.023.095.015.125v.123l-.02.146-.025.098-.033.09-.02.046a.98.98 0 0 1-.135.21l.075-.104a1.047 1.047 0 0 1-.076.105l-5.714 6.955c-.37.45-1.044.523-1.506.163a1.025 1.025 0 0 1-.245-1.36l.078-.106 4.321-5.26-10.628-.002c-.55 0-1.003-.402-1.065-.921L23 30l.007.122z"/>
    </g>
</svg>
