<svg xmlns="http://www.w3.org/2000/svg" width="30" height="60" viewBox="0 0 30 60">
    <path fill="#FFF" fill-rule="evenodd" d="M15.125 59.994L15 60c-.51 0-.93-.298-.992-.683L14 59.219V29.967C6.182 29.453 0 22.948 0 15 0 6.716 6.716 0 15 0c8.284 0 15 6.716 15 15 0 7.948-6.182 14.452-14 14.967V59.22c0 .398-.381.727-.875.775L15 60zM14 27.962l.001-14.949-4.518 3.778a.884.884 0 0 1-1.206-.06l-.077-.09a.987.987 0 0 1 .058-1.26l.085-.08 5.715-4.782c.137-.302.507-.519.942-.519.435 0 .805.217.942.52l5.715 4.78c.394.33.458.93.143 1.342a.887.887 0 0 1-1.19.218l-.093-.07L16 13.015v14.948C22.713 27.452 28 21.843 28 15c0-7.18-5.82-13-13-13S2 7.82 2 15c0 6.843 5.288 12.452 12 12.962z"/>
</svg>
