<svg xmlns="http://www.w3.org/2000/svg" width="30" height="60" viewBox="0 0 30 60">
    <path fill="#282832" fill-rule="evenodd" d="M14.875.006L15 0c.51 0 .93.298.992.683L16 .781v29.252c7.818.514 14 7.019 14 14.967 0 8.284-6.716 15-15 15-8.284 0-15-6.716-15-15 0-7.948 6.182-14.452 14-14.967V.78c0-.398.381-.727.875-.775L15 0zM16 32.038l-.001 14.949 4.518-3.778a.884.884 0 0 1 1.206.06l.077.09c.29.38.259.92-.058 1.26l-.085.08-5.715 4.782c-.137.302-.507.519-.942.519-.435 0-.805-.217-.942-.52L8.343 44.7a.984.984 0 0 1-.143-1.342.887.887 0 0 1 1.19-.218l.093.07L14 46.985V32.038C7.287 32.548 2 38.157 2 45c0 7.18 5.82 13 13 13s13-5.82 13-13c0-6.843-5.288-12.452-12-12.962z"/>
</svg>
