<svg xmlns="http://www.w3.org/2000/svg" xmlns:xlink="http://www.w3.org/1999/xlink" width="24" height="24" viewBox="0 0 24 24">
    <defs>
        <path id="a" d="M10 12.5c-.827 0-1.5-.673-1.5-1.5s.673-1.5 1.5-1.5 1.5.673 1.5 1.5-.673 1.5-1.5 1.5m0-5c-1.93 0-3.5 1.57-3.5 3.5s1.57 3.5 3.5 3.5 3.5-1.57 3.5-3.5-1.57-3.5-3.5-3.5m8 7.5c0 .551-.448 1-1 1H3c-.552 0-1-.449-1-1V7c0-.551.448-1 1-1h14c.552 0 1 .449 1 1v8zM8 2.5a.5.5 0 0 1 .5-.5h3a.5.5 0 0 1 .5.5V4H8V2.5zM17 4h-3V2.5C14 1.122 12.879 0 11.5 0h-3A2.503 2.503 0 0 0 6 2.5V4H3C1.346 4 0 5.346 0 7v8c0 1.654 1.346 3 3 3h14c1.654 0 3-1.346 3-3V7c0-1.654-1.346-3-3-3z"/>
    </defs>
    <use fill="#FF7900" fill-rule="nonzero" transform="translate(2 3)" xlink:href="#a"/>
</svg>
