<svg xmlns="http://www.w3.org/2000/svg" width="130" height="36" viewBox="0 0 130 36">
    <path fill="#ffffff" fill-rule="nonzero" d="M4.952 0v16.392c0 1.529.492 2.845 1.51 3.947 1.019 1.067 2.283 1.6 3.794 1.6 1.51 0 2.74-.533 3.758-1.6 1.018-1.102 1.545-2.418 1.545-3.947h.004v-.022c0-2.849.95-5.27 2.884-7.23 1.934-1.993 4.397-2.99 7.387-2.99 2.99 0 5.452.997 7.386 2.99.14.143.275.289.405.436.13-.147.264-.293.404-.435 1.935-1.994 4.397-2.992 7.387-2.992 2.99 0 5.452.998 7.387 2.992.104.105.203.212.301.32l-.016.019.028.03c.102-.114.207-.226.316-.336 1.932-1.991 4.39-2.987 7.376-2.987 2.985 0 5.444.996 7.376 2.987 1.931 1.956 2.88 4.373 2.88 7.218 0 2.88-.949 5.298-2.88 7.254-1.932 1.956-4.39 2.951-7.376 2.951-2.006 0-3.773-.452-5.303-1.34V36h-4.953v-9.177a11.021 11.021 0 0 0 3.14-2.242c1.378-1.395 2.322-3.021 2.828-4.854.148.21.313.415.495.612 1.018 1.067 2.283 1.6 3.793 1.6 1.51 0 2.74-.533 3.758-1.6 1.019-1.102 1.545-2.418 1.545-3.947s-.526-2.845-1.545-3.911c-1.018-1.067-2.248-1.6-3.758-1.6-1.51 0-2.775.533-3.793 1.6a5.291 5.291 0 0 0-1.374 2.587s-.04.22-.026.456v.007l.003.06c.007.112.015.225.019.339.006.15.01.301.01.454v.008l-.006.366c-.074 2.549-.913 4.73-2.541 6.534l-.008.009.012.014a10.99 10.99 0 0 1-.301.32c-1.935 1.959-4.397 2.956-7.387 2.956-2.99 0-5.452-.997-7.387-2.956a10.77 10.77 0 0 1-.404-.435c-.13.147-.264.292-.405.435-1.934 1.959-4.397 2.956-7.386 2.956-2.99 0-5.453-.997-7.387-2.956-.14-.142-.274-.287-.403-.434-.133.15-.27.3-.413.445-1.932 1.955-4.39 2.95-7.375 2.95-2.986 0-5.444-.995-7.376-2.95C.948 21.69 0 19.272 0 16.392V0h4.952zm121.591 5.143c.693 0 1.386.108 2.079.324l.346.117-.44 4.959c-.846-.257-1.654-.404-2.389-.404-2.871 0-4.796 1.822-4.884 5.775l-.003.286v9.514h-5.18l-.001-10.277V5.694h4.96v2.682c1.213-2.168 3.05-3.233 5.512-3.233zm-20.79 0c3.004 0 5.478 1.003 7.42 3.01 1.863 1.89 2.817 4.206 2.893 6.92l.005.355v.009l-.007.42c-.01.283-.029.561-.057.835l-.05.407h-15.32c.237.852.667 1.62 1.3 2.308 1.026 1.075 2.298 1.612 3.817 1.612 1.208 0 2.237-.34 3.124-1.02l.202-.164h6.1a9.89 9.89 0 0 1-2.006 2.905c-1.943 1.97-4.417 2.974-7.42 2.974s-5.477-1.003-7.42-2.974c-1.943-1.972-2.897-4.409-2.897-7.311 0-2.867.954-5.305 2.897-7.276 1.943-2.007 4.417-3.01 7.42-3.01zM87.687 0v5.982h5.46v3.872h-5.46v8.506c0 2.1.91 3.15 2.695 3.15.765 0 1.621-.197 2.532-.6a10.339 10.339 0 0 0 2.524 3.197c-1.58.918-3.933 1.603-6.036 1.603-4.285 0-6.556-2.328-6.648-6.769l-.003-.286V9.87H79.86l-6.203.002c-.64 0-1.17.192-1.62.585-.422.383-.627.851-.627 1.432 0 .577.202 1.03.636 1.422.406.356.868.55 1.406.588l.205.007H74.947c1.744 0 3.227.56 4.407 1.666 1.192 1.118 1.796 2.543 1.796 4.238 0 1.695-.604 3.12-1.796 4.238-1.106 1.037-2.479 1.594-4.083 1.66l-.324.006h-7.884V21.83l7.884-.002c.641 0 1.17-.191 1.62-.585.422-.382.627-.851.627-1.432 0-.577-.202-1.029-.636-1.422a2.314 2.314 0 0 0-1.406-.588l-.205-.007h-1.289c-1.744 0-3.227-.56-4.407-1.666-1.192-1.117-1.796-2.543-1.796-4.238 0-1.694.604-3.12 1.796-4.238 1.107-1.036 2.479-1.594 4.083-1.66l.324-.006h5.976v-.003h3.15V0h4.902zm-46.27 10.85c-1.512 0-2.779.534-3.799 1.603-1.02 1.068-1.512 2.386-1.512 3.917 0 1.531.492 2.849 1.512 3.953 1.02 1.068 2.287 1.603 3.8 1.603 1.512 0 2.743-.535 3.763-1.603 1.02-1.104 1.548-2.422 1.548-3.953 0-1.531-.528-2.849-1.548-3.917-1.02-1.069-2.251-1.603-3.764-1.603zm-15.582 0c-1.513 0-2.78.534-3.8 1.603-1.02 1.068-1.512 2.386-1.512 3.917 0 1.531.493 2.849 1.513 3.953 1.02 1.068 2.286 1.603 3.799 1.603 1.512 0 2.743-.535 3.763-1.603 1.02-1.104 1.548-2.422 1.548-3.953 0-1.531-.527-2.849-1.548-3.917-1.02-1.069-2.251-1.603-3.763-1.603zm79.92-.976c-1.52 0-2.791.537-3.816 1.612a5.367 5.367 0 0 0-1.109 1.71l-.1.272h10.035a5.528 5.528 0 0 0-1.23-1.982c-1.024-1.075-2.26-1.612-3.78-1.612z"/>
</svg>
