<?xml version="1.0" encoding="utf-8"?>
<!-- Generator: Adobe Illustrator 24.0.1, SVG Export Plug-In . SVG Version: 6.00 Build 0)  -->
<svg version="1.1" id="ARTE" xmlns="http://www.w3.org/2000/svg" xmlns:xlink="http://www.w3.org/1999/xlink" x="0px" y="0px"
	 viewBox="0 0 1030 160" style="enable-background:new 0 0 1030 160;" xml:space="preserve">
<style type="text/css">
	.st0{fill:#3F3F41;}
	.st1{fill:none;}
</style>
<g>
	<g>
		<path class="st0" d="M55.86,117.9h63.12v29.96H21.9V10.03h33.96V117.9z"/>
		<path class="st0" d="M191.69,8.03c41.95,0,72.71,29.96,72.71,70.91c0,40.95-30.76,70.91-72.91,70.91
			c-41.75,0-72.51-29.96-72.51-70.71C118.98,38.2,149.74,8.03,191.69,8.03z M191.89,38.99c-23.57,0-37.55,14.98-37.55,39.95
			c0,24.97,13.98,39.95,37.55,39.95c23.37,0,37.15-14.98,37.15-39.95C229.04,53.98,215.26,38.99,191.89,38.99z"/>
		<path class="st0" d="M345.09,8.03c41.95,0,72.71,29.96,72.71,70.91c0,40.95-30.76,70.91-72.91,70.91
			c-41.75,0-72.51-29.96-72.51-70.71C272.38,38.2,303.15,8.03,345.09,8.03z M345.29,38.99c-23.57,0-37.55,14.98-37.55,39.95
			c0,24.97,13.98,39.95,37.55,39.95c23.37,0,37.15-14.98,37.15-39.95C382.45,53.98,368.66,38.99,345.29,38.99z"/>
		<path class="st0" d="M465.74,106.31v41.55h-33.96V10.03h58.33c30.96,0,53.73,20.37,53.73,48.34c0,27.57-22.77,47.94-53.73,47.94
			H465.74z M465.74,39.99v36.35h24.37c11.59,0,18.38-6.19,18.38-18.18c0-11.58-6.79-18.18-18.38-18.18H465.74z"/>
		<path class="st0" d="M550.83,107.11c16.58,8.79,30.36,12.79,49.14,12.79c15.18,0,20.77-2.8,20.77-9.99
			c0-6.19-3.6-9.99-23.17-15.98c-33.56-10.39-46.74-24.77-46.74-43.95c0-24.37,19.98-41.95,55.33-41.95
			c16.78,0,30.16,2.6,40.15,7.19v31.36C633.53,41.39,618.55,38,604.36,38c-13.78,0-18.18,3.8-18.18,9.59
			c0,5.79,3.4,8.99,29.16,17.58c30.36,10.19,40.75,21.77,40.75,42.15c0,27.37-25.17,42.55-58.93,42.55
			c-20.38,0-34.56-3.4-46.34-10.19V107.11z"/>
		<path class="st0" d="M734.2,39.99v107.87h-33.96V39.99h-42.15V10.03h118.25v29.96H734.2z"/>
		<path class="st0" d="M820.29,39.99v23.77h45.14v29.96h-45.14v24.17h61.12v29.96h-95.08V10.03h95.08v29.96H820.29z"/>
		<path class="st0" d="M946.93,98.52h-16.58v49.34h-33.96V10.03h56.33c30.96,0,53.73,18.38,53.73,43.55
			c0,17.38-10.39,31.76-26.37,39.15l32.56,55.13h-39.35L946.93,98.52z M930.35,39.99v29.56h22.37c11.58,0,18.38-5.59,18.38-14.78
			s-6.79-14.78-18.38-14.78H930.35z"/>
	</g>
	<rect x="-123.52" y="-131.79" class="st1" width="1281.58" height="421.48"/>
</g>
</svg>
