<svg xmlns="http://www.w3.org/2000/svg" width="60" height="60" viewBox="0 0 60 60">
    <g fill="none" fill-rule="evenodd">
        <path fill="#282832" d="M30 60c16.569 0 30-13.431 30-30C60 13.431 46.569 0 30 0 13.431 0 0 13.431 0 30c0 16.569 13.431 30 30 30zm0-2.553C14.842 57.447 2.553 45.158 2.553 30S14.842 2.553 30 2.553 57.447 14.842 57.447 30 45.158 57.447 30 57.447z"/>
        <path fill="#FF7900" fill-rule="nonzero" d="M35.933 30.8l-9.333 7A1 1 0 0 1 25 37V23a1 1 0 0 1 1.6-.8l9.333 7a1 1 0 0 1 0 1.6z"/>
    </g>
</svg>
