<svg xmlns="http://www.w3.org/2000/svg" xmlns:xlink="http://www.w3.org/1999/xlink" width="43" height="42" viewBox="0 0 43 42">
    <defs>
        <path id="a" d="M18.448.5c1.424.021 2.876.161 4.266.487.96.227 1.553 1.172 1.32 2.112-.23.938-1.204 1.515-2.16 1.291-1.113-.262-2.294-.372-3.415-.39-3.829.01-7.425 1.477-10.123 4.128-2.7 2.652-4.18 6.173-4.17 9.912.011 3.74 1.513 7.25 4.227 9.888C11.1 30.555 14.686 32 18.5 32h.041c3.829-.01 7.425-1.477 10.123-4.128 2.7-2.653 4.18-6.172 4.17-9.912-.002-.966.797-1.754 1.786-1.755.992 0 1.795.78 1.797 1.744.014 4.675-1.837 9.076-5.212 12.39-3.374 3.315-7.867 5.147-12.653 5.161H18.5c-4.768 0-9.252-1.806-12.633-5.09C2.474 27.113.597 22.724.583 18.05.57 13.376 2.42 8.976 5.795 5.66 9.17 2.347 13.662.515 18.448.5zm11.246 7.597a1.825 1.825 0 0 1 2.528-.163c.744.635.82 1.741.167 2.47l-12.542 14c-.326.363-.792.579-1.288.596H18.5c-.475 0-.93-.184-1.267-.513l-5.375-5.25a1.72 1.72 0 0 1 0-2.474 1.82 1.82 0 0 1 2.534 0l4.02 3.927z"/>
    </defs>
    <use fill="#FFF" fill-rule="evenodd" transform="translate(3 3)" xlink:href="#a"/>
</svg>
