<svg xmlns="http://www.w3.org/2000/svg" viewBox="0 0 32 33">
  <path style="line-height:normal;text-indent:0;text-align:start;text-decoration-line:none;text-decoration-style:solid;text-decoration-color:#000;text-transform:none;block-progression:tb;white-space:normal;isolation:auto;mix-blend-mode:normal;solid-color:#000;solid-opacity:1" d="M3.5 3a.50005.50005 0 00-.5.5v24.003906a.50005.50005 0 00.5.5h19a.50005.50005 0 00.5-.5v-2.96289l3.492188 3.523437c.567529.5764 1.509577.5706 2.078124 0a.50005.50005 0 00.001954 0c.56834-.5736.572224-1.512337.003906-2.085937l-1.046875-1.054688-.542969-.550781-.642578-.646485-.755859-.763671-.660157-.664063a.50005.50005 0 00-.001953-.699219L23.712891 20.375c.616617-1.614397.37988-3.486284-.712891-4.90625V7.5351562a.50005.50005 0 000-.0234374.50005.50005 0 00-.146484-.3613282l-4-4a.50005.50005 0 00-.361328-.1464844.50005.50005 0 00-.058594.0039063A.50005.50005 0 0018.34375 3H3.5zM4 4h14v3.5039062a.50005.50005 0 00.5.5H22V14.488281c-1.95259-1.443377-4.71209-1.287837-6.46875.484375-.009866.009956-.017578.021231-.027344.03125H6a.50005.50005 0 100 1h8.767578c-.35814.622843-.566348 1.302134-.636719 2H6a.50005.50005 0 100 1h8.128906c.108042 1.126257.566248 2.226501 1.419922 3.087891 1.456246 1.469412 3.593425 1.842911 5.390625 1.121094L22 24.285156v2.71875H4V4zm15 .7109375l2.292969 2.2929687H19V4.7109375zM5.9179688 6.0039062a.5006443.5006443 0 00.0507812 1H17a.50005.50005 0 100-1H5.96875a.50005.50005 0 00-.0507812 0zm.0839843 3a.5006442.5006442 0 00.0507813.9999998H20a.50005.50005 0 100-.9999998H6.0527344a.50005.50005 0 00-.0507813 0zm-.0527343 2.9999998a.5006443.5006443 0 00.0507812 1h14a.50005.50005 0 100-1H6a.50005.50005 0 00-.0507812 0zm13.1054692 2.503906c1.021.002788 2.043402.399407 2.828124 1.191407 1.569453 1.5836 1.575764 4.126918.017579 5.699219-1.558181 1.5723-4.078985 1.566421-5.648438-.017579-.402637-.406268-.697776-.876986-.894531-1.376953H20a.50005.50005 0 00.203125-.041015c.452543-.096.796875-.476985.796875-.958985s-.344332-.862984-.796875-.958984A.50005.50005 0 0020 18.003906h-4.880859c.043435-.341152.115671-.677243.246093-1H20a.50005.50005 0 00.203125-.041015c.452543-.096.796875-.476985.796875-.958985s-.344332-.862984-.796875-.958984A.50005.50005 0 0020 15.003906h-2.832031c.589233-.32086 1.233811-.497876 1.886719-.496094zM5.9492188 21.003906a.5006443.5006443 0 00.0507812 1h7.109375a.50005.50005 0 100-1H6a.50005.50005 0 00-.0507812 0zm17.2910152.316406l.625.628907-1.386718 1.398437-.617188-.625c.262126-.177527.510792-.381789.742188-.615234.242577-.244788.455054-.50847.636718-.78711zm.982422 1.689454l.654297.660156.755859.761719.642579.648437.544921.548828 1.044922 1.054688c.187893.1897.187254.483034-.003906.677734-.195418.1938-.469405.1963-.658203 0a.50005.50005 0 00-.001953 0l-3.644531-3.679687.666015-.671875z" color="#fff" font-weight="400" font-family="sans-serif" overflow="visible" fill="#fff" fill-rule="evenodd"/>
</svg>