<svg xmlns="http://www.w3.org/2000/svg" width="43" height="40" viewBox="0 0 43 40"><path fill="#FFF" fill-rule="evenodd" d="M1.25 40h22.668c.69 0 1.25-.56 1.25-1.25V35h1.25c.69 0 1.25-.56 1.25-1.25v-4.594a8.673 8.673 0 0 0 1.49-.898L30.9 30l-.884.884a1.25 1.25 0 0 0 0 1.768l6.25 6.25a3.755 3.755 0 0 0 5.304 0 3.754 3.754 0 0 0 0-5.304l-6.25-6.25a1.25 1.25 0 0 0-1.768 0l-.884.884-1.743-1.742c2.565-3.425 2.292-8.316-.82-11.427a8.71 8.71 0 0 0-2.437-1.719V8.75c0-.342-.142-.66-.367-.884l-7.5-7.5A1.259 1.259 0 0 0 18.917 0H6.25C5.56 0 5 .56 5 1.25V2.5H1.25C.56 2.5 0 3.06 0 3.75v35C0 39.44.56 40 1.25 40zm38.552-4.634a1.251 1.251 0 0 1-1.768 1.768l-5.366-5.366L34.436 30l5.366 5.366zM28.337 25.67a6.258 6.258 0 0 1-8.839 0 6.257 6.257 0 0 1 0-8.84 6.257 6.257 0 0 1 8.84 0 6.257 6.257 0 0 1 0 8.84zm-8.17-21.402L23.4 7.5h-3.232V4.268zM7.5 2.5h10.167v6.25c0 .69.56 1.25 1.25 1.25h6.25v2.593a8.742 8.742 0 0 0-7.437 2.47c-3.412 3.412-3.412 8.962 0 12.374 2 2 4.767 2.852 7.438 2.47V32.5H7.5v-30zM2.5 5H5v28.75c0 .69.56 1.25 1.25 1.25h16.418v2.5H2.5V5z"/></svg>