<svg xmlns="http://www.w3.org/2000/svg" xmlns:xlink="http://www.w3.org/1999/xlink" width="52" height="50" viewBox="0 0 52 50"><defs><path id="a" d="M21.5 27.25c1.173 0 2.125.933 2.125 2.083 0 1.15-.952 2.084-2.125 2.084s-2.125-.934-2.125-2.084.952-2.083 2.125-2.083zm0-16.667c1.173 0 2.125.934 2.125 2.084v10.416c0 1.15-.952 2.084-2.125 2.084s-2.125-.934-2.125-2.084V12.667c0-1.15.952-2.084 2.125-2.084zm0 27.084c-9.373 0-17-7.477-17-16.667 0-9.19 7.627-16.667 17-16.667 9.373 0 17 7.477 17 16.667 0 9.19-7.627 16.667-17 16.667m0-37.5C9.764.167.25 9.494.25 21c0 11.506 9.514 20.833 21.25 20.833S42.75 32.506 42.75 21C42.75 9.494 33.236.167 21.5.167"/></defs><use fill="#FFF" fill-rule="evenodd" transform="translate(4 4)" xlink:href="#a"/></svg>