<svg xmlns="http://www.w3.org/2000/svg" width="165" height="145" viewBox="0 0 165 145">
    <g fill="none" fill-rule="nonzero">
        <path fill="#000" d="M94.373 4.83C62.319-8.9 29.584 8.336 12.486 35.17A80.864 80.864 0 0 0 .326 70.706c-1.496 16.083 2.072 32.451 12.316 45.317 31.735 39.92 110.11 37.41 141.85-1.287 33.953-41.4-21.959-93.564-60.12-109.906z" opacity=".05"/>
        <path fill="#FFF" d="M146.296 36.976l15.497 57.836c.415 1.55-.518 3.146-2.084 3.565L26.993 133.94c-.752.202-1.553.1-2.226-.283a2.89 2.89 0 0 1-1.361-1.763L7.909 74.057l138.387-37.08z"/>
        <path fill="#FF7900" d="M139.36 11.884l6.736 25.139L7.71 74.103.974 48.965a2.958 2.958 0 0 1 .289-2.238 2.924 2.924 0 0 1 1.783-1.37L135.762 9.793a2.943 2.943 0 0 1 3.598 2.09z"/>
        <path fill="#E8EAE4" d="M18.352 75.514l42.76-11.457 12.915 48.201-42.76 11.458z"/>
        <path fill="#1D2530" d="M78.129 66.824l61.418-16.458 1.875 6.998L80.004 73.82z"/>
        <path fill="#7A89A1" d="M82.153 81.312l61.418-16.457 1.875 6.997-61.418 16.457zM86.178 96.604l61.418-16.457 1.875 6.997-61.418 16.457z"/>
        <path fill="#3DC0CD" d="M40.734 97.009l10.884-2.917.833 3.11-10.884 2.917z"/>
        <path fill="#F49D56" d="M41.98 95.232l8.52-2.282c.397.944 1.692 3.68 2.813 4.225 2.442 9.372-9.284 12.514-11.66 3.125.698-1.032.443-4.048.328-5.068z"/>
        <path fill="#FCB87A" d="M41.678 78.118l9.015 2.545 1.286 10.949s-1.657 4.188-5.301 5.165c-3.645.976-7.174-1.823-7.174-1.823l-4.36-10.125 6.534-6.711z"/>
        <path fill="#3DC0CD" d="M44.106 100.308l3.442-1.35 3.65-.55 4.66 2.074c-.246 4.34-3.065 10.062-4.574 12.474-2.517-1.333-7.802-4.885-10.198-8.516l3.02-4.132z"/>
        <path fill="#FCB87A" d="M50.561 85.74c1.424-1.622 3.075-.549 1.698 2.414 0 0 .366.76-1.08 1.147l-.618-3.56zM37.773 88.504c-2.04-.694-2.93 1.06-.26 2.94 0 0 .057.84 1.51.451l-1.25-3.39z"/>
        <path fill="#F49D56" d="M51.355 85.196a.364.364 0 0 1 .434-.116s.28.121.274.7l.082 1.624a.335.335 0 0 0-.391.105c-.36-.965.502-2.167-.399-2.313zM37.218 89.127a.358.358 0 0 0-.43.115s-.185.246.113.744l.74 1.446a.334.334 0 0 1 .39-.104c-.167-1.016-1.51-1.628-.813-2.201z"/>
        <path fill="#C30758" d="M47.477 102.52l2.534-.678 4.057 10.889-.644 2.862-.932.583-1.103-.038-1.985-2.158z"/>
        <path fill="#C30758" d="M45.547 99.248l3.464-.928 1.38 1.193-.752 2.805-2.633.706-2.057-2.053z"/>
        <path fill="#313C3B" d="M66.142 98.341c-2.608-3.928-10.77-4.021-10.77-4.021l-4.616 17.87-12.917-13.154s-7.034 4.166-7.315 8.868l3.428 14.654 6.57-1.76-1.535-9.848 2.827 9.5 20.798-5.572-2.263-9.652 3.594 9.296 6.549-1.755-4.35-14.426z"/>
        <path fill="#BFE0E2" d="M41.588 96.867l6.37 1.615-2.546 4.86-5.394-3.394z"/>
        <path fill="#BFE0E2" d="M52.141 94.37l-4.713 4.586 4.634 2.935 2.975-5.636z"/>
        <path fill="#4A5150" d="M40.02 96.78c1.785 2.925 5.497 10.13 11.073 15.364 0 0-5.7-.502-10.267-4.358l1.397-2.695-6.778-4.7 4.574-3.612zM53.412 94.011c-.084 3.426.333 11.628-1.908 18.843 0 0 4.686-3.284 6.713-8.907l-2.562-1.635 3.525-7.46-5.768-.841z"/>
        <path fill="#000" d="M37.448 88.315s-8.396-9.581 4.171-12.42c3.823-3.032 12.051 1.608 9.533 7.746 0 0-4.108 1.916-8.228-1.592-.004.001.066 4.973-5.476 6.266z"/>
    </g>
</svg>
