<svg xmlns="http://www.w3.org/2000/svg" width="76" height="76" viewBox="0 0 76 76">
    <g fill="none" fill-rule="nonzero">
        <circle cx="38" cy="38" r="38" fill="#000" opacity=".05"/>
        <g fill="#FF7900">
            <path d="M54.303 53.943v-1.501c-.01-3.334-2.259-6.253-5.5-7.141l-6.233-1.68v-1.254a9.506 9.506 0 0 0 5.333-8.51v-6.343c0-5.254-4.298-9.514-9.6-9.514s-9.6 4.26-9.6 9.514v6.343a9.506 9.506 0 0 0 5.333 8.51v1.254l-6.235 1.68c-3.24.89-5.488 3.808-5.498 7.14v1.502c0 .584.478 1.057 1.067 1.057h29.866c.59 0 1.067-.473 1.067-1.057zm-16-33.829c3.708.005 6.852 2.706 7.381 6.343h-1.477l-1.813-2.7a1.074 1.074 0 0 0-1.53-.259l-3.983 2.96h-5.96c.53-3.638 3.674-6.34 7.382-6.344zm-7.467 13.743v-5.286h6.4c.231 0 .456-.074.64-.211l3.365-2.501 1.508 2.242c.198.294.53.47.887.47h2.134v5.286c0 4.087-3.343 7.4-7.467 7.4s-7.467-3.313-7.467-7.4zm7.467 9.514a9.651 9.651 0 0 0 2.133-.245v1.303a2.124 2.124 0 0 1-2.133 2.114 2.124 2.124 0 0 1-2.133-2.114v-1.303c.7.161 1.415.243 2.133.245zm13.867 9.515H24.436v-.444c.008-2.381 1.614-4.466 3.929-5.101l5.905-1.592a4.235 4.235 0 0 0 4.033 2.908 4.235 4.235 0 0 0 4.033-2.908l5.902 1.586c2.318.635 3.925 2.723 3.932 5.107v.444zM20.303 19h3v-2h-4a1 1 0 0 0-1 1v4h2v-3zM57.303 17h-4v2h3v3h2v-4a1 1 0 0 0-1-1zM20.303 54h-2v4a1 1 0 0 0 1 1h4v-2h-3v-3zM56.303 57h-3v2h4a1 1 0 0 0 1-1v-4h-2v3z"/>
        </g>
    </g>
</svg>
