<svg xmlns="http://www.w3.org/2000/svg" width="76" height="76" viewBox="0 0 76 76">
    <g fill="none" fill-rule="nonzero">
        <circle cx="38" cy="38" r="38" fill="#000" opacity=".05"/>
        <g fill="#FF7900">
            <path d="M57.46 23H19.54A3.537 3.537 0 0 0 16 26.527v22.946A3.537 3.537 0 0 0 19.54 53h37.92A3.537 3.537 0 0 0 61 49.473V26.527A3.537 3.537 0 0 0 57.46 23zm-37.92 1.751h37.92a1.78 1.78 0 0 1 1.782 1.776v20.46H33.348a.877.877 0 0 0-.88.875c0 .484.394.876.88.876h25.894v.735c0 .979-.8 1.775-1.782 1.775H19.54a1.78 1.78 0 0 1-1.782-1.775v-.735h7.859a.877.877 0 0 0 .879-.876.877.877 0 0 0-.88-.876h-7.858v-20.46c0-.978.8-1.775 1.782-1.775z"/>
            <path d="M39.946 31h5.108c.522 0 .946-.448.946-1s-.424-1-.946-1h-5.108c-.522 0-.946.448-.946 1s.424 1 .946 1zM48.927 31h5.146c.512 0 .927-.448.927-1s-.415-1-.927-1h-5.146c-.512 0-.927.448-.927 1s.415 1 .927 1zM40.867 35h13.266c.479 0 .867-.448.867-1s-.388-1-.867-1H40.867c-.479 0-.867.448-.867 1s.388 1 .867 1zM40.91 38h4.18c.503 0 .91-.448.91-1s-.407-1-.91-1h-4.18c-.503 0-.91.448-.91 1s.407 1 .91 1zM52.784 36h-3.568C47.994 36 47 37.01 47 38.25v3.5c0 1.24.994 2.25 2.216 2.25h3.568C54.006 44 55 42.99 55 41.75v-3.5c0-1.24-.994-2.25-2.216-2.25zm.385 5.75a.389.389 0 0 1-.385.39h-3.568a.389.389 0 0 1-.385-.39v-3.5c0-.215.172-.39.385-.39h3.568c.213 0 .385.175.385.39v3.5zM40.91 42h4.18c.503 0 .91-.448.91-1s-.407-1-.91-1h-4.18c-.503 0-.91.448-.91 1s.407 1 .91 1zM22.87 43h12.26c.48 0 .87-.385.87-.86V28.86c0-.474-.39-.859-.87-.859H22.87c-.48 0-.87.385-.87.86V42.14c0 .474.39.859.87.859zm11.39-1.719H23.74v-2.468l.007-.03c.363-1.324 1.61-2.249 3.035-2.249h4.436c1.424 0 2.672.925 3.035 2.25l.008.028v2.47zm-7.112-8.296c0-1.01.83-1.83 1.852-1.83 1.021 0 1.852.82 1.852 1.83 0 1.01-.83 1.83-1.852 1.83a1.843 1.843 0 0 1-1.852-1.83zm7.113 2.868a4.95 4.95 0 0 0-2.228-.971c.353-.55.558-1.2.558-1.897 0-1.465-.902-2.725-2.186-3.266h3.856v6.134zm-6.666-6.134c-1.284.541-2.186 1.801-2.186 3.266 0 .697.205 1.348.558 1.897a4.949 4.949 0 0 0-2.228.97V29.72h3.856zM30.557 47.165c-.756-.504-1.763.227-1.52 1.1.114.411.488.714.915.734.428.02.828-.241.982-.64.166-.43.01-.94-.377-1.194z"/>
        </g>
    </g>
</svg>
