<svg xmlns="http://www.w3.org/2000/svg" width="76" height="76" viewBox="0 0 76 76">
    <g fill="none" fill-rule="nonzero">
        <circle cx="38" cy="38" r="38" fill="#000" opacity=".05"/>
        <path fill="#FF7900" d="M54.583 33a1.083 1.083 0 1 1 0 2.167h-5.416v8.666h8.666v-2.166a1.083 1.083 0 0 1 2.167 0v2.166A2.17 2.17 0 0 1 57.833 46h-8.666A2.17 2.17 0 0 1 47 43.833v-8.666A2.17 2.17 0 0 1 49.167 33zM28.93 43c.591 0 1.071.448 1.071 1s-.48 1-1.071 1H16.07C15.48 45 15 44.552 15 44s.48-1 1.071-1zM41.9 43c.608 0 1.1.448 1.1 1s-.492 1-1.1 1h-8.8c-.608 0-1.1-.448-1.1-1s.492-1 1.1-1zm18.118-11.56a1.102 1.102 0 0 1 1.541-.22 1.1 1.1 0 0 1 .22 1.54l-6.607 8.8a1.1 1.1 0 0 1-1.66.118l-2.203-2.2a1.099 1.099 0 0 1 .014-1.542 1.102 1.102 0 0 1 1.543-.014l1.305 1.303zM41.923 39c.595 0 1.077.448 1.077 1s-.482 1-1.077 1H16.077C15.482 41 15 40.552 15 40s.482-1 1.077-1zM24.9 34c.608 0 1.1.448 1.1 1s-.492 1-1.1 1h-8.8c-.608 0-1.1-.448-1.1-1s.492-1 1.1-1zm17.029 0c.591 0 1.071.448 1.071 1s-.48 1-1.071 1H29.07C28.48 36 28 35.552 28 35s.48-1 1.071-1z"/>
    </g>
</svg>
