<svg xmlns="http://www.w3.org/2000/svg" width="165" height="170" viewBox="0 0 165 170">
    <g fill="none" fill-rule="nonzero">
        <path fill="#000" d="M94.373 17.835C62.319 4.093 29.584 21.343 12.486 48.198A80.977 80.977 0 0 0 .326 83.766c-1.496 16.096 2.072 32.478 12.316 45.355 31.735 39.952 110.11 37.442 141.85-1.288 33.953-41.435-21.959-93.643-60.12-109.998z" opacity=".05"/>
        <path fill="#FF9D80" d="M49.216 24.736C44.493 19.523 38.3 14.109 37.03 12.534c-1.709-2.124-1.992-5.854-4.38-3.954-.874.695-.889 2.911.09 4.742.678 1.258 4.745 8.997 10.193 15.005 4.239 4.68 8.074 8.418 10.567 9.321.69.35 1.512.276 2.134-.193 1.821-1.791-.679-6.417-6.418-12.72z"/>
        <path fill="#000" d="M36.103 0l5.585.755L39.2 12.89l-5.584-.755zM43.303.915l-.813-.11-2.417 11.976.813.11z"/>
        <path fill="#FF9D80" d="M34.077 8.863l-1.27 3.412c.381.626 1.147.803 1.726.4.56-.386 1.432-3.247-.456-3.812z"/>
        <path fill="#C30758" d="M86.143 26.176c-3.024-.932-26.686 3.558-29.952 4.536-1.24-1.91-14.114-15.304-14.19-15.404l-5.964 5.623c2.147 3.288 16.88 18.485 16.896 18.485 3.107 1.132 21.016 2.472 22.309 2.48 4.233.03 14.514-14.596 10.9-15.72z"/>
        <path fill="#FF9D80" d="M100.828 117.809c-5.556 2.22-4.748 6.515-2.667 11.782 3.475 8.804 10.423 22.492 14.92 30.752.06.115 1.222 2.113 1.289 2.212 1.652 2.466 3.637 0 3.126-3.391-.852-5.65-8.852-44.479-16.668-41.355zM75.798 119.246c-6.059.373-5.173 4.84-4.718 10.487.757 9.413 4.218 33.582 3.945 33.62.133.844.33 1.676.591 2.489.871 2.853 4.128 2.054 4.643-1.34.015 0 4.105-45.788-4.461-45.256z"/>
        <path fill="#000" d="M105.656 94.717c-.848-11.611-.682-17.484-5.944-26.234-9.845 2.401-19.59 2.363-29.321 4.183-.356.566-.606 1.207-1.03 1.796-1.78 24.256-1.386 58.468 2.211 82.655.046.325 10.791 1.51 11.14.182a423.02 423.02 0 0 1 3.786-61.654 7.08 7.08 0 0 1 1.355-.03c2.34 21.04 19.878 61.661 20.272 61.608 6.77-.936 10.26-3.722 10.26-3.722-4.392-13.913-11.487-41.731-12.729-58.784zM80.949 163.555s-3.073.558-3.741.74c-4.993-1.606-4.609-.126-3.74 1.334-1.929 1.026-5.877 2.884-5.017 3.708 2.343 2.221 13.604-1.85 13.604-1.85l-1.106-3.932zM117.4 157.915c0 .102-2.137 1.21-3.1 1.842-5.222.118-4.275 1.581-2.933 2.783-1.387 1.787-4.404 5.495-3.199 5.748 5.101 1.083 11.832-6.926 11.832-6.926l-2.6-3.447z"/>
        <path fill="#FF7900" d="M103.087 29.153a4.441 4.441 0 0 0-2.19-.99c-1.517-.25-4.322-.757-7.264-1.15l-8.574-.408c-6.528-.317-12.426 3.712-13.79 9.442-3.102 13.084-3.746 45.695-3.746 45.695 3.108 1.028 21.645 3.658 39.56.657l-.759-42.233c.25-4.165-.303-8.45-3.237-11.013z"/>
        <path fill="#FF9D80" d="M108.323 66.67c-1.095 3.236-3.112 11.654-3.869 14.332-1.02 3.575-.75 8.003.87 8.372 2.931.664 1.957-4.624 3.749-7.701 1.23-2.127 4.22-6.955 5.533-11.39 1.02-3.447 3.5-9.934 2.871-13.577-.217-1.298-.127-1.878-1.23-1.916-4.228-.189-6.59 7.943-7.924 11.88z"/>
        <path fill="#FF7900" d="M95.032 33.53c.624 3.15 12.923 21.048 15.31 23.53-1.056 2.02-3.176 7.894-3.176 7.894-1.293 3.97-3.3 12.008-3.33 12.145l7.665 2.664c1.807-3.484 8.499-22.817 8.499-22.84-.476-4.371-12.254-26.11-17.391-28.539-1.733-.865-8.328 1.381-7.577 5.146z"/>
        <path fill="#C30758" d="M99.507 26.212c-1.771-2.715-8.59-2.852-10.472-2.836-1.764 0-7.742-.313-7.787 2.37-.066 3.921 4.665 8.557 10.864 6.966 1.867-.482 9.3-3.583 7.395-6.5z"/>
        <path fill="#FF9D80" d="M88.857 31.408c-.802-.08-1.543-.513-2.06-1.203a3.663 3.663 0 0 1-.693-2.48l.64-7.741 6.614-1.453-1.211 9.817c-.157 1.858-1.627 3.225-3.29 3.06z"/>
        <path fill="#FF5A29" d="M90.938 18.53h-4.825l-.829 8.058c3.38 0 6.813-2.155 7.26-4.913.125-.576-1.606-3.144-1.606-3.144z"/>
        <path fill="#FF5A29" d="M88.514 14.658l-4.087-.914a1.943 1.943 0 0 0-1.859.585 1.961 1.961 0 0 0-.424 1.909 1.95 1.95 0 0 0 1.435 1.323l4.31.97.625-3.873z"/>
        <path fill="#FF9D80" d="M89.321 18.37l4.082.919a1.947 1.947 0 0 0 1.86-.582 1.956 1.956 0 0 0-1.005-3.23l-4.311-.975-.626 3.867z"/>
        <path fill="#FF9D80" d="M94.06 19.44l1.587-7.178c.68-3.244-1.316-6.445-4.492-7.201-1.954-.442-3.474-.32-4.904 1.104-1.212 1.225-1.13 2.755-1.871 4.97-.696 2.101-3.204 7.712.314 11.61 1.947 2.146 5.368 1.681 7.486-.145a6.109 6.109 0 0 0 1.88-3.16z"/>
        <path fill="#FFF" d="M84.477 18.53c.025 1.186 1.048 2.188 2.433 2.384 1.384.196 2.737-.47 3.218-1.584l-5.65-.8z"/>
        <path fill="#000" d="M87.53 2.43a8.987 8.987 0 0 0-4.355.861c-.537.253-1.127.691-1.096 1.29.052 1.022 1.746 1.307 1.807 2.305.06 1-1.55 1.345-1.815 2.305a1.438 1.438 0 0 0 .968 1.583c.649.185 1.327.24 1.996.161.67-.08 1.348.066 1.928.415.84.63 1.059 1.997 2.05 2.305a2.813 2.813 0 0 0 1.912-.377 1.91 1.91 0 0 1 1.89-.046c.53.415.537 1.206.545 1.89.008.684.144 1.49.756 1.744a1.228 1.228 0 0 0 1.512-.768c.257-.561 1.422-5.731.757-7.56a8.63 8.63 0 0 0-3.637-4.348 11.012 11.012 0 0 0-5.218-1.76z"/>
    </g>
</svg>
