<?xml version="1.0" encoding="UTF-8"?>
<svg xmlns="http://www.w3.org/2000/svg" xmlns:xlink="http://www.w3.org/1999/xlink" version="1.2" >
<font id="RCI Lt Italic">
<font-face  font-family="RCI" units-per-em="1000" ascent="980" descent="-322" font-style="italic" font-weight="300" font-stretch="normal" slope="-14" cap-height="700" x-height="507" underline-position="-100" underline-thickness="50" />
<missing-glyph  horiz-adv-x="602" d="M205 500 Q235 500 261 482.5 Q287 465 303 435 L311 435 Q327 465 353 482.5 Q379 500 409 500 Q452 500 480 470.5 Q508 441 508 395 Q508 329 451.5 254.5 Q395 180 307 135 Q219 180 162.5 254.5 Q106 329 106 395 Q106 441 134 470.5 Q162 500 205 500 Z " />
<glyph glyph-name="null" d="" />
<glyph glyph-name="CR" unicode="&#xd;" d="" />
<glyph glyph-name="space" unicode="&#x20;" horiz-adv-x="258" d="" />
<glyph glyph-name="uni00A0" unicode="&#xa0;" horiz-adv-x="258" d="" />
<glyph glyph-name="A" unicode="A" horiz-adv-x="668" d="M531 219 L453 645 L172 219 L531 219 Z M616 0 L571 0 L538 180 L146 180 L27 0 L-17 0 L440 690 L489 690 L616 0 Z " />
<glyph glyph-name="B" unicode="B" horiz-adv-x="647" d="M61 0 L228 690 L467 690 Q553 690 599 655 Q645 620 645 556 Q645 489 604 437 Q563 385 491 363 Q541 352 568 317 Q595 282 595 230 Q595 125 519 62.5 Q443 0 314 0 L61 0 Z M599 545 Q599 596 562.5 623.5 Q526 651 458 651 L262 651 L196 380 L415 380 Q491 380 545 427.5 Q599 475 599 545 Z M187 342 L114 38 L318 38 Q426 38 487 88 Q548 138 548 225 Q548 280 513 311 Q478 342 416 342 L187 342 Z " />
<glyph glyph-name="C" unicode="C" horiz-adv-x="638" d="M360 31 Q414 31 468 44 Q522 57 579 84 L568 38 Q515 14 461 2 Q407 -10 349 -10 Q228 -10 157.5 63.5 Q87 137 87 261 Q87 349 119 429 Q151 509 210 570 Q270 633 349 666.5 Q428 700 515 700 Q570 700 618 686.5 Q666 673 702 648 L691 603 Q655 630 608 644 Q561 658 509 658 Q433 658 363 628 Q293 598 240 542 Q188 488 160.5 417 Q133 346 133 268 Q133 158 193 94.5 Q253 31 360 31 Z " />
<glyph glyph-name="D" unicode="D" horiz-adv-x="703" d="M592 124 Q534 64 456 32 Q378 0 291 0 L61 0 L70 40 L71 40 L218 649 L218 649 L228 690 L459 690 Q575 690 643.5 618.5 Q712 547 712 428 Q712 340 681 261.5 Q650 183 592 124 Z M665 420 Q665 525 605.5 587 Q546 649 444 649 L261 649 L114 40 L296 40 Q453 40 559 149.5 Q665 259 665 420 Z " />
<glyph glyph-name="E" unicode="E" horiz-adv-x="580" d="M657 690 L648 649 L262 649 L195 377 L481 377 L471 337 L186 337 L114 40 L500 40 L490 0 L61 0 L228 690 L657 690 Z " />
<glyph glyph-name="F" unicode="F" horiz-adv-x="566" d="M657 690 L648 649 L262 649 L195 375 L481 375 L471 335 L185 335 L104 0 L61 0 L228 690 L657 690 Z " />
<glyph glyph-name="G" unicode="G" horiz-adv-x="705" d="M686 329 L623 74 Q566 31 500 10.5 Q434 -10 351 -10 Q230 -10 158.5 64 Q87 138 87 262 Q87 351 118.5 431 Q150 511 210 572 Q270 633 349.5 666.5 Q429 700 516 700 Q570 700 617.5 687 Q665 674 700 649 L689 605 Q651 631 605.5 644.5 Q560 658 509 658 Q432 658 362.5 628 Q293 598 240 543 Q188 489 160.5 418 Q133 347 133 269 Q133 160 194.5 95.5 Q256 31 361 31 Q430 31 485.5 47.5 Q541 64 588 97 L635 290 L419 290 L429 329 L686 329 Z " />
<glyph glyph-name="H" unicode="H" horiz-adv-x="733" d="M602 0 L559 0 L638 325 L183 325 L104 0 L61 0 L228 690 L271 690 L192 365 L647 365 L726 690 L770 690 L602 0 Z " />
<glyph glyph-name="I" unicode="I" horiz-adv-x="235" d="M228 690 L271 690 L104 0 L61 0 L228 690 Z " />
<glyph glyph-name="J" unicode="J" horiz-adv-x="437" d="M118 -10 Q90 -10 62 -5 Q34 0 16 8 L26 49 Q43 40 68.5 35 Q94 30 126 30 Q201 30 249 75 Q297 120 319 209 L435 690 L479 690 L363 209 Q336 100 274.5 45 Q213 -10 118 -10 Z " />
<glyph glyph-name="K" unicode="K" horiz-adv-x="626" d="M563 0 L511 0 L300 336 L154 205 L104 0 L61 0 L228 690 L271 690 L168 266 L641 690 L697 690 L333 365 L563 0 Z " />
<glyph glyph-name="L" unicode="L" horiz-adv-x="562" d="M228 690 L271 690 L114 40 L501 40 L492 0 L61 0 L228 690 Z " />
<glyph glyph-name="M" unicode="M" horiz-adv-x="831" d="M443 244 L825 690 L868 690 L700 0 L657 0 L807 613 L455 201 L414 201 L252 614 L104 0 L61 0 L228 690 L271 690 L443 244 Z " />
<glyph glyph-name="N" unicode="N" horiz-adv-x="726" d="M596 0 L554 0 L254 619 L104 0 L61 0 L228 690 L270 690 L570 68 L720 690 L763 690 L596 0 Z " />
<glyph glyph-name="O" unicode="O" horiz-adv-x="771" d="M351 -10 Q234 -10 162.5 65.5 Q91 141 91 262 Q91 348 123 428 Q155 508 215 569 Q275 632 353.5 666 Q432 700 518 700 Q635 700 706.5 623.5 Q778 547 778 425 Q778 340 745.5 261 Q713 182 653 120 Q592 58 513.5 24 Q435 -10 351 -10 Z M622 149 Q675 204 703.5 273.5 Q732 343 732 417 Q732 526 671.5 592 Q611 658 510 658 Q438 658 369 627 Q300 596 246 540 Q194 485 165.5 415.5 Q137 346 137 272 Q137 163 197.5 97 Q258 31 359 31 Q431 31 500 62 Q569 93 622 149 Z " />
<glyph glyph-name="P" unicode="P" horiz-adv-x="618" d="M603 520 Q603 579 564.5 614 Q526 649 461 649 L261 649 L180 314 L378 314 Q472 314 537.5 373.5 Q603 433 603 520 Z M649 527 Q649 418 568.5 346 Q488 274 370 274 L170 274 L104 0 L61 0 L228 690 L471 690 Q552 690 600.5 645.5 Q649 601 649 527 Z " />
<glyph glyph-name="Q" unicode="Q" horiz-adv-x="771" d="M137 272 Q137 163 197.5 97 Q258 31 359 31 Q418 31 475.5 52 Q533 73 583 113 L469 211 L489 236 L607 134 Q667 190 699.5 264 Q732 338 732 417 Q732 526 671.5 592 Q611 658 510 658 Q438 658 369 627 Q300 596 246 540 Q194 485 165.5 415.5 Q137 346 137 272 Z M743 15 L724 -9 L615 85 Q557 39 489 14.5 Q421 -10 351 -10 Q234 -10 162.5 65.5 Q91 141 91 262 Q91 348 123 428 Q155 508 215 569 Q275 632 353.5 666 Q432 700 518 700 Q635 700 706.5 623.5 Q778 547 778 425 Q778 334 741.5 251 Q705 168 638 106 L743 15 Z " />
<glyph glyph-name="R" unicode="R" horiz-adv-x="631" d="M606 534 Q606 587 569 618 Q532 649 469 649 L261 649 L190 357 L397 357 Q484 357 545 408.5 Q606 460 606 534 Z M552 0 L501 0 L380 317 L181 317 L104 0 L61 0 L228 690 L478 690 Q556 690 604 648.5 Q652 607 652 541 Q652 456 588 393.5 Q524 331 426 319 L552 0 Z " />
<glyph glyph-name="S" unicode="S" horiz-adv-x="576" d="M250 -10 Q189 -10 129.5 8 Q70 26 33 55 L45 101 Q84 69 142 49.5 Q200 30 259 30 Q356 30 425.5 76 Q495 122 495 191 Q495 235 460.5 268.5 Q426 302 316 350 Q227 388 191.5 425 Q156 462 156 513 Q156 594 232.5 647 Q309 700 425 700 Q478 700 521.5 688.5 Q565 677 607 652 L596 608 Q559 633 513.5 646 Q468 659 417 659 Q329 659 266 619 Q203 579 203 521 Q203 479 235.5 448.5 Q268 418 361 380 Q460 338 500.5 297.5 Q541 257 541 202 Q541 109 458 49.5 Q375 -10 250 -10 Z " />
<glyph glyph-name="T" unicode="T" horiz-adv-x="572" d="M674 690 L664 649 L431 649 L273 0 L230 0 L387 649 L153 649 L163 690 L674 690 Z " />
<glyph glyph-name="U" unicode="U" horiz-adv-x="713" d="M609 266 L711 690 L755 690 L652 263 Q621 135 532.5 62.5 Q444 -10 320 -10 Q221 -10 165.5 41.5 Q110 93 110 185 Q110 205 112.5 224.5 Q115 244 120 264 L223 690 L266 690 L163 264 Q159 245 156.5 227 Q154 209 154 192 Q154 116 200.5 73.5 Q247 31 330 31 Q432 31 507.5 95 Q583 159 609 266 Z " />
<glyph glyph-name="V" unicode="V" horiz-adv-x="673" d="M745 690 L794 690 L326 0 L276 0 L145 690 L191 690 L311 44 L745 690 Z " />
<glyph glyph-name="W" unicode="W" horiz-adv-x="996" d="M688 46 L1067 690 L1116 690 L704 0 L655 0 L590 509 L277 0 L228 0 L145 690 L190 690 L266 46 L580 561 L625 561 L688 46 Z " />
<glyph glyph-name="X" unicode="X" horiz-adv-x="608" d="M550 0 L503 0 L344 309 L35 0 L-14 0 L326 342 L147 690 L194 690 L359 370 L678 690 L728 690 L376 338 L550 0 Z " />
<glyph glyph-name="Y" unicode="Y" horiz-adv-x="628" d="M693 690 L742 690 L372 292 L301 0 L257 0 L328 292 L149 690 L195 690 L358 331 L693 690 Z " />
<glyph glyph-name="Z" unicode="Z" horiz-adv-x="585" d="M509 0 L7 0 L16 38 L598 649 L166 649 L176 690 L664 690 L655 651 L73 40 L518 40 L509 0 Z " />
<glyph glyph-name="AE" unicode="&#xc6;" horiz-adv-x="925" d="M206 219 L459 219 L563 647 L206 219 Z M835 0 L406 0 L450 180 L175 180 L25 0 L-21 0 L551 690 L1003 690 L993 649 L607 649 L540 377 L826 377 L817 337 L531 337 L459 40 L845 40 L835 0 Z " />
<glyph glyph-name="OE" unicode="&#x152;" horiz-adv-x="1157" d="M242 540 Q190 485 161.5 415.5 Q133 346 133 272 Q133 163 193.5 97 Q254 31 355 31 Q428 31 496 61.5 Q564 92 618 149 Q670 204 699 274 Q728 344 728 417 Q728 526 667.5 592 Q607 658 506 658 Q434 658 365 627 Q296 596 242 540 Z M638 0 L682 175 Q623 87 535.5 38.5 Q448 -10 347 -10 Q230 -10 158.5 65.5 Q87 141 87 262 Q87 348 119 428 Q151 508 211 569 Q271 632 349.5 666 Q428 700 514 700 Q612 700 676.5 641.5 Q741 583 755 484 L804 690 L1235 690 L1225 649 L838 649 L773 377 L1057 377 L1048 337 L763 337 L691 40 L1077 40 L1067 0 L638 0 Z " />
<glyph glyph-name="Lslash" unicode="&#x141;" horiz-adv-x="563" d="M502 40 L492 0 L61 0 L133 296 L49 260 L59 299 L143 335 L229 690 L272 690 L191 356 L425 456 L416 417 L182 317 L115 40 L502 40 Z " />
<glyph glyph-name="Oslash" unicode="&#xd8;" horiz-adv-x="771" d="M653 120 Q592 58 513.5 24 Q435 -10 351 -10 Q288 -10 237 13 Q186 36 151 79 L50 -9 L31 15 L133 104 Q113 137 102 177.5 Q91 218 91 262 Q91 348 123 428 Q155 508 215 569 Q275 632 353.5 666 Q432 700 518 700 Q579 700 630.5 677 Q682 654 717 611 L819 699 L839 674 L736 585 Q757 551 767.5 510.5 Q778 470 778 425 Q778 340 745.5 261 Q713 182 653 120 Z M246 540 Q194 485 165.5 415.5 Q137 346 137 272 Q137 232 145.5 197.5 Q154 163 170 136 L682 580 Q652 618 608 638 Q564 658 510 658 Q438 658 369 627 Q300 596 246 540 Z M359 31 Q431 31 500 62 Q569 93 622 149 Q675 204 703.5 273.5 Q732 343 732 417 Q732 456 723.5 490.5 Q715 525 699 553 L187 110 Q216 71 260 51 Q304 31 359 31 Z " />
<glyph glyph-name="Eth" unicode="&#xd0;" horiz-adv-x="704" d="M359 365 L350 329 L185 329 L115 40 L297 40 Q454 40 560 149.5 Q666 259 666 420 Q666 525 606.5 587 Q547 649 445 649 L262 649 L193 365 L359 365 Z M292 0 L61 0 L141 329 L74 329 L83 365 L150 365 L219 649 L219 649 L229 690 L460 690 Q576 690 644.5 618.5 Q713 547 713 428 Q713 340 682 261.5 Q651 183 593 124 Q535 64 457 32 Q379 0 292 0 Z " />
<glyph glyph-name="Thorn" unicode="&#xde;" horiz-adv-x="619" d="M571 386 Q571 444 532 479.5 Q493 515 428 515 L229 515 L148 180 L348 180 Q442 180 506.5 239.5 Q571 299 571 386 Z M617 392 Q617 285 536.5 212 Q456 139 338 139 L138 139 L104 0 L61 0 L228 690 L271 690 L238 555 L439 555 Q519 555 568 510 Q617 465 617 392 Z " />
<glyph glyph-name="a" unicode="a" horiz-adv-x="625" d="M499 155 L547 353 Q527 412 482 445.5 Q437 479 376 479 Q268 479 189.5 397 Q111 315 111 198 Q111 120 153.5 74 Q196 28 267 28 Q328 28 389.5 61.5 Q451 95 499 155 Z M461 0 L488 109 Q439 51 378 20.5 Q317 -10 250 -10 Q167 -10 116.5 45 Q66 100 66 189 Q66 254 89 313 Q112 372 156 418 Q200 465 258.5 491 Q317 517 379 517 Q442 517 488 486 Q534 455 557 398 L585 507 L626 507 L503 0 L461 0 Z " />
<glyph glyph-name="b" unicode="b" horiz-adv-x="625" d="M523 88 Q479 42 420.5 16 Q362 -10 301 -10 Q236 -10 188.5 22 Q141 54 121 111 L94 0 L51 0 L229 731 L274 740 L189 396 Q241 456 301.5 486.5 Q362 517 427 517 Q510 517 561.5 461.5 Q613 406 613 316 Q613 251 590 192.5 Q567 134 523 88 Z M568 308 Q568 385 525 432 Q482 479 412 479 Q349 479 288 444.5 Q227 410 179 347 L132 157 Q151 95 196 61.5 Q241 28 304 28 Q411 28 489.5 110 Q568 192 568 308 Z " />
<glyph glyph-name="c" unicode="c" horiz-adv-x="509" d="M375 479 Q264 479 186.5 395.5 Q109 312 109 195 Q109 117 153.5 72.5 Q198 28 277 28 Q321 28 360.5 41.5 Q400 55 449 87 L439 45 Q402 18 357 4 Q312 -10 264 -10 Q172 -10 118.5 43.5 Q65 97 65 188 Q65 326 156.5 421.5 Q248 517 379 517 Q430 517 470.5 501.5 Q511 486 535 457 L525 415 Q501 446 462.5 462.5 Q424 479 375 479 Z " />
<glyph glyph-name="d" unicode="d" horiz-adv-x="625" d="M500 159 L547 348 Q528 410 481 444.5 Q434 479 370 479 Q266 479 188 396.5 Q110 314 110 198 Q110 120 152.5 74 Q195 28 267 28 Q328 28 390 62.5 Q452 97 500 159 Z M461 0 L489 109 Q441 52 379 21 Q317 -10 250 -10 Q167 -10 116.5 45 Q66 100 66 189 Q66 253 88.5 311.5 Q111 370 154 416 Q197 464 254.5 490.5 Q312 517 373 517 Q439 517 487.5 486 Q536 455 558 400 L639 731 L684 740 L503 0 L461 0 Z " />
<glyph glyph-name="e" unicode="e" horiz-adv-x="558" d="M515 346 Q515 409 477 444.5 Q439 480 373 480 Q289 480 218 426 Q147 372 122 286 L508 286 Q511 300 513 315.5 Q515 331 515 346 Z M453 73 L444 32 Q412 12 368 1 Q324 -10 280 -10 Q184 -10 126.5 48 Q69 106 69 201 Q69 334 160 425.5 Q251 517 379 517 Q462 517 510 470.5 Q558 424 557 345 Q557 324 552 299.5 Q547 275 539 252 L115 252 Q113 242 112 230.5 Q111 219 111 206 Q111 124 159.5 75.5 Q208 27 290 27 Q330 27 373.5 39.5 Q417 52 453 73 Z " />
<glyph glyph-name="f" unicode="f" horiz-adv-x="324" d="M376 507 L367 470 L220 470 L106 0 L63 0 L177 470 L92 470 L101 507 L186 507 L198 553 Q220 645 268.5 692.5 Q317 740 388 740 Q410 740 429 734.5 Q448 729 460 719 L450 682 Q438 691 420 696 Q402 701 382 701 Q328 701 293 664 Q258 627 240 552 L228 507 L376 507 Z " />
<glyph glyph-name="g" unicode="g" horiz-adv-x="625" d="M500 156 L547 351 Q528 411 482 445 Q436 479 375 479 Q269 479 190 396.5 Q111 314 111 198 Q111 119 153 73.5 Q195 28 267 28 Q328 28 388 61 Q448 94 500 156 Z M467 24 L489 109 Q440 52 379 21 Q318 -10 252 -10 Q168 -10 117 44.5 Q66 99 66 189 Q66 325 158.5 421 Q251 517 378 517 Q442 517 488.5 486 Q535 455 557 398 L585 507 L626 507 L511 27 Q483 -87 402.5 -152.5 Q322 -218 214 -218 Q185 -218 156 -211.5 Q127 -205 112 -196 L121 -157 Q140 -167 167 -173.5 Q194 -180 221 -180 Q308 -180 375.5 -124.5 Q443 -69 467 24 Z " />
<glyph glyph-name="h" unicode="h" horiz-adv-x="586" d="M228 731 L273 740 L190 404 Q235 456 296 486.5 Q357 517 420 517 Q489 517 523.5 486.5 Q558 456 558 395 Q558 377 555.5 358.5 Q553 340 548 321 L470 0 L427 0 L505 318 Q509 332 511 346.5 Q513 361 513 376 Q513 428 486 453 Q459 478 403 478 Q345 478 284 445.5 Q223 413 181 361 L93 0 L50 0 L228 731 Z " />
<glyph glyph-name="i" unicode="i" horiz-adv-x="216" d="M229 725 L272 725 L240 599 L198 599 L229 725 Z M176 507 L218 507 L94 0 L52 0 L176 507 Z " />
<glyph glyph-name="j" unicode="j" horiz-adv-x="225" d="M248 599 L206 599 L237 725 L278 725 L248 599 Z M-77 -180 Q-28 -180 1.5 -149 Q31 -118 48 -50 L183 507 L226 507 L91 -48 Q71 -135 29.5 -176.5 Q-12 -218 -79 -218 Q-91 -218 -101 -217 Q-111 -216 -120 -214 L-111 -177 Q-100 -179 -92.5 -179.5 Q-85 -180 -77 -180 Z " />
<glyph glyph-name="k" unicode="k" horiz-adv-x="510" d="M451 0 L400 0 L236 256 L137 175 L94 0 L51 0 L229 731 L274 740 L150 229 L485 507 L542 507 L269 284 L451 0 Z " />
<glyph glyph-name="l" unicode="l" horiz-adv-x="215" d="M274 740 L94 0 L51 0 L229 731 L274 740 Z " />
<glyph glyph-name="m" unicode="m" horiz-adv-x="933" d="M394 478 Q342 478 288.5 448 Q235 418 181 359 L94 0 L51 0 L175 507 L215 507 L188 401 Q236 456 294.5 486.5 Q353 517 412 517 Q475 517 510.5 485.5 Q546 454 547 401 Q594 456 651 486.5 Q708 517 769 517 Q835 517 870.5 485.5 Q906 454 906 396 Q906 386 904.5 373 Q903 360 899 344 L816 0 L774 0 L857 340 Q860 354 861 365 Q862 376 862 385 Q862 427 832 452.5 Q802 478 751 478 Q699 478 643 445 Q587 412 542 357 L456 0 L414 0 L498 349 Q501 364 501.5 370 Q502 376 502 381 Q502 425 473 451.5 Q444 478 394 478 Z " />
<glyph glyph-name="n" unicode="n" horiz-adv-x="587" d="M175 507 L215 507 L188 401 Q234 455 294.5 486 Q355 517 419 517 Q488 517 523.5 486.5 Q559 456 559 396 Q559 379 556.5 360 Q554 341 549 321 L471 0 L428 0 L506 318 Q510 333 512 349 Q514 365 514 381 Q514 429 485.5 453.5 Q457 478 402 478 Q344 478 285 446 Q226 414 181 359 L94 0 L51 0 L175 507 Z " />
<glyph glyph-name="o" unicode="o" horiz-adv-x="599" d="M387 517 Q475 517 530.5 460 Q586 403 586 313 Q586 249 561.5 190.5 Q537 132 491 86 Q445 40 385.5 15 Q326 -10 264 -10 Q177 -10 122 47 Q67 104 67 194 Q67 258 91.5 316.5 Q116 375 162 420 Q208 466 266.5 491.5 Q325 517 387 517 Z M272 27 Q379 27 460.5 109.5 Q542 192 542 305 Q542 383 497.5 431 Q453 479 380 479 Q273 479 192 396.5 Q111 314 111 201 Q111 122 155 74.5 Q199 27 272 27 Z " />
<glyph glyph-name="p" unicode="p" horiz-adv-x="625" d="M568 308 Q568 386 525.5 432.5 Q483 479 412 479 Q350 479 290.5 446 Q231 413 179 351 L131 153 Q151 94 196.5 61 Q242 28 302 28 Q410 28 489 110 Q568 192 568 308 Z M301 -10 Q238 -10 190.5 21 Q143 52 121 108 L45 -200 L3 -200 L175 507 L216 507 L189 398 Q239 456 300 486.5 Q361 517 427 517 Q511 517 562 461.5 Q613 406 613 316 Q613 252 589.5 193 Q566 134 523 89 Q478 42 420 16 Q362 -10 301 -10 Z " />
<glyph glyph-name="q" unicode="q" horiz-adv-x="625" d="M413 -199 L489 108 Q440 51 379 20.5 Q318 -10 251 -10 Q168 -10 117 45 Q66 100 66 189 Q66 254 89 312.5 Q112 371 155 417 Q199 465 257 491 Q315 517 377 517 Q441 517 488 486.5 Q535 456 558 399 L585 507 L626 507 L455 -199 L413 -199 Z M499 155 L547 353 Q527 412 482 445.5 Q437 479 376 479 Q268 479 189 396.5 Q110 314 110 198 Q110 120 152.5 74 Q195 28 267 28 Q328 28 389.5 61.5 Q451 95 499 155 Z " />
<glyph glyph-name="r" unicode="r" horiz-adv-x="353" d="M361 517 Q376 517 389 514 Q402 511 413 505 L403 464 Q391 470 377 473 Q363 476 347 476 Q303 476 259 444 Q215 412 180 355 L94 0 L51 0 L175 507 L216 507 L190 404 Q224 458 268.5 487.5 Q313 517 361 517 Z " />
<glyph glyph-name="s" unicode="s" horiz-adv-x="455" d="M312 480 Q242 480 195.5 450 Q149 420 149 374 Q149 347 169.5 328.5 Q190 310 270 279 Q351 249 381 220 Q411 191 411 148 Q411 75 350 32.5 Q289 -10 191 -10 Q139 -10 92.5 4.5 Q46 19 23 41 L34 84 Q61 58 106 42.5 Q151 27 200 27 Q274 27 320.5 57.5 Q367 88 367 141 Q367 173 343.5 194.5 Q320 216 238 248 Q162 276 133 303 Q104 330 104 367 Q104 434 165 475.5 Q226 517 315 517 Q358 517 395.5 506 Q433 495 465 473 L454 432 Q426 455 389 467.5 Q352 480 312 480 Z " />
<glyph glyph-name="t" unicode="t" horiz-adv-x="336" d="M267 41 L257 2 Q231 -5 216 -7.5 Q201 -10 187 -10 Q137 -10 112.5 11 Q88 32 88 76 Q88 89 90 103 Q92 117 95 132 L177 470 L92 470 L101 507 L186 507 L217 633 L261 642 L228 507 L376 507 L367 470 L220 470 L138 135 Q135 119 133.5 108 Q132 97 133 88 Q134 58 150.5 43.5 Q167 29 201 29 Q215 29 231.5 32 Q248 35 267 41 Z " />
<glyph glyph-name="u" unicode="u" horiz-adv-x="567" d="M445 0 L405 0 L432 108 Q384 52 327.5 21 Q271 -10 213 -10 Q146 -10 112 19 Q78 48 78 106 Q78 122 80.5 140 Q83 158 87 177 L168 507 L210 507 L130 180 Q126 163 124 147.5 Q122 132 122 119 Q122 74 149.5 51 Q177 28 230 28 Q283 28 336.5 59 Q390 90 440 149 L526 507 L568 507 L445 0 Z " />
<glyph glyph-name="v" unicode="v" horiz-adv-x="519" d="M592 507 L238 0 L199 0 L104 507 L147 507 L229 46 L545 507 L592 507 Z " />
<glyph glyph-name="w" unicode="w" horiz-adv-x="809" d="M882 507 L564 0 L525 0 L475 446 L213 0 L176 0 L105 507 L147 507 L208 50 L475 507 L508 507 L557 50 L838 507 L882 507 Z " />
<glyph glyph-name="x" unicode="x" horiz-adv-x="476" d="M425 0 L380 0 L260 230 L30 0 L-17 0 L244 259 L114 507 L159 507 L275 286 L497 507 L545 507 L290 256 L425 0 Z " />
<glyph glyph-name="y" unicode="y" horiz-adv-x="511" d="M-22 -218 Q-33 -218 -43 -217 Q-53 -216 -59 -214 L-50 -177 Q-42 -178 -32.5 -179 Q-23 -180 -16 -180 Q34 -180 84.5 -140.5 Q135 -101 191 -18 L203 0 L106 507 L148 507 L234 47 L540 507 L584 507 L226 -25 Q157 -127 97.5 -172.5 Q38 -218 -22 -218 Z " />
<glyph glyph-name="z" unicode="z" horiz-adv-x="463" d="M62 37 L403 37 L394 0 L-1 0 L6 31 L448 469 L117 469 L126 507 L512 507 L504 475 L62 37 Z " />
<glyph glyph-name="ae" unicode="&#xe6;" horiz-adv-x="948" d="M904 347 Q903 409 865 444.5 Q827 480 762 480 Q682 480 613.5 426.5 Q545 373 517 286 L896 286 Q900 303 902 318.5 Q904 334 904 347 Z M669 -10 Q587 -10 535 28 Q483 66 468 136 Q424 71 351.5 30.5 Q279 -10 206 -10 Q136 -10 94 27.5 Q52 65 52 128 Q52 216 117.5 274 Q183 332 285 332 Q337 332 383.5 314 Q430 296 469 261 Q482 306 485.5 328.5 Q489 351 489 371 Q489 424 454 452 Q419 480 353 480 Q308 480 265 467.5 Q222 455 179 430 L188 471 Q227 494 272.5 505.5 Q318 517 366 517 Q445 517 485 481 Q525 445 524 374 Q572 445 634.5 481 Q697 517 772 517 Q854 517 901 471 Q948 425 946 347 Q946 324 941 299 Q936 274 928 252 L508 252 Q486 151 534 89 Q582 27 680 27 Q719 27 763 40 Q807 53 842 75 L833 34 Q798 14 754 2 Q710 -10 669 -10 Z M97 136 Q97 83 130 53.5 Q163 24 222 24 Q285 24 353 67.5 Q421 111 460 173 Q459 189 459.5 202 Q460 215 462 227 Q427 261 381.5 280 Q336 299 287 299 Q205 299 151 252.5 Q97 206 97 136 Z " />
<glyph glyph-name="oe" unicode="&#x153;" horiz-adv-x="1016" d="M911 75 L901 34 Q867 14 823 2 Q779 -10 738 -10 Q652 -10 599 35.5 Q546 81 538 160 Q495 82 420.5 36 Q346 -10 262 -10 Q175 -10 121 47 Q67 104 67 195 Q67 258 91.5 316.5 Q116 375 162 421 Q207 466 266 491.5 Q325 517 386 517 Q463 517 513 472.5 Q563 428 574 351 Q616 428 687.5 472.5 Q759 517 841 517 Q921 517 967.5 472.5 Q1014 428 1015 351 Q1015 325 1010.5 300.5 Q1006 276 997 252 L577 252 Q554 152 602 89.5 Q650 27 748 27 Q787 27 831 40 Q875 53 911 75 Z M973 347 Q973 410 935 445 Q897 480 831 480 Q751 480 681.5 426.5 Q612 373 585 286 L965 286 Q969 303 971 318.5 Q973 334 973 347 Z M271 27 Q378 27 460 109.5 Q542 192 542 305 Q542 383 497.5 431 Q453 479 380 479 Q330 479 280 456.5 Q230 434 191 394 Q152 354 131.5 304 Q111 254 111 201 Q111 123 155 75 Q199 27 271 27 Z " />
<glyph glyph-name="lslash" unicode="&#x142;" horiz-adv-x="218" d="M186 374 L95 0 L53 0 L139 353 L60 319 L69 358 L148 393 L230 731 L275 740 L196 413 L277 449 L268 410 L186 374 Z " />
<glyph glyph-name="oslash" unicode="&#xf8;" horiz-adv-x="599" d="M491 86 Q445 40 385.5 15 Q326 -10 264 -10 Q220 -10 182.5 5.5 Q145 21 118 51 L47 -10 L31 11 L101 72 Q84 97 75.5 128 Q67 159 67 194 Q67 258 91.5 316.5 Q116 375 162 420 Q208 466 266.5 491.5 Q325 517 387 517 Q434 517 472.5 500 Q511 483 538 451 L614 517 L631 495 L555 429 Q570 405 578 375.5 Q586 346 586 313 Q586 249 561.5 190.5 Q537 132 491 86 Z M380 479 Q273 479 192 396.5 Q111 314 111 201 Q111 174 117 148.5 Q123 123 135 102 L505 422 Q483 450 451 464.5 Q419 479 380 479 Z M272 27 Q379 27 460.5 109.5 Q542 192 542 305 Q542 331 536.5 355 Q531 379 520 399 L151 80 Q172 54 203 40.5 Q234 27 272 27 Z " />
<glyph glyph-name="eth" unicode="&#xf0;" horiz-adv-x="593" d="M590 367 Q590 203 495.5 96.5 Q401 -10 261 -10 Q175 -10 121 47 Q67 104 67 194 Q67 256 91 313.5 Q115 371 159 417 Q204 463 261.5 488 Q319 513 380 513 Q439 513 484 484.5 Q529 456 550 406 Q543 463 519 518.5 Q495 574 454 625 L369 573 L359 594 L439 643 Q419 666 395 688 Q371 710 343 731 L384 740 Q413 718 434 699.5 Q455 681 471 663 L555 715 L567 693 L487 645 Q538 584 564 514.5 Q590 445 590 367 Z M540 312 Q540 385 494.5 431.5 Q449 478 378 478 Q273 478 192 395.5 Q111 313 111 203 Q111 123 153.5 75.5 Q196 28 269 28 Q379 28 459.5 112 Q540 196 540 312 Z " />
<glyph glyph-name="thorn" unicode="&#xfe;" horiz-adv-x="625" d="M568 307 Q568 385 525 432 Q482 479 411 479 Q349 479 288 444.5 Q227 410 179 347 L132 157 Q151 96 195.5 62 Q240 28 302 28 Q409 28 488.5 109.5 Q568 191 568 307 Z M301 -10 Q236 -10 189.5 21 Q143 52 122 110 L45 -200 L3 -200 L229 731 L274 740 L188 396 Q240 455 301 486 Q362 517 427 517 Q511 517 562 461.5 Q613 406 613 316 Q613 252 589.5 193.5 Q566 135 523 89 Q478 42 420 16 Q362 -10 301 -10 Z " />
<glyph glyph-name="germandbls" unicode="&#xdf;" horiz-adv-x="567" d="M50 0 L177 521 Q201 623 268 681.5 Q335 740 428 740 Q498 740 538.5 703.5 Q579 667 579 605 Q579 535 534.5 480.5 Q490 426 419 402 Q476 390 507.5 350 Q539 310 539 250 Q539 142 461.5 66 Q384 -10 282 -10 Q242 -10 208.5 -0.5 Q175 9 150 27 L159 64 Q190 43 218.5 34.5 Q247 26 283 26 Q368 26 431.5 90.5 Q495 155 495 246 Q495 310 455 346 Q415 382 347 382 L356 418 Q424 418 479 470 Q534 522 534 595 Q534 644 503 672.5 Q472 701 418 701 Q348 701 293.5 652 Q239 603 220 523 L93 0 L50 0 Z " />
<glyph glyph-name="dotlessi" unicode="&#x131;" horiz-adv-x="216" d="M176 507 L218 507 L94 0 L52 0 L176 507 Z " />
<glyph glyph-name="dotlessj" unicode="&#x237;" horiz-adv-x="225" d="M-77 -180 Q-28 -180 1.5 -149 Q31 -118 48 -50 L183 507 L226 507 L91 -48 Q71 -135 29.5 -176.5 Q-12 -218 -79 -218 Q-91 -218 -101 -217 Q-111 -216 -120 -214 L-111 -177 Q-100 -179 -92.5 -179.5 Q-85 -180 -77 -180 Z " />
<glyph glyph-name="fi" unicode="&#xfb01;" horiz-adv-x="515" d="M528 725 L570 725 L540 599 L498 599 L528 725 Z M376 507 L367 470 L220 470 L106 0 L63 0 L177 470 L92 470 L101 507 L186 507 L198 552 Q220 644 268.5 692 Q317 740 387 740 Q409 740 427 734.5 Q445 729 458 719 L448 680 Q438 690 420.5 695.5 Q403 701 381 701 Q328 701 293 664 Q258 627 240 552 L228 507 L376 507 Z M475 507 L518 507 L394 0 L352 0 L475 507 Z " />
<glyph glyph-name="fl" unicode="&#xfb02;" horiz-adv-x="515" d="M574 740 L394 0 L352 0 L529 731 L574 740 Z M376 507 L367 470 L220 470 L106 0 L63 0 L177 470 L92 470 L101 507 L186 507 L198 552 Q220 644 268.5 692 Q317 740 387 740 Q409 740 427 734.5 Q445 729 458 719 L448 680 Q438 690 420.5 695.5 Q403 701 381 701 Q328 701 293 664 Q258 627 240 552 L228 507 L376 507 Z " />
<glyph glyph-name="Aacute" unicode="&#xc1;" horiz-adv-x="668" d="M531 219 L453 645 L172 219 L531 219 Z M616 0 L571 0 L538 180 L146 180 L27 0 L-17 0 L440 690 L489 690 L616 0 Z M483 770 L443 770 L579 903 L633 903 L483 770 Z " />
<glyph glyph-name="Acircumflex" unicode="&#xc2;" horiz-adv-x="668" d="M531 219 L453 645 L172 219 L531 219 Z M616 0 L571 0 L538 180 L146 180 L27 0 L-17 0 L440 690 L489 690 L616 0 Z M621 770 L584 770 L514 877 L389 770 L351 770 L493 903 L543 903 L621 770 Z " />
<glyph glyph-name="Adieresis" unicode="&#xc4;" horiz-adv-x="668" d="M531 219 L453 645 L172 219 L531 219 Z M616 0 L571 0 L538 180 L146 180 L27 0 L-17 0 L440 690 L489 690 L616 0 Z M588 781 L549 781 L581 907 L620 907 L588 781 Z M429 781 L390 781 L421 907 L460 907 L429 781 Z " />
<glyph glyph-name="Agrave" unicode="&#xc0;" horiz-adv-x="668" d="M531 219 L453 645 L172 219 L531 219 Z M616 0 L571 0 L538 180 L146 180 L27 0 L-17 0 L440 690 L489 690 L616 0 Z M410 903 L461 903 L535 770 L495 770 L410 903 Z " />
<glyph glyph-name="Aring" unicode="&#xc5;" horiz-adv-x="668" d="M531 219 L453 645 L172 219 L531 219 Z M616 0 L571 0 L538 180 L146 180 L27 0 L-17 0 L440 690 L489 690 L616 0 Z M413 826 Q413 870 446.5 902 Q480 934 526 934 Q556 934 575.5 913.5 Q595 893 595 862 Q595 818 561.5 786 Q528 754 484 754 Q453 754 433 774 Q413 794 413 826 Z M444 830 Q444 808 456.5 795 Q469 782 491 782 Q520 782 542 804.5 Q564 827 564 858 Q564 879 552 892 Q540 905 520 905 Q489 905 466.5 883 Q444 861 444 830 Z " />
<glyph glyph-name="Atilde" unicode="&#xc3;" horiz-adv-x="668" d="M531 219 L453 645 L172 219 L531 219 Z M616 0 L571 0 L538 180 L146 180 L27 0 L-17 0 L440 690 L489 690 L616 0 Z M521 848 Q542 826 554 819.5 Q566 813 578 813 Q602 813 621.5 833 Q641 853 651 888 L684 888 Q669 837 639.5 809 Q610 781 573 781 Q555 781 538.5 789.5 Q522 798 495 824 Q472 847 460 853.5 Q448 860 436 860 Q409 860 388.5 840.5 Q368 821 355 782 L322 782 Q341 836 371 864 Q401 892 441 892 Q460 892 477 883.5 Q494 875 521 848 Z " />
<glyph glyph-name="Abreve" unicode="&#x102;" horiz-adv-x="668" d="M531 219 L453 645 L172 219 L531 219 Z M616 0 L571 0 L538 180 L146 180 L27 0 L-17 0 L440 690 L489 690 L616 0 Z M504 807 Q549 807 580.5 830 Q612 853 633 900 L667 900 Q645 840 600.5 807 Q556 774 497 774 Q438 774 409 808 Q380 842 388 900 L421 900 Q418 854 439 830.5 Q460 807 504 807 Z " />
<glyph glyph-name="Amacron" unicode="&#x100;" horiz-adv-x="668" d="M531 219 L453 645 L172 219 L531 219 Z M616 0 L571 0 L538 180 L146 180 L27 0 L-17 0 L440 690 L489 690 L616 0 Z M639 819 L357 819 L366 856 L648 856 L639 819 Z " />
<glyph glyph-name="Aogonek" unicode="&#x104;" horiz-adv-x="668" d="M585 -149 L577 -180 Q553 -193 532 -199 Q511 -205 487 -205 Q452 -205 429.5 -187 Q407 -169 407 -140 Q407 -98 443.5 -64 Q480 -30 570 5 L538 180 L146 180 L27 0 L-17 0 L440 690 L489 690 L616 0 Q523 -34 484 -64 Q445 -94 445 -128 Q445 -150 460.5 -162.5 Q476 -175 504 -175 Q522 -175 543.5 -168 Q565 -161 585 -149 Z M531 219 L453 645 L172 219 L531 219 Z " />
<glyph glyph-name="Ccedilla" unicode="&#xc7;" horiz-adv-x="638" d="M410 -112 Q410 -150 379 -174.5 Q348 -199 301 -199 Q275 -199 256 -194 Q237 -189 219 -177 L226 -148 Q247 -161 264.5 -165.5 Q282 -170 305 -170 Q336 -170 354.5 -156 Q373 -142 373 -118 Q373 -102 361 -94 Q349 -86 325 -86 L282 -86 L317 -9 Q210 1 148.5 73.5 Q87 146 87 261 Q87 349 119 429 Q151 509 210 570 Q270 633 349 666.5 Q428 700 515 700 Q570 700 618 686.5 Q666 673 702 648 L691 603 Q655 630 608 644 Q561 658 509 658 Q433 658 363 628 Q293 598 240 542 Q188 488 160.5 417 Q133 346 133 268 Q133 158 193 94.5 Q253 31 360 31 Q414 31 468 44 Q522 57 579 84 L568 38 Q517 14 461 2 Q405 -10 344 -10 L320 -61 L340 -61 Q374 -61 392 -74 Q410 -87 410 -112 Z " />
<glyph glyph-name="Cacute" unicode="&#x106;" horiz-adv-x="638" d="M360 31 Q414 31 468 44 Q522 57 579 84 L568 38 Q515 14 461 2 Q407 -10 349 -10 Q228 -10 157.5 63.5 Q87 137 87 261 Q87 349 119 429 Q151 509 210 570 Q270 633 349 666.5 Q428 700 515 700 Q570 700 618 686.5 Q666 673 702 648 L691 603 Q655 630 608 644 Q561 658 509 658 Q433 658 363 628 Q293 598 240 542 Q188 488 160.5 417 Q133 346 133 268 Q133 158 193 94.5 Q253 31 360 31 Z M485 770 L445 770 L581 903 L635 903 L485 770 Z " />
<glyph glyph-name="Ccaron" unicode="&#x10c;" horiz-adv-x="638" d="M360 31 Q414 31 468 44 Q522 57 579 84 L568 38 Q515 14 461 2 Q407 -10 349 -10 Q228 -10 157.5 63.5 Q87 137 87 261 Q87 349 119 429 Q151 509 210 570 Q270 633 349 666.5 Q428 700 515 700 Q570 700 618 686.5 Q666 673 702 648 L691 603 Q655 630 608 644 Q561 658 509 658 Q433 658 363 628 Q293 598 240 542 Q188 488 160.5 417 Q133 346 133 268 Q133 158 193 94.5 Q253 31 360 31 Z M518 770 L467 770 L390 903 L426 903 L496 796 L622 903 L663 903 L518 770 Z " />
<glyph glyph-name="Ccircumflex" unicode="&#x108;" horiz-adv-x="638" d="M360 31 Q414 31 468 44 Q522 57 579 84 L568 38 Q515 14 461 2 Q407 -10 349 -10 Q228 -10 157.5 63.5 Q87 137 87 261 Q87 349 119 429 Q151 509 210 570 Q270 633 349 666.5 Q428 700 515 700 Q570 700 618 686.5 Q666 673 702 648 L691 603 Q655 630 608 644 Q561 658 509 658 Q433 658 363 628 Q293 598 240 542 Q188 488 160.5 417 Q133 346 133 268 Q133 158 193 94.5 Q253 31 360 31 Z M632 770 L595 770 L525 877 L400 770 L362 770 L504 903 L554 903 L632 770 Z " />
<glyph glyph-name="Cdotaccent" unicode="&#x10a;" horiz-adv-x="638" d="M360 31 Q414 31 468 44 Q522 57 579 84 L568 38 Q515 14 461 2 Q407 -10 349 -10 Q228 -10 157.5 63.5 Q87 137 87 261 Q87 349 119 429 Q151 509 210 570 Q270 633 349 666.5 Q428 700 515 700 Q570 700 618 686.5 Q666 673 702 648 L691 603 Q655 630 608 644 Q561 658 509 658 Q433 658 363 628 Q293 598 240 542 Q188 488 160.5 417 Q133 346 133 268 Q133 158 193 94.5 Q253 31 360 31 Z M500 907 L542 907 L511 781 L469 781 L500 907 Z " />
<glyph glyph-name="Dcaron" unicode="&#x10e;" horiz-adv-x="703" d="M592 124 Q534 64 456 32 Q378 0 291 0 L61 0 L70 40 L71 40 L218 649 L218 649 L228 690 L459 690 Q575 690 643.5 618.5 Q712 547 712 428 Q712 340 681 261.5 Q650 183 592 124 Z M665 420 Q665 525 605.5 587 Q546 649 444 649 L261 649 L114 40 L296 40 Q453 40 559 149.5 Q665 259 665 420 Z M504 770 L453 770 L376 903 L412 903 L482 796 L608 903 L649 903 L504 770 Z " />
<glyph glyph-name="Dcroat" unicode="&#x110;" horiz-adv-x="704" d="M359 365 L350 329 L185 329 L115 40 L297 40 Q454 40 560 149.5 Q666 259 666 420 Q666 525 606.5 587 Q547 649 445 649 L262 649 L193 365 L359 365 Z M292 0 L61 0 L141 329 L74 329 L83 365 L150 365 L219 649 L219 649 L229 690 L460 690 Q576 690 644.5 618.5 Q713 547 713 428 Q713 340 682 261.5 Q651 183 593 124 Q535 64 457 32 Q379 0 292 0 Z " />
<glyph glyph-name="Eacute" unicode="&#xc9;" horiz-adv-x="580" d="M657 690 L648 649 L262 649 L195 377 L481 377 L471 337 L186 337 L114 40 L500 40 L490 0 L61 0 L228 690 L657 690 Z M439 770 L399 770 L535 903 L589 903 L439 770 Z " />
<glyph glyph-name="Ecircumflex" unicode="&#xca;" horiz-adv-x="580" d="M657 690 L648 649 L262 649 L195 377 L481 377 L471 337 L186 337 L114 40 L500 40 L490 0 L61 0 L228 690 L657 690 Z M586 770 L549 770 L479 877 L354 770 L316 770 L458 903 L508 903 L586 770 Z " />
<glyph glyph-name="Edieresis" unicode="&#xcb;" horiz-adv-x="580" d="M657 690 L648 649 L262 649 L195 377 L481 377 L471 337 L186 337 L114 40 L500 40 L490 0 L61 0 L228 690 L657 690 Z M551 781 L512 781 L544 907 L583 907 L551 781 Z M392 781 L353 781 L384 907 L423 907 L392 781 Z " />
<glyph glyph-name="Egrave" unicode="&#xc8;" horiz-adv-x="580" d="M657 690 L648 649 L262 649 L195 377 L481 377 L471 337 L186 337 L114 40 L500 40 L490 0 L61 0 L228 690 L657 690 Z M389 903 L440 903 L514 770 L474 770 L389 903 Z " />
<glyph glyph-name="Ebreve" unicode="&#x114;" horiz-adv-x="580" d="M657 690 L648 649 L262 649 L195 377 L481 377 L471 337 L186 337 L114 40 L500 40 L490 0 L61 0 L228 690 L657 690 Z M460 807 Q505 807 536.5 830 Q568 853 589 900 L623 900 Q601 840 556.5 807 Q512 774 453 774 Q394 774 365 808 Q336 842 344 900 L377 900 Q374 854 395 830.5 Q416 807 460 807 Z " />
<glyph glyph-name="Ecaron" unicode="&#x11a;" horiz-adv-x="580" d="M657 690 L648 649 L262 649 L195 377 L481 377 L471 337 L186 337 L114 40 L500 40 L490 0 L61 0 L228 690 L657 690 Z M480 770 L429 770 L352 903 L388 903 L458 796 L584 903 L625 903 L480 770 Z " />
<glyph glyph-name="Edotaccent" unicode="&#x116;" horiz-adv-x="580" d="M657 690 L648 649 L262 649 L195 377 L481 377 L471 337 L186 337 L114 40 L500 40 L490 0 L61 0 L228 690 L657 690 Z M455 907 L497 907 L466 781 L424 781 L455 907 Z " />
<glyph glyph-name="Emacron" unicode="&#x112;" horiz-adv-x="580" d="M657 690 L648 649 L262 649 L195 377 L481 377 L471 337 L186 337 L114 40 L500 40 L490 0 L61 0 L228 690 L657 690 Z M595 819 L313 819 L322 856 L604 856 L595 819 Z " />
<glyph glyph-name="Eogonek" unicode="&#x118;" horiz-adv-x="580" d="M460 -149 L452 -180 Q428 -193 407 -199 Q386 -205 362 -205 Q327 -205 304 -187 Q281 -169 281 -140 Q281 -98 315.5 -65.5 Q350 -33 434 0 L61 0 L228 690 L657 690 L648 649 L262 649 L195 377 L481 377 L471 337 L186 337 L114 40 L500 40 L490 0 L470 0 Q377 -44 348.5 -70.5 Q320 -97 320 -128 Q320 -150 335.5 -162.5 Q351 -175 378 -175 Q397 -175 418.5 -168 Q440 -161 460 -149 Z " />
<glyph glyph-name="Gbreve" unicode="&#x11e;" horiz-adv-x="705" d="M686 329 L623 74 Q566 31 500 10.5 Q434 -10 351 -10 Q230 -10 158.5 64 Q87 138 87 262 Q87 351 118.5 431 Q150 511 210 572 Q270 633 349.5 666.5 Q429 700 516 700 Q570 700 617.5 687 Q665 674 700 649 L689 605 Q651 631 605.5 644.5 Q560 658 509 658 Q432 658 362.5 628 Q293 598 240 543 Q188 489 160.5 418 Q133 347 133 269 Q133 160 194.5 95.5 Q256 31 361 31 Q430 31 485.5 47.5 Q541 64 588 97 L635 290 L419 290 L429 329 L686 329 Z M523 807 Q568 807 599.5 830 Q631 853 652 900 L686 900 Q664 840 619.5 807 Q575 774 516 774 Q457 774 428 808 Q399 842 407 900 L440 900 Q437 854 458 830.5 Q479 807 523 807 Z " />
<glyph glyph-name="Gcircumflex" unicode="&#x11c;" horiz-adv-x="705" d="M686 329 L623 74 Q566 31 500 10.5 Q434 -10 351 -10 Q230 -10 158.5 64 Q87 138 87 262 Q87 351 118.5 431 Q150 511 210 572 Q270 633 349.5 666.5 Q429 700 516 700 Q570 700 617.5 687 Q665 674 700 649 L689 605 Q651 631 605.5 644.5 Q560 658 509 658 Q432 658 362.5 628 Q293 598 240 543 Q188 489 160.5 418 Q133 347 133 269 Q133 160 194.5 95.5 Q256 31 361 31 Q430 31 485.5 47.5 Q541 64 588 97 L635 290 L419 290 L429 329 L686 329 Z M640 770 L603 770 L533 877 L408 770 L370 770 L512 903 L562 903 L640 770 Z " />
<glyph glyph-name="Gcommaaccent" unicode="&#x122;" horiz-adv-x="705" d="M686 329 L623 74 Q566 31 500 10.5 Q434 -10 351 -10 Q230 -10 158.5 64 Q87 138 87 262 Q87 351 118.5 431 Q150 511 210 572 Q270 633 349.5 666.5 Q429 700 516 700 Q570 700 617.5 687 Q665 674 700 649 L689 605 Q651 631 605.5 644.5 Q560 658 509 658 Q432 658 362.5 628 Q293 598 240 543 Q188 489 160.5 418 Q133 347 133 269 Q133 160 194.5 95.5 Q256 31 361 31 Q430 31 485.5 47.5 Q541 64 588 97 L635 290 L419 290 L429 329 L686 329 Z M298 -145 L318 -61 L372 -61 L356 -129 Q350 -156 331.5 -179 Q313 -202 288 -215 L278 -203 Q295 -191 306.5 -176 Q318 -161 323 -145 L298 -145 Z " />
<glyph glyph-name="Gdotaccent" unicode="&#x120;" horiz-adv-x="705" d="M686 329 L623 74 Q566 31 500 10.5 Q434 -10 351 -10 Q230 -10 158.5 64 Q87 138 87 262 Q87 351 118.5 431 Q150 511 210 572 Q270 633 349.5 666.5 Q429 700 516 700 Q570 700 617.5 687 Q665 674 700 649 L689 605 Q651 631 605.5 644.5 Q560 658 509 658 Q432 658 362.5 628 Q293 598 240 543 Q188 489 160.5 418 Q133 347 133 269 Q133 160 194.5 95.5 Q256 31 361 31 Q430 31 485.5 47.5 Q541 64 588 97 L635 290 L419 290 L429 329 L686 329 Z M518 907 L560 907 L529 781 L487 781 L518 907 Z " />
<glyph glyph-name="Hbar" unicode="&#x126;" horiz-adv-x="733" d="M191 361 L646 361 L680 500 L225 500 L191 361 Z M602 0 L559 0 L638 325 L183 325 L104 0 L61 0 L182 500 L121 500 L130 536 L191 536 L228 690 L271 690 L234 536 L689 536 L726 690 L770 690 L733 536 L793 536 L784 500 L724 500 L602 0 Z " />
<glyph glyph-name="Hcircumflex" unicode="&#x124;" horiz-adv-x="733" d="M602 0 L559 0 L638 325 L183 325 L104 0 L61 0 L228 690 L271 690 L192 365 L647 365 L726 690 L770 690 L602 0 Z M642 770 L605 770 L535 877 L410 770 L372 770 L514 903 L564 903 L642 770 Z " />
<glyph glyph-name="Iacute" unicode="&#xcd;" horiz-adv-x="235" d="M228 690 L271 690 L104 0 L61 0 L228 690 Z M267 770 L227 770 L363 903 L417 903 L267 770 Z " />
<glyph glyph-name="Icircumflex" unicode="&#xce;" horiz-adv-x="235" d="M228 690 L271 690 L104 0 L61 0 L228 690 Z M406 770 L369 770 L299 877 L174 770 L136 770 L278 903 L328 903 L406 770 Z " />
<glyph glyph-name="Idieresis" unicode="&#xcf;" horiz-adv-x="235" d="M228 690 L271 690 L104 0 L61 0 L228 690 Z M373 781 L334 781 L366 907 L405 907 L373 781 Z M214 781 L175 781 L206 907 L245 907 L214 781 Z " />
<glyph glyph-name="Igrave" unicode="&#xcc;" horiz-adv-x="235" d="M228 690 L271 690 L104 0 L61 0 L228 690 Z M196 903 L247 903 L321 770 L281 770 L196 903 Z " />
<glyph glyph-name="Ibreve" unicode="&#x12c;" horiz-adv-x="235" d="M228 690 L271 690 L104 0 L61 0 L228 690 Z M289 807 Q334 807 365.5 830 Q397 853 418 900 L452 900 Q430 840 385.5 807 Q341 774 282 774 Q223 774 194 808 Q165 842 173 900 L206 900 Q203 854 224 830.5 Q245 807 289 807 Z " />
<glyph glyph-name="Idot" unicode="&#x130;" horiz-adv-x="235" d="M228 690 L271 690 L104 0 L61 0 L228 690 Z M284 907 L326 907 L295 781 L253 781 L284 907 Z " />
<glyph glyph-name="Imacron" unicode="&#x12a;" horiz-adv-x="235" d="M228 690 L271 690 L104 0 L61 0 L228 690 Z M424 819 L142 819 L151 856 L433 856 L424 819 Z " />
<glyph glyph-name="Iogonek" unicode="&#x12e;" horiz-adv-x="235" d="M86 -149 L79 -180 Q55 -193 34.5 -199 Q14 -205 -10 -205 Q-45 -205 -68 -187 Q-91 -169 -91 -140 Q-91 -98 -56.5 -64 Q-22 -30 62 5 L228 690 L271 690 L104 0 Q19 -32 -16.5 -61.5 Q-52 -91 -52 -128 Q-52 -150 -36.5 -162.5 Q-21 -175 5 -175 Q24 -175 45.5 -168 Q67 -161 86 -149 Z " />
<glyph glyph-name="Itilde" unicode="&#x128;" horiz-adv-x="235" d="M228 690 L271 690 L104 0 L61 0 L228 690 Z M306 848 Q327 826 339 819.5 Q351 813 363 813 Q387 813 406.5 833 Q426 853 436 888 L469 888 Q454 837 424.5 809 Q395 781 358 781 Q340 781 323.5 789.5 Q307 798 280 824 Q257 847 245 853.5 Q233 860 221 860 Q194 860 173.5 840.5 Q153 821 140 782 L107 782 Q126 836 156 864 Q186 892 226 892 Q245 892 262 883.5 Q279 875 306 848 Z " />
<glyph glyph-name="Jcircumflex" unicode="&#x134;" horiz-adv-x="437" d="M118 -10 Q90 -10 62 -5 Q34 0 16 8 L26 49 Q43 40 68.5 35 Q94 30 126 30 Q201 30 249 75 Q297 120 319 209 L435 690 L479 690 L363 209 Q336 100 274.5 45 Q213 -10 118 -10 Z M566 770 L529 770 L459 877 L334 770 L296 770 L438 903 L488 903 L566 770 Z " />
<glyph glyph-name="IJ" unicode="&#x132;" horiz-adv-x="672" d="M228 690 L271 690 L104 0 L61 0 L228 690 Z M353 -10 Q325 -10 297 -5 Q269 0 251 8 L261 49 Q278 40 303.5 35 Q329 30 361 30 Q436 30 484 75 Q532 120 554 209 L670 690 L714 690 L598 209 Q571 100 509.5 45 Q448 -10 353 -10 Z " />
<glyph glyph-name="Kcommaaccent" unicode="&#x136;" horiz-adv-x="626" d="M563 0 L511 0 L300 336 L154 205 L104 0 L61 0 L228 690 L271 690 L168 266 L641 690 L697 690 L333 365 L563 0 Z M230 -145 L250 -61 L304 -61 L288 -129 Q282 -156 263.5 -179 Q245 -202 220 -215 L210 -203 Q227 -191 238.5 -176 Q250 -161 255 -145 L230 -145 Z " />
<glyph glyph-name="Lacute" unicode="&#x139;" horiz-adv-x="562" d="M228 690 L271 690 L114 40 L501 40 L492 0 L61 0 L228 690 Z M295 770 L255 770 L391 903 L445 903 L295 770 Z " />
<glyph glyph-name="Lcaron" unicode="&#x13d;" horiz-adv-x="562" d="M228 690 L271 690 L114 40 L501 40 L492 0 L61 0 L228 690 Z M421 625 L440 710 L495 710 L478 641 Q470 610 452 584 Q434 558 406 539 L397 551 Q414 566 427.5 586 Q441 606 445 625 L421 625 Z " />
<glyph glyph-name="Lcommaaccent" unicode="&#x13b;" horiz-adv-x="562" d="M228 690 L271 690 L114 40 L501 40 L492 0 L61 0 L228 690 Z M217 -145 L237 -61 L291 -61 L275 -129 Q269 -156 250.5 -179 Q232 -202 207 -215 L197 -203 Q214 -191 225.5 -176 Q237 -161 242 -145 L217 -145 Z " />
<glyph glyph-name="Ldot" unicode="&#x13f;" horiz-adv-x="562" d="M228 690 L271 690 L114 40 L501 40 L492 0 L61 0 L228 690 Z M402 307 L423 394 L479 394 L459 307 L402 307 Z " />
<glyph glyph-name="Ntilde" unicode="&#xd1;" horiz-adv-x="726" d="M596 0 L554 0 L254 619 L104 0 L61 0 L228 690 L270 690 L570 68 L720 690 L763 690 L596 0 Z M545 848 Q566 826 578 819.5 Q590 813 602 813 Q626 813 645.5 833 Q665 853 675 888 L708 888 Q693 837 663.5 809 Q634 781 597 781 Q579 781 562.5 789.5 Q546 798 519 824 Q496 847 484 853.5 Q472 860 460 860 Q433 860 412.5 840.5 Q392 821 379 782 L346 782 Q365 836 395 864 Q425 892 465 892 Q484 892 501 883.5 Q518 875 545 848 Z " />
<glyph glyph-name="Nacute" unicode="&#x143;" horiz-adv-x="726" d="M596 0 L554 0 L254 619 L104 0 L61 0 L228 690 L270 690 L570 68 L720 690 L763 690 L596 0 Z M508 770 L468 770 L604 903 L658 903 L508 770 Z " />
<glyph glyph-name="Ncaron" unicode="&#x147;" horiz-adv-x="726" d="M596 0 L554 0 L254 619 L104 0 L61 0 L228 690 L270 690 L570 68 L720 690 L763 690 L596 0 Z M541 770 L490 770 L413 903 L449 903 L519 796 L645 903 L686 903 L541 770 Z " />
<glyph glyph-name="Ncommaaccent" unicode="&#x145;" horiz-adv-x="726" d="M596 0 L554 0 L254 619 L104 0 L61 0 L228 690 L270 690 L570 68 L720 690 L763 690 L596 0 Z M291 -145 L311 -61 L365 -61 L349 -129 Q343 -156 324.5 -179 Q306 -202 281 -215 L271 -203 Q288 -191 299.5 -176 Q311 -161 316 -145 L291 -145 Z " />
<glyph glyph-name="Oacute" unicode="&#xd3;" horiz-adv-x="771" d="M351 -10 Q234 -10 162.5 65.5 Q91 141 91 262 Q91 348 123 428 Q155 508 215 569 Q275 632 353.5 666 Q432 700 518 700 Q635 700 706.5 623.5 Q778 547 778 425 Q778 340 745.5 261 Q713 182 653 120 Q592 58 513.5 24 Q435 -10 351 -10 Z M622 149 Q675 204 703.5 273.5 Q732 343 732 417 Q732 526 671.5 592 Q611 658 510 658 Q438 658 369 627 Q300 596 246 540 Q194 485 165.5 415.5 Q137 346 137 272 Q137 163 197.5 97 Q258 31 359 31 Q431 31 500 62 Q569 93 622 149 Z M531 770 L491 770 L627 903 L681 903 L531 770 Z " />
<glyph glyph-name="Ocircumflex" unicode="&#xd4;" horiz-adv-x="771" d="M351 -10 Q234 -10 162.5 65.5 Q91 141 91 262 Q91 348 123 428 Q155 508 215 569 Q275 632 353.5 666 Q432 700 518 700 Q635 700 706.5 623.5 Q778 547 778 425 Q778 340 745.5 261 Q713 182 653 120 Q592 58 513.5 24 Q435 -10 351 -10 Z M622 149 Q675 204 703.5 273.5 Q732 343 732 417 Q732 526 671.5 592 Q611 658 510 658 Q438 658 369 627 Q300 596 246 540 Q194 485 165.5 415.5 Q137 346 137 272 Q137 163 197.5 97 Q258 31 359 31 Q431 31 500 62 Q569 93 622 149 Z M673 770 L636 770 L566 877 L441 770 L403 770 L545 903 L595 903 L673 770 Z " />
<glyph glyph-name="Odieresis" unicode="&#xd6;" horiz-adv-x="771" d="M351 -10 Q234 -10 162.5 65.5 Q91 141 91 262 Q91 348 123 428 Q155 508 215 569 Q275 632 353.5 666 Q432 700 518 700 Q635 700 706.5 623.5 Q778 547 778 425 Q778 340 745.5 261 Q713 182 653 120 Q592 58 513.5 24 Q435 -10 351 -10 Z M622 149 Q675 204 703.5 273.5 Q732 343 732 417 Q732 526 671.5 592 Q611 658 510 658 Q438 658 369 627 Q300 596 246 540 Q194 485 165.5 415.5 Q137 346 137 272 Q137 163 197.5 97 Q258 31 359 31 Q431 31 500 62 Q569 93 622 149 Z M640 781 L601 781 L633 907 L672 907 L640 781 Z M481 781 L442 781 L473 907 L512 907 L481 781 Z " />
<glyph glyph-name="Ograve" unicode="&#xd2;" horiz-adv-x="771" d="M351 -10 Q234 -10 162.5 65.5 Q91 141 91 262 Q91 348 123 428 Q155 508 215 569 Q275 632 353.5 666 Q432 700 518 700 Q635 700 706.5 623.5 Q778 547 778 425 Q778 340 745.5 261 Q713 182 653 120 Q592 58 513.5 24 Q435 -10 351 -10 Z M622 149 Q675 204 703.5 273.5 Q732 343 732 417 Q732 526 671.5 592 Q611 658 510 658 Q438 658 369 627 Q300 596 246 540 Q194 485 165.5 415.5 Q137 346 137 272 Q137 163 197.5 97 Q258 31 359 31 Q431 31 500 62 Q569 93 622 149 Z M464 903 L515 903 L589 770 L549 770 L464 903 Z " />
<glyph glyph-name="Otilde" unicode="&#xd5;" horiz-adv-x="771" d="M351 -10 Q234 -10 162.5 65.5 Q91 141 91 262 Q91 348 123 428 Q155 508 215 569 Q275 632 353.5 666 Q432 700 518 700 Q635 700 706.5 623.5 Q778 547 778 425 Q778 340 745.5 261 Q713 182 653 120 Q592 58 513.5 24 Q435 -10 351 -10 Z M622 149 Q675 204 703.5 273.5 Q732 343 732 417 Q732 526 671.5 592 Q611 658 510 658 Q438 658 369 627 Q300 596 246 540 Q194 485 165.5 415.5 Q137 346 137 272 Q137 163 197.5 97 Q258 31 359 31 Q431 31 500 62 Q569 93 622 149 Z M571 848 Q592 826 604 819.5 Q616 813 628 813 Q652 813 671.5 833 Q691 853 701 888 L734 888 Q719 837 689.5 809 Q660 781 623 781 Q605 781 588.5 789.5 Q572 798 545 824 Q522 847 510 853.5 Q498 860 486 860 Q459 860 438.5 840.5 Q418 821 405 782 L372 782 Q391 836 421 864 Q451 892 491 892 Q510 892 527 883.5 Q544 875 571 848 Z " />
<glyph glyph-name="Obreve" unicode="&#x14e;" horiz-adv-x="771" d="M351 -10 Q234 -10 162.5 65.5 Q91 141 91 262 Q91 348 123 428 Q155 508 215 569 Q275 632 353.5 666 Q432 700 518 700 Q635 700 706.5 623.5 Q778 547 778 425 Q778 340 745.5 261 Q713 182 653 120 Q592 58 513.5 24 Q435 -10 351 -10 Z M622 149 Q675 204 703.5 273.5 Q732 343 732 417 Q732 526 671.5 592 Q611 658 510 658 Q438 658 369 627 Q300 596 246 540 Q194 485 165.5 415.5 Q137 346 137 272 Q137 163 197.5 97 Q258 31 359 31 Q431 31 500 62 Q569 93 622 149 Z M556 807 Q601 807 632.5 830 Q664 853 685 900 L719 900 Q697 840 652.5 807 Q608 774 549 774 Q490 774 461 808 Q432 842 440 900 L473 900 Q470 854 491 830.5 Q512 807 556 807 Z " />
<glyph glyph-name="Ohungarumlaut" unicode="&#x150;" horiz-adv-x="771" d="M351 -10 Q234 -10 162.5 65.5 Q91 141 91 262 Q91 348 123 428 Q155 508 215 569 Q275 632 353.5 666 Q432 700 518 700 Q635 700 706.5 623.5 Q778 547 778 425 Q778 340 745.5 261 Q713 182 653 120 Q592 58 513.5 24 Q435 -10 351 -10 Z M622 149 Q675 204 703.5 273.5 Q732 343 732 417 Q732 526 671.5 592 Q611 658 510 658 Q438 658 369 627 Q300 596 246 540 Q194 485 165.5 415.5 Q137 346 137 272 Q137 163 197.5 97 Q258 31 359 31 Q431 31 500 62 Q569 93 622 149 Z M586 770 L548 770 L679 903 L731 903 L586 770 Z M441 770 L403 770 L534 903 L586 903 L441 770 Z " />
<glyph glyph-name="Omacron" unicode="&#x14c;" horiz-adv-x="771" d="M351 -10 Q234 -10 162.5 65.5 Q91 141 91 262 Q91 348 123 428 Q155 508 215 569 Q275 632 353.5 666 Q432 700 518 700 Q635 700 706.5 623.5 Q778 547 778 425 Q778 340 745.5 261 Q713 182 653 120 Q592 58 513.5 24 Q435 -10 351 -10 Z M622 149 Q675 204 703.5 273.5 Q732 343 732 417 Q732 526 671.5 592 Q611 658 510 658 Q438 658 369 627 Q300 596 246 540 Q194 485 165.5 415.5 Q137 346 137 272 Q137 163 197.5 97 Q258 31 359 31 Q431 31 500 62 Q569 93 622 149 Z M691 819 L409 819 L418 856 L700 856 L691 819 Z " />
<glyph glyph-name="Racute" unicode="&#x154;" horiz-adv-x="631" d="M606 534 Q606 587 569 618 Q532 649 469 649 L261 649 L190 357 L397 357 Q484 357 545 408.5 Q606 460 606 534 Z M552 0 L501 0 L380 317 L181 317 L104 0 L61 0 L228 690 L478 690 Q556 690 604 648.5 Q652 607 652 541 Q652 456 588 393.5 Q524 331 426 319 L552 0 Z M430 770 L390 770 L526 903 L580 903 L430 770 Z " />
<glyph glyph-name="Rcaron" unicode="&#x158;" horiz-adv-x="631" d="M606 534 Q606 587 569 618 Q532 649 469 649 L261 649 L190 357 L397 357 Q484 357 545 408.5 Q606 460 606 534 Z M552 0 L501 0 L380 317 L181 317 L104 0 L61 0 L228 690 L478 690 Q556 690 604 648.5 Q652 607 652 541 Q652 456 588 393.5 Q524 331 426 319 L552 0 Z M463 770 L412 770 L335 903 L371 903 L441 796 L567 903 L608 903 L463 770 Z " />
<glyph glyph-name="Rcommaaccent" unicode="&#x156;" horiz-adv-x="631" d="M606 534 Q606 587 569 618 Q532 649 469 649 L261 649 L190 357 L397 357 Q484 357 545 408.5 Q606 460 606 534 Z M552 0 L501 0 L380 317 L181 317 L104 0 L61 0 L228 690 L478 690 Q556 690 604 648.5 Q652 607 652 541 Q652 456 588 393.5 Q524 331 426 319 L552 0 Z M235 -145 L255 -61 L309 -61 L293 -129 Q287 -156 268.5 -179 Q250 -202 225 -215 L215 -203 Q232 -191 243.5 -176 Q255 -161 260 -145 L235 -145 Z " />
<glyph glyph-name="Scaron" unicode="&#x160;" horiz-adv-x="576" d="M250 -10 Q189 -10 129.5 8 Q70 26 33 55 L45 101 Q84 69 142 49.5 Q200 30 259 30 Q356 30 425.5 76 Q495 122 495 191 Q495 235 460.5 268.5 Q426 302 316 350 Q227 388 191.5 425 Q156 462 156 513 Q156 594 232.5 647 Q309 700 425 700 Q478 700 521.5 688.5 Q565 677 607 652 L596 608 Q559 633 513.5 646 Q468 659 417 659 Q329 659 266 619 Q203 579 203 521 Q203 479 235.5 448.5 Q268 418 361 380 Q460 338 500.5 297.5 Q541 257 541 202 Q541 109 458 49.5 Q375 -10 250 -10 Z M438 770 L387 770 L310 903 L346 903 L416 796 L542 903 L583 903 L438 770 Z " />
<glyph glyph-name="Sacute" unicode="&#x15a;" horiz-adv-x="576" d="M250 -10 Q189 -10 129.5 8 Q70 26 33 55 L45 101 Q84 69 142 49.5 Q200 30 259 30 Q356 30 425.5 76 Q495 122 495 191 Q495 235 460.5 268.5 Q426 302 316 350 Q227 388 191.5 425 Q156 462 156 513 Q156 594 232.5 647 Q309 700 425 700 Q478 700 521.5 688.5 Q565 677 607 652 L596 608 Q559 633 513.5 646 Q468 659 417 659 Q329 659 266 619 Q203 579 203 521 Q203 479 235.5 448.5 Q268 418 361 380 Q460 338 500.5 297.5 Q541 257 541 202 Q541 109 458 49.5 Q375 -10 250 -10 Z M429 775 L389 775 L525 908 L579 908 L429 775 Z " />
<glyph glyph-name="Scedilla" unicode="&#x15e;" horiz-adv-x="576" d="M345 -112 Q345 -150 314 -174.5 Q283 -199 237 -199 Q211 -199 192 -194 Q173 -189 154 -177 L162 -146 Q184 -160 201 -165 Q218 -170 240 -170 Q271 -170 289.5 -156 Q308 -142 308 -118 Q308 -102 296 -94 Q284 -86 260 -86 L217 -86 L253 -10 Q191 -10 130.5 8 Q70 26 33 55 L45 101 Q84 69 142 49.5 Q200 30 259 30 Q356 30 425.5 76 Q495 122 495 191 Q495 235 460.5 268.5 Q426 302 316 350 Q227 388 191.5 425 Q156 462 156 513 Q156 594 232.5 647 Q309 700 425 700 Q478 700 521.5 688.5 Q565 677 607 652 L596 608 Q559 633 513.5 646 Q468 659 417 659 Q329 659 266 619 Q203 579 203 521 Q203 479 235.5 448.5 Q268 418 361 380 Q460 338 500.5 297.5 Q541 257 541 202 Q541 115 468 57 Q395 -1 280 -9 L255 -61 L274 -61 Q308 -61 326.5 -74 Q345 -87 345 -112 Z " />
<glyph glyph-name="Scircumflex" unicode="&#x15c;" horiz-adv-x="576" d="M250 -10 Q189 -10 129.5 8 Q70 26 33 55 L45 101 Q84 69 142 49.5 Q200 30 259 30 Q356 30 425.5 76 Q495 122 495 191 Q495 235 460.5 268.5 Q426 302 316 350 Q227 388 191.5 425 Q156 462 156 513 Q156 594 232.5 647 Q309 700 425 700 Q478 700 521.5 688.5 Q565 677 607 652 L596 608 Q559 633 513.5 646 Q468 659 417 659 Q329 659 266 619 Q203 579 203 521 Q203 479 235.5 448.5 Q268 418 361 380 Q460 338 500.5 297.5 Q541 257 541 202 Q541 109 458 49.5 Q375 -10 250 -10 Z M564 770 L527 770 L457 877 L332 770 L294 770 L436 903 L486 903 L564 770 Z " />
<glyph glyph-name="uni0218" unicode="&#x218;" horiz-adv-x="576" d="M250 -10 Q189 -10 129.5 8 Q70 26 33 55 L45 101 Q84 69 142 49.5 Q200 30 259 30 Q356 30 425.5 76 Q495 122 495 191 Q495 235 460.5 268.5 Q426 302 316 350 Q227 388 191.5 425 Q156 462 156 513 Q156 594 232.5 647 Q309 700 425 700 Q478 700 521.5 688.5 Q565 677 607 652 L596 608 Q559 633 513.5 646 Q468 659 417 659 Q329 659 266 619 Q203 579 203 521 Q203 479 235.5 448.5 Q268 418 361 380 Q460 338 500.5 297.5 Q541 257 541 202 Q541 109 458 49.5 Q375 -10 250 -10 Z M218 -145 L238 -61 L292 -61 L276 -129 Q270 -156 251.5 -179 Q233 -202 208 -215 L198 -203 Q215 -191 226.5 -176 Q238 -161 243 -145 L218 -145 Z " />
<glyph glyph-name="Tbar" unicode="&#x166;" horiz-adv-x="572" d="M516 397 L508 360 L361 360 L273 0 L230 0 L317 360 L175 360 L184 397 L326 397 L387 649 L153 649 L163 690 L674 690 L664 649 L431 649 L370 397 L516 397 Z " />
<glyph glyph-name="Tcaron" unicode="&#x164;" horiz-adv-x="572" d="M674 690 L664 649 L431 649 L273 0 L230 0 L387 649 L153 649 L163 690 L674 690 Z M460 770 L409 770 L332 903 L368 903 L438 796 L564 903 L605 903 L460 770 Z " />
<glyph glyph-name="uni0162" unicode="&#x162;" horiz-adv-x="572" d="M674 690 L664 649 L431 649 L273 0 L230 0 L387 649 L153 649 L163 690 L674 690 Z M195 -145 L215 -61 L269 -61 L253 -129 Q247 -156 228.5 -179 Q210 -202 185 -215 L175 -203 Q192 -191 203.5 -176 Q215 -161 220 -145 L195 -145 Z " />
<glyph glyph-name="uni021A" unicode="&#x21a;" horiz-adv-x="572" d="M674 690 L664 649 L431 649 L273 0 L230 0 L387 649 L153 649 L163 690 L674 690 Z M195 -145 L215 -61 L269 -61 L253 -129 Q247 -156 228.5 -179 Q210 -202 185 -215 L175 -203 Q192 -191 203.5 -176 Q215 -161 220 -145 L195 -145 Z " />
<glyph glyph-name="Uacute" unicode="&#xda;" horiz-adv-x="713" d="M609 266 L711 690 L755 690 L652 263 Q621 135 532.5 62.5 Q444 -10 320 -10 Q221 -10 165.5 41.5 Q110 93 110 185 Q110 205 112.5 224.5 Q115 244 120 264 L223 690 L266 690 L163 264 Q159 245 156.5 227 Q154 209 154 192 Q154 116 200.5 73.5 Q247 31 330 31 Q432 31 507.5 95 Q583 159 609 266 Z M491 770 L451 770 L587 903 L641 903 L491 770 Z " />
<glyph glyph-name="Ucircumflex" unicode="&#xdb;" horiz-adv-x="713" d="M609 266 L711 690 L755 690 L652 263 Q621 135 532.5 62.5 Q444 -10 320 -10 Q221 -10 165.5 41.5 Q110 93 110 185 Q110 205 112.5 224.5 Q115 244 120 264 L223 690 L266 690 L163 264 Q159 245 156.5 227 Q154 209 154 192 Q154 116 200.5 73.5 Q247 31 330 31 Q432 31 507.5 95 Q583 159 609 266 Z M644 770 L607 770 L537 877 L412 770 L374 770 L516 903 L566 903 L644 770 Z " />
<glyph glyph-name="Udieresis" unicode="&#xdc;" horiz-adv-x="713" d="M609 266 L711 690 L755 690 L652 263 Q621 135 532.5 62.5 Q444 -10 320 -10 Q221 -10 165.5 41.5 Q110 93 110 185 Q110 205 112.5 224.5 Q115 244 120 264 L223 690 L266 690 L163 264 Q159 245 156.5 227 Q154 209 154 192 Q154 116 200.5 73.5 Q247 31 330 31 Q432 31 507.5 95 Q583 159 609 266 Z M611 781 L572 781 L604 907 L643 907 L611 781 Z M452 781 L413 781 L444 907 L483 907 L452 781 Z " />
<glyph glyph-name="Ugrave" unicode="&#xd9;" horiz-adv-x="713" d="M609 266 L711 690 L755 690 L652 263 Q621 135 532.5 62.5 Q444 -10 320 -10 Q221 -10 165.5 41.5 Q110 93 110 185 Q110 205 112.5 224.5 Q115 244 120 264 L223 690 L266 690 L163 264 Q159 245 156.5 227 Q154 209 154 192 Q154 116 200.5 73.5 Q247 31 330 31 Q432 31 507.5 95 Q583 159 609 266 Z M436 903 L487 903 L561 770 L521 770 L436 903 Z " />
<glyph glyph-name="Ubreve" unicode="&#x16c;" horiz-adv-x="713" d="M609 266 L711 690 L755 690 L652 263 Q621 135 532.5 62.5 Q444 -10 320 -10 Q221 -10 165.5 41.5 Q110 93 110 185 Q110 205 112.5 224.5 Q115 244 120 264 L223 690 L266 690 L163 264 Q159 245 156.5 227 Q154 209 154 192 Q154 116 200.5 73.5 Q247 31 330 31 Q432 31 507.5 95 Q583 159 609 266 Z M527 807 Q572 807 603.5 830 Q635 853 656 900 L690 900 Q668 840 623.5 807 Q579 774 520 774 Q461 774 432 808 Q403 842 411 900 L444 900 Q441 854 462 830.5 Q483 807 527 807 Z " />
<glyph glyph-name="Uhungarumlaut" unicode="&#x170;" horiz-adv-x="713" d="M609 266 L711 690 L755 690 L652 263 Q621 135 532.5 62.5 Q444 -10 320 -10 Q221 -10 165.5 41.5 Q110 93 110 185 Q110 205 112.5 224.5 Q115 244 120 264 L223 690 L266 690 L163 264 Q159 245 156.5 227 Q154 209 154 192 Q154 116 200.5 73.5 Q247 31 330 31 Q432 31 507.5 95 Q583 159 609 266 Z M585 770 L547 770 L678 903 L730 903 L585 770 Z M440 770 L402 770 L533 903 L585 903 L440 770 Z " />
<glyph glyph-name="Umacron" unicode="&#x16a;" horiz-adv-x="713" d="M609 266 L711 690 L755 690 L652 263 Q621 135 532.5 62.5 Q444 -10 320 -10 Q221 -10 165.5 41.5 Q110 93 110 185 Q110 205 112.5 224.5 Q115 244 120 264 L223 690 L266 690 L163 264 Q159 245 156.5 227 Q154 209 154 192 Q154 116 200.5 73.5 Q247 31 330 31 Q432 31 507.5 95 Q583 159 609 266 Z M662 819 L380 819 L389 856 L671 856 L662 819 Z " />
<glyph glyph-name="Uogonek" unicode="&#x172;" horiz-adv-x="713" d="M312 -205 Q277 -205 254 -187 Q231 -169 231 -140 Q231 -101 261.5 -69 Q292 -37 359 -8 Q342 -9 334.5 -9.5 Q327 -10 320 -10 Q221 -10 165.5 40.5 Q110 91 110 181 Q110 201 112.5 221.5 Q115 242 120 264 L223 690 L266 690 L163 264 Q159 245 156.5 227 Q154 209 154 192 Q154 116 200.5 73.5 Q247 31 330 31 Q432 31 507.5 95 Q583 159 609 266 L711 690 L755 690 L652 263 Q628 164 570.5 98.5 Q513 33 428 7 Q334 -37 302 -66.5 Q270 -96 270 -128 Q270 -150 285.5 -162.5 Q301 -175 328 -175 Q347 -175 368.5 -168 Q390 -161 409 -149 L402 -180 Q378 -193 357 -199 Q336 -205 312 -205 Z " />
<glyph glyph-name="Uring" unicode="&#x16e;" horiz-adv-x="713" d="M609 266 L711 690 L755 690 L652 263 Q621 135 532.5 62.5 Q444 -10 320 -10 Q221 -10 165.5 41.5 Q110 93 110 185 Q110 205 112.5 224.5 Q115 244 120 264 L223 690 L266 690 L163 264 Q159 245 156.5 227 Q154 209 154 192 Q154 116 200.5 73.5 Q247 31 330 31 Q432 31 507.5 95 Q583 159 609 266 Z M436 826 Q436 870 469.5 902 Q503 934 549 934 Q579 934 598.5 913.5 Q618 893 618 862 Q618 818 584.5 786 Q551 754 507 754 Q476 754 456 774 Q436 794 436 826 Z M467 830 Q467 808 479.5 795 Q492 782 514 782 Q543 782 565 804.5 Q587 827 587 858 Q587 879 575 892 Q563 905 543 905 Q512 905 489.5 883 Q467 861 467 830 Z " />
<glyph glyph-name="Utilde" unicode="&#x168;" horiz-adv-x="713" d="M609 266 L711 690 L755 690 L652 263 Q621 135 532.5 62.5 Q444 -10 320 -10 Q221 -10 165.5 41.5 Q110 93 110 185 Q110 205 112.5 224.5 Q115 244 120 264 L223 690 L266 690 L163 264 Q159 245 156.5 227 Q154 209 154 192 Q154 116 200.5 73.5 Q247 31 330 31 Q432 31 507.5 95 Q583 159 609 266 Z M535 848 Q556 826 568 819.5 Q580 813 592 813 Q616 813 635.5 833 Q655 853 665 888 L698 888 Q683 837 653.5 809 Q624 781 587 781 Q569 781 552.5 789.5 Q536 798 509 824 Q486 847 474 853.5 Q462 860 450 860 Q423 860 402.5 840.5 Q382 821 369 782 L336 782 Q355 836 385 864 Q415 892 455 892 Q474 892 491 883.5 Q508 875 535 848 Z " />
<glyph glyph-name="Wacute" unicode="&#x1e82;" horiz-adv-x="996" d="M688 46 L1067 690 L1116 690 L704 0 L655 0 L590 509 L277 0 L228 0 L145 690 L190 690 L266 46 L580 561 L625 561 L688 46 Z M644 770 L604 770 L740 903 L794 903 L644 770 Z " />
<glyph glyph-name="Wcircumflex" unicode="&#x174;" horiz-adv-x="996" d="M688 46 L1067 690 L1116 690 L704 0 L655 0 L590 509 L277 0 L228 0 L145 690 L190 690 L266 46 L580 561 L625 561 L688 46 Z M786 770 L749 770 L679 877 L554 770 L516 770 L658 903 L708 903 L786 770 Z " />
<glyph glyph-name="Wdieresis" unicode="&#x1e84;" horiz-adv-x="996" d="M688 46 L1067 690 L1116 690 L704 0 L655 0 L590 509 L277 0 L228 0 L145 690 L190 690 L266 46 L580 561 L625 561 L688 46 Z M753 781 L714 781 L746 907 L785 907 L753 781 Z M594 781 L555 781 L586 907 L625 907 L594 781 Z " />
<glyph glyph-name="Wgrave" unicode="&#x1e80;" horiz-adv-x="996" d="M688 46 L1067 690 L1116 690 L704 0 L655 0 L590 509 L277 0 L228 0 L145 690 L190 690 L266 46 L580 561 L625 561 L688 46 Z M579 903 L630 903 L704 770 L664 770 L579 903 Z " />
<glyph glyph-name="Yacute" unicode="&#xdd;" horiz-adv-x="628" d="M693 690 L742 690 L372 292 L301 0 L257 0 L328 292 L149 690 L195 690 L358 331 L693 690 Z M463 770 L423 770 L559 903 L613 903 L463 770 Z " />
<glyph glyph-name="Ydieresis" unicode="&#x178;" horiz-adv-x="628" d="M693 690 L742 690 L372 292 L301 0 L257 0 L328 292 L149 690 L195 690 L358 331 L693 690 Z M568 781 L529 781 L561 907 L600 907 L568 781 Z M409 781 L370 781 L401 907 L440 907 L409 781 Z " />
<glyph glyph-name="Ycircumflex" unicode="&#x176;" horiz-adv-x="628" d="M693 690 L742 690 L372 292 L301 0 L257 0 L328 292 L149 690 L195 690 L358 331 L693 690 Z M601 770 L564 770 L494 877 L369 770 L331 770 L473 903 L523 903 L601 770 Z " />
<glyph glyph-name="Ygrave" unicode="&#x1ef2;" horiz-adv-x="628" d="M693 690 L742 690 L372 292 L301 0 L257 0 L328 292 L149 690 L195 690 L358 331 L693 690 Z M394 903 L445 903 L519 770 L479 770 L394 903 Z " />
<glyph glyph-name="Zcaron" unicode="&#x17d;" horiz-adv-x="585" d="M509 0 L7 0 L16 38 L598 649 L166 649 L176 690 L664 690 L655 651 L73 40 L518 40 L509 0 Z M456 770 L405 770 L328 903 L364 903 L434 796 L560 903 L601 903 L456 770 Z " />
<glyph glyph-name="Zacute" unicode="&#x179;" horiz-adv-x="585" d="M509 0 L7 0 L16 38 L598 649 L166 649 L176 690 L664 690 L655 651 L73 40 L518 40 L509 0 Z M427 770 L387 770 L523 903 L577 903 L427 770 Z " />
<glyph glyph-name="Zdotaccent" unicode="&#x17b;" horiz-adv-x="585" d="M509 0 L7 0 L16 38 L598 649 L166 649 L176 690 L664 690 L655 651 L73 40 L518 40 L509 0 Z M448 907 L490 907 L459 781 L417 781 L448 907 Z " />
<glyph glyph-name="aacute" unicode="&#xe1;" horiz-adv-x="625" d="M499 155 L547 353 Q527 412 482 445.5 Q437 479 376 479 Q268 479 189.5 397 Q111 315 111 198 Q111 120 153.5 74 Q196 28 267 28 Q328 28 389.5 61.5 Q451 95 499 155 Z M461 0 L488 109 Q439 51 378 20.5 Q317 -10 250 -10 Q167 -10 116.5 45 Q66 100 66 189 Q66 254 89 313 Q112 372 156 418 Q200 465 258.5 491 Q317 517 379 517 Q442 517 488 486 Q534 455 557 398 L585 507 L626 507 L503 0 L461 0 Z M414 588 L374 588 L510 721 L564 721 L414 588 Z " />
<glyph glyph-name="acircumflex" unicode="&#xe2;" horiz-adv-x="625" d="M499 155 L547 353 Q527 412 482 445.5 Q437 479 376 479 Q268 479 189.5 397 Q111 315 111 198 Q111 120 153.5 74 Q196 28 267 28 Q328 28 389.5 61.5 Q451 95 499 155 Z M461 0 L488 109 Q439 51 378 20.5 Q317 -10 250 -10 Q167 -10 116.5 45 Q66 100 66 189 Q66 254 89 313 Q112 372 156 418 Q200 465 258.5 491 Q317 517 379 517 Q442 517 488 486 Q534 455 557 398 L585 507 L626 507 L503 0 L461 0 Z M550 588 L513 588 L443 695 L318 588 L280 588 L422 721 L472 721 L550 588 Z " />
<glyph glyph-name="adieresis" unicode="&#xe4;" horiz-adv-x="625" d="M499 155 L547 353 Q527 412 482 445.5 Q437 479 376 479 Q268 479 189.5 397 Q111 315 111 198 Q111 120 153.5 74 Q196 28 267 28 Q328 28 389.5 61.5 Q451 95 499 155 Z M461 0 L488 109 Q439 51 378 20.5 Q317 -10 250 -10 Q167 -10 116.5 45 Q66 100 66 189 Q66 254 89 313 Q112 372 156 418 Q200 465 258.5 491 Q317 517 379 517 Q442 517 488 486 Q534 455 557 398 L585 507 L626 507 L503 0 L461 0 Z M514 599 L475 599 L507 725 L546 725 L514 599 Z M355 599 L316 599 L347 725 L386 725 L355 599 Z " />
<glyph glyph-name="agrave" unicode="&#xe0;" horiz-adv-x="625" d="M499 155 L547 353 Q527 412 482 445.5 Q437 479 376 479 Q268 479 189.5 397 Q111 315 111 198 Q111 120 153.5 74 Q196 28 267 28 Q328 28 389.5 61.5 Q451 95 499 155 Z M461 0 L488 109 Q439 51 378 20.5 Q317 -10 250 -10 Q167 -10 116.5 45 Q66 100 66 189 Q66 254 89 313 Q112 372 156 418 Q200 465 258.5 491 Q317 517 379 517 Q442 517 488 486 Q534 455 557 398 L585 507 L626 507 L503 0 L461 0 Z M349 721 L400 721 L474 588 L434 588 L349 721 Z " />
<glyph glyph-name="aring" unicode="&#xe5;" horiz-adv-x="625" d="M499 155 L547 353 Q527 412 482 445.5 Q437 479 376 479 Q268 479 189.5 397 Q111 315 111 198 Q111 120 153.5 74 Q196 28 267 28 Q328 28 389.5 61.5 Q451 95 499 155 Z M461 0 L488 109 Q439 51 378 20.5 Q317 -10 250 -10 Q167 -10 116.5 45 Q66 100 66 189 Q66 254 89 313 Q112 372 156 418 Q200 465 258.5 491 Q317 517 379 517 Q442 517 488 486 Q534 455 557 398 L585 507 L626 507 L503 0 L461 0 Z M340 644 Q340 688 373.5 720 Q407 752 453 752 Q483 752 502.5 731.5 Q522 711 522 680 Q522 636 488.5 604 Q455 572 411 572 Q380 572 360 592 Q340 612 340 644 Z M371 648 Q371 626 383.5 613 Q396 600 418 600 Q447 600 469 622.5 Q491 645 491 676 Q491 697 479 710 Q467 723 447 723 Q416 723 393.5 701 Q371 679 371 648 Z " />
<glyph glyph-name="atilde" unicode="&#xe3;" horiz-adv-x="625" d="M499 155 L547 353 Q527 412 482 445.5 Q437 479 376 479 Q268 479 189.5 397 Q111 315 111 198 Q111 120 153.5 74 Q196 28 267 28 Q328 28 389.5 61.5 Q451 95 499 155 Z M461 0 L488 109 Q439 51 378 20.5 Q317 -10 250 -10 Q167 -10 116.5 45 Q66 100 66 189 Q66 254 89 313 Q112 372 156 418 Q200 465 258.5 491 Q317 517 379 517 Q442 517 488 486 Q534 455 557 398 L585 507 L626 507 L503 0 L461 0 Z M456 666 Q477 644 489 637.5 Q501 631 513 631 Q537 631 556.5 651 Q576 671 586 706 L619 706 Q604 655 574.5 627 Q545 599 508 599 Q490 599 473.5 607.5 Q457 616 430 642 Q407 665 395 671.5 Q383 678 371 678 Q344 678 323.5 658.5 Q303 639 290 600 L257 600 Q276 654 306 682 Q336 710 376 710 Q395 710 412 701.5 Q429 693 456 666 Z " />
<glyph glyph-name="abreve" unicode="&#x103;" horiz-adv-x="625" d="M499 155 L547 353 Q527 412 482 445.5 Q437 479 376 479 Q268 479 189.5 397 Q111 315 111 198 Q111 120 153.5 74 Q196 28 267 28 Q328 28 389.5 61.5 Q451 95 499 155 Z M461 0 L488 109 Q439 51 378 20.5 Q317 -10 250 -10 Q167 -10 116.5 45 Q66 100 66 189 Q66 254 89 313 Q112 372 156 418 Q200 465 258.5 491 Q317 517 379 517 Q442 517 488 486 Q534 455 557 398 L585 507 L626 507 L503 0 L461 0 Z M439 625 Q484 625 515.5 648 Q547 671 568 718 L602 718 Q580 658 535.5 625 Q491 592 432 592 Q373 592 344 626 Q315 660 323 718 L356 718 Q353 672 374 648.5 Q395 625 439 625 Z " />
<glyph glyph-name="amacron" unicode="&#x101;" horiz-adv-x="625" d="M499 155 L547 353 Q527 412 482 445.5 Q437 479 376 479 Q268 479 189.5 397 Q111 315 111 198 Q111 120 153.5 74 Q196 28 267 28 Q328 28 389.5 61.5 Q451 95 499 155 Z M461 0 L488 109 Q439 51 378 20.5 Q317 -10 250 -10 Q167 -10 116.5 45 Q66 100 66 189 Q66 254 89 313 Q112 372 156 418 Q200 465 258.5 491 Q317 517 379 517 Q442 517 488 486 Q534 455 557 398 L585 507 L626 507 L503 0 L461 0 Z M574 637 L292 637 L301 674 L583 674 L574 637 Z " />
<glyph glyph-name="aogonek" unicode="&#x105;" horiz-adv-x="625" d="M479 -149 L471 -180 Q447 -193 426 -199 Q405 -205 381 -205 Q346 -205 323.5 -187 Q301 -169 301 -140 Q301 -98 338 -63.5 Q375 -29 462 6 L488 109 Q439 51 378 20.5 Q317 -10 250 -10 Q167 -10 116.5 45 Q66 100 66 189 Q66 254 89 313 Q112 372 156 418 Q200 465 258.5 491 Q317 517 379 517 Q442 517 488 486 Q534 455 557 398 L585 507 L626 507 L503 0 Q406 -39 373 -66 Q340 -93 340 -128 Q340 -150 355.5 -162.5 Q371 -175 398 -175 Q416 -175 437.5 -168 Q459 -161 479 -149 Z M499 155 L547 353 Q527 412 482 445.5 Q437 479 376 479 Q268 479 189.5 397 Q111 315 111 198 Q111 120 153.5 74 Q196 28 267 28 Q328 28 389.5 61.5 Q451 95 499 155 Z " />
<glyph glyph-name="ccedilla" unicode="&#xe7;" horiz-adv-x="509" d="M329 -112 Q329 -150 298 -174.5 Q267 -199 220 -199 Q194 -199 175 -194 Q156 -189 138 -177 L145 -148 Q169 -163 186 -167.5 Q203 -172 224 -172 Q255 -172 274.5 -157.5 Q294 -143 294 -118 Q294 -102 282 -94 Q270 -86 246 -86 L201 -86 L236 -9 Q156 -1 110.5 52 Q65 105 65 188 Q65 326 156.5 421.5 Q248 517 379 517 Q430 517 470.5 501.5 Q511 486 535 457 L525 415 Q501 446 462.5 462.5 Q424 479 375 479 Q264 479 186.5 395.5 Q109 312 109 195 Q109 117 153.5 72.5 Q198 28 277 28 Q321 28 360.5 41.5 Q400 55 449 87 L439 45 Q401 18 355.5 4 Q310 -10 261 -10 L237 -61 L259 -61 Q293 -61 311 -74 Q329 -87 329 -112 Z " />
<glyph glyph-name="cacute" unicode="&#x107;" horiz-adv-x="509" d="M375 479 Q264 479 186.5 395.5 Q109 312 109 195 Q109 117 153.5 72.5 Q198 28 277 28 Q321 28 360.5 41.5 Q400 55 449 87 L439 45 Q402 18 357 4 Q312 -10 264 -10 Q172 -10 118.5 43.5 Q65 97 65 188 Q65 326 156.5 421.5 Q248 517 379 517 Q430 517 470.5 501.5 Q511 486 535 457 L525 415 Q501 446 462.5 462.5 Q424 479 375 479 Z M357 588 L317 588 L453 721 L507 721 L357 588 Z " />
<glyph glyph-name="ccaron" unicode="&#x10d;" horiz-adv-x="509" d="M375 479 Q264 479 186.5 395.5 Q109 312 109 195 Q109 117 153.5 72.5 Q198 28 277 28 Q321 28 360.5 41.5 Q400 55 449 87 L439 45 Q402 18 357 4 Q312 -10 264 -10 Q172 -10 118.5 43.5 Q65 97 65 188 Q65 326 156.5 421.5 Q248 517 379 517 Q430 517 470.5 501.5 Q511 486 535 457 L525 415 Q501 446 462.5 462.5 Q424 479 375 479 Z M387 588 L336 588 L259 721 L295 721 L365 614 L491 721 L532 721 L387 588 Z " />
<glyph glyph-name="ccircumflex" unicode="&#x109;" horiz-adv-x="509" d="M375 479 Q264 479 186.5 395.5 Q109 312 109 195 Q109 117 153.5 72.5 Q198 28 277 28 Q321 28 360.5 41.5 Q400 55 449 87 L439 45 Q402 18 357 4 Q312 -10 264 -10 Q172 -10 118.5 43.5 Q65 97 65 188 Q65 326 156.5 421.5 Q248 517 379 517 Q430 517 470.5 501.5 Q511 486 535 457 L525 415 Q501 446 462.5 462.5 Q424 479 375 479 Z M496 588 L459 588 L389 695 L264 588 L226 588 L368 721 L418 721 L496 588 Z " />
<glyph glyph-name="cdotaccent" unicode="&#x10b;" horiz-adv-x="509" d="M375 479 Q264 479 186.5 395.5 Q109 312 109 195 Q109 117 153.5 72.5 Q198 28 277 28 Q321 28 360.5 41.5 Q400 55 449 87 L439 45 Q402 18 357 4 Q312 -10 264 -10 Q172 -10 118.5 43.5 Q65 97 65 188 Q65 326 156.5 421.5 Q248 517 379 517 Q430 517 470.5 501.5 Q511 486 535 457 L525 415 Q501 446 462.5 462.5 Q424 479 375 479 Z M374 725 L416 725 L385 599 L343 599 L374 725 Z " />
<glyph glyph-name="dcaron" unicode="&#x10f;" horiz-adv-x="657" d="M500 159 L547 348 Q528 410 481 444.5 Q434 479 370 479 Q266 479 188 396.5 Q110 314 110 198 Q110 120 152.5 74 Q195 28 267 28 Q328 28 390 62.5 Q452 97 500 159 Z M461 0 L489 109 Q441 52 379 21 Q317 -10 250 -10 Q167 -10 116.5 45 Q66 100 66 189 Q66 253 88.5 311.5 Q111 370 154 416 Q197 464 254.5 490.5 Q312 517 373 517 Q439 517 487.5 486 Q536 455 558 400 L639 731 L684 740 L503 0 L461 0 Z M736 625 L755 710 L810 710 L793 641 Q785 610 767 584 Q749 558 721 539 L712 551 Q729 566 742.5 586 Q756 606 760 625 L736 625 Z " />
<glyph glyph-name="dslash" unicode="&#x111;" horiz-adv-x="629" d="M500 159 L547 348 Q528 410 481 444.5 Q434 479 370 479 Q266 479 188 396.5 Q110 314 110 198 Q110 120 152.5 74 Q195 28 267 28 Q328 28 390 62.5 Q452 97 500 159 Z M461 0 L489 109 Q441 52 379 21 Q317 -10 250 -10 Q167 -10 116.5 45 Q66 100 66 189 Q66 253 88.5 311.5 Q111 370 154 416 Q197 464 254.5 490.5 Q312 517 373 517 Q439 517 487.5 486 Q536 455 558 400 L609 609 L415 609 L422 640 L617 640 L639 731 L684 740 L660 640 L718 640 L710 609 L652 609 L503 0 L461 0 Z " />
<glyph glyph-name="eacute" unicode="&#xe9;" horiz-adv-x="558" d="M515 346 Q515 409 477 444.5 Q439 480 373 480 Q289 480 218 426 Q147 372 122 286 L508 286 Q511 300 513 315.5 Q515 331 515 346 Z M453 73 L444 32 Q412 12 368 1 Q324 -10 280 -10 Q184 -10 126.5 48 Q69 106 69 201 Q69 334 160 425.5 Q251 517 379 517 Q462 517 510 470.5 Q558 424 557 345 Q557 324 552 299.5 Q547 275 539 252 L115 252 Q113 242 112 230.5 Q111 219 111 206 Q111 124 159.5 75.5 Q208 27 290 27 Q330 27 373.5 39.5 Q417 52 453 73 Z M380 588 L340 588 L476 721 L530 721 L380 588 Z " />
<glyph glyph-name="ecircumflex" unicode="&#xea;" horiz-adv-x="558" d="M515 346 Q515 409 477 444.5 Q439 480 373 480 Q289 480 218 426 Q147 372 122 286 L508 286 Q511 300 513 315.5 Q515 331 515 346 Z M453 73 L444 32 Q412 12 368 1 Q324 -10 280 -10 Q184 -10 126.5 48 Q69 106 69 201 Q69 334 160 425.5 Q251 517 379 517 Q462 517 510 470.5 Q558 424 557 345 Q557 324 552 299.5 Q547 275 539 252 L115 252 Q113 242 112 230.5 Q111 219 111 206 Q111 124 159.5 75.5 Q208 27 290 27 Q330 27 373.5 39.5 Q417 52 453 73 Z M521 588 L484 588 L414 695 L289 588 L251 588 L393 721 L443 721 L521 588 Z " />
<glyph glyph-name="edieresis" unicode="&#xeb;" horiz-adv-x="558" d="M515 346 Q515 409 477 444.5 Q439 480 373 480 Q289 480 218 426 Q147 372 122 286 L508 286 Q511 300 513 315.5 Q515 331 515 346 Z M453 73 L444 32 Q412 12 368 1 Q324 -10 280 -10 Q184 -10 126.5 48 Q69 106 69 201 Q69 334 160 425.5 Q251 517 379 517 Q462 517 510 470.5 Q558 424 557 345 Q557 324 552 299.5 Q547 275 539 252 L115 252 Q113 242 112 230.5 Q111 219 111 206 Q111 124 159.5 75.5 Q208 27 290 27 Q330 27 373.5 39.5 Q417 52 453 73 Z M481 599 L442 599 L474 725 L513 725 L481 599 Z M322 599 L283 599 L314 725 L353 725 L322 599 Z " />
<glyph glyph-name="egrave" unicode="&#xe8;" horiz-adv-x="558" d="M515 346 Q515 409 477 444.5 Q439 480 373 480 Q289 480 218 426 Q147 372 122 286 L508 286 Q511 300 513 315.5 Q515 331 515 346 Z M453 73 L444 32 Q412 12 368 1 Q324 -10 280 -10 Q184 -10 126.5 48 Q69 106 69 201 Q69 334 160 425.5 Q251 517 379 517 Q462 517 510 470.5 Q558 424 557 345 Q557 324 552 299.5 Q547 275 539 252 L115 252 Q113 242 112 230.5 Q111 219 111 206 Q111 124 159.5 75.5 Q208 27 290 27 Q330 27 373.5 39.5 Q417 52 453 73 Z M303 721 L354 721 L428 588 L388 588 L303 721 Z " />
<glyph glyph-name="ebreve" unicode="&#x115;" horiz-adv-x="558" d="M515 346 Q515 409 477 444.5 Q439 480 373 480 Q289 480 218 426 Q147 372 122 286 L508 286 Q511 300 513 315.5 Q515 331 515 346 Z M453 73 L444 32 Q412 12 368 1 Q324 -10 280 -10 Q184 -10 126.5 48 Q69 106 69 201 Q69 334 160 425.5 Q251 517 379 517 Q462 517 510 470.5 Q558 424 557 345 Q557 324 552 299.5 Q547 275 539 252 L115 252 Q113 242 112 230.5 Q111 219 111 206 Q111 124 159.5 75.5 Q208 27 290 27 Q330 27 373.5 39.5 Q417 52 453 73 Z M404 625 Q449 625 480.5 648 Q512 671 533 718 L567 718 Q545 658 500.5 625 Q456 592 397 592 Q338 592 309 626 Q280 660 288 718 L321 718 Q318 672 339 648.5 Q360 625 404 625 Z " />
<glyph glyph-name="ecaron" unicode="&#x11b;" horiz-adv-x="558" d="M515 346 Q515 409 477 444.5 Q439 480 373 480 Q289 480 218 426 Q147 372 122 286 L508 286 Q511 300 513 315.5 Q515 331 515 346 Z M453 73 L444 32 Q412 12 368 1 Q324 -10 280 -10 Q184 -10 126.5 48 Q69 106 69 201 Q69 334 160 425.5 Q251 517 379 517 Q462 517 510 470.5 Q558 424 557 345 Q557 324 552 299.5 Q547 275 539 252 L115 252 Q113 242 112 230.5 Q111 219 111 206 Q111 124 159.5 75.5 Q208 27 290 27 Q330 27 373.5 39.5 Q417 52 453 73 Z M412 588 L361 588 L284 721 L320 721 L390 614 L516 721 L557 721 L412 588 Z " />
<glyph glyph-name="edotaccent" unicode="&#x117;" horiz-adv-x="558" d="M515 346 Q515 409 477 444.5 Q439 480 373 480 Q289 480 218 426 Q147 372 122 286 L508 286 Q511 300 513 315.5 Q515 331 515 346 Z M453 73 L444 32 Q412 12 368 1 Q324 -10 280 -10 Q184 -10 126.5 48 Q69 106 69 201 Q69 334 160 425.5 Q251 517 379 517 Q462 517 510 470.5 Q558 424 557 345 Q557 324 552 299.5 Q547 275 539 252 L115 252 Q113 242 112 230.5 Q111 219 111 206 Q111 124 159.5 75.5 Q208 27 290 27 Q330 27 373.5 39.5 Q417 52 453 73 Z M392 725 L434 725 L403 599 L361 599 L392 725 Z " />
<glyph glyph-name="emacron" unicode="&#x113;" horiz-adv-x="558" d="M515 346 Q515 409 477 444.5 Q439 480 373 480 Q289 480 218 426 Q147 372 122 286 L508 286 Q511 300 513 315.5 Q515 331 515 346 Z M453 73 L444 32 Q412 12 368 1 Q324 -10 280 -10 Q184 -10 126.5 48 Q69 106 69 201 Q69 334 160 425.5 Q251 517 379 517 Q462 517 510 470.5 Q558 424 557 345 Q557 324 552 299.5 Q547 275 539 252 L115 252 Q113 242 112 230.5 Q111 219 111 206 Q111 124 159.5 75.5 Q208 27 290 27 Q330 27 373.5 39.5 Q417 52 453 73 Z M539 637 L257 637 L266 674 L548 674 L539 637 Z " />
<glyph glyph-name="eogonek" unicode="&#x119;" horiz-adv-x="558" d="M345 -149 L337 -180 Q313 -193 292 -199 Q271 -205 247 -205 Q212 -205 189.5 -187 Q167 -169 167 -140 Q167 -101 197.5 -70 Q228 -39 299 -9 Q295 -10 291 -10 Q287 -10 280 -10 Q184 -10 126.5 48 Q69 106 69 201 Q69 334 160 425.5 Q251 517 379 517 Q462 517 510 470.5 Q558 424 557 345 Q557 324 552 299.5 Q547 275 539 252 L115 252 Q113 242 112 230.5 Q111 219 111 206 Q111 124 159.5 75.5 Q208 27 290 27 Q330 27 373.5 39.5 Q417 52 453 73 L444 32 Q423 19 400.5 11 Q378 3 352 -2 Q261 -46 233 -72 Q205 -98 205 -128 Q205 -150 220.5 -162.5 Q236 -175 264 -175 Q282 -175 303.5 -168 Q325 -161 345 -149 Z M515 346 Q515 409 477 444.5 Q439 480 373 480 Q289 480 218 426 Q147 372 122 286 L508 286 Q511 300 513 315.5 Q515 331 515 346 Z " />
<glyph glyph-name="gbreve" unicode="&#x11f;" horiz-adv-x="625" d="M500 156 L547 351 Q528 411 482 445 Q436 479 375 479 Q269 479 190 396.5 Q111 314 111 198 Q111 119 153 73.5 Q195 28 267 28 Q328 28 388 61 Q448 94 500 156 Z M467 24 L489 109 Q440 52 379 21 Q318 -10 252 -10 Q168 -10 117 44.5 Q66 99 66 189 Q66 325 158.5 421 Q251 517 378 517 Q442 517 488.5 486 Q535 455 557 398 L585 507 L626 507 L511 27 Q483 -87 402.5 -152.5 Q322 -218 214 -218 Q185 -218 156 -211.5 Q127 -205 112 -196 L121 -157 Q140 -167 167 -173.5 Q194 -180 221 -180 Q308 -180 375.5 -124.5 Q443 -69 467 24 Z M431 625 Q476 625 507.5 648 Q539 671 560 718 L594 718 Q572 658 527.5 625 Q483 592 424 592 Q365 592 336 626 Q307 660 315 718 L348 718 Q345 672 366 648.5 Q387 625 431 625 Z " />
<glyph glyph-name="gcircumflex" unicode="&#x11d;" horiz-adv-x="625" d="M500 156 L547 351 Q528 411 482 445 Q436 479 375 479 Q269 479 190 396.5 Q111 314 111 198 Q111 119 153 73.5 Q195 28 267 28 Q328 28 388 61 Q448 94 500 156 Z M467 24 L489 109 Q440 52 379 21 Q318 -10 252 -10 Q168 -10 117 44.5 Q66 99 66 189 Q66 325 158.5 421 Q251 517 378 517 Q442 517 488.5 486 Q535 455 557 398 L585 507 L626 507 L511 27 Q483 -87 402.5 -152.5 Q322 -218 214 -218 Q185 -218 156 -211.5 Q127 -205 112 -196 L121 -157 Q140 -167 167 -173.5 Q194 -180 221 -180 Q308 -180 375.5 -124.5 Q443 -69 467 24 Z M547 588 L510 588 L440 695 L315 588 L277 588 L419 721 L469 721 L547 588 Z " />
<glyph glyph-name="gcommaaccent" unicode="&#x123;" horiz-adv-x="625" d="M500 156 L547 351 Q528 411 482 445 Q436 479 375 479 Q269 479 190 396.5 Q111 314 111 198 Q111 119 153 73.5 Q195 28 267 28 Q328 28 388 61 Q448 94 500 156 Z M467 24 L489 109 Q440 52 379 21 Q318 -10 252 -10 Q168 -10 117 44.5 Q66 99 66 189 Q66 325 158.5 421 Q251 517 378 517 Q442 517 488.5 486 Q535 455 557 398 L585 507 L626 507 L511 27 Q483 -87 402.5 -152.5 Q322 -218 214 -218 Q185 -218 156 -211.5 Q127 -205 112 -196 L121 -157 Q140 -167 167 -173.5 Q194 -180 221 -180 Q308 -180 375.5 -124.5 Q443 -69 467 24 Z M449 663 L431 587 L376 587 L391 647 Q398 677 416.5 701.5 Q435 726 461 742 L470 730 Q455 719 442 700 Q429 681 424 663 L449 663 Z " />
<glyph glyph-name="gdotaccent" unicode="&#x121;" horiz-adv-x="625" d="M500 156 L547 351 Q528 411 482 445 Q436 479 375 479 Q269 479 190 396.5 Q111 314 111 198 Q111 119 153 73.5 Q195 28 267 28 Q328 28 388 61 Q448 94 500 156 Z M467 24 L489 109 Q440 52 379 21 Q318 -10 252 -10 Q168 -10 117 44.5 Q66 99 66 189 Q66 325 158.5 421 Q251 517 378 517 Q442 517 488.5 486 Q535 455 557 398 L585 507 L626 507 L511 27 Q483 -87 402.5 -152.5 Q322 -218 214 -218 Q185 -218 156 -211.5 Q127 -205 112 -196 L121 -157 Q140 -167 167 -173.5 Q194 -180 221 -180 Q308 -180 375.5 -124.5 Q443 -69 467 24 Z M415 725 L457 725 L426 599 L384 599 L415 725 Z " />
<glyph glyph-name="hbar" unicode="&#x127;" horiz-adv-x="587" d="M403 478 Q345 478 284 445.5 Q223 413 181 361 L93 0 L50 0 L198 609 L140 609 L148 640 L206 640 L228 731 L273 740 L248 640 L443 640 L436 609 L241 609 L190 404 Q235 456 296 486.5 Q357 517 420 517 Q489 517 523.5 486.5 Q558 456 558 395 Q558 377 555.5 358.5 Q553 340 548 321 L470 0 L427 0 L505 318 Q509 332 511 346.5 Q513 361 513 376 Q513 428 486 453 Q459 478 403 478 Z " />
<glyph glyph-name="hcircumflex" unicode="&#x125;" horiz-adv-x="587" d="M524 776 L488 776 L417 884 L290 776 L254 776 L399 909 L444 909 L524 776 Z M228 731 L273 740 L190 404 Q235 456 296 486.5 Q357 517 420 517 Q489 517 523.5 486.5 Q558 456 558 395 Q558 377 555.5 358.5 Q553 340 548 321 L470 0 L427 0 L505 318 Q509 332 511 346.5 Q513 361 513 376 Q513 428 486 453 Q459 478 403 478 Q345 478 284 445.5 Q223 413 181 361 L93 0 L50 0 L228 731 Z " />
<glyph glyph-name="iacute" unicode="&#xed;" horiz-adv-x="216" d="M176 507 L218 507 L94 0 L52 0 L176 507 Z M217 588 L177 588 L313 721 L367 721 L217 588 Z " />
<glyph glyph-name="icircumflex" unicode="&#xee;" horiz-adv-x="216" d="M176 507 L218 507 L94 0 L52 0 L176 507 Z M355 588 L318 588 L248 695 L123 588 L85 588 L227 721 L277 721 L355 588 Z " />
<glyph glyph-name="idieresis" unicode="&#xef;" horiz-adv-x="216" d="M176 507 L218 507 L94 0 L52 0 L176 507 Z M322 599 L283 599 L315 725 L354 725 L322 599 Z M163 599 L124 599 L155 725 L194 725 L163 599 Z " />
<glyph glyph-name="igrave" unicode="&#xec;" horiz-adv-x="216" d="M176 507 L218 507 L94 0 L52 0 L176 507 Z M146 721 L197 721 L271 588 L231 588 L146 721 Z " />
<glyph glyph-name="ibreve" unicode="&#x12d;" horiz-adv-x="216" d="M176 507 L218 507 L94 0 L52 0 L176 507 Z M238 625 Q283 625 314.5 648 Q346 671 367 718 L401 718 Q379 658 334.5 625 Q290 592 231 592 Q172 592 143 626 Q114 660 122 718 L155 718 Q152 672 173 648.5 Q194 625 238 625 Z " />
<glyph glyph-name="i.dot" unicode="&#xe166;" horiz-adv-x="216" d="M229 725 L272 725 L240 599 L198 599 L229 725 Z M176 507 L218 507 L94 0 L52 0 L176 507 Z " />
<glyph glyph-name="imacron" unicode="&#x12b;" horiz-adv-x="216" d="M176 507 L218 507 L94 0 L52 0 L176 507 Z M373 637 L91 637 L100 674 L382 674 L373 637 Z " />
<glyph glyph-name="iogonek" unicode="&#x12f;" horiz-adv-x="216" d="M229 725 L271 725 L239 599 L197 599 L229 725 Z M85 -149 L77 -180 Q53 -193 32.5 -199 Q12 -205 -12 -205 Q-47 -205 -69.5 -187 Q-92 -169 -92 -140 Q-92 -98 -58.5 -64 Q-25 -30 53 4 L176 507 L218 507 L94 0 Q10 -36 -21.5 -64.5 Q-53 -93 -53 -128 Q-53 -150 -38 -162.5 Q-23 -175 4 -175 Q22 -175 43.5 -168 Q65 -161 85 -149 Z " />
<glyph glyph-name="itilde" unicode="&#x129;" horiz-adv-x="216" d="M176 507 L218 507 L94 0 L52 0 L176 507 Z M255 666 Q276 644 288 637.5 Q300 631 312 631 Q336 631 355.5 651 Q375 671 385 706 L418 706 Q403 655 373.5 627 Q344 599 307 599 Q289 599 272.5 607.5 Q256 616 229 642 Q206 665 194 671.5 Q182 678 170 678 Q143 678 122.5 658.5 Q102 639 89 600 L56 600 Q75 654 105 682 Q135 710 175 710 Q194 710 211 701.5 Q228 693 255 666 Z " />
<glyph glyph-name="jcircumflex" unicode="&#x135;" horiz-adv-x="225" d="M-77 -180 Q-28 -180 1.5 -149 Q31 -118 48 -50 L183 507 L226 507 L91 -48 Q71 -135 29.5 -176.5 Q-12 -218 -79 -218 Q-91 -218 -101 -217 Q-111 -216 -120 -214 L-111 -177 Q-100 -179 -92.5 -179.5 Q-85 -180 -77 -180 Z M359 588 L322 588 L252 695 L127 588 L89 588 L231 721 L281 721 L359 588 Z " />
<glyph glyph-name="ij" unicode="&#x133;" horiz-adv-x="417" d="M229 725 L272 725 L240 599 L198 599 L229 725 Z M176 507 L218 507 L94 0 L52 0 L176 507 Z M439 599 L397 599 L428 725 L469 725 L439 599 Z M114 -180 Q163 -180 192.5 -149 Q222 -118 239 -50 L374 507 L417 507 L282 -48 Q262 -135 220.5 -176.5 Q179 -218 112 -218 Q100 -218 90 -217 Q80 -216 71 -214 L80 -177 Q91 -179 98.5 -179.5 Q106 -180 114 -180 Z " />
<glyph glyph-name="kcommaaccent" unicode="&#x137;" horiz-adv-x="510" d="M451 0 L400 0 L236 256 L137 175 L94 0 L51 0 L229 731 L274 740 L150 229 L485 507 L542 507 L269 284 L451 0 Z M185 -145 L205 -61 L259 -61 L243 -129 Q237 -156 218.5 -179 Q200 -202 175 -215 L165 -203 Q182 -191 193.5 -176 Q205 -161 210 -145 L185 -145 Z " />
<glyph glyph-name="lacute" unicode="&#x13a;" horiz-adv-x="215" d="M261 784 L221 784 L359 917 L409 917 L261 784 Z M274 740 L94 0 L51 0 L229 731 L274 740 Z " />
<glyph glyph-name="lcaron" unicode="&#x13e;" horiz-adv-x="247" d="M274 740 L94 0 L51 0 L229 731 L274 740 Z M325 625 L344 710 L399 710 L382 641 Q374 610 356 584 Q338 558 310 539 L301 551 Q318 566 331.5 586 Q345 606 349 625 L325 625 Z " />
<glyph glyph-name="lcommaaccent" unicode="&#x13c;" horiz-adv-x="215" d="M274 740 L94 0 L51 0 L229 731 L274 740 Z M18 -145 L38 -61 L92 -61 L76 -129 Q70 -156 51.5 -179 Q33 -202 8 -215 L-2 -203 Q15 -191 26.5 -176 Q38 -161 43 -145 L18 -145 Z " />
<glyph glyph-name="ldot" unicode="&#x140;" horiz-adv-x="254" d="M274 740 L94 0 L51 0 L229 731 L274 740 Z M245 308 L267 395 L323 395 L302 308 L245 308 Z " />
<glyph glyph-name="ntilde" unicode="&#xf1;" horiz-adv-x="587" d="M175 507 L215 507 L188 401 Q234 455 294.5 486 Q355 517 419 517 Q488 517 523.5 486.5 Q559 456 559 396 Q559 379 556.5 360 Q554 341 549 321 L471 0 L428 0 L506 318 Q510 333 512 349 Q514 365 514 381 Q514 429 485.5 453.5 Q457 478 402 478 Q344 478 285 446 Q226 414 181 359 L94 0 L51 0 L175 507 Z M440 666 Q461 644 473 637.5 Q485 631 497 631 Q521 631 540.5 651 Q560 671 570 706 L603 706 Q588 655 558.5 627 Q529 599 492 599 Q474 599 457.5 607.5 Q441 616 414 642 Q391 665 379 671.5 Q367 678 355 678 Q328 678 307.5 658.5 Q287 639 274 600 L241 600 Q260 654 290 682 Q320 710 360 710 Q379 710 396 701.5 Q413 693 440 666 Z " />
<glyph glyph-name="nacute" unicode="&#x144;" horiz-adv-x="587" d="M175 507 L215 507 L188 401 Q234 455 294.5 486 Q355 517 419 517 Q488 517 523.5 486.5 Q559 456 559 396 Q559 379 556.5 360 Q554 341 549 321 L471 0 L428 0 L506 318 Q510 333 512 349 Q514 365 514 381 Q514 429 485.5 453.5 Q457 478 402 478 Q344 478 285 446 Q226 414 181 359 L94 0 L51 0 L175 507 Z M384 588 L344 588 L480 721 L534 721 L384 588 Z " />
<glyph glyph-name="ncaron" unicode="&#x148;" horiz-adv-x="587" d="M175 507 L215 507 L188 401 Q234 455 294.5 486 Q355 517 419 517 Q488 517 523.5 486.5 Q559 456 559 396 Q559 379 556.5 360 Q554 341 549 321 L471 0 L428 0 L506 318 Q510 333 512 349 Q514 365 514 381 Q514 429 485.5 453.5 Q457 478 402 478 Q344 478 285 446 Q226 414 181 359 L94 0 L51 0 L175 507 Z M431 588 L380 588 L303 721 L339 721 L409 614 L535 721 L576 721 L431 588 Z " />
<glyph glyph-name="ncommaaccent" unicode="&#x146;" horiz-adv-x="587" d="M175 507 L215 507 L188 401 Q234 455 294.5 486 Q355 517 419 517 Q488 517 523.5 486.5 Q559 456 559 396 Q559 379 556.5 360 Q554 341 549 321 L471 0 L428 0 L506 318 Q510 333 512 349 Q514 365 514 381 Q514 429 485.5 453.5 Q457 478 402 478 Q344 478 285 446 Q226 414 181 359 L94 0 L51 0 L175 507 Z M206 -145 L226 -61 L280 -61 L264 -129 Q258 -156 239.5 -179 Q221 -202 196 -215 L186 -203 Q203 -191 214.5 -176 Q226 -161 231 -145 L206 -145 Z " />
<glyph glyph-name="oacute" unicode="&#xf3;" horiz-adv-x="599" d="M387 517 Q475 517 530.5 460 Q586 403 586 313 Q586 249 561.5 190.5 Q537 132 491 86 Q445 40 385.5 15 Q326 -10 264 -10 Q177 -10 122 47 Q67 104 67 194 Q67 258 91.5 316.5 Q116 375 162 420 Q208 466 266.5 491.5 Q325 517 387 517 Z M272 27 Q379 27 460.5 109.5 Q542 192 542 305 Q542 383 497.5 431 Q453 479 380 479 Q273 479 192 396.5 Q111 314 111 201 Q111 122 155 74.5 Q199 27 272 27 Z M399 588 L359 588 L495 721 L549 721 L399 588 Z " />
<glyph glyph-name="ocircumflex" unicode="&#xf4;" horiz-adv-x="599" d="M387 517 Q475 517 530.5 460 Q586 403 586 313 Q586 249 561.5 190.5 Q537 132 491 86 Q445 40 385.5 15 Q326 -10 264 -10 Q177 -10 122 47 Q67 104 67 194 Q67 258 91.5 316.5 Q116 375 162 420 Q208 466 266.5 491.5 Q325 517 387 517 Z M272 27 Q379 27 460.5 109.5 Q542 192 542 305 Q542 383 497.5 431 Q453 479 380 479 Q273 479 192 396.5 Q111 314 111 201 Q111 122 155 74.5 Q199 27 272 27 Z M541 588 L504 588 L434 695 L309 588 L271 588 L413 721 L463 721 L541 588 Z " />
<glyph glyph-name="odieresis" unicode="&#xf6;" horiz-adv-x="599" d="M387 517 Q475 517 530.5 460 Q586 403 586 313 Q586 249 561.5 190.5 Q537 132 491 86 Q445 40 385.5 15 Q326 -10 264 -10 Q177 -10 122 47 Q67 104 67 194 Q67 258 91.5 316.5 Q116 375 162 420 Q208 466 266.5 491.5 Q325 517 387 517 Z M272 27 Q379 27 460.5 109.5 Q542 192 542 305 Q542 383 497.5 431 Q453 479 380 479 Q273 479 192 396.5 Q111 314 111 201 Q111 122 155 74.5 Q199 27 272 27 Z M508 599 L469 599 L501 725 L540 725 L508 599 Z M349 599 L310 599 L341 725 L380 725 L349 599 Z " />
<glyph glyph-name="ograve" unicode="&#xf2;" horiz-adv-x="599" d="M387 517 Q475 517 530.5 460 Q586 403 586 313 Q586 249 561.5 190.5 Q537 132 491 86 Q445 40 385.5 15 Q326 -10 264 -10 Q177 -10 122 47 Q67 104 67 194 Q67 258 91.5 316.5 Q116 375 162 420 Q208 466 266.5 491.5 Q325 517 387 517 Z M272 27 Q379 27 460.5 109.5 Q542 192 542 305 Q542 383 497.5 431 Q453 479 380 479 Q273 479 192 396.5 Q111 314 111 201 Q111 122 155 74.5 Q199 27 272 27 Z M334 721 L385 721 L459 588 L419 588 L334 721 Z " />
<glyph glyph-name="otilde" unicode="&#xf5;" horiz-adv-x="599" d="M387 517 Q475 517 530.5 460 Q586 403 586 313 Q586 249 561.5 190.5 Q537 132 491 86 Q445 40 385.5 15 Q326 -10 264 -10 Q177 -10 122 47 Q67 104 67 194 Q67 258 91.5 316.5 Q116 375 162 420 Q208 466 266.5 491.5 Q325 517 387 517 Z M272 27 Q379 27 460.5 109.5 Q542 192 542 305 Q542 383 497.5 431 Q453 479 380 479 Q273 479 192 396.5 Q111 314 111 201 Q111 122 155 74.5 Q199 27 272 27 Z M441 666 Q462 644 474 637.5 Q486 631 498 631 Q522 631 541.5 651 Q561 671 571 706 L604 706 Q589 655 559.5 627 Q530 599 493 599 Q475 599 458.5 607.5 Q442 616 415 642 Q392 665 380 671.5 Q368 678 356 678 Q329 678 308.5 658.5 Q288 639 275 600 L242 600 Q261 654 291 682 Q321 710 361 710 Q380 710 397 701.5 Q414 693 441 666 Z " />
<glyph glyph-name="obreve" unicode="&#x14f;" horiz-adv-x="599" d="M387 517 Q475 517 530.5 460 Q586 403 586 313 Q586 249 561.5 190.5 Q537 132 491 86 Q445 40 385.5 15 Q326 -10 264 -10 Q177 -10 122 47 Q67 104 67 194 Q67 258 91.5 316.5 Q116 375 162 420 Q208 466 266.5 491.5 Q325 517 387 517 Z M272 27 Q379 27 460.5 109.5 Q542 192 542 305 Q542 383 497.5 431 Q453 479 380 479 Q273 479 192 396.5 Q111 314 111 201 Q111 122 155 74.5 Q199 27 272 27 Z M424 625 Q469 625 500.5 648 Q532 671 553 718 L587 718 Q565 658 520.5 625 Q476 592 417 592 Q358 592 329 626 Q300 660 308 718 L341 718 Q338 672 359 648.5 Q380 625 424 625 Z " />
<glyph glyph-name="ohungarumlaut" unicode="&#x151;" horiz-adv-x="599" d="M387 517 Q475 517 530.5 460 Q586 403 586 313 Q586 249 561.5 190.5 Q537 132 491 86 Q445 40 385.5 15 Q326 -10 264 -10 Q177 -10 122 47 Q67 104 67 194 Q67 258 91.5 316.5 Q116 375 162 420 Q208 466 266.5 491.5 Q325 517 387 517 Z M272 27 Q379 27 460.5 109.5 Q542 192 542 305 Q542 383 497.5 431 Q453 479 380 479 Q273 479 192 396.5 Q111 314 111 201 Q111 122 155 74.5 Q199 27 272 27 Z M460 588 L422 588 L553 721 L605 721 L460 588 Z M315 588 L277 588 L408 721 L460 721 L315 588 Z " />
<glyph glyph-name="omacron" unicode="&#x14d;" horiz-adv-x="599" d="M387 517 Q475 517 530.5 460 Q586 403 586 313 Q586 249 561.5 190.5 Q537 132 491 86 Q445 40 385.5 15 Q326 -10 264 -10 Q177 -10 122 47 Q67 104 67 194 Q67 258 91.5 316.5 Q116 375 162 420 Q208 466 266.5 491.5 Q325 517 387 517 Z M272 27 Q379 27 460.5 109.5 Q542 192 542 305 Q542 383 497.5 431 Q453 479 380 479 Q273 479 192 396.5 Q111 314 111 201 Q111 122 155 74.5 Q199 27 272 27 Z M559 637 L277 637 L286 674 L568 674 L559 637 Z " />
<glyph glyph-name="racute" unicode="&#x155;" horiz-adv-x="353" d="M361 517 Q376 517 389 514 Q402 511 413 505 L403 464 Q391 470 377 473 Q363 476 347 476 Q303 476 259 444 Q215 412 180 355 L94 0 L51 0 L175 507 L216 507 L190 404 Q224 458 268.5 487.5 Q313 517 361 517 Z M261 588 L221 588 L357 721 L411 721 L261 588 Z " />
<glyph glyph-name="rcaron" unicode="&#x159;" horiz-adv-x="353" d="M361 517 Q376 517 389 514 Q402 511 413 505 L403 464 Q391 470 377 473 Q363 476 347 476 Q303 476 259 444 Q215 412 180 355 L94 0 L51 0 L175 507 L216 507 L190 404 Q224 458 268.5 487.5 Q313 517 361 517 Z M322 588 L271 588 L194 721 L230 721 L300 614 L426 721 L467 721 L322 588 Z " />
<glyph glyph-name="rcommaaccent" unicode="&#x157;" horiz-adv-x="353" d="M361 517 Q376 517 389 514 Q402 511 413 505 L403 464 Q391 470 377 473 Q363 476 347 476 Q303 476 259 444 Q215 412 180 355 L94 0 L51 0 L175 507 L216 507 L190 404 Q224 458 268.5 487.5 Q313 517 361 517 Z M20 -145 L40 -61 L94 -61 L78 -129 Q72 -156 53.5 -179 Q35 -202 10 -215 L0 -203 Q17 -191 28.5 -176 Q40 -161 45 -145 L20 -145 Z " />
<glyph glyph-name="scaron" unicode="&#x161;" horiz-adv-x="455" d="M312 480 Q242 480 195.5 450 Q149 420 149 374 Q149 347 169.5 328.5 Q190 310 270 279 Q351 249 381 220 Q411 191 411 148 Q411 75 350 32.5 Q289 -10 191 -10 Q139 -10 92.5 4.5 Q46 19 23 41 L34 84 Q61 58 106 42.5 Q151 27 200 27 Q274 27 320.5 57.5 Q367 88 367 141 Q367 173 343.5 194.5 Q320 216 238 248 Q162 276 133 303 Q104 330 104 367 Q104 434 165 475.5 Q226 517 315 517 Q358 517 395.5 506 Q433 495 465 473 L454 432 Q426 455 389 467.5 Q352 480 312 480 Z M342 588 L291 588 L214 721 L250 721 L320 614 L446 721 L487 721 L342 588 Z " />
<glyph glyph-name="sacute" unicode="&#x15b;" horiz-adv-x="455" d="M312 480 Q242 480 195.5 450 Q149 420 149 374 Q149 347 169.5 328.5 Q190 310 270 279 Q351 249 381 220 Q411 191 411 148 Q411 75 350 32.5 Q289 -10 191 -10 Q139 -10 92.5 4.5 Q46 19 23 41 L34 84 Q61 58 106 42.5 Q151 27 200 27 Q274 27 320.5 57.5 Q367 88 367 141 Q367 173 343.5 194.5 Q320 216 238 248 Q162 276 133 303 Q104 330 104 367 Q104 434 165 475.5 Q226 517 315 517 Q358 517 395.5 506 Q433 495 465 473 L454 432 Q426 455 389 467.5 Q352 480 312 480 Z M315 588 L275 588 L411 721 L465 721 L315 588 Z " />
<glyph glyph-name="scedilla" unicode="&#x15f;" horiz-adv-x="455" d="M264 -112 Q264 -150 233 -174.5 Q202 -199 155 -199 Q129 -199 110 -194 Q91 -189 72 -177 L80 -148 Q102 -162 119 -167 Q136 -172 158 -172 Q190 -172 209.5 -157.5 Q229 -143 229 -118 Q229 -102 217 -94 Q205 -86 181 -86 L136 -86 L171 -9 Q125 -7 84.5 7 Q44 21 23 41 L34 84 Q61 58 106 42.5 Q151 27 200 27 Q274 27 320.5 57.5 Q367 88 367 141 Q367 173 343.5 194.5 Q320 216 238 248 Q162 276 133 303 Q104 330 104 367 Q104 434 165 475.5 Q226 517 315 517 Q358 517 395.5 506 Q433 495 465 473 L454 432 Q426 455 389 467.5 Q352 480 312 480 Q242 480 195.5 450 Q149 420 149 374 Q149 347 169.5 328.5 Q190 310 270 279 Q351 249 381 220 Q411 191 411 148 Q411 75 350.5 32.5 Q290 -10 196 -10 L172 -61 L194 -61 Q228 -61 246 -74 Q264 -87 264 -112 Z " />
<glyph glyph-name="scircumflex" unicode="&#x15d;" horiz-adv-x="455" d="M312 480 Q242 480 195.5 450 Q149 420 149 374 Q149 347 169.5 328.5 Q190 310 270 279 Q351 249 381 220 Q411 191 411 148 Q411 75 350 32.5 Q289 -10 191 -10 Q139 -10 92.5 4.5 Q46 19 23 41 L34 84 Q61 58 106 42.5 Q151 27 200 27 Q274 27 320.5 57.5 Q367 88 367 141 Q367 173 343.5 194.5 Q320 216 238 248 Q162 276 133 303 Q104 330 104 367 Q104 434 165 475.5 Q226 517 315 517 Q358 517 395.5 506 Q433 495 465 473 L454 432 Q426 455 389 467.5 Q352 480 312 480 Z M470 588 L433 588 L363 695 L238 588 L200 588 L342 721 L392 721 L470 588 Z " />
<glyph glyph-name="uni0219" unicode="&#x219;" horiz-adv-x="455" d="M312 480 Q242 480 195.5 450 Q149 420 149 374 Q149 347 169.5 328.5 Q190 310 270 279 Q351 249 381 220 Q411 191 411 148 Q411 75 350 32.5 Q289 -10 191 -10 Q139 -10 92.5 4.5 Q46 19 23 41 L34 84 Q61 58 106 42.5 Q151 27 200 27 Q274 27 320.5 57.5 Q367 88 367 141 Q367 173 343.5 194.5 Q320 216 238 248 Q162 276 133 303 Q104 330 104 367 Q104 434 165 475.5 Q226 517 315 517 Q358 517 395.5 506 Q433 495 465 473 L454 432 Q426 455 389 467.5 Q352 480 312 480 Z M128 -145 L148 -61 L202 -61 L186 -129 Q180 -156 161.5 -179 Q143 -202 118 -215 L108 -203 Q125 -191 136.5 -176 Q148 -161 153 -145 L128 -145 Z " />
<glyph glyph-name="tbar" unicode="&#x167;" horiz-adv-x="336" d="M267 41 L257 2 Q231 -5 216 -7.5 Q201 -10 187 -10 Q137 -10 112.5 11 Q88 32 88 76 Q88 89 90 103 Q92 117 95 132 L134 290 L49 290 L58 324 L142 324 L178 472 L92 472 L101 507 L186 507 L217 633 L261 642 L228 507 L376 507 L368 472 L220 472 L184 324 L333 324 L325 290 L176 290 L138 135 Q135 119 133.5 108 Q132 97 133 88 Q134 58 150.5 43.5 Q167 29 201 29 Q215 29 231.5 32 Q248 35 267 41 Z " />
<glyph glyph-name="tcaron" unicode="&#x165;" horiz-adv-x="336" d="M267 41 L257 2 Q231 -5 216 -7.5 Q201 -10 187 -10 Q137 -10 112.5 11 Q88 32 88 76 Q88 89 90 103 Q92 117 95 132 L177 470 L92 470 L101 507 L186 507 L217 633 L261 642 L228 507 L376 507 L367 470 L220 470 L138 135 Q135 119 133.5 108 Q132 97 133 88 Q134 58 150.5 43.5 Q167 29 201 29 Q215 29 231.5 32 Q248 35 267 41 Z M323 642 L342 727 L397 727 L380 658 Q372 627 354 601 Q336 575 308 556 L299 568 Q316 583 329.5 603 Q343 623 347 642 L323 642 Z " />
<glyph glyph-name="uni0163" unicode="&#x163;" horiz-adv-x="336" d="M267 41 L257 2 Q231 -5 216 -7.5 Q201 -10 187 -10 Q137 -10 112.5 11 Q88 32 88 76 Q88 89 90 103 Q92 117 95 132 L177 470 L92 470 L101 507 L186 507 L217 633 L261 642 L228 507 L376 507 L367 470 L220 470 L138 135 Q135 119 133.5 108 Q132 97 133 88 Q134 58 150.5 43.5 Q167 29 201 29 Q215 29 231.5 32 Q248 35 267 41 Z M69 -145 L89 -61 L143 -61 L127 -129 Q121 -156 102.5 -179 Q84 -202 59 -215 L49 -203 Q66 -191 77.5 -176 Q89 -161 94 -145 L69 -145 Z " />
<glyph glyph-name="uni021B" unicode="&#x21b;" horiz-adv-x="336" d="M267 41 L257 2 Q231 -5 216 -7.5 Q201 -10 187 -10 Q137 -10 112.5 11 Q88 32 88 76 Q88 89 90 103 Q92 117 95 132 L177 470 L92 470 L101 507 L186 507 L217 633 L261 642 L228 507 L376 507 L367 470 L220 470 L138 135 Q135 119 133.5 108 Q132 97 133 88 Q134 58 150.5 43.5 Q167 29 201 29 Q215 29 231.5 32 Q248 35 267 41 Z M69 -145 L89 -61 L143 -61 L127 -129 Q121 -156 102.5 -179 Q84 -202 59 -215 L49 -203 Q66 -191 77.5 -176 Q89 -161 94 -145 L69 -145 Z " />
<glyph glyph-name="uacute" unicode="&#xfa;" horiz-adv-x="567" d="M445 0 L405 0 L432 108 Q384 52 327.5 21 Q271 -10 213 -10 Q146 -10 112 19 Q78 48 78 106 Q78 122 80.5 140 Q83 158 87 177 L168 507 L210 507 L130 180 Q126 163 124 147.5 Q122 132 122 119 Q122 74 149.5 51 Q177 28 230 28 Q283 28 336.5 59 Q390 90 440 149 L526 507 L568 507 L445 0 Z M392 588 L352 588 L488 721 L542 721 L392 588 Z " />
<glyph glyph-name="ucircumflex" unicode="&#xfb;" horiz-adv-x="567" d="M445 0 L405 0 L432 108 Q384 52 327.5 21 Q271 -10 213 -10 Q146 -10 112 19 Q78 48 78 106 Q78 122 80.5 140 Q83 158 87 177 L168 507 L210 507 L130 180 Q126 163 124 147.5 Q122 132 122 119 Q122 74 149.5 51 Q177 28 230 28 Q283 28 336.5 59 Q390 90 440 149 L526 507 L568 507 L445 0 Z M531 588 L494 588 L424 695 L299 588 L261 588 L403 721 L453 721 L531 588 Z " />
<glyph glyph-name="udieresis" unicode="&#xfc;" horiz-adv-x="567" d="M445 0 L405 0 L432 108 Q384 52 327.5 21 Q271 -10 213 -10 Q146 -10 112 19 Q78 48 78 106 Q78 122 80.5 140 Q83 158 87 177 L168 507 L210 507 L130 180 Q126 163 124 147.5 Q122 132 122 119 Q122 74 149.5 51 Q177 28 230 28 Q283 28 336.5 59 Q390 90 440 149 L526 507 L568 507 L445 0 Z M498 599 L459 599 L491 725 L530 725 L498 599 Z M339 599 L300 599 L331 725 L370 725 L339 599 Z " />
<glyph glyph-name="ugrave" unicode="&#xf9;" horiz-adv-x="567" d="M445 0 L405 0 L432 108 Q384 52 327.5 21 Q271 -10 213 -10 Q146 -10 112 19 Q78 48 78 106 Q78 122 80.5 140 Q83 158 87 177 L168 507 L210 507 L130 180 Q126 163 124 147.5 Q122 132 122 119 Q122 74 149.5 51 Q177 28 230 28 Q283 28 336.5 59 Q390 90 440 149 L526 507 L568 507 L445 0 Z M324 721 L375 721 L449 588 L409 588 L324 721 Z " />
<glyph glyph-name="ubreve" unicode="&#x16d;" horiz-adv-x="567" d="M445 0 L405 0 L432 108 Q384 52 327.5 21 Q271 -10 213 -10 Q146 -10 112 19 Q78 48 78 106 Q78 122 80.5 140 Q83 158 87 177 L168 507 L210 507 L130 180 Q126 163 124 147.5 Q122 132 122 119 Q122 74 149.5 51 Q177 28 230 28 Q283 28 336.5 59 Q390 90 440 149 L526 507 L568 507 L445 0 Z M414 625 Q459 625 490.5 648 Q522 671 543 718 L577 718 Q555 658 510.5 625 Q466 592 407 592 Q348 592 319 626 Q290 660 298 718 L331 718 Q328 672 349 648.5 Q370 625 414 625 Z " />
<glyph glyph-name="uhungarumlaut" unicode="&#x171;" horiz-adv-x="567" d="M445 0 L405 0 L432 108 Q384 52 327.5 21 Q271 -10 213 -10 Q146 -10 112 19 Q78 48 78 106 Q78 122 80.5 140 Q83 158 87 177 L168 507 L210 507 L130 180 Q126 163 124 147.5 Q122 132 122 119 Q122 74 149.5 51 Q177 28 230 28 Q283 28 336.5 59 Q390 90 440 149 L526 507 L568 507 L445 0 Z M458 588 L420 588 L551 721 L603 721 L458 588 Z M313 588 L275 588 L406 721 L458 721 L313 588 Z " />
<glyph glyph-name="umacron" unicode="&#x16b;" horiz-adv-x="567" d="M445 0 L405 0 L432 108 Q384 52 327.5 21 Q271 -10 213 -10 Q146 -10 112 19 Q78 48 78 106 Q78 122 80.5 140 Q83 158 87 177 L168 507 L210 507 L130 180 Q126 163 124 147.5 Q122 132 122 119 Q122 74 149.5 51 Q177 28 230 28 Q283 28 336.5 59 Q390 90 440 149 L526 507 L568 507 L445 0 Z M549 637 L267 637 L276 674 L558 674 L549 637 Z " />
<glyph glyph-name="uogonek" unicode="&#x173;" horiz-adv-x="567" d="M421 -149 L413 -180 Q389 -193 368 -199 Q347 -205 323 -205 Q288 -205 265.5 -187 Q243 -169 243 -140 Q243 -97 279.5 -63.5 Q316 -30 405 3 L432 109 Q384 53 327 21.5 Q270 -10 212 -10 Q145 -10 111.5 19 Q78 48 78 106 Q78 122 80.5 140 Q83 158 87 177 L167 507 L210 507 L130 180 Q126 165 124 150 Q122 135 122 119 Q122 74 149.5 51 Q177 28 230 28 Q283 28 336.5 59 Q390 90 440 149 L526 507 L568 507 L445 0 Q355 -34 318 -64 Q281 -94 281 -128 Q281 -150 296.5 -162.5 Q312 -175 340 -175 Q358 -175 379.5 -168 Q401 -161 421 -149 Z " />
<glyph glyph-name="uring" unicode="&#x16f;" horiz-adv-x="567" d="M445 0 L405 0 L432 108 Q384 52 327.5 21 Q271 -10 213 -10 Q146 -10 112 19 Q78 48 78 106 Q78 122 80.5 140 Q83 158 87 177 L168 507 L210 507 L130 180 Q126 163 124 147.5 Q122 132 122 119 Q122 74 149.5 51 Q177 28 230 28 Q283 28 336.5 59 Q390 90 440 149 L526 507 L568 507 L445 0 Z M323 644 Q323 688 356.5 720 Q390 752 436 752 Q466 752 485.5 731.5 Q505 711 505 680 Q505 636 471.5 604 Q438 572 394 572 Q363 572 343 592 Q323 612 323 644 Z M354 648 Q354 626 366.5 613 Q379 600 401 600 Q430 600 452 622.5 Q474 645 474 676 Q474 697 462 710 Q450 723 430 723 Q399 723 376.5 701 Q354 679 354 648 Z " />
<glyph glyph-name="utilde" unicode="&#x169;" horiz-adv-x="567" d="M445 0 L405 0 L432 108 Q384 52 327.5 21 Q271 -10 213 -10 Q146 -10 112 19 Q78 48 78 106 Q78 122 80.5 140 Q83 158 87 177 L168 507 L210 507 L130 180 Q126 163 124 147.5 Q122 132 122 119 Q122 74 149.5 51 Q177 28 230 28 Q283 28 336.5 59 Q390 90 440 149 L526 507 L568 507 L445 0 Z M431 666 Q452 644 464 637.5 Q476 631 488 631 Q512 631 531.5 651 Q551 671 561 706 L594 706 Q579 655 549.5 627 Q520 599 483 599 Q465 599 448.5 607.5 Q432 616 405 642 Q382 665 370 671.5 Q358 678 346 678 Q319 678 298.5 658.5 Q278 639 265 600 L232 600 Q251 654 281 682 Q311 710 351 710 Q370 710 387 701.5 Q404 693 431 666 Z " />
<glyph glyph-name="wacute" unicode="&#x1e83;" horiz-adv-x="809" d="M882 507 L564 0 L525 0 L475 446 L213 0 L176 0 L105 507 L147 507 L208 50 L475 507 L508 507 L557 50 L838 507 L882 507 Z M508 588 L468 588 L604 721 L658 721 L508 588 Z " />
<glyph glyph-name="wcircumflex" unicode="&#x175;" horiz-adv-x="809" d="M882 507 L564 0 L525 0 L475 446 L213 0 L176 0 L105 507 L147 507 L208 50 L475 507 L508 507 L557 50 L838 507 L882 507 Z M647 588 L610 588 L540 695 L415 588 L377 588 L519 721 L569 721 L647 588 Z " />
<glyph glyph-name="wdieresis" unicode="&#x1e85;" horiz-adv-x="809" d="M882 507 L564 0 L525 0 L475 446 L213 0 L176 0 L105 507 L147 507 L208 50 L475 507 L508 507 L557 50 L838 507 L882 507 Z M614 599 L575 599 L607 725 L646 725 L614 599 Z M455 599 L416 599 L447 725 L486 725 L455 599 Z " />
<glyph glyph-name="wgrave" unicode="&#x1e81;" horiz-adv-x="809" d="M882 507 L564 0 L525 0 L475 446 L213 0 L176 0 L105 507 L147 507 L208 50 L475 507 L508 507 L557 50 L838 507 L882 507 Z M440 721 L491 721 L565 588 L525 588 L440 721 Z " />
<glyph glyph-name="yacute" unicode="&#xfd;" horiz-adv-x="511" d="M-22 -218 Q-33 -218 -43 -217 Q-53 -216 -59 -214 L-50 -177 Q-42 -178 -32.5 -179 Q-23 -180 -16 -180 Q34 -180 84.5 -140.5 Q135 -101 191 -18 L203 0 L106 507 L148 507 L234 47 L540 507 L584 507 L226 -25 Q157 -127 97.5 -172.5 Q38 -218 -22 -218 Z M359 588 L319 588 L455 721 L509 721 L359 588 Z " />
<glyph glyph-name="ydieresis" unicode="&#xff;" horiz-adv-x="511" d="M-22 -218 Q-33 -218 -43 -217 Q-53 -216 -59 -214 L-50 -177 Q-42 -178 -32.5 -179 Q-23 -180 -16 -180 Q34 -180 84.5 -140.5 Q135 -101 191 -18 L203 0 L106 507 L148 507 L234 47 L540 507 L584 507 L226 -25 Q157 -127 97.5 -172.5 Q38 -218 -22 -218 Z M464 599 L425 599 L457 725 L496 725 L464 599 Z M305 599 L266 599 L297 725 L336 725 L305 599 Z " />
<glyph glyph-name="ycircumflex" unicode="&#x177;" horiz-adv-x="511" d="M-22 -218 Q-33 -218 -43 -217 Q-53 -216 -59 -214 L-50 -177 Q-42 -178 -32.5 -179 Q-23 -180 -16 -180 Q34 -180 84.5 -140.5 Q135 -101 191 -18 L203 0 L106 507 L148 507 L234 47 L540 507 L584 507 L226 -25 Q157 -127 97.5 -172.5 Q38 -218 -22 -218 Z M497 588 L460 588 L390 695 L265 588 L227 588 L369 721 L419 721 L497 588 Z " />
<glyph glyph-name="ygrave" unicode="&#x1ef3;" horiz-adv-x="511" d="M-22 -218 Q-33 -218 -43 -217 Q-53 -216 -59 -214 L-50 -177 Q-42 -178 -32.5 -179 Q-23 -180 -16 -180 Q34 -180 84.5 -140.5 Q135 -101 191 -18 L203 0 L106 507 L148 507 L234 47 L540 507 L584 507 L226 -25 Q157 -127 97.5 -172.5 Q38 -218 -22 -218 Z M290 721 L341 721 L415 588 L375 588 L290 721 Z " />
<glyph glyph-name="zcaron" unicode="&#x17e;" horiz-adv-x="463" d="M62 37 L403 37 L394 0 L-1 0 L6 31 L448 469 L117 469 L126 507 L512 507 L504 475 L62 37 Z M365 588 L314 588 L237 721 L273 721 L343 614 L469 721 L510 721 L365 588 Z " />
<glyph glyph-name="zacute" unicode="&#x17a;" horiz-adv-x="463" d="M62 37 L403 37 L394 0 L-1 0 L6 31 L448 469 L117 469 L126 507 L512 507 L504 475 L62 37 Z M335 588 L295 588 L431 721 L485 721 L335 588 Z " />
<glyph glyph-name="zdotaccent" unicode="&#x17c;" horiz-adv-x="463" d="M62 37 L403 37 L394 0 L-1 0 L6 31 L448 469 L117 469 L126 507 L512 507 L504 475 L62 37 Z M352 725 L394 725 L363 599 L321 599 L352 725 Z " />
<glyph glyph-name="acute" unicode="&#xb4;" horiz-adv-x="485" d="M343 588 L303 588 L439 721 L493 721 L343 588 Z " />
<glyph glyph-name="grave" unicode="&#x60;" horiz-adv-x="485" d="M278 721 L329 721 L403 588 L363 588 L278 721 Z " />
<glyph glyph-name="circumflex" unicode="&#x2c6;" horiz-adv-x="485" d="M485 588 L448 588 L378 695 L253 588 L215 588 L357 721 L407 721 L485 588 Z " />
<glyph glyph-name="caron" unicode="&#x2c7;" horiz-adv-x="485" d="M376 588 L325 588 L248 721 L284 721 L354 614 L480 721 L521 721 L376 588 Z " />
<glyph glyph-name="tilde" unicode="&#x2dc;" horiz-adv-x="485" d="M385 666 Q406 644 418 637.5 Q430 631 442 631 Q466 631 485.5 651 Q505 671 515 706 L548 706 Q533 655 503.5 627 Q474 599 437 599 Q419 599 402.5 607.5 Q386 616 359 642 Q336 665 324 671.5 Q312 678 300 678 Q273 678 252.5 658.5 Q232 639 219 600 L186 600 Q205 654 235 682 Q265 710 305 710 Q324 710 341 701.5 Q358 693 385 666 Z " />
<glyph glyph-name="dieresis" unicode="&#xa8;" horiz-adv-x="485" d="M452 599 L413 599 L445 725 L484 725 L452 599 Z M293 599 L254 599 L285 725 L324 725 L293 599 Z " />
<glyph glyph-name="ring" unicode="&#x2da;" horiz-adv-x="485" d="M277 644 Q277 688 310.5 720 Q344 752 390 752 Q420 752 439.5 731.5 Q459 711 459 680 Q459 636 425.5 604 Q392 572 348 572 Q317 572 297 592 Q277 612 277 644 Z M308 648 Q308 626 320.5 613 Q333 600 355 600 Q384 600 406 622.5 Q428 645 428 676 Q428 697 416 710 Q404 723 384 723 Q353 723 330.5 701 Q308 679 308 648 Z " />
<glyph glyph-name="cedilla" unicode="&#xb8;" horiz-adv-x="485" d="M256 -112 Q256 -150 225 -174.5 Q194 -199 148 -199 Q122 -199 102 -194 Q82 -189 65 -177 L73 -148 Q96 -162 112.5 -167 Q129 -172 151 -172 Q182 -172 202 -157.5 Q222 -143 222 -118 Q222 -102 210 -94 Q198 -86 174 -86 L128 -86 L173 10 L195 4 L164 -61 L187 -61 Q220 -61 238 -74 Q256 -87 256 -112 Z " />
<glyph glyph-name="hungarumlaut" unicode="&#x2dd;" horiz-adv-x="485" d="M386 588 L348 588 L479 721 L531 721 L386 588 Z M241 588 L203 588 L334 721 L386 721 L241 588 Z " />
<glyph glyph-name="breve" unicode="&#x2d8;" horiz-adv-x="485" d="M362 625 Q407 625 438.5 648 Q470 671 491 718 L525 718 Q503 658 458.5 625 Q414 592 355 592 Q296 592 267 626 Q238 660 246 718 L279 718 Q276 672 297 648.5 Q318 625 362 625 Z " />
<glyph glyph-name="overscore" unicode="&#xaf;" horiz-adv-x="485" d="M503 637 L221 637 L230 674 L512 674 L503 637 Z " />
<glyph glyph-name="dotaccent" unicode="&#x2d9;" horiz-adv-x="485" d="M363 725 L405 725 L374 599 L332 599 L363 725 Z " />
<glyph glyph-name="middot" unicode="&#xb7;" horiz-adv-x="485" d="M199 236 L220 323 L276 323 L256 236 L199 236 Z " />
<glyph glyph-name="ogonek" unicode="&#x2db;" horiz-adv-x="485" d="M179 -128 Q179 -150 194.5 -162.5 Q210 -175 237 -175 Q256 -175 277.5 -168 Q299 -161 318 -149 L311 -180 Q287 -193 266 -199 Q245 -205 220 -205 Q185 -205 162.5 -187 Q140 -169 140 -140 Q140 -98 176.5 -64.5 Q213 -31 316 8 L346 8 Q236 -44 207.5 -70.5 Q179 -97 179 -128 Z " />
<glyph glyph-name="commaaccent" unicode="&#xf6c3;" horiz-adv-x="485" d="M143 -145 L163 -61 L217 -61 L201 -129 Q195 -156 176.5 -179 Q158 -202 133 -215 L123 -203 Q140 -191 151.5 -176 Q163 -161 168 -145 L143 -145 Z " />
<glyph glyph-name="caron.alt" unicode="&#xe189;" horiz-adv-x="485" d="M302 625 L321 710 L376 710 L359 641 Q351 610 333 584 Q315 558 287 539 L278 551 Q295 566 308.5 586 Q322 606 326 625 L302 625 Z " />
<glyph glyph-name="revcommaaccent" unicode="&#xe18a;" horiz-adv-x="485" d="M387 663 L369 587 L314 587 L329 647 Q336 677 354.5 701.5 Q373 726 399 742 L408 730 Q393 719 380 700 Q367 681 362 663 L387 663 Z " />
<glyph glyph-name="period" unicode="&#x2e;" horiz-adv-x="156" d="M15 0 L36 87 L92 87 L71 0 L15 0 Z " />
<glyph glyph-name="comma" unicode="&#x2c;" horiz-adv-x="156" d="M15 0 L36 87 L92 87 L74 15 Q64 -25 39 -57.5 Q14 -90 -26 -114 L-27 -93 Q0 -72 16 -49 Q32 -26 39 0 L15 0 Z " />
<glyph glyph-name="colon" unicode="&#x3a;" horiz-adv-x="189" d="M132 419 L154 506 L210 506 L188 419 L132 419 Z M31 0 L52 87 L108 87 L88 0 L31 0 Z " />
<glyph glyph-name="semicolon" unicode="&#x3b;" horiz-adv-x="189" d="M132 419 L154 506 L210 506 L188 419 L132 419 Z M31 0 L52 87 L108 87 L91 15 Q81 -25 55.5 -57.5 Q30 -90 -10 -114 L-11 -93 Q16 -72 32 -49 Q48 -26 55 0 L31 0 Z " />
<glyph glyph-name="ellipsis" unicode="&#x2026;" horiz-adv-x="486" d="M345 0 L366 87 L422 87 L401 0 L345 0 Z M180 0 L201 87 L257 87 L236 0 L180 0 Z M15 0 L36 87 L92 87 L71 0 L15 0 Z " />
<glyph glyph-name="question" unicode="&#x3f;" horiz-adv-x="437" d="M206 184 L174 184 L211 365 L263 378 Q358 405 404 449 Q450 493 450 557 Q450 603 418.5 631.5 Q387 660 335 660 Q295 660 253 644.5 Q211 629 157 592 L144 625 Q201 665 249.5 682.5 Q298 700 347 700 Q414 700 454.5 663.5 Q495 627 495 567 Q495 490 444.5 436 Q394 382 296 353 L249 340 L206 184 Z M116 0 L138 87 L194 87 L173 0 L116 0 Z " />
<glyph glyph-name="exclam" unicode="&#x21;" horiz-adv-x="279" d="M136 184 L169 358 L248 690 L297 690 L217 358 L165 184 L136 184 Z M78 0 L98 87 L155 87 L134 0 L78 0 Z " />
<glyph glyph-name="questiondown" unicode="&#xbf;" horiz-adv-x="454" d="M385 507 L363 420 L307 420 L328 507 L385 507 Z M295 322 L327 322 L290 142 L238 128 Q143 101 97 57 Q51 13 51 -50 Q51 -96 82.5 -124 Q114 -152 166 -152 Q207 -152 249 -136.5 Q291 -121 345 -85 L357 -118 Q301 -157 252 -174.5 Q203 -192 154 -192 Q86 -192 46 -156 Q6 -120 6 -60 Q6 17 57 70.5 Q108 124 206 153 L252 167 L295 322 Z " />
<glyph glyph-name="exclamdown" unicode="&#xa1;" horiz-adv-x="266" d="M248 507 L227 420 L171 420 L192 507 L248 507 Z M77 -182 L29 -182 L108 148 L160 323 L190 323 L157 148 L77 -182 Z " />
<glyph glyph-name="parenleft" unicode="&#x28;" horiz-adv-x="339" d="M86 192 Q86 336 175 481.5 Q264 627 416 730 L433 712 Q290 602 210.5 464.5 Q131 327 131 190 Q131 103 157 20 Q183 -63 229 -121 L205 -139 Q149 -82 117.5 6.5 Q86 95 86 192 Z " />
<glyph glyph-name="parenright" unicode="&#x29;" horiz-adv-x="339" d="M327 398 Q327 253 238.5 108 Q150 -37 -2 -139 L-18 -121 Q124 -11 203.5 126.5 Q283 264 283 400 Q283 487 257 571 Q231 655 184 712 L208 730 Q264 673 295.5 584 Q327 495 327 398 Z " />
<glyph glyph-name="braceleft" unicode="&#x7b;" horiz-adv-x="354" d="M202 541 Q202 630 268.5 685 Q335 740 449 740 L440 706 Q348 705 296 658.5 Q244 612 244 542 Q244 531 245 518.5 Q246 506 250 483 Q253 460 254 449 Q255 438 255 429 Q255 387 233 354.5 Q211 322 175 307 Q191 298 200 280 Q209 262 209 239 Q209 216 200.5 193 Q192 170 163 130 Q133 87 123.5 61.5 Q114 36 114 9 Q114 -38 148.5 -64.5 Q183 -91 248 -91 L239 -125 Q158 -125 115 -91.5 Q72 -58 72 5 Q72 36 82.5 64 Q93 92 126 137 Q153 174 161.5 194.5 Q170 215 170 236 Q170 262 158 275.5 Q146 289 123 289 L96 289 L104 325 L135 325 Q167 325 190.5 352.5 Q214 380 214 422 Q214 432 213 443.5 Q212 455 208 478 Q204 503 203 516 Q202 529 202 541 Z " />
<glyph glyph-name="braceright" unicode="&#x7d;" horiz-adv-x="354" d="M231 73 Q231 -16 164.5 -70.5 Q98 -125 -15 -125 L-6 -91 Q86 -90 137.5 -44 Q189 2 189 72 Q189 83 188 95.5 Q187 108 183 131 Q180 154 179 165 Q178 176 178 185 Q178 227 200 259.5 Q222 292 259 307 Q243 316 233.5 334 Q224 352 224 375 Q224 398 232.5 421 Q241 444 270 484 Q300 527 309.5 552.5 Q319 578 319 605 Q319 653 284.5 679.5 Q250 706 185 706 L194 740 Q275 740 318 706 Q361 672 361 609 Q361 578 350.5 550 Q340 522 307 477 Q280 440 271.5 419.5 Q263 399 263 378 Q263 352 275 338.5 Q287 325 311 325 L338 325 L329 289 L299 289 Q266 289 242.5 261.5 Q219 234 219 192 Q219 182 220 170.5 Q221 159 225 136 Q229 111 230 98 Q231 85 231 73 Z " />
<glyph glyph-name="bracketleft" unicode="&#x5b;" horiz-adv-x="336" d="M229 -123 L21 -123 L231 740 L439 740 L429 704 L262 704 L71 -87 L239 -87 L229 -123 Z " />
<glyph glyph-name="bracketright" unicode="&#x5d;" horiz-adv-x="336" d="M188 740 L395 740 L185 -123 L-22 -123 L-12 -87 L154 -87 L345 704 L178 704 L188 740 Z " />
<glyph glyph-name="slash" unicode="&#x2f;" horiz-adv-x="358" d="M33 0 L-8 0 L424 691 L466 691 L33 0 Z " />
<glyph glyph-name="backslash" unicode="&#x5c;" horiz-adv-x="358" d="M158 691 L199 691 L298 0 L257 0 L158 691 Z " />
<glyph glyph-name="underscore" unicode="&#x5f;" horiz-adv-x="477" d="M399 -97 L-36 -97 L-29 -61 L407 -61 L399 -97 Z " />
<glyph glyph-name="hyphen" unicode="&#x2d;" horiz-adv-x="378" d="M357 262 L79 262 L88 298 L367 298 L357 262 Z " />
<glyph glyph-name="uni00AD" unicode="&#xad;" horiz-adv-x="378" d="" />
<glyph glyph-name="endash" unicode="&#x2013;" horiz-adv-x="500" d="M473 252 L74 252 L83 288 L482 288 L473 252 Z " />
<glyph glyph-name="emdash" unicode="&#x2014;" horiz-adv-x="1000" d="M962 252 L77 252 L86 288 L971 288 L962 252 Z " />
<glyph glyph-name="brokenbar" unicode="&#xa6;" horiz-adv-x="228" d="M246 770 L284 770 L193 394 L155 394 L246 770 Z M132 296 L170 296 L79 -80 L41 -80 L132 296 Z " />
<glyph glyph-name="bar" unicode="&#x7c;" horiz-adv-x="228" d="M246 770 L284 770 L79 -80 L41 -80 L246 770 Z " />
<glyph glyph-name="guillemotleft" unicode="&#xab;" horiz-adv-x="555" d="M446 45 L288 238 L293 262 L546 455 L561 436 L334 248 L470 64 L446 45 Z M233 45 L75 238 L80 262 L333 455 L347 436 L121 248 L257 64 L233 45 Z " />
<glyph glyph-name="guillemotright" unicode="&#xbb;" horiz-adv-x="555" d="M374 455 L532 262 L526 238 L273 45 L259 64 L487 253 L350 436 L374 455 Z M160 455 L319 262 L313 238 L60 45 L46 64 L273 253 L136 436 L160 455 Z " />
<glyph glyph-name="guilsinglleft" unicode="&#x2039;" horiz-adv-x="341" d="M233 45 L75 238 L80 262 L333 455 L347 436 L121 248 L257 64 L233 45 Z " />
<glyph glyph-name="guilsinglright" unicode="&#x203a;" horiz-adv-x="341" d="M160 455 L319 262 L313 238 L60 45 L46 64 L273 253 L136 436 L160 455 Z " />
<glyph glyph-name="quotesinglbase" unicode="&#x201a;" horiz-adv-x="156" d="M15 0 L36 87 L92 87 L74 14 Q65 -23 39 -50.5 Q13 -78 -26 -93 L-20 -68 Q5 -54 19 -38 Q33 -22 40 0 L15 0 Z " />
<glyph glyph-name="quotedblbase" unicode="&#x201e;" horiz-adv-x="285" d="M144 0 L165 87 L222 87 L204 14 Q194 -23 167.5 -50.5 Q141 -78 102 -93 L109 -68 Q134 -54 148 -38.5 Q162 -23 170 0 L144 0 Z M15 0 L36 87 L92 87 L74 14 Q65 -23 39 -50.5 Q13 -78 -26 -93 L-20 -68 Q5 -54 19 -38 Q33 -22 40 0 L15 0 Z " />
<glyph glyph-name="quoteleft" unicode="&#x2018;" horiz-adv-x="156" d="M219 610 L198 523 L142 523 L160 595 Q169 633 195 660.5 Q221 688 261 703 L254 678 Q230 665 215.5 649 Q201 633 194 610 L219 610 Z " />
<glyph glyph-name="quotedblleft" unicode="&#x201c;" horiz-adv-x="284" d="M348 610 L326 523 L270 523 L288 595 Q298 633 324 660.5 Q350 688 390 703 L383 678 Q359 666 344.5 649.5 Q330 633 322 610 L348 610 Z M219 610 L198 523 L142 523 L160 595 Q169 633 195 660.5 Q221 688 261 703 L254 678 Q230 665 215.5 649 Q201 633 194 610 L219 610 Z " />
<glyph glyph-name="quoteright" unicode="&#x2019;" horiz-adv-x="156" d="M161 602 L182 690 L238 690 L220 617 Q211 579 185 551.5 Q159 524 119 509 L125 534 Q151 548 165 563.5 Q179 579 186 602 L161 602 Z " />
<glyph glyph-name="quotedblright" unicode="&#x201d;" horiz-adv-x="284" d="M289 602 L311 690 L367 690 L349 617 Q339 579 313 551.5 Q287 524 247 509 L254 534 Q279 548 293 563.5 Q307 579 315 602 L289 602 Z M161 602 L182 690 L238 690 L220 617 Q211 579 185 551.5 Q159 524 119 509 L125 534 Q151 548 165 563.5 Q179 579 186 602 L161 602 Z " />
<glyph glyph-name="quotesingle" unicode="&#x27;" horiz-adv-x="122" d="M169 530 L140 530 L173 690 L214 690 L169 530 Z " />
<glyph glyph-name="quotedbl" unicode="&#x22;" horiz-adv-x="249" d="M296 530 L267 530 L300 690 L341 690 L296 530 Z M169 530 L140 530 L173 690 L214 690 L169 530 Z " />
<glyph glyph-name="bullet" unicode="&#x2022;" horiz-adv-x="248" d="M184 394 Q211 394 227.5 377.5 Q244 361 244 334 Q244 295 215.5 267 Q187 239 147 239 Q120 239 103.5 255.5 Q87 272 87 299 Q87 338 116 366 Q145 394 184 394 Z " />
<glyph glyph-name="ampersand" unicode="&#x26;" horiz-adv-x="681" d="M607 17 L573 -10 L498 82 Q440 36 376 13 Q312 -10 242 -10 Q162 -10 110.5 31.5 Q59 73 58 141 Q57 217 106 268 Q155 319 273 363 Q238 407 224 438.5 Q210 470 210 504 Q210 585 271.5 642.5 Q333 700 426 700 Q490 700 528 665 Q566 630 566 573 Q566 505 513 454 Q460 403 335 357 L509 139 Q537 166 563.5 199.5 Q590 233 613 272 L651 260 Q623 215 593.5 178 Q564 141 532 111 L607 17 Z M418 662 Q350 662 302 617.5 Q254 573 254 511 Q254 483 267.5 453 Q281 423 318 378 Q429 422 475.5 465 Q522 508 522 564 Q522 608 493.5 635 Q465 662 418 662 Z M104 153 Q104 97 146.5 63 Q189 29 257 29 Q315 29 370 49.5 Q425 70 476 110 L291 340 Q191 305 147.5 261 Q104 217 104 153 Z " />
<glyph glyph-name="paragraph" unicode="&#xb6;" horiz-adv-x="459" d="M398 658 L239 0 L207 0 L289 338 L271 338 Q210 338 174.5 374.5 Q139 411 139 473 Q139 563 202.5 626.5 Q266 690 356 690 L504 690 L337 0 L306 0 L465 658 L398 658 Z " />
<glyph glyph-name="dagger" unicode="&#x2020;" horiz-adv-x="511" d="M532 458 L521 415 L343 422 L211 -125 L171 -125 L303 422 L122 415 L133 458 L310 451 L368 690 L408 690 L350 451 L532 458 Z " />
<glyph glyph-name="daggerdbl" unicode="&#x2021;" horiz-adv-x="511" d="M456 146 L445 103 L268 110 L211 -125 L171 -125 L228 110 L47 103 L58 146 L235 140 L304 425 L122 418 L133 461 L311 454 L368 690 L408 690 L351 454 L533 461 L522 418 L344 425 L275 140 L456 146 Z " />
<glyph glyph-name="section" unicode="&#xa7;" horiz-adv-x="473" d="M144 361 Q144 330 170 308 Q196 286 274 257 Q292 251 307 244.5 Q322 238 335 232 Q381 251 406 279.5 Q431 308 431 343 Q431 374 405 396 Q379 418 300 447 Q282 453 267 459.5 Q252 466 239 472 Q193 453 168.5 424.5 Q144 396 144 361 Z M405 139 Q405 72 344.5 31 Q284 -10 194 -10 Q149 -10 112.5 0 Q76 10 49 29 L58 70 Q85 49 120.5 38 Q156 27 197 27 Q269 27 314.5 56.5 Q360 86 360 133 Q360 162 337 181.5 Q314 201 243 227 Q158 259 130 285.5 Q102 312 102 352 Q102 393 130 427 Q158 461 213 487 Q190 502 179.5 521 Q169 540 169 565 Q169 632 230 673.5 Q291 715 380 715 Q424 715 460.5 705 Q497 695 525 675 L516 634 Q489 655 453.5 666 Q418 677 377 677 Q305 677 259.5 647.5 Q214 618 214 571 Q214 542 237 522.5 Q260 503 332 477 Q415 447 443.5 419.5 Q472 392 472 352 Q472 310 444 276 Q416 242 362 217 Q384 201 394.5 182 Q405 163 405 139 Z " />
<glyph glyph-name="asterisk" unicode="&#x2a;" horiz-adv-x="383" d="M283 567 L316 719 L348 719 L306 569 L446 626 L452 595 L308 546 L377 430 L347 410 L287 531 L173 414 L150 436 L271 547 L151 595 L172 626 L283 567 Z " />
<glyph glyph-name="trademark" unicode="&#x2122;" horiz-adv-x="597" d="M357 690 L351 662 L266 662 L207 418 L178 418 L237 662 L151 662 L158 690 L357 690 Z M504 540 L642 690 L669 690 L603 418 L575 418 L629 640 L508 510 L486 510 L428 641 L374 418 L344 418 L410 690 L439 690 L504 540 Z " />
<glyph glyph-name="registered" unicode="&#xae;" horiz-adv-x="504" d="M386 700 Q459 700 506.5 650 Q554 600 554 524 Q554 418 472 339.5 Q390 261 281 261 Q208 261 160.5 311 Q113 361 113 437 Q113 543 194.5 621.5 Q276 700 386 700 Z M380 669 Q286 669 215.5 601 Q145 533 145 440 Q145 372 183 331.5 Q221 291 286 291 Q380 291 451 359 Q522 427 522 520 Q522 587 483 628 Q444 669 380 669 Z M364 565 L308 565 L289 486 L344 486 Q370 486 386 499 Q402 512 402 534 Q402 548 391.5 556.5 Q381 565 364 565 Z M398 377 L368 377 L335 463 L283 463 L262 377 L236 377 L287 590 L370 590 Q399 590 414.5 577 Q430 564 430 540 Q430 513 412 493.5 Q394 474 362 467 L398 377 Z " />
<glyph glyph-name="copyright" unicode="&#xa9;" horiz-adv-x="774" d="M518 700 Q637 700 714.5 619 Q792 538 792 416 Q792 332 757.5 254 Q723 176 660 115 Q598 55 519 22.5 Q440 -10 355 -10 Q235 -10 157.5 70.5 Q80 151 80 273 Q80 356 115 434 Q150 512 213 574 Q276 634 355 667 Q434 700 518 700 Z M236 550 Q179 494 147.5 423 Q116 352 116 277 Q116 164 183.5 93.5 Q251 23 361 23 Q437 23 508.5 53 Q580 83 636 138 Q693 193 724 264.5 Q755 336 755 412 Q755 524 687.5 595 Q620 666 511 666 Q436 666 364.5 635.5 Q293 605 236 550 Z M496 529 Q521 529 541 523.5 Q561 518 578 506 L570 473 Q551 485 533 490 Q515 495 490 495 Q415 495 360 440.5 Q305 386 305 311 Q305 258 336 228 Q367 198 423 198 Q444 198 464 203 Q484 208 507 218 L499 186 Q471 173 452.5 169 Q434 165 414 165 Q348 165 308 203.5 Q268 242 268 304 Q268 396 335.5 462.5 Q403 529 496 529 Z " />
<glyph glyph-name="at" unicode="&#x40;" horiz-adv-x="947" d="M423 -170 Q478 -170 538 -158 Q598 -146 664 -122 L669 -154 Q617 -177 548 -190.5 Q479 -204 414 -204 Q248 -204 151.5 -115 Q55 -26 55 126 Q55 232 97 329.5 Q139 427 216 502 Q292 575 390.5 614.5 Q489 654 597 654 Q751 654 844.5 567.5 Q938 481 938 342 Q938 282 922.5 225 Q907 168 877 119 Q840 60 790.5 25 Q741 -10 694 -10 Q653 -10 629.5 14.5 Q606 39 605 82 Q560 37 512 13.5 Q464 -10 413 -10 Q343 -10 302 36.5 Q261 83 261 158 Q261 276 340.5 361.5 Q420 447 528 447 Q575 447 610.5 424.5 Q646 402 666 360 L686 442 L725 442 L652 139 Q647 119 645 107 Q643 95 643 86 Q643 56 658.5 39.5 Q674 23 703 23 Q742 23 781.5 55 Q821 87 851 143 Q874 186 886.5 236 Q899 286 899 334 Q899 463 815.5 541.5 Q732 620 594 620 Q494 620 403 583 Q312 546 242 477 Q171 407 132.5 316.5 Q94 226 94 127 Q94 -12 182.5 -91 Q271 -170 423 -170 Z M430 26 Q479 26 527.5 51.5 Q576 77 608 121 L656 317 Q641 360 606 385 Q571 410 526 410 Q438 410 371 338.5 Q304 267 304 171 Q304 105 338.5 65.5 Q373 26 430 26 Z " />
<glyph glyph-name="ordfeminine" unicode="&#xaa;" horiz-adv-x="385" d="M367 479 L379 530 Q361 548 336 557.5 Q311 567 280 567 Q234 567 203 541 Q172 515 172 476 Q172 449 191.5 432 Q211 415 243 415 Q277 415 307.5 431 Q338 447 367 479 Z M210 638 L218 670 Q243 685 270 692.5 Q297 700 326 700 Q376 700 402 680 Q428 660 428 622 Q428 612 426.5 600.5 Q425 589 421 575 L377 391 L345 391 L359 449 Q330 419 296.5 403 Q263 387 227 387 Q187 387 162 410.5 Q137 434 137 471 Q137 522 179 557 Q221 592 281 592 Q311 592 336 583 Q361 574 385 554 L390 576 Q393 585 394 594 Q395 603 395 612 Q394 641 374 655.5 Q354 670 315 670 Q288 670 262 662 Q236 654 210 638 Z M378 283 L75 283 L82 313 L384 313 L378 283 Z " />
<glyph glyph-name="ordmasculine" unicode="&#xba;" horiz-adv-x="385" d="M253 387 Q200 387 168 419.5 Q136 452 136 506 Q136 588 191 644 Q246 700 326 700 Q379 700 410.5 667.5 Q442 635 442 581 Q442 499 387 443 Q332 387 253 387 Z M319 669 Q258 669 214.5 623 Q171 577 171 511 Q171 468 194.5 443 Q218 418 259 418 Q321 418 364 463.5 Q407 509 407 576 Q407 619 383.5 644 Q360 669 319 669 Z M378 283 L75 283 L82 313 L384 313 L378 283 Z " />
<glyph glyph-name="questiondown.case" unicode="&#xe1f6;" horiz-adv-x="454" d="M426 690 L405 602 L349 602 L370 690 L426 690 Z M337 505 L368 505 L332 324 L280 311 Q184 284 138 240 Q92 196 92 132 Q92 86 123.5 57.5 Q155 29 208 29 Q248 29 290.5 45 Q333 61 386 97 L399 64 Q341 24 293 7 Q245 -10 196 -10 Q128 -10 88 26 Q48 62 48 122 Q48 199 98.5 253 Q149 307 247 336 L294 349 L337 505 Z " />
<glyph glyph-name="exclamdown.case" unicode="&#xe1f7;" horiz-adv-x="266" d="M293 690 L272 602 L215 602 L236 690 L293 690 Z M122 0 L73 0 L153 331 L205 505 L234 505 L201 331 L122 0 Z " />
<glyph glyph-name="parenleft.case" unicode="&#xe1e8;" horiz-adv-x="339" d="M95 231 Q95 376 184 521 Q273 666 425 769 L442 752 Q299 642 219.5 504 Q140 366 140 229 Q140 142 166 58.5 Q192 -25 238 -82 L214 -100 Q158 -43 126.5 46 Q95 135 95 231 Z " />
<glyph glyph-name="parenright.case" unicode="&#xe1e9;" horiz-adv-x="339" d="M337 438 Q337 294 248 148.5 Q159 3 7 -99 L-9 -81 Q133 28 212.5 165.5 Q292 303 292 440 Q292 527 266 611 Q240 695 194 753 L218 770 Q274 713 305.5 624 Q337 535 337 438 Z " />
<glyph glyph-name="braceleft.case" unicode="&#xe1ea;" horiz-adv-x="354" d="M215 580 Q215 669 282 724 Q349 779 462 779 L453 745 Q361 744 309 697.5 Q257 651 257 581 Q257 571 258 559 Q259 547 263 523 Q266 500 267 489 Q268 478 268 468 Q268 426 246.5 394 Q225 362 188 346 Q204 337 213 319 Q222 301 222 279 Q222 256 213.5 233 Q205 210 176 169 Q146 126 136.5 100.5 Q127 75 127 48 Q127 1 161.5 -25 Q196 -51 261 -51 L253 -85 Q171 -85 128 -51.5 Q85 -18 85 44 Q85 75 95.5 103.5 Q106 132 139 177 Q167 214 175 234.5 Q183 255 183 276 Q183 302 171 315.5 Q159 329 136 329 L109 329 L117 364 L148 364 Q181 364 204.5 391.5 Q228 419 228 461 Q228 471 227 482.5 Q226 494 222 517 Q218 542 216.5 555 Q215 568 215 580 Z " />
<glyph glyph-name="braceright.case" unicode="&#xe1eb;" horiz-adv-x="354" d="M242 112 Q242 23 175.5 -31 Q109 -85 -4 -85 L3 -51 Q96 -50 148 -4 Q200 42 200 111 Q200 122 199 134.5 Q198 147 194 170 Q191 193 190 204 Q189 215 189 224 Q189 266 210.5 298.5 Q232 331 269 347 Q253 356 243.5 374 Q234 392 234 414 Q234 438 243 460.5 Q252 483 280 524 Q311 567 320.5 592 Q330 617 330 644 Q330 692 295.5 718.5 Q261 745 196 745 L204 779 Q286 779 329 745.5 Q372 712 372 649 Q372 618 361.5 589.5 Q351 561 318 516 Q290 479 282 458.5 Q274 438 274 417 Q274 391 286 377.5 Q298 364 321 364 L348 364 L340 329 L309 329 Q276 329 252.5 301 Q229 273 229 231 Q229 221 230 210 Q231 199 235 176 Q239 151 240.5 137.5 Q242 124 242 112 Z " />
<glyph glyph-name="bracketleft.case" unicode="&#xe1ec;" horiz-adv-x="336" d="M238 -83 L31 -83 L240 779 L447 779 L439 743 L272 743 L81 -48 L248 -48 L238 -83 Z " />
<glyph glyph-name="bracketright.case" unicode="&#xe1ed;" horiz-adv-x="336" d="M196 779 L404 779 L195 -83 L-12 -83 L-2 -48 L164 -48 L355 743 L187 743 L196 779 Z " />
<glyph glyph-name="hyphen.case" unicode="&#xe1f8;" horiz-adv-x="378" d="M370 313 L92 313 L101 349 L378 349 L370 313 Z " />
<glyph glyph-name="endash.case" unicode="&#xe1ee;" horiz-adv-x="485" d="M481 303 L82 303 L92 339 L489 339 L481 303 Z " />
<glyph glyph-name="emdash.case" unicode="&#xe1ef;" horiz-adv-x="971" d="M966 303 L82 303 L92 339 L975 339 L966 303 Z " />
<glyph glyph-name="guilsinglleft.case" unicode="&#xe1f2;" horiz-adv-x="341" d="M250 117 L92 310 L98 334 L351 527 L365 508 L138 319 L274 136 L250 117 Z " />
<glyph glyph-name="guilsinglright.case" unicode="&#xe1f3;" horiz-adv-x="341" d="M178 527 L336 334 L331 310 L78 117 L63 136 L291 325 L154 508 L178 527 Z " />
<glyph glyph-name="guillemotleft.case" unicode="&#xe1f0;" horiz-adv-x="555" d="M463 117 L304 310 L310 334 L563 527 L577 508 L351 319 L487 136 L463 117 Z M250 117 L91 310 L97 334 L350 527 L364 508 L137 319 L273 136 L250 117 Z " />
<glyph glyph-name="guillemotright.case" unicode="&#xe1f1;" horiz-adv-x="555" d="M390 527 L549 334 L543 310 L290 117 L276 136 L503 325 L366 508 L390 527 Z M177 527 L335 334 L330 310 L77 117 L63 136 L290 325 L153 508 L177 527 Z " />
<glyph glyph-name="bullet.case" unicode="&#xe1f4;" horiz-adv-x="248" d="M197 443 Q224 443 240 426.5 Q256 410 256 383 Q256 344 227 315.5 Q198 287 159 287 Q132 287 115.5 303.5 Q99 320 99 347 Q99 386 128 414.5 Q157 443 197 443 Z " />
<glyph glyph-name="at.case" unicode="&#xe1fb;" horiz-adv-x="922" d="M442 -70 Q497 -70 557 -58 Q617 -46 683 -22 L688 -54 Q636 -77 567 -90.5 Q498 -104 433 -104 Q267 -104 170.5 -15 Q74 74 74 226 Q74 332 116 429.5 Q158 527 235 602 Q311 675 409.5 714.5 Q508 754 616 754 Q770 754 863.5 667.5 Q957 581 957 442 Q957 382 941.5 325 Q926 268 896 219 Q859 160 809.5 125 Q760 90 713 90 Q672 90 648.5 114.5 Q625 139 624 182 Q579 137 531 113.5 Q483 90 432 90 Q362 90 321 136.5 Q280 183 280 258 Q280 376 359.5 461.5 Q439 547 547 547 Q594 547 629.5 524.5 Q665 502 685 460 L705 542 L744 542 L671 239 Q666 219 664 207 Q662 195 662 186 Q662 156 677.5 139.5 Q693 123 722 123 Q761 123 800.5 155 Q840 187 870 243 Q893 286 905.5 336 Q918 386 918 434 Q918 563 834.5 641.5 Q751 720 613 720 Q513 720 422 683 Q331 646 261 577 Q190 507 151.5 416.5 Q113 326 113 227 Q113 88 201.5 9 Q290 -70 442 -70 Z M449 126 Q498 126 546.5 151.5 Q595 177 627 221 L675 417 Q660 460 625 485 Q590 510 545 510 Q457 510 390 438.5 Q323 367 323 271 Q323 205 357.5 165.5 Q392 126 449 126 Z " />
<glyph glyph-name="numbersign" unicode="&#x23;" horiz-adv-x="688" d="M241 248 L428 248 L540 435 L353 435 L241 248 Z M320 0 L280 0 L407 213 L220 213 L92 0 L52 0 L180 213 L52 213 L60 248 L201 248 L313 435 L179 435 L188 470 L334 470 L466 690 L506 690 L374 470 L561 470 L692 690 L732 690 L601 470 L733 470 L724 435 L580 435 L468 248 L604 248 L596 213 L447 213 L320 0 Z " />
<glyph glyph-name="Euro" unicode="&#x20ac;" horiz-adv-x="649" d="M586 72 L575 28 Q528 8 483 -1 Q438 -10 389 -10 Q276 -10 211.5 61 Q147 132 147 255 Q147 258 147 261.5 Q147 265 147 268 L55 268 L67 301 L149 301 Q151 325 155.5 347.5 Q160 370 167 392 L100 392 L111 425 L178 425 Q225 549 329 624.5 Q433 700 559 700 Q608 700 647 690 Q686 680 718 658 L707 615 Q667 639 632.5 648.5 Q598 658 554 658 Q450 658 360 594 Q270 530 226 425 L581 425 L569 392 L214 392 Q207 371 202 348.5 Q197 326 195 301 L535 301 L523 268 L193 268 L193 263 Q193 155 249.5 93 Q306 31 405 31 Q451 31 495 41 Q539 51 586 72 Z " />
<glyph glyph-name="dollar" unicode="&#x24;" horiz-adv-x="522" d="M202 515 Q202 480 222.5 452.5 Q243 425 293 398 L356 657 Q288 648 245 609.5 Q202 571 202 515 Z M428 196 Q428 236 403 267.5 Q378 299 312 335 L238 31 Q322 36 375 81.5 Q428 127 428 196 Z M228 -10 L211 -82 L177 -82 L195 -9 Q149 -7 107 9.5 Q65 26 35 52 L47 98 Q75 70 117 52 Q159 34 204 31 L282 351 Q211 389 183.5 423.5 Q156 458 156 505 Q156 582 215 636.5 Q274 691 366 699 L386 781 L420 781 L400 700 Q445 699 480.5 688 Q516 677 545 655 L534 612 Q503 635 467 647 Q431 659 390 659 L323 382 Q407 339 441 299.5 Q475 260 475 207 Q475 115 405.5 55.5 Q336 -4 228 -10 Z " />
<glyph glyph-name="yen" unicode="&#xa5;" horiz-adv-x="638" d="M553 211 L546 178 L350 178 L307 0 L263 0 L306 178 L109 178 L116 211 L314 211 L334 292 L332 297 L137 297 L145 329 L317 329 L155 690 L202 690 L364 329 L697 690 L749 690 L412 329 L582 329 L575 297 L383 297 L378 292 L358 211 L553 211 Z " />
<glyph glyph-name="sterling" unicode="&#xa3;" horiz-adv-x="528" d="M142 40 L458 40 L448 0 L18 0 L28 40 L45 40 Q132 40 183.5 93.5 Q235 147 235 228 Q235 248 231.5 268.5 Q228 289 221 314 L104 314 L112 347 L211 347 Q196 390 191 416 Q186 442 186 467 Q186 567 260.5 633.5 Q335 700 444 700 Q483 700 511 693 Q539 686 559 671 L548 626 Q530 642 503 650 Q476 658 440 658 Q352 658 291.5 604 Q231 550 231 471 Q231 448 236 423 Q241 398 259 347 L437 347 L429 314 L269 314 Q275 293 278 274 Q281 255 281 236 Q281 169 243.5 116.5 Q206 64 142 40 Z " />
<glyph glyph-name="cent" unicode="&#xa2;" horiz-adv-x="511" d="M450 86 L439 45 Q402 19 355.5 4.5 Q309 -10 259 -10 L242 -82 L209 -82 L227 -8 Q151 2 108.5 54.5 Q66 107 66 188 Q66 317 148.5 409.5 Q231 502 353 514 L374 602 L407 602 L386 516 Q436 516 474 503 Q512 490 536 465 L526 424 Q499 452 462.5 465 Q426 478 377 478 L268 28 Q319 28 360.5 41 Q402 54 450 86 Z M110 195 Q110 128 143 85.5 Q176 43 236 32 L343 475 Q243 461 176.5 381.5 Q110 302 110 195 Z " />
<glyph glyph-name="florin" unicode="&#x192;" horiz-adv-x="515" d="M551 700 Q569 700 583 697 Q597 694 612 687 L602 647 Q591 652 575.5 655.5 Q560 659 545 659 Q494 659 454.5 621.5 Q415 584 382 501 L330 374 L452 374 L440 343 L318 343 L207 64 Q178 -8 136 -44.5 Q94 -81 41 -81 Q25 -81 10.5 -78 Q-4 -75 -19 -69 L-9 -29 Q4 -35 17.5 -37.5 Q31 -40 47 -40 Q84 -40 114 -12.5 Q144 15 166 69 L275 343 L181 343 L193 374 L287 374 L340 505 Q380 603 432.5 651.5 Q485 700 551 700 Z " />
<glyph glyph-name="currency" unicode="&#xa4;" horiz-adv-x="582" d="M522 152 L494 129 L434 210 Q403 190 368 180 Q333 170 298 170 Q264 170 235.5 181.5 Q207 193 187 215 L84 129 L68 151 L171 237 Q161 254 155.5 275.5 Q150 297 150 321 Q150 369 169.5 413.5 Q189 458 226 492 L168 572 L196 595 L255 516 Q286 538 321.5 549 Q357 560 394 560 Q429 560 458 548 Q487 536 507 513 L606 595 L623 573 L523 491 Q534 471 539 448 Q544 425 543 399 Q541 351 520 307.5 Q499 264 463 232 L522 152 Z M507 400 Q507 457 474 490.5 Q441 524 385 524 Q305 524 246 466 Q187 408 187 328 Q187 273 219.5 239.5 Q252 206 307 206 Q390 206 448.5 262.5 Q507 319 507 400 Z " />
<glyph glyph-name="zero" unicode="0" horiz-adv-x="657" d="M297 -10 Q198 -10 142 55.5 Q86 121 86 235 Q86 321 110.5 402 Q135 483 180 547 Q232 621 303.5 660.5 Q375 700 457 700 Q556 700 612.5 635 Q669 570 669 456 Q669 369 644.5 288.5 Q620 208 575 144 Q523 70 451 30 Q379 -10 297 -10 Z M544 173 Q582 231 602.5 302 Q623 373 623 448 Q623 547 577 602.5 Q531 658 449 658 Q379 658 317.5 621.5 Q256 585 211 517 Q173 460 152.5 388.5 Q132 317 132 243 Q132 143 177.5 87 Q223 31 305 31 Q375 31 436.5 68 Q498 105 544 173 Z " />
<glyph glyph-name="one" unicode="1" horiz-adv-x="316" d="M151 612 L312 690 L352 690 L185 0 L141 0 L297 643 L140 569 L151 612 Z " />
<glyph glyph-name="two" unicode="2" horiz-adv-x="525" d="M383 658 Q338 658 287.5 643.5 Q237 629 183 601 L194 647 Q243 673 294.5 686.5 Q346 700 395 700 Q472 700 515.5 663.5 Q559 627 559 564 Q559 502 520.5 449 Q482 396 371 318 L217 211 Q146 160 109.5 120 Q73 80 62 40 L454 40 L444 0 L2 0 L6 16 Q20 73 65 128 Q110 183 188 238 L335 340 Q446 418 479.5 462.5 Q513 507 513 556 Q513 603 478.5 630.5 Q444 658 383 658 Z " />
<glyph glyph-name="three" unicode="3" horiz-adv-x="530" d="M202 -10 Q146 -10 100 3.5 Q54 17 18 43 L29 86 Q66 59 111 45 Q156 31 206 31 Q308 31 378.5 85.5 Q449 140 449 222 Q449 276 410 307.5 Q371 339 306 339 L208 339 L217 377 L314 377 Q395 377 455 426 Q515 475 515 545 Q515 597 474.5 627.5 Q434 658 365 658 Q315 658 264 643.5 Q213 629 165 601 L176 646 Q225 673 275 686.5 Q325 700 377 700 Q461 700 510.5 661 Q560 622 560 556 Q560 487 511 432 Q462 377 387 357 Q436 345 465 310.5 Q494 276 494 227 Q494 124 410.5 57 Q327 -10 202 -10 Z " />
<glyph glyph-name="four" unicode="4" horiz-adv-x="554" d="M467 690 L515 690 L106 197 L394 197 L432 354 L480 378 L436 197 L527 197 L517 157 L425 157 L387 0 L346 0 L384 157 L46 157 L55 195 L467 690 Z " />
<glyph glyph-name="five" unicode="5" horiz-adv-x="550" d="M228 -10 Q171 -10 122.5 3 Q74 16 34 41 L46 87 Q85 59 131.5 45 Q178 31 232 31 Q336 31 405 92.5 Q474 154 474 247 Q474 311 431 347 Q388 383 310 383 Q274 383 231 377.5 Q188 372 138 360 L230 690 L567 690 L558 649 L260 649 L192 405 Q224 412 262 416.5 Q300 421 328 421 Q420 421 470.5 377 Q521 333 521 255 Q521 140 437.5 65 Q354 -10 228 -10 Z " />
<glyph glyph-name="six" unicode="6" horiz-adv-x="582" d="M389 442 Q470 442 516.5 395.5 Q563 349 563 270 Q563 154 477 72 Q391 -10 270 -10 Q179 -10 129.5 51 Q80 112 80 222 Q80 301 110.5 387.5 Q141 474 194 543 Q252 619 327.5 659.5 Q403 700 488 700 Q511 700 531 697 Q551 694 570 688 L559 645 Q541 651 521 654.5 Q501 658 481 658 Q360 658 266.5 566 Q173 474 138 331 Q192 384 257.5 413 Q323 442 389 442 Z M124 227 Q124 132 163 81.5 Q202 31 276 31 Q375 31 445.5 98.5 Q516 166 516 263 Q516 328 477 366 Q438 404 368 404 Q306 404 245 375 Q184 346 129 290 Q126 271 125 255.5 Q124 240 124 227 Z " />
<glyph glyph-name="seven" unicode="7" horiz-adv-x="491" d="M48 0 L534 649 L157 649 L167 690 L591 690 L583 653 L98 0 L48 0 Z " />
<glyph glyph-name="eight" unicode="8" horiz-adv-x="580" d="M550 215 Q550 120 466 55 Q382 -10 260 -10 Q167 -10 110 32 Q53 74 53 141 Q53 218 108.5 274 Q164 330 286 370 Q231 392 202.5 427 Q174 462 174 508 Q174 586 246.5 643 Q319 700 421 700 Q501 700 547.5 663 Q594 626 594 565 Q594 503 541 454 Q488 405 389 372 L409 363 Q486 330 518 295 Q550 260 550 215 Z M220 515 Q220 479 243.5 451.5 Q267 424 316 403 L353 387 Q453 422 500 463.5 Q547 505 547 555 Q547 603 510 631.5 Q473 660 410 660 Q335 660 277.5 616 Q220 572 220 515 Z M101 152 Q101 97 147.5 63 Q194 29 269 29 Q364 29 434 80 Q504 131 504 205 Q504 245 477 273 Q450 301 386 328 L326 353 Q209 318 155 269 Q101 220 101 152 Z " />
<glyph glyph-name="nine" unicode="9" horiz-adv-x="587" d="M163 426 Q163 359 202.5 321 Q242 283 313 283 Q375 283 437 313 Q499 343 555 400 Q558 418 559.5 435.5 Q561 453 561 469 Q561 558 519.5 608 Q478 658 404 658 Q302 658 232.5 591 Q163 524 163 426 Z M490 149 Q430 72 352.5 31.5 Q275 -9 187 -9 Q166 -9 145.5 -6 Q125 -3 100 3 L110 46 Q129 39 151 35 Q173 31 194 31 Q317 31 412.5 121.5 Q508 212 545 355 Q491 304 425 275 Q359 246 295 246 Q213 246 164.5 293 Q116 340 116 419 Q116 537 202 618.5 Q288 700 413 700 Q503 700 554.5 640 Q606 580 606 477 Q606 394 575 306.5 Q544 219 490 149 Z " />
<glyph glyph-name="degree" unicode="&#xb0;" horiz-adv-x="337" d="M410 588 Q410 519 358.5 470 Q307 421 237 421 Q187 421 157.5 450.5 Q128 480 128 529 Q128 599 179.5 649.5 Q231 700 302 700 Q351 700 380.5 669 Q410 638 410 588 Z M377 583 Q377 622 354.5 645.5 Q332 669 294 669 Q241 669 201.5 629.5 Q162 590 162 536 Q162 498 184 474.5 Q206 451 243 451 Q296 451 336.5 490.5 Q377 530 377 583 Z " />
<glyph glyph-name="percent" unicode="&#x25;" horiz-adv-x="877" d="M236 303 Q180 303 148 340 Q116 377 116 442 Q116 546 178 623 Q240 700 328 700 Q384 700 416 662.5 Q448 625 448 561 Q448 454 386.5 378.5 Q325 303 236 303 Z M243 336 Q313 336 361.5 401.5 Q410 467 410 555 Q410 607 386.5 636 Q363 665 321 665 Q253 665 204 599.5 Q155 534 155 446 Q155 393 177.5 364.5 Q200 336 243 336 Z M238 0 L196 0 L742 690 L783 690 L238 0 Z M646 -3 Q590 -3 558 34 Q526 71 526 136 Q526 240 588 317 Q650 394 738 394 Q794 394 826 356.5 Q858 319 858 255 Q858 148 796.5 72.5 Q735 -3 646 -3 Z M653 30 Q723 30 771.5 95.5 Q820 161 820 249 Q820 301 796.5 330 Q773 359 731 359 Q663 359 614 293.5 Q565 228 565 140 Q565 87 587.5 58.5 Q610 30 653 30 Z " />
<glyph glyph-name="perthousand" unicode="&#x2030;" horiz-adv-x="1267" d="M236 303 Q180 303 148 340 Q116 377 116 442 Q116 546 178 623 Q240 700 328 700 Q384 700 416 662.5 Q448 625 448 561 Q448 454 386.5 378.5 Q325 303 236 303 Z M243 336 Q313 336 361.5 401.5 Q410 467 410 555 Q410 607 386.5 636 Q363 665 321 665 Q253 665 204 599.5 Q155 534 155 446 Q155 393 177.5 364.5 Q200 336 243 336 Z M238 0 L196 0 L742 690 L783 690 L238 0 Z M646 -3 Q590 -3 558 34 Q526 71 526 136 Q526 240 588 317 Q650 394 738 394 Q794 394 826 356.5 Q858 319 858 255 Q858 148 796.5 72.5 Q735 -3 646 -3 Z M653 30 Q723 30 771.5 95.5 Q820 161 820 249 Q820 301 796.5 330 Q773 359 731 359 Q663 359 614 293.5 Q565 228 565 140 Q565 87 587.5 58.5 Q610 30 653 30 Z M1036 -3 Q980 -3 948 34 Q916 71 916 136 Q916 240 978 317 Q1040 394 1128 394 Q1184 394 1216 356.5 Q1248 319 1248 255 Q1248 148 1186.5 72.5 Q1125 -3 1036 -3 Z M1043 30 Q1113 30 1161.5 95.5 Q1210 161 1210 249 Q1210 301 1186.5 330 Q1163 359 1121 359 Q1053 359 1004 293.5 Q955 228 955 140 Q955 87 977.5 58.5 Q1000 30 1043 30 Z " />
<glyph glyph-name="fraction" unicode="&#x2044;" horiz-adv-x="94" d="M-153 0 L-195 0 L351 690 L392 690 L-153 0 Z " />
<glyph glyph-name="uni2215" unicode="&#x2215;" horiz-adv-x="94" d="M-153 0 L-195 0 L351 690 L392 690 L-153 0 Z " />
<glyph glyph-name="zerosuperior" unicode="&#x2070;" horiz-adv-x="391" d="M236 303 Q180 303 148 340 Q116 377 116 442 Q116 546 178 623 Q240 700 328 700 Q384 700 416 662.5 Q448 625 448 561 Q448 454 386.5 378.5 Q325 303 236 303 Z M243 336 Q313 336 361.5 401.5 Q410 467 410 555 Q410 607 386.5 636 Q363 665 321 665 Q253 665 204 599.5 Q155 534 155 446 Q155 393 177.5 364.5 Q200 336 243 336 Z " />
<glyph glyph-name="onesuperior" unicode="&#xb9;" horiz-adv-x="391" d="M243 652 L330 694 L364 694 L271 306 L234 306 L318 655 L234 616 L243 652 Z " />
<glyph glyph-name="twosuperior" unicode="&#xb2;" horiz-adv-x="391" d="M313 665 Q285 665 257 657 Q229 649 202 632 L211 671 Q240 685 268.5 692.5 Q297 700 324 700 Q368 700 393 679 Q418 658 418 622 Q418 586 396 555.5 Q374 525 313 483 L233 427 Q196 401 178 381 Q160 361 154 341 L362 341 L354 308 L105 308 L108 320 Q116 354 141 385.5 Q166 417 208 447 L288 503 Q342 540 361 563.5 Q380 587 380 612 Q380 637 362.5 651 Q345 665 313 665 Z " />
<glyph glyph-name="threesuperior" unicode="&#xb3;" horiz-adv-x="391" d="M215 303 Q182 303 156 309.5 Q130 316 111 329 L120 366 Q141 351 165 344 Q189 337 218 337 Q272 337 307.5 364 Q343 391 343 432 Q343 460 323 476 Q303 492 269 492 L214 492 L221 521 L275 521 Q319 521 349.5 545.5 Q380 570 380 607 Q380 634 359 649.5 Q338 665 302 665 Q276 665 247 657 Q218 649 189 633 L199 669 Q226 684 254.5 692 Q283 700 313 700 Q361 700 389.5 677.5 Q418 655 418 617 Q418 579 395.5 551.5 Q373 524 328 507 Q354 495 367 476.5 Q380 458 380 434 Q380 376 332 339.5 Q284 303 215 303 Z " />
<glyph glyph-name="foursuperior" unicode="&#x2074;" horiz-adv-x="391" d="M340 693 L378 693 L154 422 L304 422 L323 499 L361 519 L337 422 L402 422 L395 389 L330 389 L310 307 L277 307 L297 389 L108 389 L115 421 L340 693 Z " />
<glyph glyph-name="onehalf" unicode="&#xbd;" horiz-adv-x="877" d="M243 652 L330 694 L364 694 L271 306 L234 306 L318 655 L234 616 L243 652 Z M229 0 L187 0 L733 690 L774 690 L229 0 Z M723 359 Q695 359 667 351 Q639 343 612 326 L621 365 Q650 379 678.5 386.5 Q707 394 734 394 Q778 394 803 373 Q828 352 828 316 Q828 280 806 249.5 Q784 219 723 177 L643 121 Q606 95 588 75 Q570 55 564 35 L772 35 L764 2 L515 2 L518 14 Q526 48 551 79.5 Q576 111 618 141 L698 197 Q752 234 771 257.5 Q790 281 790 306 Q790 331 772.5 345 Q755 359 723 359 Z " />
<glyph glyph-name="onequarter" unicode="&#xbc;" horiz-adv-x="877" d="M243 652 L330 694 L364 694 L271 306 L234 306 L318 655 L234 616 L243 652 Z M238 0 L196 0 L742 690 L783 690 L238 0 Z M750 387 L788 387 L564 116 L714 116 L733 193 L771 213 L747 116 L812 116 L805 83 L740 83 L720 1 L687 1 L707 83 L518 83 L525 115 L750 387 Z " />
<glyph glyph-name="threequarters" unicode="&#xbe;" horiz-adv-x="877" d="M215 303 Q182 303 156 309.5 Q130 316 111 329 L120 366 Q141 351 165 344 Q189 337 218 337 Q272 337 307.5 364 Q343 391 343 432 Q343 460 323 476 Q303 492 269 492 L214 492 L221 521 L275 521 Q319 521 349.5 545.5 Q380 570 380 607 Q380 634 359 649.5 Q338 665 302 665 Q276 665 247 657 Q218 649 189 633 L199 669 Q226 684 254.5 692 Q283 700 313 700 Q361 700 389.5 677.5 Q418 655 418 617 Q418 579 395.5 551.5 Q373 524 328 507 Q354 495 367 476.5 Q380 458 380 434 Q380 376 332 339.5 Q284 303 215 303 Z M253 0 L211 0 L757 690 L798 690 L253 0 Z M750 387 L788 387 L564 116 L714 116 L733 193 L771 213 L747 116 L812 116 L805 83 L740 83 L720 1 L687 1 L707 83 L518 83 L525 115 L750 387 Z " />
<glyph glyph-name="plus" unicode="&#x2b;" horiz-adv-x="546" d="M399 583 L343 358 L552 358 L543 322 L336 322 L281 97 L243 97 L298 322 L89 322 L98 358 L306 358 L361 583 L399 583 Z " />
<glyph glyph-name="minus" unicode="&#x2212;" horiz-adv-x="546" d="M89 322 L98 358 L552 358 L543 322 L89 322 Z " />
<glyph glyph-name="multiply" unicode="&#xd7;" horiz-adv-x="546" d="M208 523 L323 365 L516 524 L536 498 L343 337 L459 179 L428 156 L312 314 L121 155 L102 182 L292 341 L178 499 L208 523 Z " />
<glyph glyph-name="divide" unicode="&#xf7;" horiz-adv-x="546" d="M325 482 L346 566 L400 566 L378 482 L325 482 Z M89 322 L98 358 L552 358 L543 322 L89 322 Z M236 113 L256 198 L310 198 L290 113 L236 113 Z " />
<glyph glyph-name="equal" unicode="&#x3d;" horiz-adv-x="546" d="M109 400 L117 436 L570 436 L561 400 L109 400 Z M72 249 L81 285 L534 285 L525 249 L72 249 Z " />
<glyph glyph-name="logicalnot" unicode="&#xac;" horiz-adv-x="546" d="M89 322 L98 358 L552 358 L488 94 L450 94 L505 322 L89 322 Z " />
<glyph glyph-name="asciitilde" unicode="&#x7e;" horiz-adv-x="546" d="M91 328 L101 366 Q153 386 172.5 389.5 Q192 393 213 393 Q234 393 257 389 Q280 385 325 371 Q370 357 393.5 352.5 Q417 348 439 348 Q464 348 493 356.5 Q522 365 557 383 L548 343 Q505 322 480 316 Q455 310 429 310 Q406 310 382 314.5 Q358 319 313 333 Q270 347 248 351 Q226 355 205 355 Q183 355 161 350.5 Q139 346 91 328 Z " />
<glyph glyph-name="less" unicode="&#x3c;" horiz-adv-x="546" d="M89 320 L100 363 L609 592 L598 548 L136 340 L497 134 L487 90 L89 320 Z " />
<glyph glyph-name="greater" unicode="&#x3e;" horiz-adv-x="546" d="M505 343 L145 548 L156 592 L553 363 L543 320 L34 90 L44 134 L505 343 Z " />
<glyph glyph-name="plusminus" unicode="&#xb1;" horiz-adv-x="546" d="M398 591 L345 372 L555 372 L547 336 L336 336 L281 112 L244 112 L298 336 L93 336 L102 372 L307 372 L360 591 L398 591 Z M12 0 L21 35 L473 35 L465 0 L12 0 Z " />
<glyph glyph-name="asciicircum" unicode="&#x5e;" horiz-adv-x="546" d="M131 250 L89 250 L395 690 L431 690 L524 250 L484 250 L404 646 L131 250 Z " />
<glyph glyph-name="notequal" unicode="&#x2260;" horiz-adv-x="546" d="M534 285 L525 249 L274 249 L160 85 L122 85 L236 249 L72 249 L81 285 L261 285 L341 400 L109 400 L117 436 L366 436 L484 605 L522 605 L404 436 L570 436 L561 400 L379 400 L299 285 L534 285 Z " />
<glyph glyph-name="approxequal" unicode="&#x2248;" horiz-adv-x="546" d="M109 403 L119 442 Q165 460 187 464 Q209 468 232 468 Q252 468 275 464 Q298 460 343 446 Q389 432 412.5 427.5 Q436 423 457 423 Q481 423 508.5 431 Q536 439 576 459 L567 419 Q521 398 497 392 Q473 386 448 386 Q425 386 400.5 390.5 Q376 395 331 409 Q288 423 265.5 427 Q243 431 223 431 Q203 431 182 427 Q161 423 109 403 Z M73 253 L82 291 Q138 312 156.5 315 Q175 318 195 318 Q215 318 238 314 Q261 310 306 296 Q352 282 375.5 277.5 Q399 273 420 273 Q446 273 475 281.5 Q504 290 539 308 L530 268 Q487 248 462 241.5 Q437 235 411 235 Q388 235 363.5 239.5 Q339 244 294 258 Q251 272 228.5 276 Q206 280 186 280 Q169 280 151 277 Q133 274 73 253 Z " />
<glyph glyph-name="lessequal" unicode="&#x2264;" horiz-adv-x="546" d="M94 338 L105 382 L610 596 L599 554 L142 358 L504 164 L494 122 L94 338 Z M12 0 L21 35 L473 35 L465 0 L12 0 Z " />
<glyph glyph-name="greaterequal" unicode="&#x2265;" horiz-adv-x="546" d="M146 554 L157 596 L558 382 L547 338 L42 122 L52 164 L510 361 L146 554 Z M12 0 L21 35 L473 35 L465 0 L12 0 Z " />
<glyph glyph-name="infinity" unicode="&#x221e;" horiz-adv-x="767" d="M93 288 Q93 362 146.5 413.5 Q200 465 277 465 Q325 465 361 438.5 Q397 412 432 341 Q492 407 542.5 436 Q593 465 645 465 Q695 465 726 432.5 Q757 400 757 349 Q757 274 702.5 223 Q648 172 567 172 Q519 172 482 201.5 Q445 231 420 288 Q368 230 317 201 Q266 172 216 172 Q160 172 126.5 204 Q93 236 93 288 Z M634 431 Q589 431 541 402 Q493 373 443 317 Q470 256 500 230.5 Q530 205 572 205 Q633 205 676.5 245 Q720 285 720 343 Q720 383 696.5 407 Q673 431 634 431 Z M273 431 Q214 431 172.5 391 Q131 351 131 295 Q131 256 157.5 230.5 Q184 205 224 205 Q268 205 313.5 232 Q359 259 407 314 Q380 373 346.5 402 Q313 431 273 431 Z " />
<glyph glyph-name="lozenge" unicode="&#x25ca;" horiz-adv-x="493" d="M397 690 L505 346 L230 0 L192 0 L86 346 L359 690 L397 690 Z M220 41 L462 346 L370 648 L128 346 L220 41 Z " />
<glyph glyph-name="radical" unicode="&#x221a;" horiz-adv-x="516" d="M639 726 L203 0 L164 0 L124 274 L59 274 L68 314 L159 314 L194 49 L606 740 L639 726 Z " />
<glyph glyph-name="integral" unicode="&#x222b;" horiz-adv-x="509" d="M576 750 Q591 750 605 747 Q619 744 633 737 L624 697 Q613 702 597 705.5 Q581 709 566 709 Q515 709 475 670 Q435 631 403 551 L164 -64 Q135 -138 94.5 -174 Q54 -210 -1 -210 Q-17 -210 -32.5 -207 Q-48 -204 -62 -198 L-51 -158 Q-37 -164 -24 -166.5 Q-11 -169 4 -169 Q42 -169 73 -141 Q104 -113 124 -59 L363 553 Q402 654 454 702 Q506 750 576 750 Z " />
<glyph glyph-name="partialdiff" unicode="&#x2202;" horiz-adv-x="602" d="M553 397 Q549 483 509.5 566.5 Q470 650 403 712 L432 740 Q510 671 552 577 Q594 483 594 378 Q594 300 572 232 Q550 164 508 112 Q462 54 397.5 22 Q333 -10 262 -10 Q175 -10 121 47 Q67 104 67 195 Q67 258 91 316 Q115 374 159 419 Q204 465 262 490.5 Q320 516 381 516 Q445 516 488 486 Q531 456 553 397 Z M380 476 Q275 476 193.5 394.5 Q112 313 112 203 Q112 125 156 76.5 Q200 28 270 28 Q376 28 457.5 113.5 Q539 199 539 309 Q539 385 495 430.5 Q451 476 380 476 Z " />
<glyph glyph-name="product" unicode="&#x220f;" horiz-adv-x="702" d="M24 -150 L228 690 L739 690 L535 -150 L491 -150 L685 649 L262 649 L68 -150 L24 -150 Z " />
<glyph glyph-name="pi" unicode="&#x3c0;" horiz-adv-x="696" d="M511 -10 Q477 -10 459 9.5 Q441 29 441 64 Q441 76 442.5 88 Q444 100 448 114 L533 470 L361 470 L212 0 L172 0 L321 470 L251 470 Q202 470 176.5 445.5 Q151 421 151 375 Q151 367 151.5 355.5 Q152 344 153 335 L118 335 Q116 345 115 357.5 Q114 370 114 378 Q114 442 151.5 474.5 Q189 507 262 507 L730 507 L721 470 L574 470 L489 118 Q485 96 484 88.5 Q483 81 483 73 Q483 50 494 38.5 Q505 27 527 27 Q541 27 558.5 33.5 Q576 40 588 50 L599 21 Q580 6 556.5 -2 Q533 -10 511 -10 Z " />
<glyph glyph-name="mu" unicode="&#xb5;" horiz-adv-x="642" d="M448 107 Q400 53 337 21.5 Q274 -10 211 -10 Q174 -10 148 2 Q122 14 107 38 L50 -200 L7 -200 L179 507 L222 507 L141 170 Q137 154 135 139.5 Q133 125 133 117 Q133 74 159 51.5 Q185 29 233 29 Q293 29 352 60.5 Q411 92 458 148 L545 507 L588 507 L492 115 Q489 101 488 92.5 Q487 84 487 77 Q487 52 497.5 39.5 Q508 27 530 27 Q544 27 560 32.5 Q576 38 589 48 L600 20 Q581 6 559 -2 Q537 -10 514 -10 Q480 -10 461.5 9 Q443 28 443 62 Q443 72 444 83 Q445 94 448 107 Z " />
<glyph glyph-name="summation" unicode="&#x2211;" horiz-adv-x="516" d="M-24 -115 L316 253 L162 655 L171 690 L614 690 L604 649 L215 649 L368 253 L34 -109 L420 -109 L410 -150 L-32 -150 L-24 -115 Z " />
<glyph glyph-name="Omega" unicode="&#x2126;" horiz-adv-x="765" d="M30 0 L39 38 L246 38 Q172 73 132.5 137 Q93 201 93 284 Q93 367 125 443 Q157 519 216 578 Q275 636 351.5 668 Q428 700 510 700 Q629 700 702.5 626 Q776 552 776 434 Q776 300 697 196.5 Q618 93 474 38 L675 38 L665 0 L402 0 L412 38 Q562 93 646 194 Q730 295 730 424 Q730 529 667 593.5 Q604 658 501 658 Q430 658 362.5 628.5 Q295 599 243 545 Q192 492 164.5 424.5 Q137 357 137 283 Q137 198 181 135.5 Q225 73 308 38 L299 0 L30 0 Z " />
<glyph glyph-name="uni03A9" unicode="&#x3a9;" horiz-adv-x="765" d="M30 0 L39 38 L246 38 Q172 73 132.5 137 Q93 201 93 284 Q93 367 125 443 Q157 519 216 578 Q275 636 351.5 668 Q428 700 510 700 Q629 700 702.5 626 Q776 552 776 434 Q776 300 697 196.5 Q618 93 474 38 L675 38 L665 0 L402 0 L412 38 Q562 93 646 194 Q730 295 730 424 Q730 529 667 593.5 Q604 658 501 658 Q430 658 362.5 628.5 Q295 599 243 545 Q192 492 164.5 424.5 Q137 357 137 283 Q137 198 181 135.5 Q225 73 308 38 L299 0 L30 0 Z " />
<glyph glyph-name="increment" unicode="&#x2206;" horiz-adv-x="673" d="M489 690 L622 0 L-16 0 L449 690 L489 690 Z M456 634 L57 40 L568 40 L456 634 Z " />
<glyph glyph-name="uni0394" unicode="&#x394;" horiz-adv-x="673" d="M489 690 L622 0 L-16 0 L449 690 L489 690 Z M456 634 L57 40 L568 40 L456 634 Z " />
<glyph glyph-name="uni2113" unicode="&#x2113;" horiz-adv-x="504" d="M214 -10 Q161 -10 132.5 22 Q104 54 104 114 Q104 138 106 157.5 Q108 177 112 196 Q105 192 96.5 188 Q88 184 71 176 Q52 167 42.5 162 Q33 157 25 153 L19 182 Q30 187 43.5 193.5 Q57 200 82 214 Q97 222 105 226 Q113 230 119 233 Q140 317 174 397 Q208 477 251 545 Q312 642 379 696 Q446 750 505 750 Q542 750 562.5 725.5 Q583 701 583 659 Q583 550 480.5 444.5 Q378 339 155 218 Q152 211 148 180 Q144 149 144 123 Q144 76 165.5 50.5 Q187 25 227 25 Q266 25 304.5 51 Q343 77 376 125 L399 107 Q362 50 314.5 20 Q267 -10 214 -10 Z M543 649 Q543 680 530.5 697 Q518 714 495 714 Q416 714 317 575.5 Q218 437 167 258 Q355 361 449 459 Q543 557 543 649 Z " />
<glyph glyph-name="estimated" unicode="&#x212e;" horiz-adv-x="824" d="M793 311 L793 302 L210 302 Q207 302 206 301 Q205 300 205 298 L205 122 Q205 116 207 111 Q209 106 213 102 Q257 56 314 31 Q371 6 434 6 Q501 6 561 34 Q621 62 666 113 L718 113 Q667 54 592 20.5 Q517 -13 433 -13 Q284 -13 178.5 82 Q73 177 73 311 Q73 445 178.5 540 Q284 635 433 635 Q582 635 687.5 540 Q793 445 793 311 Z M661 325 L661 503 Q661 509 659 514.5 Q657 520 652 524 Q608 568 551.5 592 Q495 616 434 616 Q372 616 315 591.5 Q258 567 214 521 Q209 516 207 511 Q205 506 205 499 L205 325 Q205 323 206.5 321.5 Q208 320 210 320 L657 320 Q659 320 660 321.5 Q661 323 661 325 Z " />
<glyph glyph-name="heart" unicode="&#x2665;" horiz-adv-x="602" d="M206 500 Q236 500 262 482.5 Q288 465 304 435 L312 435 Q328 465 354 482.5 Q380 500 410 500 Q453 500 481 470.5 Q509 441 509 395 Q509 329 452.5 254.5 Q396 180 308 135 Q220 180 163.5 254.5 Q107 329 107 395 Q107 441 135 470.5 Q163 500 206 500 Z " />
</font>
</svg>
