<?xml version="1.0" encoding="UTF-8"?>
<svg xmlns="http://www.w3.org/2000/svg" xmlns:xlink="http://www.w3.org/1999/xlink" version="1.2" >
<font id="RCI Hr Regular">
<font-face  font-family="RCI" units-per-em="1000" ascent="980" descent="-322" font-style="normal" font-weight="100" font-stretch="normal" cap-height="700" x-height="505" underline-position="-100" underline-thickness="50" />
<missing-glyph  horiz-adv-x="602" d="M199 500 Q229 500 255 482.5 Q281 465 297 435 L305 435 Q321 465 347 482.5 Q373 500 403 500 Q446 500 474 470.5 Q502 441 502 395 Q502 329 445.5 254.5 Q389 180 301 135 Q213 180 156.5 254.5 Q100 329 100 395 Q100 441 128 470.5 Q156 500 199 500 Z " />
<glyph glyph-name="null" d="" />
<glyph glyph-name="CR" unicode="&#xd;" d="" />
<glyph glyph-name="space" unicode="&#x20;" horiz-adv-x="270" d="" />
<glyph glyph-name="uni00A0" unicode="&#xa0;" horiz-adv-x="270" d="" />
<glyph glyph-name="A" unicode="A" horiz-adv-x="680" d="M543 211 L339 666 L137 211 L543 211 Z M660 0 L637 0 L552 190 L127 190 L43 0 L20 0 L328 690 L350 690 L660 0 Z " />
<glyph glyph-name="B" unicode="B" horiz-adv-x="669" d="M105 0 L105 690 L342 690 Q444 690 501.5 646.5 Q559 603 559 525 Q559 467 528.5 426.5 Q498 386 441 367 Q512 352 550.5 305 Q589 258 589 188 Q589 98 529 49 Q469 0 358 0 L105 0 Z M536 525 Q536 592 485 630.5 Q434 669 344 669 L127 669 L127 374 L371 374 Q443 374 489.5 415.5 Q536 457 536 525 Z M127 353 L127 21 L352 21 Q456 21 511 64 Q566 107 566 188 Q566 263 516 308 Q466 353 382 353 L127 353 Z " />
<glyph glyph-name="C" unicode="C" horiz-adv-x="659" d="M395 11 Q449 11 499.5 23.5 Q550 36 609 66 L609 41 Q550 13 499 1.5 Q448 -10 394 -10 Q242 -10 148.5 89 Q55 188 55 348 Q55 503 148.5 601.5 Q242 700 390 700 Q446 700 500.5 685 Q555 670 597 644 L597 620 Q548 649 495.5 664 Q443 679 391 679 Q252 679 165 587 Q78 495 78 348 Q78 197 165.5 104 Q253 11 395 11 Z " />
<glyph glyph-name="D" unicode="D" horiz-adv-x="724" d="M641 349 Q641 491 555 580 Q469 669 331 669 L127 669 L127 21 L331 21 Q472 21 556.5 110.5 Q641 200 641 349 Z M337 0 L105 0 L105 690 L337 690 Q482 690 573 595 Q664 500 664 349 Q664 191 574.5 95.5 Q485 0 337 0 Z " />
<glyph glyph-name="E" unicode="E" horiz-adv-x="601" d="M541 690 L541 669 L127 669 L127 370 L433 370 L433 349 L127 349 L127 21 L541 21 L541 0 L105 0 L105 690 L541 690 Z " />
<glyph glyph-name="F" unicode="F" horiz-adv-x="586" d="M541 690 L541 669 L127 669 L127 370 L433 370 L433 349 L127 349 L127 0 L105 0 L105 690 L541 690 Z " />
<glyph glyph-name="G" unicode="G" horiz-adv-x="725" d="M655 317 L655 76 Q606 32 544.5 11 Q483 -10 394 -10 Q244 -10 149.5 89.5 Q55 189 55 346 Q55 504 148 602 Q241 700 390 700 Q447 700 500 686 Q553 672 594 647 L594 623 Q545 651 494.5 665 Q444 679 391 679 Q251 679 164.5 587 Q78 495 78 346 Q78 198 166 104.5 Q254 11 395 11 Q474 11 531.5 29 Q589 47 633 84 L633 296 L391 296 L391 317 L655 317 Z " />
<glyph glyph-name="H" unicode="H" horiz-adv-x="756" d="M651 0 L629 0 L629 337 L127 337 L127 0 L105 0 L105 690 L127 690 L127 358 L629 358 L629 690 L651 690 L651 0 Z " />
<glyph glyph-name="I" unicode="I" horiz-adv-x="232" d="M105 690 L127 690 L127 0 L105 0 L105 690 Z " />
<glyph glyph-name="J" unicode="J" horiz-adv-x="451" d="M166 -10 Q133 -10 104 -5 Q75 0 55 9 L55 31 Q74 21 102.5 16 Q131 11 166 11 Q247 11 288 59 Q329 107 329 202 L329 690 L351 690 L351 202 Q351 98 303 44 Q255 -10 166 -10 Z " />
<glyph glyph-name="K" unicode="K" horiz-adv-x="639" d="M604 0 L577 0 L252 351 L127 217 L127 0 L105 0 L105 690 L127 690 L127 243 L541 690 L568 690 L266 366 L604 0 Z " />
<glyph glyph-name="L" unicode="L" horiz-adv-x="611" d="M105 690 L127 690 L127 21 L541 21 L541 0 L105 0 L105 690 Z " />
<glyph glyph-name="M" unicode="M" horiz-adv-x="853" d="M432 223 L726 690 L748 690 L748 0 L726 0 L726 651 L445 203 L419 203 L127 651 L127 0 L105 0 L105 690 L128 690 L432 223 Z " />
<glyph glyph-name="N" unicode="N" horiz-adv-x="750" d="M645 0 L623 0 L127 653 L127 0 L105 0 L105 690 L127 690 L623 37 L623 690 L645 690 L645 0 Z " />
<glyph glyph-name="O" unicode="O" horiz-adv-x="794" d="M397 -10 Q252 -10 156 91 Q60 192 60 345 Q60 498 156 599 Q252 700 397 700 Q542 700 638 599 Q734 498 734 345 Q734 192 638 91 Q542 -10 397 -10 Z M397 11 Q532 11 621.5 106 Q711 201 711 345 Q711 489 621.5 584 Q532 679 397 679 Q262 679 172.5 584 Q83 489 83 345 Q83 201 172.5 106 Q262 11 397 11 Z " />
<glyph glyph-name="P" unicode="P" horiz-adv-x="633" d="M545 492 Q545 571 490.5 620 Q436 669 348 669 L127 669 L127 307 L348 307 Q436 307 490.5 358.5 Q545 410 545 492 Z M568 492 Q568 402 506 344 Q444 286 348 286 L127 286 L127 0 L105 0 L105 690 L348 690 Q445 690 506.5 634.5 Q568 579 568 492 Z " />
<glyph glyph-name="Q" unicode="Q" horiz-adv-x="794" d="M724 4 L710 -10 L627 80 Q582 36 523 13 Q464 -10 397 -10 Q252 -10 156 91 Q60 192 60 345 Q60 498 156 599 Q252 700 397 700 Q542 700 638 599 Q734 498 734 345 Q734 272 710 207.5 Q686 143 641 94 L724 4 Z M83 345 Q83 201 172.5 106 Q262 11 397 11 Q459 11 514 33 Q569 55 612 96 L506 212 L520 226 L626 111 Q667 157 689 217 Q711 277 711 345 Q711 489 621.5 584 Q532 679 397 679 Q262 679 172.5 584 Q83 489 83 345 Z " />
<glyph glyph-name="R" unicode="R" horiz-adv-x="649" d="M545 514 Q545 583 493 626 Q441 669 358 669 L127 669 L127 351 L358 351 Q441 351 493 396.5 Q545 442 545 514 Z M599 0 L571 0 L353 330 L127 330 L127 0 L105 0 L105 690 L358 690 Q449 690 508.5 640.5 Q568 591 568 514 Q568 439 515.5 388 Q463 337 380 331 L599 0 Z " />
<glyph glyph-name="S" unicode="S" horiz-adv-x="595" d="M298 -10 Q236 -10 170 9 Q104 28 60 58 L60 84 Q107 51 172 31 Q237 11 297 11 Q395 11 456.5 55.5 Q518 100 518 174 Q518 231 472 271 Q426 311 282 360 Q148 406 106.5 444 Q65 482 65 541 Q65 611 131 655.5 Q197 700 299 700 Q352 700 400.5 687.5 Q449 675 496 650 L496 627 Q451 653 402 666 Q353 679 299 679 Q207 679 147 640.5 Q87 602 87 539 Q87 504 106.5 477.5 Q126 451 169 429 Q190 418 218.5 407 Q247 396 306 376 Q438 332 489 286.5 Q540 241 540 173 Q540 91 472 40.5 Q404 -10 298 -10 Z " />
<glyph glyph-name="T" unicode="T" horiz-adv-x="584" d="M549 690 L549 669 L303 669 L303 0 L281 0 L281 669 L35 669 L35 690 L549 690 Z " />
<glyph glyph-name="U" unicode="U" horiz-adv-x="740" d="M618 264 L618 690 L640 690 L640 264 Q640 139 567 64.5 Q494 -10 370 -10 Q246 -10 173 64.5 Q100 139 100 264 L100 690 L122 690 L122 264 Q122 148 189 79.5 Q256 11 370 11 Q484 11 551 79.5 Q618 148 618 264 Z " />
<glyph glyph-name="V" unicode="V" horiz-adv-x="684" d="M646 690 L669 690 L353 0 L329 0 L15 690 L38 690 L341 21 L646 690 Z " />
<glyph glyph-name="W" unicode="W" horiz-adv-x="1032" d="M744 22 L994 690 L1017 690 L757 0 L732 0 L518 537 L306 0 L281 0 L15 690 L38 690 L294 22 L505 561 L532 561 L744 22 Z " />
<glyph glyph-name="X" unicode="X" horiz-adv-x="619" d="M589 0 L565 0 L307 323 L48 0 L23 0 L295 339 L15 690 L40 690 L309 351 L578 690 L604 690 L321 337 L589 0 Z " />
<glyph glyph-name="Y" unicode="Y" horiz-adv-x="638" d="M594 690 L618 690 L330 296 L330 0 L308 0 L308 296 L20 690 L45 690 L319 316 L594 690 Z " />
<glyph glyph-name="Z" unicode="Z" horiz-adv-x="604" d="M559 0 L45 0 L45 21 L520 654 L49 654 L49 675 L549 675 L549 654 L72 21 L559 21 L559 0 Z " />
<glyph glyph-name="AE" unicode="&#xc6;" horiz-adv-x="946" d="M168 211 L450 211 L450 666 L168 211 Z M886 0 L450 0 L450 190 L155 190 L38 0 L15 0 L441 690 L886 690 L886 669 L472 669 L472 370 L778 370 L778 349 L472 349 L472 21 L886 21 L886 0 Z " />
<glyph glyph-name="OE" unicode="&#x152;" horiz-adv-x="1208" d="M83 345 Q83 201 172.5 106 Q262 11 397 11 Q532 11 621.5 106 Q711 201 711 345 Q711 489 621.5 584 Q532 679 397 679 Q262 679 172.5 584 Q83 489 83 345 Z M1148 0 L712 0 L712 220 Q675 112 591.5 51 Q508 -10 397 -10 Q252 -10 156 91 Q60 192 60 345 Q60 498 156 599 Q252 700 397 700 Q509 700 594 637 Q679 574 712 470 L712 690 L1148 690 L1148 669 L734 669 L734 370 L1040 370 L1040 349 L734 349 L734 21 L1148 21 L1148 0 Z " />
<glyph glyph-name="Lslash" unicode="&#x141;" horiz-adv-x="611" d="M541 21 L541 0 L105 0 L105 311 L15 269 L15 292 L105 334 L105 690 L127 690 L127 344 L340 443 L340 420 L127 321 L127 21 L541 21 Z " />
<glyph glyph-name="Oslash" unicode="&#xd8;" horiz-adv-x="794" d="M734 345 Q734 192 638 91 Q542 -10 397 -10 Q331 -10 272 13 Q213 36 167 79 L85 -10 L71 4 L153 94 Q108 142 84 207 Q60 272 60 345 Q60 498 156 599 Q252 700 397 700 Q464 700 523 677 Q582 654 628 610 L710 699 L724 685 L642 595 Q686 547 710 482 Q734 417 734 345 Z M397 679 Q262 679 172.5 584 Q83 489 83 345 Q83 276 105 216 Q127 156 169 110 L613 593 Q570 635 514.5 657 Q459 679 397 679 Z M397 11 Q532 11 621.5 106 Q711 201 711 345 Q711 413 689 473 Q667 533 626 579 L182 96 Q226 55 281 33 Q336 11 397 11 Z " />
<glyph glyph-name="Eth" unicode="&#xd0;" horiz-adv-x="724" d="M297 358 L297 337 L127 337 L127 21 L331 21 Q472 21 556.5 110.5 Q641 200 641 349 Q641 491 555 580 Q469 669 331 669 L127 669 L127 358 L297 358 Z M337 0 L105 0 L105 337 L25 337 L25 358 L105 358 L105 690 L337 690 Q482 690 573 595 Q664 500 664 349 Q664 191 574.5 95.5 Q485 0 337 0 Z " />
<glyph glyph-name="Thorn" unicode="&#xde;" horiz-adv-x="633" d="M545 352 Q545 431 490.5 480 Q436 529 348 529 L127 529 L127 167 L348 167 Q436 167 490.5 218.5 Q545 270 545 352 Z M568 352 Q568 262 506 204 Q444 146 348 146 L127 146 L127 0 L105 0 L105 690 L127 690 L127 550 L348 550 Q445 550 506.5 494.5 Q568 439 568 352 Z " />
<glyph glyph-name="a" unicode="a" horiz-adv-x="592" d="M257 11 Q322 11 377 45 Q432 79 470 143 L470 232 Q419 270 364.5 290 Q310 310 254 310 Q173 310 128 271 Q83 232 83 164 Q83 96 132.5 53.5 Q182 11 257 11 Z M116 445 L116 468 Q151 492 193.5 503.5 Q236 515 286 515 Q390 515 441 464 Q492 413 492 309 L492 0 L470 0 L470 112 Q433 55 375.5 22.5 Q318 -10 254 -10 Q169 -10 114.5 38.5 Q60 87 60 163 Q60 240 112 285.5 Q164 331 253 331 Q308 331 362.5 312 Q417 293 470 256 L470 309 Q470 403 424.5 448.5 Q379 494 286 494 Q238 494 196 482 Q154 470 116 445 Z " />
<glyph glyph-name="b" unicode="b" horiz-adv-x="649" d="M594 252 Q594 137 524 63.5 Q454 -10 347 -10 Q278 -10 220 23.5 Q162 57 122 120 L122 0 L100 0 L100 734 L122 740 L122 382 Q164 448 221 481.5 Q278 515 347 515 Q454 515 524 441 Q594 367 594 252 Z M571 252 Q571 358 507.5 426 Q444 494 347 494 Q277 494 218.5 457 Q160 420 122 351 L122 154 Q160 85 218.5 48 Q277 11 347 11 Q444 11 507.5 78.5 Q571 146 571 252 Z " />
<glyph glyph-name="c" unicode="c" horiz-adv-x="529" d="M315 494 Q205 494 141.5 429 Q78 364 78 252 Q78 141 141 76 Q204 11 312 11 Q360 11 400 25.5 Q440 40 479 72 L479 50 Q447 22 402.5 6 Q358 -10 308 -10 Q192 -10 123.5 61 Q55 132 55 252 Q55 372 125.5 443.5 Q196 515 315 515 Q362 515 403.5 501 Q445 487 474 461 L474 436 Q445 464 404.5 479 Q364 494 315 494 Z " />
<glyph glyph-name="d" unicode="d" horiz-adv-x="649" d="M527 154 L527 351 Q489 420 430.5 457 Q372 494 302 494 Q205 494 141.5 426 Q78 358 78 252 Q78 146 141.5 78.5 Q205 11 302 11 Q372 11 430.5 48 Q489 85 527 154 Z M527 0 L527 120 Q487 57 429 23.5 Q371 -10 302 -10 Q195 -10 125 63.5 Q55 137 55 252 Q55 367 125 441 Q195 515 302 515 Q371 515 429 481.5 Q487 448 527 385 L527 734 L549 740 L549 0 L527 0 Z " />
<glyph glyph-name="e" unicode="e" horiz-adv-x="577" d="M301 494 Q209 494 146.5 436 Q84 378 78 282 L504 282 Q505 380 448.5 437 Q392 494 301 494 Z M480 58 L480 35 Q450 14 408 2 Q366 -10 326 -10 Q208 -10 131.5 67 Q55 144 55 261 Q55 373 124 444 Q193 515 301 515 Q401 515 463 453 Q525 391 527 289 Q527 279 527 272.5 Q527 266 526 262 L77 262 Q77 152 147.5 81.5 Q218 11 327 11 Q368 11 409 23.5 Q450 36 480 58 Z " />
<glyph glyph-name="f" unicode="f" horiz-adv-x="328" d="M289 505 L289 484 L130 484 L130 0 L108 0 L108 484 L15 484 L15 505 L108 505 L108 557 Q108 648 143 694 Q178 740 246 740 Q269 740 288.5 735 Q308 730 323 720 L323 697 Q310 708 290 713.5 Q270 719 246 719 Q187 719 158.5 679 Q130 639 130 557 L130 505 L289 505 Z " />
<glyph glyph-name="g" unicode="g" horiz-adv-x="649" d="M527 151 L527 354 Q489 421 429.5 457.5 Q370 494 302 494 Q205 494 141.5 426 Q78 358 78 252 Q78 146 141.5 78.5 Q205 11 302 11 Q370 11 428 47 Q486 83 527 151 Z M527 23 L527 120 Q487 57 429 23.5 Q371 -10 302 -10 Q195 -10 125 63.5 Q55 137 55 252 Q55 367 125 441 Q195 515 302 515 Q371 515 429 481.5 Q487 448 527 385 L527 505 L549 505 L549 23 Q549 -86 482.5 -153 Q416 -220 311 -220 Q282 -220 250.5 -213.5 Q219 -207 202 -198 L202 -175 Q223 -186 253 -192.5 Q283 -199 311 -199 Q407 -199 467 -138.5 Q527 -78 527 23 Z " />
<glyph glyph-name="h" unicode="h" horiz-adv-x="612" d="M100 734 L122 740 L122 393 Q156 449 212.5 482 Q269 515 335 515 Q426 515 471.5 466 Q517 417 517 319 L517 0 L495 0 L495 319 Q495 407 455.5 450.5 Q416 494 335 494 Q271 494 214.5 459.5 Q158 425 122 367 L122 0 L100 0 L100 734 Z " />
<glyph glyph-name="i" unicode="i" horiz-adv-x="222" d="M100 725 L122 725 L122 602 L100 602 L100 725 Z M100 505 L122 505 L122 0 L100 0 L100 505 Z " />
<glyph glyph-name="j" unicode="j" horiz-adv-x="232" d="M132 602 L110 602 L110 725 L132 725 L132 602 Z M2 -199 Q58 -199 84 -164 Q110 -129 110 -54 L110 505 L132 505 L132 -54 Q132 -138 100 -179 Q68 -220 3 -220 Q-6 -220 -15.5 -219 Q-25 -218 -35 -217 L-35 -196 Q-24 -198 -15 -198.5 Q-6 -199 2 -199 Z " />
<glyph glyph-name="k" unicode="k" horiz-adv-x="520" d="M490 0 L463 0 L208 271 L122 188 L122 0 L100 0 L100 734 L122 740 L122 212 L425 505 L452 505 L222 284 L490 0 Z " />
<glyph glyph-name="l" unicode="l" horiz-adv-x="222" d="M122 740 L122 0 L100 0 L100 734 L122 740 Z " />
<glyph glyph-name="m" unicode="m" horiz-adv-x="976" d="M328 494 Q271 494 220.5 463 Q170 432 122 365 L122 0 L100 0 L100 505 L122 505 L122 391 Q161 450 214 482.5 Q267 515 328 515 Q395 515 441 480.5 Q487 446 499 390 Q539 452 590.5 483.5 Q642 515 703 515 Q785 515 833 469 Q881 423 881 346 L881 0 L859 0 L859 346 Q859 413 817 453.5 Q775 494 704 494 Q645 494 591.5 458.5 Q538 423 502 362 L502 0 L480 0 L480 356 Q480 415 437.5 454.5 Q395 494 328 494 Z " />
<glyph glyph-name="n" unicode="n" horiz-adv-x="612" d="M100 505 L122 505 L122 391 Q156 447 212 481 Q268 515 335 515 Q426 515 471.5 466 Q517 417 517 319 L517 0 L495 0 L495 319 Q495 407 455.5 450.5 Q416 494 335 494 Q271 494 214.5 459.5 Q158 425 122 365 L122 0 L100 0 L100 505 Z " />
<glyph glyph-name="o" unicode="o" horiz-adv-x="616" d="M308 515 Q416 515 488.5 440.5 Q561 366 561 253 Q561 140 488.5 65 Q416 -10 308 -10 Q200 -10 127.5 65 Q55 140 55 253 Q55 366 127.5 440.5 Q200 515 308 515 Z M308 11 Q406 11 472 80 Q538 149 538 253 Q538 357 472 425.5 Q406 494 308 494 Q210 494 144 425.5 Q78 357 78 253 Q78 149 144 80 Q210 11 308 11 Z " />
<glyph glyph-name="p" unicode="p" horiz-adv-x="649" d="M571 252 Q571 358 507.5 426 Q444 494 347 494 Q279 494 221 458.5 Q163 423 122 356 L122 149 Q161 84 220.5 47.5 Q280 11 347 11 Q444 11 507.5 78.5 Q571 146 571 252 Z M347 -10 Q278 -10 220 23.5 Q162 57 122 120 L122 -200 L100 -200 L100 505 L122 505 L122 385 Q162 448 220 481.5 Q278 515 347 515 Q454 515 524 441 Q594 367 594 252 Q594 137 524 63.5 Q454 -10 347 -10 Z " />
<glyph glyph-name="q" unicode="q" horiz-adv-x="649" d="M527 -200 L527 120 Q487 57 429 23.5 Q371 -10 302 -10 Q195 -10 125 63.5 Q55 137 55 252 Q55 367 125 441 Q195 515 302 515 Q371 515 429 481.5 Q487 448 527 385 L527 505 L549 505 L549 -200 L527 -200 Z M527 149 L527 357 Q488 422 429 458 Q370 494 302 494 Q205 494 141.5 426 Q78 358 78 252 Q78 146 141.5 78.5 Q205 11 302 11 Q370 11 429.5 47.5 Q489 84 527 149 Z " />
<glyph glyph-name="r" unicode="r" horiz-adv-x="362" d="M274 515 Q291 515 304.5 512 Q318 509 332 503 L332 481 Q319 487 303.5 490.5 Q288 494 270 494 Q224 494 185 459 Q146 424 122 361 L122 0 L100 0 L100 505 L122 505 L122 395 Q144 451 184 483 Q224 515 274 515 Z " />
<glyph glyph-name="s" unicode="s" horiz-adv-x="467" d="M240 494 Q166 494 122.5 464 Q79 434 79 381 Q79 347 104 326 Q129 305 237 272 Q351 237 384 207.5 Q417 178 417 128 Q417 63 367.5 26.5 Q318 -10 235 -10 Q181 -10 129.5 6 Q78 22 50 45 L50 71 Q83 44 133.5 27.5 Q184 11 237 11 Q310 11 352 41 Q394 71 394 127 Q394 170 365 195 Q336 220 225 254 Q174 269 153 277 Q132 285 117 293 Q85 309 70.5 330.5 Q56 352 56 382 Q56 443 108.5 479 Q161 515 242 515 Q282 515 320 504.5 Q358 494 393 474 L393 450 Q360 471 321 482.5 Q282 494 240 494 Z " />
<glyph glyph-name="t" unicode="t" horiz-adv-x="343" d="M293 23 L293 2 Q273 -5 258 -7.5 Q243 -10 227 -10 Q167 -10 137.5 23.5 Q108 57 108 125 L108 484 L15 484 L15 505 L108 505 L108 636 L130 642 L130 505 L289 505 L289 484 L130 484 L130 125 Q130 67 153.5 39 Q177 11 227 11 Q244 11 261 14 Q278 17 293 23 Z " />
<glyph glyph-name="u" unicode="u" horiz-adv-x="592" d="M492 0 L470 0 L470 116 Q431 55 380 22.5 Q329 -10 270 -10 Q182 -10 138.5 36 Q95 82 95 176 L95 505 L117 505 L117 176 Q117 92 154.5 51.5 Q192 11 270 11 Q328 11 377.5 44 Q427 77 470 143 L470 505 L492 505 L492 0 Z " />
<glyph glyph-name="v" unicode="v" horiz-adv-x="528" d="M508 505 L264 0 L249 0 L20 505 L44 505 L257 27 L484 505 L508 505 Z " />
<glyph glyph-name="w" unicode="w" horiz-adv-x="830" d="M810 505 L605 0 L592 0 L413 474 L240 0 L227 0 L20 505 L44 505 L234 31 L405 505 L421 505 L598 31 L787 505 L810 505 Z " />
<glyph glyph-name="x" unicode="x" horiz-adv-x="481" d="M463 0 L437 0 L241 243 L45 0 L20 0 L230 256 L29 505 L55 505 L244 271 L432 505 L457 505 L255 258 L463 0 Z " />
<glyph glyph-name="y" unicode="y" horiz-adv-x="514" d="M57 -220 Q48 -220 38 -219 Q28 -218 20 -217 L20 -196 Q29 -197 38.5 -198 Q48 -199 55 -199 Q106 -199 148.5 -161 Q191 -123 232 -34 L247 1 L21 505 L44 505 L258 24 L471 505 L494 505 L249 -41 Q203 -138 157.5 -179 Q112 -220 57 -220 Z " />
<glyph glyph-name="z" unicode="z" horiz-adv-x="471" d="M65 21 L436 21 L436 0 L35 0 L35 18 L400 484 L38 484 L38 505 L430 505 L430 487 L65 21 Z " />
<glyph glyph-name="ae" unicode="&#xe6;" horiz-adv-x="992" d="M716 494 Q624 494 561.5 436 Q499 378 493 282 L919 282 Q920 380 863.5 437 Q807 494 716 494 Z M741 -10 Q655 -10 588 33 Q521 76 491 151 Q463 82 395.5 36 Q328 -10 254 -10 Q169 -10 114.5 38.5 Q60 87 60 163 Q60 240 112 285.5 Q164 331 253 331 Q308 331 363 312 Q418 293 471 256 Q471 259 471 263 Q471 267 471 275 Q472 288 472 295 Q472 302 472 309 Q472 402 426 448 Q380 494 286 494 Q238 494 196 482 Q154 470 116 445 L116 468 Q151 492 193.5 503.5 Q236 515 286 515 Q375 515 425 476 Q475 437 488 358 Q516 432 576 473.5 Q636 515 716 515 Q816 515 878 453 Q940 391 942 289 Q942 279 942 272.5 Q942 266 941 262 L492 262 Q492 151 562.5 81 Q633 11 742 11 Q783 11 824 23.5 Q865 36 895 58 L895 35 Q865 14 823 2 Q781 -10 741 -10 Z M83 164 Q83 96 132.5 53.5 Q182 11 257 11 Q331 11 393.5 57.5 Q456 104 483 175 Q479 187 476.5 200.5 Q474 214 472 231 Q423 269 366 289.5 Q309 310 254 310 Q173 310 128 271 Q83 232 83 164 Z " />
<glyph glyph-name="oe" unicode="&#x153;" horiz-adv-x="1061" d="M964 58 L964 35 Q934 14 892 2 Q850 -10 810 -10 Q716 -10 646.5 40.5 Q577 91 551 176 Q529 92 462 41 Q395 -10 308 -10 Q200 -10 127.5 65 Q55 140 55 253 Q55 366 127.5 440.5 Q200 515 308 515 Q393 515 458.5 467 Q524 419 549 338 Q571 419 635 467 Q699 515 785 515 Q885 515 947 453 Q1009 391 1011 289 Q1011 279 1011 272.5 Q1011 266 1010 262 L561 262 Q561 152 631.5 81.5 Q702 11 811 11 Q852 11 893 23.5 Q934 36 964 58 Z M308 11 Q406 11 472 80 Q538 149 538 253 Q538 357 472 425.5 Q406 494 308 494 Q210 494 144 425.5 Q78 357 78 253 Q78 149 144 80 Q210 11 308 11 Z M785 494 Q693 494 630.5 436 Q568 378 562 282 L988 282 Q989 380 932.5 437 Q876 494 785 494 Z " />
<glyph glyph-name="lslash" unicode="&#x142;" horiz-adv-x="222" d="M122 375 L122 0 L100 0 L100 364 L24 328 L24 350 L100 386 L100 734 L122 740 L122 397 L201 434 L201 412 L122 375 Z " />
<glyph glyph-name="oslash" unicode="&#xf8;" horiz-adv-x="616" d="M308 494 Q210 494 144 425.5 Q78 357 78 253 Q78 203 95 158.5 Q112 114 143 81 L466 432 Q435 462 394 478 Q353 494 308 494 Z M308 11 Q406 11 472 80 Q538 149 538 253 Q538 301 523 343 Q508 385 479 418 L157 67 Q188 40 226.5 25.5 Q265 11 308 11 Z M561 253 Q561 140 488.5 65 Q416 -10 308 -10 Q261 -10 218.5 5.5 Q176 21 143 51 L86 -11 L72 3 L128 64 Q92 101 73.5 149.5 Q55 198 55 253 Q55 366 127.5 440.5 Q200 515 308 515 Q358 515 402.5 497.5 Q447 480 481 448 L542 515 L556 501 L495 434 Q527 399 544 352.5 Q561 306 561 253 Z " />
<glyph glyph-name="eth" unicode="&#xf0;" horiz-adv-x="611" d="M558 272 Q558 145 488 67.5 Q418 -10 307 -10 Q200 -10 127.5 65.5 Q55 141 55 253 Q55 365 127.5 440 Q200 515 307 515 Q373 515 426 487.5 Q479 460 513 409 Q494 468 454.5 524.5 Q415 581 356 635 L276 578 L264 593 L341 648 Q316 670 287 691.5 Q258 713 226 734 L248 740 Q279 720 306.5 700 Q334 680 357 660 L429 711 L441 696 L372 647 Q466 564 512 471 Q558 378 558 272 Z M536 270 Q536 367 469.5 431 Q403 495 307 495 Q210 495 143.5 425.5 Q77 356 77 253 Q77 150 143.5 80 Q210 10 307 10 Q408 10 472 82 Q536 154 536 270 Z " />
<glyph glyph-name="thorn" unicode="&#xfe;" horiz-adv-x="649" d="M571 252 Q571 358 507.5 426 Q444 494 347 494 Q277 494 218.5 457 Q160 420 122 351 L122 154 Q160 85 218.5 48 Q277 11 347 11 Q444 11 507.5 78.5 Q571 146 571 252 Z M347 -10 Q278 -10 220 23.5 Q162 57 122 120 L122 -200 L100 -200 L100 734 L122 740 L122 382 Q164 447 221 481 Q278 515 347 515 Q454 515 524 441 Q594 367 594 252 Q594 137 524 63.5 Q454 -10 347 -10 Z " />
<glyph glyph-name="germandbls" unicode="&#xdf;" horiz-adv-x="586" d="M100 0 L100 528 Q100 626 152.5 683 Q205 740 295 740 Q380 740 430 693.5 Q480 647 480 571 Q480 514 447 470 Q414 426 360 407 Q440 392 485.5 338.5 Q531 285 531 204 Q531 113 471.5 51.5 Q412 -10 327 -10 Q283 -10 242.5 1.5 Q202 13 175 32 L175 54 Q215 31 250 21 Q285 11 327 11 Q405 11 456.5 65.5 Q508 120 508 204 Q508 292 451 343 Q394 394 304 394 L304 416 Q365 416 411 460.5 Q457 505 457 571 Q457 638 413.5 678.5 Q370 719 296 719 Q216 719 169 667.5 Q122 616 122 528 L122 0 L100 0 Z " />
<glyph glyph-name="dotlessi" unicode="&#x131;" horiz-adv-x="222" d="M100 505 L122 505 L122 0 L100 0 L100 505 Z " />
<glyph glyph-name="dotlessj" unicode="&#x237;" horiz-adv-x="232" d="M2 -199 Q58 -199 84 -164 Q110 -129 110 -54 L110 505 L132 505 L132 -54 Q132 -138 100 -179 Q68 -220 3 -220 Q-6 -220 -15.5 -219 Q-25 -218 -35 -217 L-35 -196 Q-24 -198 -15 -198.5 Q-6 -199 2 -199 Z " />
<glyph glyph-name="fi" unicode="&#xfb01;" horiz-adv-x="522" d="M400 725 L422 725 L422 602 L400 602 L400 725 Z M289 505 L289 484 L130 484 L130 0 L108 0 L108 484 L15 484 L15 505 L108 505 L108 557 Q108 648 143 694 Q178 740 246 740 Q269 740 288.5 735 Q308 730 323 720 L323 697 Q310 708 290 713.5 Q270 719 246 719 Q187 719 158.5 679 Q130 639 130 557 L130 505 L289 505 Z M400 505 L422 505 L422 -1 L400 -1 L400 505 Z " />
<glyph glyph-name="fl" unicode="&#xfb02;" horiz-adv-x="522" d="M422 740 L422 0 L400 0 L400 734 L422 740 Z M289 505 L289 484 L130 484 L130 0 L108 0 L108 484 L15 484 L15 505 L108 505 L108 557 Q108 648 143 694 Q178 740 246 740 Q269 740 288.5 735 Q308 730 323 720 L323 697 Q310 708 290 713.5 Q270 719 246 719 Q187 719 158.5 679 Q130 639 130 557 L130 505 L289 505 Z " />
<glyph glyph-name="Aacute" unicode="&#xc1;" horiz-adv-x="680" d="M543 211 L339 666 L137 211 L543 211 Z M660 0 L637 0 L552 190 L127 190 L43 0 L20 0 L328 690 L350 690 L660 0 Z M314 773 L292 773 L405 905 L433 905 L314 773 Z " />
<glyph glyph-name="Acircumflex" unicode="&#xc2;" horiz-adv-x="680" d="M543 211 L339 666 L137 211 L543 211 Z M660 0 L637 0 L552 190 L127 190 L43 0 L20 0 L328 690 L350 690 L660 0 Z M468 773 L448 773 L340 888 L232 773 L212 773 L327 905 L353 905 L468 773 Z " />
<glyph glyph-name="Adieresis" unicode="&#xc4;" horiz-adv-x="680" d="M543 211 L339 666 L137 211 L543 211 Z M660 0 L637 0 L552 190 L127 190 L43 0 L20 0 L328 690 L350 690 L660 0 Z M431 787 L409 787 L409 910 L431 910 L431 787 Z M271 787 L249 787 L249 910 L271 910 L271 787 Z " />
<glyph glyph-name="Agrave" unicode="&#xc0;" horiz-adv-x="680" d="M543 211 L339 666 L137 211 L543 211 Z M660 0 L637 0 L552 190 L127 190 L43 0 L20 0 L328 690 L350 690 L660 0 Z M224 905 L252 905 L365 773 L343 773 L224 905 Z " />
<glyph glyph-name="Aring" unicode="&#xc5;" horiz-adv-x="680" d="M543 211 L339 666 L137 211 L543 211 Z M660 0 L637 0 L552 190 L127 190 L43 0 L20 0 L328 690 L350 690 L660 0 Z M256 843 Q256 878 280.5 902.5 Q305 927 341 927 Q375 927 399.5 902.5 Q424 878 424 843 Q424 807 400 782.5 Q376 758 341 758 Q305 758 280.5 782.5 Q256 807 256 843 Z M277 843 Q277 814 295 796 Q313 778 341 778 Q368 778 385.5 796.5 Q403 815 403 843 Q403 871 385.5 889 Q368 907 341 907 Q313 907 295 889 Q277 871 277 843 Z " />
<glyph glyph-name="Atilde" unicode="&#xc3;" horiz-adv-x="680" d="M543 211 L339 666 L137 211 L543 211 Z M660 0 L637 0 L552 190 L127 190 L43 0 L20 0 L328 690 L350 690 L660 0 Z M355 845 Q382 821 396.5 814 Q411 807 424 807 Q451 807 468 828 Q485 849 488 886 L510 886 Q508 843 483.5 815 Q459 787 424 787 Q406 787 388 795.5 Q370 804 339 832 Q311 856 296 863.5 Q281 871 267 871 Q236 871 218 849.5 Q200 828 195 787 L173 787 Q178 833 203.5 862 Q229 891 267 891 Q286 891 304.5 882 Q323 873 355 845 Z " />
<glyph glyph-name="Abreve" unicode="&#x102;" horiz-adv-x="680" d="M543 211 L339 666 L137 211 L543 211 Z M660 0 L637 0 L552 190 L127 190 L43 0 L20 0 L328 690 L350 690 L660 0 Z M338 801 Q387 801 416 826 Q445 851 453 902 L475 902 Q469 845 432.5 812.5 Q396 780 338 780 Q280 780 243.5 812.5 Q207 845 201 902 L223 902 Q231 851 260 826 Q289 801 338 801 Z " />
<glyph glyph-name="Amacron" unicode="&#x100;" horiz-adv-x="680" d="M543 211 L339 666 L137 211 L543 211 Z M660 0 L637 0 L552 190 L127 190 L43 0 L20 0 L328 690 L350 690 L660 0 Z M483 830 L197 830 L197 851 L483 851 L483 830 Z " />
<glyph glyph-name="Aogonek" unicode="&#x104;" horiz-adv-x="680" d="M485 -126 Q485 -90 516 -61.5 Q547 -33 636 2 L552 190 L127 190 L43 0 L20 0 L328 690 L350 690 L660 0 Q604 -26 591.5 -32.5 Q579 -39 569 -45 Q537 -64 522.5 -82 Q508 -100 508 -121 Q508 -150 530 -166.5 Q552 -183 586 -183 Q605 -183 624.5 -176.5 Q644 -170 660 -158 L660 -176 Q638 -191 619.5 -197 Q601 -203 579 -203 Q539 -203 512 -181.5 Q485 -160 485 -126 Z M543 211 L339 666 L137 211 L543 211 Z " />
<glyph glyph-name="Ccedilla" unicode="&#xc7;" horiz-adv-x="659" d="M464 -128 Q464 -158 439.5 -177 Q415 -196 378 -196 Q351 -196 331.5 -191 Q312 -186 290 -173 L290 -150 Q316 -165 335 -170.5 Q354 -176 378 -176 Q407 -176 424.5 -163.5 Q442 -151 442 -128 Q442 -106 426.5 -95 Q411 -84 380 -84 L334 -84 L352 -8 Q217 6 136 103 Q55 200 55 348 Q55 503 148.5 601.5 Q242 700 390 700 Q446 700 500.5 685 Q555 670 597 644 L597 620 Q548 649 495.5 664 Q443 679 391 679 Q252 679 165 587 Q78 495 78 348 Q78 197 165.5 104 Q253 11 395 11 Q449 11 499.5 23.5 Q550 36 609 66 L609 41 Q550 13 499 1.5 Q448 -10 394 -10 Q384 -10 378.5 -10 Q373 -10 369 -9 L356 -64 L382 -64 Q421 -64 442.5 -81 Q464 -98 464 -128 Z " />
<glyph glyph-name="Cacute" unicode="&#x106;" horiz-adv-x="659" d="M395 11 Q449 11 499.5 23.5 Q550 36 609 66 L609 41 Q550 13 499 1.5 Q448 -10 394 -10 Q242 -10 148.5 89 Q55 188 55 348 Q55 503 148.5 601.5 Q242 700 390 700 Q446 700 500.5 685 Q555 670 597 644 L597 620 Q548 649 495.5 664 Q443 679 391 679 Q252 679 165 587 Q78 495 78 348 Q78 197 165.5 104 Q253 11 395 11 Z M328 773 L306 773 L419 905 L447 905 L328 773 Z " />
<glyph glyph-name="Ccaron" unicode="&#x10c;" horiz-adv-x="659" d="M395 11 Q449 11 499.5 23.5 Q550 36 609 66 L609 41 Q550 13 499 1.5 Q448 -10 394 -10 Q242 -10 148.5 89 Q55 188 55 348 Q55 503 148.5 601.5 Q242 700 390 700 Q446 700 500.5 685 Q555 670 597 644 L597 620 Q548 649 495.5 664 Q443 679 391 679 Q252 679 165 587 Q78 495 78 348 Q78 197 165.5 104 Q253 11 395 11 Z M375 773 L349 773 L234 905 L254 905 L362 790 L470 905 L490 905 L375 773 Z " />
<glyph glyph-name="Ccircumflex" unicode="&#x108;" horiz-adv-x="659" d="M395 11 Q449 11 499.5 23.5 Q550 36 609 66 L609 41 Q550 13 499 1.5 Q448 -10 394 -10 Q242 -10 148.5 89 Q55 188 55 348 Q55 503 148.5 601.5 Q242 700 390 700 Q446 700 500.5 685 Q555 670 597 644 L597 620 Q548 649 495.5 664 Q443 679 391 679 Q252 679 165 587 Q78 495 78 348 Q78 197 165.5 104 Q253 11 395 11 Z M488 773 L468 773 L360 888 L252 773 L232 773 L347 905 L373 905 L488 773 Z " />
<glyph glyph-name="Cdotaccent" unicode="&#x10a;" horiz-adv-x="659" d="M395 11 Q449 11 499.5 23.5 Q550 36 609 66 L609 41 Q550 13 499 1.5 Q448 -10 394 -10 Q242 -10 148.5 89 Q55 188 55 348 Q55 503 148.5 601.5 Q242 700 390 700 Q446 700 500.5 685 Q555 670 597 644 L597 620 Q548 649 495.5 664 Q443 679 391 679 Q252 679 165 587 Q78 495 78 348 Q78 197 165.5 104 Q253 11 395 11 Z M361 910 L383 910 L383 787 L361 787 L361 910 Z " />
<glyph glyph-name="Dcaron" unicode="&#x10e;" horiz-adv-x="724" d="M641 349 Q641 491 555 580 Q469 669 331 669 L127 669 L127 21 L331 21 Q472 21 556.5 110.5 Q641 200 641 349 Z M337 0 L105 0 L105 690 L337 690 Q482 690 573 595 Q664 500 664 349 Q664 191 574.5 95.5 Q485 0 337 0 Z M363 773 L337 773 L222 905 L242 905 L350 790 L458 905 L478 905 L363 773 Z " />
<glyph glyph-name="Dcroat" unicode="&#x110;" horiz-adv-x="724" d="M297 358 L297 337 L127 337 L127 21 L331 21 Q472 21 556.5 110.5 Q641 200 641 349 Q641 491 555 580 Q469 669 331 669 L127 669 L127 358 L297 358 Z M337 0 L105 0 L105 337 L25 337 L25 358 L105 358 L105 690 L337 690 Q482 690 573 595 Q664 500 664 349 Q664 191 574.5 95.5 Q485 0 337 0 Z " />
<glyph glyph-name="Eacute" unicode="&#xc9;" horiz-adv-x="601" d="M541 690 L541 669 L127 669 L127 370 L433 370 L433 349 L127 349 L127 21 L541 21 L541 0 L105 0 L105 690 L541 690 Z M301 773 L279 773 L392 905 L420 905 L301 773 Z " />
<glyph glyph-name="Ecircumflex" unicode="&#xca;" horiz-adv-x="601" d="M541 690 L541 669 L127 669 L127 370 L433 370 L433 349 L127 349 L127 21 L541 21 L541 0 L105 0 L105 690 L541 690 Z M452 773 L432 773 L324 888 L216 773 L196 773 L311 905 L337 905 L452 773 Z " />
<glyph glyph-name="Edieresis" unicode="&#xcb;" horiz-adv-x="601" d="M541 690 L541 669 L127 669 L127 370 L433 370 L433 349 L127 349 L127 21 L541 21 L541 0 L105 0 L105 690 L541 690 Z M422 787 L400 787 L400 910 L422 910 L422 787 Z M262 787 L240 787 L240 910 L262 910 L262 787 Z " />
<glyph glyph-name="Egrave" unicode="&#xc8;" horiz-adv-x="601" d="M541 690 L541 669 L127 669 L127 370 L433 370 L433 349 L127 349 L127 21 L541 21 L541 0 L105 0 L105 690 L541 690 Z M241 905 L269 905 L382 773 L360 773 L241 905 Z " />
<glyph glyph-name="Ebreve" unicode="&#x114;" horiz-adv-x="601" d="M541 690 L541 669 L127 669 L127 370 L433 370 L433 349 L127 349 L127 21 L541 21 L541 0 L105 0 L105 690 L541 690 Z M329 801 Q378 801 407 826 Q436 851 444 902 L466 902 Q460 845 423.5 812.5 Q387 780 329 780 Q271 780 234.5 812.5 Q198 845 192 902 L214 902 Q222 851 251 826 Q280 801 329 801 Z " />
<glyph glyph-name="Ecaron" unicode="&#x11a;" horiz-adv-x="601" d="M541 690 L541 669 L127 669 L127 370 L433 370 L433 349 L127 349 L127 21 L541 21 L541 0 L105 0 L105 690 L541 690 Z M340 773 L314 773 L199 905 L219 905 L327 790 L435 905 L455 905 L340 773 Z " />
<glyph glyph-name="Edotaccent" unicode="&#x116;" horiz-adv-x="601" d="M541 690 L541 669 L127 669 L127 370 L433 370 L433 349 L127 349 L127 21 L541 21 L541 0 L105 0 L105 690 L541 690 Z M328 910 L350 910 L350 787 L328 787 L328 910 Z " />
<glyph glyph-name="Emacron" unicode="&#x112;" horiz-adv-x="601" d="M541 690 L541 669 L127 669 L127 370 L433 370 L433 349 L127 349 L127 21 L541 21 L541 0 L105 0 L105 690 L541 690 Z M472 830 L186 830 L186 851 L472 851 L472 830 Z " />
<glyph glyph-name="Eogonek" unicode="&#x118;" horiz-adv-x="601" d="M366 -126 Q366 -90 395.5 -62.5 Q425 -35 514 0 L105 0 L105 690 L541 690 L541 669 L127 669 L127 370 L433 370 L433 349 L127 349 L127 21 L541 21 L541 0 Q489 -24 474.5 -31.5 Q460 -39 449 -45 Q418 -64 403.5 -82 Q389 -100 389 -121 Q389 -150 411 -166.5 Q433 -183 467 -183 Q486 -183 505.5 -176.5 Q525 -170 541 -158 L541 -176 Q519 -191 500.5 -197 Q482 -203 460 -203 Q420 -203 393 -181.5 Q366 -160 366 -126 Z " />
<glyph glyph-name="Gbreve" unicode="&#x11e;" horiz-adv-x="725" d="M655 317 L655 76 Q606 32 544.5 11 Q483 -10 394 -10 Q244 -10 149.5 89.5 Q55 189 55 346 Q55 504 148 602 Q241 700 390 700 Q447 700 500 686 Q553 672 594 647 L594 623 Q545 651 494.5 665 Q444 679 391 679 Q251 679 164.5 587 Q78 495 78 346 Q78 198 166 104.5 Q254 11 395 11 Q474 11 531.5 29 Q589 47 633 84 L633 296 L391 296 L391 317 L655 317 Z M376 801 Q425 801 454 826 Q483 851 491 902 L513 902 Q507 845 470.5 812.5 Q434 780 376 780 Q318 780 281.5 812.5 Q245 845 239 902 L261 902 Q269 851 298 826 Q327 801 376 801 Z " />
<glyph glyph-name="Gcircumflex" unicode="&#x11c;" horiz-adv-x="725" d="M655 317 L655 76 Q606 32 544.5 11 Q483 -10 394 -10 Q244 -10 149.5 89.5 Q55 189 55 346 Q55 504 148 602 Q241 700 390 700 Q447 700 500 686 Q553 672 594 647 L594 623 Q545 651 494.5 665 Q444 679 391 679 Q251 679 164.5 587 Q78 495 78 346 Q78 198 166 104.5 Q254 11 395 11 Q474 11 531.5 29 Q589 47 633 84 L633 296 L391 296 L391 317 L655 317 Z M490 773 L470 773 L362 888 L254 773 L234 773 L349 905 L375 905 L490 773 Z " />
<glyph glyph-name="Gcommaaccent" unicode="&#x122;" horiz-adv-x="725" d="M655 317 L655 76 Q606 32 544.5 11 Q483 -10 394 -10 Q244 -10 149.5 89.5 Q55 189 55 346 Q55 504 148 602 Q241 700 390 700 Q447 700 500 686 Q553 672 594 647 L594 623 Q545 651 494.5 665 Q444 679 391 679 Q251 679 164.5 587 Q78 495 78 346 Q78 198 166 104.5 Q254 11 395 11 Q474 11 531.5 29 Q589 47 633 84 L633 296 L391 296 L391 317 L655 317 Z M376 -134 L376 -60 L414 -60 L414 -128 Q414 -148 403 -167.5 Q392 -187 377 -197 L369 -188 Q381 -177 388 -162.5 Q395 -148 395 -134 L376 -134 Z " />
<glyph glyph-name="Gdotaccent" unicode="&#x120;" horiz-adv-x="725" d="M655 317 L655 76 Q606 32 544.5 11 Q483 -10 394 -10 Q244 -10 149.5 89.5 Q55 189 55 346 Q55 504 148 602 Q241 700 390 700 Q447 700 500 686 Q553 672 594 647 L594 623 Q545 651 494.5 665 Q444 679 391 679 Q251 679 164.5 587 Q78 495 78 346 Q78 198 166 104.5 Q254 11 395 11 Q474 11 531.5 29 Q589 47 633 84 L633 296 L391 296 L391 317 L655 317 Z M351 910 L373 910 L373 787 L351 787 L351 910 Z " />
<glyph glyph-name="Hbar" unicode="&#x126;" horiz-adv-x="756" d="M127 358 L629 358 L629 506 L127 506 L127 358 Z M651 0 L629 0 L629 337 L127 337 L127 0 L105 0 L105 506 L45 506 L45 527 L105 527 L105 690 L127 690 L127 527 L629 527 L629 690 L651 690 L651 527 L711 527 L711 506 L651 506 L651 0 Z " />
<glyph glyph-name="Hcircumflex" unicode="&#x124;" horiz-adv-x="756" d="M651 0 L629 0 L629 337 L127 337 L127 0 L105 0 L105 690 L127 690 L127 358 L629 358 L629 690 L651 690 L651 0 Z M506 773 L486 773 L378 888 L270 773 L250 773 L365 905 L391 905 L506 773 Z " />
<glyph glyph-name="Iacute" unicode="&#xcd;" horiz-adv-x="232" d="M105 690 L127 690 L127 0 L105 0 L105 690 Z M103 773 L81 773 L194 905 L222 905 L103 773 Z " />
<glyph glyph-name="Icircumflex" unicode="&#xce;" horiz-adv-x="232" d="M105 690 L127 690 L127 0 L105 0 L105 690 Z M244 773 L224 773 L116 888 L8 773 L-12 773 L103 905 L129 905 L244 773 Z " />
<glyph glyph-name="Idieresis" unicode="&#xcf;" horiz-adv-x="232" d="M105 690 L127 690 L127 0 L105 0 L105 690 Z M207 787 L185 787 L185 910 L207 910 L207 787 Z M47 787 L25 787 L25 910 L47 910 L47 787 Z " />
<glyph glyph-name="Igrave" unicode="&#xcc;" horiz-adv-x="232" d="M105 690 L127 690 L127 0 L105 0 L105 690 Z M20 905 L48 905 L161 773 L139 773 L20 905 Z " />
<glyph glyph-name="Ibreve" unicode="&#x12c;" horiz-adv-x="232" d="M105 690 L127 690 L127 0 L105 0 L105 690 Z M114 801 Q163 801 192 826 Q221 851 229 902 L251 902 Q245 845 208.5 812.5 Q172 780 114 780 Q56 780 19.5 812.5 Q-17 845 -23 902 L-1 902 Q7 851 36 826 Q65 801 114 801 Z " />
<glyph glyph-name="Idot" unicode="&#x130;" horiz-adv-x="232" d="M105 690 L127 690 L127 0 L105 0 L105 690 Z M105 910 L127 910 L127 787 L105 787 L105 910 Z " />
<glyph glyph-name="Imacron" unicode="&#x12a;" horiz-adv-x="232" d="M105 690 L127 690 L127 0 L105 0 L105 690 Z M259 830 L-27 830 L-27 851 L259 851 L259 830 Z " />
<glyph glyph-name="Iogonek" unicode="&#x12e;" horiz-adv-x="232" d="M-35 -126 Q-35 -90 -5.5 -61 Q24 -32 105 4 L105 690 L127 690 L127 0 Q35 -46 11.5 -69.5 Q-12 -93 -12 -121 Q-12 -150 10 -166.5 Q32 -183 66 -183 Q85 -183 104.5 -176.5 Q124 -170 140 -158 L140 -176 Q118 -191 99.5 -197 Q81 -203 59 -203 Q19 -203 -8 -181.5 Q-35 -160 -35 -126 Z " />
<glyph glyph-name="Itilde" unicode="&#x128;" horiz-adv-x="232" d="M105 690 L127 690 L127 0 L105 0 L105 690 Z M131 845 Q158 821 172.5 814 Q187 807 200 807 Q227 807 244 828 Q261 849 264 886 L286 886 Q284 843 259.5 815 Q235 787 200 787 Q182 787 164 795.5 Q146 804 115 832 Q87 856 72 863.5 Q57 871 43 871 Q12 871 -6 849.5 Q-24 828 -29 787 L-51 787 Q-46 833 -20.5 862 Q5 891 43 891 Q62 891 80.5 882 Q99 873 131 845 Z " />
<glyph glyph-name="Jcircumflex" unicode="&#x134;" horiz-adv-x="451" d="M166 -10 Q133 -10 104 -5 Q75 0 55 9 L55 31 Q74 21 102.5 16 Q131 11 166 11 Q247 11 288 59 Q329 107 329 202 L329 690 L351 690 L351 202 Q351 98 303 44 Q255 -10 166 -10 Z M453 773 L433 773 L325 888 L217 773 L197 773 L312 905 L338 905 L453 773 Z " />
<glyph glyph-name="IJ" unicode="&#x132;" horiz-adv-x="683" d="M105 690 L127 690 L127 0 L105 0 L105 690 Z M398 -10 Q365 -10 336 -5 Q307 0 287 9 L287 31 Q306 21 334.5 16 Q363 11 398 11 Q479 11 520 59 Q561 107 561 202 L561 690 L583 690 L583 202 Q583 98 535 44 Q487 -10 398 -10 Z " />
<glyph glyph-name="Kcommaaccent" unicode="&#x136;" horiz-adv-x="639" d="M604 0 L577 0 L252 351 L127 217 L127 0 L105 0 L105 690 L127 690 L127 243 L541 690 L568 690 L266 366 L604 0 Z M296 -134 L296 -60 L334 -60 L334 -128 Q334 -148 323 -167.5 Q312 -187 297 -197 L289 -188 Q301 -177 308 -162.5 Q315 -148 315 -134 L296 -134 Z " />
<glyph glyph-name="Lacute" unicode="&#x139;" horiz-adv-x="611" d="M105 690 L127 690 L127 21 L541 21 L541 0 L105 0 L105 690 Z M137 773 L115 773 L228 905 L256 905 L137 773 Z " />
<glyph glyph-name="Lcaron" unicode="&#x13d;" horiz-adv-x="611" d="M105 690 L127 690 L127 21 L541 21 L541 0 L105 0 L105 690 Z M266 636 L266 710 L304 710 L304 642 Q304 618 294.5 596.5 Q285 575 267 558 L259 567 Q271 580 278 599 Q285 618 285 636 L266 636 Z " />
<glyph glyph-name="Lcommaaccent" unicode="&#x13b;" horiz-adv-x="611" d="M105 690 L127 690 L127 21 L541 21 L541 0 L105 0 L105 690 Z M298 -134 L298 -60 L336 -60 L336 -128 Q336 -148 325 -167.5 Q314 -187 299 -197 L291 -188 Q303 -177 310 -162.5 Q317 -148 317 -134 L298 -134 Z " />
<glyph glyph-name="Ldot" unicode="&#x13f;" horiz-adv-x="611" d="M105 690 L127 690 L127 21 L541 21 L541 0 L105 0 L105 690 Z M377 305 L377 379 L415 379 L415 305 L377 305 Z " />
<glyph glyph-name="Ntilde" unicode="&#xd1;" horiz-adv-x="750" d="M645 0 L623 0 L127 653 L127 0 L105 0 L105 690 L127 690 L623 37 L623 690 L645 690 L645 0 Z M390 845 Q417 821 431.5 814 Q446 807 459 807 Q486 807 503 828 Q520 849 523 886 L545 886 Q543 843 518.5 815 Q494 787 459 787 Q441 787 423 795.5 Q405 804 374 832 Q346 856 331 863.5 Q316 871 302 871 Q271 871 253 849.5 Q235 828 230 787 L208 787 Q213 833 238.5 862 Q264 891 302 891 Q321 891 339.5 882 Q358 873 390 845 Z " />
<glyph glyph-name="Nacute" unicode="&#x143;" horiz-adv-x="750" d="M645 0 L623 0 L127 653 L127 0 L105 0 L105 690 L127 690 L623 37 L623 690 L645 690 L645 0 Z M349 773 L327 773 L440 905 L468 905 L349 773 Z " />
<glyph glyph-name="Ncaron" unicode="&#x147;" horiz-adv-x="750" d="M645 0 L623 0 L127 653 L127 0 L105 0 L105 690 L127 690 L623 37 L623 690 L645 690 L645 0 Z M388 773 L362 773 L247 905 L267 905 L375 790 L483 905 L503 905 L388 773 Z " />
<glyph glyph-name="Ncommaaccent" unicode="&#x145;" horiz-adv-x="750" d="M645 0 L623 0 L127 653 L127 0 L105 0 L105 690 L127 690 L623 37 L623 690 L645 690 L645 0 Z M352 -134 L352 -60 L390 -60 L390 -128 Q390 -148 379 -167.5 Q368 -187 353 -197 L345 -188 Q357 -177 364 -162.5 Q371 -148 371 -134 L352 -134 Z " />
<glyph glyph-name="Oacute" unicode="&#xd3;" horiz-adv-x="794" d="M397 -10 Q252 -10 156 91 Q60 192 60 345 Q60 498 156 599 Q252 700 397 700 Q542 700 638 599 Q734 498 734 345 Q734 192 638 91 Q542 -10 397 -10 Z M397 11 Q532 11 621.5 106 Q711 201 711 345 Q711 489 621.5 584 Q532 679 397 679 Q262 679 172.5 584 Q83 489 83 345 Q83 201 172.5 106 Q262 11 397 11 Z M371 773 L349 773 L462 905 L490 905 L371 773 Z " />
<glyph glyph-name="Ocircumflex" unicode="&#xd4;" horiz-adv-x="794" d="M397 -10 Q252 -10 156 91 Q60 192 60 345 Q60 498 156 599 Q252 700 397 700 Q542 700 638 599 Q734 498 734 345 Q734 192 638 91 Q542 -10 397 -10 Z M397 11 Q532 11 621.5 106 Q711 201 711 345 Q711 489 621.5 584 Q532 679 397 679 Q262 679 172.5 584 Q83 489 83 345 Q83 201 172.5 106 Q262 11 397 11 Z M525 773 L505 773 L397 888 L289 773 L269 773 L384 905 L410 905 L525 773 Z " />
<glyph glyph-name="Odieresis" unicode="&#xd6;" horiz-adv-x="794" d="M397 -10 Q252 -10 156 91 Q60 192 60 345 Q60 498 156 599 Q252 700 397 700 Q542 700 638 599 Q734 498 734 345 Q734 192 638 91 Q542 -10 397 -10 Z M397 11 Q532 11 621.5 106 Q711 201 711 345 Q711 489 621.5 584 Q532 679 397 679 Q262 679 172.5 584 Q83 489 83 345 Q83 201 172.5 106 Q262 11 397 11 Z M488 787 L466 787 L466 910 L488 910 L488 787 Z M328 787 L306 787 L306 910 L328 910 L328 787 Z " />
<glyph glyph-name="Ograve" unicode="&#xd2;" horiz-adv-x="794" d="M397 -10 Q252 -10 156 91 Q60 192 60 345 Q60 498 156 599 Q252 700 397 700 Q542 700 638 599 Q734 498 734 345 Q734 192 638 91 Q542 -10 397 -10 Z M397 11 Q532 11 621.5 106 Q711 201 711 345 Q711 489 621.5 584 Q532 679 397 679 Q262 679 172.5 584 Q83 489 83 345 Q83 201 172.5 106 Q262 11 397 11 Z M281 905 L309 905 L422 773 L400 773 L281 905 Z " />
<glyph glyph-name="Otilde" unicode="&#xd5;" horiz-adv-x="794" d="M397 -10 Q252 -10 156 91 Q60 192 60 345 Q60 498 156 599 Q252 700 397 700 Q542 700 638 599 Q734 498 734 345 Q734 192 638 91 Q542 -10 397 -10 Z M397 11 Q532 11 621.5 106 Q711 201 711 345 Q711 489 621.5 584 Q532 679 397 679 Q262 679 172.5 584 Q83 489 83 345 Q83 201 172.5 106 Q262 11 397 11 Z M412 845 Q439 821 453.5 814 Q468 807 481 807 Q508 807 525 828 Q542 849 545 886 L567 886 Q565 843 540.5 815 Q516 787 481 787 Q463 787 445 795.5 Q427 804 396 832 Q368 856 353 863.5 Q338 871 324 871 Q293 871 275 849.5 Q257 828 252 787 L230 787 Q235 833 260.5 862 Q286 891 324 891 Q343 891 361.5 882 Q380 873 412 845 Z " />
<glyph glyph-name="Obreve" unicode="&#x14e;" horiz-adv-x="794" d="M397 -10 Q252 -10 156 91 Q60 192 60 345 Q60 498 156 599 Q252 700 397 700 Q542 700 638 599 Q734 498 734 345 Q734 192 638 91 Q542 -10 397 -10 Z M397 11 Q532 11 621.5 106 Q711 201 711 345 Q711 489 621.5 584 Q532 679 397 679 Q262 679 172.5 584 Q83 489 83 345 Q83 201 172.5 106 Q262 11 397 11 Z M395 801 Q444 801 473 826 Q502 851 510 902 L532 902 Q526 845 489.5 812.5 Q453 780 395 780 Q337 780 300.5 812.5 Q264 845 258 902 L280 902 Q288 851 317 826 Q346 801 395 801 Z " />
<glyph glyph-name="Ohungarumlaut" unicode="&#x150;" horiz-adv-x="794" d="M397 -10 Q252 -10 156 91 Q60 192 60 345 Q60 498 156 599 Q252 700 397 700 Q542 700 638 599 Q734 498 734 345 Q734 192 638 91 Q542 -10 397 -10 Z M397 11 Q532 11 621.5 106 Q711 201 711 345 Q711 489 621.5 584 Q532 679 397 679 Q262 679 172.5 584 Q83 489 83 345 Q83 201 172.5 106 Q262 11 397 11 Z M450 773 L430 773 L535 905 L561 905 L450 773 Z M313 773 L293 773 L398 905 L424 905 L313 773 Z " />
<glyph glyph-name="Omacron" unicode="&#x14c;" horiz-adv-x="794" d="M397 -10 Q252 -10 156 91 Q60 192 60 345 Q60 498 156 599 Q252 700 397 700 Q542 700 638 599 Q734 498 734 345 Q734 192 638 91 Q542 -10 397 -10 Z M397 11 Q532 11 621.5 106 Q711 201 711 345 Q711 489 621.5 584 Q532 679 397 679 Q262 679 172.5 584 Q83 489 83 345 Q83 201 172.5 106 Q262 11 397 11 Z M540 830 L254 830 L254 851 L540 851 L540 830 Z " />
<glyph glyph-name="Racute" unicode="&#x154;" horiz-adv-x="649" d="M545 514 Q545 583 493 626 Q441 669 358 669 L127 669 L127 351 L358 351 Q441 351 493 396.5 Q545 442 545 514 Z M599 0 L571 0 L353 330 L127 330 L127 0 L105 0 L105 690 L358 690 Q449 690 508.5 640.5 Q568 591 568 514 Q568 439 515.5 388 Q463 337 380 331 L599 0 Z M284 773 L262 773 L375 905 L403 905 L284 773 Z " />
<glyph glyph-name="Rcaron" unicode="&#x158;" horiz-adv-x="649" d="M545 514 Q545 583 493 626 Q441 669 358 669 L127 669 L127 351 L358 351 Q441 351 493 396.5 Q545 442 545 514 Z M599 0 L571 0 L353 330 L127 330 L127 0 L105 0 L105 690 L358 690 Q449 690 508.5 640.5 Q568 591 568 514 Q568 439 515.5 388 Q463 337 380 331 L599 0 Z M314 773 L288 773 L173 905 L193 905 L301 790 L409 905 L429 905 L314 773 Z " />
<glyph glyph-name="Rcommaaccent" unicode="&#x156;" horiz-adv-x="649" d="M545 514 Q545 583 493 626 Q441 669 358 669 L127 669 L127 351 L358 351 Q441 351 493 396.5 Q545 442 545 514 Z M599 0 L571 0 L353 330 L127 330 L127 0 L105 0 L105 690 L358 690 Q449 690 508.5 640.5 Q568 591 568 514 Q568 439 515.5 388 Q463 337 380 331 L599 0 Z M306 -134 L306 -60 L344 -60 L344 -128 Q344 -148 333 -167.5 Q322 -187 307 -197 L299 -188 Q311 -177 318 -162.5 Q325 -148 325 -134 L306 -134 Z " />
<glyph glyph-name="Scaron" unicode="&#x160;" horiz-adv-x="595" d="M298 -10 Q236 -10 170 9 Q104 28 60 58 L60 84 Q107 51 172 31 Q237 11 297 11 Q395 11 456.5 55.5 Q518 100 518 174 Q518 231 472 271 Q426 311 282 360 Q148 406 106.5 444 Q65 482 65 541 Q65 611 131 655.5 Q197 700 299 700 Q352 700 400.5 687.5 Q449 675 496 650 L496 627 Q451 653 402 666 Q353 679 299 679 Q207 679 147 640.5 Q87 602 87 539 Q87 504 106.5 477.5 Q126 451 169 429 Q190 418 218.5 407 Q247 396 306 376 Q438 332 489 286.5 Q540 241 540 173 Q540 91 472 40.5 Q404 -10 298 -10 Z M310 773 L284 773 L169 905 L189 905 L297 790 L405 905 L425 905 L310 773 Z " />
<glyph glyph-name="Sacute" unicode="&#x15a;" horiz-adv-x="595" d="M298 -10 Q236 -10 170 9 Q104 28 60 58 L60 84 Q107 51 172 31 Q237 11 297 11 Q395 11 456.5 55.5 Q518 100 518 174 Q518 231 472 271 Q426 311 282 360 Q148 406 106.5 444 Q65 482 65 541 Q65 611 131 655.5 Q197 700 299 700 Q352 700 400.5 687.5 Q449 675 496 650 L496 627 Q451 653 402 666 Q353 679 299 679 Q207 679 147 640.5 Q87 602 87 539 Q87 504 106.5 477.5 Q126 451 169 429 Q190 418 218.5 407 Q247 396 306 376 Q438 332 489 286.5 Q540 241 540 173 Q540 91 472 40.5 Q404 -10 298 -10 Z M262 773 L240 773 L353 905 L381 905 L262 773 Z " />
<glyph glyph-name="Scedilla" unicode="&#x15e;" horiz-adv-x="595" d="M382 -128 Q382 -158 357.5 -177 Q333 -196 296 -196 Q269 -196 249.5 -191 Q230 -186 208 -173 L208 -150 Q234 -165 253 -170.5 Q272 -176 296 -176 Q325 -176 342.5 -163.5 Q360 -151 360 -128 Q360 -106 344.5 -95 Q329 -84 298 -84 L252 -84 L270 -9 Q212 -5 155.5 13.5 Q99 32 60 58 L60 84 Q107 51 172 31 Q237 11 297 11 Q395 11 456.5 55.5 Q518 100 518 174 Q518 231 472 271 Q426 311 282 360 Q148 406 106.5 444 Q65 482 65 541 Q65 611 131 655.5 Q197 700 299 700 Q352 700 400.5 687.5 Q449 675 496 650 L496 627 Q451 653 402 666 Q353 679 299 679 Q207 679 147 640.5 Q87 602 87 539 Q87 504 106.5 477.5 Q126 451 169 429 Q190 418 218.5 407 Q247 396 306 376 Q438 332 489 286.5 Q540 241 540 173 Q540 91 472 40.5 Q404 -10 298 -10 Q295 -10 292.5 -10 Q290 -10 287 -10 L274 -64 L300 -64 Q339 -64 360.5 -81 Q382 -98 382 -128 Z " />
<glyph glyph-name="Scircumflex" unicode="&#x15c;" horiz-adv-x="595" d="M298 -10 Q236 -10 170 9 Q104 28 60 58 L60 84 Q107 51 172 31 Q237 11 297 11 Q395 11 456.5 55.5 Q518 100 518 174 Q518 231 472 271 Q426 311 282 360 Q148 406 106.5 444 Q65 482 65 541 Q65 611 131 655.5 Q197 700 299 700 Q352 700 400.5 687.5 Q449 675 496 650 L496 627 Q451 653 402 666 Q353 679 299 679 Q207 679 147 640.5 Q87 602 87 539 Q87 504 106.5 477.5 Q126 451 169 429 Q190 418 218.5 407 Q247 396 306 376 Q438 332 489 286.5 Q540 241 540 173 Q540 91 472 40.5 Q404 -10 298 -10 Z M425 773 L405 773 L297 888 L189 773 L169 773 L284 905 L310 905 L425 773 Z " />
<glyph glyph-name="uni0218" unicode="&#x218;" horiz-adv-x="595" d="M298 -10 Q236 -10 170 9 Q104 28 60 58 L60 84 Q107 51 172 31 Q237 11 297 11 Q395 11 456.5 55.5 Q518 100 518 174 Q518 231 472 271 Q426 311 282 360 Q148 406 106.5 444 Q65 482 65 541 Q65 611 131 655.5 Q197 700 299 700 Q352 700 400.5 687.5 Q449 675 496 650 L496 627 Q451 653 402 666 Q353 679 299 679 Q207 679 147 640.5 Q87 602 87 539 Q87 504 106.5 477.5 Q126 451 169 429 Q190 418 218.5 407 Q247 396 306 376 Q438 332 489 286.5 Q540 241 540 173 Q540 91 472 40.5 Q404 -10 298 -10 Z M274 -134 L274 -60 L312 -60 L312 -128 Q312 -148 301 -167.5 Q290 -187 275 -197 L267 -188 Q279 -177 286 -162.5 Q293 -148 293 -134 L274 -134 Z " />
<glyph glyph-name="Tbar" unicode="&#x166;" horiz-adv-x="584" d="M465 397 L465 376 L303 376 L303 0 L281 0 L281 376 L119 376 L119 397 L281 397 L281 669 L35 669 L35 690 L549 690 L549 669 L303 669 L303 397 L465 397 Z " />
<glyph glyph-name="Tcaron" unicode="&#x164;" horiz-adv-x="584" d="M549 690 L549 669 L303 669 L303 0 L281 0 L281 669 L35 669 L35 690 L549 690 Z M305 773 L279 773 L164 905 L184 905 L292 790 L400 905 L420 905 L305 773 Z " />
<glyph glyph-name="uni0162" unicode="&#x162;" horiz-adv-x="584" d="M549 690 L549 669 L303 669 L303 0 L281 0 L281 669 L35 669 L35 690 L549 690 Z M276 -134 L276 -60 L314 -60 L314 -128 Q314 -148 303 -167.5 Q292 -187 277 -197 L269 -188 Q281 -177 288 -162.5 Q295 -148 295 -134 L276 -134 Z " />
<glyph glyph-name="uni021A" unicode="&#x21a;" horiz-adv-x="584" d="M549 690 L549 669 L303 669 L303 0 L281 0 L281 669 L35 669 L35 690 L549 690 Z M276 -134 L276 -60 L314 -60 L314 -128 Q314 -148 303 -167.5 Q292 -187 277 -197 L269 -188 Q281 -177 288 -162.5 Q295 -148 295 -134 L276 -134 Z " />
<glyph glyph-name="Uacute" unicode="&#xda;" horiz-adv-x="740" d="M618 264 L618 690 L640 690 L640 264 Q640 139 567 64.5 Q494 -10 370 -10 Q246 -10 173 64.5 Q100 139 100 264 L100 690 L122 690 L122 264 Q122 148 189 79.5 Q256 11 370 11 Q484 11 551 79.5 Q618 148 618 264 Z M346 773 L324 773 L437 905 L465 905 L346 773 Z " />
<glyph glyph-name="Ucircumflex" unicode="&#xdb;" horiz-adv-x="740" d="M618 264 L618 690 L640 690 L640 264 Q640 139 567 64.5 Q494 -10 370 -10 Q246 -10 173 64.5 Q100 139 100 264 L100 690 L122 690 L122 264 Q122 148 189 79.5 Q256 11 370 11 Q484 11 551 79.5 Q618 148 618 264 Z M498 773 L478 773 L370 888 L262 773 L242 773 L357 905 L383 905 L498 773 Z " />
<glyph glyph-name="Udieresis" unicode="&#xdc;" horiz-adv-x="740" d="M618 264 L618 690 L640 690 L640 264 Q640 139 567 64.5 Q494 -10 370 -10 Q246 -10 173 64.5 Q100 139 100 264 L100 690 L122 690 L122 264 Q122 148 189 79.5 Q256 11 370 11 Q484 11 551 79.5 Q618 148 618 264 Z M461 787 L439 787 L439 910 L461 910 L461 787 Z M301 787 L279 787 L279 910 L301 910 L301 787 Z " />
<glyph glyph-name="Ugrave" unicode="&#xd9;" horiz-adv-x="740" d="M618 264 L618 690 L640 690 L640 264 Q640 139 567 64.5 Q494 -10 370 -10 Q246 -10 173 64.5 Q100 139 100 264 L100 690 L122 690 L122 264 Q122 148 189 79.5 Q256 11 370 11 Q484 11 551 79.5 Q618 148 618 264 Z M277 905 L305 905 L418 773 L396 773 L277 905 Z " />
<glyph glyph-name="Ubreve" unicode="&#x16c;" horiz-adv-x="740" d="M618 264 L618 690 L640 690 L640 264 Q640 139 567 64.5 Q494 -10 370 -10 Q246 -10 173 64.5 Q100 139 100 264 L100 690 L122 690 L122 264 Q122 148 189 79.5 Q256 11 370 11 Q484 11 551 79.5 Q618 148 618 264 Z M368 801 Q417 801 446 826 Q475 851 483 902 L505 902 Q499 845 462.5 812.5 Q426 780 368 780 Q310 780 273.5 812.5 Q237 845 231 902 L253 902 Q261 851 290 826 Q319 801 368 801 Z " />
<glyph glyph-name="Uhungarumlaut" unicode="&#x170;" horiz-adv-x="740" d="M618 264 L618 690 L640 690 L640 264 Q640 139 567 64.5 Q494 -10 370 -10 Q246 -10 173 64.5 Q100 139 100 264 L100 690 L122 690 L122 264 Q122 148 189 79.5 Q256 11 370 11 Q484 11 551 79.5 Q618 148 618 264 Z M417 773 L397 773 L502 905 L528 905 L417 773 Z M280 773 L260 773 L365 905 L391 905 L280 773 Z " />
<glyph glyph-name="Umacron" unicode="&#x16a;" horiz-adv-x="740" d="M618 264 L618 690 L640 690 L640 264 Q640 139 567 64.5 Q494 -10 370 -10 Q246 -10 173 64.5 Q100 139 100 264 L100 690 L122 690 L122 264 Q122 148 189 79.5 Q256 11 370 11 Q484 11 551 79.5 Q618 148 618 264 Z M513 830 L227 830 L227 851 L513 851 L513 830 Z " />
<glyph glyph-name="Uogonek" unicode="&#x172;" horiz-adv-x="740" d="M415 -203 Q375 -203 348 -181.5 Q321 -160 321 -126 Q321 -89 345.5 -61 Q370 -33 428 -5 Q412 -8 397.5 -9 Q383 -10 370 -10 Q246 -10 173 64.5 Q100 139 100 264 L100 690 L122 690 L122 264 Q122 148 189 79.5 Q256 11 370 11 Q484 11 551 79.5 Q618 148 618 264 L618 690 L640 690 L640 264 Q640 170 597.5 103 Q555 36 479 8 Q393 -38 368.5 -64.5 Q344 -91 344 -121 Q344 -150 366 -166.5 Q388 -183 422 -183 Q441 -183 460.5 -176.5 Q480 -170 496 -158 L496 -176 Q474 -191 455.5 -197 Q437 -203 415 -203 Z " />
<glyph glyph-name="Uring" unicode="&#x16e;" horiz-adv-x="740" d="M618 264 L618 690 L640 690 L640 264 Q640 139 567 64.5 Q494 -10 370 -10 Q246 -10 173 64.5 Q100 139 100 264 L100 690 L122 690 L122 264 Q122 148 189 79.5 Q256 11 370 11 Q484 11 551 79.5 Q618 148 618 264 Z M286 843 Q286 878 310.5 902.5 Q335 927 371 927 Q405 927 429.5 902.5 Q454 878 454 843 Q454 807 430 782.5 Q406 758 371 758 Q335 758 310.5 782.5 Q286 807 286 843 Z M307 843 Q307 814 325 796 Q343 778 371 778 Q398 778 415.5 796.5 Q433 815 433 843 Q433 871 415.5 889 Q398 907 371 907 Q343 907 325 889 Q307 871 307 843 Z " />
<glyph glyph-name="Utilde" unicode="&#x168;" horiz-adv-x="740" d="M618 264 L618 690 L640 690 L640 264 Q640 139 567 64.5 Q494 -10 370 -10 Q246 -10 173 64.5 Q100 139 100 264 L100 690 L122 690 L122 264 Q122 148 189 79.5 Q256 11 370 11 Q484 11 551 79.5 Q618 148 618 264 Z M385 845 Q412 821 426.5 814 Q441 807 454 807 Q481 807 498 828 Q515 849 518 886 L540 886 Q538 843 513.5 815 Q489 787 454 787 Q436 787 418 795.5 Q400 804 369 832 Q341 856 326 863.5 Q311 871 297 871 Q266 871 248 849.5 Q230 828 225 787 L203 787 Q208 833 233.5 862 Q259 891 297 891 Q316 891 334.5 882 Q353 873 385 845 Z " />
<glyph glyph-name="Wacute" unicode="&#x1e82;" horiz-adv-x="1032" d="M744 22 L994 690 L1017 690 L757 0 L732 0 L518 537 L306 0 L281 0 L15 690 L38 690 L294 22 L505 561 L532 561 L744 22 Z M490 773 L468 773 L581 905 L609 905 L490 773 Z " />
<glyph glyph-name="Wcircumflex" unicode="&#x174;" horiz-adv-x="1032" d="M744 22 L994 690 L1017 690 L757 0 L732 0 L518 537 L306 0 L281 0 L15 690 L38 690 L294 22 L505 561 L532 561 L744 22 Z M644 773 L624 773 L516 888 L408 773 L388 773 L503 905 L529 905 L644 773 Z " />
<glyph glyph-name="Wdieresis" unicode="&#x1e84;" horiz-adv-x="1032" d="M744 22 L994 690 L1017 690 L757 0 L732 0 L518 537 L306 0 L281 0 L15 690 L38 690 L294 22 L505 561 L532 561 L744 22 Z M607 787 L585 787 L585 910 L607 910 L607 787 Z M447 787 L425 787 L425 910 L447 910 L447 787 Z " />
<glyph glyph-name="Wgrave" unicode="&#x1e80;" horiz-adv-x="1032" d="M744 22 L994 690 L1017 690 L757 0 L732 0 L518 537 L306 0 L281 0 L15 690 L38 690 L294 22 L505 561 L532 561 L744 22 Z M400 905 L428 905 L541 773 L519 773 L400 905 Z " />
<glyph glyph-name="Yacute" unicode="&#xdd;" horiz-adv-x="638" d="M594 690 L618 690 L330 296 L330 0 L308 0 L308 296 L20 690 L45 690 L319 316 L594 690 Z M303 773 L281 773 L394 905 L422 905 L303 773 Z " />
<glyph glyph-name="Ydieresis" unicode="&#x178;" horiz-adv-x="638" d="M594 690 L618 690 L330 296 L330 0 L308 0 L308 296 L20 690 L45 690 L319 316 L594 690 Z M410 787 L388 787 L388 910 L410 910 L410 787 Z M250 787 L228 787 L228 910 L250 910 L250 787 Z " />
<glyph glyph-name="Ycircumflex" unicode="&#x176;" horiz-adv-x="638" d="M594 690 L618 690 L330 296 L330 0 L308 0 L308 296 L20 690 L45 690 L319 316 L594 690 Z M447 773 L427 773 L319 888 L211 773 L191 773 L306 905 L332 905 L447 773 Z " />
<glyph glyph-name="Ygrave" unicode="&#x1ef2;" horiz-adv-x="638" d="M594 690 L618 690 L330 296 L330 0 L308 0 L308 296 L20 690 L45 690 L319 316 L594 690 Z M213 905 L241 905 L354 773 L332 773 L213 905 Z " />
<glyph glyph-name="Zcaron" unicode="&#x17d;" horiz-adv-x="604" d="M559 0 L45 0 L45 21 L520 654 L49 654 L49 675 L549 675 L549 654 L72 21 L559 21 L559 0 Z M315 773 L289 773 L174 905 L194 905 L302 790 L410 905 L430 905 L315 773 Z " />
<glyph glyph-name="Zacute" unicode="&#x179;" horiz-adv-x="604" d="M559 0 L45 0 L45 21 L520 654 L49 654 L49 675 L549 675 L549 654 L72 21 L559 21 L559 0 Z M276 773 L254 773 L367 905 L395 905 L276 773 Z " />
<glyph glyph-name="Zdotaccent" unicode="&#x17b;" horiz-adv-x="604" d="M559 0 L45 0 L45 21 L520 654 L49 654 L49 675 L549 675 L549 654 L72 21 L559 21 L559 0 Z M291 910 L313 910 L313 787 L291 787 L291 910 Z " />
<glyph glyph-name="aacute" unicode="&#xe1;" horiz-adv-x="592" d="M257 11 Q322 11 377 45 Q432 79 470 143 L470 232 Q419 270 364.5 290 Q310 310 254 310 Q173 310 128 271 Q83 232 83 164 Q83 96 132.5 53.5 Q182 11 257 11 Z M116 445 L116 468 Q151 492 193.5 503.5 Q236 515 286 515 Q390 515 441 464 Q492 413 492 309 L492 0 L470 0 L470 112 Q433 55 375.5 22.5 Q318 -10 254 -10 Q169 -10 114.5 38.5 Q60 87 60 163 Q60 240 112 285.5 Q164 331 253 331 Q308 331 362.5 312 Q417 293 470 256 L470 309 Q470 403 424.5 448.5 Q379 494 286 494 Q238 494 196 482 Q154 470 116 445 Z M260 588 L238 588 L351 720 L379 720 L260 588 Z " />
<glyph glyph-name="acircumflex" unicode="&#xe2;" horiz-adv-x="592" d="M257 11 Q322 11 377 45 Q432 79 470 143 L470 232 Q419 270 364.5 290 Q310 310 254 310 Q173 310 128 271 Q83 232 83 164 Q83 96 132.5 53.5 Q182 11 257 11 Z M116 445 L116 468 Q151 492 193.5 503.5 Q236 515 286 515 Q390 515 441 464 Q492 413 492 309 L492 0 L470 0 L470 112 Q433 55 375.5 22.5 Q318 -10 254 -10 Q169 -10 114.5 38.5 Q60 87 60 163 Q60 240 112 285.5 Q164 331 253 331 Q308 331 362.5 312 Q417 293 470 256 L470 309 Q470 403 424.5 448.5 Q379 494 286 494 Q238 494 196 482 Q154 470 116 445 Z M424 588 L404 588 L296 703 L188 588 L168 588 L283 720 L309 720 L424 588 Z " />
<glyph glyph-name="adieresis" unicode="&#xe4;" horiz-adv-x="592" d="M257 11 Q322 11 377 45 Q432 79 470 143 L470 232 Q419 270 364.5 290 Q310 310 254 310 Q173 310 128 271 Q83 232 83 164 Q83 96 132.5 53.5 Q182 11 257 11 Z M116 445 L116 468 Q151 492 193.5 503.5 Q236 515 286 515 Q390 515 441 464 Q492 413 492 309 L492 0 L470 0 L470 112 Q433 55 375.5 22.5 Q318 -10 254 -10 Q169 -10 114.5 38.5 Q60 87 60 163 Q60 240 112 285.5 Q164 331 253 331 Q308 331 362.5 312 Q417 293 470 256 L470 309 Q470 403 424.5 448.5 Q379 494 286 494 Q238 494 196 482 Q154 470 116 445 Z M387 602 L365 602 L365 725 L387 725 L387 602 Z M227 602 L205 602 L205 725 L227 725 L227 602 Z " />
<glyph glyph-name="agrave" unicode="&#xe0;" horiz-adv-x="592" d="M257 11 Q322 11 377 45 Q432 79 470 143 L470 232 Q419 270 364.5 290 Q310 310 254 310 Q173 310 128 271 Q83 232 83 164 Q83 96 132.5 53.5 Q182 11 257 11 Z M116 445 L116 468 Q151 492 193.5 503.5 Q236 515 286 515 Q390 515 441 464 Q492 413 492 309 L492 0 L470 0 L470 112 Q433 55 375.5 22.5 Q318 -10 254 -10 Q169 -10 114.5 38.5 Q60 87 60 163 Q60 240 112 285.5 Q164 331 253 331 Q308 331 362.5 312 Q417 293 470 256 L470 309 Q470 403 424.5 448.5 Q379 494 286 494 Q238 494 196 482 Q154 470 116 445 Z M190 720 L218 720 L331 588 L309 588 L190 720 Z " />
<glyph glyph-name="aring" unicode="&#xe5;" horiz-adv-x="592" d="M257 11 Q322 11 377 45 Q432 79 470 143 L470 232 Q419 270 364.5 290 Q310 310 254 310 Q173 310 128 271 Q83 232 83 164 Q83 96 132.5 53.5 Q182 11 257 11 Z M116 445 L116 468 Q151 492 193.5 503.5 Q236 515 286 515 Q390 515 441 464 Q492 413 492 309 L492 0 L470 0 L470 112 Q433 55 375.5 22.5 Q318 -10 254 -10 Q169 -10 114.5 38.5 Q60 87 60 163 Q60 240 112 285.5 Q164 331 253 331 Q308 331 362.5 312 Q417 293 470 256 L470 309 Q470 403 424.5 448.5 Q379 494 286 494 Q238 494 196 482 Q154 470 116 445 Z M212 658 Q212 693 236.5 717.5 Q261 742 297 742 Q331 742 355.5 717.5 Q380 693 380 658 Q380 622 356 597.5 Q332 573 297 573 Q261 573 236.5 597.5 Q212 622 212 658 Z M233 658 Q233 629 251 611 Q269 593 297 593 Q324 593 341.5 611.5 Q359 630 359 658 Q359 686 341.5 704 Q324 722 297 722 Q269 722 251 704 Q233 686 233 658 Z " />
<glyph glyph-name="atilde" unicode="&#xe3;" horiz-adv-x="592" d="M257 11 Q322 11 377 45 Q432 79 470 143 L470 232 Q419 270 364.5 290 Q310 310 254 310 Q173 310 128 271 Q83 232 83 164 Q83 96 132.5 53.5 Q182 11 257 11 Z M116 445 L116 468 Q151 492 193.5 503.5 Q236 515 286 515 Q390 515 441 464 Q492 413 492 309 L492 0 L470 0 L470 112 Q433 55 375.5 22.5 Q318 -10 254 -10 Q169 -10 114.5 38.5 Q60 87 60 163 Q60 240 112 285.5 Q164 331 253 331 Q308 331 362.5 312 Q417 293 470 256 L470 309 Q470 403 424.5 448.5 Q379 494 286 494 Q238 494 196 482 Q154 470 116 445 Z M311 660 Q338 636 352.5 629 Q367 622 380 622 Q407 622 424 643 Q441 664 444 701 L466 701 Q464 658 439.5 630 Q415 602 380 602 Q362 602 344 610.5 Q326 619 295 647 Q267 671 252 678.5 Q237 686 223 686 Q192 686 174 664.5 Q156 643 151 602 L129 602 Q134 648 159.5 677 Q185 706 223 706 Q242 706 260.5 697 Q279 688 311 660 Z " />
<glyph glyph-name="abreve" unicode="&#x103;" horiz-adv-x="592" d="M257 11 Q322 11 377 45 Q432 79 470 143 L470 232 Q419 270 364.5 290 Q310 310 254 310 Q173 310 128 271 Q83 232 83 164 Q83 96 132.5 53.5 Q182 11 257 11 Z M116 445 L116 468 Q151 492 193.5 503.5 Q236 515 286 515 Q390 515 441 464 Q492 413 492 309 L492 0 L470 0 L470 112 Q433 55 375.5 22.5 Q318 -10 254 -10 Q169 -10 114.5 38.5 Q60 87 60 163 Q60 240 112 285.5 Q164 331 253 331 Q308 331 362.5 312 Q417 293 470 256 L470 309 Q470 403 424.5 448.5 Q379 494 286 494 Q238 494 196 482 Q154 470 116 445 Z M294 616 Q343 616 372 641 Q401 666 409 717 L431 717 Q425 660 388.5 627.5 Q352 595 294 595 Q236 595 199.5 627.5 Q163 660 157 717 L179 717 Q187 666 216 641 Q245 616 294 616 Z " />
<glyph glyph-name="amacron" unicode="&#x101;" horiz-adv-x="592" d="M257 11 Q322 11 377 45 Q432 79 470 143 L470 232 Q419 270 364.5 290 Q310 310 254 310 Q173 310 128 271 Q83 232 83 164 Q83 96 132.5 53.5 Q182 11 257 11 Z M116 445 L116 468 Q151 492 193.5 503.5 Q236 515 286 515 Q390 515 441 464 Q492 413 492 309 L492 0 L470 0 L470 112 Q433 55 375.5 22.5 Q318 -10 254 -10 Q169 -10 114.5 38.5 Q60 87 60 163 Q60 240 112 285.5 Q164 331 253 331 Q308 331 362.5 312 Q417 293 470 256 L470 309 Q470 403 424.5 448.5 Q379 494 286 494 Q238 494 196 482 Q154 470 116 445 Z M439 645 L153 645 L153 666 L439 666 L439 645 Z " />
<glyph glyph-name="aogonek" unicode="&#x105;" horiz-adv-x="592" d="M320 -126 Q320 -91 349 -62.5 Q378 -34 470 6 L470 112 Q433 55 375.5 22.5 Q318 -10 254 -10 Q169 -10 114.5 38.5 Q60 87 60 163 Q60 240 112 285.5 Q164 331 253 331 Q308 331 362.5 312 Q417 293 470 256 L470 309 Q470 403 424.5 448.5 Q379 494 286 494 Q238 494 196 482 Q154 470 116 445 L116 468 Q151 492 193.5 503.5 Q236 515 286 515 Q390 515 441 464 Q492 413 492 309 L492 0 L491 0 Q393 -46 368 -69.5 Q343 -93 343 -121 Q343 -150 365 -166.5 Q387 -183 421 -183 Q440 -183 459.5 -176.5 Q479 -170 495 -158 L495 -176 Q473 -191 454.5 -197 Q436 -203 414 -203 Q374 -203 347 -181.5 Q320 -160 320 -126 Z M257 11 Q322 11 377 45 Q432 79 470 143 L470 232 Q419 270 364.5 290 Q310 310 254 310 Q173 310 128 271 Q83 232 83 164 Q83 96 132.5 53.5 Q182 11 257 11 Z " />
<glyph glyph-name="ccedilla" unicode="&#xe7;" horiz-adv-x="529" d="M388 -128 Q388 -158 363.5 -177 Q339 -196 302 -196 Q275 -196 255.5 -191 Q236 -186 214 -173 L214 -150 Q240 -165 259 -170.5 Q278 -176 302 -176 Q331 -176 348.5 -163.5 Q366 -151 366 -128 Q366 -106 350.5 -95 Q335 -84 304 -84 L258 -84 L276 -8 Q174 2 114.5 71.5 Q55 141 55 252 Q55 372 125.5 443.5 Q196 515 315 515 Q362 515 403.5 501 Q445 487 474 461 L474 436 Q445 464 404.5 479 Q364 494 315 494 Q205 494 141.5 429 Q78 364 78 252 Q78 141 141 76 Q204 11 312 11 Q360 11 400 25.5 Q440 40 479 72 L479 50 Q447 22 402.5 6 Q358 -10 308 -10 Q304 -10 300.5 -10 Q297 -10 293 -10 L280 -64 L306 -64 Q345 -64 366.5 -81 Q388 -98 388 -128 Z " />
<glyph glyph-name="cacute" unicode="&#x107;" horiz-adv-x="529" d="M315 494 Q205 494 141.5 429 Q78 364 78 252 Q78 141 141 76 Q204 11 312 11 Q360 11 400 25.5 Q440 40 479 72 L479 50 Q447 22 402.5 6 Q358 -10 308 -10 Q192 -10 123.5 61 Q55 132 55 252 Q55 372 125.5 443.5 Q196 515 315 515 Q362 515 403.5 501 Q445 487 474 461 L474 436 Q445 464 404.5 479 Q364 494 315 494 Z M272 588 L250 588 L363 720 L391 720 L272 588 Z " />
<glyph glyph-name="ccaron" unicode="&#x10d;" horiz-adv-x="529" d="M315 494 Q205 494 141.5 429 Q78 364 78 252 Q78 141 141 76 Q204 11 312 11 Q360 11 400 25.5 Q440 40 479 72 L479 50 Q447 22 402.5 6 Q358 -10 308 -10 Q192 -10 123.5 61 Q55 132 55 252 Q55 372 125.5 443.5 Q196 515 315 515 Q362 515 403.5 501 Q445 487 474 461 L474 436 Q445 464 404.5 479 Q364 494 315 494 Z M292 588 L266 588 L151 720 L171 720 L279 605 L387 720 L407 720 L292 588 Z " />
<glyph glyph-name="ccircumflex" unicode="&#x109;" horiz-adv-x="529" d="M315 494 Q205 494 141.5 429 Q78 364 78 252 Q78 141 141 76 Q204 11 312 11 Q360 11 400 25.5 Q440 40 479 72 L479 50 Q447 22 402.5 6 Q358 -10 308 -10 Q192 -10 123.5 61 Q55 132 55 252 Q55 372 125.5 443.5 Q196 515 315 515 Q362 515 403.5 501 Q445 487 474 461 L474 436 Q445 464 404.5 479 Q364 494 315 494 Z M415 588 L395 588 L287 703 L179 588 L159 588 L274 720 L300 720 L415 588 Z " />
<glyph glyph-name="cdotaccent" unicode="&#x10b;" horiz-adv-x="529" d="M315 494 Q205 494 141.5 429 Q78 364 78 252 Q78 141 141 76 Q204 11 312 11 Q360 11 400 25.5 Q440 40 479 72 L479 50 Q447 22 402.5 6 Q358 -10 308 -10 Q192 -10 123.5 61 Q55 132 55 252 Q55 372 125.5 443.5 Q196 515 315 515 Q362 515 403.5 501 Q445 487 474 461 L474 436 Q445 464 404.5 479 Q364 494 315 494 Z M272 725 L294 725 L294 602 L272 602 L272 725 Z " />
<glyph glyph-name="dcaron" unicode="&#x10f;" horiz-adv-x="671" d="M527 154 L527 351 Q489 420 430.5 457 Q372 494 302 494 Q205 494 141.5 426 Q78 358 78 252 Q78 146 141.5 78.5 Q205 11 302 11 Q372 11 430.5 48 Q489 85 527 154 Z M527 0 L527 120 Q487 57 429 23.5 Q371 -10 302 -10 Q195 -10 125 63.5 Q55 137 55 252 Q55 367 125 441 Q195 515 302 515 Q371 515 429 481.5 Q487 448 527 385 L527 734 L549 740 L549 0 L527 0 Z M643 636 L643 710 L681 710 L681 642 Q681 618 671.5 596.5 Q662 575 644 558 L636 567 Q648 580 655 599 Q662 618 662 636 L643 636 Z " />
<glyph glyph-name="dslash" unicode="&#x111;" horiz-adv-x="649" d="M527 154 L527 351 Q489 420 430.5 457 Q372 494 302 494 Q205 494 141.5 426 Q78 358 78 252 Q78 146 141.5 78.5 Q205 11 302 11 Q372 11 430.5 48 Q489 85 527 154 Z M527 0 L527 120 Q487 57 429 23.5 Q371 -10 302 -10 Q195 -10 125 63.5 Q55 137 55 252 Q55 367 125 441 Q195 515 302 515 Q371 515 429 481.5 Q487 448 527 385 L527 615 L323 615 L323 636 L527 636 L527 734 L549 740 L549 636 L609 636 L609 615 L549 615 L549 0 L527 0 Z " />
<glyph glyph-name="eacute" unicode="&#xe9;" horiz-adv-x="577" d="M301 494 Q209 494 146.5 436 Q84 378 78 282 L504 282 Q505 380 448.5 437 Q392 494 301 494 Z M480 58 L480 35 Q450 14 408 2 Q366 -10 326 -10 Q208 -10 131.5 67 Q55 144 55 261 Q55 373 124 444 Q193 515 301 515 Q401 515 463 453 Q525 391 527 289 Q527 279 527 272.5 Q527 266 526 262 L77 262 Q77 152 147.5 81.5 Q218 11 327 11 Q368 11 409 23.5 Q450 36 480 58 Z M281 588 L259 588 L372 720 L400 720 L281 588 Z " />
<glyph glyph-name="ecircumflex" unicode="&#xea;" horiz-adv-x="577" d="M301 494 Q209 494 146.5 436 Q84 378 78 282 L504 282 Q505 380 448.5 437 Q392 494 301 494 Z M480 58 L480 35 Q450 14 408 2 Q366 -10 326 -10 Q208 -10 131.5 67 Q55 144 55 261 Q55 373 124 444 Q193 515 301 515 Q401 515 463 453 Q525 391 527 289 Q527 279 527 272.5 Q527 266 526 262 L77 262 Q77 152 147.5 81.5 Q218 11 327 11 Q368 11 409 23.5 Q450 36 480 58 Z M416 588 L396 588 L288 703 L180 588 L160 588 L275 720 L301 720 L416 588 Z " />
<glyph glyph-name="edieresis" unicode="&#xeb;" horiz-adv-x="577" d="M301 494 Q209 494 146.5 436 Q84 378 78 282 L504 282 Q505 380 448.5 437 Q392 494 301 494 Z M480 58 L480 35 Q450 14 408 2 Q366 -10 326 -10 Q208 -10 131.5 67 Q55 144 55 261 Q55 373 124 444 Q193 515 301 515 Q401 515 463 453 Q525 391 527 289 Q527 279 527 272.5 Q527 266 526 262 L77 262 Q77 152 147.5 81.5 Q218 11 327 11 Q368 11 409 23.5 Q450 36 480 58 Z M379 602 L357 602 L357 725 L379 725 L379 602 Z M219 602 L197 602 L197 725 L219 725 L219 602 Z " />
<glyph glyph-name="egrave" unicode="&#xe8;" horiz-adv-x="577" d="M301 494 Q209 494 146.5 436 Q84 378 78 282 L504 282 Q505 380 448.5 437 Q392 494 301 494 Z M480 58 L480 35 Q450 14 408 2 Q366 -10 326 -10 Q208 -10 131.5 67 Q55 144 55 261 Q55 373 124 444 Q193 515 301 515 Q401 515 463 453 Q525 391 527 289 Q527 279 527 272.5 Q527 266 526 262 L77 262 Q77 152 147.5 81.5 Q218 11 327 11 Q368 11 409 23.5 Q450 36 480 58 Z M197 720 L225 720 L338 588 L316 588 L197 720 Z " />
<glyph glyph-name="ebreve" unicode="&#x115;" horiz-adv-x="577" d="M301 494 Q209 494 146.5 436 Q84 378 78 282 L504 282 Q505 380 448.5 437 Q392 494 301 494 Z M480 58 L480 35 Q450 14 408 2 Q366 -10 326 -10 Q208 -10 131.5 67 Q55 144 55 261 Q55 373 124 444 Q193 515 301 515 Q401 515 463 453 Q525 391 527 289 Q527 279 527 272.5 Q527 266 526 262 L77 262 Q77 152 147.5 81.5 Q218 11 327 11 Q368 11 409 23.5 Q450 36 480 58 Z M286 616 Q335 616 364 641 Q393 666 401 717 L423 717 Q417 660 380.5 627.5 Q344 595 286 595 Q228 595 191.5 627.5 Q155 660 149 717 L171 717 Q179 666 208 641 Q237 616 286 616 Z " />
<glyph glyph-name="ecaron" unicode="&#x11b;" horiz-adv-x="577" d="M301 494 Q209 494 146.5 436 Q84 378 78 282 L504 282 Q505 380 448.5 437 Q392 494 301 494 Z M480 58 L480 35 Q450 14 408 2 Q366 -10 326 -10 Q208 -10 131.5 67 Q55 144 55 261 Q55 373 124 444 Q193 515 301 515 Q401 515 463 453 Q525 391 527 289 Q527 279 527 272.5 Q527 266 526 262 L77 262 Q77 152 147.5 81.5 Q218 11 327 11 Q368 11 409 23.5 Q450 36 480 58 Z M301 588 L275 588 L160 720 L180 720 L288 605 L396 720 L416 720 L301 588 Z " />
<glyph glyph-name="edotaccent" unicode="&#x117;" horiz-adv-x="577" d="M301 494 Q209 494 146.5 436 Q84 378 78 282 L504 282 Q505 380 448.5 437 Q392 494 301 494 Z M480 58 L480 35 Q450 14 408 2 Q366 -10 326 -10 Q208 -10 131.5 67 Q55 144 55 261 Q55 373 124 444 Q193 515 301 515 Q401 515 463 453 Q525 391 527 289 Q527 279 527 272.5 Q527 266 526 262 L77 262 Q77 152 147.5 81.5 Q218 11 327 11 Q368 11 409 23.5 Q450 36 480 58 Z M277 725 L299 725 L299 602 L277 602 L277 725 Z " />
<glyph glyph-name="emacron" unicode="&#x113;" horiz-adv-x="577" d="M301 494 Q209 494 146.5 436 Q84 378 78 282 L504 282 Q505 380 448.5 437 Q392 494 301 494 Z M480 58 L480 35 Q450 14 408 2 Q366 -10 326 -10 Q208 -10 131.5 67 Q55 144 55 261 Q55 373 124 444 Q193 515 301 515 Q401 515 463 453 Q525 391 527 289 Q527 279 527 272.5 Q527 266 526 262 L77 262 Q77 152 147.5 81.5 Q218 11 327 11 Q368 11 409 23.5 Q450 36 480 58 Z M431 645 L145 645 L145 666 L431 666 L431 645 Z " />
<glyph glyph-name="eogonek" unicode="&#x119;" horiz-adv-x="577" d="M438 -158 L438 -176 Q416 -191 397.5 -197 Q379 -203 357 -203 Q317 -203 290 -181.5 Q263 -160 263 -126 Q263 -91 289 -62 Q315 -33 371 -6 Q361 -8 350 -9 Q339 -10 326 -10 Q208 -10 131.5 67 Q55 144 55 261 Q55 373 124 444 Q193 515 301 515 Q401 515 463 453 Q525 391 527 289 Q527 279 527 272.5 Q527 266 526 262 L77 262 Q77 152 147.5 81.5 Q218 11 327 11 Q368 11 409 23.5 Q450 36 480 58 L480 35 Q475 31 461 24 Q447 17 424 7 Q352 -26 319 -57 Q286 -88 286 -121 Q286 -150 308 -166.5 Q330 -183 364 -183 Q383 -183 402.5 -176.5 Q422 -170 438 -158 Z M301 494 Q209 494 146.5 436 Q84 378 78 282 L504 282 Q505 380 448.5 437 Q392 494 301 494 Z " />
<glyph glyph-name="gbreve" unicode="&#x11f;" horiz-adv-x="649" d="M527 151 L527 354 Q489 421 429.5 457.5 Q370 494 302 494 Q205 494 141.5 426 Q78 358 78 252 Q78 146 141.5 78.5 Q205 11 302 11 Q370 11 428 47 Q486 83 527 151 Z M527 23 L527 120 Q487 57 429 23.5 Q371 -10 302 -10 Q195 -10 125 63.5 Q55 137 55 252 Q55 367 125 441 Q195 515 302 515 Q371 515 429 481.5 Q487 448 527 385 L527 505 L549 505 L549 23 Q549 -86 482.5 -153 Q416 -220 311 -220 Q282 -220 250.5 -213.5 Q219 -207 202 -198 L202 -175 Q223 -186 253 -192.5 Q283 -199 311 -199 Q407 -199 467 -138.5 Q527 -78 527 23 Z M321 616 Q370 616 399 641 Q428 666 436 717 L458 717 Q452 660 415.5 627.5 Q379 595 321 595 Q263 595 226.5 627.5 Q190 660 184 717 L206 717 Q214 666 243 641 Q272 616 321 616 Z " />
<glyph glyph-name="gcircumflex" unicode="&#x11d;" horiz-adv-x="649" d="M527 151 L527 354 Q489 421 429.5 457.5 Q370 494 302 494 Q205 494 141.5 426 Q78 358 78 252 Q78 146 141.5 78.5 Q205 11 302 11 Q370 11 428 47 Q486 83 527 151 Z M527 23 L527 120 Q487 57 429 23.5 Q371 -10 302 -10 Q195 -10 125 63.5 Q55 137 55 252 Q55 367 125 441 Q195 515 302 515 Q371 515 429 481.5 Q487 448 527 385 L527 505 L549 505 L549 23 Q549 -86 482.5 -153 Q416 -220 311 -220 Q282 -220 250.5 -213.5 Q219 -207 202 -198 L202 -175 Q223 -186 253 -192.5 Q283 -199 311 -199 Q407 -199 467 -138.5 Q527 -78 527 23 Z M441 588 L421 588 L313 703 L205 588 L185 588 L300 720 L326 720 L441 588 Z " />
<glyph glyph-name="gcommaaccent" unicode="&#x123;" horiz-adv-x="649" d="M527 151 L527 354 Q489 421 429.5 457.5 Q370 494 302 494 Q205 494 141.5 426 Q78 358 78 252 Q78 146 141.5 78.5 Q205 11 302 11 Q370 11 428 47 Q486 83 527 151 Z M527 23 L527 120 Q487 57 429 23.5 Q371 -10 302 -10 Q195 -10 125 63.5 Q55 137 55 252 Q55 367 125 441 Q195 515 302 515 Q371 515 429 481.5 Q487 448 527 385 L527 505 L549 505 L549 23 Q549 -86 482.5 -153 Q416 -220 311 -220 Q282 -220 250.5 -213.5 Q219 -207 202 -198 L202 -175 Q223 -186 253 -192.5 Q283 -199 311 -199 Q407 -199 467 -138.5 Q527 -78 527 23 Z M325 652 L325 588 L287 588 L287 646 Q287 668 297 689.5 Q307 711 324 725 L332 716 Q321 706 313.5 687 Q306 668 306 652 L325 652 Z " />
<glyph glyph-name="gdotaccent" unicode="&#x121;" horiz-adv-x="649" d="M527 151 L527 354 Q489 421 429.5 457.5 Q370 494 302 494 Q205 494 141.5 426 Q78 358 78 252 Q78 146 141.5 78.5 Q205 11 302 11 Q370 11 428 47 Q486 83 527 151 Z M527 23 L527 120 Q487 57 429 23.5 Q371 -10 302 -10 Q195 -10 125 63.5 Q55 137 55 252 Q55 367 125 441 Q195 515 302 515 Q371 515 429 481.5 Q487 448 527 385 L527 505 L549 505 L549 23 Q549 -86 482.5 -153 Q416 -220 311 -220 Q282 -220 250.5 -213.5 Q219 -207 202 -198 L202 -175 Q223 -186 253 -192.5 Q283 -199 311 -199 Q407 -199 467 -138.5 Q527 -78 527 23 Z M304 725 L326 725 L326 602 L304 602 L304 725 Z " />
<glyph glyph-name="hbar" unicode="&#x127;" horiz-adv-x="612" d="M335 494 Q271 494 214.5 459.5 Q158 425 122 367 L122 0 L100 0 L100 615 L40 615 L40 636 L100 636 L100 734 L122 740 L122 636 L326 636 L326 615 L122 615 L122 393 Q156 449 212.5 482 Q269 515 335 515 Q426 515 471.5 466 Q517 417 517 319 L517 0 L495 0 L495 319 Q495 407 455.5 450.5 Q416 494 335 494 Z " />
<glyph glyph-name="hcircumflex" unicode="&#x125;" horiz-adv-x="612" d="M359 776 L339 776 L231 891 L123 776 L103 776 L218 908 L244 908 L359 776 Z M100 734 L122 740 L122 393 Q156 449 212.5 482 Q269 515 335 515 Q426 515 471.5 466 Q517 417 517 319 L517 0 L495 0 L495 319 Q495 407 455.5 450.5 Q416 494 335 494 Q271 494 214.5 459.5 Q158 425 122 367 L122 0 L100 0 L100 734 Z " />
<glyph glyph-name="iacute" unicode="&#xed;" horiz-adv-x="222" d="M100 505 L122 505 L122 0 L100 0 L100 505 Z M104 588 L82 588 L195 720 L223 720 L104 588 Z " />
<glyph glyph-name="icircumflex" unicode="&#xee;" horiz-adv-x="222" d="M100 505 L122 505 L122 0 L100 0 L100 505 Z M239 588 L219 588 L111 703 L3 588 L-17 588 L98 720 L124 720 L239 588 Z " />
<glyph glyph-name="idieresis" unicode="&#xef;" horiz-adv-x="222" d="M100 505 L122 505 L122 0 L100 0 L100 505 Z M202 602 L180 602 L180 725 L202 725 L202 602 Z M42 602 L20 602 L20 725 L42 725 L42 602 Z " />
<glyph glyph-name="igrave" unicode="&#xec;" horiz-adv-x="222" d="M100 505 L122 505 L122 0 L100 0 L100 505 Z M16 720 L44 720 L157 588 L135 588 L16 720 Z " />
<glyph glyph-name="ibreve" unicode="&#x12d;" horiz-adv-x="222" d="M100 505 L122 505 L122 0 L100 0 L100 505 Z M109 616 Q158 616 187 641 Q216 666 224 717 L246 717 Q240 660 203.5 627.5 Q167 595 109 595 Q51 595 14.5 627.5 Q-22 660 -28 717 L-6 717 Q2 666 31 641 Q60 616 109 616 Z " />
<glyph glyph-name="i.dot" unicode="&#xe166;" horiz-adv-x="222" d="M100 725 L122 725 L122 602 L100 602 L100 725 Z M100 505 L122 505 L122 0 L100 0 L100 505 Z " />
<glyph glyph-name="imacron" unicode="&#x12b;" horiz-adv-x="222" d="M100 505 L122 505 L122 0 L100 0 L100 505 Z M254 645 L-32 645 L-32 666 L254 666 L254 645 Z " />
<glyph glyph-name="iogonek" unicode="&#x12f;" horiz-adv-x="222" d="M100 725 L122 725 L122 602 L100 602 L100 725 Z M-19 -129 Q-19 -93 6.5 -63 Q32 -33 100 4 L100 505 L122 505 L122 -1 Q47 -45 25.5 -70 Q4 -95 4 -124 Q4 -152 21.5 -168 Q39 -184 69 -184 Q87 -184 104 -177.5 Q121 -171 136 -159 L136 -177 Q116 -192 100 -198 Q84 -204 65 -204 Q29 -204 5 -183 Q-19 -162 -19 -129 Z " />
<glyph glyph-name="itilde" unicode="&#x129;" horiz-adv-x="222" d="M100 505 L122 505 L122 0 L100 0 L100 505 Z M126 660 Q153 636 167.5 629 Q182 622 195 622 Q222 622 239 643 Q256 664 259 701 L281 701 Q279 658 254.5 630 Q230 602 195 602 Q177 602 159 610.5 Q141 619 110 647 Q82 671 67 678.5 Q52 686 38 686 Q7 686 -11 664.5 Q-29 643 -34 602 L-56 602 Q-51 648 -25.5 677 Q0 706 38 706 Q57 706 75.5 697 Q94 688 126 660 Z " />
<glyph glyph-name="jcircumflex" unicode="&#x135;" horiz-adv-x="232" d="M2 -199 Q58 -199 84 -164 Q110 -129 110 -54 L110 505 L132 505 L132 -54 Q132 -138 100 -179 Q68 -220 3 -220 Q-6 -220 -15.5 -219 Q-25 -218 -35 -217 L-35 -196 Q-24 -198 -15 -198.5 Q-6 -199 2 -199 Z M244 588 L224 588 L116 703 L8 588 L-12 588 L103 720 L129 720 L244 588 Z " />
<glyph glyph-name="ij" unicode="&#x133;" horiz-adv-x="454" d="M100 725 L122 725 L122 602 L100 602 L100 725 Z M100 505 L122 505 L122 0 L100 0 L100 505 Z M354 602 L332 602 L332 725 L354 725 L354 602 Z M224 -199 Q280 -199 306 -164 Q332 -129 332 -54 L332 505 L354 505 L354 -54 Q354 -138 322 -179 Q290 -220 225 -220 Q216 -220 206.5 -219 Q197 -218 187 -217 L187 -196 Q198 -198 207 -198.5 Q216 -199 224 -199 Z " />
<glyph glyph-name="kcommaaccent" unicode="&#x137;" horiz-adv-x="520" d="M490 0 L463 0 L208 271 L122 188 L122 0 L100 0 L100 734 L122 740 L122 212 L425 505 L452 505 L222 284 L490 0 Z M237 -134 L237 -60 L275 -60 L275 -128 Q275 -148 264 -167.5 Q253 -187 238 -197 L230 -188 Q242 -177 249 -162.5 Q256 -148 256 -134 L237 -134 Z " />
<glyph glyph-name="lacute" unicode="&#x13a;" horiz-adv-x="222" d="M102 787 L80 787 L193 919 L221 919 L102 787 Z M122 740 L122 0 L100 0 L100 734 L122 740 Z " />
<glyph glyph-name="lcaron" unicode="&#x13e;" horiz-adv-x="244" d="M122 740 L122 0 L100 0 L100 734 L122 740 Z M216 636 L216 710 L254 710 L254 642 Q254 618 244.5 596.5 Q235 575 217 558 L209 567 Q221 580 228 599 Q235 618 235 636 L216 636 Z " />
<glyph glyph-name="lcommaaccent" unicode="&#x13c;" horiz-adv-x="222" d="M122 740 L122 0 L100 0 L100 734 L122 740 Z M88 -134 L88 -60 L126 -60 L126 -128 Q126 -148 115 -167.5 Q104 -187 89 -197 L81 -188 Q93 -177 100 -162.5 Q107 -148 107 -134 L88 -134 Z " />
<glyph glyph-name="ldot" unicode="&#x140;" horiz-adv-x="251" d="M122 740 L122 0 L100 0 L100 734 L122 740 Z M213 315 L213 389 L251 389 L251 315 L213 315 Z " />
<glyph glyph-name="ntilde" unicode="&#xf1;" horiz-adv-x="612" d="M100 505 L122 505 L122 391 Q156 447 212 481 Q268 515 335 515 Q426 515 471.5 466 Q517 417 517 319 L517 0 L495 0 L495 319 Q495 407 455.5 450.5 Q416 494 335 494 Q271 494 214.5 459.5 Q158 425 122 365 L122 0 L100 0 L100 505 Z M321 660 Q348 636 362.5 629 Q377 622 390 622 Q417 622 434 643 Q451 664 454 701 L476 701 Q474 658 449.5 630 Q425 602 390 602 Q372 602 354 610.5 Q336 619 305 647 Q277 671 262 678.5 Q247 686 233 686 Q202 686 184 664.5 Q166 643 161 602 L139 602 Q144 648 169.5 677 Q195 706 233 706 Q252 706 270.5 697 Q289 688 321 660 Z " />
<glyph glyph-name="nacute" unicode="&#x144;" horiz-adv-x="612" d="M100 505 L122 505 L122 391 Q156 447 212 481 Q268 515 335 515 Q426 515 471.5 466 Q517 417 517 319 L517 0 L495 0 L495 319 Q495 407 455.5 450.5 Q416 494 335 494 Q271 494 214.5 459.5 Q158 425 122 365 L122 0 L100 0 L100 505 Z M266 588 L244 588 L357 720 L385 720 L266 588 Z " />
<glyph glyph-name="ncaron" unicode="&#x148;" horiz-adv-x="612" d="M100 505 L122 505 L122 391 Q156 447 212 481 Q268 515 335 515 Q426 515 471.5 466 Q517 417 517 319 L517 0 L495 0 L495 319 Q495 407 455.5 450.5 Q416 494 335 494 Q271 494 214.5 459.5 Q158 425 122 365 L122 0 L100 0 L100 505 Z M319 588 L293 588 L178 720 L198 720 L306 605 L414 720 L434 720 L319 588 Z " />
<glyph glyph-name="ncommaaccent" unicode="&#x146;" horiz-adv-x="612" d="M100 505 L122 505 L122 391 Q156 447 212 481 Q268 515 335 515 Q426 515 471.5 466 Q517 417 517 319 L517 0 L495 0 L495 319 Q495 407 455.5 450.5 Q416 494 335 494 Q271 494 214.5 459.5 Q158 425 122 365 L122 0 L100 0 L100 505 Z M283 -134 L283 -60 L321 -60 L321 -128 Q321 -148 310 -167.5 Q299 -187 284 -197 L276 -188 Q288 -177 295 -162.5 Q302 -148 302 -134 L283 -134 Z " />
<glyph glyph-name="oacute" unicode="&#xf3;" horiz-adv-x="616" d="M308 515 Q416 515 488.5 440.5 Q561 366 561 253 Q561 140 488.5 65 Q416 -10 308 -10 Q200 -10 127.5 65 Q55 140 55 253 Q55 366 127.5 440.5 Q200 515 308 515 Z M308 11 Q406 11 472 80 Q538 149 538 253 Q538 357 472 425.5 Q406 494 308 494 Q210 494 144 425.5 Q78 357 78 253 Q78 149 144 80 Q210 11 308 11 Z M274 588 L252 588 L365 720 L393 720 L274 588 Z " />
<glyph glyph-name="ocircumflex" unicode="&#xf4;" horiz-adv-x="616" d="M308 515 Q416 515 488.5 440.5 Q561 366 561 253 Q561 140 488.5 65 Q416 -10 308 -10 Q200 -10 127.5 65 Q55 140 55 253 Q55 366 127.5 440.5 Q200 515 308 515 Z M308 11 Q406 11 472 80 Q538 149 538 253 Q538 357 472 425.5 Q406 494 308 494 Q210 494 144 425.5 Q78 357 78 253 Q78 149 144 80 Q210 11 308 11 Z M436 588 L416 588 L308 703 L200 588 L180 588 L295 720 L321 720 L436 588 Z " />
<glyph glyph-name="odieresis" unicode="&#xf6;" horiz-adv-x="616" d="M308 515 Q416 515 488.5 440.5 Q561 366 561 253 Q561 140 488.5 65 Q416 -10 308 -10 Q200 -10 127.5 65 Q55 140 55 253 Q55 366 127.5 440.5 Q200 515 308 515 Z M308 11 Q406 11 472 80 Q538 149 538 253 Q538 357 472 425.5 Q406 494 308 494 Q210 494 144 425.5 Q78 357 78 253 Q78 149 144 80 Q210 11 308 11 Z M399 602 L377 602 L377 725 L399 725 L399 602 Z M239 602 L217 602 L217 725 L239 725 L239 602 Z " />
<glyph glyph-name="ograve" unicode="&#xf2;" horiz-adv-x="616" d="M308 515 Q416 515 488.5 440.5 Q561 366 561 253 Q561 140 488.5 65 Q416 -10 308 -10 Q200 -10 127.5 65 Q55 140 55 253 Q55 366 127.5 440.5 Q200 515 308 515 Z M308 11 Q406 11 472 80 Q538 149 538 253 Q538 357 472 425.5 Q406 494 308 494 Q210 494 144 425.5 Q78 357 78 253 Q78 149 144 80 Q210 11 308 11 Z M198 720 L226 720 L339 588 L317 588 L198 720 Z " />
<glyph glyph-name="otilde" unicode="&#xf5;" horiz-adv-x="616" d="M308 515 Q416 515 488.5 440.5 Q561 366 561 253 Q561 140 488.5 65 Q416 -10 308 -10 Q200 -10 127.5 65 Q55 140 55 253 Q55 366 127.5 440.5 Q200 515 308 515 Z M308 11 Q406 11 472 80 Q538 149 538 253 Q538 357 472 425.5 Q406 494 308 494 Q210 494 144 425.5 Q78 357 78 253 Q78 149 144 80 Q210 11 308 11 Z M323 660 Q350 636 364.5 629 Q379 622 392 622 Q419 622 436 643 Q453 664 456 701 L478 701 Q476 658 451.5 630 Q427 602 392 602 Q374 602 356 610.5 Q338 619 307 647 Q279 671 264 678.5 Q249 686 235 686 Q204 686 186 664.5 Q168 643 163 602 L141 602 Q146 648 171.5 677 Q197 706 235 706 Q254 706 272.5 697 Q291 688 323 660 Z " />
<glyph glyph-name="obreve" unicode="&#x14f;" horiz-adv-x="616" d="M308 515 Q416 515 488.5 440.5 Q561 366 561 253 Q561 140 488.5 65 Q416 -10 308 -10 Q200 -10 127.5 65 Q55 140 55 253 Q55 366 127.5 440.5 Q200 515 308 515 Z M308 11 Q406 11 472 80 Q538 149 538 253 Q538 357 472 425.5 Q406 494 308 494 Q210 494 144 425.5 Q78 357 78 253 Q78 149 144 80 Q210 11 308 11 Z M306 616 Q355 616 384 641 Q413 666 421 717 L443 717 Q437 660 400.5 627.5 Q364 595 306 595 Q248 595 211.5 627.5 Q175 660 169 717 L191 717 Q199 666 228 641 Q257 616 306 616 Z " />
<glyph glyph-name="ohungarumlaut" unicode="&#x151;" horiz-adv-x="616" d="M308 515 Q416 515 488.5 440.5 Q561 366 561 253 Q561 140 488.5 65 Q416 -10 308 -10 Q200 -10 127.5 65 Q55 140 55 253 Q55 366 127.5 440.5 Q200 515 308 515 Z M308 11 Q406 11 472 80 Q538 149 538 253 Q538 357 472 425.5 Q406 494 308 494 Q210 494 144 425.5 Q78 357 78 253 Q78 149 144 80 Q210 11 308 11 Z M362 588 L342 588 L447 720 L473 720 L362 588 Z M225 588 L205 588 L310 720 L336 720 L225 588 Z " />
<glyph glyph-name="omacron" unicode="&#x14d;" horiz-adv-x="616" d="M308 515 Q416 515 488.5 440.5 Q561 366 561 253 Q561 140 488.5 65 Q416 -10 308 -10 Q200 -10 127.5 65 Q55 140 55 253 Q55 366 127.5 440.5 Q200 515 308 515 Z M308 11 Q406 11 472 80 Q538 149 538 253 Q538 357 472 425.5 Q406 494 308 494 Q210 494 144 425.5 Q78 357 78 253 Q78 149 144 80 Q210 11 308 11 Z M451 645 L165 645 L165 666 L451 666 L451 645 Z " />
<glyph glyph-name="racute" unicode="&#x155;" horiz-adv-x="362" d="M274 515 Q291 515 304.5 512 Q318 509 332 503 L332 481 Q319 487 303.5 490.5 Q288 494 270 494 Q224 494 185 459 Q146 424 122 361 L122 0 L100 0 L100 505 L122 505 L122 395 Q144 451 184 483 Q224 515 274 515 Z M157 588 L135 588 L248 720 L276 720 L157 588 Z " />
<glyph glyph-name="rcaron" unicode="&#x159;" horiz-adv-x="362" d="M274 515 Q291 515 304.5 512 Q318 509 332 503 L332 481 Q319 487 303.5 490.5 Q288 494 270 494 Q224 494 185 459 Q146 424 122 361 L122 0 L100 0 L100 505 L122 505 L122 395 Q144 451 184 483 Q224 515 274 515 Z M214 588 L188 588 L73 720 L93 720 L201 605 L309 720 L329 720 L214 588 Z " />
<glyph glyph-name="rcommaaccent" unicode="&#x157;" horiz-adv-x="362" d="M274 515 Q291 515 304.5 512 Q318 509 332 503 L332 481 Q319 487 303.5 490.5 Q288 494 270 494 Q224 494 185 459 Q146 424 122 361 L122 0 L100 0 L100 505 L122 505 L122 395 Q144 451 184 483 Q224 515 274 515 Z M98 -134 L98 -60 L136 -60 L136 -128 Q136 -148 125 -167.5 Q114 -187 99 -197 L91 -188 Q103 -177 110 -162.5 Q117 -148 117 -134 L98 -134 Z " />
<glyph glyph-name="scaron" unicode="&#x161;" horiz-adv-x="467" d="M240 494 Q166 494 122.5 464 Q79 434 79 381 Q79 347 104 326 Q129 305 237 272 Q351 237 384 207.5 Q417 178 417 128 Q417 63 367.5 26.5 Q318 -10 235 -10 Q181 -10 129.5 6 Q78 22 50 45 L50 71 Q83 44 133.5 27.5 Q184 11 237 11 Q310 11 352 41 Q394 71 394 127 Q394 170 365 195 Q336 220 225 254 Q174 269 153 277 Q132 285 117 293 Q85 309 70.5 330.5 Q56 352 56 382 Q56 443 108.5 479 Q161 515 242 515 Q282 515 320 504.5 Q358 494 393 474 L393 450 Q360 471 321 482.5 Q282 494 240 494 Z M238 588 L212 588 L97 720 L117 720 L225 605 L333 720 L353 720 L238 588 Z " />
<glyph glyph-name="sacute" unicode="&#x15b;" horiz-adv-x="467" d="M240 494 Q166 494 122.5 464 Q79 434 79 381 Q79 347 104 326 Q129 305 237 272 Q351 237 384 207.5 Q417 178 417 128 Q417 63 367.5 26.5 Q318 -10 235 -10 Q181 -10 129.5 6 Q78 22 50 45 L50 71 Q83 44 133.5 27.5 Q184 11 237 11 Q310 11 352 41 Q394 71 394 127 Q394 170 365 195 Q336 220 225 254 Q174 269 153 277 Q132 285 117 293 Q85 309 70.5 330.5 Q56 352 56 382 Q56 443 108.5 479 Q161 515 242 515 Q282 515 320 504.5 Q358 494 393 474 L393 450 Q360 471 321 482.5 Q282 494 240 494 Z M192 588 L170 588 L283 720 L311 720 L192 588 Z " />
<glyph glyph-name="scedilla" unicode="&#x15f;" horiz-adv-x="467" d="M318 -128 Q318 -158 293.5 -177 Q269 -196 232 -196 Q205 -196 185.5 -191 Q166 -186 144 -173 L144 -150 Q170 -165 189 -170.5 Q208 -176 232 -176 Q261 -176 278.5 -163.5 Q296 -151 296 -128 Q296 -106 280.5 -95 Q265 -84 234 -84 L188 -84 L206 -9 Q159 -5 116 10 Q73 25 50 45 L50 71 Q83 44 133.5 27.5 Q184 11 237 11 Q310 11 352 41 Q394 71 394 127 Q394 170 365 195 Q336 220 225 254 Q174 269 153 277 Q132 285 117 293 Q85 309 70.5 330.5 Q56 352 56 382 Q56 443 108.5 479 Q161 515 242 515 Q282 515 320 504.5 Q358 494 393 474 L393 450 Q360 471 321 482.5 Q282 494 240 494 Q166 494 122.5 464 Q79 434 79 381 Q79 347 104 326 Q129 305 237 272 Q351 237 384 207.5 Q417 178 417 128 Q417 63 367.5 26.5 Q318 -10 235 -10 Q232 -10 229 -10 Q226 -10 223 -10 L210 -64 L236 -64 Q275 -64 296.5 -81 Q318 -98 318 -128 Z " />
<glyph glyph-name="scircumflex" unicode="&#x15d;" horiz-adv-x="467" d="M240 494 Q166 494 122.5 464 Q79 434 79 381 Q79 347 104 326 Q129 305 237 272 Q351 237 384 207.5 Q417 178 417 128 Q417 63 367.5 26.5 Q318 -10 235 -10 Q181 -10 129.5 6 Q78 22 50 45 L50 71 Q83 44 133.5 27.5 Q184 11 237 11 Q310 11 352 41 Q394 71 394 127 Q394 170 365 195 Q336 220 225 254 Q174 269 153 277 Q132 285 117 293 Q85 309 70.5 330.5 Q56 352 56 382 Q56 443 108.5 479 Q161 515 242 515 Q282 515 320 504.5 Q358 494 393 474 L393 450 Q360 471 321 482.5 Q282 494 240 494 Z M362 588 L342 588 L234 703 L126 588 L106 588 L221 720 L247 720 L362 588 Z " />
<glyph glyph-name="uni0219" unicode="&#x219;" horiz-adv-x="467" d="M240 494 Q166 494 122.5 464 Q79 434 79 381 Q79 347 104 326 Q129 305 237 272 Q351 237 384 207.5 Q417 178 417 128 Q417 63 367.5 26.5 Q318 -10 235 -10 Q181 -10 129.5 6 Q78 22 50 45 L50 71 Q83 44 133.5 27.5 Q184 11 237 11 Q310 11 352 41 Q394 71 394 127 Q394 170 365 195 Q336 220 225 254 Q174 269 153 277 Q132 285 117 293 Q85 309 70.5 330.5 Q56 352 56 382 Q56 443 108.5 479 Q161 515 242 515 Q282 515 320 504.5 Q358 494 393 474 L393 450 Q360 471 321 482.5 Q282 494 240 494 Z M211 -134 L211 -60 L249 -60 L249 -128 Q249 -148 238 -167.5 Q227 -187 212 -197 L204 -188 Q216 -177 223 -162.5 Q230 -148 230 -134 L211 -134 Z " />
<glyph glyph-name="tbar" unicode="&#x167;" horiz-adv-x="343" d="M293 23 L293 2 Q273 -5 258 -7.5 Q243 -10 227 -10 Q167 -10 137.5 23.5 Q108 57 108 125 L108 300 L15 300 L15 321 L108 321 L108 484 L15 484 L15 505 L108 505 L108 636 L130 642 L130 505 L289 505 L289 484 L130 484 L130 321 L289 321 L289 300 L130 300 L130 125 Q130 67 153.5 39 Q177 11 227 11 Q244 11 261 14 Q278 17 293 23 Z " />
<glyph glyph-name="tcaron" unicode="&#x165;" horiz-adv-x="343" d="M199 636 L199 710 L237 710 L237 642 Q237 618 227.5 596.5 Q218 575 200 558 L192 567 Q204 580 211 599 Q218 618 218 636 L199 636 Z M293 23 L293 2 Q273 -5 258 -7.5 Q243 -10 227 -10 Q167 -10 137.5 23.5 Q108 57 108 125 L108 484 L15 484 L15 505 L108 505 L108 636 L130 642 L130 505 L289 505 L289 484 L130 484 L130 125 Q130 67 153.5 39 Q177 11 227 11 Q244 11 261 14 Q278 17 293 23 Z " />
<glyph glyph-name="uni0163" unicode="&#x163;" horiz-adv-x="343" d="M293 23 L293 2 Q273 -5 258 -7.5 Q243 -10 227 -10 Q167 -10 137.5 23.5 Q108 57 108 125 L108 484 L15 484 L15 505 L108 505 L108 636 L130 642 L130 505 L289 505 L289 484 L130 484 L130 125 Q130 67 153.5 39 Q177 11 227 11 Q244 11 261 14 Q278 17 293 23 Z M149 -134 L149 -60 L187 -60 L187 -128 Q187 -148 176 -167.5 Q165 -187 150 -197 L142 -188 Q154 -177 161 -162.5 Q168 -148 168 -134 L149 -134 Z " />
<glyph glyph-name="uni021B" unicode="&#x21b;" horiz-adv-x="343" d="M293 23 L293 2 Q273 -5 258 -7.5 Q243 -10 227 -10 Q167 -10 137.5 23.5 Q108 57 108 125 L108 484 L15 484 L15 505 L108 505 L108 636 L130 642 L130 505 L289 505 L289 484 L130 484 L130 125 Q130 67 153.5 39 Q177 11 227 11 Q244 11 261 14 Q278 17 293 23 Z M149 -134 L149 -60 L187 -60 L187 -128 Q187 -148 176 -167.5 Q165 -187 150 -197 L142 -188 Q154 -177 161 -162.5 Q168 -148 168 -134 L149 -134 Z " />
<glyph glyph-name="uacute" unicode="&#xfa;" horiz-adv-x="592" d="M492 0 L470 0 L470 116 Q431 55 380 22.5 Q329 -10 270 -10 Q182 -10 138.5 36 Q95 82 95 176 L95 505 L117 505 L117 176 Q117 92 154.5 51.5 Q192 11 270 11 Q328 11 377.5 44 Q427 77 470 143 L470 505 L492 505 L492 0 Z M271 588 L249 588 L362 720 L390 720 L271 588 Z " />
<glyph glyph-name="ucircumflex" unicode="&#xfb;" horiz-adv-x="592" d="M492 0 L470 0 L470 116 Q431 55 380 22.5 Q329 -10 270 -10 Q182 -10 138.5 36 Q95 82 95 176 L95 505 L117 505 L117 176 Q117 92 154.5 51.5 Q192 11 270 11 Q328 11 377.5 44 Q427 77 470 143 L470 505 L492 505 L492 0 Z M424 588 L404 588 L296 703 L188 588 L168 588 L283 720 L309 720 L424 588 Z " />
<glyph glyph-name="udieresis" unicode="&#xfc;" horiz-adv-x="592" d="M492 0 L470 0 L470 116 Q431 55 380 22.5 Q329 -10 270 -10 Q182 -10 138.5 36 Q95 82 95 176 L95 505 L117 505 L117 176 Q117 92 154.5 51.5 Q192 11 270 11 Q328 11 377.5 44 Q427 77 470 143 L470 505 L492 505 L492 0 Z M387 602 L365 602 L365 725 L387 725 L387 602 Z M227 602 L205 602 L205 725 L227 725 L227 602 Z " />
<glyph glyph-name="ugrave" unicode="&#xf9;" horiz-adv-x="592" d="M492 0 L470 0 L470 116 Q431 55 380 22.5 Q329 -10 270 -10 Q182 -10 138.5 36 Q95 82 95 176 L95 505 L117 505 L117 176 Q117 92 154.5 51.5 Q192 11 270 11 Q328 11 377.5 44 Q427 77 470 143 L470 505 L492 505 L492 0 Z M220 720 L248 720 L361 588 L339 588 L220 720 Z " />
<glyph glyph-name="ubreve" unicode="&#x16d;" horiz-adv-x="592" d="M492 0 L470 0 L470 116 Q431 55 380 22.5 Q329 -10 270 -10 Q182 -10 138.5 36 Q95 82 95 176 L95 505 L117 505 L117 176 Q117 92 154.5 51.5 Q192 11 270 11 Q328 11 377.5 44 Q427 77 470 143 L470 505 L492 505 L492 0 Z M294 616 Q343 616 372 641 Q401 666 409 717 L431 717 Q425 660 388.5 627.5 Q352 595 294 595 Q236 595 199.5 627.5 Q163 660 157 717 L179 717 Q187 666 216 641 Q245 616 294 616 Z " />
<glyph glyph-name="uhungarumlaut" unicode="&#x171;" horiz-adv-x="592" d="M492 0 L470 0 L470 116 Q431 55 380 22.5 Q329 -10 270 -10 Q182 -10 138.5 36 Q95 82 95 176 L95 505 L117 505 L117 176 Q117 92 154.5 51.5 Q192 11 270 11 Q328 11 377.5 44 Q427 77 470 143 L470 505 L492 505 L492 0 Z M360 588 L340 588 L445 720 L471 720 L360 588 Z M223 588 L203 588 L308 720 L334 720 L223 588 Z " />
<glyph glyph-name="umacron" unicode="&#x16b;" horiz-adv-x="592" d="M492 0 L470 0 L470 116 Q431 55 380 22.5 Q329 -10 270 -10 Q182 -10 138.5 36 Q95 82 95 176 L95 505 L117 505 L117 176 Q117 92 154.5 51.5 Q192 11 270 11 Q328 11 377.5 44 Q427 77 470 143 L470 505 L492 505 L492 0 Z M439 645 L153 645 L153 666 L439 666 L439 645 Z " />
<glyph glyph-name="uogonek" unicode="&#x173;" horiz-adv-x="592" d="M331 -126 Q331 -91 358.5 -62.5 Q386 -34 470 5 L470 116 Q431 55 380 22.5 Q329 -10 270 -10 Q182 -10 138.5 36 Q95 82 95 176 L95 505 L117 505 L117 176 Q117 92 154.5 51.5 Q192 11 270 11 Q328 11 377.5 44 Q427 77 470 143 L470 505 L492 505 L492 0 Q401 -45 377.5 -69 Q354 -93 354 -121 Q354 -150 376 -166.5 Q398 -183 432 -183 Q451 -183 470.5 -176.5 Q490 -170 506 -158 L506 -176 Q484 -191 465.5 -197 Q447 -203 425 -203 Q385 -203 358 -181.5 Q331 -160 331 -126 Z " />
<glyph glyph-name="uring" unicode="&#x16f;" horiz-adv-x="592" d="M492 0 L470 0 L470 116 Q431 55 380 22.5 Q329 -10 270 -10 Q182 -10 138.5 36 Q95 82 95 176 L95 505 L117 505 L117 176 Q117 92 154.5 51.5 Q192 11 270 11 Q328 11 377.5 44 Q427 77 470 143 L470 505 L492 505 L492 0 Z M212 658 Q212 693 236.5 717.5 Q261 742 297 742 Q331 742 355.5 717.5 Q380 693 380 658 Q380 622 356 597.5 Q332 573 297 573 Q261 573 236.5 597.5 Q212 622 212 658 Z M233 658 Q233 629 251 611 Q269 593 297 593 Q324 593 341.5 611.5 Q359 630 359 658 Q359 686 341.5 704 Q324 722 297 722 Q269 722 251 704 Q233 686 233 658 Z " />
<glyph glyph-name="utilde" unicode="&#x169;" horiz-adv-x="592" d="M492 0 L470 0 L470 116 Q431 55 380 22.5 Q329 -10 270 -10 Q182 -10 138.5 36 Q95 82 95 176 L95 505 L117 505 L117 176 Q117 92 154.5 51.5 Q192 11 270 11 Q328 11 377.5 44 Q427 77 470 143 L470 505 L492 505 L492 0 Z M311 660 Q338 636 352.5 629 Q367 622 380 622 Q407 622 424 643 Q441 664 444 701 L466 701 Q464 658 439.5 630 Q415 602 380 602 Q362 602 344 610.5 Q326 619 295 647 Q267 671 252 678.5 Q237 686 223 686 Q192 686 174 664.5 Q156 643 151 602 L129 602 Q134 648 159.5 677 Q185 706 223 706 Q242 706 260.5 697 Q279 688 311 660 Z " />
<glyph glyph-name="wacute" unicode="&#x1e83;" horiz-adv-x="830" d="M810 505 L605 0 L592 0 L413 474 L240 0 L227 0 L20 505 L44 505 L234 31 L405 505 L421 505 L598 31 L787 505 L810 505 Z M410 588 L388 588 L501 720 L529 720 L410 588 Z " />
<glyph glyph-name="wcircumflex" unicode="&#x175;" horiz-adv-x="830" d="M810 505 L605 0 L592 0 L413 474 L240 0 L227 0 L20 505 L44 505 L234 31 L405 505 L421 505 L598 31 L787 505 L810 505 Z M543 588 L523 588 L415 703 L307 588 L287 588 L402 720 L428 720 L543 588 Z " />
<glyph glyph-name="wdieresis" unicode="&#x1e85;" horiz-adv-x="830" d="M810 505 L605 0 L592 0 L413 474 L240 0 L227 0 L20 505 L44 505 L234 31 L405 505 L421 505 L598 31 L787 505 L810 505 Z M506 602 L484 602 L484 725 L506 725 L506 602 Z M346 602 L324 602 L324 725 L346 725 L346 602 Z " />
<glyph glyph-name="wgrave" unicode="&#x1e81;" horiz-adv-x="830" d="M810 505 L605 0 L592 0 L413 474 L240 0 L227 0 L20 505 L44 505 L234 31 L405 505 L421 505 L598 31 L787 505 L810 505 Z M316 720 L344 720 L457 588 L435 588 L316 720 Z " />
<glyph glyph-name="yacute" unicode="&#xfd;" horiz-adv-x="514" d="M57 -220 Q48 -220 38 -219 Q28 -218 20 -217 L20 -196 Q29 -197 38.5 -198 Q48 -199 55 -199 Q106 -199 148.5 -161 Q191 -123 232 -34 L247 1 L21 505 L44 505 L258 24 L471 505 L494 505 L249 -41 Q203 -138 157.5 -179 Q112 -220 57 -220 Z M255 588 L233 588 L346 720 L374 720 L255 588 Z " />
<glyph glyph-name="ydieresis" unicode="&#xff;" horiz-adv-x="514" d="M57 -220 Q48 -220 38 -219 Q28 -218 20 -217 L20 -196 Q29 -197 38.5 -198 Q48 -199 55 -199 Q106 -199 148.5 -161 Q191 -123 232 -34 L247 1 L21 505 L44 505 L258 24 L471 505 L494 505 L249 -41 Q203 -138 157.5 -179 Q112 -220 57 -220 Z M348 602 L326 602 L326 725 L348 725 L348 602 Z M188 602 L166 602 L166 725 L188 725 L188 602 Z " />
<glyph glyph-name="ycircumflex" unicode="&#x177;" horiz-adv-x="514" d="M57 -220 Q48 -220 38 -219 Q28 -218 20 -217 L20 -196 Q29 -197 38.5 -198 Q48 -199 55 -199 Q106 -199 148.5 -161 Q191 -123 232 -34 L247 1 L21 505 L44 505 L258 24 L471 505 L494 505 L249 -41 Q203 -138 157.5 -179 Q112 -220 57 -220 Z M385 588 L365 588 L257 703 L149 588 L129 588 L244 720 L270 720 L385 588 Z " />
<glyph glyph-name="ygrave" unicode="&#x1ef3;" horiz-adv-x="514" d="M57 -220 Q48 -220 38 -219 Q28 -218 20 -217 L20 -196 Q29 -197 38.5 -198 Q48 -199 55 -199 Q106 -199 148.5 -161 Q191 -123 232 -34 L247 1 L21 505 L44 505 L258 24 L471 505 L494 505 L249 -41 Q203 -138 157.5 -179 Q112 -220 57 -220 Z M164 720 L192 720 L305 588 L283 588 L164 720 Z " />
<glyph glyph-name="zcaron" unicode="&#x17e;" horiz-adv-x="471" d="M65 21 L436 21 L436 0 L35 0 L35 18 L400 484 L38 484 L38 505 L430 505 L430 487 L65 21 Z M249 588 L223 588 L108 720 L128 720 L236 605 L344 720 L364 720 L249 588 Z " />
<glyph glyph-name="zacute" unicode="&#x17a;" horiz-adv-x="471" d="M65 21 L436 21 L436 0 L35 0 L35 18 L400 484 L38 484 L38 505 L430 505 L430 487 L65 21 Z M211 588 L189 588 L302 720 L330 720 L211 588 Z " />
<glyph glyph-name="zdotaccent" unicode="&#x17c;" horiz-adv-x="471" d="M65 21 L436 21 L436 0 L35 0 L35 18 L400 484 L38 484 L38 505 L430 505 L430 487 L65 21 Z M225 725 L247 725 L247 602 L225 602 L225 725 Z " />
<glyph glyph-name="acute" unicode="&#xb4;" horiz-adv-x="500" d="M184 588 L162 588 L275 720 L303 720 L184 588 Z " />
<glyph glyph-name="grave" unicode="&#x60;" horiz-adv-x="500" d="M174 720 L202 720 L315 588 L293 588 L174 720 Z " />
<glyph glyph-name="circumflex" unicode="&#x2c6;" horiz-adv-x="500" d="M378 588 L358 588 L250 703 L142 588 L122 588 L237 720 L263 720 L378 588 Z " />
<glyph glyph-name="caron" unicode="&#x2c7;" horiz-adv-x="500" d="M263 588 L237 588 L122 720 L142 720 L250 605 L358 720 L378 720 L263 588 Z " />
<glyph glyph-name="tilde" unicode="&#x2dc;" horiz-adv-x="500" d="M265 660 Q292 636 306.5 629 Q321 622 334 622 Q361 622 378 643 Q395 664 398 701 L420 701 Q418 658 393.5 630 Q369 602 334 602 Q316 602 298 610.5 Q280 619 249 647 Q221 671 206 678.5 Q191 686 177 686 Q146 686 128 664.5 Q110 643 105 602 L83 602 Q88 648 113.5 677 Q139 706 177 706 Q196 706 214.5 697 Q233 688 265 660 Z " />
<glyph glyph-name="dieresis" unicode="&#xa8;" horiz-adv-x="500" d="M341 602 L319 602 L319 725 L341 725 L341 602 Z M181 602 L159 602 L159 725 L181 725 L181 602 Z " />
<glyph glyph-name="ring" unicode="&#x2da;" horiz-adv-x="500" d="M166 658 Q166 693 190.5 717.5 Q215 742 251 742 Q285 742 309.5 717.5 Q334 693 334 658 Q334 622 310 597.5 Q286 573 251 573 Q215 573 190.5 597.5 Q166 622 166 658 Z M187 658 Q187 629 205 611 Q223 593 251 593 Q278 593 295.5 611.5 Q313 630 313 658 Q313 686 295.5 704 Q278 722 251 722 Q223 722 205 704 Q187 686 187 658 Z " />
<glyph glyph-name="cedilla" unicode="&#xb8;" horiz-adv-x="500" d="M324 -128 Q324 -158 299.5 -177 Q275 -196 238 -196 Q211 -196 191.5 -191 Q172 -186 150 -173 L150 -150 Q176 -165 195 -170.5 Q214 -176 238 -176 Q267 -176 284.5 -163.5 Q302 -151 302 -128 Q302 -106 286.5 -95 Q271 -84 240 -84 L194 -84 L215 6 L232 3 L216 -64 L242 -64 Q281 -64 302.5 -81 Q324 -98 324 -128 Z " />
<glyph glyph-name="hungarumlaut" unicode="&#x2dd;" horiz-adv-x="500" d="M279 588 L259 588 L364 720 L390 720 L279 588 Z M142 588 L122 588 L227 720 L253 720 L142 588 Z " />
<glyph glyph-name="breve" unicode="&#x2d8;" horiz-adv-x="500" d="M248 616 Q297 616 326 641 Q355 666 363 717 L385 717 Q379 660 342.5 627.5 Q306 595 248 595 Q190 595 153.5 627.5 Q117 660 111 717 L133 717 Q141 666 170 641 Q199 616 248 616 Z " />
<glyph glyph-name="overscore" unicode="&#xaf;" horiz-adv-x="500" d="M393 645 L107 645 L107 666 L393 666 L393 645 Z " />
<glyph glyph-name="dotaccent" unicode="&#x2d9;" horiz-adv-x="500" d="M239 725 L261 725 L261 602 L239 602 L239 725 Z " />
<glyph glyph-name="middot" unicode="&#xb7;" horiz-adv-x="500" d="M201 235 L201 309 L239 309 L239 235 L201 235 Z " />
<glyph glyph-name="ogonek" unicode="&#x2db;" horiz-adv-x="500" d="M247 -121 Q247 -150 269 -166.5 Q291 -183 325 -183 Q344 -183 363.5 -176.5 Q383 -170 399 -158 L399 -176 Q377 -191 358.5 -197 Q340 -203 318 -203 Q278 -203 251 -181.5 Q224 -160 224 -126 Q224 -90 251.5 -62.5 Q279 -35 364 0 L385 0 Q294 -45 270.5 -69 Q247 -93 247 -121 Z " />
<glyph glyph-name="commaaccent" unicode="&#xf6c3;" horiz-adv-x="500" d="M227 -134 L227 -60 L265 -60 L265 -128 Q265 -148 254 -167.5 Q243 -187 228 -197 L220 -188 Q232 -177 239 -162.5 Q246 -148 246 -134 L227 -134 Z " />
<glyph glyph-name="caron.alt" unicode="&#xe189;" horiz-adv-x="500" d="M211 636 L211 710 L249 710 L249 642 Q249 618 239.5 596.5 Q230 575 212 558 L204 567 Q216 580 223 599 Q230 618 230 636 L211 636 Z " />
<glyph glyph-name="revcommaaccent" unicode="&#xe18a;" horiz-adv-x="500" d="M258 652 L258 588 L220 588 L220 646 Q220 668 230 689.5 Q240 711 257 725 L265 716 Q254 706 246.5 687 Q239 668 239 652 L258 652 Z " />
<glyph glyph-name="period" unicode="&#x2e;" horiz-adv-x="138" d="M50 0 L50 74 L88 74 L88 0 L50 0 Z " />
<glyph glyph-name="comma" unicode="&#x2c;" horiz-adv-x="138" d="M50 0 L50 74 L88 74 L88 6 Q88 -27 74 -57 Q60 -87 38 -105 L38 -85 Q53 -67 60 -46 Q67 -25 67 0 L50 0 Z " />
<glyph glyph-name="colon" unicode="&#x3a;" horiz-adv-x="178" d="M70 431 L70 505 L108 505 L108 431 L70 431 Z M70 0 L70 74 L108 74 L108 0 L70 0 Z " />
<glyph glyph-name="semicolon" unicode="&#x3b;" horiz-adv-x="178" d="M70 431 L70 505 L108 505 L108 431 L70 431 Z M70 0 L70 74 L108 74 L108 6 Q108 -27 94 -57 Q80 -87 58 -105 L58 -85 Q73 -67 80 -46 Q87 -25 87 0 L70 0 Z " />
<glyph glyph-name="ellipsis" unicode="&#x2026;" horiz-adv-x="438" d="M350 0 L350 74 L388 74 L388 0 L350 0 Z M200 0 L200 74 L238 74 L238 0 L200 0 Z M50 0 L50 74 L88 74 L88 0 L50 0 Z " />
<glyph glyph-name="question" unicode="&#x3f;" horiz-adv-x="467" d="M202 175 L186 175 L181 357 L233 371 Q312 392 350.5 433.5 Q389 475 389 537 Q389 599 343 639 Q297 679 226 679 Q181 679 139 662.5 Q97 646 51 609 L40 626 Q87 664 132 682 Q177 700 225 700 Q308 700 360 654.5 Q412 609 412 537 Q412 470 372 424 Q332 378 255 356 L206 342 L202 175 Z M175 0 L175 74 L213 74 L213 0 L175 0 Z " />
<glyph glyph-name="exclam" unicode="&#x21;" horiz-adv-x="268" d="M125 175 L122 328 L122 690 L144 690 L144 328 L141 175 L125 175 Z M115 0 L115 74 L153 74 L153 0 L115 0 Z " />
<glyph glyph-name="questiondown" unicode="&#xbf;" horiz-adv-x="468" d="M292 505 L292 431 L254 431 L254 505 L292 505 Z M265 330 L281 330 L286 148 L234 134 Q155 113 116.5 71.5 Q78 30 78 -32 Q78 -94 124 -134 Q170 -174 241 -174 Q286 -174 328 -157.5 Q370 -141 416 -104 L427 -121 Q380 -159 335 -177 Q290 -195 242 -195 Q159 -195 107 -149.5 Q55 -104 55 -32 Q55 35 95 81 Q135 127 212 149 L261 163 L265 330 Z " />
<glyph glyph-name="exclamdown" unicode="&#xa1;" horiz-adv-x="268" d="M153 505 L153 431 L115 431 L115 505 L153 505 Z M144 -185 L122 -185 L122 177 L125 330 L141 330 L144 177 L144 -185 Z " />
<glyph glyph-name="parenleft" unicode="&#x28;" horiz-adv-x="344" d="M70 294 Q70 415 127 531 Q184 647 284 725 L294 715 Q199 632 146 520 Q93 408 93 294 Q93 180 146 68 Q199 -44 294 -127 L284 -137 Q184 -59 127 57 Q70 173 70 294 Z " />
<glyph glyph-name="parenright" unicode="&#x29;" horiz-adv-x="344" d="M50 715 L60 725 Q160 647 217 531 Q274 415 274 294 Q274 173 217 57 Q160 -59 60 -137 L50 -127 Q145 -44 198 68 Q251 180 251 294 Q251 408 198 520 Q145 632 50 715 Z " />
<glyph glyph-name="braceleft" unicode="&#x7b;" horiz-adv-x="355" d="M106 573 Q106 650 158 695 Q210 740 300 740 L300 720 Q217 720 173 682 Q129 644 129 579 Q129 559 134 538.5 Q139 518 154 481 Q168 448 172.5 430.5 Q177 413 177 397 Q177 366 162 341 Q147 316 123 308 Q147 299 162 274 Q177 249 177 218 Q177 202 172.5 184.5 Q168 167 154 134 Q139 97 134 76.5 Q129 56 129 36 Q129 -29 173 -67 Q217 -105 300 -105 L300 -125 Q210 -125 158 -80 Q106 -35 106 42 Q106 63 111 83.5 Q116 104 132 140 Q146 171 150.5 188 Q155 205 155 221 Q155 254 137.5 275.5 Q120 297 96 297 L65 297 L65 318 L96 318 Q120 318 137.5 339.5 Q155 361 155 394 Q155 410 150.5 427.5 Q146 445 132 477 Q116 513 111 533 Q106 553 106 573 Z " />
<glyph glyph-name="braceright" unicode="&#x7d;" horiz-adv-x="355" d="M226 579 Q226 644 182 682 Q138 720 55 720 L55 740 Q145 740 197 695 Q249 650 249 573 Q249 553 244 533 Q239 513 223 477 Q209 445 204.5 427.5 Q200 410 200 394 Q200 361 217.5 339.5 Q235 318 259 318 L290 318 L290 297 L259 297 Q235 297 217.5 275.5 Q200 254 200 221 Q200 205 204.5 188 Q209 171 223 140 Q239 104 244 83.5 Q249 63 249 42 Q249 -35 197 -80 Q145 -125 55 -125 L55 -105 Q138 -105 182 -67 Q226 -29 226 36 Q226 56 221 76.5 Q216 97 201 134 Q187 167 182.5 184.5 Q178 202 178 218 Q178 249 193 274 Q208 299 232 308 Q208 316 193 341 Q178 366 178 397 Q178 413 182.5 430.5 Q187 448 201 481 Q216 518 221 538.5 Q226 559 226 579 Z " />
<glyph glyph-name="bracketleft" unicode="&#x5b;" horiz-adv-x="341" d="M296 -123 L95 -123 L95 740 L296 740 L296 719 L117 719 L117 -102 L296 -102 L296 -123 Z " />
<glyph glyph-name="bracketright" unicode="&#x5d;" horiz-adv-x="341" d="M45 740 L246 740 L246 -123 L45 -123 L45 -102 L224 -102 L224 719 L45 719 L45 740 Z " />
<glyph glyph-name="slash" unicode="&#x2f;" horiz-adv-x="355" d="M52 0 L30 0 L303 690 L325 690 L52 0 Z " />
<glyph glyph-name="backslash" unicode="&#x5c;" horiz-adv-x="355" d="M30 690 L52 690 L325 0 L303 0 L30 690 Z " />
<glyph glyph-name="underscore" unicode="&#x5f;" horiz-adv-x="490" d="M470 -90 L20 -90 L20 -69 L470 -69 L470 -90 Z " />
<glyph glyph-name="hyphen" unicode="&#x2d;" horiz-adv-x="380" d="M330 270 L50 270 L50 291 L330 291 L330 270 Z " />
<glyph glyph-name="uni00AD" unicode="&#xad;" horiz-adv-x="380" d="" />
<glyph glyph-name="endash" unicode="&#x2013;" horiz-adv-x="500" d="M455 260 L45 260 L45 281 L455 281 L455 260 Z " />
<glyph glyph-name="emdash" unicode="&#x2014;" horiz-adv-x="1000" d="M955 260 L45 260 L45 281 L955 281 L955 260 Z " />
<glyph glyph-name="brokenbar" unicode="&#xa6;" horiz-adv-x="232" d="M105 770 L127 770 L127 394 L105 394 L105 770 Z M105 296 L127 296 L127 -80 L105 -80 L105 296 Z " />
<glyph glyph-name="bar" unicode="&#x7c;" horiz-adv-x="232" d="M105 770 L127 770 L127 -80 L105 -80 L105 770 Z " />
<glyph glyph-name="guillemotleft" unicode="&#xab;" horiz-adv-x="557" d="M475 50 L265 244 L265 258 L475 452 L487 440 L290 251 L487 62 L475 50 Z M265 50 L55 244 L55 258 L265 452 L277 440 L80 251 L277 62 L265 50 Z " />
<glyph glyph-name="guillemotright" unicode="&#xbb;" horiz-adv-x="557" d="M292 452 L502 258 L502 244 L292 50 L280 62 L477 251 L280 440 L292 452 Z M82 452 L292 258 L292 244 L82 50 L70 62 L267 251 L70 440 L82 452 Z " />
<glyph glyph-name="guilsinglleft" unicode="&#x2039;" horiz-adv-x="347" d="M265 50 L55 244 L55 258 L265 452 L277 440 L80 251 L277 62 L265 50 Z " />
<glyph glyph-name="guilsinglright" unicode="&#x203a;" horiz-adv-x="347" d="M82 452 L292 258 L292 244 L82 50 L70 62 L267 251 L70 440 L82 452 Z " />
<glyph glyph-name="quotesinglbase" unicode="&#x201a;" horiz-adv-x="138" d="M50 0 L50 74 L88 74 L88 6 Q88 -20 71 -45.5 Q54 -71 30 -83 L30 -66 Q49 -51 58 -35 Q67 -19 67 0 L50 0 Z " />
<glyph glyph-name="quotedblbase" unicode="&#x201e;" horiz-adv-x="253" d="M165 0 L165 74 L203 74 L203 6 Q203 -20 186 -45.5 Q169 -71 145 -83 L145 -66 Q164 -51 173 -35 Q182 -19 182 0 L165 0 Z M50 0 L50 74 L88 74 L88 6 Q88 -20 71 -45.5 Q54 -71 30 -83 L30 -66 Q49 -51 58 -35 Q67 -19 67 0 L50 0 Z " />
<glyph glyph-name="quoteleft" unicode="&#x2018;" horiz-adv-x="138" d="M88 619 L88 545 L50 545 L50 613 Q50 639 67 664.5 Q84 690 108 702 L108 685 Q89 670 80 654 Q71 638 71 619 L88 619 Z " />
<glyph glyph-name="quotedblleft" unicode="&#x201c;" horiz-adv-x="253" d="M203 619 L203 545 L165 545 L165 613 Q165 639 182 664.5 Q199 690 223 702 L223 685 Q204 670 195 654 Q186 638 186 619 L203 619 Z M88 619 L88 545 L50 545 L50 613 Q50 639 67 664.5 Q84 690 108 702 L108 685 Q89 670 80 654 Q71 638 71 619 L88 619 Z " />
<glyph glyph-name="quoteright" unicode="&#x2019;" horiz-adv-x="138" d="M50 616 L50 690 L88 690 L88 622 Q88 596 71 570.5 Q54 545 30 533 L30 550 Q49 565 58 581 Q67 597 67 616 L50 616 Z " />
<glyph glyph-name="quotedblright" unicode="&#x201d;" horiz-adv-x="253" d="M165 616 L165 690 L203 690 L203 622 Q203 596 186 570.5 Q169 545 145 533 L145 550 Q164 565 173 581 Q182 597 182 616 L165 616 Z M50 616 L50 690 L88 690 L88 622 Q88 596 71 570.5 Q54 545 30 533 L30 550 Q49 565 58 581 Q67 597 67 616 L50 616 Z " />
<glyph glyph-name="quotesingle" unicode="&#x27;" horiz-adv-x="104" d="M60 545 L44 545 L40 690 L64 690 L60 545 Z " />
<glyph glyph-name="quotedbl" unicode="&#x22;" horiz-adv-x="224" d="M180 545 L164 545 L160 690 L184 690 L180 545 Z M60 545 L44 545 L40 690 L64 690 L60 545 Z " />
<glyph glyph-name="bullet" unicode="&#x2022;" horiz-adv-x="240" d="M120 390 Q151 390 170.5 370.5 Q190 351 190 320 Q190 289 170.5 269.5 Q151 250 120 250 Q89 250 69.5 269.5 Q50 289 50 320 Q50 351 69.5 370.5 Q89 390 120 390 Z " />
<glyph glyph-name="ampersand" unicode="&#x26;" horiz-adv-x="698" d="M653 6 L636 -10 L529 90 Q480 40 419 15 Q358 -10 285 -10 Q188 -10 124 40.5 Q60 91 60 174 Q60 240 100 284.5 Q140 329 233 365 Q169 422 148.5 459 Q128 496 128 539 Q128 610 174.5 655 Q221 700 298 700 Q370 700 416 658.5 Q462 617 462 552 Q462 490 421.5 446.5 Q381 403 273 359 Q276 357 281 352.5 Q286 348 288 345 L529 121 Q555 149 575.5 185 Q596 221 611 262 L631 256 Q614 213 592.5 175.5 Q571 138 544 107 L653 6 Z M299 678 Q231 678 191 640.5 Q151 603 151 540 Q151 503 171 468.5 Q191 434 259 372 Q365 416 402 455 Q439 494 439 550 Q439 606 399 642 Q359 678 299 678 Z M83 175 Q83 103 141 57 Q199 11 287 11 Q352 11 409.5 34.5 Q467 58 514 104 L272 330 Q270 332 267.5 334 Q265 336 261 341 Q256 345 253.5 347 Q251 349 249 351 Q164 322 123.5 279 Q83 236 83 175 Z " />
<glyph glyph-name="paragraph" unicode="&#xb6;" horiz-adv-x="457" d="M267 669 L267 0 L245 0 L245 350 L230 350 Q154 350 107 397.5 Q60 445 60 521 Q60 595 107 642.5 Q154 690 230 690 L362 690 L362 0 L340 0 L340 669 L267 669 Z " />
<glyph glyph-name="dagger" unicode="&#x2020;" horiz-adv-x="518" d="M458 456 L458 433 L270 439 L270 -125 L248 -125 L248 439 L60 433 L60 456 L248 450 L248 690 L270 690 L270 450 L458 456 Z " />
<glyph glyph-name="daggerdbl" unicode="&#x2021;" horiz-adv-x="518" d="M458 132 L458 109 L270 115 L270 -125 L248 -125 L248 115 L60 109 L60 132 L248 126 L248 439 L60 433 L60 456 L248 450 L248 690 L270 690 L270 450 L458 456 L458 433 L270 439 L270 126 L458 132 Z " />
<glyph glyph-name="section" unicode="&#xa7;" horiz-adv-x="483" d="M78 378 Q78 335 107 310 Q136 285 247 251 Q269 245 289.5 238 Q310 231 329 224 Q364 241 384.5 268 Q405 295 405 327 Q405 370 376 395 Q347 420 236 454 Q214 460 193.5 467 Q173 474 154 481 Q119 464 98.5 437 Q78 410 78 378 Z M416 123 Q416 62 363.5 26 Q311 -10 230 -10 Q190 -10 152 0.5 Q114 11 79 31 L79 55 Q112 34 151 22.5 Q190 11 232 11 Q306 11 349.5 41 Q393 71 393 124 Q393 158 368 179 Q343 200 235 233 Q121 268 88 297.5 Q55 327 55 377 Q55 411 75.5 440 Q96 469 134 490 Q99 507 83 529 Q67 551 67 582 Q67 643 119.5 679 Q172 715 253 715 Q293 715 331 704.5 Q369 694 404 674 L404 650 Q371 671 332 682.5 Q293 694 251 694 Q177 694 133.5 664 Q90 634 90 581 Q90 547 115 526 Q140 505 248 472 Q362 437 395 407.5 Q428 378 428 328 Q428 294 407.5 265 Q387 236 349 215 Q384 198 400 176 Q416 154 416 123 Z " />
<glyph glyph-name="asterisk" unicode="&#x2a;" horiz-adv-x="388" d="M188 566 L184 720 L205 720 L202 566 L335 624 L343 604 L206 553 L307 432 L291 420 L195 544 L101 422 L85 434 L183 553 L45 604 L53 624 L188 566 Z " />
<glyph glyph-name="trademark" unicode="&#x2122;" horiz-adv-x="609" d="M225 690 L225 669 L137 669 L137 418 L115 418 L115 669 L25 669 L25 690 L225 690 Z M414 534 L523 690 L544 690 L544 418 L522 418 L522 652 L423 513 L404 513 L304 653 L304 418 L282 418 L282 690 L304 690 L414 534 Z " />
<glyph glyph-name="registered" unicode="&#xae;" horiz-adv-x="520" d="M260 700 Q351 700 415.5 636 Q480 572 480 481 Q480 390 415.5 325.5 Q351 261 260 261 Q169 261 104.5 325.5 Q40 390 40 481 Q40 572 104.5 636 Q169 700 260 700 Z M260 679 Q177 679 120 621.5 Q63 564 63 481 Q63 397 120 339.5 Q177 282 260 282 Q342 282 399.5 340 Q457 398 457 481 Q457 564 399.5 621.5 Q342 679 260 679 Z M270 569 L209 569 L209 485 L270 485 Q294 485 307.5 496.5 Q321 508 321 528 Q321 546 307 557.5 Q293 569 270 569 Z M349 377 L324 377 L269 465 L209 465 L209 377 L187 377 L187 590 L270 590 Q304 590 324 573.5 Q344 557 344 528 Q344 506 329.5 490.5 Q315 475 290 469 L349 377 Z " />
<glyph glyph-name="copyright" unicode="&#xa9;" horiz-adv-x="800" d="M400 700 Q547 700 651 596 Q755 492 755 345 Q755 198 651 94 Q547 -10 400 -10 Q252 -10 148.5 93.5 Q45 197 45 345 Q45 492 149 596 Q253 700 400 700 Z M400 679 Q261 679 164.5 581.5 Q68 484 68 345 Q68 205 164.5 108 Q261 11 400 11 Q539 11 635.5 108 Q732 205 732 345 Q732 484 635 581.5 Q538 679 400 679 Z M416 529 Q442 529 463.5 523.5 Q485 518 505 506 L505 485 Q483 497 462 502.5 Q441 508 416 508 Q348 508 304 462.5 Q260 417 260 347 Q260 274 305 230 Q350 186 424 186 Q450 186 468.5 190 Q487 194 505 203 L505 183 Q487 174 466.5 169.5 Q446 165 423 165 Q341 165 289 216 Q237 267 237 347 Q237 425 288 477 Q339 529 416 529 Z " />
<glyph glyph-name="at" unicode="&#x40;" horiz-adv-x="973" d="M512 -183 Q571 -183 632.5 -170.5 Q694 -158 751 -135 L759 -155 Q713 -177 645.5 -190.5 Q578 -204 511 -204 Q305 -204 180 -87.5 Q55 29 55 222 Q55 413 174.5 533.5 Q294 654 486 654 Q674 654 796 544 Q918 434 918 264 Q918 143 871.5 66.5 Q825 -10 756 -10 Q713 -10 685.5 14.5 Q658 39 647 85 Q611 38 566.5 14 Q522 -10 470 -10 Q377 -10 320.5 54 Q264 118 264 218 Q264 317 323 382 Q382 447 474 447 Q526 447 567.5 425 Q609 403 642 358 L642 442 L664 442 L664 124 Q664 74 689 42.5 Q714 11 756 11 Q817 11 856 81 Q895 151 895 259 Q895 422 779.5 527.5 Q664 633 488 633 Q304 633 191 518.5 Q78 404 78 220 Q78 35 196.5 -74 Q315 -183 512 -183 Z M470 11 Q525 11 571 38.5 Q617 66 642 114 L642 325 Q615 371 569.5 398.5 Q524 426 474 426 Q394 426 340.5 367 Q287 308 287 219 Q287 129 339.5 70 Q392 11 470 11 Z " />
<glyph glyph-name="ordfeminine" unicode="&#xaa;" horiz-adv-x="396" d="M303 477 L303 533 Q278 552 247.5 562 Q217 572 181 572 Q136 572 110 550.5 Q84 529 84 492 Q84 454 110.5 431.5 Q137 409 181 409 Q220 409 250 426 Q280 443 303 477 Z M94 645 L94 669 Q118 685 143 692.5 Q168 700 197 700 Q261 700 293 669.5 Q325 639 325 577 L325 391 L303 391 L303 451 Q280 421 247.5 404.5 Q215 388 178 388 Q127 388 94 417 Q61 446 61 492 Q61 536 94.5 564.5 Q128 593 181 593 Q215 593 244 584 Q273 575 303 556 L303 577 Q303 629 277 654 Q251 679 197 679 Q169 679 143.5 670.5 Q118 662 94 645 Z M351 292 L45 292 L45 310 L351 310 L351 292 Z " />
<glyph glyph-name="ordmasculine" unicode="&#xba;" horiz-adv-x="396" d="M198 388 Q131 388 89.5 431 Q48 474 48 544 Q48 614 89.5 657 Q131 700 198 700 Q265 700 306.5 657 Q348 614 348 544 Q348 474 306.5 431 Q265 388 198 388 Z M198 679 Q139 679 105 642.5 Q71 606 71 544 Q71 482 105 445.5 Q139 409 198 409 Q257 409 291 445.5 Q325 482 325 544 Q325 606 291 642.5 Q257 679 198 679 Z M351 292 L45 292 L45 310 L351 310 L351 292 Z " />
<glyph glyph-name="questiondown.case" unicode="&#xe1f6;" horiz-adv-x="468" d="M292 690 L292 616 L254 616 L254 690 L292 690 Z M265 515 L281 515 L286 333 L234 319 Q155 298 116.5 256.5 Q78 215 78 153 Q78 91 124 51 Q170 11 241 11 Q286 11 328 27.5 Q370 44 416 81 L427 64 Q380 26 335 8 Q290 -10 242 -10 Q159 -10 107 35.5 Q55 81 55 153 Q55 220 95 266 Q135 312 212 334 L261 348 L265 515 Z " />
<glyph glyph-name="exclamdown.case" unicode="&#xe1f7;" horiz-adv-x="268" d="M153 690 L153 616 L115 616 L115 690 L153 690 Z M144 0 L122 0 L122 362 L125 515 L141 515 L144 362 L144 0 Z " />
<glyph glyph-name="parenleft.case" unicode="&#xe1e8;" horiz-adv-x="344" d="M70 334 Q70 455 127 571 Q184 687 284 765 L294 755 Q199 672 146 560 Q93 448 93 334 Q93 220 146 108 Q199 -4 294 -87 L284 -97 Q184 -19 127 97 Q70 213 70 334 Z " />
<glyph glyph-name="parenright.case" unicode="&#xe1e9;" horiz-adv-x="344" d="M50 755 L60 765 Q160 687 217 571 Q274 455 274 334 Q274 213 217 97 Q160 -19 60 -97 L50 -87 Q145 -4 198 108 Q251 220 251 334 Q251 448 198 560 Q145 672 50 755 Z " />
<glyph glyph-name="braceleft.case" unicode="&#xe1ea;" horiz-adv-x="355" d="M106 613 Q106 690 158 735 Q210 780 300 780 L300 760 Q217 760 173 722 Q129 684 129 619 Q129 599 134 578.5 Q139 558 154 521 Q168 488 172.5 470.5 Q177 453 177 437 Q177 406 162 381 Q147 356 123 348 Q147 339 162 314 Q177 289 177 258 Q177 242 172.5 224.5 Q168 207 154 174 Q139 137 134 116.5 Q129 96 129 76 Q129 11 173 -27 Q217 -65 300 -65 L300 -85 Q210 -85 158 -40 Q106 5 106 82 Q106 103 111 123.5 Q116 144 132 180 Q146 211 150.5 228 Q155 245 155 261 Q155 294 137.5 315.5 Q120 337 96 337 L65 337 L65 358 L96 358 Q120 358 137.5 379.5 Q155 401 155 434 Q155 450 150.5 467.5 Q146 485 132 517 Q116 553 111 573 Q106 593 106 613 Z " />
<glyph glyph-name="braceright.case" unicode="&#xe1eb;" horiz-adv-x="355" d="M226 619 Q226 684 182 722 Q138 760 55 760 L55 780 Q145 780 197 735 Q249 690 249 613 Q249 593 244 573 Q239 553 223 517 Q209 485 204.5 467.5 Q200 450 200 434 Q200 401 217.5 379.5 Q235 358 259 358 L290 358 L290 337 L259 337 Q235 337 217.5 315.5 Q200 294 200 261 Q200 245 204.5 228 Q209 211 223 180 Q239 144 244 123.5 Q249 103 249 82 Q249 5 197 -40 Q145 -85 55 -85 L55 -65 Q138 -65 182 -27 Q226 11 226 76 Q226 96 221 116.5 Q216 137 201 174 Q187 207 182.5 224.5 Q178 242 178 258 Q178 289 193 314 Q208 339 232 348 Q208 356 193 381 Q178 406 178 437 Q178 453 182.5 470.5 Q187 488 201 521 Q216 558 221 578.5 Q226 599 226 619 Z " />
<glyph glyph-name="bracketleft.case" unicode="&#xe1ec;" horiz-adv-x="341" d="M296 -83 L95 -83 L95 780 L296 780 L296 759 L117 759 L117 -62 L296 -62 L296 -83 Z " />
<glyph glyph-name="bracketright.case" unicode="&#xe1ed;" horiz-adv-x="341" d="M45 780 L246 780 L246 -83 L45 -83 L45 -62 L224 -62 L224 759 L45 759 L45 780 Z " />
<glyph glyph-name="hyphen.case" unicode="&#xe1f8;" horiz-adv-x="380" d="M330 320 L50 320 L50 341 L330 341 L330 320 Z " />
<glyph glyph-name="endash.case" unicode="&#xe1ee;" horiz-adv-x="500" d="M455 310 L45 310 L45 331 L455 331 L455 310 Z " />
<glyph glyph-name="emdash.case" unicode="&#xe1ef;" horiz-adv-x="1000" d="M955 310 L45 310 L45 331 L955 331 L955 310 Z " />
<glyph glyph-name="guilsinglleft.case" unicode="&#xe1f2;" horiz-adv-x="347" d="M265 120 L55 314 L55 328 L265 522 L277 510 L80 321 L277 132 L265 120 Z " />
<glyph glyph-name="guilsinglright.case" unicode="&#xe1f3;" horiz-adv-x="347" d="M82 522 L292 328 L292 314 L82 120 L70 132 L267 321 L70 510 L82 522 Z " />
<glyph glyph-name="guillemotleft.case" unicode="&#xe1f0;" horiz-adv-x="557" d="M475 120 L265 314 L265 328 L475 522 L487 510 L290 321 L487 132 L475 120 Z M265 120 L55 314 L55 328 L265 522 L277 510 L80 321 L277 132 L265 120 Z " />
<glyph glyph-name="guillemotright.case" unicode="&#xe1f1;" horiz-adv-x="557" d="M292 522 L502 328 L502 314 L292 120 L280 132 L477 321 L280 510 L292 522 Z M82 522 L292 328 L292 314 L82 120 L70 132 L267 321 L70 510 L82 522 Z " />
<glyph glyph-name="bullet.case" unicode="&#xe1f4;" horiz-adv-x="240" d="M120 440 Q151 440 170.5 420.5 Q190 401 190 370 Q190 339 170.5 319.5 Q151 300 120 300 Q89 300 69.5 319.5 Q50 339 50 370 Q50 401 69.5 420.5 Q89 440 120 440 Z " />
<glyph glyph-name="at.case" unicode="&#xe1fb;" horiz-adv-x="973" d="M512 -83 Q571 -83 632.5 -70.5 Q694 -58 751 -35 L759 -55 Q713 -77 645.5 -90.5 Q578 -104 511 -104 Q305 -104 180 12.5 Q55 129 55 322 Q55 513 174.5 633.5 Q294 754 486 754 Q674 754 796 644 Q918 534 918 364 Q918 243 871.5 166.5 Q825 90 756 90 Q713 90 685.5 114.5 Q658 139 647 185 Q611 138 566.5 114 Q522 90 470 90 Q377 90 320.5 154 Q264 218 264 318 Q264 417 323 482 Q382 547 474 547 Q526 547 567.5 525 Q609 503 642 458 L642 542 L664 542 L664 224 Q664 174 689 142.5 Q714 111 756 111 Q817 111 856 181 Q895 251 895 359 Q895 522 779.5 627.5 Q664 733 488 733 Q304 733 191 618.5 Q78 504 78 320 Q78 135 196.5 26 Q315 -83 512 -83 Z M470 111 Q525 111 571 138.5 Q617 166 642 214 L642 425 Q615 471 569.5 498.5 Q524 526 474 526 Q394 526 340.5 467 Q287 408 287 319 Q287 229 339.5 170 Q392 111 470 111 Z " />
<glyph glyph-name="numbersign" unicode="&#x23;" horiz-adv-x="701" d="M208 241 L415 241 L489 442 L282 442 L208 241 Z M350 0 L327 0 L408 220 L201 220 L120 0 L97 0 L178 220 L40 220 L40 241 L185 241 L259 442 L116 442 L116 463 L267 463 L350 690 L373 690 L290 463 L497 463 L580 690 L603 690 L520 463 L661 463 L661 442 L512 442 L438 241 L585 241 L585 220 L431 220 L350 0 Z " />
<glyph glyph-name="Euro" unicode="&#x20ac;" horiz-adv-x="670" d="M620 54 L620 29 Q573 9 528.5 -0.5 Q484 -10 435 -10 Q310 -10 225.5 67.5 Q141 145 121 277 L25 277 L27 298 L118 298 Q117 317 116.5 328 Q116 339 116 348 Q116 361 117 373.5 Q118 386 119 398 L42 398 L44 419 L121 419 Q141 547 225.5 623.5 Q310 700 431 700 Q483 700 526.5 689 Q570 678 608 656 L608 632 Q561 658 521 668.5 Q481 679 432 679 Q320 679 242 608 Q164 537 145 419 L524 419 L522 398 L142 398 Q141 386 140 373.5 Q139 361 139 348 Q139 335 140 322.5 Q141 310 142 298 L507 298 L505 277 L144 277 Q163 155 241.5 83 Q320 11 436 11 Q484 11 528.5 21.5 Q573 32 620 54 Z " />
<glyph glyph-name="dollar" unicode="&#x24;" horiz-adv-x="535" d="M94 549 Q94 498 125 462 Q156 426 242 388 L242 678 Q176 672 135 637 Q94 602 94 549 Z M448 164 Q448 222 411 263 Q374 304 264 353 L264 11 Q346 13 397 54.5 Q448 96 448 164 Z M264 -10 L264 -82 L242 -82 L242 -10 Q193 -7 143 11 Q93 29 60 56 L60 84 Q95 55 144.5 35 Q194 15 242 11 L242 363 Q141 407 106.5 447.5 Q72 488 72 548 Q72 610 119 651.5 Q166 693 242 699 L242 781 L264 781 L264 700 Q313 700 351.5 689 Q390 678 428 654 L428 629 Q390 655 351 667 Q312 679 264 679 L264 378 Q329 348 356.5 332.5 Q384 317 404 301 Q438 273 454 239.5 Q470 206 470 163 Q470 86 411.5 38 Q353 -10 264 -10 Z " />
<glyph glyph-name="yen" unicode="&#xa5;" horiz-adv-x="648" d="M539 201 L539 180 L335 180 L335 0 L313 0 L313 180 L109 180 L109 201 L313 201 L313 294 L109 294 L109 315 L299 315 L25 690 L50 690 L324 315 L599 690 L623 690 L349 315 L539 315 L539 294 L335 294 L335 201 L539 201 Z " />
<glyph glyph-name="sterling" unicode="&#xa3;" horiz-adv-x="543" d="M157 21 L493 21 L493 0 L55 0 L55 21 L73 21 Q150 21 193 64 Q236 107 236 179 Q236 212 226.5 244 Q217 276 193 317 L70 317 L70 338 L180 338 Q135 413 124 446.5 Q113 480 113 515 Q113 596 171 648 Q229 700 319 700 Q357 700 386 693 Q415 686 440 671 L440 645 Q418 662 388 670.5 Q358 679 320 679 Q239 679 187.5 633 Q136 587 136 515 Q136 480 147.5 446.5 Q159 413 206 338 L390 338 L390 317 L218 317 Q240 279 249.5 246 Q259 213 259 179 Q259 122 232 80 Q205 38 157 21 Z " />
<glyph glyph-name="cent" unicode="&#xa2;" horiz-adv-x="529" d="M308 -10 L297 -10 L297 -82 L275 -82 L275 -8 Q173 2 114 71.5 Q55 141 55 252 Q55 360 114 430.5 Q173 501 275 513 L275 602 L297 602 L297 515 L315 515 Q362 515 403.5 501 Q445 487 474 461 L474 436 Q445 464 404.5 479 Q364 494 315 494 L297 494 L297 11 L312 11 Q360 11 400 25.5 Q440 40 479 72 L479 50 Q447 22 402.5 6 Q358 -10 308 -10 Z M78 252 Q78 151 130.5 87.5 Q183 24 275 13 L275 492 Q183 480 130.5 416 Q78 352 78 252 Z " />
<glyph glyph-name="florin" unicode="&#x192;" horiz-adv-x="529" d="M429 700 Q445 700 459.5 697 Q474 694 489 687 L489 666 Q477 672 459.5 675.5 Q442 679 426 679 Q371 679 339.5 639.5 Q308 600 293 512 L270 374 L395 374 L392 355 L267 355 L219 59 Q209 -4 178.5 -37 Q148 -70 100 -70 Q84 -70 69 -67 Q54 -64 40 -59 L40 -38 Q55 -44 69.5 -46.5 Q84 -49 100 -49 Q140 -49 164.5 -21 Q189 7 198 64 L246 355 L148 355 L151 374 L249 374 L271 509 Q287 608 325 654 Q363 700 429 700 Z " />
<glyph glyph-name="currency" unicode="&#xa4;" horiz-adv-x="600" d="M528 152 L513 137 L429 220 Q404 199 371 187.5 Q338 176 301 176 Q264 176 232 188 Q200 200 175 222 L90 137 L76 151 L161 236 Q137 262 125 295 Q113 328 113 365 Q113 400 124 432 Q135 464 156 490 L73 573 L88 588 L171 506 Q197 530 231 542.5 Q265 555 303 555 Q341 554 373.5 542 Q406 530 431 507 L512 588 L526 574 L446 493 Q469 468 481 435 Q493 402 493 365 Q493 327 480.5 293.5 Q468 260 444 235 L528 152 Z M472 365 Q472 439 425 486 Q378 533 303 534 Q228 534 181 487 Q134 440 134 365 Q134 290 180.5 243.5 Q227 197 301 197 Q377 197 424.5 243.5 Q472 290 472 365 Z " />
<glyph glyph-name="zero" unicode="0" horiz-adv-x="670" d="M335 -10 Q206 -10 133 84 Q60 178 60 346 Q60 513 132.5 606.5 Q205 700 335 700 Q465 700 537.5 606.5 Q610 513 610 346 Q610 178 537 84 Q464 -10 335 -10 Z M335 11 Q454 11 520.5 100 Q587 189 587 346 Q587 503 520.5 591 Q454 679 335 679 Q216 679 149.5 591 Q83 503 83 346 Q83 189 149.5 100 Q216 11 335 11 Z " />
<glyph glyph-name="one" unicode="1" horiz-adv-x="327" d="M52 595 L203 675 L222 675 L222 0 L200 0 L200 651 L52 573 L52 595 Z " />
<glyph glyph-name="two" unicode="2" horiz-adv-x="538" d="M266 679 Q215 679 166.5 664 Q118 649 77 620 L77 646 Q120 672 169 686 Q218 700 268 700 Q359 700 413 654.5 Q467 609 467 536 Q467 483 441 439 Q415 395 326 322 L193 213 Q124 157 93.5 111.5 Q63 66 63 21 L488 21 L488 0 L40 0 L40 9 Q40 64 74 119 Q108 174 178 230 L311 337 Q356 373 373.5 389.5 Q391 406 404 421 Q424 447 434 475 Q444 503 444 536 Q444 599 395.5 639 Q347 679 266 679 Z " />
<glyph glyph-name="three" unicode="3" horiz-adv-x="545" d="M246 -10 Q191 -10 140 3.5 Q89 17 45 44 L45 69 Q89 40 140 25.5 Q191 11 243 11 Q340 11 401 59.5 Q462 108 462 186 Q462 259 408.5 304 Q355 349 273 349 L172 349 L172 370 L274 370 Q347 370 398 415 Q449 460 449 528 Q449 595 393 637 Q337 679 250 679 Q199 679 151 664.5 Q103 650 59 621 L59 646 Q102 673 149.5 686.5 Q197 700 249 700 Q349 700 410.5 652.5 Q472 605 472 527 Q472 467 434.5 421.5 Q397 376 336 360 Q404 347 444.5 302 Q485 257 485 189 Q485 100 418.5 45 Q352 -10 246 -10 Z " />
<glyph glyph-name="four" unicode="4" horiz-adv-x="563" d="M359 690 L383 690 L69 187 L395 187 L395 351 L417 364 L417 187 L513 187 L513 166 L417 166 L417 0 L395 0 L395 166 L45 166 L45 186 L359 690 Z " />
<glyph glyph-name="five" unicode="5" horiz-adv-x="568" d="M273 -10 Q216 -10 163.5 3 Q111 16 65 41 L65 69 Q111 40 162.5 26 Q214 12 272 12 Q368 12 426.5 64.5 Q485 117 485 204 Q485 293 426.5 344.5 Q368 396 266 396 Q226 396 182 389.5 Q138 383 92 371 L104 690 L444 690 L444 669 L125 669 L115 398 Q151 407 192.5 412 Q234 417 266 417 Q379 417 443.5 359.5 Q508 302 508 203 Q508 108 443.5 49 Q379 -10 273 -10 Z " />
<glyph glyph-name="six" unicode="6" horiz-adv-x="603" d="M319 441 Q422 441 485 379 Q548 317 548 218 Q548 116 482.5 53 Q417 -10 311 -10 Q193 -10 126.5 75 Q60 160 60 305 Q60 479 141.5 589.5 Q223 700 363 700 Q385 700 405.5 697.5 Q426 695 445 689 L445 667 Q424 673 401.5 676 Q379 679 361 679 Q236 679 162 580.5 Q88 482 83 322 Q125 380 186 410.5 Q247 441 319 441 Z M83 296 Q85 163 145.5 87 Q206 11 312 11 Q408 11 466.5 68 Q525 125 525 218 Q525 309 468 364.5 Q411 420 315 420 Q244 420 185.5 389 Q127 358 83 296 Z " />
<glyph glyph-name="seven" unicode="7" horiz-adv-x="514" d="M104 0 L456 669 L50 669 L50 690 L479 690 L479 672 L128 0 L104 0 Z " />
<glyph glyph-name="eight" unicode="8" horiz-adv-x="600" d="M545 181 Q545 97 477 43.5 Q409 -10 303 -10 Q196 -10 125.5 42 Q55 94 55 173 Q55 246 114 298.5 Q173 351 266 371 L236 382 Q162 409 128 445.5 Q94 482 94 531 Q94 603 155 651.5 Q216 700 307 700 Q394 700 449.5 653.5 Q505 607 505 539 Q505 480 459 436.5 Q413 393 329 370 L372 354 Q467 319 506 278.5 Q545 238 545 181 Z M117 531 Q117 488 148.5 456 Q180 424 253 398 L304 379 Q395 404 438.5 444 Q482 484 482 540 Q482 597 430.5 638 Q379 679 307 679 Q228 679 172.5 636 Q117 593 117 531 Z M78 173 Q78 103 142 57 Q206 11 302 11 Q397 11 459.5 58 Q522 105 522 179 Q522 231 482.5 268.5 Q443 306 356 338 L297 360 Q206 346 142 295 Q78 244 78 173 Z " />
<glyph glyph-name="nine" unicode="9" horiz-adv-x="609" d="M78 471 Q78 380 136 324 Q194 268 291 268 Q363 268 422.5 299.5 Q482 331 526 393 Q524 527 462.5 603 Q401 679 294 679 Q198 679 138 621 Q78 563 78 471 Z M549 389 Q549 214 465 102.5 Q381 -9 236 -9 Q216 -9 195.5 -7 Q175 -5 154 0 L154 22 Q174 17 196.5 14.5 Q219 12 238 12 Q365 12 442 109 Q519 206 525 363 Q483 307 421 277 Q359 247 287 247 Q183 247 119 309.5 Q55 372 55 471 Q55 572 122 636 Q189 700 295 700 Q414 700 481.5 616 Q549 532 549 389 Z " />
<glyph glyph-name="degree" unicode="&#xb0;" horiz-adv-x="351" d="M316 559 Q316 500 275.5 460.5 Q235 421 175 421 Q115 421 75 460.5 Q35 500 35 559 Q35 619 75.5 659.5 Q116 700 175 700 Q234 700 275 659 Q316 618 316 559 Z M293 559 Q293 610 259.5 644.5 Q226 679 175 679 Q125 679 91.5 644.5 Q58 610 58 559 Q58 510 91.5 476 Q125 442 175 442 Q225 442 259 476 Q293 510 293 559 Z " />
<glyph glyph-name="percent" unicode="&#x25;" horiz-adv-x="896" d="M200 303 Q126 303 84.5 355.5 Q43 408 43 501 Q43 594 85 647 Q127 700 200 700 Q273 700 315 647 Q357 594 357 501 Q357 408 315.5 355.5 Q274 303 200 303 Z M200 323 Q263 323 298.5 370 Q334 417 334 501 Q334 585 298.5 632 Q263 679 200 679 Q137 679 101.5 632 Q66 585 66 501 Q66 417 101.5 370 Q137 323 200 323 Z M264 0 L240 0 L632 690 L656 690 L264 0 Z M696 -5 Q622 -5 580.5 47.5 Q539 100 539 193 Q539 286 581 339 Q623 392 696 392 Q769 392 811 339 Q853 286 853 193 Q853 100 811.5 47.5 Q770 -5 696 -5 Z M696 15 Q759 15 794.5 62 Q830 109 830 193 Q830 277 794.5 324 Q759 371 696 371 Q633 371 597.5 324 Q562 277 562 193 Q562 109 597.5 62 Q633 15 696 15 Z " />
<glyph glyph-name="perthousand" unicode="&#x2030;" horiz-adv-x="1296" d="M200 303 Q126 303 84.5 355.5 Q43 408 43 501 Q43 594 85 647 Q127 700 200 700 Q273 700 315 647 Q357 594 357 501 Q357 408 315.5 355.5 Q274 303 200 303 Z M200 323 Q263 323 298.5 370 Q334 417 334 501 Q334 585 298.5 632 Q263 679 200 679 Q137 679 101.5 632 Q66 585 66 501 Q66 417 101.5 370 Q137 323 200 323 Z M264 0 L240 0 L632 690 L656 690 L264 0 Z M696 -5 Q622 -5 580.5 47.5 Q539 100 539 193 Q539 286 581 339 Q623 392 696 392 Q769 392 811 339 Q853 286 853 193 Q853 100 811.5 47.5 Q770 -5 696 -5 Z M696 15 Q759 15 794.5 62 Q830 109 830 193 Q830 277 794.5 324 Q759 371 696 371 Q633 371 597.5 324 Q562 277 562 193 Q562 109 597.5 62 Q633 15 696 15 Z M1096 -5 Q1022 -5 980.5 47.5 Q939 100 939 193 Q939 286 981 339 Q1023 392 1096 392 Q1169 392 1211 339 Q1253 286 1253 193 Q1253 100 1211.5 47.5 Q1170 -5 1096 -5 Z M1096 15 Q1159 15 1194.5 62 Q1230 109 1230 193 Q1230 277 1194.5 324 Q1159 371 1096 371 Q1033 371 997.5 324 Q962 277 962 193 Q962 109 997.5 62 Q1033 15 1096 15 Z " />
<glyph glyph-name="fraction" unicode="&#x2044;" horiz-adv-x="96" d="M-136 0 L-160 0 L232 690 L256 690 L-136 0 Z " />
<glyph glyph-name="uni2215" unicode="&#x2215;" horiz-adv-x="96" d="M-136 0 L-160 0 L232 690 L256 690 L-136 0 Z " />
<glyph glyph-name="zerosuperior" unicode="&#x2070;" horiz-adv-x="400" d="M200 303 Q126 303 84.5 355.5 Q43 408 43 501 Q43 594 85 647 Q127 700 200 700 Q273 700 315 647 Q357 594 357 501 Q357 408 315.5 355.5 Q274 303 200 303 Z M200 323 Q263 323 298.5 370 Q334 417 334 501 Q334 585 298.5 632 Q263 679 200 679 Q137 679 101.5 632 Q66 585 66 501 Q66 417 101.5 370 Q137 323 200 323 Z " />
<glyph glyph-name="onesuperior" unicode="&#xb9;" horiz-adv-x="400" d="M126 651 L209 695 L229 695 L229 308 L207 308 L207 671 L126 629 L126 651 Z " />
<glyph glyph-name="twosuperior" unicode="&#xb2;" horiz-adv-x="400" d="M191 679 Q163 679 136 670.5 Q109 662 86 646 L86 670 Q111 685 138.5 692.5 Q166 700 194 700 Q246 700 277 674 Q308 648 308 606 Q308 575 293 550 Q278 525 231 486 L158 426 Q122 397 106.5 374 Q91 351 90 328 L319 328 L319 308 L66 308 L66 316 Q66 347 84 377.5 Q102 408 141 440 L213 498 Q261 536 273.5 557 Q286 578 286 604 Q286 637 260 658 Q234 679 191 679 Z " />
<glyph glyph-name="threesuperior" unicode="&#xb3;" horiz-adv-x="400" d="M179 303 Q147 303 118.5 310 Q90 317 66 331 L66 354 Q92 339 120 331 Q148 323 176 323 Q228 323 260.5 348 Q293 373 293 414 Q293 452 265 475 Q237 498 192 498 L135 498 L135 518 L192 518 Q232 518 259 541 Q286 564 286 600 Q286 635 256.5 657 Q227 679 181 679 Q153 679 125.5 671 Q98 663 73 647 L73 669 Q98 685 124.5 692.5 Q151 700 181 700 Q237 700 272.5 672.5 Q308 645 308 601 Q308 568 287.5 543 Q267 518 234 509 Q271 501 293 476 Q315 451 315 414 Q315 364 277 333.5 Q239 303 179 303 Z " />
<glyph glyph-name="foursuperior" unicode="&#x2074;" horiz-adv-x="400" d="M222 694 L245 694 L72 417 L242 417 L242 496 L263 508 L263 417 L323 417 L323 396 L263 396 L263 308 L242 308 L242 396 L50 396 L50 417 L222 694 Z " />
<glyph glyph-name="onehalf" unicode="&#xbd;" horiz-adv-x="896" d="M126 651 L209 695 L229 695 L229 308 L207 308 L207 671 L126 629 L126 651 Z M248 0 L224 0 L616 690 L640 690 L248 0 Z M687 371 Q659 371 632 362.5 Q605 354 582 338 L582 362 Q607 377 634.5 384.5 Q662 392 690 392 Q742 392 773 366 Q804 340 804 298 Q804 267 789 242 Q774 217 727 178 L654 118 Q618 89 602.5 66 Q587 43 586 20 L815 20 L815 0 L562 0 L562 8 Q562 39 580 69.5 Q598 100 637 132 L709 190 Q757 228 769.5 249 Q782 270 782 296 Q782 329 756 350 Q730 371 687 371 Z " />
<glyph glyph-name="onequarter" unicode="&#xbc;" horiz-adv-x="896" d="M126 651 L209 695 L229 695 L229 308 L207 308 L207 671 L126 629 L126 651 Z M264 0 L240 0 L632 690 L656 690 L264 0 Z M718 386 L741 386 L568 109 L738 109 L738 188 L759 200 L759 109 L819 109 L819 88 L759 88 L759 0 L738 0 L738 88 L546 88 L546 109 L718 386 Z " />
<glyph glyph-name="threequarters" unicode="&#xbe;" horiz-adv-x="896" d="M179 303 Q147 303 118.5 310 Q90 317 66 331 L66 354 Q92 339 120 331 Q148 323 176 323 Q228 323 260.5 348 Q293 373 293 414 Q293 452 265 475 Q237 498 192 498 L135 498 L135 518 L192 518 Q232 518 259 541 Q286 564 286 600 Q286 635 256.5 657 Q227 679 181 679 Q153 679 125.5 671 Q98 663 73 647 L73 669 Q98 685 124.5 692.5 Q151 700 181 700 Q237 700 272.5 672.5 Q308 645 308 601 Q308 568 287.5 543 Q267 518 234 509 Q271 501 293 476 Q315 451 315 414 Q315 364 277 333.5 Q239 303 179 303 Z M277 0 L253 0 L645 690 L669 690 L277 0 Z M718 386 L741 386 L568 109 L738 109 L738 188 L759 200 L759 109 L819 109 L819 88 L759 88 L759 0 L738 0 L738 88 L546 88 L546 109 L718 386 Z " />
<glyph glyph-name="plus" unicode="&#x2b;" horiz-adv-x="560" d="M291 580 L291 350 L510 350 L510 329 L291 329 L291 100 L269 100 L269 329 L50 329 L50 350 L269 350 L269 580 L291 580 Z " />
<glyph glyph-name="minus" unicode="&#x2212;" horiz-adv-x="560" d="M50 329 L50 350 L510 350 L510 329 L50 329 Z " />
<glyph glyph-name="multiply" unicode="&#xd7;" horiz-adv-x="560" d="M115 516 L277 354 L439 516 L454 502 L292 339 L454 176 L439 161 L276 323 L117 164 L102 179 L261 338 L99 500 L115 516 Z " />
<glyph glyph-name="divide" unicode="&#xf7;" horiz-adv-x="560" d="M257 486 L257 560 L295 560 L295 486 L257 486 Z M50 329 L50 350 L510 350 L510 329 L50 329 Z M257 119 L257 193 L295 193 L295 119 L257 119 Z " />
<glyph glyph-name="equal" unicode="&#x3d;" horiz-adv-x="560" d="M50 402 L50 423 L510 423 L510 402 L50 402 Z M50 262 L50 283 L510 283 L510 262 L50 262 Z " />
<glyph glyph-name="logicalnot" unicode="&#xac;" horiz-adv-x="560" d="M50 329 L50 350 L510 350 L510 97 L488 97 L488 329 L50 329 Z " />
<glyph glyph-name="asciitilde" unicode="&#x7e;" horiz-adv-x="560" d="M50 338 L50 361 Q88 378 110.5 382.5 Q133 387 158 387 Q179 387 203.5 382.5 Q228 378 277 365 Q326 351 351 346.5 Q376 342 398 342 Q426 342 454 350 Q482 358 510 374 L510 351 Q475 332 450 325.5 Q425 319 398 319 Q374 319 348 323.5 Q322 328 272 342 Q226 356 202.5 360 Q179 364 158 364 Q139 364 119 360 Q99 356 50 338 Z " />
<glyph glyph-name="less" unicode="&#x3c;" horiz-adv-x="560" d="M50 327 L50 357 L510 588 L510 561 L70 342 L510 122 L510 95 L50 327 Z " />
<glyph glyph-name="greater" unicode="&#x3e;" horiz-adv-x="560" d="M490 342 L50 561 L50 588 L510 357 L510 327 L50 95 L50 122 L490 342 Z " />
<glyph glyph-name="plusminus" unicode="&#xb1;" horiz-adv-x="560" d="M287 580 L287 353 L510 353 L510 332 L287 332 L287 100 L265 100 L265 332 L50 332 L50 353 L265 353 L265 580 L287 580 Z M50 0 L50 21 L510 21 L510 0 L50 0 Z " />
<glyph glyph-name="asciicircum" unicode="&#x5e;" horiz-adv-x="560" d="M95 250 L71 250 L278 690 L300 690 L508 250 L484 250 L289 667 L95 250 Z " />
<glyph glyph-name="notequal" unicode="&#x2260;" horiz-adv-x="560" d="M510 283 L510 262 L252 262 L169 88 L147 88 L230 262 L50 262 L50 283 L240 283 L296 402 L50 402 L50 423 L306 423 L391 602 L413 602 L328 423 L510 423 L510 402 L318 402 L262 283 L510 283 Z " />
<glyph glyph-name="approxequal" unicode="&#x2248;" horiz-adv-x="560" d="M50 408 L50 431 Q88 448 110.5 452.5 Q133 457 158 457 Q179 457 203.5 452.5 Q228 448 277 435 Q326 421 351 416.5 Q376 412 398 412 Q426 412 454 420 Q482 428 510 444 L510 421 Q475 402 450 395.5 Q425 389 398 389 Q374 389 348 393.5 Q322 398 272 412 Q226 426 202.5 430 Q179 434 158 434 Q139 434 119 430 Q99 426 50 408 Z M50 268 L50 291 Q88 308 110.5 312.5 Q133 317 158 317 Q179 317 203.5 312.5 Q228 308 277 295 Q326 281 351 276.5 Q376 272 398 272 Q426 272 454 280 Q482 288 510 304 L510 281 Q475 262 450 255.5 Q425 249 398 249 Q374 249 348 253.5 Q322 258 272 272 Q226 286 202.5 290 Q179 294 158 294 Q139 294 119 290 Q99 286 50 268 Z " />
<glyph glyph-name="lessequal" unicode="&#x2264;" horiz-adv-x="560" d="M50 337 L50 367 L510 588 L510 561 L70 352 L510 142 L510 115 L50 337 Z M50 0 L50 21 L510 21 L510 0 L50 0 Z " />
<glyph glyph-name="greaterequal" unicode="&#x2265;" horiz-adv-x="560" d="M50 561 L50 588 L510 367 L510 337 L50 115 L50 142 L490 352 L50 561 Z M50 0 L50 21 L510 21 L510 0 L50 0 Z " />
<glyph glyph-name="infinity" unicode="&#x221e;" horiz-adv-x="790" d="M64 317 Q64 378 104.5 419.5 Q145 461 206 461 Q258 461 301.5 433.5 Q345 406 396 334 Q441 402 486 431.5 Q531 461 584 461 Q645 461 685.5 420 Q726 379 726 317 Q726 255 684.5 216 Q643 177 576 177 Q526 177 481.5 206 Q437 235 396 297 Q355 235 310.5 206 Q266 177 215 177 Q147 177 105.5 216 Q64 255 64 317 Z M584 440 Q535 440 491.5 410 Q448 380 407 318 Q453 249 491 223.5 Q529 198 576 198 Q632 198 667.5 231.5 Q703 265 703 317 Q703 371 670 405.5 Q637 440 584 440 Z M207 440 Q153 440 120 406 Q87 372 87 317 Q87 267 124 232.5 Q161 198 214 198 Q262 198 304 226.5 Q346 255 384 314 Q344 375 298.5 407.5 Q253 440 207 440 Z " />
<glyph glyph-name="lozenge" unicode="&#x25ca;" horiz-adv-x="499" d="M259 690 L459 346 L259 0 L239 0 L40 346 L239 690 L259 690 Z M249 24 L434 346 L249 666 L65 346 L249 24 Z " />
<glyph glyph-name="radical" unicode="&#x221a;" horiz-adv-x="518" d="M498 736 L229 0 L209 0 L96 283 L30 283 L30 304 L111 304 L220 26 L479 741 L498 736 Z " />
<glyph glyph-name="integral" unicode="&#x222b;" horiz-adv-x="516" d="M436 750 Q452 750 466.5 747 Q481 744 496 737 L496 716 Q484 722 466.5 725.5 Q449 729 433 729 Q377 729 345.5 689.5 Q314 650 300 562 L199 -81 Q190 -143 159 -176.5 Q128 -210 80 -210 Q64 -210 49 -207 Q34 -204 20 -199 L20 -178 Q35 -184 49.5 -186.5 Q64 -189 80 -189 Q120 -189 145 -160.5 Q170 -132 179 -76 L279 559 Q295 658 332.5 704 Q370 750 436 750 Z " />
<glyph glyph-name="partialdiff" unicode="&#x2202;" horiz-adv-x="618" d="M518 398 Q494 489 434 571 Q374 653 278 725 L290 740 Q421 647 489.5 527 Q558 407 558 271 Q558 145 487.5 67.5 Q417 -10 307 -10 Q200 -10 127.5 65 Q55 140 55 252 Q55 364 127.5 439.5 Q200 515 307 515 Q373 515 427 485 Q481 455 518 398 Z M307 495 Q210 495 143.5 425 Q77 355 77 252 Q77 149 143.5 79.5 Q210 10 307 10 Q409 10 472.5 81.5 Q536 153 536 269 Q536 364 469 429.5 Q402 495 307 495 Z " />
<glyph glyph-name="product" unicode="&#x220f;" horiz-adv-x="725" d="M105 -150 L105 690 L620 690 L620 -150 L598 -150 L598 669 L127 669 L127 -150 L105 -150 Z " />
<glyph glyph-name="pi" unicode="&#x3c0;" horiz-adv-x="710" d="M560 -10 Q519 -10 496.5 20.5 Q474 51 474 106 L474 485 L276 485 L239 0 L218 0 L255 485 L172 485 Q131 485 109.5 467.5 Q88 450 88 419 Q88 402 92.5 381 Q97 360 106 340 L83 340 Q74 361 69.5 381 Q65 401 65 419 Q65 460 94.5 482.5 Q124 505 177 505 L650 505 L650 485 L495 485 L495 106 Q495 58 511.5 34 Q528 10 561 10 Q576 10 592 16 Q608 22 619 32 L631 17 Q617 4 598 -3 Q579 -10 560 -10 Z " />
<glyph glyph-name="mu" unicode="&#xb5;" horiz-adv-x="655" d="M275 -10 Q218 -10 180 9 Q142 28 122 67 L122 -200 L100 -200 L100 505 L122 505 L122 176 Q122 92 159.5 51.5 Q197 11 275 11 Q335 11 390 46 Q445 81 485 143 L485 505 L506 505 L506 106 Q506 58 522.5 34 Q539 10 572 10 Q587 10 603 16 Q619 22 630 32 L642 17 Q628 4 609 -3 Q590 -10 571 -10 Q531 -10 508 21 Q485 52 485 106 L485 116 Q449 60 393 25 Q337 -10 275 -10 Z " />
<glyph glyph-name="summation" unicode="&#x2211;" horiz-adv-x="520" d="M40 -135 L312 253 L40 675 L40 690 L485 690 L485 669 L71 669 L338 253 L71 -129 L485 -129 L485 -150 L40 -150 L40 -135 Z " />
<glyph glyph-name="Omega" unicode="&#x2126;" horiz-adv-x="790" d="M69 0 L69 21 L301 21 Q183 67 121 152.5 Q59 238 59 355 Q59 507 153.5 603.5 Q248 700 395 700 Q542 700 636.5 603.5 Q731 507 731 355 Q731 239 669 153 Q607 67 492 21 L721 21 L721 0 L453 0 L453 21 Q581 70 644.5 153 Q708 236 708 355 Q708 497 620 588 Q532 679 395 679 Q258 679 170 588 Q82 497 82 355 Q82 235 147.5 151.5 Q213 68 344 21 L344 0 L69 0 Z " />
<glyph glyph-name="uni03A9" unicode="&#x3a9;" horiz-adv-x="790" d="M69 0 L69 21 L301 21 Q183 67 121 152.5 Q59 238 59 355 Q59 507 153.5 603.5 Q248 700 395 700 Q542 700 636.5 603.5 Q731 507 731 355 Q731 239 669 153 Q607 67 492 21 L721 21 L721 0 L453 0 L453 21 Q581 70 644.5 153 Q708 236 708 355 Q708 497 620 588 Q532 679 395 679 Q258 679 170 588 Q82 497 82 355 Q82 235 147.5 151.5 Q213 68 344 21 L344 0 L69 0 Z " />
<glyph glyph-name="increment" unicode="&#x2206;" horiz-adv-x="688" d="M356 690 L668 0 L20 0 L332 690 L356 690 Z M344 664 L55 21 L633 21 L344 664 Z " />
<glyph glyph-name="uni0394" unicode="&#x394;" horiz-adv-x="688" d="M356 690 L668 0 L20 0 L332 690 L356 690 Z M344 664 L55 21 L633 21 L344 664 Z " />
<glyph glyph-name="uni2113" unicode="&#x2113;" horiz-adv-x="506" d="M261 -10 Q187 -10 148.5 43 Q110 96 106 203 Q99 199 90.5 194 Q82 189 64 179 Q50 171 42.5 167 Q35 163 29 159 L20 176 Q28 180 49.5 192.5 Q71 205 106 226 Q106 309 120 388.5 Q134 468 160 536 Q198 636 252.5 693 Q307 750 367 750 Q412 750 439 716 Q466 682 466 625 Q466 520 385 421.5 Q304 323 128 215 L128 207 Q128 113 163.5 62 Q199 11 261 11 Q306 11 339 37.5 Q372 64 393 116 L413 109 Q387 50 348.5 20 Q310 -10 261 -10 Z M443 623 Q443 672 422.5 700.5 Q402 729 367 729 Q315 729 265 674.5 Q215 620 179 525 Q155 461 142 387 Q129 313 128 238 Q285 334 364 430 Q443 526 443 623 Z " />
<glyph glyph-name="estimated" unicode="&#x212e;" horiz-adv-x="824" d="M790 311 L790 302 L207 302 Q204 302 203 301 Q202 300 202 298 L202 122 Q202 116 204 111 Q206 106 210 102 Q254 56 311 31 Q368 6 431 6 Q498 6 558 34 Q618 62 663 113 L715 113 Q664 54 589 20.5 Q514 -13 430 -13 Q281 -13 175.5 82 Q70 177 70 311 Q70 445 175.5 540 Q281 635 430 635 Q579 635 684.5 540 Q790 445 790 311 Z M658 325 L658 503 Q658 509 656 514.5 Q654 520 649 524 Q605 568 548.5 592 Q492 616 431 616 Q369 616 312 591.5 Q255 567 211 521 Q206 516 204 511 Q202 506 202 499 L202 325 Q202 323 203.5 321.5 Q205 320 207 320 L654 320 Q656 320 657 321.5 Q658 323 658 325 Z " />
<glyph glyph-name="heart" unicode="&#x2665;" horiz-adv-x="602" d="M199 500 Q229 500 255 482.5 Q281 465 297 435 L305 435 Q321 465 347 482.5 Q373 500 403 500 Q446 500 474 470.5 Q502 441 502 395 Q502 329 445.5 254.5 Q389 180 301 135 Q213 180 156.5 254.5 Q100 329 100 395 Q100 441 128 470.5 Q156 500 199 500 Z " />
</font>
</svg>
