<?xml version="1.0" encoding="UTF-8"?>
<svg xmlns="http://www.w3.org/2000/svg" xmlns:xlink="http://www.w3.org/1999/xlink" version="1.2" >
<font id="RCI Bk Regular">
<font-face  font-family="RCI" units-per-em="1000" ascent="980" descent="-322" font-style="normal" font-weight="250" font-stretch="normal" cap-height="700" x-height="510" underline-position="-100" underline-thickness="50" />
<missing-glyph  horiz-adv-x="602" d="M199 500 Q229 500 255 482.5 Q281 465 297 435 L305 435 Q321 465 347 482.5 Q373 500 403 500 Q446 500 474 470.5 Q502 441 502 395 Q502 329 445.5 254.5 Q389 180 301 135 Q213 180 156.5 254.5 Q100 329 100 395 Q100 441 128 470.5 Q156 500 199 500 Z " />
<glyph glyph-name="null" d="" />
<glyph glyph-name="CR" unicode="&#xd;" d="" />
<glyph glyph-name="space" unicode="&#x20;" horiz-adv-x="255" d="" />
<glyph glyph-name="uni00A0" unicode="&#xa0;" horiz-adv-x="255" d="" />
<glyph glyph-name="A" unicode="A" horiz-adv-x="698" d="M508 229 L347 613 L186 229 L508 229 Z M684 0 L604 0 L534 167 L160 167 L90 0 L14 0 L305 690 L391 690 L684 0 Z " />
<glyph glyph-name="B" unicode="B" horiz-adv-x="664" d="M91 0 L91 690 L349 690 Q451 690 511.5 643 Q572 596 572 516 Q572 461 543 421 Q514 381 462 363 Q528 349 564.5 303.5 Q601 258 601 191 Q601 103 536.5 51.5 Q472 0 360 0 L91 0 Z M497 510 Q497 565 457 596 Q417 627 346 627 L164 627 L164 389 L364 389 Q423 389 460 422 Q497 455 497 510 Z M164 328 L164 62 L355 62 Q437 62 481 97 Q525 132 525 196 Q525 257 484.5 292.5 Q444 328 375 328 L164 328 Z " />
<glyph glyph-name="C" unicode="C" horiz-adv-x="654" d="M402 57 Q457 57 507.5 70 Q558 83 610 110 L610 38 Q561 13 509.5 1.5 Q458 -10 398 -10 Q243 -10 145.5 89 Q48 188 48 346 Q48 501 146 600.5 Q244 700 397 700 Q455 700 507 686 Q559 672 598 647 L598 576 Q554 603 503 617.5 Q452 632 399 632 Q275 632 199.5 553 Q124 474 124 346 Q124 215 200 136 Q276 57 402 57 Z " />
<glyph glyph-name="D" unicode="D" horiz-adv-x="726" d="M599 347 Q599 471 526 547 Q453 623 333 623 L164 623 L164 66 L333 66 Q455 66 527 142 Q599 218 599 347 Z M334 0 L91 0 L91 690 L337 690 Q486 690 581 594 Q676 498 676 348 Q676 192 581.5 96 Q487 0 334 0 Z " />
<glyph glyph-name="E" unicode="E" horiz-adv-x="594" d="M541 690 L541 623 L164 623 L164 387 L442 387 L442 321 L164 321 L164 66 L541 66 L541 0 L91 0 L91 690 L541 690 Z " />
<glyph glyph-name="F" unicode="F" horiz-adv-x="580" d="M541 690 L541 623 L164 623 L164 383 L442 383 L442 317 L164 317 L164 0 L91 0 L91 690 L541 690 Z " />
<glyph glyph-name="G" unicode="G" horiz-adv-x="727" d="M666 346 L666 77 Q618 34 550.5 12 Q483 -10 400 -10 Q244 -10 146 89 Q48 188 48 344 Q48 501 145.5 600.5 Q243 700 397 700 Q456 700 507.5 688 Q559 676 596 653 L596 581 Q551 606 501.5 619 Q452 632 399 632 Q274 632 199 553.5 Q124 475 124 345 Q124 216 201 136.5 Q278 57 404 57 Q466 57 513.5 71 Q561 85 596 114 L596 283 L399 283 L399 346 L666 346 Z " />
<glyph glyph-name="H" unicode="H" horiz-adv-x="754" d="M663 0 L589 0 L589 309 L164 309 L164 0 L91 0 L91 690 L164 690 L164 375 L589 375 L589 690 L663 690 L663 0 Z " />
<glyph glyph-name="I" unicode="I" horiz-adv-x="255" d="M91 690 L164 690 L164 0 L91 0 L91 690 Z " />
<glyph glyph-name="J" unicode="J" horiz-adv-x="451" d="M152 -10 Q124 -10 94 -5.5 Q64 -1 44 7 L44 74 Q64 65 90 61 Q116 57 149 57 Q219 57 255 98 Q291 139 291 219 L291 690 L365 690 L365 219 Q365 111 308 50.5 Q251 -10 152 -10 Z " />
<glyph glyph-name="K" unicode="K" horiz-adv-x="654" d="M629 0 L540 0 L268 319 L164 201 L164 0 L91 0 L91 690 L164 690 L164 294 L513 690 L596 690 L315 372 L629 0 Z " />
<glyph glyph-name="L" unicode="L" horiz-adv-x="598" d="M91 690 L164 690 L164 66 L544 66 L544 0 L91 0 L91 690 Z " />
<glyph glyph-name="M" unicode="M" horiz-adv-x="860" d="M433 273 L699 690 L769 690 L769 0 L695 0 L695 564 L465 200 L402 200 L164 561 L164 0 L91 0 L91 690 L161 690 L433 273 Z " />
<glyph glyph-name="N" unicode="N" horiz-adv-x="746" d="M656 0 L586 0 L164 566 L164 0 L91 0 L91 690 L161 690 L582 119 L582 690 L656 690 L656 0 Z " />
<glyph glyph-name="O" unicode="O" horiz-adv-x="795" d="M397 -10 Q248 -10 149.5 90.5 Q51 191 51 344 Q51 498 149.5 599 Q248 700 397 700 Q547 700 645.5 599 Q744 498 744 345 Q744 192 645.5 91 Q547 -10 397 -10 Z M398 57 Q516 57 591.5 137.5 Q667 218 667 345 Q667 471 591.5 551.5 Q516 632 398 632 Q279 632 203.5 551.5 Q128 471 128 345 Q128 218 203.5 137.5 Q279 57 398 57 Z " />
<glyph glyph-name="P" unicode="P" horiz-adv-x="641" d="M511 476 Q511 542 467 582.5 Q423 623 351 623 L164 623 L164 324 L351 324 Q423 324 467 365.5 Q511 407 511 476 Z M588 476 Q588 381 521 319.5 Q454 258 351 258 L164 258 L164 0 L91 0 L91 690 L351 690 Q454 690 521 630 Q588 570 588 476 Z " />
<glyph glyph-name="Q" unicode="Q" horiz-adv-x="795" d="M128 345 Q128 218 203.5 137.5 Q279 57 398 57 Q449 57 494 73.5 Q539 90 575 121 L481 220 L519 257 L611 161 Q638 197 652.5 244.5 Q667 292 667 345 Q667 471 591.5 551.5 Q516 632 398 632 Q279 632 203.5 551.5 Q128 471 128 345 Z M737 28 L699 -8 L624 71 Q577 31 519.5 10.5 Q462 -10 397 -10 Q248 -10 149.5 90.5 Q51 191 51 344 Q51 498 149.5 599 Q248 700 397 700 Q547 700 645.5 599 Q744 498 744 345 Q744 278 722.5 217 Q701 156 661 108 L737 28 Z " />
<glyph glyph-name="R" unicode="R" horiz-adv-x="651" d="M507 497 Q507 554 465 588.5 Q423 623 354 623 L164 623 L164 365 L354 365 Q423 365 465 401.5 Q507 438 507 497 Z M615 0 L528 0 L342 300 L164 300 L164 0 L91 0 L91 690 L354 690 Q454 690 519 636 Q584 582 584 499 Q584 428 539 376 Q494 324 419 307 L615 0 Z " />
<glyph glyph-name="S" unicode="S" horiz-adv-x="592" d="M287 -10 Q221 -10 158.5 6.5 Q96 23 51 52 L51 126 Q104 92 166 74 Q228 56 291 56 Q374 56 422.5 89 Q471 122 471 179 Q471 226 432.5 257.5 Q394 289 277 328 Q153 368 103.5 412.5 Q54 457 54 523 Q54 601 123.5 650.5 Q193 700 303 700 Q359 700 408 688.5 Q457 677 501 654 L501 585 Q456 609 404.5 621 Q353 633 300 633 Q223 633 176.5 604 Q130 575 130 526 Q130 485 165.5 457.5 Q201 430 324 389 Q448 347 497.5 301 Q547 255 547 183 Q547 95 475 42.5 Q403 -10 287 -10 Z " />
<glyph glyph-name="T" unicode="T" horiz-adv-x="597" d="M569 690 L569 623 L335 623 L335 0 L261 0 L261 623 L28 623 L28 690 L569 690 Z " />
<glyph glyph-name="U" unicode="U" horiz-adv-x="729" d="M570 264 L570 690 L643 690 L643 263 Q643 139 567 64.5 Q491 -10 364 -10 Q238 -10 162 65 Q86 140 86 265 L86 690 L159 690 L159 264 Q159 169 214.5 113 Q270 57 364 57 Q459 57 514.5 113 Q570 169 570 264 Z " />
<glyph glyph-name="V" unicode="V" horiz-adv-x="706" d="M618 690 L695 690 L395 0 L309 0 L11 690 L92 690 L354 76 L618 690 Z " />
<glyph glyph-name="W" unicode="W" horiz-adv-x="1020" d="M724 79 L934 690 L1008 690 L767 0 L682 0 L510 473 L336 0 L254 0 L11 690 L90 690 L300 79 L478 562 L551 562 L724 79 Z " />
<glyph glyph-name="X" unicode="X" horiz-adv-x="645" d="M624 0 L538 0 L318 290 L95 0 L16 0 L278 343 L15 690 L101 690 L325 394 L550 690 L630 690 L366 341 L624 0 Z " />
<glyph glyph-name="Y" unicode="Y" horiz-adv-x="657" d="M561 690 L642 690 L365 287 L365 0 L291 0 L291 287 L14 690 L93 690 L327 352 L561 690 Z " />
<glyph glyph-name="Z" unicode="Z" horiz-adv-x="601" d="M560 0 L41 0 L41 60 L459 614 L47 614 L47 680 L553 680 L553 619 L134 66 L560 66 L560 0 Z " />
<glyph glyph-name="AE" unicode="&#xc6;" horiz-adv-x="962" d="M224 230 L459 230 L459 622 L224 230 Z M909 0 L459 0 L459 167 L190 167 L90 0 L11 0 L420 690 L909 690 L909 623 L532 623 L532 387 L810 387 L810 321 L532 321 L532 66 L909 66 L909 0 Z " />
<glyph glyph-name="OE" unicode="&#x152;" horiz-adv-x="1170" d="M128 345 Q128 218 203.5 137.5 Q279 57 398 57 Q516 57 591.5 137.5 Q667 218 667 345 Q667 471 591.5 551.5 Q516 632 398 632 Q279 632 203.5 551.5 Q128 471 128 345 Z M1117 0 L667 0 L667 153 Q629 75 558.5 32.5 Q488 -10 397 -10 Q248 -10 149.5 90.5 Q51 191 51 344 Q51 498 149.5 599 Q248 700 397 700 Q487 700 559.5 656.5 Q632 613 667 538 L667 690 L1117 690 L1117 623 L741 623 L741 387 L1019 387 L1019 321 L741 321 L741 66 L1117 66 L1117 0 Z " />
<glyph glyph-name="Lslash" unicode="&#x141;" horiz-adv-x="600" d="M546 66 L546 0 L92 0 L92 286 L11 249 L11 309 L92 347 L92 690 L166 690 L166 381 L366 474 L366 413 L166 321 L166 66 L546 66 Z " />
<glyph glyph-name="Oslash" unicode="&#xd8;" horiz-adv-x="795" d="M744 345 Q744 192 645.5 91 Q547 -10 397 -10 Q333 -10 275.5 10.5 Q218 31 171 70 L96 -8 L58 28 L134 107 Q94 155 72.5 216 Q51 277 51 344 Q51 498 149.5 599 Q248 700 397 700 Q461 700 519 679.5 Q577 659 623 620 L699 699 L737 662 L661 582 Q701 535 722.5 474 Q744 413 744 345 Z M398 632 Q279 632 203.5 551.5 Q128 471 128 345 Q128 291 142 244.5 Q156 198 184 160 L574 568 Q539 599 494 615.5 Q449 632 398 632 Z M398 57 Q516 57 591.5 137.5 Q667 218 667 345 Q667 398 652.5 445 Q638 492 610 529 L220 122 Q256 90 301 73.5 Q346 57 398 57 Z " />
<glyph glyph-name="Eth" unicode="&#xd0;" horiz-adv-x="727" d="M317 374 L317 318 L166 318 L166 66 L335 66 Q457 66 529 142 Q601 218 601 347 Q601 471 528 547 Q455 623 335 623 L166 623 L166 374 L317 374 Z M336 0 L92 0 L92 318 L18 318 L18 374 L92 374 L92 690 L339 690 Q487 690 582.5 593.5 Q678 497 678 348 Q678 193 583 96.5 Q488 0 336 0 Z " />
<glyph glyph-name="Thorn" unicode="&#xde;" horiz-adv-x="644" d="M511 349 Q511 415 467 455.5 Q423 496 351 496 L164 496 L164 197 L351 197 Q423 197 467 238.5 Q511 280 511 349 Z M588 349 Q588 254 521 192.5 Q454 131 351 131 L164 131 L164 0 L91 0 L91 690 L164 690 L164 562 L351 562 Q454 562 521 502 Q588 442 588 349 Z " />
<glyph glyph-name="a" unicode="a" horiz-adv-x="587" d="M263 43 Q311 43 354 69 Q397 95 432 145 L432 223 Q394 253 350 269 Q306 285 261 285 Q195 285 158 253.5 Q121 222 121 166 Q121 111 160.5 77 Q200 43 263 43 Z M106 414 L106 475 Q142 497 187 508.5 Q232 520 283 520 Q392 520 447 467.5 Q502 415 502 312 L502 0 L432 0 L432 90 Q402 43 350 16.5 Q298 -10 236 -10 Q154 -10 100.5 38.5 Q47 87 47 163 Q47 240 99.5 287 Q152 334 239 334 Q296 334 343.5 319.5 Q391 305 430 277 L430 309 Q430 386 391 423.5 Q352 461 272 461 Q225 461 184 449.5 Q143 438 106 414 Z " />
<glyph glyph-name="b" unicode="b" horiz-adv-x="647" d="M601 255 Q601 139 531.5 64.5 Q462 -10 355 -10 Q293 -10 241 17.5 Q189 45 156 96 L156 0 L86 0 L86 727 L156 740 L156 411 Q196 466 245 493 Q294 520 355 520 Q462 520 531.5 445.5 Q601 371 601 255 Z M529 256 Q529 347 477 403 Q425 459 341 459 Q285 459 236 428 Q187 397 156 342 L156 163 Q188 109 236 80 Q284 51 341 51 Q425 51 477 107 Q529 163 529 256 Z " />
<glyph glyph-name="c" unicode="c" horiz-adv-x="518" d="M322 459 Q226 459 171.5 404 Q117 349 117 254 Q117 160 171 105 Q225 50 320 50 Q363 50 399 62.5 Q435 75 473 104 L473 41 Q442 16 399.5 3 Q357 -10 307 -10 Q189 -10 117.5 62.5 Q46 135 46 254 Q46 374 118.5 447 Q191 520 311 520 Q362 520 401.5 509 Q441 498 467 476 L467 408 Q439 433 401.5 446 Q364 459 322 459 Z " />
<glyph glyph-name="d" unicode="d" horiz-adv-x="647" d="M491 166 L491 345 Q460 399 411.5 429 Q363 459 305 459 Q221 459 169 403 Q117 347 117 256 Q117 163 169 107 Q221 51 305 51 Q362 51 410 81 Q458 111 491 166 Z M491 0 L491 100 Q459 47 407 18.5 Q355 -10 292 -10 Q185 -10 115.5 64.5 Q46 139 46 255 Q46 372 115 446 Q184 520 292 520 Q355 520 406 493.5 Q457 467 491 416 L491 727 L561 740 L561 0 L491 0 Z " />
<glyph glyph-name="e" unicode="e" horiz-adv-x="574" d="M299 462 Q226 462 175.5 415.5 Q125 369 117 291 L464 291 Q465 369 419 415.5 Q373 462 299 462 Z M488 95 L488 34 Q459 14 415.5 2 Q372 -10 327 -10 Q203 -10 124.5 66 Q46 142 46 261 Q46 375 117.5 447.5 Q189 520 301 520 Q403 520 467 455.5 Q531 391 533 287 Q533 274 532 261 Q531 248 529 241 L116 241 Q123 153 181 101 Q239 49 328 49 Q372 49 415 61.5 Q458 74 488 95 Z " />
<glyph glyph-name="f" unicode="f" horiz-adv-x="342" d="M307 510 L307 453 L163 453 L163 0 L93 0 L93 453 L11 453 L11 510 L93 510 L93 545 Q93 639 135.5 689.5 Q178 740 255 740 Q281 740 301.5 734.5 Q322 729 338 719 L338 658 Q325 667 305.5 672.5 Q286 678 265 678 Q214 678 188.5 645 Q163 612 163 546 L163 510 L307 510 Z " />
<glyph glyph-name="g" unicode="g" horiz-adv-x="647" d="M491 164 L491 347 Q460 400 411 429.5 Q362 459 305 459 Q221 459 169 403 Q117 347 117 256 Q117 163 169 107 Q221 51 305 51 Q361 51 408.5 80 Q456 109 491 164 Z M491 25 L491 101 Q459 48 407 19 Q355 -10 291 -10 Q184 -10 115 64 Q46 138 46 255 Q46 372 115 446 Q184 520 292 520 Q355 520 406 493.5 Q457 467 491 416 L491 510 L561 510 L561 34 Q561 -81 492.5 -148.5 Q424 -216 309 -216 Q278 -216 247.5 -210 Q217 -204 198 -194 L198 -134 Q221 -144 250 -150 Q279 -156 305 -156 Q390 -156 440.5 -107.5 Q491 -59 491 25 Z " />
<glyph glyph-name="h" unicode="h" horiz-adv-x="616" d="M86 727 L156 740 L156 419 Q191 467 241 493.5 Q291 520 351 520 Q442 520 488.5 470 Q535 420 535 323 L535 0 L465 0 L465 317 Q465 387 431 422.5 Q397 458 330 458 Q278 458 231 429.5 Q184 401 156 354 L156 0 L86 0 L86 727 Z " />
<glyph glyph-name="i" unicode="i" horiz-adv-x="242" d="M86 726 L156 726 L156 597 L86 597 L86 726 Z M86 510 L156 510 L156 0 L86 0 L86 510 Z " />
<glyph glyph-name="j" unicode="j" horiz-adv-x="250" d="M164 597 L94 597 L94 726 L164 726 L164 597 Z M7 -156 Q51 -156 72.5 -128.5 Q94 -101 94 -44 L94 510 L164 510 L164 -41 Q164 -127 128.5 -171.5 Q93 -216 25 -216 Q12 -216 -1 -214.5 Q-14 -213 -26 -211 L-26 -153 Q-17 -155 -9 -155.5 Q-1 -156 7 -156 Z " />
<glyph glyph-name="k" unicode="k" horiz-adv-x="547" d="M526 0 L440 0 L229 239 L156 165 L156 0 L86 0 L86 727 L156 740 L156 245 L414 511 L496 510 L275 286 L526 0 Z " />
<glyph glyph-name="l" unicode="l" horiz-adv-x="242" d="M156 740 L156 0 L86 0 L86 727 L156 740 Z " />
<glyph glyph-name="m" unicode="m" horiz-adv-x="961" d="M322 458 Q274 458 232 431 Q190 404 156 353 L156 0 L86 0 L86 510 L152 510 L152 413 Q188 466 236 493 Q284 520 343 520 Q406 520 450 490.5 Q494 461 510 410 Q543 463 592.5 491.5 Q642 520 702 520 Q786 520 833 472.5 Q880 425 880 341 L880 0 L810 0 L810 334 Q810 391 775.5 424.5 Q741 458 682 458 Q634 458 590 429 Q546 400 518 351 L518 0 L448 0 L448 341 Q448 392 413 425 Q378 458 322 458 Z " />
<glyph glyph-name="n" unicode="n" horiz-adv-x="616" d="M86 510 L152 510 L152 413 Q188 466 238 493 Q288 520 351 520 Q442 520 488.5 470 Q535 420 535 323 L535 0 L465 0 L465 317 Q465 387 431 422.5 Q397 458 330 458 Q278 458 231.5 429.5 Q185 401 156 353 L156 0 L86 0 L86 510 Z " />
<glyph glyph-name="o" unicode="o" horiz-adv-x="619" d="M309 520 Q422 520 497.5 444.5 Q573 369 573 255 Q573 141 497.5 65.5 Q422 -10 309 -10 Q196 -10 121 65.5 Q46 141 46 255 Q46 369 121 444.5 Q196 520 309 520 Z M309 50 Q393 50 447 107.5 Q501 165 501 255 Q501 345 447 402.5 Q393 460 309 460 Q225 460 171 402.5 Q117 345 117 255 Q117 165 171 107.5 Q225 50 309 50 Z " />
<glyph glyph-name="p" unicode="p" horiz-adv-x="647" d="M529 256 Q529 347 477 403 Q425 459 341 459 Q285 459 237 429.5 Q189 400 156 345 L156 159 Q188 108 237 79.5 Q286 51 341 51 Q425 51 477 107 Q529 163 529 256 Z M355 -10 Q291 -10 239.5 16.5 Q188 43 156 93 L156 -200 L86 -200 L86 510 L156 510 L156 414 Q189 465 240.5 492.5 Q292 520 355 520 Q462 520 531.5 445.5 Q601 371 601 255 Q601 139 531.5 64.5 Q462 -10 355 -10 Z " />
<glyph glyph-name="q" unicode="q" horiz-adv-x="647" d="M491 -198 L491 97 Q460 45 408.5 17.5 Q357 -10 292 -10 Q185 -10 115.5 64.5 Q46 139 46 255 Q46 372 115 446 Q184 520 292 520 Q355 520 406 493.5 Q457 467 491 417 L491 511 L561 511 L561 -198 L491 -198 Z M491 163 L491 349 Q459 401 410 430 Q361 459 305 459 Q221 459 169 403 Q117 347 117 256 Q117 163 169 107 Q221 51 305 51 Q361 51 410 80.5 Q459 110 491 163 Z " />
<glyph glyph-name="r" unicode="r" horiz-adv-x="376" d="M294 520 Q309 520 323 517 Q337 514 349 508 L349 441 Q337 447 320.5 450.5 Q304 454 287 454 Q245 454 210.5 426.5 Q176 399 156 349 L156 0 L86 0 L86 510 L156 510 L156 415 Q179 468 213 494 Q247 520 294 520 Z " />
<glyph glyph-name="s" unicode="s" horiz-adv-x="471" d="M247 461 Q185 461 150 439 Q115 417 115 378 Q115 351 138 334.5 Q161 318 256 289 Q359 260 395.5 227 Q432 194 432 139 Q432 68 378.5 29 Q325 -10 234 -10 Q179 -10 130.5 2 Q82 14 50 35 L50 103 Q84 77 134 62.5 Q184 48 237 48 Q296 48 330 70.5 Q364 93 364 135 Q364 168 337.5 188 Q311 208 212 237 Q117 266 82.5 296.5 Q48 327 48 376 Q48 442 103 481 Q158 520 246 520 Q290 520 329 510.5 Q368 501 402 483 L402 419 Q369 439 329 450 Q289 461 247 461 Z " />
<glyph glyph-name="t" unicode="t" horiz-adv-x="352" d="M309 65 L309 3 Q287 -4 269 -7 Q251 -10 235 -10 Q162 -10 127.5 27 Q93 64 93 141 L93 453 L11 453 L11 510 L93 510 L93 631 L163 643 L163 510 L307 510 L307 453 L163 453 L163 149 Q163 100 182.5 77 Q202 54 246 54 Q263 54 278.5 56.5 Q294 59 309 65 Z " />
<glyph glyph-name="u" unicode="u" horiz-adv-x="600" d="M514 0 L447 0 L447 100 Q415 48 366.5 19 Q318 -10 259 -10 Q171 -10 126 37.5 Q81 85 81 179 L81 510 L151 510 L151 187 Q151 118 183 84.5 Q215 51 280 51 Q328 51 370 79 Q412 107 443 159 L443 510 L514 510 L514 0 Z " />
<glyph glyph-name="v" unicode="v" horiz-adv-x="546" d="M532 510 L303 0 L233 0 L14 510 L89 510 L271 70 L462 510 L532 510 Z " />
<glyph glyph-name="w" unicode="w" horiz-adv-x="838" d="M824 510 L634 0 L559 0 L415 414 L276 0 L206 0 L14 510 L89 510 L246 73 L391 510 L451 510 L600 73 L759 510 L824 510 Z " />
<glyph glyph-name="x" unicode="x" horiz-adv-x="508" d="M494 0 L414 0 L251 213 L87 0 L14 0 L215 260 L24 510 L104 510 L259 307 L415 510 L487 510 L295 260 L494 0 Z " />
<glyph glyph-name="y" unicode="y" horiz-adv-x="544" d="M78 -216 Q67 -216 55.5 -214.5 Q44 -213 35 -211 L35 -151 Q43 -153 52.5 -154 Q62 -155 73 -155 Q124 -155 166 -117 Q208 -79 242 -1 L15 510 L87 510 L274 76 L458 510 L529 510 L305 0 Q256 -114 201.5 -165 Q147 -216 78 -216 Z " />
<glyph glyph-name="z" unicode="z" horiz-adv-x="484" d="M124 59 L449 59 L449 0 L35 0 L35 50 L355 451 L40 451 L40 510 L445 510 L445 460 L124 59 Z " />
<glyph glyph-name="ae" unicode="&#xe6;" horiz-adv-x="957" d="M682 462 Q608 462 558 415.5 Q508 369 501 291 L847 291 Q848 369 802 415.5 Q756 462 682 462 Z M709 -10 Q629 -10 567.5 24.5 Q506 59 471 123 Q438 63 375.5 26.5 Q313 -10 244 -10 Q157 -10 102 38 Q47 86 47 163 Q47 240 99.5 287 Q152 334 239 334 Q295 334 344 319.5 Q393 305 432 277 L432 309 Q432 385 391.5 423 Q351 461 270 461 Q224 461 183.5 449.5 Q143 438 106 414 L106 475 Q142 497 187 508.5 Q232 520 282 520 Q359 520 406 489.5 Q453 459 475 395 Q508 456 561.5 488 Q615 520 683 520 Q785 520 849.5 455.5 Q914 391 916 287 Q916 274 915 261 Q914 248 912 241 L500 241 Q504 153 562 101 Q620 49 711 49 Q755 49 798 61.5 Q841 74 871 95 L871 34 Q842 14 798.5 2 Q755 -10 709 -10 Z M121 166 Q121 111 160.5 77 Q200 43 263 43 Q321 43 370.5 79 Q420 115 444 170 Q440 182 437.5 194 Q435 206 433 222 Q394 252 349 268.5 Q304 285 261 285 Q195 285 158 253.5 Q121 222 121 166 Z " />
<glyph glyph-name="oe" unicode="&#x153;" horiz-adv-x="1030" d="M944 95 L944 34 Q915 14 871.5 2 Q828 -10 783 -10 Q699 -10 634 29 Q569 68 538 137 Q510 70 448 30 Q386 -10 309 -10 Q196 -10 121 65.5 Q46 141 46 255 Q46 369 121 444.5 Q196 520 309 520 Q385 520 445.5 482 Q506 444 536 379 Q562 444 621.5 482 Q681 520 757 520 Q859 520 923 455.5 Q987 391 989 287 Q989 274 988 261 Q987 248 985 241 L573 241 Q577 154 635.5 101.5 Q694 49 784 49 Q828 49 871 61.5 Q914 74 944 95 Z M755 462 Q681 462 631 415.5 Q581 369 574 291 L920 291 Q921 369 875 415.5 Q829 462 755 462 Z M309 50 Q393 50 447 107.5 Q501 165 501 255 Q501 345 447 402.5 Q393 460 309 460 Q225 460 171 402.5 Q117 345 117 255 Q117 165 171 107.5 Q225 50 309 50 Z " />
<glyph glyph-name="lslash" unicode="&#x142;" horiz-adv-x="249" d="M159 374 L159 0 L89 0 L89 341 L20 308 L20 369 L89 402 L89 727 L159 740 L159 435 L230 469 L230 407 L159 374 Z " />
<glyph glyph-name="oslash" unicode="&#xf8;" horiz-adv-x="619" d="M573 255 Q573 141 497.5 65.5 Q422 -10 309 -10 Q262 -10 219.5 4.5 Q177 19 143 46 L89 -10 L55 22 L109 78 Q78 114 62 159.5 Q46 205 46 255 Q46 369 121 444.5 Q196 520 309 520 Q357 520 400.5 505 Q444 490 480 461 L537 520 L571 487 L513 427 Q542 392 557.5 348.5 Q573 305 573 255 Z M309 460 Q225 460 171 402.5 Q117 345 117 255 Q117 218 127 185 Q137 152 156 126 L435 414 Q409 437 377 448.5 Q345 460 309 460 Z M309 50 Q393 50 447 107.5 Q501 165 501 255 Q501 290 492 321 Q483 352 466 379 L188 92 Q212 71 243 60.5 Q274 50 309 50 Z " />
<glyph glyph-name="eth" unicode="&#xf0;" horiz-adv-x="612" d="M566 287 Q566 153 494.5 71.5 Q423 -10 307 -10 Q195 -10 120.5 64.5 Q46 139 46 251 Q46 363 116.5 437.5 Q187 512 293 512 Q350 512 396.5 491 Q443 470 473 430 Q455 479 422.5 526.5 Q390 574 346 617 L270 566 L247 597 L317 644 Q292 666 263 686.5 Q234 707 203 727 L265 740 Q292 724 316.5 707.5 Q341 691 362 674 L431 720 L453 690 L392 648 Q477 572 521.5 480 Q566 388 566 287 Z M495 262 Q495 347 442 401 Q389 455 307 455 Q224 455 170.5 397.5 Q117 340 117 251 Q117 164 171 107 Q225 50 307 50 Q392 50 443.5 108 Q495 166 495 262 Z " />
<glyph glyph-name="thorn" unicode="&#xfe;" horiz-adv-x="647" d="M529 256 Q529 347 477 403 Q425 459 341 459 Q285 459 236 428 Q187 397 156 342 L156 163 Q188 109 236 80 Q284 51 341 51 Q425 51 477 107 Q529 163 529 256 Z M355 -10 Q292 -10 240 17 Q188 44 156 94 L156 -200 L86 -200 L86 727 L156 740 L156 413 Q190 465 241 492.5 Q292 520 355 520 Q462 520 531.5 445.5 Q601 371 601 255 Q601 139 531.5 64.5 Q462 -10 355 -10 Z " />
<glyph glyph-name="germandbls" unicode="&#xdf;" horiz-adv-x="594" d="M86 0 L86 512 Q86 619 142.5 679.5 Q199 740 300 740 Q392 740 447.5 690.5 Q503 641 503 561 Q503 504 475 462 Q447 420 396 399 Q468 383 508 331.5 Q548 280 548 202 Q548 110 487 50 Q426 -10 338 -10 Q300 -10 266 -2.5 Q232 5 207 18 L207 77 Q236 61 263 54 Q290 47 323 47 Q388 47 431.5 92 Q475 137 475 207 Q475 281 428 323.5 Q381 366 304 366 L304 422 Q357 422 393.5 458.5 Q430 495 430 551 Q430 609 394.5 643.5 Q359 678 298 678 Q232 678 194 635 Q156 592 156 516 L156 0 L86 0 Z " />
<glyph glyph-name="dotlessi" unicode="&#x131;" horiz-adv-x="242" d="M86 510 L156 510 L156 0 L86 0 L86 510 Z " />
<glyph glyph-name="dotlessj" unicode="&#x237;" horiz-adv-x="250" d="M7 -156 Q51 -156 72.5 -128.5 Q94 -101 94 -44 L94 510 L164 510 L164 -41 Q164 -127 128.5 -171.5 Q93 -216 25 -216 Q12 -216 -1 -214.5 Q-14 -213 -26 -211 L-26 -153 Q-17 -155 -9 -155.5 Q-1 -156 7 -156 Z " />
<glyph glyph-name="fi" unicode="&#xfb01;" horiz-adv-x="553" d="M397 726 L467 726 L467 597 L397 597 L397 726 Z M307 510 L307 453 L163 453 L163 0 L93 0 L93 453 L11 453 L11 510 L93 510 L93 545 Q93 639 134.5 689.5 Q176 740 252 740 Q277 740 297 735 Q317 730 333 719 L333 658 Q320 668 301.5 673 Q283 678 263 678 Q213 678 188 645 Q163 612 163 546 L163 510 L307 510 Z M397 510 L467 510 L467 0 L397 0 L397 510 Z " />
<glyph glyph-name="fl" unicode="&#xfb02;" horiz-adv-x="553" d="M467 740 L467 0 L397 0 L397 727 L467 740 Z M307 510 L307 453 L163 453 L163 0 L93 0 L93 453 L11 453 L11 510 L93 510 L93 545 Q93 639 134.5 689.5 Q176 740 252 740 Q277 740 297 735 Q317 730 333 719 L333 658 Q320 668 301.5 673 Q283 678 263 678 Q213 678 188 645 Q163 612 163 546 L163 510 L307 510 Z " />
<glyph glyph-name="Aacute" unicode="&#xc1;" horiz-adv-x="698" d="M508 229 L347 613 L186 229 L508 229 Z M684 0 L604 0 L534 167 L160 167 L90 0 L14 0 L305 690 L391 690 L684 0 Z M348 767 L284 767 L390 902 L470 902 L348 767 Z " />
<glyph glyph-name="Acircumflex" unicode="&#xc2;" horiz-adv-x="698" d="M508 229 L347 613 L186 229 L508 229 Z M684 0 L604 0 L534 167 L160 167 L90 0 L14 0 L305 690 L391 690 L684 0 Z M500 767 L439 767 L347 866 L254 767 L197 767 L307 902 L390 902 L500 767 Z " />
<glyph glyph-name="Adieresis" unicode="&#xc4;" horiz-adv-x="698" d="M508 229 L347 613 L186 229 L508 229 Z M684 0 L604 0 L534 167 L160 167 L90 0 L14 0 L305 690 L391 690 L684 0 Z M464 776 L402 776 L402 905 L464 905 L464 776 Z M295 776 L233 776 L233 905 L295 905 L295 776 Z " />
<glyph glyph-name="Agrave" unicode="&#xc0;" horiz-adv-x="698" d="M508 229 L347 613 L186 229 L508 229 Z M684 0 L604 0 L534 167 L160 167 L90 0 L14 0 L305 690 L391 690 L684 0 Z M213 902 L292 902 L398 767 L334 767 L213 902 Z " />
<glyph glyph-name="Aring" unicode="&#xc5;" horiz-adv-x="698" d="M508 229 L347 613 L186 229 L508 229 Z M684 0 L604 0 L534 167 L160 167 L90 0 L14 0 L305 690 L391 690 L684 0 Z M250 847 Q250 889 278 916.5 Q306 944 349 944 Q391 944 419 916 Q447 888 447 847 Q447 805 419 777 Q391 749 349 749 Q307 749 278.5 777 Q250 805 250 847 Z M293 848 Q293 822 308.5 806 Q324 790 349 790 Q374 790 389.5 806 Q405 822 405 848 Q405 873 389.5 888.5 Q374 904 349 904 Q324 904 308.5 888.5 Q293 873 293 848 Z " />
<glyph glyph-name="Atilde" unicode="&#xc3;" horiz-adv-x="698" d="M508 229 L347 613 L186 229 L508 229 Z M684 0 L604 0 L534 167 L160 167 L90 0 L14 0 L305 690 L391 690 L684 0 Z M366 854 Q390 834 403 828 Q416 822 428 822 Q451 822 464 840.5 Q477 859 479 892 L528 892 Q526 842 498 808.5 Q470 775 428 775 Q407 775 387 783.5 Q367 792 336 817 Q312 837 300 842.5 Q288 848 277 848 Q252 848 238 830 Q224 812 220 776 L171 776 Q174 831 201.5 863.5 Q229 896 273 896 Q295 896 314.5 887.5 Q334 879 366 854 Z " />
<glyph glyph-name="Abreve" unicode="&#x102;" horiz-adv-x="698" d="M508 229 L347 613 L186 229 L508 229 Z M684 0 L604 0 L534 167 L160 167 L90 0 L14 0 L305 690 L391 690 L684 0 Z M344 816 Q386 816 411 836.5 Q436 857 446 900 L496 900 Q489 839 448.5 804 Q408 769 344 769 Q281 769 240.5 804.5 Q200 840 193 900 L242 900 Q252 857 277 836.5 Q302 816 344 816 Z " />
<glyph glyph-name="Amacron" unicode="&#x100;" horiz-adv-x="698" d="M508 229 L347 613 L186 229 L508 229 Z M684 0 L604 0 L534 167 L160 167 L90 0 L14 0 L305 690 L391 690 L684 0 Z M497 807 L200 807 L200 863 L497 863 L497 807 Z " />
<glyph glyph-name="Aogonek" unicode="&#x104;" horiz-adv-x="698" d="M668 -138 L668 -181 Q644 -196 623.5 -202 Q603 -208 577 -208 Q530 -208 498.5 -184 Q467 -160 467 -122 Q467 -85 498.5 -53 Q530 -21 600 10 L534 167 L160 167 L90 0 L14 0 L305 690 L391 690 L684 0 L641 0 Q571 -37 546.5 -60 Q522 -83 522 -110 Q522 -135 541 -149.5 Q560 -164 591 -164 Q610 -164 630 -157 Q650 -150 668 -138 Z M508 229 L347 613 L186 229 L508 229 Z " />
<glyph glyph-name="Ccedilla" unicode="&#xc7;" horiz-adv-x="654" d="M477 -125 Q477 -160 448.5 -182 Q420 -204 374 -204 Q346 -204 326.5 -199.5 Q307 -195 285 -184 L285 -144 Q309 -157 328 -161.5 Q347 -166 370 -166 Q397 -166 411.5 -156 Q426 -146 426 -127 Q426 -109 412.5 -99.5 Q399 -90 373 -90 L325 -90 L343 -6 Q209 11 128.5 107.5 Q48 204 48 346 Q48 501 146 600.5 Q244 700 397 700 Q455 700 507 686 Q559 672 598 647 L598 576 Q554 603 503 617.5 Q452 632 399 632 Q275 632 199.5 553 Q124 474 124 346 Q124 215 200 136 Q276 57 402 57 Q457 57 507.5 70 Q558 83 610 110 L610 38 Q561 13 509.5 1.5 Q458 -10 398 -10 Q389 -10 384.5 -10 Q380 -10 376 -9 L366 -57 L388 -57 Q430 -57 453.5 -75 Q477 -93 477 -125 Z " />
<glyph glyph-name="Cacute" unicode="&#x106;" horiz-adv-x="654" d="M402 57 Q457 57 507.5 70 Q558 83 610 110 L610 38 Q561 13 509.5 1.5 Q458 -10 398 -10 Q243 -10 145.5 89 Q48 188 48 346 Q48 501 146 600.5 Q244 700 397 700 Q455 700 507 686 Q559 672 598 647 L598 576 Q554 603 503 617.5 Q452 632 399 632 Q275 632 199.5 553 Q124 474 124 346 Q124 215 200 136 Q276 57 402 57 Z M358 767 L294 767 L400 902 L480 902 L358 767 Z " />
<glyph glyph-name="Ccaron" unicode="&#x10c;" horiz-adv-x="654" d="M402 57 Q457 57 507.5 70 Q558 83 610 110 L610 38 Q561 13 509.5 1.5 Q458 -10 398 -10 Q243 -10 145.5 89 Q48 188 48 346 Q48 501 146 600.5 Q244 700 397 700 Q455 700 507 686 Q559 672 598 647 L598 576 Q554 603 503 617.5 Q452 632 399 632 Q275 632 199.5 553 Q124 474 124 346 Q124 215 200 136 Q276 57 402 57 Z M403 767 L320 767 L210 902 L268 902 L360 803 L451 902 L513 902 L403 767 Z " />
<glyph glyph-name="Ccircumflex" unicode="&#x108;" horiz-adv-x="654" d="M402 57 Q457 57 507.5 70 Q558 83 610 110 L610 38 Q561 13 509.5 1.5 Q458 -10 398 -10 Q243 -10 145.5 89 Q48 188 48 346 Q48 501 146 600.5 Q244 700 397 700 Q455 700 507 686 Q559 672 598 647 L598 576 Q554 603 503 617.5 Q452 632 399 632 Q275 632 199.5 553 Q124 474 124 346 Q124 215 200 136 Q276 57 402 57 Z M512 767 L451 767 L359 866 L266 767 L209 767 L319 902 L402 902 L512 767 Z " />
<glyph glyph-name="Cdotaccent" unicode="&#x10a;" horiz-adv-x="654" d="M402 57 Q457 57 507.5 70 Q558 83 610 110 L610 38 Q561 13 509.5 1.5 Q458 -10 398 -10 Q243 -10 145.5 89 Q48 188 48 346 Q48 501 146 600.5 Q244 700 397 700 Q455 700 507 686 Q559 672 598 647 L598 576 Q554 603 503 617.5 Q452 632 399 632 Q275 632 199.5 553 Q124 474 124 346 Q124 215 200 136 Q276 57 402 57 Z M339 905 L410 905 L410 776 L339 776 L339 905 Z " />
<glyph glyph-name="Dcaron" unicode="&#x10e;" horiz-adv-x="726" d="M599 347 Q599 471 526 547 Q453 623 333 623 L164 623 L164 66 L333 66 Q455 66 527 142 Q599 218 599 347 Z M334 0 L91 0 L91 690 L337 690 Q486 690 581 594 Q676 498 676 348 Q676 192 581.5 96 Q487 0 334 0 Z M396 767 L313 767 L203 902 L261 902 L353 803 L444 902 L506 902 L396 767 Z " />
<glyph glyph-name="Dcroat" unicode="&#x110;" horiz-adv-x="727" d="M317 374 L317 318 L166 318 L166 66 L335 66 Q457 66 529 142 Q601 218 601 347 Q601 471 528 547 Q455 623 335 623 L166 623 L166 374 L317 374 Z M336 0 L92 0 L92 318 L18 318 L18 374 L92 374 L92 690 L339 690 Q487 690 582.5 593.5 Q678 497 678 348 Q678 193 583 96.5 Q488 0 336 0 Z " />
<glyph glyph-name="Eacute" unicode="&#xc9;" horiz-adv-x="594" d="M541 690 L541 623 L164 623 L164 387 L442 387 L442 321 L164 321 L164 66 L541 66 L541 0 L91 0 L91 690 L541 690 Z M313 767 L249 767 L355 902 L435 902 L313 767 Z " />
<glyph glyph-name="Ecircumflex" unicode="&#xca;" horiz-adv-x="594" d="M541 690 L541 623 L164 623 L164 387 L442 387 L442 321 L164 321 L164 66 L541 66 L541 0 L91 0 L91 690 L541 690 Z M466 767 L405 767 L313 866 L220 767 L163 767 L273 902 L356 902 L466 767 Z " />
<glyph glyph-name="Edieresis" unicode="&#xcb;" horiz-adv-x="594" d="M541 690 L541 623 L164 623 L164 387 L442 387 L442 321 L164 321 L164 66 L541 66 L541 0 L91 0 L91 690 L541 690 Z M431 776 L369 776 L369 905 L431 905 L431 776 Z M262 776 L200 776 L200 905 L262 905 L262 776 Z " />
<glyph glyph-name="Egrave" unicode="&#xc8;" horiz-adv-x="594" d="M541 690 L541 623 L164 623 L164 387 L442 387 L442 321 L164 321 L164 66 L541 66 L541 0 L91 0 L91 690 L541 690 Z M197 902 L276 902 L382 767 L318 767 L197 902 Z " />
<glyph glyph-name="Ebreve" unicode="&#x114;" horiz-adv-x="594" d="M541 690 L541 623 L164 623 L164 387 L442 387 L442 321 L164 321 L164 66 L541 66 L541 0 L91 0 L91 690 L541 690 Z M316 816 Q358 816 383 836.5 Q408 857 418 900 L468 900 Q461 839 420.5 804 Q380 769 316 769 Q253 769 212.5 804.5 Q172 840 165 900 L214 900 Q224 857 249 836.5 Q274 816 316 816 Z " />
<glyph glyph-name="Ecaron" unicode="&#x11a;" horiz-adv-x="594" d="M541 690 L541 623 L164 623 L164 387 L442 387 L442 321 L164 321 L164 66 L541 66 L541 0 L91 0 L91 690 L541 690 Z M355 767 L272 767 L162 902 L220 902 L312 803 L403 902 L465 902 L355 767 Z " />
<glyph glyph-name="Edotaccent" unicode="&#x116;" horiz-adv-x="594" d="M541 690 L541 623 L164 623 L164 387 L442 387 L442 321 L164 321 L164 66 L541 66 L541 0 L91 0 L91 690 L541 690 Z M286 905 L357 905 L357 776 L286 776 L286 905 Z " />
<glyph glyph-name="Emacron" unicode="&#x112;" horiz-adv-x="594" d="M541 690 L541 623 L164 623 L164 387 L442 387 L442 321 L164 321 L164 66 L541 66 L541 0 L91 0 L91 690 L541 690 Z M463 807 L166 807 L166 863 L463 863 L463 807 Z " />
<glyph glyph-name="Eogonek" unicode="&#x118;" horiz-adv-x="594" d="M537 -138 L537 -181 Q512 -196 491.5 -202 Q471 -208 446 -208 Q398 -208 366.5 -184 Q335 -160 335 -122 Q335 -87 362 -57 Q389 -27 448 0 L91 0 L91 690 L541 690 L541 623 L164 623 L164 387 L442 387 L442 321 L164 321 L164 66 L541 66 L541 0 L503 0 Q439 -35 415 -59.5 Q391 -84 391 -110 Q391 -135 410 -149.5 Q429 -164 460 -164 Q479 -164 499.5 -157 Q520 -150 537 -138 Z " />
<glyph glyph-name="Gbreve" unicode="&#x11e;" horiz-adv-x="727" d="M666 346 L666 77 Q618 34 550.5 12 Q483 -10 400 -10 Q244 -10 146 89 Q48 188 48 344 Q48 501 145.5 600.5 Q243 700 397 700 Q456 700 507.5 688 Q559 676 596 653 L596 581 Q551 606 501.5 619 Q452 632 399 632 Q274 632 199 553.5 Q124 475 124 345 Q124 216 201 136.5 Q278 57 404 57 Q466 57 513.5 71 Q561 85 596 114 L596 283 L399 283 L399 346 L666 346 Z M378 816 Q420 816 445 836.5 Q470 857 480 900 L530 900 Q523 839 482.5 804 Q442 769 378 769 Q315 769 274.5 804.5 Q234 840 227 900 L276 900 Q286 857 311 836.5 Q336 816 378 816 Z " />
<glyph glyph-name="Gcircumflex" unicode="&#x11c;" horiz-adv-x="727" d="M666 346 L666 77 Q618 34 550.5 12 Q483 -10 400 -10 Q244 -10 146 89 Q48 188 48 344 Q48 501 145.5 600.5 Q243 700 397 700 Q456 700 507.5 688 Q559 676 596 653 L596 581 Q551 606 501.5 619 Q452 632 399 632 Q274 632 199 553.5 Q124 475 124 345 Q124 216 201 136.5 Q278 57 404 57 Q466 57 513.5 71 Q561 85 596 114 L596 283 L399 283 L399 346 L666 346 Z M521 767 L460 767 L368 866 L275 767 L218 767 L328 902 L411 902 L521 767 Z " />
<glyph glyph-name="Gcommaaccent" unicode="&#x122;" horiz-adv-x="727" d="M666 346 L666 77 Q618 34 550.5 12 Q483 -10 400 -10 Q244 -10 146 89 Q48 188 48 344 Q48 501 145.5 600.5 Q243 700 397 700 Q456 700 507.5 688 Q559 676 596 653 L596 581 Q551 606 501.5 619 Q452 632 399 632 Q274 632 199 553.5 Q124 475 124 345 Q124 216 201 136.5 Q278 57 404 57 Q466 57 513.5 71 Q561 85 596 114 L596 283 L399 283 L399 346 L666 346 Z M352 -160 L352 -62 L430 -62 L430 -131 Q430 -166 413.5 -194.5 Q397 -223 367 -240 L348 -224 Q365 -211 374.5 -195 Q384 -179 386 -160 L352 -160 Z " />
<glyph glyph-name="Gdotaccent" unicode="&#x120;" horiz-adv-x="727" d="M666 346 L666 77 Q618 34 550.5 12 Q483 -10 400 -10 Q244 -10 146 89 Q48 188 48 344 Q48 501 145.5 600.5 Q243 700 397 700 Q456 700 507.5 688 Q559 676 596 653 L596 581 Q551 606 501.5 619 Q452 632 399 632 Q274 632 199 553.5 Q124 475 124 345 Q124 216 201 136.5 Q278 57 404 57 Q466 57 513.5 71 Q561 85 596 114 L596 283 L399 283 L399 346 L666 346 Z M328 905 L399 905 L399 776 L328 776 L328 905 Z " />
<glyph glyph-name="Hbar" unicode="&#x126;" horiz-adv-x="754" d="M164 368 L589 368 L589 492 L164 492 L164 368 Z M663 0 L589 0 L589 309 L164 309 L164 0 L91 0 L91 492 L31 492 L31 549 L91 549 L91 690 L164 690 L164 549 L589 549 L589 690 L663 690 L663 549 L723 549 L723 492 L663 492 L663 0 Z " />
<glyph glyph-name="Hcircumflex" unicode="&#x124;" horiz-adv-x="754" d="M663 0 L589 0 L589 309 L164 309 L164 0 L91 0 L91 690 L164 690 L164 375 L589 375 L589 690 L663 690 L663 0 Z M528 767 L467 767 L375 866 L282 767 L225 767 L335 902 L418 902 L528 767 Z " />
<glyph glyph-name="Iacute" unicode="&#xcd;" horiz-adv-x="255" d="M91 690 L164 690 L164 0 L91 0 L91 690 Z M136 767 L72 767 L178 902 L258 902 L136 767 Z " />
<glyph glyph-name="Icircumflex" unicode="&#xce;" horiz-adv-x="255" d="M91 690 L164 690 L164 0 L91 0 L91 690 Z M279 767 L218 767 L126 866 L33 767 L-24 767 L86 902 L169 902 L279 767 Z " />
<glyph glyph-name="Idieresis" unicode="&#xcf;" horiz-adv-x="255" d="M91 690 L164 690 L164 0 L91 0 L91 690 Z M243 776 L181 776 L181 905 L243 905 L243 776 Z M74 776 L12 776 L12 905 L74 905 L74 776 Z " />
<glyph glyph-name="Igrave" unicode="&#xcc;" horiz-adv-x="255" d="M91 690 L164 690 L164 0 L91 0 L91 690 Z M5 902 L84 902 L190 767 L126 767 L5 902 Z " />
<glyph glyph-name="Ibreve" unicode="&#x12c;" horiz-adv-x="255" d="M91 690 L164 690 L164 0 L91 0 L91 690 Z M123 816 Q165 816 190 836.5 Q215 857 225 900 L275 900 Q268 839 227.5 804 Q187 769 123 769 Q60 769 19.5 804.5 Q-21 840 -28 900 L21 900 Q31 857 56 836.5 Q81 816 123 816 Z " />
<glyph glyph-name="Idot" unicode="&#x130;" horiz-adv-x="255" d="M91 690 L164 690 L164 0 L91 0 L91 690 Z M92 905 L163 905 L163 776 L92 776 L92 905 Z " />
<glyph glyph-name="Imacron" unicode="&#x12a;" horiz-adv-x="255" d="M91 690 L164 690 L164 0 L91 0 L91 690 Z M276 807 L-21 807 L-21 863 L276 863 L276 807 Z " />
<glyph glyph-name="Iogonek" unicode="&#x12e;" horiz-adv-x="255" d="M167 -138 L167 -181 Q143 -196 122.5 -202 Q102 -208 76 -208 Q29 -208 -2 -184 Q-33 -160 -33 -122 Q-33 -85 -3.5 -53 Q26 -21 91 9 L91 690 L164 690 L164 0 L134 0 Q67 -38 44 -61.5 Q21 -85 21 -110 Q21 -135 40 -149.5 Q59 -164 90 -164 Q109 -164 129 -157 Q149 -150 167 -138 Z " />
<glyph glyph-name="Itilde" unicode="&#x128;" horiz-adv-x="255" d="M91 690 L164 690 L164 0 L91 0 L91 690 Z M145 854 Q169 834 182 828 Q195 822 207 822 Q230 822 243 840.5 Q256 859 258 892 L307 892 Q305 842 277 808.5 Q249 775 207 775 Q186 775 166 783.5 Q146 792 115 817 Q91 837 79 842.5 Q67 848 56 848 Q31 848 17 830 Q3 812 -1 776 L-50 776 Q-47 831 -19.5 863.5 Q8 896 52 896 Q74 896 93.5 887.5 Q113 879 145 854 Z " />
<glyph glyph-name="Jcircumflex" unicode="&#x134;" horiz-adv-x="451" d="M152 -10 Q124 -10 94 -5.5 Q64 -1 44 7 L44 74 Q64 65 90 61 Q116 57 149 57 Q219 57 255 98 Q291 139 291 219 L291 690 L365 690 L365 219 Q365 111 308 50.5 Q251 -10 152 -10 Z M462 767 L401 767 L309 866 L216 767 L159 767 L269 902 L352 902 L462 767 Z " />
<glyph glyph-name="IJ" unicode="&#x132;" horiz-adv-x="706" d="M91 690 L164 690 L164 0 L91 0 L91 690 Z M407 -10 Q379 -10 349 -5.5 Q319 -1 299 7 L299 74 Q319 65 345 61 Q371 57 404 57 Q474 57 510 98 Q546 139 546 219 L546 690 L620 690 L620 219 Q620 111 563 50.5 Q506 -10 407 -10 Z " />
<glyph glyph-name="Kcommaaccent" unicode="&#x136;" horiz-adv-x="654" d="M629 0 L540 0 L268 319 L164 201 L164 0 L91 0 L91 690 L164 690 L164 294 L513 690 L596 690 L315 372 L629 0 Z M287 -160 L287 -62 L365 -62 L365 -131 Q365 -166 348.5 -194.5 Q332 -223 302 -240 L283 -224 Q300 -211 309.5 -195 Q319 -179 321 -160 L287 -160 Z " />
<glyph glyph-name="Lacute" unicode="&#x139;" horiz-adv-x="598" d="M91 690 L164 690 L164 66 L544 66 L544 0 L91 0 L91 690 Z M178 767 L114 767 L220 902 L300 902 L178 767 Z " />
<glyph glyph-name="Lcaron" unicode="&#x13d;" horiz-adv-x="598" d="M91 690 L164 690 L164 66 L544 66 L544 0 L91 0 L91 690 Z M290 612 L290 710 L368 710 L368 641 Q368 600 352 568.5 Q336 537 305 515 L286 531 Q302 546 312.5 567 Q323 588 325 612 L290 612 Z " />
<glyph glyph-name="Lcommaaccent" unicode="&#x13b;" horiz-adv-x="598" d="M91 690 L164 690 L164 66 L544 66 L544 0 L91 0 L91 690 Z M269 -160 L269 -62 L347 -62 L347 -131 Q347 -166 330.5 -194.5 Q314 -223 284 -240 L265 -224 Q282 -211 291.5 -195 Q301 -179 303 -160 L269 -160 Z " />
<glyph glyph-name="Ldot" unicode="&#x13f;" horiz-adv-x="598" d="M91 690 L164 690 L164 66 L544 66 L544 0 L91 0 L91 690 Z M365 311 L365 416 L448 416 L448 311 L365 311 Z " />
<glyph glyph-name="Ntilde" unicode="&#xd1;" horiz-adv-x="747" d="M656 0 L586 0 L164 566 L164 0 L91 0 L91 690 L161 690 L582 119 L582 690 L656 690 L656 0 Z M390 854 Q414 834 427 828 Q440 822 452 822 Q475 822 488 840.5 Q501 859 503 892 L552 892 Q550 842 522 808.5 Q494 775 452 775 Q431 775 411 783.5 Q391 792 360 817 Q336 837 324 842.5 Q312 848 301 848 Q276 848 262 830 Q248 812 244 776 L195 776 Q198 831 225.5 863.5 Q253 896 297 896 Q319 896 338.5 887.5 Q358 879 390 854 Z " />
<glyph glyph-name="Nacute" unicode="&#x143;" horiz-adv-x="747" d="M656 0 L586 0 L164 566 L164 0 L91 0 L91 690 L161 690 L582 119 L582 690 L656 690 L656 0 Z M372 767 L308 767 L414 902 L494 902 L372 767 Z " />
<glyph glyph-name="Ncaron" unicode="&#x147;" horiz-adv-x="747" d="M656 0 L586 0 L164 566 L164 0 L91 0 L91 690 L161 690 L582 119 L582 690 L656 690 L656 0 Z M414 767 L331 767 L221 902 L279 902 L371 803 L462 902 L524 902 L414 767 Z " />
<glyph glyph-name="Ncommaaccent" unicode="&#x145;" horiz-adv-x="747" d="M656 0 L586 0 L164 566 L164 0 L91 0 L91 690 L161 690 L582 119 L582 690 L656 690 L656 0 Z M333 -160 L333 -62 L411 -62 L411 -131 Q411 -166 394.5 -194.5 Q378 -223 348 -240 L329 -224 Q346 -211 355.5 -195 Q365 -179 367 -160 L333 -160 Z " />
<glyph glyph-name="Oacute" unicode="&#xd3;" horiz-adv-x="795" d="M397 -10 Q248 -10 149.5 90.5 Q51 191 51 344 Q51 498 149.5 599 Q248 700 397 700 Q547 700 645.5 599 Q744 498 744 345 Q744 192 645.5 91 Q547 -10 397 -10 Z M398 57 Q516 57 591.5 137.5 Q667 218 667 345 Q667 471 591.5 551.5 Q516 632 398 632 Q279 632 203.5 551.5 Q128 471 128 345 Q128 218 203.5 137.5 Q279 57 398 57 Z M396 767 L332 767 L438 902 L518 902 L396 767 Z " />
<glyph glyph-name="Ocircumflex" unicode="&#xd4;" horiz-adv-x="795" d="M397 -10 Q248 -10 149.5 90.5 Q51 191 51 344 Q51 498 149.5 599 Q248 700 397 700 Q547 700 645.5 599 Q744 498 744 345 Q744 192 645.5 91 Q547 -10 397 -10 Z M398 57 Q516 57 591.5 137.5 Q667 218 667 345 Q667 471 591.5 551.5 Q516 632 398 632 Q279 632 203.5 551.5 Q128 471 128 345 Q128 218 203.5 137.5 Q279 57 398 57 Z M548 767 L487 767 L395 866 L302 767 L245 767 L355 902 L438 902 L548 767 Z " />
<glyph glyph-name="Odieresis" unicode="&#xd6;" horiz-adv-x="795" d="M397 -10 Q248 -10 149.5 90.5 Q51 191 51 344 Q51 498 149.5 599 Q248 700 397 700 Q547 700 645.5 599 Q744 498 744 345 Q744 192 645.5 91 Q547 -10 397 -10 Z M398 57 Q516 57 591.5 137.5 Q667 218 667 345 Q667 471 591.5 551.5 Q516 632 398 632 Q279 632 203.5 551.5 Q128 471 128 345 Q128 218 203.5 137.5 Q279 57 398 57 Z M512 776 L450 776 L450 905 L512 905 L512 776 Z M343 776 L281 776 L281 905 L343 905 L343 776 Z " />
<glyph glyph-name="Ograve" unicode="&#xd2;" horiz-adv-x="795" d="M397 -10 Q248 -10 149.5 90.5 Q51 191 51 344 Q51 498 149.5 599 Q248 700 397 700 Q547 700 645.5 599 Q744 498 744 345 Q744 192 645.5 91 Q547 -10 397 -10 Z M398 57 Q516 57 591.5 137.5 Q667 218 667 345 Q667 471 591.5 551.5 Q516 632 398 632 Q279 632 203.5 551.5 Q128 471 128 345 Q128 218 203.5 137.5 Q279 57 398 57 Z M261 902 L340 902 L446 767 L382 767 L261 902 Z " />
<glyph glyph-name="Otilde" unicode="&#xd5;" horiz-adv-x="795" d="M397 -10 Q248 -10 149.5 90.5 Q51 191 51 344 Q51 498 149.5 599 Q248 700 397 700 Q547 700 645.5 599 Q744 498 744 345 Q744 192 645.5 91 Q547 -10 397 -10 Z M398 57 Q516 57 591.5 137.5 Q667 218 667 345 Q667 471 591.5 551.5 Q516 632 398 632 Q279 632 203.5 551.5 Q128 471 128 345 Q128 218 203.5 137.5 Q279 57 398 57 Z M414 854 Q438 834 451 828 Q464 822 476 822 Q499 822 512 840.5 Q525 859 527 892 L576 892 Q574 842 546 808.5 Q518 775 476 775 Q455 775 435 783.5 Q415 792 384 817 Q360 837 348 842.5 Q336 848 325 848 Q300 848 286 830 Q272 812 268 776 L219 776 Q222 831 249.5 863.5 Q277 896 321 896 Q343 896 362.5 887.5 Q382 879 414 854 Z " />
<glyph glyph-name="Obreve" unicode="&#x14e;" horiz-adv-x="795" d="M397 -10 Q248 -10 149.5 90.5 Q51 191 51 344 Q51 498 149.5 599 Q248 700 397 700 Q547 700 645.5 599 Q744 498 744 345 Q744 192 645.5 91 Q547 -10 397 -10 Z M398 57 Q516 57 591.5 137.5 Q667 218 667 345 Q667 471 591.5 551.5 Q516 632 398 632 Q279 632 203.5 551.5 Q128 471 128 345 Q128 218 203.5 137.5 Q279 57 398 57 Z M392 816 Q434 816 459 836.5 Q484 857 494 900 L544 900 Q537 839 496.5 804 Q456 769 392 769 Q329 769 288.5 804.5 Q248 840 241 900 L290 900 Q300 857 325 836.5 Q350 816 392 816 Z " />
<glyph glyph-name="Ohungarumlaut" unicode="&#x150;" horiz-adv-x="795" d="M397 -10 Q248 -10 149.5 90.5 Q51 191 51 344 Q51 498 149.5 599 Q248 700 397 700 Q547 700 645.5 599 Q744 498 744 345 Q744 192 645.5 91 Q547 -10 397 -10 Z M398 57 Q516 57 591.5 137.5 Q667 218 667 345 Q667 471 591.5 551.5 Q516 632 398 632 Q279 632 203.5 551.5 Q128 471 128 345 Q128 218 203.5 137.5 Q279 57 398 57 Z M483 767 L420 767 L524 902 L603 902 L483 767 Z M317 767 L254 767 L358 902 L437 902 L317 767 Z " />
<glyph glyph-name="Omacron" unicode="&#x14c;" horiz-adv-x="795" d="M397 -10 Q248 -10 149.5 90.5 Q51 191 51 344 Q51 498 149.5 599 Q248 700 397 700 Q547 700 645.5 599 Q744 498 744 345 Q744 192 645.5 91 Q547 -10 397 -10 Z M398 57 Q516 57 591.5 137.5 Q667 218 667 345 Q667 471 591.5 551.5 Q516 632 398 632 Q279 632 203.5 551.5 Q128 471 128 345 Q128 218 203.5 137.5 Q279 57 398 57 Z M545 807 L248 807 L248 863 L545 863 L545 807 Z " />
<glyph glyph-name="Racute" unicode="&#x154;" horiz-adv-x="651" d="M507 497 Q507 554 465 588.5 Q423 623 354 623 L164 623 L164 365 L354 365 Q423 365 465 401.5 Q507 438 507 497 Z M615 0 L528 0 L342 300 L164 300 L164 0 L91 0 L91 690 L354 690 Q454 690 519 636 Q584 582 584 499 Q584 428 539 376 Q494 324 419 307 L615 0 Z M315 767 L251 767 L357 902 L437 902 L315 767 Z " />
<glyph glyph-name="Rcaron" unicode="&#x158;" horiz-adv-x="651" d="M507 497 Q507 554 465 588.5 Q423 623 354 623 L164 623 L164 365 L354 365 Q423 365 465 401.5 Q507 438 507 497 Z M615 0 L528 0 L342 300 L164 300 L164 0 L91 0 L91 690 L354 690 Q454 690 519 636 Q584 582 584 499 Q584 428 539 376 Q494 324 419 307 L615 0 Z M351 767 L268 767 L158 902 L216 902 L308 803 L399 902 L461 902 L351 767 Z " />
<glyph glyph-name="Rcommaaccent" unicode="&#x156;" horiz-adv-x="651" d="M507 497 Q507 554 465 588.5 Q423 623 354 623 L164 623 L164 365 L354 365 Q423 365 465 401.5 Q507 438 507 497 Z M615 0 L528 0 L342 300 L164 300 L164 0 L91 0 L91 690 L354 690 Q454 690 519 636 Q584 582 584 499 Q584 428 539 376 Q494 324 419 307 L615 0 Z M289 -160 L289 -62 L367 -62 L367 -131 Q367 -166 350.5 -194.5 Q334 -223 304 -240 L285 -224 Q302 -211 311.5 -195 Q321 -179 323 -160 L289 -160 Z " />
<glyph glyph-name="Scaron" unicode="&#x160;" horiz-adv-x="592" d="M287 -10 Q221 -10 158.5 6.5 Q96 23 51 52 L51 126 Q104 92 166 74 Q228 56 291 56 Q374 56 422.5 89 Q471 122 471 179 Q471 226 432.5 257.5 Q394 289 277 328 Q153 368 103.5 412.5 Q54 457 54 523 Q54 601 123.5 650.5 Q193 700 303 700 Q359 700 408 688.5 Q457 677 501 654 L501 585 Q456 609 404.5 621 Q353 633 300 633 Q223 633 176.5 604 Q130 575 130 526 Q130 485 165.5 457.5 Q201 430 324 389 Q448 347 497.5 301 Q547 255 547 183 Q547 95 475 42.5 Q403 -10 287 -10 Z M337 767 L254 767 L144 902 L202 902 L294 803 L385 902 L447 902 L337 767 Z " />
<glyph glyph-name="Sacute" unicode="&#x15a;" horiz-adv-x="592" d="M287 -10 Q221 -10 158.5 6.5 Q96 23 51 52 L51 126 Q104 92 166 74 Q228 56 291 56 Q374 56 422.5 89 Q471 122 471 179 Q471 226 432.5 257.5 Q394 289 277 328 Q153 368 103.5 412.5 Q54 457 54 523 Q54 601 123.5 650.5 Q193 700 303 700 Q359 700 408 688.5 Q457 677 501 654 L501 585 Q456 609 404.5 621 Q353 633 300 633 Q223 633 176.5 604 Q130 575 130 526 Q130 485 165.5 457.5 Q201 430 324 389 Q448 347 497.5 301 Q547 255 547 183 Q547 95 475 42.5 Q403 -10 287 -10 Z M288 767 L224 767 L330 902 L410 902 L288 767 Z " />
<glyph glyph-name="Scedilla" unicode="&#x15e;" horiz-adv-x="592" d="M394 -125 Q394 -161 366 -182.5 Q338 -204 292 -204 Q264 -204 244 -199.5 Q224 -195 202 -184 L202 -144 Q226 -156 245 -161 Q264 -166 287 -166 Q314 -166 329 -156 Q344 -146 344 -127 Q344 -109 330.5 -99.5 Q317 -90 291 -90 L243 -90 L261 -9 Q201 -6 146 10 Q91 26 51 52 L51 126 Q104 92 166 74 Q228 56 291 56 Q374 56 422.5 89 Q471 122 471 179 Q471 226 432.5 257.5 Q394 289 277 328 Q153 368 103.5 412.5 Q54 457 54 523 Q54 601 123.5 650.5 Q193 700 303 700 Q359 700 408 688.5 Q457 677 501 654 L501 585 Q456 609 404.5 621 Q353 633 300 633 Q223 633 176.5 604 Q130 575 130 526 Q130 485 165.5 457.5 Q201 430 324 389 Q448 347 497.5 301 Q547 255 547 183 Q547 97 477 44.5 Q407 -8 294 -10 L283 -57 L306 -57 Q347 -57 370.5 -75 Q394 -93 394 -125 Z " />
<glyph glyph-name="Scircumflex" unicode="&#x15c;" horiz-adv-x="592" d="M287 -10 Q221 -10 158.5 6.5 Q96 23 51 52 L51 126 Q104 92 166 74 Q228 56 291 56 Q374 56 422.5 89 Q471 122 471 179 Q471 226 432.5 257.5 Q394 289 277 328 Q153 368 103.5 412.5 Q54 457 54 523 Q54 601 123.5 650.5 Q193 700 303 700 Q359 700 408 688.5 Q457 677 501 654 L501 585 Q456 609 404.5 621 Q353 633 300 633 Q223 633 176.5 604 Q130 575 130 526 Q130 485 165.5 457.5 Q201 430 324 389 Q448 347 497.5 301 Q547 255 547 183 Q547 95 475 42.5 Q403 -10 287 -10 Z M447 767 L386 767 L294 866 L201 767 L144 767 L254 902 L337 902 L447 767 Z " />
<glyph glyph-name="uni0218" unicode="&#x218;" horiz-adv-x="592" d="M287 -10 Q221 -10 158.5 6.5 Q96 23 51 52 L51 126 Q104 92 166 74 Q228 56 291 56 Q374 56 422.5 89 Q471 122 471 179 Q471 226 432.5 257.5 Q394 289 277 328 Q153 368 103.5 412.5 Q54 457 54 523 Q54 601 123.5 650.5 Q193 700 303 700 Q359 700 408 688.5 Q457 677 501 654 L501 585 Q456 609 404.5 621 Q353 633 300 633 Q223 633 176.5 604 Q130 575 130 526 Q130 485 165.5 457.5 Q201 430 324 389 Q448 347 497.5 301 Q547 255 547 183 Q547 95 475 42.5 Q403 -10 287 -10 Z M256 -160 L256 -62 L334 -62 L334 -131 Q334 -166 317.5 -194.5 Q301 -223 271 -240 L252 -224 Q269 -211 278.5 -195 Q288 -179 290 -160 L256 -160 Z " />
<glyph glyph-name="Tbar" unicode="&#x166;" horiz-adv-x="597" d="M480 397 L480 340 L335 340 L335 0 L261 0 L261 340 L116 340 L116 397 L261 397 L261 623 L28 623 L28 690 L569 690 L569 623 L335 623 L335 397 L480 397 Z " />
<glyph glyph-name="Tcaron" unicode="&#x164;" horiz-adv-x="597" d="M569 690 L569 623 L335 623 L335 0 L261 0 L261 623 L28 623 L28 690 L569 690 Z M339 767 L256 767 L146 902 L204 902 L296 803 L387 902 L449 902 L339 767 Z " />
<glyph glyph-name="uni0162" unicode="&#x162;" horiz-adv-x="597" d="M569 690 L569 623 L335 623 L335 0 L261 0 L261 623 L28 623 L28 690 L569 690 Z M263 -160 L263 -62 L341 -62 L341 -131 Q341 -166 324.5 -194.5 Q308 -223 278 -240 L259 -224 Q276 -211 285.5 -195 Q295 -179 297 -160 L263 -160 Z " />
<glyph glyph-name="uni021A" unicode="&#x21a;" horiz-adv-x="597" d="M569 690 L569 623 L335 623 L335 0 L261 0 L261 623 L28 623 L28 690 L569 690 Z M263 -160 L263 -62 L341 -62 L341 -131 Q341 -166 324.5 -194.5 Q308 -223 278 -240 L259 -224 Q276 -211 285.5 -195 Q295 -179 297 -160 L263 -160 Z " />
<glyph glyph-name="Uacute" unicode="&#xda;" horiz-adv-x="729" d="M570 264 L570 690 L643 690 L643 263 Q643 139 567 64.5 Q491 -10 364 -10 Q238 -10 162 65 Q86 140 86 265 L86 690 L159 690 L159 264 Q159 169 214.5 113 Q270 57 364 57 Q459 57 514.5 113 Q570 169 570 264 Z M365 767 L301 767 L407 902 L487 902 L365 767 Z " />
<glyph glyph-name="Ucircumflex" unicode="&#xdb;" horiz-adv-x="729" d="M570 264 L570 690 L643 690 L643 263 Q643 139 567 64.5 Q491 -10 364 -10 Q238 -10 162 65 Q86 140 86 265 L86 690 L159 690 L159 264 Q159 169 214.5 113 Q270 57 364 57 Q459 57 514.5 113 Q570 169 570 264 Z M515 767 L454 767 L362 866 L269 767 L212 767 L322 902 L405 902 L515 767 Z " />
<glyph glyph-name="Udieresis" unicode="&#xdc;" horiz-adv-x="729" d="M570 264 L570 690 L643 690 L643 263 Q643 139 567 64.5 Q491 -10 364 -10 Q238 -10 162 65 Q86 140 86 265 L86 690 L159 690 L159 264 Q159 169 214.5 113 Q270 57 364 57 Q459 57 514.5 113 Q570 169 570 264 Z M479 776 L417 776 L417 905 L479 905 L479 776 Z M310 776 L248 776 L248 905 L310 905 L310 776 Z " />
<glyph glyph-name="Ugrave" unicode="&#xd9;" horiz-adv-x="729" d="M570 264 L570 690 L643 690 L643 263 Q643 139 567 64.5 Q491 -10 364 -10 Q238 -10 162 65 Q86 140 86 265 L86 690 L159 690 L159 264 Q159 169 214.5 113 Q270 57 364 57 Q459 57 514.5 113 Q570 169 570 264 Z M243 902 L322 902 L428 767 L364 767 L243 902 Z " />
<glyph glyph-name="Ubreve" unicode="&#x16c;" horiz-adv-x="729" d="M570 264 L570 690 L643 690 L643 263 Q643 139 567 64.5 Q491 -10 364 -10 Q238 -10 162 65 Q86 140 86 265 L86 690 L159 690 L159 264 Q159 169 214.5 113 Q270 57 364 57 Q459 57 514.5 113 Q570 169 570 264 Z M359 816 Q401 816 426 836.5 Q451 857 461 900 L511 900 Q504 839 463.5 804 Q423 769 359 769 Q296 769 255.5 804.5 Q215 840 208 900 L257 900 Q267 857 292 836.5 Q317 816 359 816 Z " />
<glyph glyph-name="Uhungarumlaut" unicode="&#x170;" horiz-adv-x="729" d="M570 264 L570 690 L643 690 L643 263 Q643 139 567 64.5 Q491 -10 364 -10 Q238 -10 162 65 Q86 140 86 265 L86 690 L159 690 L159 264 Q159 169 214.5 113 Q270 57 364 57 Q459 57 514.5 113 Q570 169 570 264 Z M448 767 L385 767 L489 902 L568 902 L448 767 Z M282 767 L219 767 L323 902 L402 902 L282 767 Z " />
<glyph glyph-name="Umacron" unicode="&#x16a;" horiz-adv-x="729" d="M570 264 L570 690 L643 690 L643 263 Q643 139 567 64.5 Q491 -10 364 -10 Q238 -10 162 65 Q86 140 86 265 L86 690 L159 690 L159 264 Q159 169 214.5 113 Q270 57 364 57 Q459 57 514.5 113 Q570 169 570 264 Z M512 807 L215 807 L215 863 L512 863 L512 807 Z " />
<glyph glyph-name="Uogonek" unicode="&#x172;" horiz-adv-x="729" d="M415 -208 Q367 -208 335.5 -184 Q304 -160 304 -122 Q304 -91 324.5 -63 Q345 -35 388 -9 Q384 -10 379 -10 Q374 -10 364 -10 Q238 -10 162 65 Q86 140 86 265 L86 690 L159 690 L159 264 Q159 169 214.5 113 Q270 57 364 57 Q459 57 514.5 113 Q570 169 570 264 L570 690 L643 690 L643 263 Q643 166 595 97.5 Q547 29 461 3 Q403 -33 381.5 -57.5 Q360 -82 360 -110 Q360 -135 379 -149.5 Q398 -164 429 -164 Q448 -164 468.5 -157 Q489 -150 506 -138 L506 -181 Q481 -196 460.5 -202 Q440 -208 415 -208 Z " />
<glyph glyph-name="Uring" unicode="&#x16e;" horiz-adv-x="729" d="M570 264 L570 690 L643 690 L643 263 Q643 139 567 64.5 Q491 -10 364 -10 Q238 -10 162 65 Q86 140 86 265 L86 690 L159 690 L159 264 Q159 169 214.5 113 Q270 57 364 57 Q459 57 514.5 113 Q570 169 570 264 Z M265 847 Q265 889 293 916.5 Q321 944 364 944 Q406 944 434 916 Q462 888 462 847 Q462 805 434 777 Q406 749 364 749 Q322 749 293.5 777 Q265 805 265 847 Z M308 848 Q308 822 323.5 806 Q339 790 364 790 Q389 790 404.5 806 Q420 822 420 848 Q420 873 404.5 888.5 Q389 904 364 904 Q339 904 323.5 888.5 Q308 873 308 848 Z " />
<glyph glyph-name="Utilde" unicode="&#x168;" horiz-adv-x="729" d="M570 264 L570 690 L643 690 L643 263 Q643 139 567 64.5 Q491 -10 364 -10 Q238 -10 162 65 Q86 140 86 265 L86 690 L159 690 L159 264 Q159 169 214.5 113 Q270 57 364 57 Q459 57 514.5 113 Q570 169 570 264 Z M381 854 Q405 834 418 828 Q431 822 443 822 Q466 822 479 840.5 Q492 859 494 892 L543 892 Q541 842 513 808.5 Q485 775 443 775 Q422 775 402 783.5 Q382 792 351 817 Q327 837 315 842.5 Q303 848 292 848 Q267 848 253 830 Q239 812 235 776 L186 776 Q189 831 216.5 863.5 Q244 896 288 896 Q310 896 329.5 887.5 Q349 879 381 854 Z " />
<glyph glyph-name="Wacute" unicode="&#x1e82;" horiz-adv-x="1020" d="M724 79 L934 690 L1008 690 L767 0 L682 0 L510 473 L336 0 L254 0 L11 690 L90 690 L300 79 L478 562 L551 562 L724 79 Z M514 767 L450 767 L556 902 L636 902 L514 767 Z " />
<glyph glyph-name="Wcircumflex" unicode="&#x174;" horiz-adv-x="1020" d="M724 79 L934 690 L1008 690 L767 0 L682 0 L510 473 L336 0 L254 0 L11 690 L90 690 L300 79 L478 562 L551 562 L724 79 Z M665 767 L604 767 L512 866 L419 767 L362 767 L472 902 L555 902 L665 767 Z " />
<glyph glyph-name="Wdieresis" unicode="&#x1e84;" horiz-adv-x="1020" d="M724 79 L934 690 L1008 690 L767 0 L682 0 L510 473 L336 0 L254 0 L11 690 L90 690 L300 79 L478 562 L551 562 L724 79 Z M629 776 L567 776 L567 905 L629 905 L629 776 Z M460 776 L398 776 L398 905 L460 905 L460 776 Z " />
<glyph glyph-name="Wgrave" unicode="&#x1e80;" horiz-adv-x="1020" d="M724 79 L934 690 L1008 690 L767 0 L682 0 L510 473 L336 0 L254 0 L11 690 L90 690 L300 79 L478 562 L551 562 L724 79 Z M375 902 L454 902 L560 767 L496 767 L375 902 Z " />
<glyph glyph-name="Yacute" unicode="&#xdd;" horiz-adv-x="657" d="M561 690 L642 690 L365 287 L365 0 L291 0 L291 287 L14 690 L93 690 L327 352 L561 690 Z M334 767 L270 767 L376 902 L456 902 L334 767 Z " />
<glyph glyph-name="Ydieresis" unicode="&#x178;" horiz-adv-x="657" d="M561 690 L642 690 L365 287 L365 0 L291 0 L291 287 L14 690 L93 690 L327 352 L561 690 Z M443 776 L381 776 L381 905 L443 905 L443 776 Z M274 776 L212 776 L212 905 L274 905 L274 776 Z " />
<glyph glyph-name="Ycircumflex" unicode="&#x176;" horiz-adv-x="657" d="M561 690 L642 690 L365 287 L365 0 L291 0 L291 287 L14 690 L93 690 L327 352 L561 690 Z M479 767 L418 767 L326 866 L233 767 L176 767 L286 902 L369 902 L479 767 Z " />
<glyph glyph-name="Ygrave" unicode="&#x1ef2;" horiz-adv-x="657" d="M561 690 L642 690 L365 287 L365 0 L291 0 L291 287 L14 690 L93 690 L327 352 L561 690 Z M199 902 L278 902 L384 767 L320 767 L199 902 Z " />
<glyph glyph-name="Zcaron" unicode="&#x17d;" horiz-adv-x="601" d="M560 0 L41 0 L41 60 L459 614 L47 614 L47 680 L553 680 L553 619 L134 66 L560 66 L560 0 Z M341 767 L258 767 L148 902 L206 902 L298 803 L389 902 L451 902 L341 767 Z " />
<glyph glyph-name="Zacute" unicode="&#x179;" horiz-adv-x="601" d="M560 0 L41 0 L41 60 L459 614 L47 614 L47 680 L553 680 L553 619 L134 66 L560 66 L560 0 Z M299 767 L235 767 L341 902 L421 902 L299 767 Z " />
<glyph glyph-name="Zdotaccent" unicode="&#x17b;" horiz-adv-x="601" d="M560 0 L41 0 L41 60 L459 614 L47 614 L47 680 L553 680 L553 619 L134 66 L560 66 L560 0 Z M264 905 L335 905 L335 776 L264 776 L264 905 Z " />
<glyph glyph-name="aacute" unicode="&#xe1;" horiz-adv-x="587" d="M263 43 Q311 43 354 69 Q397 95 432 145 L432 223 Q394 253 350 269 Q306 285 261 285 Q195 285 158 253.5 Q121 222 121 166 Q121 111 160.5 77 Q200 43 263 43 Z M106 414 L106 475 Q142 497 187 508.5 Q232 520 283 520 Q392 520 447 467.5 Q502 415 502 312 L502 0 L432 0 L432 90 Q402 43 350 16.5 Q298 -10 236 -10 Q154 -10 100.5 38.5 Q47 87 47 163 Q47 240 99.5 287 Q152 334 239 334 Q296 334 343.5 319.5 Q391 305 430 277 L430 309 Q430 386 391 423.5 Q352 461 272 461 Q225 461 184 449.5 Q143 438 106 414 Z M286 588 L222 588 L328 723 L408 723 L286 588 Z " />
<glyph glyph-name="acircumflex" unicode="&#xe2;" horiz-adv-x="587" d="M263 43 Q311 43 354 69 Q397 95 432 145 L432 223 Q394 253 350 269 Q306 285 261 285 Q195 285 158 253.5 Q121 222 121 166 Q121 111 160.5 77 Q200 43 263 43 Z M106 414 L106 475 Q142 497 187 508.5 Q232 520 283 520 Q392 520 447 467.5 Q502 415 502 312 L502 0 L432 0 L432 90 Q402 43 350 16.5 Q298 -10 236 -10 Q154 -10 100.5 38.5 Q47 87 47 163 Q47 240 99.5 287 Q152 334 239 334 Q296 334 343.5 319.5 Q391 305 430 277 L430 309 Q430 386 391 423.5 Q352 461 272 461 Q225 461 184 449.5 Q143 438 106 414 Z M444 588 L383 588 L291 687 L198 588 L141 588 L251 723 L334 723 L444 588 Z " />
<glyph glyph-name="adieresis" unicode="&#xe4;" horiz-adv-x="587" d="M263 43 Q311 43 354 69 Q397 95 432 145 L432 223 Q394 253 350 269 Q306 285 261 285 Q195 285 158 253.5 Q121 222 121 166 Q121 111 160.5 77 Q200 43 263 43 Z M106 414 L106 475 Q142 497 187 508.5 Q232 520 283 520 Q392 520 447 467.5 Q502 415 502 312 L502 0 L432 0 L432 90 Q402 43 350 16.5 Q298 -10 236 -10 Q154 -10 100.5 38.5 Q47 87 47 163 Q47 240 99.5 287 Q152 334 239 334 Q296 334 343.5 319.5 Q391 305 430 277 L430 309 Q430 386 391 423.5 Q352 461 272 461 Q225 461 184 449.5 Q143 438 106 414 Z M408 597 L346 597 L346 726 L408 726 L408 597 Z M239 597 L177 597 L177 726 L239 726 L239 597 Z " />
<glyph glyph-name="agrave" unicode="&#xe0;" horiz-adv-x="587" d="M263 43 Q311 43 354 69 Q397 95 432 145 L432 223 Q394 253 350 269 Q306 285 261 285 Q195 285 158 253.5 Q121 222 121 166 Q121 111 160.5 77 Q200 43 263 43 Z M106 414 L106 475 Q142 497 187 508.5 Q232 520 283 520 Q392 520 447 467.5 Q502 415 502 312 L502 0 L432 0 L432 90 Q402 43 350 16.5 Q298 -10 236 -10 Q154 -10 100.5 38.5 Q47 87 47 163 Q47 240 99.5 287 Q152 334 239 334 Q296 334 343.5 319.5 Q391 305 430 277 L430 309 Q430 386 391 423.5 Q352 461 272 461 Q225 461 184 449.5 Q143 438 106 414 Z M164 723 L243 723 L349 588 L285 588 L164 723 Z " />
<glyph glyph-name="aring" unicode="&#xe5;" horiz-adv-x="587" d="M263 43 Q311 43 354 69 Q397 95 432 145 L432 223 Q394 253 350 269 Q306 285 261 285 Q195 285 158 253.5 Q121 222 121 166 Q121 111 160.5 77 Q200 43 263 43 Z M106 414 L106 475 Q142 497 187 508.5 Q232 520 283 520 Q392 520 447 467.5 Q502 415 502 312 L502 0 L432 0 L432 90 Q402 43 350 16.5 Q298 -10 236 -10 Q154 -10 100.5 38.5 Q47 87 47 163 Q47 240 99.5 287 Q152 334 239 334 Q296 334 343.5 319.5 Q391 305 430 277 L430 309 Q430 386 391 423.5 Q352 461 272 461 Q225 461 184 449.5 Q143 438 106 414 Z M194 668 Q194 710 222 737.5 Q250 765 293 765 Q335 765 363 737 Q391 709 391 668 Q391 626 363 598 Q335 570 293 570 Q251 570 222.5 598 Q194 626 194 668 Z M237 669 Q237 643 252.5 627 Q268 611 293 611 Q318 611 333.5 627 Q349 643 349 669 Q349 694 333.5 709.5 Q318 725 293 725 Q268 725 252.5 709.5 Q237 694 237 669 Z " />
<glyph glyph-name="atilde" unicode="&#xe3;" horiz-adv-x="587" d="M263 43 Q311 43 354 69 Q397 95 432 145 L432 223 Q394 253 350 269 Q306 285 261 285 Q195 285 158 253.5 Q121 222 121 166 Q121 111 160.5 77 Q200 43 263 43 Z M106 414 L106 475 Q142 497 187 508.5 Q232 520 283 520 Q392 520 447 467.5 Q502 415 502 312 L502 0 L432 0 L432 90 Q402 43 350 16.5 Q298 -10 236 -10 Q154 -10 100.5 38.5 Q47 87 47 163 Q47 240 99.5 287 Q152 334 239 334 Q296 334 343.5 319.5 Q391 305 430 277 L430 309 Q430 386 391 423.5 Q352 461 272 461 Q225 461 184 449.5 Q143 438 106 414 Z M310 675 Q334 655 347 649 Q360 643 372 643 Q395 643 408 661.5 Q421 680 423 713 L472 713 Q470 663 442 629.5 Q414 596 372 596 Q351 596 331 604.5 Q311 613 280 638 Q256 658 244 663.5 Q232 669 221 669 Q196 669 182 651 Q168 633 164 597 L115 597 Q118 652 145.5 684.5 Q173 717 217 717 Q239 717 258.5 708.5 Q278 700 310 675 Z " />
<glyph glyph-name="abreve" unicode="&#x103;" horiz-adv-x="587" d="M263 43 Q311 43 354 69 Q397 95 432 145 L432 223 Q394 253 350 269 Q306 285 261 285 Q195 285 158 253.5 Q121 222 121 166 Q121 111 160.5 77 Q200 43 263 43 Z M106 414 L106 475 Q142 497 187 508.5 Q232 520 283 520 Q392 520 447 467.5 Q502 415 502 312 L502 0 L432 0 L432 90 Q402 43 350 16.5 Q298 -10 236 -10 Q154 -10 100.5 38.5 Q47 87 47 163 Q47 240 99.5 287 Q152 334 239 334 Q296 334 343.5 319.5 Q391 305 430 277 L430 309 Q430 386 391 423.5 Q352 461 272 461 Q225 461 184 449.5 Q143 438 106 414 Z M288 637 Q330 637 355 657.5 Q380 678 390 721 L440 721 Q433 660 392.5 625 Q352 590 288 590 Q225 590 184.5 625.5 Q144 661 137 721 L186 721 Q196 678 221 657.5 Q246 637 288 637 Z " />
<glyph glyph-name="amacron" unicode="&#x101;" horiz-adv-x="587" d="M263 43 Q311 43 354 69 Q397 95 432 145 L432 223 Q394 253 350 269 Q306 285 261 285 Q195 285 158 253.5 Q121 222 121 166 Q121 111 160.5 77 Q200 43 263 43 Z M106 414 L106 475 Q142 497 187 508.5 Q232 520 283 520 Q392 520 447 467.5 Q502 415 502 312 L502 0 L432 0 L432 90 Q402 43 350 16.5 Q298 -10 236 -10 Q154 -10 100.5 38.5 Q47 87 47 163 Q47 240 99.5 287 Q152 334 239 334 Q296 334 343.5 319.5 Q391 305 430 277 L430 309 Q430 386 391 423.5 Q352 461 272 461 Q225 461 184 449.5 Q143 438 106 414 Z M441 628 L144 628 L144 684 L441 684 L441 628 Z " />
<glyph glyph-name="aogonek" unicode="&#x105;" horiz-adv-x="587" d="M505 -138 L505 -181 Q480 -196 459.5 -202 Q439 -208 414 -208 Q367 -208 335.5 -184 Q304 -160 304 -122 Q304 -85 335 -53.5 Q366 -22 432 8 L432 90 Q402 43 350 16.5 Q298 -10 236 -10 Q154 -10 100.5 38.5 Q47 87 47 163 Q47 240 99.5 287 Q152 334 239 334 Q296 334 343.5 319.5 Q391 305 430 277 L430 309 Q430 386 391 423.5 Q352 461 272 461 Q225 461 184 449.5 Q143 438 106 414 L106 475 Q142 497 187 508.5 Q232 520 283 520 Q392 520 447 467.5 Q502 415 502 312 L502 0 L477 0 Q415 -29 387 -55 Q359 -81 359 -110 Q359 -135 378 -149.5 Q397 -164 428 -164 Q447 -164 467 -157 Q487 -150 505 -138 Z M263 43 Q311 43 354 69 Q397 95 432 145 L432 223 Q394 253 350 269 Q306 285 261 285 Q195 285 158 253.5 Q121 222 121 166 Q121 111 160.5 77 Q200 43 263 43 Z " />
<glyph glyph-name="ccedilla" unicode="&#xe7;" horiz-adv-x="518" d="M398 -125 Q398 -161 370 -182.5 Q342 -204 296 -204 Q268 -204 248 -199.5 Q228 -195 206 -184 L206 -144 Q230 -156 249 -161 Q268 -166 291 -166 Q318 -166 333 -156 Q348 -146 348 -127 Q348 -109 334 -99.5 Q320 -90 294 -90 L247 -90 L264 -7 Q164 6 105 76.5 Q46 147 46 254 Q46 374 118.5 447 Q191 520 311 520 Q359 520 399 507.5 Q439 495 467 472 L467 408 Q439 433 401.5 446 Q364 459 322 459 Q226 459 171.5 404 Q117 349 117 254 Q117 160 171 105 Q225 50 320 50 Q363 50 399 62.5 Q435 75 473 104 L473 41 Q442 16 399.5 3 Q357 -10 307 -10 Q305 -10 302.5 -10 Q300 -10 298 -10 L287 -57 L310 -57 Q351 -57 374.5 -75 Q398 -93 398 -125 Z " />
<glyph glyph-name="cacute" unicode="&#x107;" horiz-adv-x="518" d="M322 459 Q226 459 171.5 404 Q117 349 117 254 Q117 160 171 105 Q225 50 320 50 Q363 50 399 62.5 Q435 75 473 104 L473 41 Q442 16 399.5 3 Q357 -10 307 -10 Q189 -10 117.5 62.5 Q46 135 46 254 Q46 374 118.5 447 Q191 520 311 520 Q362 520 401.5 509 Q441 498 467 476 L467 408 Q439 433 401.5 446 Q364 459 322 459 Z M291 588 L227 588 L333 723 L413 723 L291 588 Z " />
<glyph glyph-name="ccaron" unicode="&#x10d;" horiz-adv-x="518" d="M322 459 Q226 459 171.5 404 Q117 349 117 254 Q117 160 171 105 Q225 50 320 50 Q363 50 399 62.5 Q435 75 473 104 L473 41 Q442 16 399.5 3 Q357 -10 307 -10 Q189 -10 117.5 62.5 Q46 135 46 254 Q46 374 118.5 447 Q191 520 311 520 Q362 520 401.5 509 Q441 498 467 476 L467 408 Q439 433 401.5 446 Q364 459 322 459 Z M318 588 L235 588 L125 723 L183 723 L275 624 L366 723 L428 723 L318 588 Z " />
<glyph glyph-name="ccircumflex" unicode="&#x109;" horiz-adv-x="518" d="M322 459 Q226 459 171.5 404 Q117 349 117 254 Q117 160 171 105 Q225 50 320 50 Q363 50 399 62.5 Q435 75 473 104 L473 41 Q442 16 399.5 3 Q357 -10 307 -10 Q189 -10 117.5 62.5 Q46 135 46 254 Q46 374 118.5 447 Q191 520 311 520 Q362 520 401.5 509 Q441 498 467 476 L467 408 Q439 433 401.5 446 Q364 459 322 459 Z M432 588 L371 588 L279 687 L186 588 L129 588 L239 723 L322 723 L432 588 Z " />
<glyph glyph-name="cdotaccent" unicode="&#x10b;" horiz-adv-x="518" d="M322 459 Q226 459 171.5 404 Q117 349 117 254 Q117 160 171 105 Q225 50 320 50 Q363 50 399 62.5 Q435 75 473 104 L473 41 Q442 16 399.5 3 Q357 -10 307 -10 Q189 -10 117.5 62.5 Q46 135 46 254 Q46 374 118.5 447 Q191 520 311 520 Q362 520 401.5 509 Q441 498 467 476 L467 408 Q439 433 401.5 446 Q364 459 322 459 Z M241 726 L312 726 L312 597 L241 597 L241 726 Z " />
<glyph glyph-name="dcaron" unicode="&#x10f;" horiz-adv-x="712" d="M491 166 L491 345 Q460 399 411.5 429 Q363 459 305 459 Q221 459 169 403 Q117 347 117 256 Q117 163 169 107 Q221 51 305 51 Q362 51 410 81 Q458 111 491 166 Z M491 0 L491 100 Q459 47 407 18.5 Q355 -10 292 -10 Q185 -10 115.5 64.5 Q46 139 46 255 Q46 372 115 446 Q184 520 292 520 Q355 520 406 493.5 Q457 467 491 416 L491 727 L561 740 L561 0 L491 0 Z M641 612 L641 710 L719 710 L719 641 Q719 600 703 568.5 Q687 537 656 515 L637 531 Q653 546 663.5 567 Q674 588 676 612 L641 612 Z " />
<glyph glyph-name="dslash" unicode="&#x111;" horiz-adv-x="647" d="M491 166 L491 345 Q460 399 411.5 429 Q363 459 305 459 Q221 459 169 403 Q117 347 117 256 Q117 163 169 107 Q221 51 305 51 Q362 51 410 81 Q458 111 491 166 Z M491 0 L491 104 Q458 50 406 20 Q354 -10 292 -10 Q185 -10 115.5 64.5 Q46 139 46 255 Q46 372 115 446 Q184 520 292 520 Q353 520 404 492 Q455 464 491 411 L491 601 L288 601 L288 645 L491 645 L491 727 L561 740 L561 645 L621 645 L621 601 L561 601 L561 0 L491 0 Z " />
<glyph glyph-name="eacute" unicode="&#xe9;" horiz-adv-x="574" d="M299 462 Q226 462 175.5 415.5 Q125 369 117 291 L464 291 Q465 369 419 415.5 Q373 462 299 462 Z M488 95 L488 34 Q459 14 415.5 2 Q372 -10 327 -10 Q203 -10 124.5 66 Q46 142 46 261 Q46 375 117.5 447.5 Q189 520 301 520 Q403 520 467 455.5 Q531 391 533 287 Q533 274 532 261 Q531 248 529 241 L116 241 Q123 153 181 101 Q239 49 328 49 Q372 49 415 61.5 Q458 74 488 95 Z M298 588 L234 588 L340 723 L420 723 L298 588 Z " />
<glyph glyph-name="ecircumflex" unicode="&#xea;" horiz-adv-x="574" d="M299 462 Q226 462 175.5 415.5 Q125 369 117 291 L464 291 Q465 369 419 415.5 Q373 462 299 462 Z M488 95 L488 34 Q459 14 415.5 2 Q372 -10 327 -10 Q203 -10 124.5 66 Q46 142 46 261 Q46 375 117.5 447.5 Q189 520 301 520 Q403 520 467 455.5 Q531 391 533 287 Q533 274 532 261 Q531 248 529 241 L116 241 Q123 153 181 101 Q239 49 328 49 Q372 49 415 61.5 Q458 74 488 95 Z M438 588 L377 588 L285 687 L192 588 L135 588 L245 723 L328 723 L438 588 Z " />
<glyph glyph-name="edieresis" unicode="&#xeb;" horiz-adv-x="574" d="M299 462 Q226 462 175.5 415.5 Q125 369 117 291 L464 291 Q465 369 419 415.5 Q373 462 299 462 Z M488 95 L488 34 Q459 14 415.5 2 Q372 -10 327 -10 Q203 -10 124.5 66 Q46 142 46 261 Q46 375 117.5 447.5 Q189 520 301 520 Q403 520 467 455.5 Q531 391 533 287 Q533 274 532 261 Q531 248 529 241 L116 241 Q123 153 181 101 Q239 49 328 49 Q372 49 415 61.5 Q458 74 488 95 Z M402 597 L340 597 L340 726 L402 726 L402 597 Z M233 597 L171 597 L171 726 L233 726 L233 597 Z " />
<glyph glyph-name="egrave" unicode="&#xe8;" horiz-adv-x="574" d="M299 462 Q226 462 175.5 415.5 Q125 369 117 291 L464 291 Q465 369 419 415.5 Q373 462 299 462 Z M488 95 L488 34 Q459 14 415.5 2 Q372 -10 327 -10 Q203 -10 124.5 66 Q46 142 46 261 Q46 375 117.5 447.5 Q189 520 301 520 Q403 520 467 455.5 Q531 391 533 287 Q533 274 532 261 Q531 248 529 241 L116 241 Q123 153 181 101 Q239 49 328 49 Q372 49 415 61.5 Q458 74 488 95 Z M167 723 L246 723 L352 588 L288 588 L167 723 Z " />
<glyph glyph-name="ebreve" unicode="&#x115;" horiz-adv-x="574" d="M299 462 Q226 462 175.5 415.5 Q125 369 117 291 L464 291 Q465 369 419 415.5 Q373 462 299 462 Z M488 95 L488 34 Q459 14 415.5 2 Q372 -10 327 -10 Q203 -10 124.5 66 Q46 142 46 261 Q46 375 117.5 447.5 Q189 520 301 520 Q403 520 467 455.5 Q531 391 533 287 Q533 274 532 261 Q531 248 529 241 L116 241 Q123 153 181 101 Q239 49 328 49 Q372 49 415 61.5 Q458 74 488 95 Z M282 637 Q324 637 349 657.5 Q374 678 384 721 L434 721 Q427 660 386.5 625 Q346 590 282 590 Q219 590 178.5 625.5 Q138 661 131 721 L180 721 Q190 678 215 657.5 Q240 637 282 637 Z " />
<glyph glyph-name="ecaron" unicode="&#x11b;" horiz-adv-x="574" d="M299 462 Q226 462 175.5 415.5 Q125 369 117 291 L464 291 Q465 369 419 415.5 Q373 462 299 462 Z M488 95 L488 34 Q459 14 415.5 2 Q372 -10 327 -10 Q203 -10 124.5 66 Q46 142 46 261 Q46 375 117.5 447.5 Q189 520 301 520 Q403 520 467 455.5 Q531 391 533 287 Q533 274 532 261 Q531 248 529 241 L116 241 Q123 153 181 101 Q239 49 328 49 Q372 49 415 61.5 Q458 74 488 95 Z M328 588 L245 588 L135 723 L193 723 L285 624 L376 723 L438 723 L328 588 Z " />
<glyph glyph-name="edotaccent" unicode="&#x117;" horiz-adv-x="574" d="M299 462 Q226 462 175.5 415.5 Q125 369 117 291 L464 291 Q465 369 419 415.5 Q373 462 299 462 Z M488 95 L488 34 Q459 14 415.5 2 Q372 -10 327 -10 Q203 -10 124.5 66 Q46 142 46 261 Q46 375 117.5 447.5 Q189 520 301 520 Q403 520 467 455.5 Q531 391 533 287 Q533 274 532 261 Q531 248 529 241 L116 241 Q123 153 181 101 Q239 49 328 49 Q372 49 415 61.5 Q458 74 488 95 Z M251 726 L322 726 L322 597 L251 597 L251 726 Z " />
<glyph glyph-name="emacron" unicode="&#x113;" horiz-adv-x="574" d="M299 462 Q226 462 175.5 415.5 Q125 369 117 291 L464 291 Q465 369 419 415.5 Q373 462 299 462 Z M488 95 L488 34 Q459 14 415.5 2 Q372 -10 327 -10 Q203 -10 124.5 66 Q46 142 46 261 Q46 375 117.5 447.5 Q189 520 301 520 Q403 520 467 455.5 Q531 391 533 287 Q533 274 532 261 Q531 248 529 241 L116 241 Q123 153 181 101 Q239 49 328 49 Q372 49 415 61.5 Q458 74 488 95 Z M435 628 L138 628 L138 684 L435 684 L435 628 Z " />
<glyph glyph-name="eogonek" unicode="&#x119;" horiz-adv-x="574" d="M443 -138 L443 -181 Q420 -196 398.5 -202 Q377 -208 352 -208 Q305 -208 273.5 -184 Q242 -160 242 -122 Q242 -91 262.5 -63.5 Q283 -36 326 -10 Q202 -9 124 66.5 Q46 142 46 261 Q46 375 117.5 447.5 Q189 520 301 520 Q403 520 467 455.5 Q531 391 533 287 Q533 274 532 261 Q531 248 529 241 L116 241 Q123 153 181 101 Q239 49 328 49 Q372 49 415 61.5 Q458 74 488 95 L488 34 Q469 21 442 10.5 Q415 0 385 -5 Q339 -34 318 -59 Q297 -84 297 -110 Q297 -135 316 -149.5 Q335 -164 366 -164 Q385 -164 405.5 -157 Q426 -150 443 -138 Z M299 462 Q226 462 175.5 415.5 Q125 369 117 291 L464 291 Q465 369 419 415.5 Q373 462 299 462 Z " />
<glyph glyph-name="gbreve" unicode="&#x11f;" horiz-adv-x="647" d="M491 164 L491 347 Q460 400 411 429.5 Q362 459 305 459 Q221 459 169 403 Q117 347 117 256 Q117 163 169 107 Q221 51 305 51 Q361 51 408.5 80 Q456 109 491 164 Z M491 25 L491 101 Q459 48 407 19 Q355 -10 291 -10 Q184 -10 115 64 Q46 138 46 255 Q46 372 115 446 Q184 520 292 520 Q355 520 406 493.5 Q457 467 491 416 L491 510 L561 510 L561 34 Q561 -81 492.5 -148.5 Q424 -216 309 -216 Q278 -216 247.5 -210 Q217 -204 198 -194 L198 -134 Q221 -144 250 -150 Q279 -156 305 -156 Q390 -156 440.5 -107.5 Q491 -59 491 25 Z M317 637 Q359 637 384 657.5 Q409 678 419 721 L469 721 Q462 660 421.5 625 Q381 590 317 590 Q254 590 213.5 625.5 Q173 661 166 721 L215 721 Q225 678 250 657.5 Q275 637 317 637 Z " />
<glyph glyph-name="gcircumflex" unicode="&#x11d;" horiz-adv-x="647" d="M491 164 L491 347 Q460 400 411 429.5 Q362 459 305 459 Q221 459 169 403 Q117 347 117 256 Q117 163 169 107 Q221 51 305 51 Q361 51 408.5 80 Q456 109 491 164 Z M491 25 L491 101 Q459 48 407 19 Q355 -10 291 -10 Q184 -10 115 64 Q46 138 46 255 Q46 372 115 446 Q184 520 292 520 Q355 520 406 493.5 Q457 467 491 416 L491 510 L561 510 L561 34 Q561 -81 492.5 -148.5 Q424 -216 309 -216 Q278 -216 247.5 -210 Q217 -204 198 -194 L198 -134 Q221 -144 250 -150 Q279 -156 305 -156 Q390 -156 440.5 -107.5 Q491 -59 491 25 Z M467 588 L406 588 L314 687 L221 588 L164 588 L274 723 L357 723 L467 588 Z " />
<glyph glyph-name="gcommaaccent" unicode="&#x123;" horiz-adv-x="647" d="M491 163 L491 346 Q460 399 411 428.5 Q362 458 305 458 Q221 458 169 402 Q117 346 117 255 Q117 162 169 106 Q221 50 305 50 Q361 50 408.5 79 Q456 108 491 163 Z M491 24 L491 100 Q459 47 407 18 Q355 -11 291 -11 Q184 -11 115 63 Q46 137 46 254 Q46 371 115 445 Q184 519 292 519 Q355 519 406 492.5 Q457 466 491 415 L491 509 L561 509 L561 33 Q561 -82 492.5 -149.5 Q424 -217 309 -217 Q278 -217 247.5 -211 Q217 -205 198 -195 L198 -135 Q221 -145 250 -151 Q279 -157 305 -157 Q390 -157 440.5 -108.5 Q491 -60 491 24 Z M349 678 L349 587 L272 587 L272 649 Q272 687 288 716 Q304 745 335 765 L353 749 Q337 736 327 717 Q317 698 315 678 L349 678 Z " />
<glyph glyph-name="gdotaccent" unicode="&#x121;" horiz-adv-x="647" d="M491 164 L491 347 Q460 400 411 429.5 Q362 459 305 459 Q221 459 169 403 Q117 347 117 256 Q117 163 169 107 Q221 51 305 51 Q361 51 408.5 80 Q456 109 491 164 Z M491 25 L491 101 Q459 48 407 19 Q355 -10 291 -10 Q184 -10 115 64 Q46 138 46 255 Q46 372 115 446 Q184 520 292 520 Q355 520 406 493.5 Q457 467 491 416 L491 510 L561 510 L561 34 Q561 -81 492.5 -148.5 Q424 -216 309 -216 Q278 -216 247.5 -210 Q217 -204 198 -194 L198 -134 Q221 -144 250 -150 Q279 -156 305 -156 Q390 -156 440.5 -107.5 Q491 -59 491 25 Z M281 726 L352 726 L352 597 L281 597 L281 726 Z " />
<glyph glyph-name="hbar" unicode="&#x127;" horiz-adv-x="616" d="M330 458 Q278 458 231 429.5 Q184 401 156 354 L156 0 L86 0 L86 601 L29 601 L29 645 L86 645 L86 727 L156 740 L156 645 L362 645 L362 601 L156 601 L156 409 Q188 460 239.5 490 Q291 520 351 520 Q442 520 488.5 470 Q535 420 535 323 L535 0 L465 0 L465 317 Q465 387 431 422.5 Q397 458 330 458 Z " />
<glyph glyph-name="hcircumflex" unicode="&#x125;" horiz-adv-x="616" d="M407 773 L347 773 L254 873 L160 773 L104 773 L218 909 L293 909 L407 773 Z M86 727 L156 740 L156 409 Q188 460 239.5 490 Q291 520 351 520 Q442 520 488.5 470 Q535 420 535 323 L535 0 L465 0 L465 317 Q465 387 431 422.5 Q397 458 330 458 Q278 458 231 429.5 Q184 401 156 354 L156 0 L86 0 L86 727 Z " />
<glyph glyph-name="iacute" unicode="&#xed;" horiz-adv-x="242" d="M86 510 L156 510 L156 0 L86 0 L86 510 Z M137 588 L73 588 L179 723 L259 723 L137 588 Z " />
<glyph glyph-name="icircumflex" unicode="&#xee;" horiz-adv-x="242" d="M86 510 L156 510 L156 0 L86 0 L86 510 Z M273 588 L212 588 L120 687 L27 588 L-30 588 L80 723 L163 723 L273 588 Z " />
<glyph glyph-name="idieresis" unicode="&#xef;" horiz-adv-x="242" d="M86 510 L156 510 L156 0 L86 0 L86 510 Z M237 597 L175 597 L175 726 L237 726 L237 597 Z M68 597 L6 597 L6 726 L68 726 L68 597 Z " />
<glyph glyph-name="igrave" unicode="&#xec;" horiz-adv-x="242" d="M86 510 L156 510 L156 0 L86 0 L86 510 Z M-1 723 L78 723 L184 588 L120 588 L-1 723 Z " />
<glyph glyph-name="ibreve" unicode="&#x12d;" horiz-adv-x="242" d="M86 510 L156 510 L156 0 L86 0 L86 510 Z M117 637 Q159 637 184 657.5 Q209 678 219 721 L269 721 Q262 660 221.5 625 Q181 590 117 590 Q54 590 13.5 625.5 Q-27 661 -34 721 L15 721 Q25 678 50 657.5 Q75 637 117 637 Z " />
<glyph glyph-name="i.dot" unicode="&#xe166;" horiz-adv-x="242" d="M86 726 L156 726 L156 597 L86 597 L86 726 Z M86 510 L156 510 L156 0 L86 0 L86 510 Z " />
<glyph glyph-name="imacron" unicode="&#x12b;" horiz-adv-x="242" d="M86 510 L156 510 L156 0 L86 0 L86 510 Z M270 628 L-27 628 L-27 684 L270 684 L270 628 Z " />
<glyph glyph-name="iogonek" unicode="&#x12f;" horiz-adv-x="242" d="M86 726 L156 726 L156 597 L86 597 L86 726 Z M165 -138 L165 -182 Q142 -197 122.5 -203 Q103 -209 80 -209 Q35 -209 6 -185.5 Q-23 -162 -23 -124 Q-23 -87 4.5 -54 Q32 -21 86 8 L86 510 L156 510 L156 0 L130 0 Q75 -33 53.5 -58.5 Q32 -84 32 -112 Q32 -137 48 -151 Q64 -165 92 -165 Q111 -165 130 -158 Q149 -151 165 -138 Z " />
<glyph glyph-name="itilde" unicode="&#x129;" horiz-adv-x="242" d="M86 510 L156 510 L156 0 L86 0 L86 510 Z M139 675 Q163 655 176 649 Q189 643 201 643 Q224 643 237 661.5 Q250 680 252 713 L301 713 Q299 663 271 629.5 Q243 596 201 596 Q180 596 160 604.5 Q140 613 109 638 Q85 658 73 663.5 Q61 669 50 669 Q25 669 11 651 Q-3 633 -7 597 L-56 597 Q-53 652 -25.5 684.5 Q2 717 46 717 Q68 717 87.5 708.5 Q107 700 139 675 Z " />
<glyph glyph-name="jcircumflex" unicode="&#x135;" horiz-adv-x="250" d="M7 -156 Q51 -156 72.5 -128.5 Q94 -101 94 -44 L94 510 L164 510 L164 -41 Q164 -127 128.5 -171.5 Q93 -216 25 -216 Q12 -216 -1 -214.5 Q-14 -213 -26 -211 L-26 -153 Q-17 -155 -9 -155.5 Q-1 -156 7 -156 Z M277 588 L216 588 L124 687 L31 588 L-26 588 L84 723 L167 723 L277 588 Z " />
<glyph glyph-name="ij" unicode="&#x133;" horiz-adv-x="492" d="M86 726 L156 726 L156 597 L86 597 L86 726 Z M86 510 L156 510 L156 0 L86 0 L86 510 Z M406 597 L336 597 L336 726 L406 726 L406 597 Z M249 -156 Q293 -156 314.5 -128.5 Q336 -101 336 -44 L336 510 L406 510 L406 -41 Q406 -127 370.5 -171.5 Q335 -216 267 -216 Q254 -216 241 -214.5 Q228 -213 216 -211 L216 -153 Q225 -155 233 -155.5 Q241 -156 249 -156 Z " />
<glyph glyph-name="kcommaaccent" unicode="&#x137;" horiz-adv-x="547" d="M526 0 L440 0 L229 239 L156 165 L156 0 L86 0 L86 727 L156 740 L156 245 L414 511 L496 510 L275 286 L526 0 Z M233 -160 L233 -62 L311 -62 L311 -131 Q311 -166 294.5 -194.5 Q278 -223 248 -240 L229 -224 Q246 -211 255.5 -195 Q265 -179 267 -160 L233 -160 Z " />
<glyph glyph-name="lacute" unicode="&#x13a;" horiz-adv-x="242" d="M137 785 L74 785 L179 921 L259 921 L137 785 Z M156 740 L156 0 L86 0 L86 727 L156 740 Z " />
<glyph glyph-name="lcaron" unicode="&#x13e;" horiz-adv-x="306" d="M156 740 L156 0 L86 0 L86 727 L156 740 Z M235 612 L235 710 L313 710 L313 641 Q313 600 297 568.5 Q281 537 250 515 L231 531 Q247 546 257.5 567 Q268 588 270 612 L235 612 Z " />
<glyph glyph-name="lcommaaccent" unicode="&#x13c;" horiz-adv-x="242" d="M156 740 L156 0 L86 0 L86 727 L156 740 Z M82 -160 L82 -62 L160 -62 L160 -131 Q160 -166 143.5 -194.5 Q127 -223 97 -240 L78 -224 Q95 -211 104.5 -195 Q114 -179 116 -160 L82 -160 Z " />
<glyph glyph-name="ldot" unicode="&#x140;" horiz-adv-x="316" d="M156 740 L156 0 L86 0 L86 727 L156 740 Z M233 300 L233 405 L316 405 L316 300 L233 300 Z " />
<glyph glyph-name="ntilde" unicode="&#xf1;" horiz-adv-x="616" d="M86 510 L152 510 L152 413 Q188 466 238 493 Q288 520 351 520 Q442 520 488.5 470 Q535 420 535 323 L535 0 L465 0 L465 317 Q465 387 431 422.5 Q397 458 330 458 Q278 458 231.5 429.5 Q185 401 156 353 L156 0 L86 0 L86 510 Z M325 675 Q349 655 362 649 Q375 643 387 643 Q410 643 423 661.5 Q436 680 438 713 L487 713 Q485 663 457 629.5 Q429 596 387 596 Q366 596 346 604.5 Q326 613 295 638 Q271 658 259 663.5 Q247 669 236 669 Q211 669 197 651 Q183 633 179 597 L130 597 Q133 652 160.5 684.5 Q188 717 232 717 Q254 717 273.5 708.5 Q293 700 325 675 Z " />
<glyph glyph-name="nacute" unicode="&#x144;" horiz-adv-x="616" d="M86 510 L152 510 L152 413 Q188 466 238 493 Q288 520 351 520 Q442 520 488.5 470 Q535 420 535 323 L535 0 L465 0 L465 317 Q465 387 431 422.5 Q397 458 330 458 Q278 458 231.5 429.5 Q185 401 156 353 L156 0 L86 0 L86 510 Z M298 588 L234 588 L340 723 L420 723 L298 588 Z " />
<glyph glyph-name="ncaron" unicode="&#x148;" horiz-adv-x="616" d="M86 510 L152 510 L152 413 Q188 466 238 493 Q288 520 351 520 Q442 520 488.5 470 Q535 420 535 323 L535 0 L465 0 L465 317 Q465 387 431 422.5 Q397 458 330 458 Q278 458 231.5 429.5 Q185 401 156 353 L156 0 L86 0 L86 510 Z M349 588 L266 588 L156 723 L214 723 L306 624 L397 723 L459 723 L349 588 Z " />
<glyph glyph-name="ncommaaccent" unicode="&#x146;" horiz-adv-x="616" d="M86 510 L152 510 L152 413 Q188 466 238 493 Q288 520 351 520 Q442 520 488.5 470 Q535 420 535 323 L535 0 L465 0 L465 317 Q465 387 431 422.5 Q397 458 330 458 Q278 458 231.5 429.5 Q185 401 156 353 L156 0 L86 0 L86 510 Z M268 -160 L268 -62 L346 -62 L346 -131 Q346 -166 329.5 -194.5 Q313 -223 283 -240 L264 -224 Q281 -211 290.5 -195 Q300 -179 302 -160 L268 -160 Z " />
<glyph glyph-name="oacute" unicode="&#xf3;" horiz-adv-x="619" d="M309 520 Q422 520 497.5 444.5 Q573 369 573 255 Q573 141 497.5 65.5 Q422 -10 309 -10 Q196 -10 121 65.5 Q46 141 46 255 Q46 369 121 444.5 Q196 520 309 520 Z M309 50 Q393 50 447 107.5 Q501 165 501 255 Q501 345 447 402.5 Q393 460 309 460 Q225 460 171 402.5 Q117 345 117 255 Q117 165 171 107.5 Q225 50 309 50 Z M303 588 L239 588 L345 723 L425 723 L303 588 Z " />
<glyph glyph-name="ocircumflex" unicode="&#xf4;" horiz-adv-x="619" d="M309 520 Q422 520 497.5 444.5 Q573 369 573 255 Q573 141 497.5 65.5 Q422 -10 309 -10 Q196 -10 121 65.5 Q46 141 46 255 Q46 369 121 444.5 Q196 520 309 520 Z M309 50 Q393 50 447 107.5 Q501 165 501 255 Q501 345 447 402.5 Q393 460 309 460 Q225 460 171 402.5 Q117 345 117 255 Q117 165 171 107.5 Q225 50 309 50 Z M460 588 L399 588 L307 687 L214 588 L157 588 L267 723 L350 723 L460 588 Z " />
<glyph glyph-name="odieresis" unicode="&#xf6;" horiz-adv-x="619" d="M309 520 Q422 520 497.5 444.5 Q573 369 573 255 Q573 141 497.5 65.5 Q422 -10 309 -10 Q196 -10 121 65.5 Q46 141 46 255 Q46 369 121 444.5 Q196 520 309 520 Z M309 50 Q393 50 447 107.5 Q501 165 501 255 Q501 345 447 402.5 Q393 460 309 460 Q225 460 171 402.5 Q117 345 117 255 Q117 165 171 107.5 Q225 50 309 50 Z M424 597 L362 597 L362 726 L424 726 L424 597 Z M255 597 L193 597 L193 726 L255 726 L255 597 Z " />
<glyph glyph-name="ograve" unicode="&#xf2;" horiz-adv-x="619" d="M309 520 Q422 520 497.5 444.5 Q573 369 573 255 Q573 141 497.5 65.5 Q422 -10 309 -10 Q196 -10 121 65.5 Q46 141 46 255 Q46 369 121 444.5 Q196 520 309 520 Z M309 50 Q393 50 447 107.5 Q501 165 501 255 Q501 345 447 402.5 Q393 460 309 460 Q225 460 171 402.5 Q117 345 117 255 Q117 165 171 107.5 Q225 50 309 50 Z M177 723 L256 723 L362 588 L298 588 L177 723 Z " />
<glyph glyph-name="otilde" unicode="&#xf5;" horiz-adv-x="619" d="M309 520 Q422 520 497.5 444.5 Q573 369 573 255 Q573 141 497.5 65.5 Q422 -10 309 -10 Q196 -10 121 65.5 Q46 141 46 255 Q46 369 121 444.5 Q196 520 309 520 Z M309 50 Q393 50 447 107.5 Q501 165 501 255 Q501 345 447 402.5 Q393 460 309 460 Q225 460 171 402.5 Q117 345 117 255 Q117 165 171 107.5 Q225 50 309 50 Z M326 675 Q350 655 363 649 Q376 643 388 643 Q411 643 424 661.5 Q437 680 439 713 L488 713 Q486 663 458 629.5 Q430 596 388 596 Q367 596 347 604.5 Q327 613 296 638 Q272 658 260 663.5 Q248 669 237 669 Q212 669 198 651 Q184 633 180 597 L131 597 Q134 652 161.5 684.5 Q189 717 233 717 Q255 717 274.5 708.5 Q294 700 326 675 Z " />
<glyph glyph-name="obreve" unicode="&#x14f;" horiz-adv-x="619" d="M309 520 Q422 520 497.5 444.5 Q573 369 573 255 Q573 141 497.5 65.5 Q422 -10 309 -10 Q196 -10 121 65.5 Q46 141 46 255 Q46 369 121 444.5 Q196 520 309 520 Z M309 50 Q393 50 447 107.5 Q501 165 501 255 Q501 345 447 402.5 Q393 460 309 460 Q225 460 171 402.5 Q117 345 117 255 Q117 165 171 107.5 Q225 50 309 50 Z M304 637 Q346 637 371 657.5 Q396 678 406 721 L456 721 Q449 660 408.5 625 Q368 590 304 590 Q241 590 200.5 625.5 Q160 661 153 721 L202 721 Q212 678 237 657.5 Q262 637 304 637 Z " />
<glyph glyph-name="ohungarumlaut" unicode="&#x151;" horiz-adv-x="619" d="M309 520 Q422 520 497.5 444.5 Q573 369 573 255 Q573 141 497.5 65.5 Q422 -10 309 -10 Q196 -10 121 65.5 Q46 141 46 255 Q46 369 121 444.5 Q196 520 309 520 Z M309 50 Q393 50 447 107.5 Q501 165 501 255 Q501 345 447 402.5 Q393 460 309 460 Q225 460 171 402.5 Q117 345 117 255 Q117 165 171 107.5 Q225 50 309 50 Z M396 588 L333 588 L437 723 L516 723 L396 588 Z M230 588 L167 588 L271 723 L350 723 L230 588 Z " />
<glyph glyph-name="omacron" unicode="&#x14d;" horiz-adv-x="619" d="M309 520 Q422 520 497.5 444.5 Q573 369 573 255 Q573 141 497.5 65.5 Q422 -10 309 -10 Q196 -10 121 65.5 Q46 141 46 255 Q46 369 121 444.5 Q196 520 309 520 Z M309 50 Q393 50 447 107.5 Q501 165 501 255 Q501 345 447 402.5 Q393 460 309 460 Q225 460 171 402.5 Q117 345 117 255 Q117 165 171 107.5 Q225 50 309 50 Z M457 628 L160 628 L160 684 L457 684 L457 628 Z " />
<glyph glyph-name="racute" unicode="&#x155;" horiz-adv-x="376" d="M294 520 Q309 520 323 517 Q337 514 349 508 L349 441 Q337 447 320.5 450.5 Q304 454 287 454 Q245 454 210.5 426.5 Q176 399 156 349 L156 0 L86 0 L86 510 L156 510 L156 415 Q179 468 213 494 Q247 520 294 520 Z M180 588 L116 588 L222 723 L302 723 L180 588 Z " />
<glyph glyph-name="rcaron" unicode="&#x159;" horiz-adv-x="376" d="M294 520 Q309 520 323 517 Q337 514 349 508 L349 441 Q337 447 320.5 450.5 Q304 454 287 454 Q245 454 210.5 426.5 Q176 399 156 349 L156 0 L86 0 L86 510 L156 510 L156 415 Q179 468 213 494 Q247 520 294 520 Z M248 588 L165 588 L55 723 L113 723 L205 624 L296 723 L358 723 L248 588 Z " />
<glyph glyph-name="rcommaaccent" unicode="&#x157;" horiz-adv-x="376" d="M294 520 Q309 520 323 517 Q337 514 349 508 L349 441 Q337 447 320.5 450.5 Q304 454 287 454 Q245 454 210.5 426.5 Q176 399 156 349 L156 0 L86 0 L86 510 L156 510 L156 415 Q179 468 213 494 Q247 520 294 520 Z M86 -160 L86 -62 L164 -62 L164 -131 Q164 -166 147.5 -194.5 Q131 -223 101 -240 L82 -224 Q99 -211 108.5 -195 Q118 -179 120 -160 L86 -160 Z " />
<glyph glyph-name="scaron" unicode="&#x161;" horiz-adv-x="471" d="M247 461 Q185 461 150 439 Q115 417 115 378 Q115 351 138 334.5 Q161 318 256 289 Q359 260 395.5 227 Q432 194 432 139 Q432 68 378.5 29 Q325 -10 234 -10 Q179 -10 130.5 2 Q82 14 50 35 L50 103 Q84 77 134 62.5 Q184 48 237 48 Q296 48 330 70.5 Q364 93 364 135 Q364 168 337.5 188 Q311 208 212 237 Q117 266 82.5 296.5 Q48 327 48 376 Q48 442 103 481 Q158 520 246 520 Q290 520 329 510.5 Q368 501 402 483 L402 419 Q369 439 329 450 Q289 461 247 461 Z M272 588 L189 588 L79 723 L137 723 L229 624 L320 723 L382 723 L272 588 Z " />
<glyph glyph-name="sacute" unicode="&#x15b;" horiz-adv-x="471" d="M247 461 Q185 461 150 439 Q115 417 115 378 Q115 351 138 334.5 Q161 318 256 289 Q359 260 395.5 227 Q432 194 432 139 Q432 68 378.5 29 Q325 -10 234 -10 Q179 -10 130.5 2 Q82 14 50 35 L50 103 Q84 77 134 62.5 Q184 48 237 48 Q296 48 330 70.5 Q364 93 364 135 Q364 168 337.5 188 Q311 208 212 237 Q117 266 82.5 296.5 Q48 327 48 376 Q48 442 103 481 Q158 520 246 520 Q290 520 329 510.5 Q368 501 402 483 L402 419 Q369 439 329 450 Q289 461 247 461 Z M224 588 L160 588 L266 723 L346 723 L224 588 Z " />
<glyph glyph-name="scedilla" unicode="&#x15f;" horiz-adv-x="471" d="M336 -125 Q336 -161 307.5 -182.5 Q279 -204 233 -204 Q205 -204 185.5 -199.5 Q166 -195 144 -184 L144 -144 Q168 -156 187 -161 Q206 -166 229 -166 Q256 -166 271 -156 Q286 -146 286 -127 Q286 -109 272 -99.5 Q258 -90 232 -90 L185 -90 L202 -9 Q157 -6 117.5 5.5 Q78 17 50 35 L50 103 Q84 77 134 62.5 Q184 48 237 48 Q296 48 330 70.5 Q364 93 364 135 Q364 168 337.5 188 Q311 208 212 237 Q117 266 82.5 296.5 Q48 327 48 376 Q48 442 103 481 Q158 520 246 520 Q290 520 329 510.5 Q368 501 402 483 L402 419 Q369 439 329 450 Q289 461 247 461 Q185 461 150 439 Q115 417 115 378 Q115 351 138 334.5 Q161 318 256 289 Q359 260 395.5 227 Q432 194 432 139 Q432 68 379 29 Q326 -10 235 -10 L225 -57 L247 -57 Q289 -57 312.5 -75 Q336 -93 336 -125 Z " />
<glyph glyph-name="scircumflex" unicode="&#x15d;" horiz-adv-x="471" d="M247 461 Q185 461 150 439 Q115 417 115 378 Q115 351 138 334.5 Q161 318 256 289 Q359 260 395.5 227 Q432 194 432 139 Q432 68 378.5 29 Q325 -10 234 -10 Q179 -10 130.5 2 Q82 14 50 35 L50 103 Q84 77 134 62.5 Q184 48 237 48 Q296 48 330 70.5 Q364 93 364 135 Q364 168 337.5 188 Q311 208 212 237 Q117 266 82.5 296.5 Q48 327 48 376 Q48 442 103 481 Q158 520 246 520 Q290 520 329 510.5 Q368 501 402 483 L402 419 Q369 439 329 450 Q289 461 247 461 Z M387 588 L326 588 L234 687 L141 588 L84 588 L194 723 L277 723 L387 588 Z " />
<glyph glyph-name="uni0219" unicode="&#x219;" horiz-adv-x="471" d="M247 461 Q185 461 150 439 Q115 417 115 378 Q115 351 138 334.5 Q161 318 256 289 Q359 260 395.5 227 Q432 194 432 139 Q432 68 378.5 29 Q325 -10 234 -10 Q179 -10 130.5 2 Q82 14 50 35 L50 103 Q84 77 134 62.5 Q184 48 237 48 Q296 48 330 70.5 Q364 93 364 135 Q364 168 337.5 188 Q311 208 212 237 Q117 266 82.5 296.5 Q48 327 48 376 Q48 442 103 481 Q158 520 246 520 Q290 520 329 510.5 Q368 501 402 483 L402 419 Q369 439 329 450 Q289 461 247 461 Z M196 -160 L196 -62 L274 -62 L274 -131 Q274 -166 257.5 -194.5 Q241 -223 211 -240 L192 -224 Q209 -211 218.5 -195 Q228 -179 230 -160 L196 -160 Z " />
<glyph glyph-name="tbar" unicode="&#x167;" horiz-adv-x="352" d="M309 65 L309 3 Q287 -4 269 -7 Q251 -10 235 -10 Q162 -10 127.5 27 Q93 64 93 141 L93 277 L11 277 L11 329 L93 329 L93 457 L11 457 L11 510 L93 510 L93 631 L163 643 L163 510 L307 510 L307 458 L163 458 L163 329 L307 329 L307 277 L163 277 L163 149 Q163 100 182.5 77 Q202 54 246 54 Q263 54 278.5 56.5 Q294 59 309 65 Z " />
<glyph glyph-name="tcaron" unicode="&#x165;" horiz-adv-x="352" d="M216 647 L216 745 L294 745 L294 676 Q294 636 279 605.5 Q264 575 233 553 L214 569 Q230 584 239 604 Q248 624 251 647 L216 647 Z M309 65 L309 3 Q287 -4 269 -7 Q251 -10 235 -10 Q162 -10 127.5 27 Q93 64 93 141 L93 453 L11 453 L11 510 L93 510 L93 631 L163 643 L163 510 L307 510 L307 453 L163 453 L163 149 Q163 100 182.5 77 Q202 54 246 54 Q263 54 278.5 56.5 Q294 59 309 65 Z " />
<glyph glyph-name="uni0163" unicode="&#x163;" horiz-adv-x="352" d="M309 65 L309 3 Q287 -4 269 -7 Q251 -10 235 -10 Q162 -10 127.5 27 Q93 64 93 141 L93 453 L11 453 L11 510 L93 510 L93 631 L163 643 L163 510 L307 510 L307 453 L163 453 L163 149 Q163 100 182.5 77 Q202 54 246 54 Q263 54 278.5 56.5 Q294 59 309 65 Z M137 -160 L137 -62 L215 -62 L215 -131 Q215 -166 198.5 -194.5 Q182 -223 152 -240 L133 -224 Q150 -211 159.5 -195 Q169 -179 171 -160 L137 -160 Z " />
<glyph glyph-name="uni021B" unicode="&#x21b;" horiz-adv-x="352" d="M309 65 L309 3 Q287 -4 269 -7 Q251 -10 235 -10 Q162 -10 127.5 27 Q93 64 93 141 L93 453 L11 453 L11 510 L93 510 L93 631 L163 643 L163 510 L307 510 L307 453 L163 453 L163 149 Q163 100 182.5 77 Q202 54 246 54 Q263 54 278.5 56.5 Q294 59 309 65 Z M137 -160 L137 -62 L215 -62 L215 -131 Q215 -166 198.5 -194.5 Q182 -223 152 -240 L133 -224 Q150 -211 159.5 -195 Q169 -179 171 -160 L137 -160 Z " />
<glyph glyph-name="uacute" unicode="&#xfa;" horiz-adv-x="600" d="M514 0 L447 0 L447 100 Q415 48 366.5 19 Q318 -10 259 -10 Q171 -10 126 37.5 Q81 85 81 179 L81 510 L151 510 L151 187 Q151 118 183 84.5 Q215 51 280 51 Q328 51 370 79 Q412 107 443 159 L443 510 L514 510 L514 0 Z M299 588 L235 588 L341 723 L421 723 L299 588 Z " />
<glyph glyph-name="ucircumflex" unicode="&#xfb;" horiz-adv-x="600" d="M514 0 L447 0 L447 100 Q415 48 366.5 19 Q318 -10 259 -10 Q171 -10 126 37.5 Q81 85 81 179 L81 510 L151 510 L151 187 Q151 118 183 84.5 Q215 51 280 51 Q328 51 370 79 Q412 107 443 159 L443 510 L514 510 L514 0 Z M451 588 L390 588 L298 687 L205 588 L148 588 L258 723 L341 723 L451 588 Z " />
<glyph glyph-name="udieresis" unicode="&#xfc;" horiz-adv-x="600" d="M514 0 L447 0 L447 100 Q415 48 366.5 19 Q318 -10 259 -10 Q171 -10 126 37.5 Q81 85 81 179 L81 510 L151 510 L151 187 Q151 118 183 84.5 Q215 51 280 51 Q328 51 370 79 Q412 107 443 159 L443 510 L514 510 L514 0 Z M415 597 L353 597 L353 726 L415 726 L415 597 Z M246 597 L184 597 L184 726 L246 726 L246 597 Z " />
<glyph glyph-name="ugrave" unicode="&#xf9;" horiz-adv-x="600" d="M514 0 L447 0 L447 100 Q415 48 366.5 19 Q318 -10 259 -10 Q171 -10 126 37.5 Q81 85 81 179 L81 510 L151 510 L151 187 Q151 118 183 84.5 Q215 51 280 51 Q328 51 370 79 Q412 107 443 159 L443 510 L514 510 L514 0 Z M190 723 L269 723 L375 588 L311 588 L190 723 Z " />
<glyph glyph-name="ubreve" unicode="&#x16d;" horiz-adv-x="600" d="M514 0 L447 0 L447 100 Q415 48 366.5 19 Q318 -10 259 -10 Q171 -10 126 37.5 Q81 85 81 179 L81 510 L151 510 L151 187 Q151 118 183 84.5 Q215 51 280 51 Q328 51 370 79 Q412 107 443 159 L443 510 L514 510 L514 0 Z M295 637 Q337 637 362 657.5 Q387 678 397 721 L447 721 Q440 660 399.5 625 Q359 590 295 590 Q232 590 191.5 625.5 Q151 661 144 721 L193 721 Q203 678 228 657.5 Q253 637 295 637 Z " />
<glyph glyph-name="uhungarumlaut" unicode="&#x171;" horiz-adv-x="600" d="M514 0 L447 0 L447 100 Q415 48 366.5 19 Q318 -10 259 -10 Q171 -10 126 37.5 Q81 85 81 179 L81 510 L151 510 L151 187 Q151 118 183 84.5 Q215 51 280 51 Q328 51 370 79 Q412 107 443 159 L443 510 L514 510 L514 0 Z M392 588 L329 588 L433 723 L512 723 L392 588 Z M226 588 L163 588 L267 723 L346 723 L226 588 Z " />
<glyph glyph-name="umacron" unicode="&#x16b;" horiz-adv-x="600" d="M514 0 L447 0 L447 100 Q415 48 366.5 19 Q318 -10 259 -10 Q171 -10 126 37.5 Q81 85 81 179 L81 510 L151 510 L151 187 Q151 118 183 84.5 Q215 51 280 51 Q328 51 370 79 Q412 107 443 159 L443 510 L514 510 L514 0 Z M448 628 L151 628 L151 684 L448 684 L448 628 Z " />
<glyph glyph-name="uogonek" unicode="&#x173;" horiz-adv-x="600" d="M522 -138 L522 -181 Q498 -196 477.5 -202 Q457 -208 431 -208 Q384 -208 352.5 -184 Q321 -160 321 -122 Q321 -84 352 -51 Q383 -18 447 11 L447 106 Q413 51 364.5 20.5 Q316 -10 259 -10 Q171 -10 126 37.5 Q81 85 81 179 L81 510 L151 510 L151 187 Q151 118 183 84.5 Q215 51 280 51 Q328 51 370 79 Q412 107 443 159 L443 510 L514 510 L514 0 L485 0 Q426 -31 401 -56.5 Q376 -82 376 -110 Q376 -135 395 -149.5 Q414 -164 445 -164 Q464 -164 484.5 -157 Q505 -150 522 -138 Z " />
<glyph glyph-name="uring" unicode="&#x16f;" horiz-adv-x="600" d="M514 0 L447 0 L447 100 Q415 48 366.5 19 Q318 -10 259 -10 Q171 -10 126 37.5 Q81 85 81 179 L81 510 L151 510 L151 187 Q151 118 183 84.5 Q215 51 280 51 Q328 51 370 79 Q412 107 443 159 L443 510 L514 510 L514 0 Z M201 668 Q201 710 229 737.5 Q257 765 300 765 Q342 765 370 737 Q398 709 398 668 Q398 626 370 598 Q342 570 300 570 Q258 570 229.5 598 Q201 626 201 668 Z M244 669 Q244 643 259.5 627 Q275 611 300 611 Q325 611 340.5 627 Q356 643 356 669 Q356 694 340.5 709.5 Q325 725 300 725 Q275 725 259.5 709.5 Q244 694 244 669 Z " />
<glyph glyph-name="utilde" unicode="&#x169;" horiz-adv-x="600" d="M514 0 L447 0 L447 100 Q415 48 366.5 19 Q318 -10 259 -10 Q171 -10 126 37.5 Q81 85 81 179 L81 510 L151 510 L151 187 Q151 118 183 84.5 Q215 51 280 51 Q328 51 370 79 Q412 107 443 159 L443 510 L514 510 L514 0 Z M317 675 Q341 655 354 649 Q367 643 379 643 Q402 643 415 661.5 Q428 680 430 713 L479 713 Q477 663 449 629.5 Q421 596 379 596 Q358 596 338 604.5 Q318 613 287 638 Q263 658 251 663.5 Q239 669 228 669 Q203 669 189 651 Q175 633 171 597 L122 597 Q125 652 152.5 684.5 Q180 717 224 717 Q246 717 265.5 708.5 Q285 700 317 675 Z " />
<glyph glyph-name="wacute" unicode="&#x1e83;" horiz-adv-x="838" d="M824 510 L634 0 L559 0 L415 414 L276 0 L206 0 L14 510 L89 510 L246 73 L391 510 L451 510 L600 73 L759 510 L824 510 Z M432 588 L368 588 L474 723 L554 723 L432 588 Z " />
<glyph glyph-name="wcircumflex" unicode="&#x175;" horiz-adv-x="838" d="M824 510 L634 0 L559 0 L415 414 L276 0 L206 0 L14 510 L89 510 L246 73 L391 510 L451 510 L600 73 L759 510 L824 510 Z M570 588 L509 588 L417 687 L324 588 L267 588 L377 723 L460 723 L570 588 Z " />
<glyph glyph-name="wdieresis" unicode="&#x1e85;" horiz-adv-x="838" d="M824 510 L634 0 L559 0 L415 414 L276 0 L206 0 L14 510 L89 510 L246 73 L391 510 L451 510 L600 73 L759 510 L824 510 Z M534 597 L472 597 L472 726 L534 726 L534 597 Z M365 597 L303 597 L303 726 L365 726 L365 597 Z " />
<glyph glyph-name="wgrave" unicode="&#x1e81;" horiz-adv-x="838" d="M824 510 L634 0 L559 0 L415 414 L276 0 L206 0 L14 510 L89 510 L246 73 L391 510 L451 510 L600 73 L759 510 L824 510 Z M294 723 L373 723 L479 588 L415 588 L294 723 Z " />
<glyph glyph-name="yacute" unicode="&#xfd;" horiz-adv-x="544" d="M78 -216 Q67 -216 55.5 -214.5 Q44 -213 35 -211 L35 -151 Q43 -153 52.5 -154 Q62 -155 73 -155 Q124 -155 166 -117 Q208 -79 242 -1 L15 510 L87 510 L274 76 L458 510 L529 510 L305 0 Q256 -114 201.5 -165 Q147 -216 78 -216 Z M286 588 L222 588 L328 723 L408 723 L286 588 Z " />
<glyph glyph-name="ydieresis" unicode="&#xff;" horiz-adv-x="544" d="M78 -216 Q67 -216 55.5 -214.5 Q44 -213 35 -211 L35 -151 Q43 -153 52.5 -154 Q62 -155 73 -155 Q124 -155 166 -117 Q208 -79 242 -1 L15 510 L87 510 L274 76 L458 510 L529 510 L305 0 Q256 -114 201.5 -165 Q147 -216 78 -216 Z M387 597 L325 597 L325 726 L387 726 L387 597 Z M218 597 L156 597 L156 726 L218 726 L218 597 Z " />
<glyph glyph-name="ycircumflex" unicode="&#x177;" horiz-adv-x="544" d="M78 -216 Q67 -216 55.5 -214.5 Q44 -213 35 -211 L35 -151 Q43 -153 52.5 -154 Q62 -155 73 -155 Q124 -155 166 -117 Q208 -79 242 -1 L15 510 L87 510 L274 76 L458 510 L529 510 L305 0 Q256 -114 201.5 -165 Q147 -216 78 -216 Z M423 588 L362 588 L270 687 L177 588 L120 588 L230 723 L313 723 L423 588 Z " />
<glyph glyph-name="ygrave" unicode="&#x1ef3;" horiz-adv-x="544" d="M78 -216 Q67 -216 55.5 -214.5 Q44 -213 35 -211 L35 -151 Q43 -153 52.5 -154 Q62 -155 73 -155 Q124 -155 166 -117 Q208 -79 242 -1 L15 510 L87 510 L274 76 L458 510 L529 510 L305 0 Q256 -114 201.5 -165 Q147 -216 78 -216 Z M151 723 L230 723 L336 588 L272 588 L151 723 Z " />
<glyph glyph-name="zcaron" unicode="&#x17e;" horiz-adv-x="484" d="M124 59 L449 59 L449 0 L35 0 L35 50 L355 451 L40 451 L40 510 L445 510 L445 460 L124 59 Z M286 588 L203 588 L93 723 L151 723 L243 624 L334 723 L396 723 L286 588 Z " />
<glyph glyph-name="zacute" unicode="&#x17a;" horiz-adv-x="484" d="M124 59 L449 59 L449 0 L35 0 L35 50 L355 451 L40 451 L40 510 L445 510 L445 460 L124 59 Z M242 588 L178 588 L284 723 L364 723 L242 588 Z " />
<glyph glyph-name="zdotaccent" unicode="&#x17c;" horiz-adv-x="484" d="M124 59 L449 59 L449 0 L35 0 L35 50 L355 451 L40 451 L40 510 L445 510 L445 460 L124 59 Z M207 726 L278 726 L278 597 L207 597 L207 726 Z " />
<glyph glyph-name="acute" unicode="&#xb4;" horiz-adv-x="500" d="M223 588 L159 588 L265 723 L345 723 L223 588 Z " />
<glyph glyph-name="grave" unicode="&#x60;" horiz-adv-x="500" d="M140 723 L219 723 L325 588 L261 588 L140 723 Z " />
<glyph glyph-name="circumflex" unicode="&#x2c6;" horiz-adv-x="500" d="M401 588 L340 588 L248 687 L155 588 L98 588 L208 723 L291 723 L401 588 Z " />
<glyph glyph-name="caron" unicode="&#x2c7;" horiz-adv-x="500" d="M291 588 L208 588 L98 723 L156 723 L248 624 L339 723 L401 723 L291 588 Z " />
<glyph glyph-name="tilde" unicode="&#x2dc;" horiz-adv-x="500" d="M267 675 Q291 655 304 649 Q317 643 329 643 Q352 643 365 661.5 Q378 680 380 713 L429 713 Q427 663 399 629.5 Q371 596 329 596 Q308 596 288 604.5 Q268 613 237 638 Q213 658 201 663.5 Q189 669 178 669 Q153 669 139 651 Q125 633 121 597 L72 597 Q75 652 102.5 684.5 Q130 717 174 717 Q196 717 215.5 708.5 Q235 700 267 675 Z " />
<glyph glyph-name="dieresis" unicode="&#xa8;" horiz-adv-x="500" d="M365 597 L303 597 L303 726 L365 726 L365 597 Z M196 597 L134 597 L134 726 L196 726 L196 597 Z " />
<glyph glyph-name="ring" unicode="&#x2da;" horiz-adv-x="500" d="M151 668 Q151 710 179 737.5 Q207 765 250 765 Q292 765 320 737 Q348 709 348 668 Q348 626 320 598 Q292 570 250 570 Q208 570 179.5 598 Q151 626 151 668 Z M194 669 Q194 643 209.5 627 Q225 611 250 611 Q275 611 290.5 627 Q306 643 306 669 Q306 694 290.5 709.5 Q275 725 250 725 Q225 725 209.5 709.5 Q194 694 194 669 Z " />
<glyph glyph-name="cedilla" unicode="&#xb8;" horiz-adv-x="500" d="M336 -125 Q336 -161 307.5 -182.5 Q279 -204 233 -204 Q205 -204 185.5 -199.5 Q166 -195 144 -184 L144 -144 Q168 -156 187 -161 Q206 -166 229 -166 Q256 -166 271 -156 Q286 -146 286 -127 Q286 -109 272 -99.5 Q258 -90 232 -90 L185 -90 L207 16 L239 5 L225 -57 L247 -57 Q289 -57 312.5 -75 Q336 -93 336 -125 Z " />
<glyph glyph-name="hungarumlaut" unicode="&#x2dd;" horiz-adv-x="500" d="M320 588 L257 588 L361 723 L440 723 L320 588 Z M154 588 L91 588 L195 723 L274 723 L154 588 Z " />
<glyph glyph-name="breve" unicode="&#x2d8;" horiz-adv-x="500" d="M245 637 Q287 637 312 657.5 Q337 678 347 721 L397 721 Q390 660 349.5 625 Q309 590 245 590 Q182 590 141.5 625.5 Q101 661 94 721 L143 721 Q153 678 178 657.5 Q203 637 245 637 Z " />
<glyph glyph-name="overscore" unicode="&#xaf;" horiz-adv-x="500" d="M398 628 L101 628 L101 684 L398 684 L398 628 Z " />
<glyph glyph-name="dotaccent" unicode="&#x2d9;" horiz-adv-x="500" d="M214 726 L285 726 L285 597 L214 597 L214 726 Z " />
<glyph glyph-name="middot" unicode="&#xb7;" horiz-adv-x="500" d="M157 238 L157 342 L240 342 L240 238 L157 238 Z " />
<glyph glyph-name="ogonek" unicode="&#x2db;" horiz-adv-x="500" d="M256 -110 Q256 -135 275 -149.5 Q294 -164 325 -164 Q344 -164 364 -157 Q384 -150 402 -138 L402 -181 Q378 -196 357.5 -202 Q337 -208 311 -208 Q264 -208 232.5 -184 Q201 -160 201 -122 Q201 -83 234.5 -50 Q268 -17 353 19 L395 19 Q310 -27 283 -54 Q256 -81 256 -110 Z " />
<glyph glyph-name="commaaccent" unicode="&#xf6c3;" horiz-adv-x="500" d="M210 -160 L210 -62 L288 -62 L288 -131 Q288 -166 271.5 -194.5 Q255 -223 225 -240 L206 -224 Q223 -211 232.5 -195 Q242 -179 244 -160 L210 -160 Z " />
<glyph glyph-name="caron.alt" unicode="&#xe189;" horiz-adv-x="500" d="M164 612 L164 710 L242 710 L242 641 Q242 600 226 568.5 Q210 537 179 515 L160 531 Q176 546 186.5 567 Q197 588 199 612 L164 612 Z " />
<glyph glyph-name="revcommaaccent" unicode="&#xe18a;" horiz-adv-x="500" d="M281 678 L281 587 L204 587 L204 649 Q204 687 220 716 Q236 745 267 765 L285 749 Q269 736 259 717 Q249 698 247 678 L281 678 Z " />
<glyph glyph-name="period" unicode="&#x2e;" horiz-adv-x="189" d="M53 0 L53 104 L136 104 L136 0 L53 0 Z " />
<glyph glyph-name="comma" unicode="&#x2c;" horiz-adv-x="189" d="M53 0 L53 104 L136 104 L136 28 Q136 -22 116.5 -60 Q97 -98 57 -126 L42 -103 Q64 -80 76 -53.5 Q88 -27 88 0 L53 0 Z " />
<glyph glyph-name="colon" unicode="&#x3a;" horiz-adv-x="215" d="M66 403 L66 508 L149 508 L149 403 L66 403 Z M66 0 L66 104 L149 104 L149 0 L66 0 Z " />
<glyph glyph-name="semicolon" unicode="&#x3b;" horiz-adv-x="215" d="M66 404 L66 508 L149 508 L149 404 L66 404 Z M66 0 L66 104 L149 104 L149 28 Q149 -22 129.5 -60 Q110 -98 70 -126 L55 -103 Q77 -80 89 -53.5 Q101 -27 101 0 L66 0 Z " />
<glyph glyph-name="ellipsis" unicode="&#x2026;" horiz-adv-x="578" d="M441 0 L441 104 L524 104 L524 0 L441 0 Z M247 0 L247 104 L330 104 L330 0 L247 0 Z M53 0 L53 104 L136 104 L136 0 L53 0 Z " />
<glyph glyph-name="question" unicode="&#x3f;" horiz-adv-x="469" d="M221 198 L169 198 L160 375 L218 392 Q290 413 320.5 444 Q351 475 351 525 Q351 573 315.5 603.5 Q280 634 223 634 Q183 634 143.5 618 Q104 602 66 570 L33 624 Q84 665 130 682.5 Q176 700 229 700 Q314 700 368 653 Q422 606 422 532 Q422 464 383 418 Q344 372 269 349 L230 337 L221 198 Z M152 0 L152 104 L235 104 L235 0 L152 0 Z " />
<glyph glyph-name="exclam" unicode="&#x21;" horiz-adv-x="282" d="M116 196 L98 400 L98 690 L182 690 L182 400 L164 196 L116 196 Z M97 0 L97 104 L180 104 L180 0 L97 0 Z " />
<glyph glyph-name="questiondown" unicode="&#xbf;" horiz-adv-x="469" d="M316 510 L316 405 L233 405 L233 510 L316 510 Z M247 312 L299 312 L308 134 L250 117 Q179 98 147.5 66.5 Q116 35 116 -14 Q116 -62 152 -93 Q188 -124 244 -124 Q284 -124 324 -108 Q364 -92 402 -60 L435 -114 Q385 -154 338.5 -171.5 Q292 -189 239 -189 Q154 -189 99.5 -142.5 Q45 -96 45 -22 Q45 45 84.5 91 Q124 137 199 160 L238 172 L247 312 Z " />
<glyph glyph-name="exclamdown" unicode="&#xa1;" horiz-adv-x="282" d="M180 510 L180 405 L97 405 L97 510 L180 510 Z M182 -179 L98 -179 L98 110 L116 313 L164 313 L182 110 L182 -179 Z " />
<glyph glyph-name="parenleft" unicode="&#x28;" horiz-adv-x="358" d="M63 297 Q63 423 120.5 541 Q178 659 279 738 L313 709 Q227 623 182 516.5 Q137 410 137 297 Q137 184 182 77.5 Q227 -29 313 -115 L279 -143 Q178 -64 120.5 54 Q63 172 63 297 Z " />
<glyph glyph-name="parenright" unicode="&#x29;" horiz-adv-x="358" d="M44 709 L78 738 Q179 659 237 540.5 Q295 422 295 297 Q295 172 237.5 54 Q180 -64 79 -143 L44 -115 Q130 -29 175 77.5 Q220 184 220 297 Q220 410 175 516.5 Q130 623 44 709 Z " />
<glyph glyph-name="braceleft" unicode="&#x7b;" horiz-adv-x="378" d="M104 573 Q104 652 162.5 696 Q221 740 330 740 L330 687 Q252 687 212 658 Q172 629 172 574 Q172 556 176 538.5 Q180 521 193 489 Q207 456 211 438 Q215 420 215 401 Q215 371 200 345 Q185 319 163 307 Q185 295 200 269 Q215 243 215 213 Q215 194 211 176 Q207 158 193 125 Q180 93 176 75.5 Q172 58 172 40 Q172 -14 212.5 -43 Q253 -72 330 -72 L330 -125 Q221 -125 162.5 -81 Q104 -37 104 42 Q104 63 109 83.5 Q114 104 131 139 Q145 168 149 183 Q153 198 153 212 Q153 243 137 261.5 Q121 280 95 280 L59 280 L59 334 L95 334 Q121 334 137 352.5 Q153 371 153 402 Q153 416 149 431.5 Q145 447 131 476 Q114 511 109 531.5 Q104 552 104 573 Z " />
<glyph glyph-name="braceright" unicode="&#x7d;" horiz-adv-x="378" d="M205 574 Q205 629 165 658 Q125 687 48 687 L48 740 Q156 740 214.5 696 Q273 652 273 573 Q273 552 268 531.5 Q263 511 246 476 Q232 447 228 431.5 Q224 416 224 402 Q224 371 240 352.5 Q256 334 282 334 L318 334 L318 280 L282 280 Q256 280 240 261.5 Q224 243 224 212 Q224 198 228 183 Q232 168 246 139 Q263 104 268 83.5 Q273 63 273 42 Q273 -37 214.5 -81 Q156 -125 48 -125 L48 -72 Q125 -72 165 -43 Q205 -14 205 40 Q205 58 201 75.5 Q197 93 184 125 Q170 158 166 176 Q162 194 162 213 Q162 243 177 269.5 Q192 296 214 308 Q192 319 177 345 Q162 371 162 401 Q162 420 166 438 Q170 456 184 489 Q197 521 201 538.5 Q205 556 205 574 Z " />
<glyph glyph-name="bracketleft" unicode="&#x5b;" horiz-adv-x="355" d="M311 -123 L82 -123 L82 740 L311 740 L311 684 L147 684 L147 -67 L311 -67 L311 -123 Z " />
<glyph glyph-name="bracketright" unicode="&#x5d;" horiz-adv-x="355" d="M43 740 L272 740 L272 -123 L43 -123 L43 -67 L207 -67 L207 684 L43 684 L43 740 Z " />
<glyph glyph-name="slash" unicode="&#x2f;" horiz-adv-x="387" d="M90 0 L23 0 L298 693 L364 693 L90 0 Z " />
<glyph glyph-name="backslash" unicode="&#x5c;" horiz-adv-x="387" d="M23 693 L89 693 L364 0 L297 0 L23 693 Z " />
<glyph glyph-name="underscore" unicode="&#x5f;" horiz-adv-x="493" d="M471 -107 L21 -107 L21 -51 L471 -51 L471 -107 Z " />
<glyph glyph-name="hyphen" unicode="&#x2d;" horiz-adv-x="404" d="M349 252 L55 252 L55 307 L349 307 L349 252 Z " />
<glyph glyph-name="uni00AD" unicode="&#xad;" horiz-adv-x="404" d="" />
<glyph glyph-name="endash" unicode="&#x2013;" horiz-adv-x="500" d="M455 242 L45 242 L45 297 L455 297 L455 242 Z " />
<glyph glyph-name="emdash" unicode="&#x2014;" horiz-adv-x="1000" d="M955 242 L45 242 L45 297 L955 297 L955 242 Z " />
<glyph glyph-name="brokenbar" unicode="&#xa6;" horiz-adv-x="238" d="M89 770 L149 770 L149 394 L89 394 L89 770 Z M89 296 L149 296 L149 -80 L89 -80 L89 296 Z " />
<glyph glyph-name="bar" unicode="&#x7c;" horiz-adv-x="238" d="M89 770 L149 770 L149 -80 L89 -80 L89 770 Z " />
<glyph glyph-name="guillemotleft" unicode="&#xab;" horiz-adv-x="590" d="M496 39 L282 232 L282 268 L496 461 L525 432 L349 250 L525 68 L496 39 Z M265 39 L51 232 L51 268 L265 461 L294 432 L118 250 L294 68 L265 39 Z " />
<glyph glyph-name="guillemotright" unicode="&#xbb;" horiz-adv-x="590" d="M324 461 L538 268 L538 232 L324 39 L295 68 L471 250 L295 432 L324 461 Z M93 461 L307 268 L307 232 L93 39 L64 68 L240 250 L64 432 L93 461 Z " />
<glyph glyph-name="guilsinglleft" unicode="&#x2039;" horiz-adv-x="359" d="M265 39 L51 232 L51 268 L265 461 L294 432 L118 250 L294 68 L265 39 Z " />
<glyph glyph-name="guilsinglright" unicode="&#x203a;" horiz-adv-x="359" d="M93 461 L307 268 L307 232 L93 39 L64 68 L240 250 L64 432 L93 461 Z " />
<glyph glyph-name="quotesinglbase" unicode="&#x201a;" horiz-adv-x="189" d="M53 0 L53 104 L136 104 L136 26 Q136 -17 109.5 -53 Q83 -89 40 -106 L40 -71 Q62 -57 74.5 -40 Q87 -23 90 0 L53 0 Z " />
<glyph glyph-name="quotedblbase" unicode="&#x201e;" horiz-adv-x="345" d="M209 0 L209 104 L291 104 L291 26 Q291 -17 265 -53 Q239 -89 196 -106 L196 -71 Q218 -57 230.5 -40 Q243 -23 246 0 L209 0 Z M53 0 L53 104 L136 104 L136 26 Q136 -17 109.5 -53 Q83 -89 40 -106 L40 -71 Q62 -57 74.5 -40 Q87 -23 90 0 L53 0 Z " />
<glyph glyph-name="quoteleft" unicode="&#x2018;" horiz-adv-x="189" d="M136 598 L136 493 L53 493 L53 571 Q53 615 79.5 651.5 Q106 688 149 704 L149 670 Q125 655 113 638 Q101 621 99 598 L136 598 Z " />
<glyph glyph-name="quotedblleft" unicode="&#x201c;" horiz-adv-x="343" d="M290 598 L290 493 L207 493 L207 571 Q207 615 233.5 651.5 Q260 688 303 704 L303 670 Q279 655 267 638 Q255 621 253 598 L290 598 Z M136 598 L136 493 L53 493 L53 571 Q53 615 79.5 651.5 Q106 688 149 704 L149 670 Q125 655 113 638 Q101 621 99 598 L136 598 Z " />
<glyph glyph-name="quoteright" unicode="&#x2019;" horiz-adv-x="189" d="M53 585 L53 690 L136 690 L136 612 Q136 568 109.5 531.5 Q83 495 40 479 L40 513 Q63 527 75 544.5 Q87 562 90 585 L53 585 Z " />
<glyph glyph-name="quotedblright" unicode="&#x201d;" horiz-adv-x="343" d="M207 585 L207 690 L290 690 L290 612 Q290 568 263.5 531.5 Q237 495 194 479 L194 513 Q217 527 229 544.5 Q241 562 244 585 L207 585 Z M53 585 L53 690 L136 690 L136 612 Q136 568 109.5 531.5 Q83 495 40 479 L40 513 Q63 527 75 544.5 Q87 562 90 585 L53 585 Z " />
<glyph glyph-name="quotesingle" unicode="&#x27;" horiz-adv-x="154" d="M100 512 L53 512 L45 690 L108 690 L100 512 Z " />
<glyph glyph-name="quotedbl" unicode="&#x22;" horiz-adv-x="297" d="M244 512 L197 512 L189 690 L252 690 L244 512 Z M100 512 L53 512 L45 690 L108 690 L100 512 Z " />
<glyph glyph-name="bullet" unicode="&#x2022;" horiz-adv-x="275" d="M137 400 Q176 400 200.5 375.5 Q225 351 225 313 Q225 274 200.5 249.5 Q176 225 137 225 Q99 225 74.5 249.5 Q50 274 50 313 Q50 351 74.5 375.5 Q99 400 137 400 Z " />
<glyph glyph-name="ampersand" unicode="&#x26;" horiz-adv-x="705" d="M662 34 L616 -10 L524 74 Q476 32 418.5 11 Q361 -10 294 -10 Q188 -10 120.5 41.5 Q53 93 53 179 Q53 243 92 289 Q131 335 210 363 Q155 413 135 450 Q115 487 115 529 Q115 604 167.5 652 Q220 700 308 700 Q391 700 443 656 Q495 612 495 544 Q495 481 453.5 435.5 Q412 390 318 353 L524 162 Q546 188 563.5 219 Q581 250 593 285 L653 266 Q635 221 614 185 Q593 149 569 120 L662 34 Z M309 640 Q254 640 221 609.5 Q188 579 188 529 Q188 499 207 468 Q226 437 283 386 Q364 425 393.5 458 Q423 491 423 537 Q423 582 390.5 611 Q358 640 309 640 Z M126 188 Q126 128 175.5 90.5 Q225 53 301 53 Q349 53 394 69 Q439 85 479 117 L250 327 Q184 301 155 268.5 Q126 236 126 188 Z " />
<glyph glyph-name="paragraph" unicode="&#xb6;" horiz-adv-x="493" d="M299 643 L299 0 L255 0 L255 322 L233 322 Q153 322 103 373.5 Q53 425 53 507 Q53 588 103 639 Q153 690 233 690 L408 690 L408 0 L364 0 L364 643 L299 643 Z " />
<glyph glyph-name="dagger" unicode="&#x2020;" horiz-adv-x="539" d="M482 460 L482 392 L301 400 L301 -125 L237 -125 L237 400 L56 392 L56 460 L237 453 L237 690 L301 690 L301 453 L482 460 Z " />
<glyph glyph-name="daggerdbl" unicode="&#x2021;" horiz-adv-x="539" d="M482 165 L482 97 L301 105 L301 -125 L237 -125 L237 105 L56 97 L56 165 L237 157 L237 407 L56 399 L56 467 L237 460 L237 690 L301 690 L301 460 L482 467 L482 399 L301 407 L301 157 L482 165 Z " />
<glyph glyph-name="section" unicode="&#xa7;" horiz-adv-x="493" d="M112 376 Q112 341 139.5 319 Q167 297 267 267 Q284 262 297.5 257.5 Q311 253 323 248 Q350 261 365 282 Q380 303 380 328 Q380 364 352 385.5 Q324 407 225 436 Q205 442 192 446.5 Q179 451 169 455 Q142 442 127 421 Q112 400 112 376 Z M431 133 Q431 67 376.5 28.5 Q322 -10 234 -10 Q189 -10 149.5 -1 Q110 8 78 26 L78 90 Q111 70 151 59 Q191 48 233 48 Q294 48 327 69.5 Q360 91 360 131 Q360 159 337.5 175 Q315 191 223 219 Q119 249 83.5 280.5 Q48 312 48 364 Q48 398 67.5 427.5 Q87 457 122 477 Q90 495 75.5 517.5 Q61 540 61 571 Q61 637 116 676 Q171 715 259 715 Q301 715 340 706 Q379 697 415 678 L415 613 Q382 633 341.5 644.5 Q301 656 260 656 Q199 656 165.5 634.5 Q132 613 132 573 Q132 546 154.5 529.5 Q177 513 270 485 Q373 455 409 423.5 Q445 392 445 340 Q445 305 426 276.5 Q407 248 370 227 Q401 209 416 186 Q431 163 431 133 Z " />
<glyph glyph-name="asterisk" unicode="&#x2a;" horiz-adv-x="404" d="M185 573 L177 718 L227 718 L220 573 L342 630 L364 583 L231 538 L328 429 L290 398 L202 514 L116 399 L78 430 L173 538 L39 583 L62 630 L185 573 Z " />
<glyph glyph-name="trademark" unicode="&#x2122;" horiz-adv-x="625" d="M240 690 L240 653 L155 653 L155 418 L115 418 L115 653 L28 653 L28 690 L240 690 Z M429 548 L526 690 L565 690 L565 418 L525 418 L525 625 L443 507 L415 507 L332 626 L332 418 L292 418 L292 690 L332 690 L429 548 Z " />
<glyph glyph-name="registered" unicode="&#xae;" horiz-adv-x="520" d="M260 700 Q353 700 417 636.5 Q481 573 481 481 Q481 389 417 325 Q353 261 260 261 Q166 261 102.5 324.5 Q39 388 39 481 Q39 573 103 636.5 Q167 700 260 700 Z M260 662 Q181 662 130 611 Q79 560 79 481 Q79 402 130.5 350 Q182 298 260 298 Q336 298 388 350.5 Q440 403 440 481 Q440 559 389 610.5 Q338 662 260 662 Z M270 560 L216 560 L216 489 L270 489 Q290 489 301.5 498.5 Q313 508 313 525 Q313 541 301 550.5 Q289 560 270 560 Z M353 377 L316 377 L264 461 L216 461 L216 377 L183 377 L183 590 L270 590 Q306 590 326.5 573 Q347 556 347 526 Q347 503 333.5 487.5 Q320 472 296 466 L353 377 Z " />
<glyph glyph-name="copyright" unicode="&#xa9;" horiz-adv-x="796" d="M398 700 Q545 700 649.5 596 Q754 492 754 345 Q754 198 649.5 94 Q545 -10 398 -10 Q247 -10 144.5 92.5 Q42 195 42 345 Q42 492 146 596 Q250 700 398 700 Z M398 651 Q267 651 180 563 Q93 475 93 345 Q93 213 180 125.5 Q267 38 398 38 Q528 38 615 126 Q702 214 702 345 Q702 475 614.5 563 Q527 651 398 651 Z M414 529 Q441 529 462.5 524 Q484 519 503 507 L503 458 Q481 470 461.5 475 Q442 480 417 480 Q355 480 318 443.5 Q281 407 281 347 Q281 284 318.5 248.5 Q356 213 422 213 Q448 213 466.5 217 Q485 221 503 230 L503 183 Q483 173 463.5 169 Q444 165 418 165 Q334 165 282 215.5 Q230 266 230 347 Q230 425 283 477 Q336 529 414 529 Z " />
<glyph glyph-name="at" unicode="&#x40;" horiz-adv-x="980" d="M517 -150 Q575 -150 631.5 -139 Q688 -128 749 -105 L768 -153 Q719 -176 651.5 -190 Q584 -204 516 -204 Q304 -204 176 -87.5 Q48 29 48 222 Q48 413 171 533.5 Q294 654 491 654 Q683 654 807.5 543.5 Q932 433 932 264 Q932 141 880 65.5 Q828 -10 747 -10 Q702 -10 672 11 Q642 32 627 75 Q595 34 552 12 Q509 -10 459 -10 Q368 -10 312 54 Q256 118 256 218 Q256 316 315.5 381.5 Q375 447 465 447 Q511 447 549.5 428 Q588 409 619 371 L619 442 L683 442 L683 132 Q683 91 703.5 65.5 Q724 40 758 40 Q810 40 841 100.5 Q872 161 872 259 Q872 408 764 504 Q656 600 493 600 Q319 600 213.5 495.5 Q108 391 108 220 Q108 49 219.5 -50.5 Q331 -150 517 -150 Z M474 46 Q518 46 558.5 71 Q599 96 619 136 L619 306 Q598 344 559 367 Q520 390 477 390 Q410 390 366.5 341.5 Q323 293 323 219 Q323 144 366 95 Q409 46 474 46 Z " />
<glyph glyph-name="ordfeminine" unicode="&#xaa;" horiz-adv-x="397" d="M282 481 L282 528 Q262 543 237.5 551 Q213 559 185 559 Q148 559 126.5 541 Q105 523 105 493 Q105 463 127.5 444.5 Q150 426 185 426 Q216 426 241 440 Q266 454 282 481 Z M90 629 L90 671 Q113 685 140 692.5 Q167 700 197 700 Q263 700 297 668.5 Q331 637 331 577 L331 392 L283 392 L283 447 Q263 418 233 402.5 Q203 387 168 387 Q119 387 86.5 416 Q54 445 54 490 Q54 535 86.5 563.5 Q119 592 172 592 Q202 592 228 584 Q254 576 282 559 L282 575 Q282 618 259.5 639 Q237 660 190 660 Q164 660 139.5 652.5 Q115 645 90 629 Z M357 273 L39 273 L39 317 L357 317 L357 273 Z " />
<glyph glyph-name="ordmasculine" unicode="&#xba;" horiz-adv-x="397" d="M198 387 Q130 387 87 430 Q44 473 44 542 Q44 612 87 656 Q130 700 198 700 Q266 700 309 656 Q352 612 352 542 Q352 473 309 430 Q266 387 198 387 Z M198 654 Q151 654 123 624 Q95 594 95 543 Q95 492 123 462 Q151 432 198 432 Q245 432 273 462 Q301 492 301 543 Q301 594 273.5 624 Q246 654 198 654 Z M357 273 L39 273 L39 317 L357 317 L357 273 Z " />
<glyph glyph-name="questiondown.case" unicode="&#xe1f6;" horiz-adv-x="469" d="M316 690 L316 585 L233 585 L233 690 L316 690 Z M247 491 L299 491 L308 314 L250 297 Q178 277 147 245.5 Q116 214 116 164 Q116 116 151.5 85.5 Q187 55 244 55 Q284 55 324 71 Q364 87 402 119 L435 65 Q385 25 338.5 7.5 Q292 -10 239 -10 Q154 -10 99.5 36.5 Q45 83 45 157 Q45 224 84.5 270.5 Q124 317 199 340 L238 352 L247 491 Z " />
<glyph glyph-name="exclamdown.case" unicode="&#xe1f7;" horiz-adv-x="282" d="M180 690 L180 585 L97 585 L97 690 L180 690 Z M182 0 L98 0 L98 289 L116 493 L164 493 L182 289 L182 0 Z " />
<glyph glyph-name="parenleft.case" unicode="&#xe1e8;" horiz-adv-x="358" d="M63 335 Q63 461 120.5 579 Q178 697 279 776 L313 748 Q227 661 182 554.5 Q137 448 137 335 Q137 222 182 116 Q227 10 313 -76 L279 -105 Q178 -26 120.5 92 Q63 210 63 335 Z " />
<glyph glyph-name="parenright.case" unicode="&#xe1e9;" horiz-adv-x="358" d="M44 748 L78 776 Q180 697 237.5 578.5 Q295 460 295 335 Q295 210 237.5 92 Q180 -26 79 -105 L44 -76 Q130 10 175 116 Q220 222 220 335 Q220 448 175 554.5 Q130 661 44 748 Z " />
<glyph glyph-name="braceleft.case" unicode="&#xe1ea;" horiz-adv-x="378" d="M104 611 Q104 690 162.5 734 Q221 778 330 778 L330 725 Q252 725 212 696 Q172 667 172 612 Q172 594 176 576.5 Q180 559 193 527 Q207 494 211 476 Q215 458 215 439 Q215 409 200 383 Q185 357 163 346 Q185 334 200 307.5 Q215 281 215 251 Q215 233 211 214.5 Q207 196 193 164 Q180 132 176 114.5 Q172 97 172 79 Q172 24 212 -5 Q252 -34 330 -34 L330 -86 Q222 -86 163 -42.5 Q104 1 104 80 Q104 101 109.5 122 Q115 143 131 178 Q145 206 149 221 Q153 236 153 250 Q153 281 137 299.5 Q121 318 95 318 L59 318 L59 372 L95 372 Q120 372 136.5 390.5 Q153 409 153 440 Q153 454 149 469.5 Q145 485 131 514 Q114 549 109 569.5 Q104 590 104 611 Z " />
<glyph glyph-name="braceright.case" unicode="&#xe1eb;" horiz-adv-x="378" d="M205 612 Q205 667 165 696 Q125 725 48 725 L48 778 Q156 778 214.5 734 Q273 690 273 611 Q273 590 268 569.5 Q263 549 246 514 Q232 485 228 469.5 Q224 454 224 440 Q224 409 240.5 390.5 Q257 372 282 372 L318 372 L318 318 L282 318 Q256 318 240 299.5 Q224 281 224 250 Q224 236 228 221 Q232 206 246 178 Q262 143 267.5 122 Q273 101 273 80 Q273 1 214.5 -42.5 Q156 -86 48 -86 L48 -34 Q125 -34 165 -5 Q205 24 205 79 Q205 97 201 114.5 Q197 132 184 164 Q170 196 166 214.5 Q162 233 162 251 Q162 281 177 307.5 Q192 334 214 346 Q192 357 177 383 Q162 409 162 439 Q162 458 166 476 Q170 494 184 527 Q197 559 201 576.5 Q205 594 205 612 Z " />
<glyph glyph-name="bracketleft.case" unicode="&#xe1ec;" horiz-adv-x="355" d="M311 -85 L82 -85 L82 778 L311 778 L311 722 L147 722 L147 -29 L311 -29 L311 -85 Z " />
<glyph glyph-name="bracketright.case" unicode="&#xe1ed;" horiz-adv-x="355" d="M43 778 L272 778 L272 -85 L43 -85 L43 -29 L207 -29 L207 722 L43 722 L43 778 Z " />
<glyph glyph-name="hyphen.case" unicode="&#xe1f8;" horiz-adv-x="404" d="M349 305 L55 305 L55 361 L349 361 L349 305 Z " />
<glyph glyph-name="endash.case" unicode="&#xe1ee;" horiz-adv-x="500" d="M455 295 L45 295 L45 351 L455 351 L455 295 Z " />
<glyph glyph-name="emdash.case" unicode="&#xe1ef;" horiz-adv-x="1000" d="M955 295 L45 295 L45 351 L955 351 L955 295 Z " />
<glyph glyph-name="guilsinglleft.case" unicode="&#xe1f2;" horiz-adv-x="359" d="M265 113 L51 305 L51 342 L265 534 L294 505 L118 323 L294 141 L265 113 Z " />
<glyph glyph-name="guilsinglright.case" unicode="&#xe1f3;" horiz-adv-x="359" d="M93 534 L307 342 L307 305 L93 113 L64 141 L240 323 L64 505 L93 534 Z " />
<glyph glyph-name="guillemotleft.case" unicode="&#xe1f0;" horiz-adv-x="590" d="M496 113 L282 305 L282 342 L496 534 L525 505 L349 323 L525 141 L496 113 Z M265 113 L51 305 L51 342 L265 534 L294 505 L118 323 L294 141 L265 113 Z " />
<glyph glyph-name="guillemotright.case" unicode="&#xe1f1;" horiz-adv-x="590" d="M324 534 L538 342 L538 305 L324 113 L295 141 L471 323 L295 505 L324 534 Z M93 534 L307 342 L307 305 L93 113 L64 141 L240 323 L64 505 L93 534 Z " />
<glyph glyph-name="bullet.case" unicode="&#xe1f4;" horiz-adv-x="275" d="M137 447 Q176 447 200.5 422.5 Q225 398 225 359 Q225 320 200.5 295.5 Q176 271 137 271 Q99 271 74.5 296 Q50 321 50 359 Q50 397 74.5 422 Q99 447 137 447 Z " />
<glyph glyph-name="at.case" unicode="&#xe1fb;" horiz-adv-x="980" d="M517 -49 Q575 -49 631.5 -38 Q688 -27 749 -4 L768 -52 Q719 -75 651.5 -89 Q584 -103 516 -103 Q304 -103 176 13.5 Q48 130 48 323 Q48 514 171 634.5 Q294 755 491 755 Q683 755 807.5 644.5 Q932 534 932 365 Q932 242 880 166.5 Q828 91 747 91 Q702 91 672 112 Q642 133 627 176 Q595 135 552 113 Q509 91 459 91 Q368 91 312 155 Q256 219 256 319 Q256 417 315.5 482.5 Q375 548 465 548 Q511 548 549.5 529 Q588 510 619 472 L619 543 L683 543 L683 233 Q683 192 703.5 166.5 Q724 141 758 141 Q810 141 841 201.5 Q872 262 872 360 Q872 509 764 605 Q656 701 493 701 Q319 701 213.5 596.5 Q108 492 108 321 Q108 150 219.5 50.5 Q331 -49 517 -49 Z M474 147 Q518 147 558.5 172 Q599 197 619 237 L619 407 Q598 445 559 468 Q520 491 477 491 Q410 491 366.5 442.5 Q323 394 323 320 Q323 245 366 196 Q409 147 474 147 Z " />
<glyph glyph-name="numbersign" unicode="&#x23;" horiz-adv-x="718" d="M240 259 L414 259 L475 425 L301 425 L240 259 Z M382 0 L319 0 L393 203 L219 203 L145 0 L82 0 L156 203 L31 203 L31 259 L177 259 L238 425 L107 425 L107 481 L258 481 L335 690 L398 690 L321 481 L495 481 L572 690 L635 690 L558 481 L687 481 L687 425 L538 425 L477 259 L611 259 L611 203 L456 203 L382 0 Z " />
<glyph glyph-name="Euro" unicode="&#x20ac;" horiz-adv-x="669" d="M622 96 L622 28 Q578 8 535 -1 Q492 -10 441 -10 Q316 -10 231 61.5 Q146 133 121 257 L23 257 L29 305 L115 305 Q114 320 113.5 329 Q113 338 113 346 Q113 353 113.5 361.5 Q114 370 115 386 L40 386 L47 433 L121 433 Q146 556 233 628 Q320 700 445 700 Q496 700 536 691 Q576 682 615 660 L615 593 Q568 615 530.5 623.5 Q493 632 452 632 Q352 632 286 580 Q220 528 199 433 L533 433 L526 386 L192 386 Q191 370 190.5 361.5 Q190 353 190 346 Q190 338 190.5 329 Q191 320 192 305 L515 305 L508 257 L199 257 Q221 161 287.5 109 Q354 57 456 57 Q499 57 539.5 66.5 Q580 76 622 96 Z " />
<glyph glyph-name="dollar" unicode="&#x24;" horiz-adv-x="540" d="M138 532 Q138 495 159 468 Q180 441 233 414 L233 629 Q189 620 163.5 594.5 Q138 569 138 532 Z M408 173 Q408 216 381 247 Q354 278 285 311 L285 58 Q343 65 375.5 95 Q408 125 408 173 Z M285 -9 L285 -82 L233 -82 L233 -9 Q184 -6 136.5 9.5 Q89 25 58 49 L58 122 Q96 93 142 76 Q188 59 233 57 L233 335 Q137 377 99.5 420.5 Q62 464 62 527 Q62 595 108 641 Q154 687 233 697 L233 781 L285 781 L285 700 Q329 698 367 687.5 Q405 677 440 657 L440 588 Q404 610 365 621 Q326 632 285 633 L285 390 Q397 344 440.5 296 Q484 248 484 177 Q484 99 429.5 49 Q375 -1 285 -9 Z " />
<glyph glyph-name="yen" unicode="&#xa5;" horiz-adv-x="671" d="M571 225 L571 177 L372 177 L372 0 L298 0 L298 177 L95 177 L95 225 L298 225 L298 287 L288 301 L95 301 L95 348 L256 348 L21 690 L103 690 L335 348 L568 690 L649 690 L414 348 L571 348 L571 301 L382 301 L372 287 L372 225 L571 225 Z " />
<glyph glyph-name="sterling" unicode="&#xa3;" horiz-adv-x="546" d="M193 66 L503 66 L503 0 L55 0 L55 66 L73 66 Q139 66 175.5 101.5 Q212 137 212 198 Q212 225 204 252 Q196 279 178 311 L59 311 L59 359 L149 359 Q120 407 109.5 439.5 Q99 472 99 505 Q99 592 161.5 646 Q224 700 321 700 Q362 700 393 693 Q424 686 450 671 L450 602 Q425 617 395 624.5 Q365 632 330 632 Q261 632 218 595.5 Q175 559 175 500 Q175 472 184.5 444 Q194 416 229 359 L411 359 L411 311 L257 311 Q271 285 277.5 260 Q284 235 284 209 Q284 161 260.5 124 Q237 87 193 66 Z " />
<glyph glyph-name="cent" unicode="&#xa2;" horiz-adv-x="523" d="M475 104 L475 41 Q445 18 404 4.5 Q363 -9 316 -10 L316 -82 L265 -82 L265 -7 Q165 6 106.5 76.5 Q48 147 48 254 Q48 361 106.5 431.5 Q165 502 265 517 L265 602 L316 602 L316 520 Q364 519 403 507 Q442 495 468 472 L468 408 Q441 432 401.5 445.5 Q362 459 316 459 L316 50 Q363 50 399.5 62.5 Q436 75 475 104 Z M119 254 Q119 175 157 123 Q195 71 265 56 L265 453 Q195 437 157 384.5 Q119 332 119 254 Z " />
<glyph glyph-name="florin" unicode="&#x192;" horiz-adv-x="533" d="M436 700 Q453 700 468 697.5 Q483 695 502 688 L502 622 Q488 627 471.5 630 Q455 633 441 633 Q388 633 359.5 599 Q331 565 318 487 L299 374 L425 374 L417 328 L291 328 L249 72 Q236 -9 196.5 -52 Q157 -95 95 -95 Q74 -95 57 -92 Q40 -89 24 -83 L24 -18 Q40 -23 55 -25.5 Q70 -28 87 -28 Q126 -28 148 -3 Q170 22 178 75 L220 328 L122 328 L130 374 L227 374 L248 498 Q266 600 312.5 650 Q359 700 436 700 Z " />
<glyph glyph-name="currency" unicode="&#xa4;" horiz-adv-x="600" d="M544 153 L511 120 L428 203 Q401 183 368.5 173 Q336 163 300 163 Q265 163 233 173 Q201 183 174 203 L90 120 L58 152 L141 235 Q120 261 109.5 294 Q99 327 99 364 Q99 400 109 432 Q119 464 139 489 L56 572 L89 605 L171 523 Q198 544 231 555 Q264 566 301 566 Q337 566 369.5 555.5 Q402 545 429 524 L510 605 L543 573 L462 491 Q483 464 493.5 432 Q504 400 504 364 Q504 327 493 294.5 Q482 262 461 235 L544 153 Z M449 364 Q449 429 408 469.5 Q367 510 301 511 Q236 511 195 470 Q154 429 154 364 Q154 299 194.5 258.5 Q235 218 300 218 Q366 218 407.5 258.5 Q449 299 449 364 Z " />
<glyph glyph-name="zero" unicode="0" horiz-adv-x="685" d="M343 -10 Q209 -10 130 86 Q51 182 51 345 Q51 508 130 604 Q209 700 343 700 Q477 700 555.5 604 Q634 508 634 345 Q634 182 555.5 86 Q477 -10 343 -10 Z M343 57 Q445 57 501 133 Q557 209 557 345 Q557 481 501 556.5 Q445 632 343 632 Q241 632 184.5 556.5 Q128 481 128 345 Q128 208 184.5 132.5 Q241 57 343 57 Z " />
<glyph glyph-name="one" unicode="1" horiz-adv-x="343" d="M42 606 L184 680 L252 680 L252 0 L179 0 L179 606 L42 538 L42 606 Z " />
<glyph glyph-name="two" unicode="2" horiz-adv-x="546" d="M257 632 Q206 632 159.5 618 Q113 604 71 576 L71 650 Q115 674 165.5 687 Q216 700 268 700 Q364 700 423 651.5 Q482 603 482 525 Q482 469 454 421.5 Q426 374 352 313 L224 208 Q172 166 148.5 133 Q125 100 122 66 L499 66 L499 0 L36 0 L36 25 Q36 84 68 139 Q100 194 165 247 L284 344 Q366 410 387 443 Q408 476 408 518 Q408 569 367 600.5 Q326 632 257 632 Z " />
<glyph glyph-name="three" unicode="3" horiz-adv-x="548" d="M243 -10 Q186 -10 135.5 2.5 Q85 15 43 40 L43 109 Q90 83 138.5 70 Q187 57 235 57 Q321 57 371.5 94.5 Q422 132 422 196 Q422 256 378 291 Q334 326 259 326 L158 326 L158 386 L260 386 Q328 386 370.5 420 Q413 454 413 510 Q413 565 366.5 598.5 Q320 632 245 632 Q195 632 145 617.5 Q95 603 53 576 L53 647 Q96 673 145 686.5 Q194 700 249 700 Q353 700 419.5 649.5 Q486 599 486 519 Q486 461 451 417.5 Q416 374 357 357 Q422 341 459.5 297.5 Q497 254 497 191 Q497 102 425.5 46 Q354 -10 243 -10 Z " />
<glyph glyph-name="four" unicode="4" horiz-adv-x="590" d="M332 690 L408 690 L123 211 L387 211 L387 359 L457 398 L457 211 L549 211 L549 145 L457 145 L457 0 L387 0 L387 145 L43 145 L43 209 L332 690 Z " />
<glyph glyph-name="five" unicode="5" horiz-adv-x="569" d="M273 -10 Q212 -10 156 2.5 Q100 15 58 37 L58 111 Q106 85 159.5 71.5 Q213 58 266 58 Q346 58 394.5 100 Q443 142 443 212 Q443 283 392.5 324 Q342 365 252 365 Q214 365 171.5 360 Q129 355 83 345 L98 690 L453 690 L453 623 L162 623 L154 415 Q180 421 213 424.5 Q246 428 271 428 Q387 428 453.5 369.5 Q520 311 520 212 Q520 112 452 51 Q384 -10 273 -10 Z " />
<glyph glyph-name="six" unicode="6" horiz-adv-x="606" d="M334 443 Q434 443 496.5 381.5 Q559 320 559 223 Q559 120 490 55 Q421 -10 312 -10 Q192 -10 121.5 77 Q51 164 51 308 Q51 479 136.5 589.5 Q222 700 364 700 Q391 700 414 697 Q437 694 459 688 L459 617 Q438 624 414 628 Q390 632 366 632 Q264 632 201 558 Q138 484 127 356 Q167 400 219 422 Q271 444 334 443 Z M125 295 Q128 183 177.5 120 Q227 57 312 57 Q389 57 436 103 Q483 149 483 224 Q483 296 437 339.5 Q391 383 312 383 Q256 383 210 361.5 Q164 340 125 295 Z " />
<glyph glyph-name="seven" unicode="7" horiz-adv-x="518" d="M84 0 L407 623 L39 623 L39 690 L487 690 L487 629 L165 0 L84 0 Z " />
<glyph glyph-name="eight" unicode="8" horiz-adv-x="601" d="M557 189 Q557 101 485.5 45.5 Q414 -10 303 -10 Q190 -10 117 42.5 Q44 95 44 176 Q44 239 90.5 289.5 Q137 340 213 365 Q147 393 114.5 431.5 Q82 470 82 522 Q82 597 146 648.5 Q210 700 305 700 Q399 700 459 652.5 Q519 605 519 534 Q519 480 480.5 438 Q442 396 373 372 L388 366 Q477 332 517 289.5 Q557 247 557 189 Z M157 520 Q157 485 182.5 459.5 Q208 434 270 410 L313 394 Q378 416 410.5 448.5 Q443 481 443 523 Q443 570 402.5 602.5 Q362 635 304 635 Q242 635 199.5 602 Q157 569 157 520 Z M121 189 Q121 130 172.5 92 Q224 54 302 54 Q380 54 430 91 Q480 128 480 187 Q480 228 448 258.5 Q416 289 347 314 L273 342 Q204 322 162.5 281 Q121 240 121 189 Z " />
<glyph glyph-name="nine" unicode="9" horiz-adv-x="610" d="M123 465 Q123 393 169 349 Q215 305 292 305 Q349 305 396.5 327.5 Q444 350 484 396 Q481 508 431.5 570 Q382 632 295 632 Q218 632 170.5 586 Q123 540 123 465 Z M558 383 Q558 212 469.5 101.5 Q381 -9 235 -9 Q206 -9 180.5 -5 Q155 -1 127 8 L127 78 Q151 68 178 63 Q205 58 233 58 Q337 58 402 130.5 Q467 203 481 329 Q440 287 387.5 265.5 Q335 244 276 244 Q174 244 110 306 Q46 368 46 465 Q46 568 116 634 Q186 700 295 700 Q416 700 487 613.5 Q558 527 558 383 Z " />
<glyph glyph-name="degree" unicode="&#xb0;" horiz-adv-x="344" d="M312 559 Q312 500 272 460.5 Q232 421 171 421 Q111 421 71 460 Q31 499 31 559 Q31 619 71 659.5 Q111 700 171 700 Q231 700 271.5 659.5 Q312 619 312 559 Z M265 559 Q265 600 238 627.5 Q211 655 171 655 Q131 655 104.5 627.5 Q78 600 78 559 Q78 520 105 492.5 Q132 465 171 465 Q211 465 238 492.5 Q265 520 265 559 Z " />
<glyph glyph-name="percent" unicode="&#x25;" horiz-adv-x="914" d="M203 303 Q127 303 82 356.5 Q37 410 37 501 Q37 591 82.5 645.5 Q128 700 203 700 Q278 700 323.5 645.5 Q369 591 369 501 Q369 411 323.5 357 Q278 303 203 303 Z M203 354 Q255 354 283 392.5 Q311 431 311 501 Q311 570 283 608 Q255 646 203 646 Q151 646 123 608 Q95 570 95 501 Q95 431 123 392.5 Q151 354 203 354 Z M292 0 L233 0 L625 690 L681 690 L292 0 Z M710 -2 Q634 -2 589 51.5 Q544 105 544 196 Q544 286 589.5 340.5 Q635 395 710 395 Q785 395 830.5 340.5 Q876 286 876 196 Q876 106 830.5 52 Q785 -2 710 -2 Z M710 49 Q762 49 790 87.5 Q818 126 818 196 Q818 265 790 303 Q762 341 710 341 Q658 341 630 303 Q602 265 602 196 Q602 126 630 87.5 Q658 49 710 49 Z " />
<glyph glyph-name="perthousand" unicode="&#x2030;" horiz-adv-x="1321" d="M203 303 Q127 303 82 356.5 Q37 410 37 501 Q37 591 82.5 645.5 Q128 700 203 700 Q278 700 323.5 645.5 Q369 591 369 501 Q369 411 323.5 357 Q278 303 203 303 Z M203 354 Q255 354 283 392.5 Q311 431 311 501 Q311 570 283 608 Q255 646 203 646 Q151 646 123 608 Q95 570 95 501 Q95 431 123 392.5 Q151 354 203 354 Z M292 0 L233 0 L625 690 L681 690 L292 0 Z M710 -2 Q634 -2 589 51.5 Q544 105 544 196 Q544 286 589.5 340.5 Q635 395 710 395 Q785 395 830.5 340.5 Q876 286 876 196 Q876 106 830.5 52 Q785 -2 710 -2 Z M710 49 Q762 49 790 87.5 Q818 126 818 196 Q818 265 790 303 Q762 341 710 341 Q658 341 630 303 Q602 265 602 196 Q602 126 630 87.5 Q658 49 710 49 Z M1117 -2 Q1041 -2 996 51.5 Q951 105 951 196 Q951 286 996.5 340.5 Q1042 395 1117 395 Q1192 395 1237.5 340.5 Q1283 286 1283 196 Q1283 106 1237.5 52 Q1192 -2 1117 -2 Z M1117 49 Q1169 49 1197 87.5 Q1225 126 1225 196 Q1225 265 1197 303 Q1169 341 1117 341 Q1065 341 1037 303 Q1009 265 1009 196 Q1009 126 1037 87.5 Q1065 49 1117 49 Z " />
<glyph glyph-name="fraction" unicode="&#x2044;" horiz-adv-x="100" d="M-115 0 L-174 0 L218 690 L274 690 L-115 0 Z " />
<glyph glyph-name="uni2215" unicode="&#x2215;" horiz-adv-x="100" d="M-115 0 L-174 0 L218 690 L274 690 L-115 0 Z " />
<glyph glyph-name="zerosuperior" unicode="&#x2070;" horiz-adv-x="407" d="M203 303 Q127 303 82 356.5 Q37 410 37 501 Q37 591 82.5 645.5 Q128 700 203 700 Q278 700 323.5 645.5 Q369 591 369 501 Q369 411 323.5 357 Q278 303 203 303 Z M203 354 Q255 354 283 392.5 Q311 431 311 501 Q311 570 283 608 Q255 646 203 646 Q151 646 123 608 Q95 570 95 501 Q95 431 123 392.5 Q151 354 203 354 Z " />
<glyph glyph-name="onesuperior" unicode="&#xb9;" horiz-adv-x="407" d="M124 653 L199 693 L252 693 L252 305 L196 305 L196 635 L124 599 L124 653 Z " />
<glyph glyph-name="twosuperior" unicode="&#xb2;" horiz-adv-x="407" d="M188 648 Q161 648 135.5 640 Q110 632 86 616 L86 672 Q112 686 140 693 Q168 700 197 700 Q252 700 286 671.5 Q320 643 320 599 Q320 567 304 540 Q288 513 247 481 L183 428 Q157 407 145 390 Q133 373 133 358 L328 358 L328 308 L68 308 L68 327 Q68 362 85 392.5 Q102 423 136 451 L202 504 Q242 535 253 552 Q264 569 264 591 Q264 616 243.5 632 Q223 648 188 648 Z " />
<glyph glyph-name="threesuperior" unicode="&#xb3;" horiz-adv-x="407" d="M188 303 Q155 303 127.5 309 Q100 315 77 328 L77 382 Q104 368 130.5 361 Q157 354 182 354 Q226 354 251 372 Q276 390 276 422 Q276 452 254 469 Q232 486 194 486 L137 486 L137 526 L194 526 Q230 526 251 542.5 Q272 559 272 588 Q272 614 249 630 Q226 646 189 646 Q161 646 133.5 638 Q106 630 82 616 L82 670 Q107 685 134.5 692.5 Q162 700 192 700 Q250 700 288.5 670.5 Q327 641 327 596 Q327 564 309 540.5 Q291 517 259 506 Q293 497 313 473 Q333 449 333 415 Q333 366 291.5 334.5 Q250 303 188 303 Z " />
<glyph glyph-name="foursuperior" unicode="&#x2074;" horiz-adv-x="407" d="M204 692 L261 692 L108 428 L246 428 L246 504 L300 533 L300 428 L358 428 L358 380 L300 380 L300 306 L247 306 L247 380 L51 380 L51 427 L204 692 Z " />
<glyph glyph-name="onehalf" unicode="&#xbd;" horiz-adv-x="914" d="M124 653 L199 693 L252 693 L252 305 L196 305 L196 635 L124 599 L124 653 Z M279 0 L220 0 L612 690 L668 690 L279 0 Z M695 343 Q668 343 642.5 335 Q617 327 593 311 L593 367 Q619 381 647 388 Q675 395 704 395 Q759 395 793 366.5 Q827 338 827 294 Q827 262 811 235 Q795 208 754 176 L690 123 Q664 102 652 85 Q640 68 640 53 L835 53 L835 3 L575 3 L575 22 Q575 57 592 87.5 Q609 118 643 146 L709 199 Q749 230 760 247 Q771 264 771 286 Q771 311 750.5 327 Q730 343 695 343 Z " />
<glyph glyph-name="onequarter" unicode="&#xbc;" horiz-adv-x="914" d="M124 653 L199 693 L252 693 L252 305 L196 305 L196 635 L124 599 L124 653 Z M294 0 L235 0 L627 690 L683 690 L294 0 Z M711 387 L768 387 L615 123 L753 123 L753 199 L807 228 L807 123 L865 123 L865 75 L807 75 L807 1 L754 1 L754 75 L558 75 L558 122 L711 387 Z " />
<glyph glyph-name="threequarters" unicode="&#xbe;" horiz-adv-x="914" d="M188 303 Q155 303 127.5 309 Q100 315 77 328 L77 382 Q104 368 130.5 361 Q157 354 182 354 Q226 354 251 372 Q276 390 276 422 Q276 452 254 469 Q232 486 194 486 L137 486 L137 526 L194 526 Q230 526 251 542.5 Q272 559 272 588 Q272 614 249 630 Q226 646 189 646 Q161 646 133.5 638 Q106 630 82 616 L82 670 Q107 685 134.5 692.5 Q162 700 192 700 Q250 700 288.5 670.5 Q327 641 327 596 Q327 564 309 540.5 Q291 517 259 506 Q293 497 313 473 Q333 449 333 415 Q333 366 291.5 334.5 Q250 303 188 303 Z M305 0 L246 0 L638 690 L694 690 L305 0 Z M711 387 L768 387 L615 123 L753 123 L753 199 L807 228 L807 123 L865 123 L865 75 L807 75 L807 1 L754 1 L754 75 L558 75 L558 122 L711 387 Z " />
<glyph glyph-name="plus" unicode="&#x2b;" horiz-adv-x="567" d="M313 587 L313 369 L520 369 L520 313 L313 313 L313 93 L253 93 L253 313 L46 313 L46 369 L253 369 L253 587 L313 587 Z " />
<glyph glyph-name="minus" unicode="&#x2212;" horiz-adv-x="567" d="M46 313 L46 369 L520 369 L520 313 L46 313 Z " />
<glyph glyph-name="multiply" unicode="&#xd7;" horiz-adv-x="567" d="M126 533 L280 379 L435 534 L474 496 L319 340 L475 184 L436 144 L279 300 L126 147 L87 187 L240 340 L86 493 L126 533 Z " />
<glyph glyph-name="divide" unicode="&#xf7;" horiz-adv-x="567" d="M242 476 L242 575 L319 575 L319 476 L242 476 Z M46 313 L46 369 L520 369 L520 313 L46 313 Z M242 107 L242 205 L319 205 L319 107 L242 107 Z " />
<glyph glyph-name="equal" unicode="&#x3d;" horiz-adv-x="567" d="M46 398 L46 454 L520 454 L520 398 L46 398 Z M46 232 L46 288 L520 288 L520 232 L46 232 Z " />
<glyph glyph-name="logicalnot" unicode="&#xac;" horiz-adv-x="567" d="M46 313 L46 369 L520 369 L520 91 L460 91 L460 313 L46 313 Z " />
<glyph glyph-name="asciitilde" unicode="&#x7e;" horiz-adv-x="567" d="M46 319 L46 376 Q86 393 109.5 397.5 Q133 402 158 402 Q179 402 204 398 Q229 394 279 380 Q330 366 356 361.5 Q382 357 405 357 Q433 357 462 365 Q491 373 520 389 L520 332 Q484 313 458 306.5 Q432 300 403 300 Q379 300 352.5 304.5 Q326 309 275 323 Q228 337 203.5 341 Q179 345 158 345 Q138 345 117.5 341 Q97 337 46 319 Z " />
<glyph glyph-name="less" unicode="&#x3c;" horiz-adv-x="567" d="M46 311 L46 372 L520 599 L520 531 L118 342 L520 151 L520 83 L46 311 Z " />
<glyph glyph-name="greater" unicode="&#x3e;" horiz-adv-x="567" d="M448 342 L46 531 L46 599 L520 372 L520 311 L46 83 L46 151 L448 342 Z " />
<glyph glyph-name="plusminus" unicode="&#xb1;" horiz-adv-x="567" d="M310 605 L310 397 L520 397 L520 341 L310 341 L310 130 L251 130 L251 341 L46 341 L46 397 L251 397 L251 605 L310 605 Z M46 0 L46 55 L520 55 L520 0 L46 0 Z " />
<glyph glyph-name="asciicircum" unicode="&#x5e;" horiz-adv-x="567" d="M124 250 L60 250 L260 690 L317 690 L518 250 L454 250 L289 619 L124 250 Z " />
<glyph glyph-name="notequal" unicode="&#x2260;" horiz-adv-x="567" d="M520 288 L520 232 L261 232 L192 81 L133 81 L202 232 L46 232 L46 288 L227 288 L278 398 L46 398 L46 454 L303 454 L374 609 L434 609 L363 454 L520 454 L520 398 L337 398 L287 288 L520 288 Z " />
<glyph glyph-name="approxequal" unicode="&#x2248;" horiz-adv-x="567" d="M46 401 L46 458 Q86 475 109.5 479.5 Q133 484 158 484 Q179 484 204 480 Q229 476 279 462 Q330 448 356 443.5 Q382 439 405 439 Q433 439 462 447 Q491 455 520 471 L520 414 Q484 395 458 388.5 Q432 382 403 382 Q379 382 352.5 386.5 Q326 391 275 405 Q228 419 203.5 423 Q179 427 158 427 Q138 427 117.5 423 Q97 419 46 401 Z M46 237 L46 294 Q83 309 107 314 Q131 319 158 319 Q179 319 204 315 Q229 311 279 297 Q330 283 356 278.5 Q382 274 405 274 Q433 274 462 282 Q491 290 520 306 L520 249 Q479 229 454.5 223 Q430 217 403 217 Q379 217 352.5 221.5 Q326 226 275 240 Q228 254 203.5 258 Q179 262 158 262 Q136 262 114 257.5 Q92 253 46 237 Z " />
<glyph glyph-name="lessequal" unicode="&#x2264;" horiz-adv-x="567" d="M46 340 L46 402 L520 608 L520 545 L120 371 L520 195 L520 133 L46 340 Z M46 0 L46 55 L520 55 L520 0 L46 0 Z " />
<glyph glyph-name="greaterequal" unicode="&#x2265;" horiz-adv-x="567" d="M46 545 L46 608 L520 402 L520 340 L46 133 L46 195 L446 371 L46 545 Z M46 0 L46 55 L520 55 L520 0 L46 0 Z " />
<glyph glyph-name="infinity" unicode="&#x221e;" horiz-adv-x="797" d="M52 317 Q52 382 96.5 426.5 Q141 471 206 471 Q258 471 301.5 445.5 Q345 420 396 353 Q443 418 487 444.5 Q531 471 584 471 Q648 471 692.5 426.5 Q737 382 737 317 Q737 250 692 208 Q647 166 574 166 Q524 166 479 193.5 Q434 221 395 275 Q357 221 312 193.5 Q267 166 216 166 Q143 166 97.5 208 Q52 250 52 317 Z M577 420 Q535 420 495 393.5 Q455 367 421 317 Q460 261 495 238 Q530 215 571 215 Q619 215 650.5 243.5 Q682 272 682 317 Q682 363 653 391.5 Q624 420 577 420 Z M213 420 Q166 420 137 391.5 Q108 363 108 317 Q108 274 140 244.5 Q172 215 218 215 Q260 215 297 239.5 Q334 264 368 314 Q333 364 292.5 392 Q252 420 213 420 Z " />
<glyph glyph-name="lozenge" unicode="&#x25ca;" horiz-adv-x="520" d="M290 690 L483 346 L290 0 L228 0 L36 346 L228 690 L290 690 Z M259 64 L415 346 L259 625 L104 346 L259 64 Z " />
<glyph glyph-name="radical" unicode="&#x221a;" horiz-adv-x="550" d="M532 723 L265 0 L200 0 L94 262 L26 262 L26 328 L139 328 L235 81 L471 740 L532 723 Z " />
<glyph glyph-name="integral" unicode="&#x222b;" horiz-adv-x="536" d="M448 750 Q465 750 480 747.5 Q495 745 514 738 L514 672 Q500 677 483.5 680 Q467 683 453 683 Q399 683 370 648.5 Q341 614 330 537 L247 -41 Q237 -122 196.5 -166 Q156 -210 92 -210 Q73 -210 56 -207 Q39 -204 21 -197 L21 -132 Q36 -137 51.5 -139.5 Q67 -142 85 -142 Q124 -142 146.5 -116.5 Q169 -91 177 -38 L263 547 Q277 648 323.5 699 Q370 750 448 750 Z " />
<glyph glyph-name="partialdiff" unicode="&#x2202;" horiz-adv-x="622" d="M483 421 Q463 494 408 564 Q353 634 267 696 L304 740 Q439 646 505 533 Q571 420 571 284 Q571 154 497 72 Q423 -10 309 -10 Q195 -10 120.5 65 Q46 140 46 254 Q46 367 118.5 443.5 Q191 520 295 520 Q353 520 400.5 495 Q448 470 483 421 Z M309 456 Q227 456 172.5 398.5 Q118 341 118 254 Q118 167 172.5 110 Q227 53 309 53 Q393 53 446 111.5 Q499 170 499 265 Q499 347 444 401.5 Q389 456 309 456 Z " />
<glyph glyph-name="product" unicode="&#x220f;" horiz-adv-x="720" d="M91 -150 L91 690 L629 690 L629 -150 L556 -150 L556 623 L164 623 L164 -150 L91 -150 Z " />
<glyph glyph-name="pi" unicode="&#x3c0;" horiz-adv-x="727" d="M570 -10 Q517 -10 489 25 Q461 60 461 126 L461 451 L308 451 L274 0 L206 0 L240 451 L183 451 Q145 451 125 436 Q105 421 105 393 Q105 378 108.5 361 Q112 344 119 329 L62 329 Q54 351 49.5 371 Q45 391 45 408 Q45 457 81 483.5 Q117 510 183 510 L674 510 L674 451 L531 451 L531 128 Q531 89 544 69.5 Q557 50 584 50 Q599 50 614 56.5 Q629 63 640 74 L668 28 Q648 9 623 -0.5 Q598 -10 570 -10 Z " />
<glyph glyph-name="mu" unicode="&#xb5;" horiz-adv-x="670" d="M455 96 Q419 48 366 19 Q313 -10 258 -10 Q229 -10 204 -2.5 Q179 5 155 21 L155 -200 L86 -200 L86 509 L159 509 L159 181 Q159 115 189 84.5 Q219 54 283 54 Q333 54 378.5 82.5 Q424 111 453 158 L453 510 L524 510 L524 128 Q524 90 538 70 Q552 50 579 50 Q593 50 606.5 55.5 Q620 61 630 71 L658 25 Q639 8 615.5 -1 Q592 -10 564 -10 Q517 -10 489 17 Q461 44 455 96 Z " />
<glyph glyph-name="summation" unicode="&#x2211;" horiz-adv-x="546" d="M40 -89 L286 253 L40 629 L40 690 L509 690 L509 623 L129 623 L369 253 L129 -83 L509 -83 L509 -150 L40 -150 L40 -89 Z " />
<glyph glyph-name="Omega" unicode="&#x2126;" horiz-adv-x="785" d="M65 0 L65 61 L254 61 Q154 102 102 179 Q50 256 50 362 Q50 507 147.5 603.5 Q245 700 393 700 Q540 700 637.5 603.5 Q735 507 735 362 Q735 257 683.5 179.5 Q632 102 534 61 L721 61 L721 0 L446 0 L446 61 Q552 104 607 177.5 Q662 251 662 351 Q662 475 586.5 553.5 Q511 632 393 632 Q275 632 199.5 553.5 Q124 475 124 351 Q124 251 180 177 Q236 103 344 61 L344 0 L65 0 Z " />
<glyph glyph-name="uni03A9" unicode="&#x3a9;" horiz-adv-x="785" d="M65 0 L65 61 L254 61 Q154 102 102 179 Q50 256 50 362 Q50 507 147.5 603.5 Q245 700 393 700 Q540 700 637.5 603.5 Q735 507 735 362 Q735 257 683.5 179.5 Q632 102 534 61 L721 61 L721 0 L446 0 L446 61 Q552 104 607 177.5 Q662 251 662 351 Q662 475 586.5 553.5 Q511 632 393 632 Q275 632 199.5 553.5 Q124 475 124 351 Q124 251 180 177 Q236 103 344 61 L344 0 L65 0 Z " />
<glyph glyph-name="increment" unicode="&#x2206;" horiz-adv-x="701" d="M380 690 L685 0 L16 0 L319 690 L380 690 Z M349 595 L119 66 L581 66 L349 595 Z " />
<glyph glyph-name="uni0394" unicode="&#x394;" horiz-adv-x="701" d="M380 690 L685 0 L16 0 L319 690 L380 690 Z M349 595 L119 66 L581 66 L349 595 Z " />
<glyph glyph-name="uni2113" unicode="&#x2113;" horiz-adv-x="536" d="M273 -10 Q200 -10 159 40.5 Q118 91 111 188 Q105 184 97 180 Q89 176 73 167 Q57 159 49.5 154.5 Q42 150 35 146 L14 190 Q34 200 56 212 Q78 224 110 243 Q112 325 128.5 403 Q145 481 174 548 Q214 643 271 696.5 Q328 750 389 750 Q441 750 472 714.5 Q503 679 503 620 Q503 520 424 425 Q345 330 173 224 L173 214 Q173 131 201.5 87.5 Q230 44 284 44 Q322 44 352.5 67.5 Q383 91 407 138 L446 105 Q416 49 371.5 19.5 Q327 -10 273 -10 Z M445 611 Q445 650 428.5 672.5 Q412 695 385 695 Q344 695 302.5 649 Q261 603 230 524 Q209 470 196 409 Q183 348 179 286 Q311 368 378 450 Q445 532 445 611 Z " />
<glyph glyph-name="estimated" unicode="&#x212e;" horiz-adv-x="824" d="M790 311 L790 302 L207 302 Q204 302 203 301 Q202 300 202 298 L202 122 Q202 116 204 111 Q206 106 210 102 Q254 56 311 31 Q368 6 431 6 Q498 6 558 34 Q618 62 663 113 L715 113 Q664 54 589 20.5 Q514 -13 430 -13 Q281 -13 175.5 82 Q70 177 70 311 Q70 445 175.5 540 Q281 635 430 635 Q579 635 684.5 540 Q790 445 790 311 Z M658 325 L658 503 Q658 509 656 514.5 Q654 520 649 524 Q605 568 548.5 592 Q492 616 431 616 Q369 616 312 591.5 Q255 567 211 521 Q206 516 204 511 Q202 506 202 499 L202 325 Q202 323 203.5 321.5 Q205 320 207 320 L654 320 Q656 320 657 321.5 Q658 323 658 325 Z " />
<glyph glyph-name="heart" unicode="&#x2665;" horiz-adv-x="602" d="M199 500 Q229 500 255 482.5 Q281 465 297 435 L305 435 Q321 465 347 482.5 Q373 500 403 500 Q446 500 474 470.5 Q502 441 502 395 Q502 329 445.5 254.5 Q389 180 301 135 Q213 180 156.5 254.5 Q100 329 100 395 Q100 441 128 470.5 Q156 500 199 500 Z " />
</font>
</svg>
