<?xml version="1.0" encoding="UTF-8"?>
<svg xmlns="http://www.w3.org/2000/svg" xmlns:xlink="http://www.w3.org/1999/xlink" version="1.2" >
<font id="RCI Regular">
<font-face  font-family="RCI" units-per-em="1000" ascent="980" descent="-322" font-style="normal" font-weight="400" font-stretch="normal" cap-height="700" x-height="513" underline-position="-100" underline-thickness="50" />
<missing-glyph  horiz-adv-x="602" d="M199 500 Q229 500 255 482.5 Q281 465 297 435 L305 435 Q321 465 347 482.5 Q373 500 403 500 Q446 500 474 470.5 Q502 441 502 395 Q502 329 445.5 254.5 Q389 180 301 135 Q213 180 156.5 254.5 Q100 329 100 395 Q100 441 128 470.5 Q156 500 199 500 Z " />
<glyph glyph-name="null" d="" />
<glyph glyph-name="CR" unicode="&#xd;" d="" />
<glyph glyph-name="space" unicode="&#x20;" horiz-adv-x="242" d="" />
<glyph glyph-name="uni00A0" unicode="&#xa0;" horiz-adv-x="242" d="" />
<glyph glyph-name="A" unicode="A" horiz-adv-x="709" d="M489 240 L351 584 L214 240 L489 240 Z M697 0 L585 0 L523 154 L179 154 L118 0 L11 0 L293 690 L415 690 L697 0 Z " />
<glyph glyph-name="B" unicode="B" horiz-adv-x="661" d="M83 0 L83 690 L353 690 Q455 690 517.5 640.5 Q580 591 580 511 Q580 458 552 418 Q524 378 474 361 Q537 347 573 302.5 Q609 258 609 194 Q609 106 541 53 Q473 0 361 0 L83 0 Z M475 502 Q475 549 441 576 Q407 603 348 603 L186 603 L186 398 L360 398 Q411 398 443 426.5 Q475 455 475 502 Z M186 315 L186 86 L358 86 Q427 86 464 116 Q501 146 501 201 Q501 253 466 284 Q431 315 371 315 L186 315 Z " />
<glyph glyph-name="C" unicode="C" horiz-adv-x="652" d="M407 84 Q461 84 511 96.5 Q561 109 610 135 L610 37 Q565 13 514.5 1.5 Q464 -10 401 -10 Q244 -10 144 89.5 Q44 189 44 345 Q44 500 145 600 Q246 700 402 700 Q460 700 511 687 Q562 674 599 649 L599 551 Q557 578 507.5 591.5 Q458 605 404 605 Q289 605 220 534 Q151 463 151 346 Q151 226 220.5 155 Q290 84 407 84 Z " />
<glyph glyph-name="D" unicode="D" horiz-adv-x="727" d="M576 346 Q576 460 510 529 Q444 598 334 598 L186 598 L186 91 L334 91 Q445 91 510.5 160 Q576 229 576 346 Z M333 0 L83 0 L83 690 L338 690 Q488 690 585.5 593 Q683 496 683 347 Q683 194 585 97 Q487 0 333 0 Z " />
<glyph glyph-name="E" unicode="E" horiz-adv-x="590" d="M541 690 L541 598 L186 598 L186 398 L448 398 L448 306 L186 306 L186 91 L541 91 L541 0 L83 0 L83 690 L541 690 Z " />
<glyph glyph-name="F" unicode="F" horiz-adv-x="577" d="M541 690 L541 598 L186 598 L186 391 L448 391 L448 299 L186 299 L186 0 L83 0 L83 690 L541 690 Z " />
<glyph glyph-name="G" unicode="G" horiz-adv-x="729" d="M673 362 L673 78 Q626 36 554 13 Q482 -10 403 -10 Q244 -10 144 89 Q44 188 44 344 Q44 500 144.5 600 Q245 700 402 700 Q459 700 510 689 Q561 678 598 657 L598 558 Q555 581 506 593 Q457 605 404 605 Q289 605 220 534.5 Q151 464 151 345 Q151 226 221.5 155 Q292 84 410 84 Q462 84 504 96 Q546 108 575 131 L575 276 L404 276 L404 362 L673 362 Z " />
<glyph glyph-name="H" unicode="H" horiz-adv-x="753" d="M670 0 L566 0 L566 294 L186 294 L186 0 L83 0 L83 690 L186 690 L186 386 L566 386 L566 690 L670 690 L670 0 Z " />
<glyph glyph-name="I" unicode="I" horiz-adv-x="269" d="M83 690 L186 690 L186 0 L83 0 L83 690 Z " />
<glyph glyph-name="J" unicode="J" horiz-adv-x="451" d="M144 -10 Q119 -10 88.5 -5.5 Q58 -1 38 6 L38 98 Q60 91 85 87.5 Q110 84 139 84 Q203 84 236 120.5 Q269 157 269 228 L269 690 L373 690 L373 230 Q373 119 311 54.5 Q249 -10 144 -10 Z " />
<glyph glyph-name="K" unicode="K" horiz-adv-x="662" d="M645 0 L519 0 L278 299 L186 193 L186 0 L83 0 L83 690 L186 690 L186 324 L498 690 L613 690 L344 376 L645 0 Z " />
<glyph glyph-name="L" unicode="L" horiz-adv-x="591" d="M83 690 L186 690 L186 91 L546 91 L546 0 L83 0 L83 690 Z " />
<glyph glyph-name="M" unicode="M" horiz-adv-x="864" d="M434 302 L683 690 L781 690 L781 0 L678 0 L678 515 L476 198 L392 198 L186 509 L186 0 L83 0 L83 690 L181 690 L434 302 Z " />
<glyph glyph-name="N" unicode="N" horiz-adv-x="745" d="M663 0 L565 0 L186 517 L186 0 L83 0 L83 690 L180 690 L559 166 L559 690 L663 690 L663 0 Z " />
<glyph glyph-name="O" unicode="O" horiz-adv-x="796" d="M397 -10 Q245 -10 145.5 90.5 Q46 191 46 344 Q46 498 146 599 Q246 700 398 700 Q550 700 649.5 599 Q749 498 749 345 Q749 191 649 90.5 Q549 -10 397 -10 Z M398 84 Q507 84 574.5 156 Q642 228 642 345 Q642 461 574.5 533 Q507 605 398 605 Q288 605 220.5 533 Q153 461 153 345 Q153 228 220.5 156 Q288 84 398 84 Z " />
<glyph glyph-name="P" unicode="P" horiz-adv-x="645" d="M492 468 Q492 527 454 562.5 Q416 598 352 598 L186 598 L186 335 L352 335 Q417 335 454.5 371 Q492 407 492 468 Z M599 467 Q599 370 529 306.5 Q459 243 352 243 L186 243 L186 0 L83 0 L83 690 L352 690 Q460 690 529.5 627 Q599 564 599 467 Z " />
<glyph glyph-name="Q" unicode="Q" horiz-adv-x="796" d="M153 345 Q153 228 220.5 156 Q288 84 398 84 Q442 84 481.5 97 Q521 110 553 136 L461 229 L513 279 L601 190 Q621 223 631.5 262 Q642 301 642 345 Q642 461 574.5 533 Q507 605 398 605 Q288 605 220.5 533 Q153 461 153 345 Z M745 42 L693 -7 L621 66 Q576 29 518.5 9.5 Q461 -10 397 -10 Q245 -10 145.5 90.5 Q46 191 46 344 Q46 498 146 599 Q246 700 398 700 Q550 700 649.5 599 Q749 498 749 345 Q749 280 729.5 221.5 Q710 163 672 116 L745 42 Z " />
<glyph glyph-name="R" unicode="R" horiz-adv-x="653" d="M486 487 Q486 537 449 567.5 Q412 598 351 598 L186 598 L186 373 L351 373 Q412 373 449 404.5 Q486 436 486 487 Z M625 0 L504 0 L336 284 L186 284 L186 0 L83 0 L83 690 L351 690 Q456 690 525 633.5 Q594 577 594 490 Q594 422 552.5 370.5 Q511 319 440 297 L625 0 Z " />
<glyph glyph-name="S" unicode="S" horiz-adv-x="590" d="M280 -10 Q211 -10 150.5 5 Q90 20 46 48 L46 150 Q104 115 164.5 98 Q225 81 288 81 Q362 81 403 107.5 Q444 134 444 182 Q444 223 409 250.5 Q374 278 274 310 Q153 349 100.5 396.5 Q48 444 48 512 Q48 596 119 648 Q190 700 306 700 Q364 700 413.5 689.5 Q463 679 505 657 L505 561 Q457 584 404.5 596 Q352 608 301 608 Q233 608 194 584 Q155 560 155 518 Q155 482 188.5 458 Q222 434 334 396 Q454 356 503 309.5 Q552 263 552 189 Q552 98 477 44 Q402 -10 280 -10 Z " />
<glyph glyph-name="T" unicode="T" horiz-adv-x="604" d="M580 690 L580 598 L354 598 L354 0 L250 0 L250 598 L24 598 L24 690 L580 690 Z " />
<glyph glyph-name="U" unicode="U" horiz-adv-x="724" d="M542 264 L542 690 L646 690 L646 262 Q646 139 568 64.5 Q490 -10 361 -10 Q233 -10 155.5 66 Q78 142 78 266 L78 690 L181 690 L181 264 Q181 181 229.5 132.5 Q278 84 361 84 Q445 84 493.5 132.5 Q542 181 542 264 Z " />
<glyph glyph-name="V" unicode="V" horiz-adv-x="719" d="M602 690 L710 690 L419 0 L298 0 L9 690 L123 690 L362 107 L602 690 Z " />
<glyph glyph-name="W" unicode="W" horiz-adv-x="1013" d="M713 111 L900 690 L1004 690 L774 0 L654 0 L506 436 L353 0 L239 0 L9 690 L119 690 L304 111 L462 563 L562 563 L713 111 Z " />
<glyph glyph-name="X" unicode="X" horiz-adv-x="660" d="M644 0 L523 0 L325 269 L123 0 L13 0 L268 346 L15 690 L136 690 L335 420 L534 690 L645 690 L391 344 L644 0 Z " />
<glyph glyph-name="Y" unicode="Y" horiz-adv-x="668" d="M542 690 L657 690 L386 282 L386 0 L282 0 L282 282 L11 690 L121 690 L331 373 L542 690 Z " />
<glyph glyph-name="Z" unicode="Z" horiz-adv-x="600" d="M561 0 L39 0 L39 83 L424 591 L46 591 L46 683 L556 683 L556 599 L169 91 L561 91 L561 0 Z " />
<glyph glyph-name="AE" unicode="&#xc6;" horiz-adv-x="971" d="M257 241 L464 241 L464 597 L257 241 Z M922 0 L464 0 L464 154 L210 154 L120 0 L9 0 L408 690 L922 690 L922 598 L567 598 L567 398 L829 398 L829 306 L567 306 L567 91 L922 91 L922 0 Z " />
<glyph glyph-name="OE" unicode="&#x152;" horiz-adv-x="1149" d="M153 345 Q153 228 220.5 156 Q288 84 398 84 Q507 84 574.5 156 Q642 228 642 345 Q642 461 574.5 533 Q507 605 398 605 Q288 605 220.5 533 Q153 461 153 345 Z M1100 0 L642 0 L642 116 Q601 55 537.5 22.5 Q474 -10 395 -10 Q244 -10 145 90.5 Q46 191 46 344 Q46 498 146 599 Q246 700 398 700 Q475 700 538 667 Q601 634 642 574 L642 690 L1100 690 L1100 598 L746 598 L746 398 L1008 398 L1008 306 L746 306 L746 91 L1100 91 L1100 0 Z " />
<glyph glyph-name="Lslash" unicode="&#x141;" horiz-adv-x="594" d="M549 91 L549 0 L85 0 L85 272 L9 237 L9 319 L85 354 L85 690 L189 690 L189 402 L381 491 L381 410 L189 321 L189 91 L549 91 Z " />
<glyph glyph-name="Oslash" unicode="&#xd8;" horiz-adv-x="796" d="M749 345 Q749 191 649 90.5 Q549 -10 397 -10 Q334 -10 277 9 Q220 28 174 65 L103 -7 L51 42 L123 116 Q85 162 65.5 220.5 Q46 279 46 344 Q46 498 146 599 Q246 700 398 700 Q461 700 518 681 Q575 662 621 625 L693 699 L745 649 L672 574 Q710 528 729.5 469.5 Q749 411 749 345 Z M398 605 Q288 605 220.5 533 Q153 461 153 345 Q153 300 163.5 260.5 Q174 221 195 189 L552 554 Q521 579 482 592 Q443 605 398 605 Z M398 84 Q507 84 574.5 156 Q642 228 642 345 Q642 390 631.5 429.5 Q621 469 600 501 L243 136 Q275 110 314.5 97 Q354 84 398 84 Z " />
<glyph glyph-name="Eth" unicode="&#xd0;" horiz-adv-x="730" d="M328 383 L328 308 L189 308 L189 91 L337 91 Q448 91 513 159.5 Q578 228 578 346 Q578 461 512.5 529.5 Q447 598 337 598 L189 598 L189 383 L328 383 Z M335 0 L85 0 L85 308 L14 308 L14 383 L85 383 L85 690 L340 690 Q490 690 588 593 Q686 496 686 347 Q686 194 588 97 Q490 0 335 0 Z " />
<glyph glyph-name="Thorn" unicode="&#xde;" horiz-adv-x="651" d="M492 348 Q492 407 454 442 Q416 477 352 477 L186 477 L186 214 L352 214 Q416 214 454 250 Q492 286 492 348 Z M599 347 Q599 249 529.5 185.5 Q460 122 352 122 L186 122 L186 0 L83 0 L83 690 L186 690 L186 569 L352 569 Q460 569 529.5 506.5 Q599 444 599 347 Z " />
<glyph glyph-name="a" unicode="a" horiz-adv-x="584" d="M266 62 Q310 62 347.5 84 Q385 106 411 146 L411 219 Q380 244 342 257.5 Q304 271 266 271 Q208 271 176 244 Q144 217 144 168 Q144 120 177.5 91 Q211 62 266 62 Z M101 396 L101 479 Q136 500 183 511.5 Q230 523 282 523 Q393 523 451 469.5 Q509 416 509 314 L509 0 L411 0 L411 79 Q377 36 329.5 13 Q282 -10 225 -10 Q144 -10 91.5 39 Q39 88 39 163 Q39 240 92 288.5 Q145 337 231 337 Q280 337 325 323.5 Q370 310 407 284 L407 310 Q407 377 371 410 Q335 443 264 443 Q222 443 179 430.5 Q136 418 101 396 Z " />
<glyph glyph-name="b" unicode="b" horiz-adv-x="646" d="M605 258 Q605 141 535.5 65.5 Q466 -10 359 -10 Q304 -10 254.5 15 Q205 40 175 83 L175 0 L78 0 L78 723 L175 740 L175 426 Q205 472 254 497.5 Q303 523 359 523 Q467 523 536 449 Q605 375 605 258 Z M506 258 Q506 341 460.5 390 Q415 439 338 439 Q289 439 245.5 412 Q202 385 175 337 L175 168 Q204 123 246.5 98.5 Q289 74 338 74 Q415 74 460.5 124 Q506 174 506 258 Z " />
<glyph glyph-name="c" unicode="c" horiz-adv-x="511" d="M326 439 Q239 439 189.5 390 Q140 341 140 256 Q140 170 189 121.5 Q238 73 325 73 Q366 73 400 84.5 Q434 96 470 122 L470 36 Q439 14 397.5 2 Q356 -10 306 -10 Q187 -10 114 63.5 Q41 137 41 256 Q41 375 114.5 449 Q188 523 309 523 Q359 523 398 512.5 Q437 502 463 481 L463 392 Q439 413 401.5 426 Q364 439 326 439 Z " />
<glyph glyph-name="d" unicode="d" horiz-adv-x="646" d="M470 173 L470 342 Q443 388 400.5 413.5 Q358 439 308 439 Q231 439 185.5 390 Q140 341 140 258 Q140 174 185.5 124 Q231 74 308 74 Q357 74 399.5 100 Q442 126 470 173 Z M470 0 L470 89 Q437 41 390.5 15.5 Q344 -10 287 -10 Q180 -10 110.5 65.5 Q41 141 41 258 Q41 375 110 449 Q179 523 287 523 Q343 523 390.5 500 Q438 477 470 434 L470 723 L568 740 L568 0 L470 0 Z " />
<glyph glyph-name="e" unicode="e" horiz-adv-x="573" d="M298 445 Q235 445 192 405 Q149 365 140 297 L442 297 Q442 364 402 404.5 Q362 445 298 445 Z M493 116 L493 34 Q464 14 419.5 2 Q375 -10 327 -10 Q200 -10 120.5 65.5 Q41 141 41 262 Q41 377 114 450 Q187 523 301 523 Q404 523 469.5 457 Q535 391 536 287 Q536 270 535 254 Q534 238 532 229 L140 229 Q149 155 200 112.5 Q251 70 329 70 Q373 70 417.5 82.5 Q462 95 493 116 Z " />
<glyph glyph-name="f" unicode="f" horiz-adv-x="350" d="M317 513 L317 436 L183 436 L183 0 L85 0 L85 435 L9 435 L9 513 L85 513 L85 538 Q85 634 131.5 687 Q178 740 261 740 Q287 740 308.5 734.5 Q330 729 347 719 L347 636 Q333 645 314.5 649.5 Q296 654 277 654 Q230 654 206.5 625.5 Q183 597 183 540 L183 513 L317 513 Z " />
<glyph glyph-name="g" unicode="g" horiz-adv-x="646" d="M470 172 L470 344 Q443 388 400 413.5 Q357 439 308 439 Q231 439 185.5 390 Q140 341 140 258 Q140 174 185.5 124 Q231 74 308 74 Q356 74 397.5 99.5 Q439 125 470 172 Z M470 27 L470 90 Q438 41 391 15.5 Q344 -10 286 -10 Q178 -10 109.5 64.5 Q41 139 41 258 Q41 375 110 449 Q179 523 287 523 Q344 523 392.5 499 Q441 475 470 433 L470 513 L568 513 L568 40 Q568 -78 498 -146 Q428 -214 309 -214 Q277 -214 246.5 -208.5 Q216 -203 195 -193 L195 -110 Q218 -120 246.5 -125.5 Q275 -131 301 -131 Q380 -131 425 -89 Q470 -47 470 27 Z " />
<glyph glyph-name="h" unicode="h" horiz-adv-x="619" d="M78 723 L175 740 L175 427 Q205 472 254 497.5 Q303 523 360 523 Q452 523 499 473 Q546 423 546 326 L546 0 L448 0 L448 316 Q448 376 417.5 406.5 Q387 437 328 437 Q282 437 241 412.5 Q200 388 175 347 L175 0 L78 0 L78 723 Z " />
<glyph glyph-name="i" unicode="i" horiz-adv-x="253" d="M78 727 L175 727 L175 594 L78 594 L78 727 Z M78 513 L175 513 L175 0 L78 0 L78 513 Z " />
<glyph glyph-name="j" unicode="j" horiz-adv-x="261" d="M183 594 L85 594 L85 727 L183 727 L183 594 Z M10 -131 Q48 -131 66.5 -108 Q85 -85 85 -39 L85 513 L183 513 L183 -34 Q183 -121 145.5 -167.5 Q108 -214 37 -214 Q23 -214 8.5 -212 Q-6 -210 -21 -207 L-21 -129 Q-6 -130 -0.5 -130.5 Q5 -131 10 -131 Z " />
<glyph glyph-name="k" unicode="k" horiz-adv-x="563" d="M547 0 L428 0 L242 220 L175 151 L175 0 L78 0 L78 723 L175 740 L175 262 L410 513 L522 513 L306 288 L547 0 Z " />
<glyph glyph-name="l" unicode="l" horiz-adv-x="253" d="M175 740 L175 0 L78 0 L78 723 L175 740 Z " />
<glyph glyph-name="m" unicode="m" horiz-adv-x="953" d="M319 437 Q278 437 240.5 413 Q203 389 175 346 L175 0 L78 0 L78 513 L170 513 L170 420 Q204 471 250 497 Q296 523 352 523 Q414 523 457.5 495 Q501 467 516 418 Q546 468 594.5 495.5 Q643 523 702 523 Q787 523 833.5 474.5 Q880 426 880 338 L880 0 L782 0 L782 328 Q782 379 752 408 Q722 437 670 437 Q628 437 590 411.5 Q552 386 528 344 L528 0 L430 0 L430 332 Q430 379 400 408 Q370 437 319 437 Z " />
<glyph glyph-name="n" unicode="n" horiz-adv-x="619" d="M78 513 L170 513 L170 420 Q201 468 250.5 495.5 Q300 523 360 523 Q452 523 499 473 Q546 423 546 326 L546 0 L448 0 L448 316 Q448 376 417.5 406.5 Q387 437 328 437 Q282 437 241 412.5 Q200 388 175 346 L175 0 L78 0 L78 513 Z " />
<glyph glyph-name="o" unicode="o" horiz-adv-x="621" d="M310 523 Q426 523 503 447.5 Q580 372 580 256 Q580 141 503 65.5 Q426 -10 310 -10 Q195 -10 118 65.5 Q41 141 41 256 Q41 371 117.5 447 Q194 523 310 523 Z M310 72 Q385 72 432.5 123 Q480 174 480 256 Q480 338 433 389 Q386 440 310 440 Q234 440 187 389 Q140 338 140 256 Q140 174 187.5 123 Q235 72 310 72 Z " />
<glyph glyph-name="p" unicode="p" horiz-adv-x="646" d="M506 258 Q506 341 460.5 390 Q415 439 338 439 Q289 439 246.5 412.5 Q204 386 175 339 L175 166 Q205 122 247.5 98 Q290 74 338 74 Q415 74 460.5 124 Q506 174 506 258 Z M359 -10 Q304 -10 255.5 14 Q207 38 175 82 L175 -200 L78 -200 L78 513 L175 513 L175 428 Q210 475 257 499 Q304 523 359 523 Q467 523 536 449 Q605 375 605 258 Q605 141 535.5 65.5 Q466 -10 359 -10 Z " />
<glyph glyph-name="q" unicode="q" horiz-adv-x="646" d="M470 -197 L470 89 Q444 43 395 16.5 Q346 -10 287 -10 Q180 -10 110.5 65.5 Q41 141 41 258 Q41 375 110 449 Q179 523 287 523 Q343 523 390 500 Q437 477 470 434 L470 515 L568 515 L568 -197 L470 -197 Z M470 171 L470 345 Q442 389 399.5 414 Q357 439 308 439 Q231 439 185.5 390 Q140 341 140 258 Q140 174 185.5 124 Q231 74 308 74 Q356 74 398.5 99.5 Q441 125 470 171 Z " />
<glyph glyph-name="r" unicode="r" horiz-adv-x="384" d="M305 523 Q319 523 333 520 Q347 517 360 511 L360 418 Q348 424 330.5 427.5 Q313 431 296 431 Q257 431 225.5 407.5 Q194 384 175 342 L175 0 L78 0 L78 513 L175 513 L175 421 Q192 469 227 496 Q262 523 305 523 Z " />
<glyph glyph-name="s" unicode="s" horiz-adv-x="474" d="M251 442 Q198 442 169 425 Q140 408 140 377 Q140 353 162.5 338 Q185 323 268 300 Q366 272 403.5 237.5 Q441 203 441 145 Q441 71 385 30.5 Q329 -10 233 -10 Q178 -10 131.5 1 Q85 12 51 33 L51 121 Q87 97 135.5 83.5 Q184 70 237 70 Q288 70 316 87.5 Q344 105 344 139 Q344 167 318.5 184.5 Q293 202 203 228 Q116 254 80 287 Q44 320 44 373 Q44 441 100 482 Q156 523 248 523 Q293 523 333 514 Q373 505 407 488 L407 401 Q373 420 332.5 431 Q292 442 251 442 Z " />
<glyph glyph-name="t" unicode="t" horiz-adv-x="358" d="M319 89 L319 3 Q297 -3 276 -6.5 Q255 -10 239 -10 Q160 -10 122.5 29 Q85 68 85 150 L85 435 L9 435 L9 513 L85 513 L85 628 L183 644 L183 513 L317 513 L317 436 L183 436 L183 163 Q183 120 200.5 99 Q218 78 257 78 Q271 78 286 80.5 Q301 83 319 89 Z " />
<glyph glyph-name="u" unicode="u" horiz-adv-x="604" d="M526 0 L434 0 L434 94 Q402 43 356 16.5 Q310 -10 254 -10 Q165 -10 119 39 Q73 88 73 182 L73 513 L170 513 L170 194 Q170 134 199 104.5 Q228 75 286 75 Q328 75 365.5 99.5 Q403 124 428 168 L428 513 L526 513 L526 0 Z " />
<glyph glyph-name="v" unicode="v" horiz-adv-x="557" d="M545 513 L326 0 L224 0 L11 513 L114 513 L279 95 L450 513 L545 513 Z " />
<glyph glyph-name="w" unicode="w" horiz-adv-x="843" d="M832 513 L650 0 L540 0 L417 379 L296 0 L194 0 L11 513 L114 513 L253 97 L384 513 L469 513 L602 97 L743 513 L832 513 Z " />
<glyph glyph-name="x" unicode="x" horiz-adv-x="523" d="M513 0 L402 0 L257 195 L111 0 L11 0 L207 263 L21 513 L132 513 L268 330 L405 513 L504 513 L319 262 L513 0 Z " />
<glyph glyph-name="y" unicode="y" horiz-adv-x="561" d="M90 -214 Q78 -214 66 -212 Q54 -210 44 -207 L44 -126 Q54 -128 64 -129.5 Q74 -131 84 -131 Q130 -131 168.5 -98.5 Q207 -66 238 -2 L12 513 L111 513 L284 107 L451 513 L549 513 L338 22 Q283 -105 224.5 -159.5 Q166 -214 90 -214 Z " />
<glyph glyph-name="z" unicode="z" horiz-adv-x="491" d="M158 80 L456 80 L456 0 L35 0 L35 68 L330 432 L41 432 L41 513 L454 513 L454 444 L158 80 Z " />
<glyph glyph-name="ae" unicode="&#xe6;" horiz-adv-x="937" d="M663 445 Q600 445 556.5 405 Q513 365 505 297 L806 297 Q807 363 767 404 Q727 445 663 445 Z M692 -10 Q615 -10 554 21 Q493 52 457 110 Q422 54 363 22 Q304 -10 238 -10 Q149 -10 94 38 Q39 86 39 163 Q39 240 92 288.5 Q145 337 231 337 Q284 337 329.5 323.5 Q375 310 409 284 Q410 291 410 295 Q410 299 410 310 Q410 375 372.5 409 Q335 443 262 443 Q218 443 178.5 431.5 Q139 420 101 396 L101 479 Q137 500 182.5 511.5 Q228 523 279 523 Q351 523 396 497.5 Q441 472 468 417 Q504 470 553.5 496.5 Q603 523 665 523 Q768 523 833.5 457 Q899 391 901 287 Q901 273 899.5 256.5 Q898 240 896 229 L505 229 Q512 155 563 112.5 Q614 70 694 70 Q737 70 782 82.5 Q827 95 857 116 L857 34 Q828 13 784 1.5 Q740 -10 692 -10 Z M144 168 Q144 120 177.5 91 Q211 62 266 62 Q315 62 357.5 91.5 Q400 121 422 168 Q418 179 415.5 190.5 Q413 202 411 216 Q377 242 339 256.5 Q301 271 266 271 Q208 271 176 244 Q144 217 144 168 Z " />
<glyph glyph-name="oe" unicode="&#x153;" horiz-adv-x="1013" d="M933 116 L933 34 Q904 14 859.5 2 Q815 -10 767 -10 Q689 -10 627 23.5 Q565 57 531 117 Q499 58 440 24 Q381 -10 310 -10 Q195 -10 118 65.5 Q41 141 41 256 Q41 371 117.5 447 Q194 523 310 523 Q380 523 438 491 Q496 459 528 403 Q558 459 614.5 491 Q671 523 741 523 Q844 523 909.5 457 Q975 391 976 287 Q976 270 975 254 Q974 238 972 229 L581 229 Q588 156 639 113 Q690 70 769 70 Q813 70 857.5 82.5 Q902 95 933 116 Z M738 445 Q675 445 632 405 Q589 365 581 297 L882 297 Q882 364 842 404.5 Q802 445 738 445 Z M310 72 Q385 72 432.5 123 Q480 174 480 256 Q480 338 433 389 Q386 440 310 440 Q234 440 187 389 Q140 338 140 256 Q140 174 187.5 123 Q235 72 310 72 Z " />
<glyph glyph-name="lslash" unicode="&#x142;" horiz-adv-x="264" d="M181 373 L181 0 L83 0 L83 327 L19 297 L19 381 L83 411 L83 723 L181 740 L181 458 L247 489 L247 404 L181 373 Z " />
<glyph glyph-name="oslash" unicode="&#xf8;" horiz-adv-x="621" d="M580 256 Q580 141 503 65.5 Q426 -10 310 -10 Q263 -10 220.5 3.5 Q178 17 144 43 L91 -10 L46 33 L99 86 Q71 121 56 164.5 Q41 208 41 256 Q41 371 117.5 447 Q194 523 310 523 Q358 523 401.5 509 Q445 495 480 468 L535 523 L580 479 L524 423 Q551 389 565.5 346 Q580 303 580 256 Z M310 440 Q234 440 187 389 Q140 338 140 256 Q140 227 146.5 201 Q153 175 165 153 L417 404 Q395 422 368 431 Q341 440 310 440 Z M310 72 Q385 72 432.5 123 Q480 174 480 256 Q480 284 474 309.5 Q468 335 457 356 L207 106 Q228 89 254 80.5 Q280 72 310 72 Z " />
<glyph glyph-name="eth" unicode="&#xf0;" horiz-adv-x="613" d="M571 295 Q571 157 498.5 73.5 Q426 -10 307 -10 Q192 -10 117 64 Q42 138 42 250 Q42 363 111 436.5 Q180 510 286 510 Q338 510 380.5 492.5 Q423 475 450 442 Q435 484 407 525.5 Q379 567 340 607 L267 560 L238 599 L303 641 Q278 663 250 683.5 Q222 704 191 723 L276 740 Q301 726 323.5 711.5 Q346 697 365 682 L432 725 L460 686 L404 649 Q485 575 528 484.5 Q571 394 571 295 Z M472 257 Q472 336 426.5 384.5 Q381 433 307 433 Q232 433 186.5 382.5 Q141 332 141 250 Q141 172 187 122.5 Q233 73 307 73 Q382 73 427 123.5 Q472 174 472 257 Z " />
<glyph glyph-name="thorn" unicode="&#xfe;" horiz-adv-x="646" d="M506 258 Q506 341 460.5 390 Q415 439 338 439 Q289 439 245.5 412 Q202 385 175 337 L175 168 Q204 123 246.5 98.5 Q289 74 338 74 Q415 74 460.5 124 Q506 174 506 258 Z M359 -10 Q304 -10 256 14.5 Q208 39 175 84 L175 -200 L78 -200 L78 723 L175 740 L175 426 Q207 473 254.5 498 Q302 523 359 523 Q467 523 536 449 Q605 375 605 258 Q605 141 535.5 65.5 Q466 -10 359 -10 Z " />
<glyph glyph-name="germandbls" unicode="&#xdf;" horiz-adv-x="599" d="M78 0 L78 504 Q78 616 137 678 Q196 740 304 740 Q401 740 458.5 689 Q516 638 516 556 Q516 499 488 456.5 Q460 414 412 394 Q483 378 520.5 328 Q558 278 558 201 Q558 108 496 49 Q434 -10 344 -10 Q309 -10 278.5 -4 Q248 2 226 13 L226 90 Q249 78 271.5 73 Q294 68 320 68 Q379 68 417.5 107.5 Q456 147 456 210 Q456 275 414.5 312.5 Q373 350 304 350 L304 425 Q352 425 383.5 457 Q415 489 415 540 Q415 593 384 623.5 Q353 654 300 654 Q241 654 208 616 Q175 578 175 509 L175 0 L78 0 Z " />
<glyph glyph-name="dotlessi" unicode="&#x131;" horiz-adv-x="253" d="M78 513 L175 513 L175 0 L78 0 L78 513 Z " />
<glyph glyph-name="dotlessj" unicode="&#x237;" horiz-adv-x="261" d="M10 -131 Q48 -131 66.5 -108 Q85 -85 85 -39 L85 513 L183 513 L183 -34 Q183 -121 145.5 -167.5 Q108 -214 37 -214 Q23 -214 8.5 -212 Q-6 -210 -21 -207 L-21 -129 Q-6 -130 -0.5 -130.5 Q5 -131 10 -131 Z " />
<glyph glyph-name="fi" unicode="&#xfb01;" horiz-adv-x="571" d="M395 727 L493 727 L493 594 L395 594 L395 727 Z M317 513 L317 436 L183 436 L183 0 L85 0 L85 435 L9 435 L9 513 L85 513 L85 538 Q85 635 130 687.5 Q175 740 255 740 Q281 740 301 735 Q321 730 339 719 L339 636 Q326 645 308.5 649.5 Q291 654 273 654 Q228 654 205.5 625.5 Q183 597 183 540 L183 513 L317 513 Z M395 513 L493 513 L493 0 L395 0 L395 513 Z " />
<glyph glyph-name="fl" unicode="&#xfb02;" horiz-adv-x="571" d="M493 740 L493 0 L395 0 L395 723 L493 740 Z M317 513 L317 436 L183 436 L183 0 L85 0 L85 435 L9 435 L9 513 L85 513 L85 538 Q85 635 130 687.5 Q175 740 255 740 Q281 740 301 735 Q321 730 339 719 L339 636 Q326 645 308.5 649.5 Q291 654 273 654 Q228 654 205.5 625.5 Q183 597 183 540 L183 513 L317 513 Z " />
<glyph glyph-name="Aacute" unicode="&#xc1;" horiz-adv-x="709" d="M489 240 L351 584 L214 240 L489 240 Z M697 0 L585 0 L523 154 L179 154 L118 0 L11 0 L293 690 L415 690 L697 0 Z M368 764 L280 764 L382 901 L491 901 L368 764 Z " />
<glyph glyph-name="Acircumflex" unicode="&#xc2;" horiz-adv-x="709" d="M489 240 L351 584 L214 240 L489 240 Z M697 0 L585 0 L523 154 L179 154 L118 0 L11 0 L293 690 L415 690 L697 0 Z M518 764 L436 764 L351 854 L265 764 L189 764 L302 901 L404 901 L518 764 Z " />
<glyph glyph-name="Adieresis" unicode="&#xc4;" horiz-adv-x="709" d="M489 240 L351 584 L214 240 L489 240 Z M697 0 L585 0 L523 154 L179 154 L118 0 L11 0 L293 690 L415 690 L697 0 Z M483 770 L399 770 L399 903 L483 903 L483 770 Z M308 770 L224 770 L224 903 L308 903 L308 770 Z " />
<glyph glyph-name="Agrave" unicode="&#xc0;" horiz-adv-x="709" d="M489 240 L351 584 L214 240 L489 240 Z M697 0 L585 0 L523 154 L179 154 L118 0 L11 0 L293 690 L415 690 L697 0 Z M206 901 L315 901 L416 764 L329 764 L206 901 Z " />
<glyph glyph-name="Aring" unicode="&#xc5;" horiz-adv-x="709" d="M489 240 L351 584 L214 240 L489 240 Z M697 0 L585 0 L523 154 L179 154 L118 0 L11 0 L293 690 L415 690 L697 0 Z M246 850 Q246 896 276.5 925.5 Q307 955 354 955 Q400 955 430.5 924.5 Q461 894 461 850 Q461 805 430.5 775 Q400 745 354 745 Q308 745 277 775 Q246 805 246 850 Z M302 851 Q302 827 316.5 812 Q331 797 354 797 Q377 797 391.5 812 Q406 827 406 851 Q406 874 391.5 888.5 Q377 903 354 903 Q331 903 316.5 888.5 Q302 874 302 851 Z " />
<glyph glyph-name="Atilde" unicode="&#xc3;" horiz-adv-x="709" d="M489 240 L351 584 L214 240 L489 240 Z M697 0 L585 0 L523 154 L179 154 L118 0 L11 0 L293 690 L415 690 L697 0 Z M368 861 Q391 843 403.5 837.5 Q416 832 428 832 Q448 832 460.5 849 Q473 866 475 896 L538 896 Q537 842 507 805.5 Q477 769 431 769 Q408 769 388 777 Q368 785 337 809 Q316 826 305.5 831 Q295 836 285 836 Q264 836 250.5 818.5 Q237 801 234 770 L171 770 Q173 830 201 864.5 Q229 899 277 899 Q298 899 317.5 891.5 Q337 884 368 861 Z " />
<glyph glyph-name="Abreve" unicode="&#x102;" horiz-adv-x="709" d="M489 240 L351 584 L214 240 L489 240 Z M697 0 L585 0 L523 154 L179 154 L118 0 L11 0 L293 690 L415 690 L697 0 Z M348 825 Q386 825 409 843 Q432 861 443 900 L508 900 Q500 837 457.5 800 Q415 763 348 763 Q281 763 238.5 800 Q196 837 189 900 L254 900 Q264 862 287 843.5 Q310 825 348 825 Z " />
<glyph glyph-name="Amacron" unicode="&#x100;" horiz-adv-x="709" d="M489 240 L351 584 L214 240 L489 240 Z M697 0 L585 0 L523 154 L179 154 L118 0 L11 0 L293 690 L415 690 L697 0 Z M505 795 L202 795 L202 871 L505 871 L505 795 Z " />
<glyph glyph-name="Aogonek" unicode="&#x104;" horiz-adv-x="709" d="M668 -126 L668 -184 Q644 -199 622 -205 Q600 -211 572 -211 Q520 -211 486 -185.5 Q452 -160 452 -120 Q452 -82 484 -47.5 Q516 -13 578 17 L523 154 L179 154 L118 0 L11 0 L293 690 L415 690 L697 0 L630 0 Q572 -33 549 -56.5 Q526 -80 526 -103 Q526 -127 543.5 -140.5 Q561 -154 590 -154 Q609 -154 630 -146.5 Q651 -139 668 -126 Z M489 240 L351 584 L214 240 L489 240 Z " />
<glyph glyph-name="Ccedilla" unicode="&#xc7;" horiz-adv-x="652" d="M484 -124 Q484 -162 453.5 -185.5 Q423 -209 372 -209 Q345 -209 324.5 -205 Q304 -201 282 -191 L282 -141 Q308 -152 326.5 -156.5 Q345 -161 365 -161 Q390 -161 404 -152.5 Q418 -144 418 -127 Q418 -111 405.5 -102.5 Q393 -94 369 -94 L321 -94 L338 -5 Q205 15 124.5 110.5 Q44 206 44 345 Q44 500 145 600 Q246 700 402 700 Q460 700 511 687 Q562 674 599 649 L599 551 Q557 578 507.5 591.5 Q458 605 404 605 Q289 605 220 534 Q151 463 151 346 Q151 226 220.5 155 Q290 84 407 84 Q461 84 511 96.5 Q561 109 610 135 L610 37 Q565 13 514.5 1.5 Q464 -10 401 -10 Q396 -10 390.5 -10 Q385 -10 380 -10 L371 -53 L392 -53 Q435 -53 459.5 -72 Q484 -91 484 -124 Z " />
<glyph glyph-name="Cacute" unicode="&#x106;" horiz-adv-x="652" d="M407 84 Q461 84 511 96.5 Q561 109 610 135 L610 37 Q565 13 514.5 1.5 Q464 -10 401 -10 Q244 -10 144 89.5 Q44 189 44 345 Q44 500 145 600 Q246 700 402 700 Q460 700 511 687 Q562 674 599 649 L599 551 Q557 578 507.5 591.5 Q458 605 404 605 Q289 605 220 534 Q151 463 151 346 Q151 226 220.5 155 Q290 84 407 84 Z M376 764 L288 764 L390 901 L499 901 L376 764 Z " />
<glyph glyph-name="Ccaron" unicode="&#x10c;" horiz-adv-x="652" d="M407 84 Q461 84 511 96.5 Q561 109 610 135 L610 37 Q565 13 514.5 1.5 Q464 -10 401 -10 Q244 -10 144 89.5 Q44 189 44 345 Q44 500 145 600 Q246 700 402 700 Q460 700 511 687 Q562 674 599 649 L599 551 Q557 578 507.5 591.5 Q458 605 404 605 Q289 605 220 534 Q151 463 151 346 Q151 226 220.5 155 Q290 84 407 84 Z M413 764 L311 764 L198 901 L274 901 L360 812 L445 901 L527 901 L413 764 Z " />
<glyph glyph-name="Ccircumflex" unicode="&#x108;" horiz-adv-x="652" d="M407 84 Q461 84 511 96.5 Q561 109 610 135 L610 37 Q565 13 514.5 1.5 Q464 -10 401 -10 Q244 -10 144 89.5 Q44 189 44 345 Q44 500 145 600 Q246 700 402 700 Q460 700 511 687 Q562 674 599 649 L599 551 Q557 578 507.5 591.5 Q458 605 404 605 Q289 605 220 534 Q151 463 151 346 Q151 226 220.5 155 Q290 84 407 84 Z M526 764 L444 764 L359 854 L273 764 L197 764 L310 901 L412 901 L526 764 Z " />
<glyph glyph-name="Cdotaccent" unicode="&#x10a;" horiz-adv-x="652" d="M407 84 Q461 84 511 96.5 Q561 109 610 135 L610 37 Q565 13 514.5 1.5 Q464 -10 401 -10 Q244 -10 144 89.5 Q44 189 44 345 Q44 500 145 600 Q246 700 402 700 Q460 700 511 687 Q562 674 599 649 L599 551 Q557 578 507.5 591.5 Q458 605 404 605 Q289 605 220 534 Q151 463 151 346 Q151 226 220.5 155 Q290 84 407 84 Z M327 903 L424 903 L424 770 L327 770 L327 903 Z " />
<glyph glyph-name="Dcaron" unicode="&#x10e;" horiz-adv-x="727" d="M576 346 Q576 460 510 529 Q444 598 334 598 L186 598 L186 91 L334 91 Q445 91 510.5 160 Q576 229 576 346 Z M333 0 L83 0 L83 690 L338 690 Q488 690 585.5 593 Q683 496 683 347 Q683 194 585 97 Q487 0 333 0 Z M408 764 L306 764 L193 901 L269 901 L355 812 L440 901 L522 901 L408 764 Z " />
<glyph glyph-name="Dcroat" unicode="&#x110;" horiz-adv-x="730" d="M328 383 L328 308 L189 308 L189 91 L337 91 Q448 91 513 159.5 Q578 228 578 346 Q578 461 512.5 529.5 Q447 598 337 598 L189 598 L189 383 L328 383 Z M335 0 L85 0 L85 308 L14 308 L14 383 L85 383 L85 690 L340 690 Q490 690 588 593 Q686 496 686 347 Q686 194 588 97 Q490 0 335 0 Z " />
<glyph glyph-name="Eacute" unicode="&#xc9;" horiz-adv-x="590" d="M541 690 L541 598 L186 598 L186 398 L448 398 L448 306 L186 306 L186 91 L541 91 L541 0 L83 0 L83 690 L541 690 Z M320 764 L232 764 L334 901 L443 901 L320 764 Z " />
<glyph glyph-name="Ecircumflex" unicode="&#xca;" horiz-adv-x="590" d="M541 690 L541 598 L186 598 L186 398 L448 398 L448 306 L186 306 L186 91 L541 91 L541 0 L83 0 L83 690 L541 690 Z M474 764 L392 764 L307 854 L221 764 L145 764 L258 901 L360 901 L474 764 Z " />
<glyph glyph-name="Edieresis" unicode="&#xcb;" horiz-adv-x="590" d="M541 690 L541 598 L186 598 L186 398 L448 398 L448 306 L186 306 L186 91 L541 91 L541 0 L83 0 L83 690 L541 690 Z M437 770 L353 770 L353 903 L437 903 L437 770 Z M262 770 L178 770 L178 903 L262 903 L262 770 Z " />
<glyph glyph-name="Egrave" unicode="&#xc8;" horiz-adv-x="590" d="M541 690 L541 598 L186 598 L186 398 L448 398 L448 306 L186 306 L186 91 L541 91 L541 0 L83 0 L83 690 L541 690 Z M172 901 L281 901 L382 764 L295 764 L172 901 Z " />
<glyph glyph-name="Ebreve" unicode="&#x114;" horiz-adv-x="590" d="M541 690 L541 598 L186 598 L186 398 L448 398 L448 306 L186 306 L186 91 L541 91 L541 0 L83 0 L83 690 L541 690 Z M310 825 Q348 825 371 843 Q394 861 405 900 L470 900 Q462 837 419.5 800 Q377 763 310 763 Q243 763 200.5 800 Q158 837 151 900 L216 900 Q226 862 249 843.5 Q272 825 310 825 Z " />
<glyph glyph-name="Ecaron" unicode="&#x11a;" horiz-adv-x="590" d="M541 690 L541 598 L186 598 L186 398 L448 398 L448 306 L186 306 L186 91 L541 91 L541 0 L83 0 L83 690 L541 690 Z M356 764 L254 764 L141 901 L217 901 L303 812 L388 901 L470 901 L356 764 Z " />
<glyph glyph-name="Edotaccent" unicode="&#x116;" horiz-adv-x="590" d="M541 690 L541 598 L186 598 L186 398 L448 398 L448 306 L186 306 L186 91 L541 91 L541 0 L83 0 L83 690 L541 690 Z M263 903 L360 903 L360 770 L263 770 L263 903 Z " />
<glyph glyph-name="Emacron" unicode="&#x112;" horiz-adv-x="590" d="M541 690 L541 598 L186 598 L186 398 L448 398 L448 306 L186 306 L186 91 L541 91 L541 0 L83 0 L83 690 L541 690 Z M458 795 L155 795 L155 871 L458 871 L458 795 Z " />
<glyph glyph-name="Eogonek" unicode="&#x118;" horiz-adv-x="590" d="M534 -126 L534 -184 Q510 -199 488 -205 Q466 -211 438 -211 Q386 -211 352 -185.5 Q318 -160 318 -120 Q318 -87 342.5 -57.5 Q367 -28 419 0 L83 0 L83 690 L541 690 L541 598 L186 598 L186 398 L448 398 L448 306 L186 306 L186 91 L541 91 L541 0 L489 0 Q438 -29 415 -53.5 Q392 -78 392 -103 Q392 -127 409.5 -140.5 Q427 -154 456 -154 Q475 -154 496 -146.5 Q517 -139 534 -126 Z " />
<glyph glyph-name="Gbreve" unicode="&#x11e;" horiz-adv-x="729" d="M673 362 L673 78 Q626 36 554 13 Q482 -10 403 -10 Q244 -10 144 89 Q44 188 44 344 Q44 500 144.5 600 Q245 700 402 700 Q459 700 510 689 Q561 678 598 657 L598 558 Q555 581 506 593 Q457 605 404 605 Q289 605 220 534.5 Q151 464 151 345 Q151 226 221.5 155 Q292 84 410 84 Q462 84 504 96 Q546 108 575 131 L575 276 L404 276 L404 362 L673 362 Z M380 825 Q418 825 441 843 Q464 861 475 900 L540 900 Q532 837 489.5 800 Q447 763 380 763 Q313 763 270.5 800 Q228 837 221 900 L286 900 Q296 862 319 843.5 Q342 825 380 825 Z " />
<glyph glyph-name="Gcircumflex" unicode="&#x11c;" horiz-adv-x="729" d="M673 362 L673 78 Q626 36 554 13 Q482 -10 403 -10 Q244 -10 144 89 Q44 188 44 344 Q44 500 144.5 600 Q245 700 402 700 Q459 700 510 689 Q561 678 598 657 L598 558 Q555 581 506 593 Q457 605 404 605 Q289 605 220 534.5 Q151 464 151 345 Q151 226 221.5 155 Q292 84 410 84 Q462 84 504 96 Q546 108 575 131 L575 276 L404 276 L404 362 L673 362 Z M538 764 L456 764 L371 854 L285 764 L209 764 L322 901 L424 901 L538 764 Z " />
<glyph glyph-name="Gcommaaccent" unicode="&#x122;" horiz-adv-x="729" d="M673 362 L673 78 Q626 36 554 13 Q482 -10 403 -10 Q244 -10 144 89 Q44 188 44 344 Q44 500 144.5 600 Q245 700 402 700 Q459 700 510 689 Q561 678 598 657 L598 558 Q555 581 506 593 Q457 605 404 605 Q289 605 220 534.5 Q151 464 151 345 Q151 226 221.5 155 Q292 84 410 84 Q462 84 504 96 Q546 108 575 131 L575 276 L404 276 L404 362 L673 362 Z M340 -175 L340 -64 L440 -64 L440 -133 Q440 -177 420.5 -210 Q401 -243 362 -265 L338 -245 Q357 -232 368.5 -214 Q380 -196 383 -175 L340 -175 Z " />
<glyph glyph-name="Gdotaccent" unicode="&#x120;" horiz-adv-x="729" d="M673 362 L673 78 Q626 36 554 13 Q482 -10 403 -10 Q244 -10 144 89 Q44 188 44 344 Q44 500 144.5 600 Q245 700 402 700 Q459 700 510 689 Q561 678 598 657 L598 558 Q555 581 506 593 Q457 605 404 605 Q289 605 220 534.5 Q151 464 151 345 Q151 226 221.5 155 Q292 84 410 84 Q462 84 504 96 Q546 108 575 131 L575 276 L404 276 L404 362 L673 362 Z M317 903 L414 903 L414 770 L317 770 L317 903 Z " />
<glyph glyph-name="Hbar" unicode="&#x126;" horiz-adv-x="753" d="M186 372 L566 372 L566 484 L186 484 L186 372 Z M670 0 L566 0 L566 294 L186 294 L186 0 L83 0 L83 484 L23 484 L23 562 L83 562 L83 690 L186 690 L186 562 L566 562 L566 690 L670 690 L670 562 L730 562 L730 484 L670 484 L670 0 Z " />
<glyph glyph-name="Hcircumflex" unicode="&#x124;" horiz-adv-x="753" d="M670 0 L566 0 L566 294 L186 294 L186 0 L83 0 L83 690 L186 690 L186 386 L566 386 L566 690 L670 690 L670 0 Z M540 764 L458 764 L373 854 L287 764 L211 764 L324 901 L426 901 L540 764 Z " />
<glyph glyph-name="Iacute" unicode="&#xcd;" horiz-adv-x="269" d="M83 690 L186 690 L186 0 L83 0 L83 690 Z M155 764 L67 764 L169 901 L278 901 L155 764 Z " />
<glyph glyph-name="Icircumflex" unicode="&#xce;" horiz-adv-x="269" d="M83 690 L186 690 L186 0 L83 0 L83 690 Z M299 764 L217 764 L132 854 L46 764 L-30 764 L83 901 L185 901 L299 764 Z " />
<glyph glyph-name="Idieresis" unicode="&#xcf;" horiz-adv-x="269" d="M83 690 L186 690 L186 0 L83 0 L83 690 Z M264 770 L180 770 L180 903 L264 903 L264 770 Z M89 770 L5 770 L5 903 L89 903 L89 770 Z " />
<glyph glyph-name="Igrave" unicode="&#xcc;" horiz-adv-x="269" d="M83 690 L186 690 L186 0 L83 0 L83 690 Z M-4 901 L105 901 L206 764 L119 764 L-4 901 Z " />
<glyph glyph-name="Ibreve" unicode="&#x12c;" horiz-adv-x="269" d="M83 690 L186 690 L186 0 L83 0 L83 690 Z M129 825 Q167 825 190 843 Q213 861 224 900 L289 900 Q281 837 238.5 800 Q196 763 129 763 Q62 763 19.5 800 Q-23 837 -30 900 L35 900 Q45 862 68 843.5 Q91 825 129 825 Z " />
<glyph glyph-name="Idot" unicode="&#x130;" horiz-adv-x="269" d="M83 690 L186 690 L186 0 L83 0 L83 690 Z M86 903 L183 903 L183 770 L86 770 L86 903 Z " />
<glyph glyph-name="Imacron" unicode="&#x12a;" horiz-adv-x="269" d="M83 690 L186 690 L186 0 L83 0 L83 690 Z M286 795 L-17 795 L-17 871 L286 871 L286 795 Z " />
<glyph glyph-name="Iogonek" unicode="&#x12e;" horiz-adv-x="269" d="M183 -126 L183 -184 Q158 -199 136 -205 Q114 -211 87 -211 Q35 -211 1.5 -186 Q-32 -161 -32 -120 Q-32 -83 -2.5 -49 Q27 -15 83 14 L83 690 L186 690 L186 0 L135 0 Q81 -34 60.5 -57 Q40 -80 40 -103 Q40 -126 58 -140 Q76 -154 105 -154 Q123 -154 144 -146.5 Q165 -139 183 -126 Z " />
<glyph glyph-name="Itilde" unicode="&#x128;" horiz-adv-x="269" d="M83 690 L186 690 L186 0 L83 0 L83 690 Z M149 861 Q172 843 184.5 837.5 Q197 832 209 832 Q229 832 241.5 849 Q254 866 256 896 L319 896 Q318 842 288 805.5 Q258 769 212 769 Q189 769 169 777 Q149 785 118 809 Q97 826 86.5 831 Q76 836 66 836 Q45 836 31.5 818.5 Q18 801 15 770 L-48 770 Q-46 830 -18 864.5 Q10 899 58 899 Q79 899 98.5 891.5 Q118 884 149 861 Z " />
<glyph glyph-name="Jcircumflex" unicode="&#x134;" horiz-adv-x="451" d="M144 -10 Q119 -10 88.5 -5.5 Q58 -1 38 6 L38 98 Q60 91 85 87.5 Q110 84 139 84 Q203 84 236 120.5 Q269 157 269 228 L269 690 L373 690 L373 230 Q373 119 311 54.5 Q249 -10 144 -10 Z M467 764 L385 764 L300 854 L214 764 L138 764 L251 901 L353 901 L467 764 Z " />
<glyph glyph-name="IJ" unicode="&#x132;" horiz-adv-x="720" d="M83 690 L186 690 L186 0 L83 0 L83 690 Z M413 -10 Q388 -10 357.5 -5.5 Q327 -1 307 6 L307 98 Q329 91 354 87.5 Q379 84 408 84 Q472 84 505 120.5 Q538 157 538 228 L538 690 L642 690 L642 230 Q642 119 580 54.5 Q518 -10 413 -10 Z " />
<glyph glyph-name="Kcommaaccent" unicode="&#x136;" horiz-adv-x="662" d="M645 0 L519 0 L278 299 L186 193 L186 0 L83 0 L83 690 L186 690 L186 324 L498 690 L613 690 L344 376 L645 0 Z M282 -175 L282 -64 L382 -64 L382 -133 Q382 -177 362.5 -210 Q343 -243 304 -265 L280 -245 Q299 -232 310.5 -214 Q322 -196 325 -175 L282 -175 Z " />
<glyph glyph-name="Lacute" unicode="&#x139;" horiz-adv-x="591" d="M83 690 L186 690 L186 91 L546 91 L546 0 L83 0 L83 690 Z M202 764 L114 764 L216 901 L325 901 L202 764 Z " />
<glyph glyph-name="Lcaron" unicode="&#x13d;" horiz-adv-x="591" d="M83 690 L186 690 L186 91 L546 91 L546 0 L83 0 L83 690 Z M304 598 L304 710 L404 710 L404 640 Q404 590 385 553.5 Q366 517 326 490 L302 510 Q321 527 332.5 549.5 Q344 572 347 598 L304 598 Z " />
<glyph glyph-name="Lcommaaccent" unicode="&#x13b;" horiz-adv-x="591" d="M83 690 L186 690 L186 91 L546 91 L546 0 L83 0 L83 690 Z M253 -175 L253 -64 L353 -64 L353 -133 Q353 -177 333.5 -210 Q314 -243 275 -265 L251 -245 Q270 -232 281.5 -214 Q293 -196 296 -175 L253 -175 Z " />
<glyph glyph-name="Ldot" unicode="&#x13f;" horiz-adv-x="591" d="M83 690 L186 690 L186 91 L546 91 L546 0 L83 0 L83 690 Z M359 315 L359 437 L467 437 L467 315 L359 315 Z " />
<glyph glyph-name="Ntilde" unicode="&#xd1;" horiz-adv-x="746" d="M663 0 L565 0 L186 517 L186 0 L83 0 L83 690 L180 690 L559 166 L559 690 L663 690 L663 0 Z M387 861 Q410 843 422.5 837.5 Q435 832 447 832 Q467 832 479.5 849 Q492 866 494 896 L557 896 Q556 842 526 805.5 Q496 769 450 769 Q427 769 407 777 Q387 785 356 809 Q335 826 324.5 831 Q314 836 304 836 Q283 836 269.5 818.5 Q256 801 253 770 L190 770 Q192 830 220 864.5 Q248 899 296 899 Q317 899 336.5 891.5 Q356 884 387 861 Z " />
<glyph glyph-name="Nacute" unicode="&#x143;" horiz-adv-x="746" d="M663 0 L565 0 L186 517 L186 0 L83 0 L83 690 L180 690 L559 166 L559 690 L663 690 L663 0 Z M387 764 L299 764 L401 901 L510 901 L387 764 Z " />
<glyph glyph-name="Ncaron" unicode="&#x147;" horiz-adv-x="746" d="M663 0 L565 0 L186 517 L186 0 L83 0 L83 690 L180 690 L559 166 L559 690 L663 690 L663 0 Z M423 764 L321 764 L208 901 L284 901 L370 812 L455 901 L537 901 L423 764 Z " />
<glyph glyph-name="Ncommaaccent" unicode="&#x145;" horiz-adv-x="746" d="M663 0 L565 0 L186 517 L186 0 L83 0 L83 690 L180 690 L559 166 L559 690 L663 690 L663 0 Z M324 -175 L324 -64 L424 -64 L424 -133 Q424 -177 404.5 -210 Q385 -243 346 -265 L322 -245 Q341 -232 352.5 -214 Q364 -196 367 -175 L324 -175 Z " />
<glyph glyph-name="Oacute" unicode="&#xd3;" horiz-adv-x="796" d="M397 -10 Q245 -10 145.5 90.5 Q46 191 46 344 Q46 498 146 599 Q246 700 398 700 Q550 700 649.5 599 Q749 498 749 345 Q749 191 649 90.5 Q549 -10 397 -10 Z M398 84 Q507 84 574.5 156 Q642 228 642 345 Q642 461 574.5 533 Q507 605 398 605 Q288 605 220.5 533 Q153 461 153 345 Q153 228 220.5 156 Q288 84 398 84 Z M412 764 L324 764 L426 901 L535 901 L412 764 Z " />
<glyph glyph-name="Ocircumflex" unicode="&#xd4;" horiz-adv-x="796" d="M397 -10 Q245 -10 145.5 90.5 Q46 191 46 344 Q46 498 146 599 Q246 700 398 700 Q550 700 649.5 599 Q749 498 749 345 Q749 191 649 90.5 Q549 -10 397 -10 Z M398 84 Q507 84 574.5 156 Q642 228 642 345 Q642 461 574.5 533 Q507 605 398 605 Q288 605 220.5 533 Q153 461 153 345 Q153 228 220.5 156 Q288 84 398 84 Z M562 764 L480 764 L395 854 L309 764 L233 764 L346 901 L448 901 L562 764 Z " />
<glyph glyph-name="Odieresis" unicode="&#xd6;" horiz-adv-x="796" d="M397 -10 Q245 -10 145.5 90.5 Q46 191 46 344 Q46 498 146 599 Q246 700 398 700 Q550 700 649.5 599 Q749 498 749 345 Q749 191 649 90.5 Q549 -10 397 -10 Z M398 84 Q507 84 574.5 156 Q642 228 642 345 Q642 461 574.5 533 Q507 605 398 605 Q288 605 220.5 533 Q153 461 153 345 Q153 228 220.5 156 Q288 84 398 84 Z M527 770 L443 770 L443 903 L527 903 L527 770 Z M352 770 L268 770 L268 903 L352 903 L352 770 Z " />
<glyph glyph-name="Ograve" unicode="&#xd2;" horiz-adv-x="796" d="M397 -10 Q245 -10 145.5 90.5 Q46 191 46 344 Q46 498 146 599 Q246 700 398 700 Q550 700 649.5 599 Q749 498 749 345 Q749 191 649 90.5 Q549 -10 397 -10 Z M398 84 Q507 84 574.5 156 Q642 228 642 345 Q642 461 574.5 533 Q507 605 398 605 Q288 605 220.5 533 Q153 461 153 345 Q153 228 220.5 156 Q288 84 398 84 Z M250 901 L359 901 L460 764 L373 764 L250 901 Z " />
<glyph glyph-name="Otilde" unicode="&#xd5;" horiz-adv-x="796" d="M397 -10 Q245 -10 145.5 90.5 Q46 191 46 344 Q46 498 146 599 Q246 700 398 700 Q550 700 649.5 599 Q749 498 749 345 Q749 191 649 90.5 Q549 -10 397 -10 Z M398 84 Q507 84 574.5 156 Q642 228 642 345 Q642 461 574.5 533 Q507 605 398 605 Q288 605 220.5 533 Q153 461 153 345 Q153 228 220.5 156 Q288 84 398 84 Z M412 861 Q435 843 447.5 837.5 Q460 832 472 832 Q492 832 504.5 849 Q517 866 519 896 L582 896 Q581 842 551 805.5 Q521 769 475 769 Q452 769 432 777 Q412 785 381 809 Q360 826 349.5 831 Q339 836 329 836 Q308 836 294.5 818.5 Q281 801 278 770 L215 770 Q217 830 245 864.5 Q273 899 321 899 Q342 899 361.5 891.5 Q381 884 412 861 Z " />
<glyph glyph-name="Obreve" unicode="&#x14e;" horiz-adv-x="796" d="M397 -10 Q245 -10 145.5 90.5 Q46 191 46 344 Q46 498 146 599 Q246 700 398 700 Q550 700 649.5 599 Q749 498 749 345 Q749 191 649 90.5 Q549 -10 397 -10 Z M398 84 Q507 84 574.5 156 Q642 228 642 345 Q642 461 574.5 533 Q507 605 398 605 Q288 605 220.5 533 Q153 461 153 345 Q153 228 220.5 156 Q288 84 398 84 Z M392 825 Q430 825 453 843 Q476 861 487 900 L552 900 Q544 837 501.5 800 Q459 763 392 763 Q325 763 282.5 800 Q240 837 233 900 L298 900 Q308 862 331 843.5 Q354 825 392 825 Z " />
<glyph glyph-name="Ohungarumlaut" unicode="&#x150;" horiz-adv-x="796" d="M397 -10 Q245 -10 145.5 90.5 Q46 191 46 344 Q46 498 146 599 Q246 700 398 700 Q550 700 649.5 599 Q749 498 749 345 Q749 191 649 90.5 Q549 -10 397 -10 Z M398 84 Q507 84 574.5 156 Q642 228 642 345 Q642 461 574.5 533 Q507 605 398 605 Q288 605 220.5 533 Q153 461 153 345 Q153 228 220.5 156 Q288 84 398 84 Z M501 764 L415 764 L518 901 L626 901 L501 764 Z M319 764 L232 764 L336 901 L444 901 L319 764 Z " />
<glyph glyph-name="Omacron" unicode="&#x14c;" horiz-adv-x="796" d="M397 -10 Q245 -10 145.5 90.5 Q46 191 46 344 Q46 498 146 599 Q246 700 398 700 Q550 700 649.5 599 Q749 498 749 345 Q749 191 649 90.5 Q549 -10 397 -10 Z M398 84 Q507 84 574.5 156 Q642 228 642 345 Q642 461 574.5 533 Q507 605 398 605 Q288 605 220.5 533 Q153 461 153 345 Q153 228 220.5 156 Q288 84 398 84 Z M549 795 L246 795 L246 871 L549 871 L549 795 Z " />
<glyph glyph-name="Racute" unicode="&#x154;" horiz-adv-x="653" d="M486 487 Q486 537 449 567.5 Q412 598 351 598 L186 598 L186 373 L351 373 Q412 373 449 404.5 Q486 436 486 487 Z M625 0 L504 0 L336 284 L186 284 L186 0 L83 0 L83 690 L351 690 Q456 690 525 633.5 Q594 577 594 490 Q594 422 552.5 370.5 Q511 319 440 297 L625 0 Z M334 764 L246 764 L348 901 L457 901 L334 764 Z " />
<glyph glyph-name="Rcaron" unicode="&#x158;" horiz-adv-x="653" d="M486 487 Q486 537 449 567.5 Q412 598 351 598 L186 598 L186 373 L351 373 Q412 373 449 404.5 Q486 436 486 487 Z M625 0 L504 0 L336 284 L186 284 L186 0 L83 0 L83 690 L351 690 Q456 690 525 633.5 Q594 577 594 490 Q594 422 552.5 370.5 Q511 319 440 297 L625 0 Z M366 764 L264 764 L151 901 L227 901 L313 812 L398 901 L480 901 L366 764 Z " />
<glyph glyph-name="Rcommaaccent" unicode="&#x156;" horiz-adv-x="653" d="M486 487 Q486 537 449 567.5 Q412 598 351 598 L186 598 L186 373 L351 373 Q412 373 449 404.5 Q486 436 486 487 Z M625 0 L504 0 L336 284 L186 284 L186 0 L83 0 L83 690 L351 690 Q456 690 525 633.5 Q594 577 594 490 Q594 422 552.5 370.5 Q511 319 440 297 L625 0 Z M279 -175 L279 -64 L379 -64 L379 -133 Q379 -177 359.5 -210 Q340 -243 301 -265 L277 -245 Q296 -232 307.5 -214 Q319 -196 322 -175 L279 -175 Z " />
<glyph glyph-name="Scaron" unicode="&#x160;" horiz-adv-x="590" d="M280 -10 Q211 -10 150.5 5 Q90 20 46 48 L46 150 Q104 115 164.5 98 Q225 81 288 81 Q362 81 403 107.5 Q444 134 444 182 Q444 223 409 250.5 Q374 278 274 310 Q153 349 100.5 396.5 Q48 444 48 512 Q48 596 119 648 Q190 700 306 700 Q364 700 413.5 689.5 Q463 679 505 657 L505 561 Q457 584 404.5 596 Q352 608 301 608 Q233 608 194 584 Q155 560 155 518 Q155 482 188.5 458 Q222 434 334 396 Q454 356 503 309.5 Q552 263 552 189 Q552 98 477 44 Q402 -10 280 -10 Z M345 764 L243 764 L130 901 L206 901 L292 812 L377 901 L459 901 L345 764 Z " />
<glyph glyph-name="Sacute" unicode="&#x15a;" horiz-adv-x="590" d="M280 -10 Q211 -10 150.5 5 Q90 20 46 48 L46 150 Q104 115 164.5 98 Q225 81 288 81 Q362 81 403 107.5 Q444 134 444 182 Q444 223 409 250.5 Q374 278 274 310 Q153 349 100.5 396.5 Q48 444 48 512 Q48 596 119 648 Q190 700 306 700 Q364 700 413.5 689.5 Q463 679 505 657 L505 561 Q457 584 404.5 596 Q352 608 301 608 Q233 608 194 584 Q155 560 155 518 Q155 482 188.5 458 Q222 434 334 396 Q454 356 503 309.5 Q552 263 552 189 Q552 98 477 44 Q402 -10 280 -10 Z M305 764 L217 764 L319 901 L428 901 L305 764 Z " />
<glyph glyph-name="Scedilla" unicode="&#x15e;" horiz-adv-x="590" d="M402 -124 Q402 -162 371 -185.5 Q340 -209 289 -209 Q263 -209 243 -205 Q223 -201 199 -191 L199 -141 Q225 -152 243.5 -156.5 Q262 -161 283 -161 Q308 -161 321.5 -152.5 Q335 -144 335 -127 Q335 -111 322.5 -102.5 Q310 -94 287 -94 L238 -94 L255 -9 Q194 -7 140 8 Q86 23 46 48 L46 150 Q104 115 164.5 98 Q225 81 288 81 Q362 81 403 107.5 Q444 134 444 182 Q444 223 409 250.5 Q374 278 274 310 Q153 349 100.5 396.5 Q48 444 48 512 Q48 596 119 648 Q190 700 306 700 Q364 700 413.5 689.5 Q463 679 505 657 L505 561 Q457 584 404.5 596 Q352 608 301 608 Q233 608 194 584 Q155 560 155 518 Q155 482 188.5 458 Q222 434 334 396 Q454 356 503 309.5 Q552 263 552 189 Q552 102 482.5 48.5 Q413 -5 298 -10 L289 -53 L309 -53 Q352 -53 377 -72 Q402 -91 402 -124 Z " />
<glyph glyph-name="Scircumflex" unicode="&#x15c;" horiz-adv-x="590" d="M280 -10 Q211 -10 150.5 5 Q90 20 46 48 L46 150 Q104 115 164.5 98 Q225 81 288 81 Q362 81 403 107.5 Q444 134 444 182 Q444 223 409 250.5 Q374 278 274 310 Q153 349 100.5 396.5 Q48 444 48 512 Q48 596 119 648 Q190 700 306 700 Q364 700 413.5 689.5 Q463 679 505 657 L505 561 Q457 584 404.5 596 Q352 608 301 608 Q233 608 194 584 Q155 560 155 518 Q155 482 188.5 458 Q222 434 334 396 Q454 356 503 309.5 Q552 263 552 189 Q552 98 477 44 Q402 -10 280 -10 Z M459 764 L377 764 L292 854 L206 764 L130 764 L243 901 L345 901 L459 764 Z " />
<glyph glyph-name="uni0218" unicode="&#x218;" horiz-adv-x="590" d="M280 -10 Q211 -10 150.5 5 Q90 20 46 48 L46 150 Q104 115 164.5 98 Q225 81 288 81 Q362 81 403 107.5 Q444 134 444 182 Q444 223 409 250.5 Q374 278 274 310 Q153 349 100.5 396.5 Q48 444 48 512 Q48 596 119 648 Q190 700 306 700 Q364 700 413.5 689.5 Q463 679 505 657 L505 561 Q457 584 404.5 596 Q352 608 301 608 Q233 608 194 584 Q155 560 155 518 Q155 482 188.5 458 Q222 434 334 396 Q454 356 503 309.5 Q552 263 552 189 Q552 98 477 44 Q402 -10 280 -10 Z M246 -175 L246 -64 L346 -64 L346 -133 Q346 -177 326.5 -210 Q307 -243 268 -265 L244 -245 Q263 -232 274.5 -214 Q286 -196 289 -175 L246 -175 Z " />
<glyph glyph-name="Tbar" unicode="&#x166;" horiz-adv-x="604" d="M489 397 L489 320 L354 320 L354 0 L250 0 L250 320 L115 320 L115 397 L250 397 L250 598 L24 598 L24 690 L580 690 L580 598 L354 598 L354 397 L489 397 Z " />
<glyph glyph-name="Tcaron" unicode="&#x164;" horiz-adv-x="604" d="M580 690 L580 598 L354 598 L354 0 L250 0 L250 598 L24 598 L24 690 L580 690 Z M352 764 L250 764 L137 901 L213 901 L299 812 L384 901 L466 901 L352 764 Z " />
<glyph glyph-name="uni0162" unicode="&#x162;" horiz-adv-x="604" d="M580 690 L580 598 L354 598 L354 0 L250 0 L250 598 L24 598 L24 690 L580 690 Z M256 -175 L256 -64 L356 -64 L356 -133 Q356 -177 336.5 -210 Q317 -243 278 -265 L254 -245 Q273 -232 284.5 -214 Q296 -196 299 -175 L256 -175 Z " />
<glyph glyph-name="uni021A" unicode="&#x21a;" horiz-adv-x="604" d="M580 690 L580 598 L354 598 L354 0 L250 0 L250 598 L24 598 L24 690 L580 690 Z M256 -175 L256 -64 L356 -64 L356 -133 Q356 -177 336.5 -210 Q317 -243 278 -265 L254 -245 Q273 -232 284.5 -214 Q296 -196 299 -175 L256 -175 Z " />
<glyph glyph-name="Uacute" unicode="&#xda;" horiz-adv-x="724" d="M542 264 L542 690 L646 690 L646 262 Q646 139 568 64.5 Q490 -10 361 -10 Q233 -10 155.5 66 Q78 142 78 266 L78 690 L181 690 L181 264 Q181 181 229.5 132.5 Q278 84 361 84 Q445 84 493.5 132.5 Q542 181 542 264 Z M376 764 L288 764 L390 901 L499 901 L376 764 Z " />
<glyph glyph-name="Ucircumflex" unicode="&#xdb;" horiz-adv-x="724" d="M542 264 L542 690 L646 690 L646 262 Q646 139 568 64.5 Q490 -10 361 -10 Q233 -10 155.5 66 Q78 142 78 266 L78 690 L181 690 L181 264 Q181 181 229.5 132.5 Q278 84 361 84 Q445 84 493.5 132.5 Q542 181 542 264 Z M526 764 L444 764 L359 854 L273 764 L197 764 L310 901 L412 901 L526 764 Z " />
<glyph glyph-name="Udieresis" unicode="&#xdc;" horiz-adv-x="724" d="M542 264 L542 690 L646 690 L646 262 Q646 139 568 64.5 Q490 -10 361 -10 Q233 -10 155.5 66 Q78 142 78 266 L78 690 L181 690 L181 264 Q181 181 229.5 132.5 Q278 84 361 84 Q445 84 493.5 132.5 Q542 181 542 264 Z M491 770 L407 770 L407 903 L491 903 L491 770 Z M316 770 L232 770 L232 903 L316 903 L316 770 Z " />
<glyph glyph-name="Ugrave" unicode="&#xd9;" horiz-adv-x="724" d="M542 264 L542 690 L646 690 L646 262 Q646 139 568 64.5 Q490 -10 361 -10 Q233 -10 155.5 66 Q78 142 78 266 L78 690 L181 690 L181 264 Q181 181 229.5 132.5 Q278 84 361 84 Q445 84 493.5 132.5 Q542 181 542 264 Z M224 901 L333 901 L434 764 L347 764 L224 901 Z " />
<glyph glyph-name="Ubreve" unicode="&#x16c;" horiz-adv-x="724" d="M542 264 L542 690 L646 690 L646 262 Q646 139 568 64.5 Q490 -10 361 -10 Q233 -10 155.5 66 Q78 142 78 266 L78 690 L181 690 L181 264 Q181 181 229.5 132.5 Q278 84 361 84 Q445 84 493.5 132.5 Q542 181 542 264 Z M356 825 Q394 825 417 843 Q440 861 451 900 L516 900 Q508 837 465.5 800 Q423 763 356 763 Q289 763 246.5 800 Q204 837 197 900 L262 900 Q272 862 295 843.5 Q318 825 356 825 Z " />
<glyph glyph-name="Uhungarumlaut" unicode="&#x170;" horiz-adv-x="724" d="M542 264 L542 690 L646 690 L646 262 Q646 139 568 64.5 Q490 -10 361 -10 Q233 -10 155.5 66 Q78 142 78 266 L78 690 L181 690 L181 264 Q181 181 229.5 132.5 Q278 84 361 84 Q445 84 493.5 132.5 Q542 181 542 264 Z M465 764 L379 764 L482 901 L590 901 L465 764 Z M283 764 L196 764 L300 901 L408 901 L283 764 Z " />
<glyph glyph-name="Umacron" unicode="&#x16a;" horiz-adv-x="724" d="M542 264 L542 690 L646 690 L646 262 Q646 139 568 64.5 Q490 -10 361 -10 Q233 -10 155.5 66 Q78 142 78 266 L78 690 L181 690 L181 264 Q181 181 229.5 132.5 Q278 84 361 84 Q445 84 493.5 132.5 Q542 181 542 264 Z M513 795 L210 795 L210 871 L513 871 L513 795 Z " />
<glyph glyph-name="Uogonek" unicode="&#x172;" horiz-adv-x="724" d="M415 -211 Q363 -211 329 -185.5 Q295 -160 295 -120 Q295 -90 314 -63 Q333 -36 372 -10 L361 -10 Q233 -10 155.5 66 Q78 142 78 266 L78 690 L181 690 L181 264 Q181 181 229.5 132.5 Q278 84 361 84 Q445 84 493.5 132.5 Q542 181 542 264 L542 690 L646 690 L646 262 Q646 165 596 96.5 Q546 28 457 3 Q408 -29 388.5 -53.5 Q369 -78 369 -103 Q369 -127 386.5 -140.5 Q404 -154 433 -154 Q452 -154 473 -146.5 Q494 -139 511 -126 L511 -184 Q487 -199 465 -205 Q443 -211 415 -211 Z " />
<glyph glyph-name="Uring" unicode="&#x16e;" horiz-adv-x="724" d="M542 264 L542 690 L646 690 L646 262 Q646 139 568 64.5 Q490 -10 361 -10 Q233 -10 155.5 66 Q78 142 78 266 L78 690 L181 690 L181 264 Q181 181 229.5 132.5 Q278 84 361 84 Q445 84 493.5 132.5 Q542 181 542 264 Z M254 850 Q254 896 284.5 925.5 Q315 955 362 955 Q408 955 438.5 924.5 Q469 894 469 850 Q469 805 438.5 775 Q408 745 362 745 Q316 745 285 775 Q254 805 254 850 Z M310 851 Q310 827 324.5 812 Q339 797 362 797 Q385 797 399.5 812 Q414 827 414 851 Q414 874 399.5 888.5 Q385 903 362 903 Q339 903 324.5 888.5 Q310 874 310 851 Z " />
<glyph glyph-name="Utilde" unicode="&#x168;" horiz-adv-x="724" d="M542 264 L542 690 L646 690 L646 262 Q646 139 568 64.5 Q490 -10 361 -10 Q233 -10 155.5 66 Q78 142 78 266 L78 690 L181 690 L181 264 Q181 181 229.5 132.5 Q278 84 361 84 Q445 84 493.5 132.5 Q542 181 542 264 Z M376 861 Q399 843 411.5 837.5 Q424 832 436 832 Q456 832 468.5 849 Q481 866 483 896 L546 896 Q545 842 515 805.5 Q485 769 439 769 Q416 769 396 777 Q376 785 345 809 Q324 826 313.5 831 Q303 836 293 836 Q272 836 258.5 818.5 Q245 801 242 770 L179 770 Q181 830 209 864.5 Q237 899 285 899 Q306 899 325.5 891.5 Q345 884 376 861 Z " />
<glyph glyph-name="Wacute" unicode="&#x1e82;" horiz-adv-x="1013" d="M713 111 L900 690 L1004 690 L774 0 L654 0 L506 436 L353 0 L239 0 L9 690 L119 690 L304 111 L462 563 L562 563 L713 111 Z M528 764 L440 764 L542 901 L651 901 L528 764 Z " />
<glyph glyph-name="Wcircumflex" unicode="&#x174;" horiz-adv-x="1013" d="M713 111 L900 690 L1004 690 L774 0 L654 0 L506 436 L353 0 L239 0 L9 690 L119 690 L304 111 L462 563 L562 563 L713 111 Z M677 764 L595 764 L510 854 L424 764 L348 764 L461 901 L563 901 L677 764 Z " />
<glyph glyph-name="Wdieresis" unicode="&#x1e84;" horiz-adv-x="1013" d="M713 111 L900 690 L1004 690 L774 0 L654 0 L506 436 L353 0 L239 0 L9 690 L119 690 L304 111 L462 563 L562 563 L713 111 Z M642 770 L558 770 L558 903 L642 903 L642 770 Z M467 770 L383 770 L383 903 L467 903 L467 770 Z " />
<glyph glyph-name="Wgrave" unicode="&#x1e80;" horiz-adv-x="1013" d="M713 111 L900 690 L1004 690 L774 0 L654 0 L506 436 L353 0 L239 0 L9 690 L119 690 L304 111 L462 563 L562 563 L713 111 Z M361 901 L470 901 L571 764 L484 764 L361 901 Z " />
<glyph glyph-name="Yacute" unicode="&#xdd;" horiz-adv-x="668" d="M542 690 L657 690 L386 282 L386 0 L282 0 L282 282 L11 690 L121 690 L331 373 L542 690 Z M352 764 L264 764 L366 901 L475 901 L352 764 Z " />
<glyph glyph-name="Ydieresis" unicode="&#x178;" horiz-adv-x="668" d="M542 690 L657 690 L386 282 L386 0 L282 0 L282 282 L11 690 L121 690 L331 373 L542 690 Z M463 770 L379 770 L379 903 L463 903 L463 770 Z M288 770 L204 770 L204 903 L288 903 L288 770 Z " />
<glyph glyph-name="Ycircumflex" unicode="&#x176;" horiz-adv-x="668" d="M542 690 L657 690 L386 282 L386 0 L282 0 L282 282 L11 690 L121 690 L331 373 L542 690 Z M498 764 L416 764 L331 854 L245 764 L169 764 L282 901 L384 901 L498 764 Z " />
<glyph glyph-name="Ygrave" unicode="&#x1ef2;" horiz-adv-x="668" d="M542 690 L657 690 L386 282 L386 0 L282 0 L282 282 L11 690 L121 690 L331 373 L542 690 Z M190 901 L299 901 L400 764 L313 764 L190 901 Z " />
<glyph glyph-name="Zcaron" unicode="&#x17d;" horiz-adv-x="600" d="M561 0 L39 0 L39 83 L424 591 L46 591 L46 683 L556 683 L556 599 L169 91 L561 91 L561 0 Z M350 764 L248 764 L135 901 L211 901 L297 812 L382 901 L464 901 L350 764 Z " />
<glyph glyph-name="Zacute" unicode="&#x179;" horiz-adv-x="600" d="M561 0 L39 0 L39 83 L424 591 L46 591 L46 683 L556 683 L556 599 L169 91 L561 91 L561 0 Z M314 764 L226 764 L328 901 L437 901 L314 764 Z " />
<glyph glyph-name="Zdotaccent" unicode="&#x17b;" horiz-adv-x="600" d="M561 0 L39 0 L39 83 L424 591 L46 591 L46 683 L556 683 L556 599 L169 91 L561 91 L561 0 Z M251 903 L348 903 L348 770 L251 770 L251 903 Z " />
<glyph glyph-name="aacute" unicode="&#xe1;" horiz-adv-x="584" d="M266 62 Q310 62 347.5 84 Q385 106 411 146 L411 219 Q380 244 342 257.5 Q304 271 266 271 Q208 271 176 244 Q144 217 144 168 Q144 120 177.5 91 Q211 62 266 62 Z M101 396 L101 479 Q136 500 183 511.5 Q230 523 282 523 Q393 523 451 469.5 Q509 416 509 314 L509 0 L411 0 L411 79 Q377 36 329.5 13 Q282 -10 225 -10 Q144 -10 91.5 39 Q39 88 39 163 Q39 240 92 288.5 Q145 337 231 337 Q280 337 325 323.5 Q370 310 407 284 L407 310 Q407 377 371 410 Q335 443 264 443 Q222 443 179 430.5 Q136 418 101 396 Z M301 588 L213 588 L315 725 L424 725 L301 588 Z " />
<glyph glyph-name="acircumflex" unicode="&#xe2;" horiz-adv-x="584" d="M266 62 Q310 62 347.5 84 Q385 106 411 146 L411 219 Q380 244 342 257.5 Q304 271 266 271 Q208 271 176 244 Q144 217 144 168 Q144 120 177.5 91 Q211 62 266 62 Z M101 396 L101 479 Q136 500 183 511.5 Q230 523 282 523 Q393 523 451 469.5 Q509 416 509 314 L509 0 L411 0 L411 79 Q377 36 329.5 13 Q282 -10 225 -10 Q144 -10 91.5 39 Q39 88 39 163 Q39 240 92 288.5 Q145 337 231 337 Q280 337 325 323.5 Q370 310 407 284 L407 310 Q407 377 371 410 Q335 443 264 443 Q222 443 179 430.5 Q136 418 101 396 Z M456 588 L374 588 L289 678 L203 588 L127 588 L240 725 L342 725 L456 588 Z " />
<glyph glyph-name="adieresis" unicode="&#xe4;" horiz-adv-x="584" d="M266 62 Q310 62 347.5 84 Q385 106 411 146 L411 219 Q380 244 342 257.5 Q304 271 266 271 Q208 271 176 244 Q144 217 144 168 Q144 120 177.5 91 Q211 62 266 62 Z M101 396 L101 479 Q136 500 183 511.5 Q230 523 282 523 Q393 523 451 469.5 Q509 416 509 314 L509 0 L411 0 L411 79 Q377 36 329.5 13 Q282 -10 225 -10 Q144 -10 91.5 39 Q39 88 39 163 Q39 240 92 288.5 Q145 337 231 337 Q280 337 325 323.5 Q370 310 407 284 L407 310 Q407 377 371 410 Q335 443 264 443 Q222 443 179 430.5 Q136 418 101 396 Z M421 594 L337 594 L337 727 L421 727 L421 594 Z M246 594 L162 594 L162 727 L246 727 L246 594 Z " />
<glyph glyph-name="agrave" unicode="&#xe0;" horiz-adv-x="584" d="M266 62 Q310 62 347.5 84 Q385 106 411 146 L411 219 Q380 244 342 257.5 Q304 271 266 271 Q208 271 176 244 Q144 217 144 168 Q144 120 177.5 91 Q211 62 266 62 Z M101 396 L101 479 Q136 500 183 511.5 Q230 523 282 523 Q393 523 451 469.5 Q509 416 509 314 L509 0 L411 0 L411 79 Q377 36 329.5 13 Q282 -10 225 -10 Q144 -10 91.5 39 Q39 88 39 163 Q39 240 92 288.5 Q145 337 231 337 Q280 337 325 323.5 Q370 310 407 284 L407 310 Q407 377 371 410 Q335 443 264 443 Q222 443 179 430.5 Q136 418 101 396 Z M148 725 L257 725 L358 588 L271 588 L148 725 Z " />
<glyph glyph-name="aring" unicode="&#xe5;" horiz-adv-x="584" d="M266 62 Q310 62 347.5 84 Q385 106 411 146 L411 219 Q380 244 342 257.5 Q304 271 266 271 Q208 271 176 244 Q144 217 144 168 Q144 120 177.5 91 Q211 62 266 62 Z M101 396 L101 479 Q136 500 183 511.5 Q230 523 282 523 Q393 523 451 469.5 Q509 416 509 314 L509 0 L411 0 L411 79 Q377 36 329.5 13 Q282 -10 225 -10 Q144 -10 91.5 39 Q39 88 39 163 Q39 240 92 288.5 Q145 337 231 337 Q280 337 325 323.5 Q370 310 407 284 L407 310 Q407 377 371 410 Q335 443 264 443 Q222 443 179 430.5 Q136 418 101 396 Z M184 674 Q184 720 214.5 749.5 Q245 779 292 779 Q338 779 368.5 748.5 Q399 718 399 674 Q399 629 368.5 599 Q338 569 292 569 Q246 569 215 599 Q184 629 184 674 Z M240 675 Q240 651 254.5 636 Q269 621 292 621 Q315 621 329.5 636 Q344 651 344 675 Q344 698 329.5 712.5 Q315 727 292 727 Q269 727 254.5 712.5 Q240 698 240 675 Z " />
<glyph glyph-name="atilde" unicode="&#xe3;" horiz-adv-x="584" d="M266 62 Q310 62 347.5 84 Q385 106 411 146 L411 219 Q380 244 342 257.5 Q304 271 266 271 Q208 271 176 244 Q144 217 144 168 Q144 120 177.5 91 Q211 62 266 62 Z M101 396 L101 479 Q136 500 183 511.5 Q230 523 282 523 Q393 523 451 469.5 Q509 416 509 314 L509 0 L411 0 L411 79 Q377 36 329.5 13 Q282 -10 225 -10 Q144 -10 91.5 39 Q39 88 39 163 Q39 240 92 288.5 Q145 337 231 337 Q280 337 325 323.5 Q370 310 407 284 L407 310 Q407 377 371 410 Q335 443 264 443 Q222 443 179 430.5 Q136 418 101 396 Z M306 685 Q329 667 341.5 661.5 Q354 656 366 656 Q386 656 398.5 673 Q411 690 413 720 L476 720 Q475 666 445 629.5 Q415 593 369 593 Q346 593 326 601 Q306 609 275 633 Q254 650 243.5 655 Q233 660 223 660 Q202 660 188.5 642.5 Q175 625 172 594 L109 594 Q111 654 139 688.5 Q167 723 215 723 Q236 723 255.5 715.5 Q275 708 306 685 Z " />
<glyph glyph-name="abreve" unicode="&#x103;" horiz-adv-x="584" d="M266 62 Q310 62 347.5 84 Q385 106 411 146 L411 219 Q380 244 342 257.5 Q304 271 266 271 Q208 271 176 244 Q144 217 144 168 Q144 120 177.5 91 Q211 62 266 62 Z M101 396 L101 479 Q136 500 183 511.5 Q230 523 282 523 Q393 523 451 469.5 Q509 416 509 314 L509 0 L411 0 L411 79 Q377 36 329.5 13 Q282 -10 225 -10 Q144 -10 91.5 39 Q39 88 39 163 Q39 240 92 288.5 Q145 337 231 337 Q280 337 325 323.5 Q370 310 407 284 L407 310 Q407 377 371 410 Q335 443 264 443 Q222 443 179 430.5 Q136 418 101 396 Z M286 649 Q324 649 347 667 Q370 685 381 724 L446 724 Q438 661 395.5 624 Q353 587 286 587 Q219 587 176.5 624 Q134 661 127 724 L192 724 Q202 686 225 667.5 Q248 649 286 649 Z " />
<glyph glyph-name="amacron" unicode="&#x101;" horiz-adv-x="584" d="M266 62 Q310 62 347.5 84 Q385 106 411 146 L411 219 Q380 244 342 257.5 Q304 271 266 271 Q208 271 176 244 Q144 217 144 168 Q144 120 177.5 91 Q211 62 266 62 Z M101 396 L101 479 Q136 500 183 511.5 Q230 523 282 523 Q393 523 451 469.5 Q509 416 509 314 L509 0 L411 0 L411 79 Q377 36 329.5 13 Q282 -10 225 -10 Q144 -10 91.5 39 Q39 88 39 163 Q39 240 92 288.5 Q145 337 231 337 Q280 337 325 323.5 Q370 310 407 284 L407 310 Q407 377 371 410 Q335 443 264 443 Q222 443 179 430.5 Q136 418 101 396 Z M443 619 L140 619 L140 695 L443 695 L443 619 Z " />
<glyph glyph-name="aogonek" unicode="&#x105;" horiz-adv-x="584" d="M510 -126 L510 -184 Q486 -199 464 -205 Q442 -211 415 -211 Q363 -211 329 -185.5 Q295 -160 295 -120 Q295 -85 323.5 -53 Q352 -21 411 9 L411 79 Q377 36 329.5 13 Q282 -10 225 -10 Q144 -10 91.5 39 Q39 88 39 163 Q39 240 92 288.5 Q145 337 231 337 Q280 337 325 323.5 Q370 310 407 284 L407 310 Q407 377 371 410 Q335 443 264 443 Q222 443 179 430.5 Q136 418 101 396 L101 479 Q136 500 183 511.5 Q230 523 282 523 Q393 523 451 469.5 Q509 416 509 314 L509 0 L461 0 Q410 -31 389 -54.5 Q368 -78 368 -103 Q368 -126 386 -140 Q404 -154 433 -154 Q452 -154 472.5 -146.5 Q493 -139 510 -126 Z M266 62 Q310 62 347.5 84 Q385 106 411 146 L411 219 Q380 244 342 257.5 Q304 271 266 271 Q208 271 176 244 Q144 217 144 168 Q144 120 177.5 91 Q211 62 266 62 Z " />
<glyph glyph-name="ccedilla" unicode="&#xe7;" horiz-adv-x="511" d="M405 -124 Q405 -162 374 -185.5 Q343 -209 292 -209 Q266 -209 246 -205 Q226 -201 202 -191 L202 -141 Q228 -152 246.5 -156.5 Q265 -161 286 -161 Q311 -161 324.5 -152.5 Q338 -144 338 -127 Q338 -111 325.5 -102.5 Q313 -94 289 -94 L241 -94 L258 -7 Q158 8 99.5 79 Q41 150 41 256 Q41 375 114.5 449 Q188 523 309 523 Q359 523 398 512.5 Q437 502 463 481 L463 392 Q439 413 401.5 426 Q364 439 326 439 Q239 439 189.5 390 Q140 341 140 256 Q140 170 189 121.5 Q238 73 325 73 Q366 73 400 84.5 Q434 96 470 122 L470 36 Q439 14 397.5 2 Q356 -10 306 -10 Q305 -10 303.5 -10 Q302 -10 301 -10 L292 -53 L312 -53 Q355 -53 380 -72 Q405 -91 405 -124 Z " />
<glyph glyph-name="cacute" unicode="&#x107;" horiz-adv-x="511" d="M326 439 Q239 439 189.5 390 Q140 341 140 256 Q140 170 189 121.5 Q238 73 325 73 Q366 73 400 84.5 Q434 96 470 122 L470 36 Q439 14 397.5 2 Q356 -10 306 -10 Q187 -10 114 63.5 Q41 137 41 256 Q41 375 114.5 449 Q188 523 309 523 Q359 523 398 512.5 Q437 502 463 481 L463 392 Q439 413 401.5 426 Q364 439 326 439 Z M302 588 L214 588 L316 725 L425 725 L302 588 Z " />
<glyph glyph-name="ccaron" unicode="&#x10d;" horiz-adv-x="511" d="M326 439 Q239 439 189.5 390 Q140 341 140 256 Q140 170 189 121.5 Q238 73 325 73 Q366 73 400 84.5 Q434 96 470 122 L470 36 Q439 14 397.5 2 Q356 -10 306 -10 Q187 -10 114 63.5 Q41 137 41 256 Q41 375 114.5 449 Q188 523 309 523 Q359 523 398 512.5 Q437 502 463 481 L463 392 Q439 413 401.5 426 Q364 439 326 439 Z M326 588 L224 588 L111 725 L187 725 L273 636 L358 725 L440 725 L326 588 Z " />
<glyph glyph-name="ccircumflex" unicode="&#x109;" horiz-adv-x="511" d="M326 439 Q239 439 189.5 390 Q140 341 140 256 Q140 170 189 121.5 Q238 73 325 73 Q366 73 400 84.5 Q434 96 470 122 L470 36 Q439 14 397.5 2 Q356 -10 306 -10 Q187 -10 114 63.5 Q41 137 41 256 Q41 375 114.5 449 Q188 523 309 523 Q359 523 398 512.5 Q437 502 463 481 L463 392 Q439 413 401.5 426 Q364 439 326 439 Z M442 588 L360 588 L275 678 L189 588 L113 588 L226 725 L328 725 L442 588 Z " />
<glyph glyph-name="cdotaccent" unicode="&#x10b;" horiz-adv-x="511" d="M326 439 Q239 439 189.5 390 Q140 341 140 256 Q140 170 189 121.5 Q238 73 325 73 Q366 73 400 84.5 Q434 96 470 122 L470 36 Q439 14 397.5 2 Q356 -10 306 -10 Q187 -10 114 63.5 Q41 137 41 256 Q41 375 114.5 449 Q188 523 309 523 Q359 523 398 512.5 Q437 502 463 481 L463 392 Q439 413 401.5 426 Q364 439 326 439 Z M225 727 L322 727 L322 594 L225 594 L225 727 Z " />
<glyph glyph-name="dcaron" unicode="&#x10f;" horiz-adv-x="735" d="M470 173 L470 342 Q443 388 400.5 413.5 Q358 439 308 439 Q231 439 185.5 390 Q140 341 140 258 Q140 174 185.5 124 Q231 74 308 74 Q357 74 399.5 100 Q442 126 470 173 Z M470 0 L470 89 Q437 41 390.5 15.5 Q344 -10 287 -10 Q180 -10 110.5 65.5 Q41 141 41 258 Q41 375 110 449 Q179 523 287 523 Q343 523 390.5 500 Q438 477 470 434 L470 723 L568 740 L568 0 L470 0 Z M641 598 L641 710 L741 710 L741 640 Q741 590 722 553.5 Q703 517 663 490 L639 510 Q658 527 669.5 549.5 Q681 572 684 598 L641 598 Z " />
<glyph glyph-name="dslash" unicode="&#x111;" horiz-adv-x="646" d="M470 173 L470 342 Q443 388 400.5 413.5 Q358 439 308 439 Q231 439 185.5 390 Q140 341 140 258 Q140 174 185.5 124 Q231 74 308 74 Q357 74 399.5 100 Q442 126 470 173 Z M470 0 L470 89 Q437 41 390.5 15.5 Q344 -10 287 -10 Q180 -10 110.5 65.5 Q41 141 41 258 Q41 375 110 449 Q179 523 287 523 Q343 523 390.5 500 Q438 477 470 434 L470 593 L268 593 L268 650 L470 650 L470 723 L568 740 L568 650 L628 650 L628 593 L568 593 L568 0 L470 0 Z " />
<glyph glyph-name="eacute" unicode="&#xe9;" horiz-adv-x="573" d="M298 445 Q235 445 192 405 Q149 365 140 297 L442 297 Q442 364 402 404.5 Q362 445 298 445 Z M493 116 L493 34 Q464 14 419.5 2 Q375 -10 327 -10 Q200 -10 120.5 65.5 Q41 141 41 262 Q41 377 114 450 Q187 523 301 523 Q404 523 469.5 457 Q535 391 536 287 Q536 270 535 254 Q534 238 532 229 L140 229 Q149 155 200 112.5 Q251 70 329 70 Q373 70 417.5 82.5 Q462 95 493 116 Z M308 588 L220 588 L322 725 L431 725 L308 588 Z " />
<glyph glyph-name="ecircumflex" unicode="&#xea;" horiz-adv-x="573" d="M298 445 Q235 445 192 405 Q149 365 140 297 L442 297 Q442 364 402 404.5 Q362 445 298 445 Z M493 116 L493 34 Q464 14 419.5 2 Q375 -10 327 -10 Q200 -10 120.5 65.5 Q41 141 41 262 Q41 377 114 450 Q187 523 301 523 Q404 523 469.5 457 Q535 391 536 287 Q536 270 535 254 Q534 238 532 229 L140 229 Q149 155 200 112.5 Q251 70 329 70 Q373 70 417.5 82.5 Q462 95 493 116 Z M457 588 L375 588 L290 678 L204 588 L128 588 L241 725 L343 725 L457 588 Z " />
<glyph glyph-name="edieresis" unicode="&#xeb;" horiz-adv-x="573" d="M298 445 Q235 445 192 405 Q149 365 140 297 L442 297 Q442 364 402 404.5 Q362 445 298 445 Z M493 116 L493 34 Q464 14 419.5 2 Q375 -10 327 -10 Q200 -10 120.5 65.5 Q41 141 41 262 Q41 377 114 450 Q187 523 301 523 Q404 523 469.5 457 Q535 391 536 287 Q536 270 535 254 Q534 238 532 229 L140 229 Q149 155 200 112.5 Q251 70 329 70 Q373 70 417.5 82.5 Q462 95 493 116 Z M415 594 L331 594 L331 727 L415 727 L415 594 Z M240 594 L156 594 L156 727 L240 727 L240 594 Z " />
<glyph glyph-name="egrave" unicode="&#xe8;" horiz-adv-x="573" d="M298 445 Q235 445 192 405 Q149 365 140 297 L442 297 Q442 364 402 404.5 Q362 445 298 445 Z M493 116 L493 34 Q464 14 419.5 2 Q375 -10 327 -10 Q200 -10 120.5 65.5 Q41 141 41 262 Q41 377 114 450 Q187 523 301 523 Q404 523 469.5 457 Q535 391 536 287 Q536 270 535 254 Q534 238 532 229 L140 229 Q149 155 200 112.5 Q251 70 329 70 Q373 70 417.5 82.5 Q462 95 493 116 Z M149 725 L258 725 L359 588 L272 588 L149 725 Z " />
<glyph glyph-name="ebreve" unicode="&#x115;" horiz-adv-x="573" d="M298 445 Q235 445 192 405 Q149 365 140 297 L442 297 Q442 364 402 404.5 Q362 445 298 445 Z M493 116 L493 34 Q464 14 419.5 2 Q375 -10 327 -10 Q200 -10 120.5 65.5 Q41 141 41 262 Q41 377 114 450 Q187 523 301 523 Q404 523 469.5 457 Q535 391 536 287 Q536 270 535 254 Q534 238 532 229 L140 229 Q149 155 200 112.5 Q251 70 329 70 Q373 70 417.5 82.5 Q462 95 493 116 Z M287 649 Q325 649 348 667 Q371 685 382 724 L447 724 Q439 661 396.5 624 Q354 587 287 587 Q220 587 177.5 624 Q135 661 128 724 L193 724 Q203 686 226 667.5 Q249 649 287 649 Z " />
<glyph glyph-name="ecaron" unicode="&#x11b;" horiz-adv-x="573" d="M298 445 Q235 445 192 405 Q149 365 140 297 L442 297 Q442 364 402 404.5 Q362 445 298 445 Z M493 116 L493 34 Q464 14 419.5 2 Q375 -10 327 -10 Q200 -10 120.5 65.5 Q41 141 41 262 Q41 377 114 450 Q187 523 301 523 Q404 523 469.5 457 Q535 391 536 287 Q536 270 535 254 Q534 238 532 229 L140 229 Q149 155 200 112.5 Q251 70 329 70 Q373 70 417.5 82.5 Q462 95 493 116 Z M346 588 L244 588 L131 725 L207 725 L293 636 L378 725 L460 725 L346 588 Z " />
<glyph glyph-name="edotaccent" unicode="&#x117;" horiz-adv-x="573" d="M298 445 Q235 445 192 405 Q149 365 140 297 L442 297 Q442 364 402 404.5 Q362 445 298 445 Z M493 116 L493 34 Q464 14 419.5 2 Q375 -10 327 -10 Q200 -10 120.5 65.5 Q41 141 41 262 Q41 377 114 450 Q187 523 301 523 Q404 523 469.5 457 Q535 391 536 287 Q536 270 535 254 Q534 238 532 229 L140 229 Q149 155 200 112.5 Q251 70 329 70 Q373 70 417.5 82.5 Q462 95 493 116 Z M245 727 L342 727 L342 594 L245 594 L245 727 Z " />
<glyph glyph-name="emacron" unicode="&#x113;" horiz-adv-x="573" d="M298 445 Q235 445 192 405 Q149 365 140 297 L442 297 Q442 364 402 404.5 Q362 445 298 445 Z M493 116 L493 34 Q464 14 419.5 2 Q375 -10 327 -10 Q200 -10 120.5 65.5 Q41 141 41 262 Q41 377 114 450 Q187 523 301 523 Q404 523 469.5 457 Q535 391 536 287 Q536 270 535 254 Q534 238 532 229 L140 229 Q149 155 200 112.5 Q251 70 329 70 Q373 70 417.5 82.5 Q462 95 493 116 Z M445 619 L142 619 L142 695 L445 695 L445 619 Z " />
<glyph glyph-name="eogonek" unicode="&#x119;" horiz-adv-x="573" d="M446 -126 L446 -184 Q421 -199 399 -205 Q377 -211 350 -211 Q298 -211 264 -185.5 Q230 -160 230 -120 Q230 -90 249.5 -62.5 Q269 -35 309 -10 Q189 -4 115 71 Q41 146 41 262 Q41 377 114 450 Q187 523 301 523 Q404 523 469.5 457 Q535 391 536 287 Q536 270 535 254 Q534 238 532 229 L140 229 Q149 155 200 112.5 Q251 70 329 70 Q373 70 417.5 82.5 Q462 95 493 116 L493 34 Q472 19 443 8.5 Q414 -2 380 -6 Q339 -34 321 -57 Q303 -80 303 -103 Q303 -126 321 -140 Q339 -154 368 -154 Q387 -154 407.5 -146.5 Q428 -139 446 -126 Z M298 445 Q235 445 192 405 Q149 365 140 297 L442 297 Q442 364 402 404.5 Q362 445 298 445 Z " />
<glyph glyph-name="gbreve" unicode="&#x11f;" horiz-adv-x="646" d="M470 172 L470 344 Q443 388 400 413.5 Q357 439 308 439 Q231 439 185.5 390 Q140 341 140 258 Q140 174 185.5 124 Q231 74 308 74 Q356 74 397.5 99.5 Q439 125 470 172 Z M470 27 L470 90 Q438 41 391 15.5 Q344 -10 286 -10 Q178 -10 109.5 64.5 Q41 139 41 258 Q41 375 110 449 Q179 523 287 523 Q344 523 392.5 499 Q441 475 470 433 L470 513 L568 513 L568 40 Q568 -78 498 -146 Q428 -214 309 -214 Q277 -214 246.5 -208.5 Q216 -203 195 -193 L195 -110 Q218 -120 246.5 -125.5 Q275 -131 301 -131 Q380 -131 425 -89 Q470 -47 470 27 Z M316 649 Q354 649 377 667 Q400 685 411 724 L476 724 Q468 661 425.5 624 Q383 587 316 587 Q249 587 206.5 624 Q164 661 157 724 L222 724 Q232 686 255 667.5 Q278 649 316 649 Z " />
<glyph glyph-name="gcircumflex" unicode="&#x11d;" horiz-adv-x="646" d="M470 172 L470 344 Q443 388 400 413.5 Q357 439 308 439 Q231 439 185.5 390 Q140 341 140 258 Q140 174 185.5 124 Q231 74 308 74 Q356 74 397.5 99.5 Q439 125 470 172 Z M470 27 L470 90 Q438 41 391 15.5 Q344 -10 286 -10 Q178 -10 109.5 64.5 Q41 139 41 258 Q41 375 110 449 Q179 523 287 523 Q344 523 392.5 499 Q441 475 470 433 L470 513 L568 513 L568 40 Q568 -78 498 -146 Q428 -214 309 -214 Q277 -214 246.5 -208.5 Q216 -203 195 -193 L195 -110 Q218 -120 246.5 -125.5 Q275 -131 301 -131 Q380 -131 425 -89 Q470 -47 470 27 Z M482 588 L400 588 L315 678 L229 588 L153 588 L266 725 L368 725 L482 588 Z " />
<glyph glyph-name="gcommaaccent" unicode="&#x123;" horiz-adv-x="646" d="M470 172 L470 344 Q443 388 400 413.5 Q357 439 308 439 Q231 439 185.5 390 Q140 341 140 258 Q140 174 185.5 124 Q231 74 308 74 Q356 74 397.5 99.5 Q439 125 470 172 Z M470 27 L470 90 Q438 41 391 15.5 Q344 -10 286 -10 Q178 -10 109.5 64.5 Q41 139 41 258 Q41 375 110 449 Q179 523 287 523 Q344 523 392.5 499 Q441 475 470 433 L470 513 L568 513 L568 40 Q568 -78 498 -146 Q428 -214 309 -214 Q277 -214 246.5 -208.5 Q216 -203 195 -193 L195 -110 Q218 -120 246.5 -125.5 Q275 -131 301 -131 Q380 -131 425 -89 Q470 -47 470 27 Z M365 694 L365 587 L265 587 L265 652 Q265 697 284 731 Q303 765 342 788 L367 768 Q349 756 337.5 736.5 Q326 717 322 694 L365 694 Z " />
<glyph glyph-name="gdotaccent" unicode="&#x121;" horiz-adv-x="646" d="M470 172 L470 344 Q443 388 400 413.5 Q357 439 308 439 Q231 439 185.5 390 Q140 341 140 258 Q140 174 185.5 124 Q231 74 308 74 Q356 74 397.5 99.5 Q439 125 470 172 Z M470 27 L470 90 Q438 41 391 15.5 Q344 -10 286 -10 Q178 -10 109.5 64.5 Q41 139 41 258 Q41 375 110 449 Q179 523 287 523 Q344 523 392.5 499 Q441 475 470 433 L470 513 L568 513 L568 40 Q568 -78 498 -146 Q428 -214 309 -214 Q277 -214 246.5 -208.5 Q216 -203 195 -193 L195 -110 Q218 -120 246.5 -125.5 Q275 -131 301 -131 Q380 -131 425 -89 Q470 -47 470 27 Z M270 727 L367 727 L367 594 L270 594 L270 727 Z " />
<glyph glyph-name="hbar" unicode="&#x127;" horiz-adv-x="619" d="M328 437 Q282 437 241 412.5 Q200 388 175 347 L175 0 L78 0 L78 593 L23 593 L23 650 L78 650 L78 723 L175 740 L175 650 L383 650 L383 593 L175 593 L175 427 Q205 472 254 497.5 Q303 523 360 523 Q452 523 499 473 Q546 423 546 326 L546 0 L448 0 L448 316 Q448 376 417.5 406.5 Q387 437 328 437 Z " />
<glyph glyph-name="hcircumflex" unicode="&#x125;" horiz-adv-x="619" d="M431 772 L348 772 L263 863 L178 772 L101 772 L215 910 L317 910 L431 772 Z M78 723 L175 740 L175 427 Q205 472 254 497.5 Q303 523 360 523 Q452 523 499 473 Q546 423 546 326 L546 0 L448 0 L448 316 Q448 376 417.5 406.5 Q387 437 328 437 Q282 437 241 412.5 Q200 388 175 347 L175 0 L78 0 L78 723 Z " />
<glyph glyph-name="iacute" unicode="&#xed;" horiz-adv-x="253" d="M78 513 L175 513 L175 0 L78 0 L78 513 Z M157 588 L69 588 L171 725 L280 725 L157 588 Z " />
<glyph glyph-name="icircumflex" unicode="&#xee;" horiz-adv-x="253" d="M78 513 L175 513 L175 0 L78 0 L78 513 Z M291 588 L209 588 L124 678 L38 588 L-38 588 L75 725 L177 725 L291 588 Z " />
<glyph glyph-name="idieresis" unicode="&#xef;" horiz-adv-x="253" d="M78 513 L175 513 L175 0 L78 0 L78 513 Z M256 594 L172 594 L172 727 L256 727 L256 594 Z M81 594 L-3 594 L-3 727 L81 727 L81 594 Z " />
<glyph glyph-name="igrave" unicode="&#xec;" horiz-adv-x="253" d="M78 513 L175 513 L175 0 L78 0 L78 513 Z M-11 725 L98 725 L199 588 L112 588 L-11 725 Z " />
<glyph glyph-name="ibreve" unicode="&#x12d;" horiz-adv-x="253" d="M78 513 L175 513 L175 0 L78 0 L78 513 Z M121 649 Q159 649 182 667 Q205 685 216 724 L281 724 Q273 661 230.5 624 Q188 587 121 587 Q54 587 11.5 624 Q-31 661 -38 724 L27 724 Q37 686 60 667.5 Q83 649 121 649 Z " />
<glyph glyph-name="i.dot" unicode="&#xe166;" horiz-adv-x="253" d="M78 727 L175 727 L175 594 L78 594 L78 727 Z M78 513 L175 513 L175 0 L78 0 L78 513 Z " />
<glyph glyph-name="imacron" unicode="&#x12b;" horiz-adv-x="253" d="M78 513 L175 513 L175 0 L78 0 L78 513 Z M278 619 L-25 619 L-25 695 L278 695 L278 619 Z " />
<glyph glyph-name="iogonek" unicode="&#x12f;" horiz-adv-x="253" d="M78 727 L175 727 L175 594 L78 594 L78 727 Z M181 -127 L181 -185 Q157 -200 135.5 -206 Q114 -212 89 -212 Q39 -212 7 -187 Q-25 -162 -25 -121 Q-25 -86 1.5 -52.5 Q28 -19 78 10 L78 513 L175 513 L175 0 L132 0 Q87 -31 67.5 -55.5 Q48 -80 48 -105 Q48 -128 63.5 -141 Q79 -154 106 -154 Q124 -154 144 -147 Q164 -140 181 -127 Z " />
<glyph glyph-name="itilde" unicode="&#x129;" horiz-adv-x="253" d="M78 513 L175 513 L175 0 L78 0 L78 513 Z M141 685 Q164 667 176.5 661.5 Q189 656 201 656 Q221 656 233.5 673 Q246 690 248 720 L311 720 Q310 666 280 629.5 Q250 593 204 593 Q181 593 161 601 Q141 609 110 633 Q89 650 78.5 655 Q68 660 58 660 Q37 660 23.5 642.5 Q10 625 7 594 L-56 594 Q-54 654 -26 688.5 Q2 723 50 723 Q71 723 90.5 715.5 Q110 708 141 685 Z " />
<glyph glyph-name="jcircumflex" unicode="&#x135;" horiz-adv-x="261" d="M10 -131 Q48 -131 66.5 -108 Q85 -85 85 -39 L85 513 L183 513 L183 -34 Q183 -121 145.5 -167.5 Q108 -214 37 -214 Q23 -214 8.5 -212 Q-6 -210 -21 -207 L-21 -129 Q-6 -130 -0.5 -130.5 Q5 -131 10 -131 Z M295 588 L213 588 L128 678 L42 588 L-34 588 L79 725 L181 725 L295 588 Z " />
<glyph glyph-name="ij" unicode="&#x133;" horiz-adv-x="515" d="M78 727 L175 727 L175 594 L78 594 L78 727 Z M78 513 L175 513 L175 0 L78 0 L78 513 Z M436 594 L338 594 L338 727 L436 727 L436 594 Z M263 -131 Q301 -131 319.5 -108 Q338 -85 338 -39 L338 513 L436 513 L436 -34 Q436 -121 398.5 -167.5 Q361 -214 290 -214 Q276 -214 261.5 -212 Q247 -210 232 -207 L232 -129 Q247 -130 252.5 -130.5 Q258 -131 263 -131 Z " />
<glyph glyph-name="kcommaaccent" unicode="&#x137;" horiz-adv-x="563" d="M547 0 L428 0 L242 220 L175 151 L175 0 L78 0 L78 723 L175 740 L175 262 L410 513 L522 513 L306 288 L547 0 Z M232 -175 L232 -64 L332 -64 L332 -133 Q332 -177 312.5 -210 Q293 -243 254 -265 L230 -245 Q249 -232 260.5 -214 Q272 -196 275 -175 L232 -175 Z " />
<glyph glyph-name="lacute" unicode="&#x13a;" horiz-adv-x="253" d="M158 784 L70 784 L172 922 L280 922 L158 784 Z M175 740 L175 0 L78 0 L78 723 L175 740 Z " />
<glyph glyph-name="lcaron" unicode="&#x13e;" horiz-adv-x="342" d="M175 740 L175 0 L78 0 L78 723 L175 740 Z M248 598 L248 710 L348 710 L348 640 Q348 590 329 553.5 Q310 517 270 490 L246 510 Q265 527 276.5 549.5 Q288 572 291 598 L248 598 Z " />
<glyph glyph-name="lcommaaccent" unicode="&#x13c;" horiz-adv-x="253" d="M175 740 L175 0 L78 0 L78 723 L175 740 Z M78 -175 L78 -64 L178 -64 L178 -133 Q178 -177 158.5 -210 Q139 -243 100 -265 L76 -245 Q95 -232 106.5 -214 Q118 -196 121 -175 L78 -175 Z " />
<glyph glyph-name="ldot" unicode="&#x140;" horiz-adv-x="353" d="M175 740 L175 0 L78 0 L78 723 L175 740 Z M244 292 L244 414 L353 414 L353 292 L244 292 Z " />
<glyph glyph-name="ntilde" unicode="&#xf1;" horiz-adv-x="619" d="M78 513 L170 513 L170 420 Q201 468 250.5 495.5 Q300 523 360 523 Q452 523 499 473 Q546 423 546 326 L546 0 L448 0 L448 316 Q448 376 417.5 406.5 Q387 437 328 437 Q282 437 241 412.5 Q200 388 175 346 L175 0 L78 0 L78 513 Z M323 685 Q346 667 358.5 661.5 Q371 656 383 656 Q403 656 415.5 673 Q428 690 430 720 L493 720 Q492 666 462 629.5 Q432 593 386 593 Q363 593 343 601 Q323 609 292 633 Q271 650 260.5 655 Q250 660 240 660 Q219 660 205.5 642.5 Q192 625 189 594 L126 594 Q128 654 156 688.5 Q184 723 232 723 Q253 723 272.5 715.5 Q292 708 323 685 Z " />
<glyph glyph-name="nacute" unicode="&#x144;" horiz-adv-x="619" d="M78 513 L170 513 L170 420 Q201 468 250.5 495.5 Q300 523 360 523 Q452 523 499 473 Q546 423 546 326 L546 0 L448 0 L448 316 Q448 376 417.5 406.5 Q387 437 328 437 Q282 437 241 412.5 Q200 388 175 346 L175 0 L78 0 L78 513 Z M317 588 L229 588 L331 725 L440 725 L317 588 Z " />
<glyph glyph-name="ncaron" unicode="&#x148;" horiz-adv-x="619" d="M78 513 L170 513 L170 420 Q201 468 250.5 495.5 Q300 523 360 523 Q452 523 499 473 Q546 423 546 326 L546 0 L448 0 L448 316 Q448 376 417.5 406.5 Q387 437 328 437 Q282 437 241 412.5 Q200 388 175 346 L175 0 L78 0 L78 513 Z M359 588 L257 588 L144 725 L220 725 L306 636 L391 725 L473 725 L359 588 Z " />
<glyph glyph-name="ncommaaccent" unicode="&#x146;" horiz-adv-x="619" d="M78 513 L170 513 L170 420 Q201 468 250.5 495.5 Q300 523 360 523 Q452 523 499 473 Q546 423 546 326 L546 0 L448 0 L448 316 Q448 376 417.5 406.5 Q387 437 328 437 Q282 437 241 412.5 Q200 388 175 346 L175 0 L78 0 L78 513 Z M260 -175 L260 -64 L360 -64 L360 -133 Q360 -177 340.5 -210 Q321 -243 282 -265 L258 -245 Q277 -232 288.5 -214 Q300 -196 303 -175 L260 -175 Z " />
<glyph glyph-name="oacute" unicode="&#xf3;" horiz-adv-x="621" d="M310 523 Q426 523 503 447.5 Q580 372 580 256 Q580 141 503 65.5 Q426 -10 310 -10 Q195 -10 118 65.5 Q41 141 41 256 Q41 371 117.5 447 Q194 523 310 523 Z M310 72 Q385 72 432.5 123 Q480 174 480 256 Q480 338 433 389 Q386 440 310 440 Q234 440 187 389 Q140 338 140 256 Q140 174 187.5 123 Q235 72 310 72 Z M321 588 L233 588 L335 725 L444 725 L321 588 Z " />
<glyph glyph-name="ocircumflex" unicode="&#xf4;" horiz-adv-x="621" d="M310 523 Q426 523 503 447.5 Q580 372 580 256 Q580 141 503 65.5 Q426 -10 310 -10 Q195 -10 118 65.5 Q41 141 41 256 Q41 371 117.5 447 Q194 523 310 523 Z M310 72 Q385 72 432.5 123 Q480 174 480 256 Q480 338 433 389 Q386 440 310 440 Q234 440 187 389 Q140 338 140 256 Q140 174 187.5 123 Q235 72 310 72 Z M474 588 L392 588 L307 678 L221 588 L145 588 L258 725 L360 725 L474 588 Z " />
<glyph glyph-name="odieresis" unicode="&#xf6;" horiz-adv-x="621" d="M310 523 Q426 523 503 447.5 Q580 372 580 256 Q580 141 503 65.5 Q426 -10 310 -10 Q195 -10 118 65.5 Q41 141 41 256 Q41 371 117.5 447 Q194 523 310 523 Z M310 72 Q385 72 432.5 123 Q480 174 480 256 Q480 338 433 389 Q386 440 310 440 Q234 440 187 389 Q140 338 140 256 Q140 174 187.5 123 Q235 72 310 72 Z M439 594 L355 594 L355 727 L439 727 L439 594 Z M264 594 L180 594 L180 727 L264 727 L264 594 Z " />
<glyph glyph-name="ograve" unicode="&#xf2;" horiz-adv-x="621" d="M310 523 Q426 523 503 447.5 Q580 372 580 256 Q580 141 503 65.5 Q426 -10 310 -10 Q195 -10 118 65.5 Q41 141 41 256 Q41 371 117.5 447 Q194 523 310 523 Z M310 72 Q385 72 432.5 123 Q480 174 480 256 Q480 338 433 389 Q386 440 310 440 Q234 440 187 389 Q140 338 140 256 Q140 174 187.5 123 Q235 72 310 72 Z M165 725 L274 725 L375 588 L288 588 L165 725 Z " />
<glyph glyph-name="otilde" unicode="&#xf5;" horiz-adv-x="621" d="M310 523 Q426 523 503 447.5 Q580 372 580 256 Q580 141 503 65.5 Q426 -10 310 -10 Q195 -10 118 65.5 Q41 141 41 256 Q41 371 117.5 447 Q194 523 310 523 Z M310 72 Q385 72 432.5 123 Q480 174 480 256 Q480 338 433 389 Q386 440 310 440 Q234 440 187 389 Q140 338 140 256 Q140 174 187.5 123 Q235 72 310 72 Z M324 685 Q347 667 359.5 661.5 Q372 656 384 656 Q404 656 416.5 673 Q429 690 431 720 L494 720 Q493 666 463 629.5 Q433 593 387 593 Q364 593 344 601 Q324 609 293 633 Q272 650 261.5 655 Q251 660 241 660 Q220 660 206.5 642.5 Q193 625 190 594 L127 594 Q129 654 157 688.5 Q185 723 233 723 Q254 723 273.5 715.5 Q293 708 324 685 Z " />
<glyph glyph-name="obreve" unicode="&#x14f;" horiz-adv-x="621" d="M310 523 Q426 523 503 447.5 Q580 372 580 256 Q580 141 503 65.5 Q426 -10 310 -10 Q195 -10 118 65.5 Q41 141 41 256 Q41 371 117.5 447 Q194 523 310 523 Z M310 72 Q385 72 432.5 123 Q480 174 480 256 Q480 338 433 389 Q386 440 310 440 Q234 440 187 389 Q140 338 140 256 Q140 174 187.5 123 Q235 72 310 72 Z M304 649 Q342 649 365 667 Q388 685 399 724 L464 724 Q456 661 413.5 624 Q371 587 304 587 Q237 587 194.5 624 Q152 661 145 724 L210 724 Q220 686 243 667.5 Q266 649 304 649 Z " />
<glyph glyph-name="ohungarumlaut" unicode="&#x151;" horiz-adv-x="621" d="M310 523 Q426 523 503 447.5 Q580 372 580 256 Q580 141 503 65.5 Q426 -10 310 -10 Q195 -10 118 65.5 Q41 141 41 256 Q41 371 117.5 447 Q194 523 310 523 Z M310 72 Q385 72 432.5 123 Q480 174 480 256 Q480 338 433 389 Q386 440 310 440 Q234 440 187 389 Q140 338 140 256 Q140 174 187.5 123 Q235 72 310 72 Z M415 588 L329 588 L432 725 L540 725 L415 588 Z M233 588 L146 588 L250 725 L358 725 L233 588 Z " />
<glyph glyph-name="omacron" unicode="&#x14d;" horiz-adv-x="621" d="M310 523 Q426 523 503 447.5 Q580 372 580 256 Q580 141 503 65.5 Q426 -10 310 -10 Q195 -10 118 65.5 Q41 141 41 256 Q41 371 117.5 447 Q194 523 310 523 Z M310 72 Q385 72 432.5 123 Q480 174 480 256 Q480 338 433 389 Q386 440 310 440 Q234 440 187 389 Q140 338 140 256 Q140 174 187.5 123 Q235 72 310 72 Z M461 619 L158 619 L158 695 L461 695 L461 619 Z " />
<glyph glyph-name="racute" unicode="&#x155;" horiz-adv-x="384" d="M305 523 Q319 523 333 520 Q347 517 360 511 L360 418 Q348 424 330.5 427.5 Q313 431 296 431 Q257 431 225.5 407.5 Q194 384 175 342 L175 0 L78 0 L78 513 L175 513 L175 421 Q192 469 227 496 Q262 523 305 523 Z M201 588 L113 588 L215 725 L324 725 L201 588 Z " />
<glyph glyph-name="rcaron" unicode="&#x159;" horiz-adv-x="384" d="M305 523 Q319 523 333 520 Q347 517 360 511 L360 418 Q348 424 330.5 427.5 Q313 431 296 431 Q257 431 225.5 407.5 Q194 384 175 342 L175 0 L78 0 L78 513 L175 513 L175 421 Q192 469 227 496 Q262 523 305 523 Z M262 588 L160 588 L47 725 L123 725 L209 636 L294 725 L376 725 L262 588 Z " />
<glyph glyph-name="rcommaaccent" unicode="&#x157;" horiz-adv-x="384" d="M305 523 Q319 523 333 520 Q347 517 360 511 L360 418 Q348 424 330.5 427.5 Q313 431 296 431 Q257 431 225.5 407.5 Q194 384 175 342 L175 0 L78 0 L78 513 L175 513 L175 421 Q192 469 227 496 Q262 523 305 523 Z M80 -175 L80 -64 L180 -64 L180 -133 Q180 -177 160.5 -210 Q141 -243 102 -265 L78 -245 Q97 -232 108.5 -214 Q120 -196 123 -175 L80 -175 Z " />
<glyph glyph-name="scaron" unicode="&#x161;" horiz-adv-x="474" d="M251 442 Q198 442 169 425 Q140 408 140 377 Q140 353 162.5 338 Q185 323 268 300 Q366 272 403.5 237.5 Q441 203 441 145 Q441 71 385 30.5 Q329 -10 233 -10 Q178 -10 131.5 1 Q85 12 51 33 L51 121 Q87 97 135.5 83.5 Q184 70 237 70 Q288 70 316 87.5 Q344 105 344 139 Q344 167 318.5 184.5 Q293 202 203 228 Q116 254 80 287 Q44 320 44 373 Q44 441 100 482 Q156 523 248 523 Q293 523 333 514 Q373 505 407 488 L407 401 Q373 420 332.5 431 Q292 442 251 442 Z M284 588 L182 588 L69 725 L145 725 L231 636 L316 725 L398 725 L284 588 Z " />
<glyph glyph-name="sacute" unicode="&#x15b;" horiz-adv-x="474" d="M251 442 Q198 442 169 425 Q140 408 140 377 Q140 353 162.5 338 Q185 323 268 300 Q366 272 403.5 237.5 Q441 203 441 145 Q441 71 385 30.5 Q329 -10 233 -10 Q178 -10 131.5 1 Q85 12 51 33 L51 121 Q87 97 135.5 83.5 Q184 70 237 70 Q288 70 316 87.5 Q344 105 344 139 Q344 167 318.5 184.5 Q293 202 203 228 Q116 254 80 287 Q44 320 44 373 Q44 441 100 482 Q156 523 248 523 Q293 523 333 514 Q373 505 407 488 L407 401 Q373 420 332.5 431 Q292 442 251 442 Z M245 588 L157 588 L259 725 L368 725 L245 588 Z " />
<glyph glyph-name="scedilla" unicode="&#x15f;" horiz-adv-x="474" d="M347 -124 Q347 -162 316 -185.5 Q285 -209 234 -209 Q208 -209 188 -205 Q168 -201 144 -191 L144 -141 Q170 -152 188.5 -156.5 Q207 -161 228 -161 Q253 -161 266.5 -152.5 Q280 -144 280 -127 Q280 -111 267.5 -102.5 Q255 -94 231 -94 L183 -94 L200 -9 Q156 -6 118 4.5 Q80 15 51 33 L51 121 Q87 97 135.5 83.5 Q184 70 237 70 Q288 70 316 87.5 Q344 105 344 139 Q344 167 318.5 184.5 Q293 202 203 228 Q116 254 80 287 Q44 320 44 373 Q44 441 100 482 Q156 523 248 523 Q293 523 333 514 Q373 505 407 488 L407 401 Q373 420 332.5 431 Q292 442 251 442 Q198 442 169 425 Q140 408 140 377 Q140 353 162.5 338 Q185 323 268 300 Q366 272 403.5 237.5 Q441 203 441 145 Q441 73 388 33 Q335 -7 243 -10 L234 -53 L254 -53 Q297 -53 322 -72 Q347 -91 347 -124 Z " />
<glyph glyph-name="scircumflex" unicode="&#x15d;" horiz-adv-x="474" d="M251 442 Q198 442 169 425 Q140 408 140 377 Q140 353 162.5 338 Q185 323 268 300 Q366 272 403.5 237.5 Q441 203 441 145 Q441 71 385 30.5 Q329 -10 233 -10 Q178 -10 131.5 1 Q85 12 51 33 L51 121 Q87 97 135.5 83.5 Q184 70 237 70 Q288 70 316 87.5 Q344 105 344 139 Q344 167 318.5 184.5 Q293 202 203 228 Q116 254 80 287 Q44 320 44 373 Q44 441 100 482 Q156 523 248 523 Q293 523 333 514 Q373 505 407 488 L407 401 Q373 420 332.5 431 Q292 442 251 442 Z M402 588 L320 588 L235 678 L149 588 L73 588 L186 725 L288 725 L402 588 Z " />
<glyph glyph-name="uni0219" unicode="&#x219;" horiz-adv-x="474" d="M251 442 Q198 442 169 425 Q140 408 140 377 Q140 353 162.5 338 Q185 323 268 300 Q366 272 403.5 237.5 Q441 203 441 145 Q441 71 385 30.5 Q329 -10 233 -10 Q178 -10 131.5 1 Q85 12 51 33 L51 121 Q87 97 135.5 83.5 Q184 70 237 70 Q288 70 316 87.5 Q344 105 344 139 Q344 167 318.5 184.5 Q293 202 203 228 Q116 254 80 287 Q44 320 44 373 Q44 441 100 482 Q156 523 248 523 Q293 523 333 514 Q373 505 407 488 L407 401 Q373 420 332.5 431 Q292 442 251 442 Z M189 -175 L189 -64 L289 -64 L289 -133 Q289 -177 269.5 -210 Q250 -243 211 -265 L187 -245 Q206 -232 217.5 -214 Q229 -196 232 -175 L189 -175 Z " />
<glyph glyph-name="tbar" unicode="&#x167;" horiz-adv-x="358" d="M319 89 L319 3 Q297 -3 276 -6.5 Q255 -10 239 -10 Q160 -10 122.5 29 Q85 68 85 150 L85 264 L9 264 L9 334 L85 334 L85 442 L9 442 L9 513 L85 513 L85 628 L183 644 L183 513 L317 513 L317 443 L183 443 L183 334 L317 334 L317 264 L183 264 L183 163 Q183 120 200.5 99 Q218 78 257 78 Q271 78 286 80.5 Q301 83 319 89 Z " />
<glyph glyph-name="tcaron" unicode="&#x165;" horiz-adv-x="358" d="M227 653 L227 765 L327 765 L327 695 Q327 646 308.5 611 Q290 576 252 551 L227 571 Q245 587 256 607.5 Q267 628 270 653 L227 653 Z M319 89 L319 3 Q297 -3 276 -6.5 Q255 -10 239 -10 Q160 -10 122.5 29 Q85 68 85 150 L85 435 L9 435 L9 513 L85 513 L85 628 L183 644 L183 513 L317 513 L317 436 L183 436 L183 163 Q183 120 200.5 99 Q218 78 257 78 Q271 78 286 80.5 Q301 83 319 89 Z " />
<glyph glyph-name="uni0163" unicode="&#x163;" horiz-adv-x="358" d="M319 89 L319 3 Q297 -3 276 -6.5 Q255 -10 239 -10 Q160 -10 122.5 29 Q85 68 85 150 L85 435 L9 435 L9 513 L85 513 L85 628 L183 644 L183 513 L317 513 L317 436 L183 436 L183 163 Q183 120 200.5 99 Q218 78 257 78 Q271 78 286 80.5 Q301 83 319 89 Z M131 -175 L131 -64 L231 -64 L231 -133 Q231 -177 211.5 -210 Q192 -243 153 -265 L129 -245 Q148 -232 159.5 -214 Q171 -196 174 -175 L131 -175 Z " />
<glyph glyph-name="uni021B" unicode="&#x21b;" horiz-adv-x="358" d="M319 89 L319 3 Q297 -3 276 -6.5 Q255 -10 239 -10 Q160 -10 122.5 29 Q85 68 85 150 L85 435 L9 435 L9 513 L85 513 L85 628 L183 644 L183 513 L317 513 L317 436 L183 436 L183 163 Q183 120 200.5 99 Q218 78 257 78 Q271 78 286 80.5 Q301 83 319 89 Z M131 -175 L131 -64 L231 -64 L231 -133 Q231 -177 211.5 -210 Q192 -243 153 -265 L129 -245 Q148 -232 159.5 -214 Q171 -196 174 -175 L131 -175 Z " />
<glyph glyph-name="uacute" unicode="&#xfa;" horiz-adv-x="604" d="M526 0 L434 0 L434 94 Q402 43 356 16.5 Q310 -10 254 -10 Q165 -10 119 39 Q73 88 73 182 L73 513 L170 513 L170 194 Q170 134 199 104.5 Q228 75 286 75 Q328 75 365.5 99.5 Q403 124 428 168 L428 513 L526 513 L526 0 Z M316 588 L228 588 L330 725 L439 725 L316 588 Z " />
<glyph glyph-name="ucircumflex" unicode="&#xfb;" horiz-adv-x="604" d="M526 0 L434 0 L434 94 Q402 43 356 16.5 Q310 -10 254 -10 Q165 -10 119 39 Q73 88 73 182 L73 513 L170 513 L170 194 Q170 134 199 104.5 Q228 75 286 75 Q328 75 365.5 99.5 Q403 124 428 168 L428 513 L526 513 L526 0 Z M466 588 L384 588 L299 678 L213 588 L137 588 L250 725 L352 725 L466 588 Z " />
<glyph glyph-name="udieresis" unicode="&#xfc;" horiz-adv-x="604" d="M526 0 L434 0 L434 94 Q402 43 356 16.5 Q310 -10 254 -10 Q165 -10 119 39 Q73 88 73 182 L73 513 L170 513 L170 194 Q170 134 199 104.5 Q228 75 286 75 Q328 75 365.5 99.5 Q403 124 428 168 L428 513 L526 513 L526 0 Z M431 594 L347 594 L347 727 L431 727 L431 594 Z M256 594 L172 594 L172 727 L256 727 L256 594 Z " />
<glyph glyph-name="ugrave" unicode="&#xf9;" horiz-adv-x="604" d="M526 0 L434 0 L434 94 Q402 43 356 16.5 Q310 -10 254 -10 Q165 -10 119 39 Q73 88 73 182 L73 513 L170 513 L170 194 Q170 134 199 104.5 Q228 75 286 75 Q328 75 365.5 99.5 Q403 124 428 168 L428 513 L526 513 L526 0 Z M172 725 L281 725 L382 588 L295 588 L172 725 Z " />
<glyph glyph-name="ubreve" unicode="&#x16d;" horiz-adv-x="604" d="M526 0 L434 0 L434 94 Q402 43 356 16.5 Q310 -10 254 -10 Q165 -10 119 39 Q73 88 73 182 L73 513 L170 513 L170 194 Q170 134 199 104.5 Q228 75 286 75 Q328 75 365.5 99.5 Q403 124 428 168 L428 513 L526 513 L526 0 Z M296 649 Q334 649 357 667 Q380 685 391 724 L456 724 Q448 661 405.5 624 Q363 587 296 587 Q229 587 186.5 624 Q144 661 137 724 L202 724 Q212 686 235 667.5 Q258 649 296 649 Z " />
<glyph glyph-name="uhungarumlaut" unicode="&#x171;" horiz-adv-x="604" d="M526 0 L434 0 L434 94 Q402 43 356 16.5 Q310 -10 254 -10 Q165 -10 119 39 Q73 88 73 182 L73 513 L170 513 L170 194 Q170 134 199 104.5 Q228 75 286 75 Q328 75 365.5 99.5 Q403 124 428 168 L428 513 L526 513 L526 0 Z M411 588 L325 588 L428 725 L536 725 L411 588 Z M229 588 L142 588 L246 725 L354 725 L229 588 Z " />
<glyph glyph-name="umacron" unicode="&#x16b;" horiz-adv-x="604" d="M526 0 L434 0 L434 94 Q402 43 356 16.5 Q310 -10 254 -10 Q165 -10 119 39 Q73 88 73 182 L73 513 L170 513 L170 194 Q170 134 199 104.5 Q228 75 286 75 Q328 75 365.5 99.5 Q403 124 428 168 L428 513 L526 513 L526 0 Z M453 619 L150 619 L150 695 L453 695 L453 619 Z " />
<glyph glyph-name="uogonek" unicode="&#x173;" horiz-adv-x="604" d="M531 -126 L531 -184 Q507 -199 485 -205 Q463 -211 435 -211 Q383 -211 349 -185.5 Q315 -160 315 -120 Q315 -84 344 -51.5 Q373 -19 434 12 L434 94 Q402 43 356 16.5 Q310 -10 254 -10 Q165 -10 119 39 Q73 88 73 182 L73 513 L170 513 L170 194 Q170 134 199 104.5 Q228 75 286 75 Q328 75 365.5 99.5 Q403 124 428 168 L428 513 L526 513 L526 0 L482 0 Q431 -31 410 -54.5 Q389 -78 389 -103 Q389 -127 406.5 -140.5 Q424 -154 453 -154 Q472 -154 493 -146.5 Q514 -139 531 -126 Z " />
<glyph glyph-name="uring" unicode="&#x16f;" horiz-adv-x="604" d="M526 0 L434 0 L434 94 Q402 43 356 16.5 Q310 -10 254 -10 Q165 -10 119 39 Q73 88 73 182 L73 513 L170 513 L170 194 Q170 134 199 104.5 Q228 75 286 75 Q328 75 365.5 99.5 Q403 124 428 168 L428 513 L526 513 L526 0 Z M194 674 Q194 720 224.5 749.5 Q255 779 302 779 Q348 779 378.5 748.5 Q409 718 409 674 Q409 629 378.5 599 Q348 569 302 569 Q256 569 225 599 Q194 629 194 674 Z M250 675 Q250 651 264.5 636 Q279 621 302 621 Q325 621 339.5 636 Q354 651 354 675 Q354 698 339.5 712.5 Q325 727 302 727 Q279 727 264.5 712.5 Q250 698 250 675 Z " />
<glyph glyph-name="utilde" unicode="&#x169;" horiz-adv-x="604" d="M526 0 L434 0 L434 94 Q402 43 356 16.5 Q310 -10 254 -10 Q165 -10 119 39 Q73 88 73 182 L73 513 L170 513 L170 194 Q170 134 199 104.5 Q228 75 286 75 Q328 75 365.5 99.5 Q403 124 428 168 L428 513 L526 513 L526 0 Z M316 685 Q339 667 351.5 661.5 Q364 656 376 656 Q396 656 408.5 673 Q421 690 423 720 L486 720 Q485 666 455 629.5 Q425 593 379 593 Q356 593 336 601 Q316 609 285 633 Q264 650 253.5 655 Q243 660 233 660 Q212 660 198.5 642.5 Q185 625 182 594 L119 594 Q121 654 149 688.5 Q177 723 225 723 Q246 723 265.5 715.5 Q285 708 316 685 Z " />
<glyph glyph-name="wacute" unicode="&#x1e83;" horiz-adv-x="843" d="M832 513 L650 0 L540 0 L417 379 L296 0 L194 0 L11 513 L114 513 L253 97 L384 513 L469 513 L602 97 L743 513 L832 513 Z M445 588 L357 588 L459 725 L568 725 L445 588 Z " />
<glyph glyph-name="wcircumflex" unicode="&#x175;" horiz-adv-x="843" d="M832 513 L650 0 L540 0 L417 379 L296 0 L194 0 L11 513 L114 513 L253 97 L384 513 L469 513 L602 97 L743 513 L832 513 Z M585 588 L503 588 L418 678 L332 588 L256 588 L369 725 L471 725 L585 588 Z " />
<glyph glyph-name="wdieresis" unicode="&#x1e85;" horiz-adv-x="843" d="M832 513 L650 0 L540 0 L417 379 L296 0 L194 0 L11 513 L114 513 L253 97 L384 513 L469 513 L602 97 L743 513 L832 513 Z M550 594 L466 594 L466 727 L550 727 L550 594 Z M375 594 L291 594 L291 727 L375 727 L375 594 Z " />
<glyph glyph-name="wgrave" unicode="&#x1e81;" horiz-adv-x="843" d="M832 513 L650 0 L540 0 L417 379 L296 0 L194 0 L11 513 L114 513 L253 97 L384 513 L469 513 L602 97 L743 513 L832 513 Z M281 725 L390 725 L491 588 L404 588 L281 725 Z " />
<glyph glyph-name="yacute" unicode="&#xfd;" horiz-adv-x="561" d="M90 -214 Q78 -214 66 -212 Q54 -210 44 -207 L44 -126 Q54 -128 64 -129.5 Q74 -131 84 -131 Q130 -131 168.5 -98.5 Q207 -66 238 -2 L12 513 L111 513 L284 107 L451 513 L549 513 L338 22 Q283 -105 224.5 -159.5 Q166 -214 90 -214 Z M305 588 L217 588 L319 725 L428 725 L305 588 Z " />
<glyph glyph-name="ydieresis" unicode="&#xff;" horiz-adv-x="561" d="M90 -214 Q78 -214 66 -212 Q54 -210 44 -207 L44 -126 Q54 -128 64 -129.5 Q74 -131 84 -131 Q130 -131 168.5 -98.5 Q207 -66 238 -2 L12 513 L111 513 L284 107 L451 513 L549 513 L338 22 Q283 -105 224.5 -159.5 Q166 -214 90 -214 Z M409 594 L325 594 L325 727 L409 727 L409 594 Z M234 594 L150 594 L150 727 L234 727 L234 594 Z " />
<glyph glyph-name="ycircumflex" unicode="&#x177;" horiz-adv-x="561" d="M90 -214 Q78 -214 66 -212 Q54 -210 44 -207 L44 -126 Q54 -128 64 -129.5 Q74 -131 84 -131 Q130 -131 168.5 -98.5 Q207 -66 238 -2 L12 513 L111 513 L284 107 L451 513 L549 513 L338 22 Q283 -105 224.5 -159.5 Q166 -214 90 -214 Z M444 588 L362 588 L277 678 L191 588 L115 588 L228 725 L330 725 L444 588 Z " />
<glyph glyph-name="ygrave" unicode="&#x1ef3;" horiz-adv-x="561" d="M90 -214 Q78 -214 66 -212 Q54 -210 44 -207 L44 -126 Q54 -128 64 -129.5 Q74 -131 84 -131 Q130 -131 168.5 -98.5 Q207 -66 238 -2 L12 513 L111 513 L284 107 L451 513 L549 513 L338 22 Q283 -105 224.5 -159.5 Q166 -214 90 -214 Z M143 725 L252 725 L353 588 L266 588 L143 725 Z " />
<glyph glyph-name="zcaron" unicode="&#x17e;" horiz-adv-x="491" d="M158 80 L456 80 L456 0 L35 0 L35 68 L330 432 L41 432 L41 513 L454 513 L454 444 L158 80 Z M300 588 L198 588 L85 725 L161 725 L247 636 L332 725 L414 725 L300 588 Z " />
<glyph glyph-name="zacute" unicode="&#x17a;" horiz-adv-x="491" d="M158 80 L456 80 L456 0 L35 0 L35 68 L330 432 L41 432 L41 513 L454 513 L454 444 L158 80 Z M260 588 L172 588 L274 725 L383 725 L260 588 Z " />
<glyph glyph-name="zdotaccent" unicode="&#x17c;" horiz-adv-x="491" d="M158 80 L456 80 L456 0 L35 0 L35 68 L330 432 L41 432 L41 513 L454 513 L454 444 L158 80 Z M197 727 L294 727 L294 594 L197 594 L197 727 Z " />
<glyph glyph-name="acute" unicode="&#xb4;" horiz-adv-x="500" d="M246 588 L158 588 L260 725 L369 725 L246 588 Z " />
<glyph glyph-name="grave" unicode="&#x60;" horiz-adv-x="500" d="M120 725 L229 725 L330 588 L243 588 L120 725 Z " />
<glyph glyph-name="circumflex" unicode="&#x2c6;" horiz-adv-x="500" d="M414 588 L332 588 L247 678 L161 588 L85 588 L198 725 L300 725 L414 588 Z " />
<glyph glyph-name="caron" unicode="&#x2c7;" horiz-adv-x="500" d="M300 588 L198 588 L85 725 L161 725 L247 636 L332 725 L414 725 L300 588 Z " />
<glyph glyph-name="tilde" unicode="&#x2dc;" horiz-adv-x="500" d="M264 685 Q287 667 299.5 661.5 Q312 656 324 656 Q344 656 356.5 673 Q369 690 371 720 L434 720 Q433 666 403 629.5 Q373 593 327 593 Q304 593 284 601 Q264 609 233 633 Q212 650 201.5 655 Q191 660 181 660 Q160 660 146.5 642.5 Q133 625 130 594 L67 594 Q69 654 97 688.5 Q125 723 173 723 Q194 723 213.5 715.5 Q233 708 264 685 Z " />
<glyph glyph-name="dieresis" unicode="&#xa8;" horiz-adv-x="500" d="M379 594 L295 594 L295 727 L379 727 L379 594 Z M204 594 L120 594 L120 727 L204 727 L204 594 Z " />
<glyph glyph-name="ring" unicode="&#x2da;" horiz-adv-x="500" d="M142 674 Q142 720 172.5 749.5 Q203 779 250 779 Q296 779 326.5 748.5 Q357 718 357 674 Q357 629 326.5 599 Q296 569 250 569 Q204 569 173 599 Q142 629 142 674 Z M198 675 Q198 651 212.5 636 Q227 621 250 621 Q273 621 287.5 636 Q302 651 302 675 Q302 698 287.5 712.5 Q273 727 250 727 Q227 727 212.5 712.5 Q198 698 198 675 Z " />
<glyph glyph-name="cedilla" unicode="&#xb8;" horiz-adv-x="500" d="M343 -124 Q343 -162 312.5 -185.5 Q282 -209 231 -209 Q204 -209 183.5 -205 Q163 -201 141 -191 L141 -141 Q167 -152 185.5 -156.5 Q204 -161 224 -161 Q249 -161 263 -152.5 Q277 -144 277 -127 Q277 -111 264.5 -102.5 Q252 -94 228 -94 L180 -94 L203 23 L243 7 L230 -53 L251 -53 Q294 -53 318.5 -72 Q343 -91 343 -124 Z " />
<glyph glyph-name="hungarumlaut" unicode="&#x2dd;" horiz-adv-x="500" d="M343 588 L257 588 L360 725 L468 725 L343 588 Z M161 588 L74 588 L178 725 L286 725 L161 588 Z " />
<glyph glyph-name="breve" unicode="&#x2d8;" horiz-adv-x="500" d="M244 649 Q282 649 305 667 Q328 685 339 724 L404 724 Q396 661 353.5 624 Q311 587 244 587 Q177 587 134.5 624 Q92 661 85 724 L150 724 Q160 686 183 667.5 Q206 649 244 649 Z " />
<glyph glyph-name="overscore" unicode="&#xaf;" horiz-adv-x="500" d="M401 619 L98 619 L98 695 L401 695 L401 619 Z " />
<glyph glyph-name="dotaccent" unicode="&#x2d9;" horiz-adv-x="500" d="M201 727 L298 727 L298 594 L201 594 L201 727 Z " />
<glyph glyph-name="middot" unicode="&#xb7;" horiz-adv-x="500" d="M132 239 L132 361 L241 361 L241 239 L132 239 Z " />
<glyph glyph-name="ogonek" unicode="&#x2db;" horiz-adv-x="500" d="M261 -103 Q261 -126 279 -140 Q297 -154 326 -154 Q345 -154 365.5 -146.5 Q386 -139 404 -126 L404 -184 Q379 -199 357 -205 Q335 -211 308 -211 Q256 -211 222 -185.5 Q188 -160 188 -120 Q188 -80 224.5 -44 Q261 -8 348 31 L402 31 Q317 -18 289 -46 Q261 -74 261 -103 Z " />
<glyph glyph-name="commaaccent" unicode="&#xf6c3;" horiz-adv-x="500" d="M201 -175 L201 -64 L301 -64 L301 -133 Q301 -177 281.5 -210 Q262 -243 223 -265 L199 -245 Q218 -232 229.5 -214 Q241 -196 244 -175 L201 -175 Z " />
<glyph glyph-name="caron.alt" unicode="&#xe189;" horiz-adv-x="500" d="M138 598 L138 710 L238 710 L238 640 Q238 590 219 553.5 Q200 517 160 490 L136 510 Q155 527 166.5 549.5 Q178 572 181 598 L138 598 Z " />
<glyph glyph-name="revcommaaccent" unicode="&#xe18a;" horiz-adv-x="500" d="M295 694 L295 587 L195 587 L195 652 Q195 697 214 731 Q233 765 272 788 L297 768 Q279 756 267.5 736.5 Q256 717 252 694 L295 694 Z " />
<glyph glyph-name="period" unicode="&#x2e;" horiz-adv-x="219" d="M55 0 L55 121 L163 121 L163 0 L55 0 Z " />
<glyph glyph-name="comma" unicode="&#x2c;" horiz-adv-x="219" d="M55 0 L55 121 L163 121 L163 40 Q163 -21 140.5 -62.5 Q118 -104 69 -139 L44 -114 Q71 -88 85.5 -58.5 Q100 -29 100 0 L55 0 Z " />
<glyph glyph-name="colon" unicode="&#x3a;" horiz-adv-x="237" d="M64 387 L64 508 L172 508 L172 387 L64 387 Z M64 0 L64 121 L172 121 L172 0 L64 0 Z " />
<glyph glyph-name="semicolon" unicode="&#x3b;" horiz-adv-x="237" d="M64 386 L64 508 L172 508 L172 386 L64 386 Z M64 0 L64 121 L172 121 L172 40 Q172 -21 149.5 -62.5 Q127 -104 78 -139 L53 -114 Q80 -88 94.5 -58.5 Q109 -29 109 0 L64 0 Z " />
<glyph glyph-name="ellipsis" unicode="&#x2026;" horiz-adv-x="658" d="M494 0 L494 121 L602 121 L602 0 L494 0 Z M274 0 L274 121 L383 121 L383 0 L274 0 Z M55 0 L55 121 L163 121 L163 0 L55 0 Z " />
<glyph glyph-name="question" unicode="&#x3f;" horiz-adv-x="470" d="M232 211 L159 211 L148 386 L210 405 Q278 424 304 450 Q330 476 330 518 Q330 559 300.5 584 Q271 609 222 609 Q186 609 147.5 593 Q109 577 75 549 L29 624 Q83 666 130 683 Q177 700 232 700 Q318 700 373.5 652.5 Q429 605 429 530 Q429 462 391 415.5 Q353 369 277 345 L243 335 L232 211 Z M139 0 L139 121 L248 121 L248 0 L139 0 Z " />
<glyph glyph-name="exclam" unicode="&#x21;" horiz-adv-x="290" d="M111 208 L85 441 L85 690 L204 690 L204 441 L177 208 L111 208 Z M88 0 L88 121 L196 121 L196 0 L88 0 Z " />
<glyph glyph-name="questiondown" unicode="&#xbf;" horiz-adv-x="470" d="M329 513 L329 391 L221 391 L221 513 L329 513 Z M236 301 L310 301 L321 126 L259 108 Q192 89 165.5 63 Q139 37 139 -5 Q139 -46 168.5 -71 Q198 -96 247 -96 Q284 -96 322.5 -80 Q361 -64 394 -35 L440 -111 Q387 -153 340 -169.5 Q293 -186 237 -186 Q151 -186 95.5 -139 Q40 -92 40 -17 Q40 51 78.5 97.5 Q117 144 192 167 L225 177 L236 301 Z " />
<glyph glyph-name="exclamdown" unicode="&#xa1;" horiz-adv-x="290" d="M196 513 L196 391 L88 391 L88 513 L196 513 Z M204 -176 L85 -176 L85 71 L111 304 L177 304 L204 71 L204 -176 Z " />
<glyph glyph-name="parenleft" unicode="&#x28;" horiz-adv-x="366" d="M59 299 Q59 428 117 547.5 Q175 667 277 745 L324 706 Q244 617 203 514 Q162 411 162 299 Q162 186 203 83 Q244 -20 324 -108 L276 -146 Q175 -67 117 52 Q59 171 59 299 Z " />
<glyph glyph-name="parenright" unicode="&#x29;" horiz-adv-x="366" d="M41 706 L89 745 Q191 666 249 546.5 Q307 427 307 299 Q307 172 249 52.5 Q191 -67 90 -146 L41 -108 Q121 -20 162 83 Q203 186 203 299 Q203 412 162 515 Q121 618 41 706 Z " />
<glyph glyph-name="braceleft" unicode="&#x7b;" horiz-adv-x="391" d="M103 573 Q103 653 166 696.5 Q229 740 347 740 L347 668 Q272 668 234.5 644 Q197 620 197 571 Q197 555 200.5 538.5 Q204 522 216 493 Q229 462 233 443 Q237 424 237 404 Q237 375 222.5 347.5 Q208 320 187 307 Q208 294 222.5 266.5 Q237 239 237 210 Q237 190 233 171.5 Q229 153 216 121 Q204 92 200.5 75.5 Q197 59 197 43 Q197 -5 234.5 -29 Q272 -53 347 -53 L347 -125 Q229 -125 166 -81.5 Q103 -38 103 42 Q103 64 108.5 85 Q114 106 131 140 Q144 166 148 180 Q152 194 152 207 Q152 237 136.5 254 Q121 271 95 271 L56 271 L56 343 L95 343 Q121 343 136.5 360 Q152 377 152 407 Q152 420 148 434 Q144 448 131 475 Q114 510 108.5 530.5 Q103 551 103 573 Z " />
<glyph glyph-name="braceright" unicode="&#x7d;" horiz-adv-x="391" d="M194 571 Q194 620 156.5 644 Q119 668 44 668 L44 740 Q162 740 224.5 696.5 Q287 653 287 573 Q287 551 281.5 530.5 Q276 510 260 475 Q247 448 243 434 Q239 420 239 407 Q239 377 254.5 360 Q270 343 295 343 L334 343 L334 271 L295 271 Q269 271 254 254 Q239 237 239 207 Q239 194 243 180 Q247 166 260 140 Q276 106 281.5 85 Q287 64 287 42 Q287 -38 224.5 -81.5 Q162 -125 44 -125 L44 -53 Q119 -53 156.5 -29 Q194 -5 194 43 Q194 59 190.5 75.5 Q187 92 174 121 Q161 153 157 171.5 Q153 190 153 210 Q153 238 167.5 266 Q182 294 203 308 Q182 321 167.5 348 Q153 375 153 404 Q153 424 157 443 Q161 462 175 493 Q187 522 190.5 538.5 Q194 555 194 571 Z " />
<glyph glyph-name="bracketleft" unicode="&#x5b;" horiz-adv-x="363" d="M320 -123 L75 -123 L75 740 L320 740 L320 664 L165 664 L165 -48 L320 -48 L320 -123 Z " />
<glyph glyph-name="bracketright" unicode="&#x5d;" horiz-adv-x="363" d="M42 740 L287 740 L287 -123 L42 -123 L42 -48 L197 -48 L197 664 L42 664 L42 740 Z " />
<glyph glyph-name="slash" unicode="&#x2f;" horiz-adv-x="406" d="M111 0 L19 0 L295 695 L387 695 L111 0 Z " />
<glyph glyph-name="backslash" unicode="&#x5c;" horiz-adv-x="406" d="M19 695 L111 695 L387 0 L294 0 L19 695 Z " />
<glyph glyph-name="underscore" unicode="&#x5f;" horiz-adv-x="495" d="M472 -117 L22 -117 L22 -42 L472 -42 L472 -117 Z " />
<glyph glyph-name="hyphen" unicode="&#x2d;" horiz-adv-x="418" d="M360 241 L58 241 L58 317 L360 317 L360 241 Z " />
<glyph glyph-name="uni00AD" unicode="&#xad;" horiz-adv-x="418" d="" />
<glyph glyph-name="endash" unicode="&#x2013;" horiz-adv-x="500" d="M455 231 L45 231 L45 307 L455 307 L455 231 Z " />
<glyph glyph-name="emdash" unicode="&#x2014;" horiz-adv-x="1000" d="M955 231 L45 231 L45 307 L955 307 L955 231 Z " />
<glyph glyph-name="brokenbar" unicode="&#xa6;" horiz-adv-x="241" d="M80 770 L161 770 L161 394 L80 394 L80 770 Z M80 296 L161 296 L161 -80 L80 -80 L80 296 Z " />
<glyph glyph-name="bar" unicode="&#x7c;" horiz-adv-x="241" d="M80 770 L161 770 L161 -80 L80 -80 L80 770 Z " />
<glyph glyph-name="guillemotleft" unicode="&#xab;" horiz-adv-x="609" d="M509 33 L292 225 L292 274 L509 466 L547 427 L384 249 L547 71 L509 33 Z M266 33 L49 225 L49 274 L266 466 L304 427 L141 249 L304 71 L266 33 Z " />
<glyph glyph-name="guillemotright" unicode="&#xbb;" horiz-adv-x="609" d="M343 466 L559 274 L559 225 L343 33 L304 71 L468 249 L304 427 L343 466 Z M100 466 L316 274 L316 225 L100 33 L61 71 L225 249 L61 427 L100 466 Z " />
<glyph glyph-name="guilsinglleft" unicode="&#x2039;" horiz-adv-x="366" d="M266 33 L49 225 L49 274 L266 466 L304 427 L141 249 L304 71 L266 33 Z " />
<glyph glyph-name="guilsinglright" unicode="&#x203a;" horiz-adv-x="366" d="M100 466 L316 274 L316 225 L100 33 L61 71 L225 249 L61 427 L100 466 Z " />
<glyph glyph-name="quotesinglbase" unicode="&#x201a;" horiz-adv-x="219" d="M55 0 L55 121 L163 121 L163 38 Q163 -16 131.5 -58 Q100 -100 46 -119 L46 -75 Q72 -61 85.5 -43 Q99 -25 103 0 L55 0 Z " />
<glyph glyph-name="quotedblbase" unicode="&#x201e;" horiz-adv-x="398" d="M234 0 L234 121 L342 121 L342 38 Q342 -16 310.5 -58 Q279 -100 225 -119 L225 -75 Q251 -60 264.5 -42 Q278 -24 282 0 L234 0 Z M55 0 L55 121 L163 121 L163 38 Q163 -16 131.5 -58 Q100 -100 46 -119 L46 -75 Q72 -61 85.5 -43 Q99 -25 103 0 L55 0 Z " />
<glyph glyph-name="quoteleft" unicode="&#x2018;" horiz-adv-x="219" d="M163 586 L163 464 L55 464 L55 548 Q55 602 86.5 644.5 Q118 687 172 706 L172 661 Q147 648 133.5 630 Q120 612 115 586 L163 586 Z " />
<glyph glyph-name="quotedblleft" unicode="&#x201c;" horiz-adv-x="395" d="M339 586 L339 464 L231 464 L231 548 Q231 602 262.5 644.5 Q294 687 348 706 L348 661 Q323 648 309.5 630 Q296 612 291 586 L339 586 Z M163 586 L163 464 L55 464 L55 548 Q55 602 86.5 644.5 Q118 687 172 706 L172 661 Q147 648 133.5 630 Q120 612 115 586 L163 586 Z " />
<glyph glyph-name="quoteright" unicode="&#x2019;" horiz-adv-x="219" d="M55 568 L55 690 L163 690 L163 606 Q163 552 131.5 509.5 Q100 467 46 448 L46 492 Q72 506 85.5 524.5 Q99 543 103 568 L55 568 Z " />
<glyph glyph-name="quotedblright" unicode="&#x201d;" horiz-adv-x="395" d="M231 568 L231 690 L339 690 L339 606 Q339 552 307.5 509.5 Q276 467 222 448 L222 492 Q248 506 261.5 524.5 Q275 543 279 568 L231 568 Z M55 568 L55 690 L163 690 L163 606 Q163 552 131.5 509.5 Q100 467 46 448 L46 492 Q72 506 85.5 524.5 Q99 543 103 568 L55 568 Z " />
<glyph glyph-name="quotesingle" unicode="&#x27;" horiz-adv-x="182" d="M123 493 L58 493 L48 690 L134 690 L123 493 Z " />
<glyph glyph-name="quotedbl" unicode="&#x22;" horiz-adv-x="340" d="M281 493 L216 493 L205 690 L291 690 L281 493 Z M123 493 L58 493 L48 690 L134 690 L123 493 Z " />
<glyph glyph-name="bullet" unicode="&#x2022;" horiz-adv-x="295" d="M148 406 Q190 406 217.5 378.5 Q245 351 245 309 Q245 265 218 237.5 Q191 210 148 210 Q105 210 77.5 237.5 Q50 265 50 309 Q50 351 77.5 378.5 Q105 406 148 406 Z " />
<glyph glyph-name="ampersand" unicode="&#x26;" horiz-adv-x="709" d="M668 51 L605 -10 L521 67 Q474 29 418.5 9.5 Q363 -10 299 -10 Q188 -10 118.5 42 Q49 94 49 182 Q49 245 87 291 Q125 337 198 363 Q149 408 128.5 445 Q108 482 108 524 Q108 602 164 651 Q220 700 314 700 Q402 700 458 654 Q514 608 514 540 Q514 477 472.5 430.5 Q431 384 343 350 L521 186 Q541 210 556.5 239 Q572 268 583 299 L665 273 Q647 231 627 195 Q607 159 583 129 L668 51 Z M314 619 Q266 619 237.5 592.5 Q209 566 209 523 Q209 498 226 471 Q243 444 297 393 Q364 429 389 459 Q414 489 414 530 Q414 569 385.5 594 Q357 619 314 619 Z M151 196 Q151 143 195 110.5 Q239 78 309 78 Q349 78 386.5 90 Q424 102 457 126 L247 318 Q200 300 175.5 269 Q151 238 151 196 Z " />
<glyph glyph-name="paragraph" unicode="&#xb6;" horiz-adv-x="513" d="M318 629 L318 0 L261 0 L261 306 L235 306 Q152 306 100.5 359.5 Q49 413 49 499 Q49 583 100.5 636.5 Q152 690 235 690 L435 690 L435 0 L378 0 L378 629 L318 629 Z " />
<glyph glyph-name="dagger" unicode="&#x2020;" horiz-adv-x="551" d="M496 463 L496 369 L320 379 L320 -125 L231 -125 L231 379 L54 369 L54 463 L231 455 L231 690 L320 690 L320 455 L496 463 Z " />
<glyph glyph-name="daggerdbl" unicode="&#x2021;" horiz-adv-x="551" d="M496 184 L496 90 L320 100 L320 -125 L231 -125 L231 100 L54 90 L54 184 L231 176 L231 390 L54 380 L54 474 L231 466 L231 690 L320 690 L320 466 L496 474 L496 380 L320 390 L320 176 L496 184 Z " />
<glyph glyph-name="section" unicode="&#xa7;" horiz-adv-x="499" d="M132 375 Q132 343 160 323.5 Q188 304 279 277 Q288 275 298.5 271.5 Q309 268 321 263 Q343 274 355 291.5 Q367 309 367 329 Q367 360 340 379.5 Q313 399 220 427 Q211 429 200.5 432.5 Q190 436 178 441 Q156 430 144 412.5 Q132 395 132 375 Z M440 138 Q440 70 384 30 Q328 -10 236 -10 Q191 -10 151 -1.5 Q111 7 77 23 L77 111 Q110 91 151 80 Q192 69 234 69 Q287 69 314.5 86 Q342 103 342 135 Q342 158 323 171.5 Q304 185 216 211 Q118 239 81 271.5 Q44 304 44 357 Q44 392 62 420.5 Q80 449 116 470 Q86 489 72 512 Q58 535 58 565 Q58 633 114 674 Q170 715 262 715 Q308 715 348 706 Q388 697 421 680 L421 593 Q387 612 346.5 623 Q306 634 265 634 Q212 634 184.5 617 Q157 600 157 568 Q157 545 177.5 531.5 Q198 518 282 493 Q381 464 418 432 Q455 400 455 347 Q455 311 436.5 282.5 Q418 254 383 234 Q412 215 426 191.5 Q440 168 440 138 Z " />
<glyph glyph-name="asterisk" unicode="&#x2a;" horiz-adv-x="413" d="M183 577 L174 717 L239 717 L231 577 L346 633 L376 572 L245 529 L340 428 L289 385 L207 498 L125 386 L75 429 L168 529 L36 572 L67 633 L183 577 Z " />
<glyph glyph-name="trademark" unicode="&#x2122;" horiz-adv-x="634" d="M248 690 L248 644 L166 644 L166 418 L115 418 L115 644 L30 644 L30 690 L248 690 Z M438 557 L528 690 L577 690 L577 418 L527 418 L527 610 L454 504 L421 504 L348 611 L348 418 L297 418 L297 690 L348 690 L438 557 Z " />
<glyph glyph-name="registered" unicode="&#xae;" horiz-adv-x="520" d="M260 700 Q352 700 417.5 636 Q483 572 483 481 Q483 389 418 325 Q353 261 260 261 Q167 261 102 325 Q37 389 37 481 Q37 572 102 636 Q167 700 260 700 Z M260 656 Q183 656 133.5 606.5 Q84 557 84 481 Q84 404 133.5 354 Q183 304 260 304 Q336 304 385.5 354 Q435 404 435 481 Q435 557 385.5 606.5 Q336 656 260 656 Z M270 555 L220 555 L220 492 L270 492 Q288 492 298 500 Q308 508 308 524 Q308 538 297.5 546.5 Q287 555 270 555 Z M356 377 L309 377 L259 459 L220 459 L220 377 L181 377 L181 590 L270 590 Q307 590 328 572.5 Q349 555 349 525 Q349 502 336 486 Q323 470 299 464 L356 377 Z " />
<glyph glyph-name="copyright" unicode="&#xa9;" horiz-adv-x="794" d="M397 700 Q545 700 650.5 595.5 Q756 491 756 345 Q756 198 650.5 94 Q545 -10 397 -10 Q249 -10 143.5 94 Q38 198 38 345 Q38 492 143.5 596 Q249 700 397 700 Z M397 638 Q271 638 187.5 553.5 Q104 469 104 345 Q104 220 187.5 135.5 Q271 51 397 51 Q520 51 605 136.5 Q690 222 690 345 Q690 467 605.5 552.5 Q521 638 397 638 Z M413 529 Q441 529 462.5 524 Q484 519 502 508 L502 448 Q481 459 462 464 Q443 469 417 469 Q360 469 326.5 436 Q293 403 293 347 Q293 289 327 256 Q361 223 421 223 Q447 223 465.5 227 Q484 231 502 240 L502 184 Q479 172 460 168.5 Q441 165 416 165 Q332 165 279 215.5 Q226 266 226 347 Q226 424 280 476.5 Q334 529 413 529 Z " />
<glyph glyph-name="at" unicode="&#x40;" horiz-adv-x="984" d="M520 -134 Q578 -134 634 -123.5 Q690 -113 752 -90 L773 -152 Q722 -176 655 -190 Q588 -204 519 -204 Q305 -204 174.5 -87.5 Q44 29 44 222 Q44 413 169 533.5 Q294 654 494 654 Q688 654 814 543.5 Q940 433 940 264 Q940 145 882 67.5 Q824 -10 743 -10 Q696 -10 665 9.5 Q634 29 616 70 Q586 32 544.5 11 Q503 -10 454 -10 Q363 -10 307 54 Q251 118 251 218 Q251 316 311 381.5 Q371 447 460 447 Q503 447 539.5 430 Q576 413 606 378 L606 442 L694 442 L694 137 Q694 101 711.5 79 Q729 57 759 57 Q804 57 832.5 114 Q861 171 861 259 Q861 402 757.5 493 Q654 584 496 584 Q327 584 225 484 Q123 384 123 220 Q123 55 230.5 -39.5 Q338 -134 520 -134 Z M477 67 Q518 67 553.5 87 Q589 107 606 141 L606 295 Q588 329 553 349 Q518 369 479 369 Q420 369 382 327 Q344 285 344 219 Q344 153 381.5 110 Q419 67 477 67 Z " />
<glyph glyph-name="ordfeminine" unicode="&#xaa;" horiz-adv-x="398" d="M271 484 L271 525 Q255 538 233.5 545 Q212 552 188 552 Q156 552 136.5 536 Q117 520 117 493 Q117 467 137 451 Q157 435 187 435 Q213 435 235 448 Q257 461 271 484 Z M89 620 L89 672 Q112 686 139.5 693 Q167 700 197 700 Q264 700 299 668.5 Q334 637 334 577 L334 392 L272 392 L272 444 Q254 417 225 402 Q196 387 162 387 Q115 387 83 416 Q51 445 51 489 Q51 533 83.5 562 Q116 591 168 591 Q196 591 220.5 583.5 Q245 576 270 560 L270 574 Q270 612 249 630.5 Q228 649 186 649 Q161 649 137 642 Q113 635 89 620 Z M361 262 L36 262 L36 321 L361 321 L361 262 Z " />
<glyph glyph-name="ordmasculine" unicode="&#xba;" horiz-adv-x="398" d="M199 387 Q129 387 86 430 Q43 473 43 542 Q43 612 86.5 656 Q130 700 199 700 Q268 700 311.5 656 Q355 612 355 542 Q355 473 312 430 Q269 387 199 387 Z M199 641 Q158 641 133.5 614.5 Q109 588 109 543 Q109 499 133.5 472.5 Q158 446 199 446 Q240 446 264 472.5 Q288 499 288 543 Q288 588 264 614.5 Q240 641 199 641 Z M361 262 L36 262 L36 321 L361 321 L361 262 Z " />
<glyph glyph-name="questiondown.case" unicode="&#xe1f6;" horiz-adv-x="470" d="M329 690 L329 568 L221 568 L221 690 L329 690 Z M236 478 L310 478 L321 303 L259 284 Q192 266 165.5 240 Q139 214 139 171 Q139 130 168.5 105 Q198 80 247 80 Q283 80 321.5 96 Q360 112 394 140 L440 65 Q387 23 340 6.5 Q293 -10 237 -10 Q150 -10 95 37 Q40 84 40 159 Q40 227 78 273.5 Q116 320 192 344 L225 354 L236 478 Z " />
<glyph glyph-name="exclamdown.case" unicode="&#xe1f7;" horiz-adv-x="290" d="M196 690 L196 568 L88 568 L88 690 L196 690 Z M204 0 L85 0 L85 248 L111 481 L177 481 L204 248 L204 0 Z " />
<glyph glyph-name="parenleft.case" unicode="&#xe1e8;" horiz-adv-x="366" d="M59 336 Q59 465 117 584.5 Q175 704 277 783 L324 744 Q244 654 203 551 Q162 448 162 336 Q162 223 203 120 Q244 17 324 -71 L276 -109 Q175 -30 117 89 Q59 208 59 336 Z " />
<glyph glyph-name="parenright.case" unicode="&#xe1e9;" horiz-adv-x="366" d="M41 744 L89 783 Q191 704 249 584 Q307 464 307 336 Q307 209 249 89.5 Q191 -30 90 -109 L41 -71 Q121 17 162 120 Q203 223 203 336 Q203 449 162 552 Q121 655 41 744 Z " />
<glyph glyph-name="braceleft.case" unicode="&#xe1ea;" horiz-adv-x="391" d="M103 610 Q103 690 166 733.5 Q229 777 347 777 L347 706 Q272 706 234.5 681.5 Q197 657 197 608 Q197 592 200.5 575.5 Q204 559 216 530 Q229 499 233 480 Q237 461 237 441 Q237 412 222.5 385 Q208 358 187 345 Q208 331 222.5 303.5 Q237 276 237 248 Q237 228 233 209.5 Q229 191 216 159 Q204 129 200.5 113 Q197 97 197 80 Q197 32 234.5 8 Q272 -16 347 -16 L347 -87 Q228 -87 165.5 -44 Q103 -1 103 79 Q103 101 108.5 122 Q114 143 131 176 Q144 204 148 218 Q152 232 152 245 Q152 275 136.5 291.5 Q121 308 95 308 L56 308 L56 381 L95 381 Q121 381 136.5 397.5 Q152 414 152 444 Q152 457 148 471 Q144 485 131 512 Q114 547 108.5 567.5 Q103 588 103 610 Z " />
<glyph glyph-name="braceright.case" unicode="&#xe1eb;" horiz-adv-x="391" d="M194 608 Q194 657 156.5 681.5 Q119 706 44 706 L44 777 Q162 777 224.5 733.5 Q287 690 287 610 Q287 588 281.5 567.5 Q276 547 260 512 Q247 485 243 471 Q239 457 239 444 Q239 414 254 397.5 Q269 381 295 381 L334 381 L334 308 L295 308 Q269 308 254 291.5 Q239 275 239 245 Q239 232 243 218 Q247 204 260 176 Q276 143 281.5 122 Q287 101 287 79 Q287 -1 224.5 -44 Q162 -87 44 -87 L44 -16 Q119 -16 156.5 8 Q194 32 194 80 Q194 97 190.5 113 Q187 129 174 159 Q161 191 157 209.5 Q153 228 153 248 Q153 276 167.5 303.5 Q182 331 203 345 Q182 358 167.5 385 Q153 412 153 441 Q153 461 157 480 Q161 499 175 530 Q187 559 190.5 575.5 Q194 592 194 608 Z " />
<glyph glyph-name="bracketleft.case" unicode="&#xe1ec;" horiz-adv-x="363" d="M320 -86 L75 -86 L75 777 L320 777 L320 701 L165 701 L165 -10 L320 -10 L320 -86 Z " />
<glyph glyph-name="bracketright.case" unicode="&#xe1ed;" horiz-adv-x="363" d="M42 777 L287 777 L287 -86 L42 -86 L42 -10 L197 -10 L197 701 L42 701 L42 777 Z " />
<glyph glyph-name="hyphen.case" unicode="&#xe1f8;" horiz-adv-x="418" d="M360 297 L58 297 L58 372 L360 372 L360 297 Z " />
<glyph glyph-name="endash.case" unicode="&#xe1ee;" horiz-adv-x="500" d="M455 287 L45 287 L45 362 L455 362 L455 287 Z " />
<glyph glyph-name="emdash.case" unicode="&#xe1ef;" horiz-adv-x="1000" d="M955 287 L45 287 L45 362 L955 362 L955 287 Z " />
<glyph glyph-name="guilsinglleft.case" unicode="&#xe1f2;" horiz-adv-x="366" d="M266 109 L49 300 L49 350 L266 541 L304 503 L141 325 L304 147 L266 109 Z " />
<glyph glyph-name="guilsinglright.case" unicode="&#xe1f3;" horiz-adv-x="366" d="M100 541 L316 350 L316 300 L100 109 L61 147 L225 325 L61 503 L100 541 Z " />
<glyph glyph-name="guillemotleft.case" unicode="&#xe1f0;" horiz-adv-x="609" d="M509 109 L292 300 L292 350 L509 541 L547 503 L384 325 L547 147 L509 109 Z M266 109 L49 300 L49 350 L266 541 L304 503 L141 325 L304 147 L266 109 Z " />
<glyph glyph-name="guillemotright.case" unicode="&#xe1f1;" horiz-adv-x="609" d="M343 541 L559 350 L559 300 L343 109 L304 147 L468 325 L304 503 L343 541 Z M100 541 L316 350 L316 300 L100 109 L61 147 L225 325 L61 503 L100 541 Z " />
<glyph glyph-name="bullet.case" unicode="&#xe1f4;" horiz-adv-x="295" d="M148 451 Q191 451 218 423.5 Q245 396 245 353 Q245 310 218 282.5 Q191 255 148 255 Q105 255 77.5 282.5 Q50 310 50 353 Q50 396 77.5 423.5 Q105 451 148 451 Z " />
<glyph glyph-name="at.case" unicode="&#xe1fb;" horiz-adv-x="984" d="M520 -33 Q578 -33 634 -22.5 Q690 -12 752 11 L773 -51 Q722 -75 655 -89 Q588 -103 519 -103 Q305 -103 174.5 13.5 Q44 130 44 323 Q44 514 169 634.5 Q294 755 494 755 Q688 755 814 644.5 Q940 534 940 365 Q940 246 882 168.5 Q824 91 743 91 Q696 91 665 110.5 Q634 130 616 171 Q586 133 544.5 112 Q503 91 454 91 Q363 91 307 155 Q251 219 251 319 Q251 417 311 482.5 Q371 548 460 548 Q503 548 539.5 531 Q576 514 606 479 L606 543 L694 543 L694 238 Q694 202 711.5 180 Q729 158 759 158 Q804 158 832.5 215 Q861 272 861 360 Q861 503 757.5 594 Q654 685 496 685 Q327 685 225 585 Q123 485 123 321 Q123 156 230.5 61.5 Q338 -33 520 -33 Z M477 168 Q518 168 553.5 188 Q589 208 606 242 L606 396 Q588 430 553 450 Q518 470 479 470 Q420 470 382 428 Q344 386 344 320 Q344 254 381.5 211 Q419 168 477 168 Z " />
<glyph glyph-name="numbersign" unicode="&#x23;" horiz-adv-x="728" d="M259 270 L414 270 L468 416 L312 416 L259 270 Z M401 0 L315 0 L386 194 L231 194 L160 0 L74 0 L145 194 L26 194 L26 270 L173 270 L227 416 L102 416 L102 492 L254 492 L327 690 L412 690 L340 492 L495 492 L568 690 L653 690 L581 492 L702 492 L702 416 L553 416 L500 270 L626 270 L626 194 L472 194 L401 0 Z " />
<glyph glyph-name="Euro" unicode="&#x20ac;" horiz-adv-x="668" d="M624 121 L624 28 Q582 8 539 -1 Q496 -10 444 -10 Q320 -10 234.5 58.5 Q149 127 123 246 L22 246 L30 309 L113 309 Q112 315 112 322.5 Q112 330 112 346 Q112 360 112 366.5 Q112 373 113 379 L40 379 L48 442 L122 442 Q149 562 237.5 631 Q326 700 454 700 Q502 700 540 692 Q578 684 619 663 L619 571 Q576 589 539 597 Q502 605 463 605 Q372 605 312.5 563 Q253 521 231 442 L538 442 L529 379 L220 379 Q219 373 219 366.5 Q219 360 219 346 Q219 339 219.5 331.5 Q220 324 221 309 L519 309 L511 246 L232 246 Q254 167 314 125.5 Q374 84 467 84 Q510 84 548.5 93 Q587 102 624 121 Z " />
<glyph glyph-name="dollar" unicode="&#x24;" horiz-adv-x="544" d="M164 523 Q164 493 179 471.5 Q194 450 229 430 L229 601 Q198 591 181 571 Q164 551 164 523 Z M385 178 Q385 211 365.5 235.5 Q346 260 297 287 L297 86 Q340 95 362.5 118.5 Q385 142 385 178 Z M297 -7 L297 -82 L229 -82 L229 -9 Q180 -7 134 8 Q88 23 57 46 L57 143 Q96 116 140 100 Q184 84 229 82 L229 319 Q129 366 93 409 Q57 452 57 516 Q57 588 103 636 Q149 684 229 696 L229 781 L297 781 L297 700 Q339 698 376.5 687.5 Q414 677 447 659 L447 565 Q413 583 374.5 594 Q336 605 297 608 L297 397 Q408 351 450.5 304 Q493 257 493 185 Q493 106 440.5 55 Q388 4 297 -7 Z " />
<glyph glyph-name="yen" unicode="&#xa5;" horiz-adv-x="684" d="M589 238 L589 176 L393 176 L393 0 L290 0 L290 176 L88 176 L88 238 L290 238 L290 282 L275 305 L88 305 L88 368 L233 368 L19 690 L134 690 L342 368 L550 690 L665 690 L450 368 L589 368 L589 305 L408 305 L393 282 L393 238 L589 238 Z " />
<glyph glyph-name="sterling" unicode="&#xa3;" horiz-adv-x="548" d="M211 91 L509 91 L509 0 L55 0 L55 91 L73 91 Q133 91 165.5 122.5 Q198 154 198 209 Q198 232 191 255.5 Q184 279 169 308 L53 308 L53 371 L131 371 Q109 409 100 439.5 Q91 470 91 500 Q91 589 156 644.5 Q221 700 322 700 Q366 700 398 693 Q430 686 456 671 L456 577 Q430 591 400.5 598 Q371 605 336 605 Q273 605 235.5 574.5 Q198 544 198 492 Q198 467 207.5 440.5 Q217 414 244 371 L423 371 L423 308 L280 308 Q290 285 294.5 265.5 Q299 246 299 226 Q299 182 276.5 147 Q254 112 211 91 Z " />
<glyph glyph-name="cent" unicode="&#xa2;" horiz-adv-x="520" d="M472 122 L472 36 Q445 16 408.5 4.5 Q372 -7 328 -10 L328 -82 L260 -82 L260 -6 Q161 9 102.5 80 Q44 151 44 256 Q44 361 102.5 432 Q161 503 260 519 L260 602 L328 602 L328 523 Q372 521 407 509.5 Q442 498 465 479 L465 392 Q440 414 404.5 426.5 Q369 439 328 439 L328 73 Q369 73 402 84 Q435 95 472 122 Z M143 256 Q143 190 173.5 144.5 Q204 99 260 82 L260 429 Q204 412 173.5 367 Q143 322 143 256 Z " />
<glyph glyph-name="florin" unicode="&#x192;" horiz-adv-x="536" d="M440 700 Q459 700 474 697.5 Q489 695 509 688 L509 597 Q495 602 479 604.5 Q463 607 449 607 Q398 607 371 576 Q344 545 332 472 L316 374 L442 374 L432 312 L304 312 L267 80 Q252 -13 207 -61.5 Q162 -110 92 -110 Q69 -110 51 -107 Q33 -104 15 -98 L15 -7 Q32 -12 48 -14 Q64 -16 80 -16 Q117 -16 138 7 Q159 30 167 82 L206 312 L108 312 L118 374 L215 374 L235 491 Q254 595 305.5 647.5 Q357 700 440 700 Z " />
<glyph glyph-name="currency" unicode="&#xa4;" horiz-adv-x="600" d="M553 153 L510 110 L427 193 Q400 174 367.5 164.5 Q335 155 300 155 Q265 155 232.5 164.5 Q200 174 174 193 L91 110 L47 153 L131 236 Q112 263 102 295.5 Q92 328 92 364 Q92 398 101.5 430 Q111 462 129 489 L47 572 L89 615 L172 532 Q198 552 231 562.5 Q264 573 301 573 Q336 573 368 563 Q400 553 428 534 L509 615 L552 572 L471 491 Q490 465 500 432.5 Q510 400 510 364 Q510 328 500 295 Q490 262 470 235 L553 153 Z M436 364 Q436 423 398.5 460.5 Q361 498 301 499 Q241 499 203.5 461.5 Q166 424 166 364 Q166 304 203 267 Q240 230 299 230 Q360 230 398 267 Q436 304 436 364 Z " />
<glyph glyph-name="zero" unicode="0" horiz-adv-x="694" d="M347 -10 Q211 -10 128.5 87 Q46 184 46 345 Q46 506 128.5 603 Q211 700 347 700 Q483 700 565 603 Q647 506 647 345 Q647 184 565 87 Q483 -10 347 -10 Z M347 84 Q440 84 490.5 152 Q541 220 541 345 Q541 469 490.5 537 Q440 605 347 605 Q254 605 203.5 537 Q153 469 153 345 Q153 221 204 152.5 Q255 84 347 84 Z " />
<glyph glyph-name="one" unicode="1" horiz-adv-x="353" d="M37 613 L173 683 L270 683 L270 0 L167 0 L167 580 L37 518 L37 613 Z " />
<glyph glyph-name="two" unicode="2" horiz-adv-x="551" d="M252 605 Q202 605 157 592 Q112 579 68 552 L68 652 Q112 676 163 688 Q214 700 269 700 Q367 700 429 649.5 Q491 599 491 520 Q491 462 463 413 Q435 364 368 309 L242 206 Q199 170 179.5 144 Q160 118 155 91 L506 91 L506 0 L34 0 L34 35 Q34 97 64.5 152 Q95 207 158 257 L269 348 Q346 410 366.5 439.5 Q387 469 387 507 Q387 551 351 578 Q315 605 252 605 Z " />
<glyph glyph-name="three" unicode="3" horiz-adv-x="551" d="M241 -10 Q185 -10 134 2 Q83 14 42 37 L42 133 Q89 108 136 96 Q183 84 231 84 Q311 84 355 115 Q399 146 399 201 Q399 255 360.5 284 Q322 313 252 313 L150 313 L150 396 L253 396 Q318 396 355 423.5 Q392 451 392 500 Q392 548 351.5 576.5 Q311 605 242 605 Q192 605 142 591 Q92 577 49 551 L49 647 Q92 673 142.5 686.5 Q193 700 249 700 Q356 700 425 648.5 Q494 597 494 515 Q494 458 461 415.5 Q428 373 370 355 Q433 338 468.5 295 Q504 252 504 192 Q504 103 429 46.5 Q354 -10 241 -10 Z " />
<glyph glyph-name="four" unicode="4" horiz-adv-x="606" d="M317 690 L423 690 L155 225 L382 225 L382 364 L481 418 L481 225 L570 225 L570 133 L481 133 L481 0 L383 0 L383 133 L42 133 L42 222 L317 690 Z " />
<glyph glyph-name="five" unicode="5" horiz-adv-x="570" d="M273 -10 Q212 -10 153 2 Q94 14 55 34 L55 135 Q103 111 157.5 98 Q212 85 263 85 Q334 85 376.5 121 Q419 157 419 217 Q419 278 372.5 313 Q326 348 244 348 Q206 348 165 343.5 Q124 339 78 330 L95 690 L459 690 L459 598 L183 598 L176 425 Q197 429 225.5 432 Q254 435 275 435 Q391 435 459 376 Q527 317 527 217 Q527 114 457.5 52 Q388 -10 273 -10 Z " />
<glyph glyph-name="six" unicode="6" horiz-adv-x="607" d="M342 445 Q441 444 503.5 383 Q566 322 566 227 Q566 124 494.5 57 Q423 -10 313 -10 Q191 -10 118.5 78 Q46 166 46 311 Q46 481 134 590.5 Q222 700 365 700 Q394 700 418.5 697 Q443 694 467 687 L467 589 Q446 597 421.5 601 Q397 605 369 605 Q279 605 222.5 542.5 Q166 480 153 369 Q190 407 237 426 Q284 445 342 445 Z M149 293 Q152 195 195 139.5 Q238 84 312 84 Q379 84 419 123 Q459 162 459 227 Q459 289 419 325.5 Q379 362 310 362 Q262 362 223 345.5 Q184 329 149 293 Z " />
<glyph glyph-name="seven" unicode="7" horiz-adv-x="521" d="M73 0 L380 598 L33 598 L33 690 L491 690 L491 604 L186 0 L73 0 Z " />
<glyph glyph-name="eight" unicode="8" horiz-adv-x="602" d="M564 194 Q564 104 490.5 47 Q417 -10 303 -10 Q187 -10 112.5 43.5 Q38 97 38 179 Q38 238 79.5 285.5 Q121 333 193 360 Q134 387 104.5 426 Q75 465 75 517 Q75 593 141 646.5 Q207 700 304 700 Q402 700 464.5 652 Q527 604 527 531 Q527 482 493 441 Q459 400 397 373 Q486 337 525 295 Q564 253 564 194 Z M181 513 Q181 483 204 460.5 Q227 438 281 417 L322 401 Q370 422 395 451 Q420 480 420 514 Q420 554 386.5 582 Q353 610 303 610 Q251 610 216 582 Q181 554 181 513 Z M146 198 Q146 146 190 112.5 Q234 79 302 79 Q370 79 413 110 Q456 141 456 192 Q456 228 429 253.5 Q402 279 342 301 L264 332 Q209 311 177.5 276 Q146 241 146 198 Z " />
<glyph glyph-name="nine" unicode="9" horiz-adv-x="610" d="M148 461 Q148 400 187 363 Q226 326 293 326 Q345 326 386 343 Q427 360 461 396 Q458 494 414.5 549.5 Q371 605 296 605 Q229 605 188.5 565.5 Q148 526 148 461 Z M564 380 Q564 210 473 100.5 Q382 -9 234 -9 Q199 -9 169.5 -4 Q140 1 111 12 L111 111 Q136 98 165 91.5 Q194 85 230 85 Q322 85 381 144.5 Q440 204 456 311 Q418 277 371 260 Q324 243 271 243 Q170 243 105.5 305 Q41 367 41 462 Q41 566 113 633 Q185 700 296 700 Q418 700 491 612 Q564 524 564 380 Z " />
<glyph glyph-name="degree" unicode="&#xb0;" horiz-adv-x="340" d="M310 559 Q310 499 270 460 Q230 421 169 421 Q108 421 68.5 460 Q29 499 29 559 Q29 620 69 660 Q109 700 169 700 Q230 700 270 660 Q310 620 310 559 Z M249 559 Q249 594 226 618 Q203 642 169 642 Q136 642 113 618 Q90 594 90 559 Q90 525 113 501.5 Q136 478 169 478 Q203 478 226 501.5 Q249 525 249 559 Z " />
<glyph glyph-name="percent" unicode="&#x25;" horiz-adv-x="924" d="M205 303 Q128 303 81 357.5 Q34 412 34 501 Q34 590 81.5 645 Q129 700 205 700 Q281 700 328.5 645 Q376 590 376 501 Q376 413 328.5 358 Q281 303 205 303 Z M205 373 Q250 373 274 406 Q298 439 298 501 Q298 562 274 595 Q250 628 205 628 Q160 628 136 595 Q112 562 112 501 Q112 439 136 406 Q160 373 205 373 Z M307 0 L229 0 L621 690 L695 690 L307 0 Z M718 -1 Q641 -1 594 53.5 Q547 108 547 197 Q547 286 594.5 341 Q642 396 718 396 Q794 396 841.5 341 Q889 286 889 197 Q889 109 841.5 54 Q794 -1 718 -1 Z M718 69 Q763 69 787 102 Q811 135 811 197 Q811 258 787 291 Q763 324 718 324 Q673 324 649 291 Q625 258 625 197 Q625 135 649 102 Q673 69 718 69 Z " />
<glyph glyph-name="perthousand" unicode="&#x2030;" horiz-adv-x="1335" d="M205 303 Q128 303 81 357.5 Q34 412 34 501 Q34 590 81.5 645 Q129 700 205 700 Q281 700 328.5 645 Q376 590 376 501 Q376 413 328.5 358 Q281 303 205 303 Z M205 373 Q250 373 274 406 Q298 439 298 501 Q298 562 274 595 Q250 628 205 628 Q160 628 136 595 Q112 562 112 501 Q112 439 136 406 Q160 373 205 373 Z M307 0 L229 0 L621 690 L695 690 L307 0 Z M718 -1 Q641 -1 594 53.5 Q547 108 547 197 Q547 286 594.5 341 Q642 396 718 396 Q794 396 841.5 341 Q889 286 889 197 Q889 109 841.5 54 Q794 -1 718 -1 Z M718 69 Q763 69 787 102 Q811 135 811 197 Q811 258 787 291 Q763 324 718 324 Q673 324 649 291 Q625 258 625 197 Q625 135 649 102 Q673 69 718 69 Z M1129 -1 Q1052 -1 1005 53.5 Q958 108 958 197 Q958 286 1005.5 341 Q1053 396 1129 396 Q1205 396 1252.5 341 Q1300 286 1300 197 Q1300 109 1252.5 54 Q1205 -1 1129 -1 Z M1129 69 Q1174 69 1198 102 Q1222 135 1222 197 Q1222 258 1198 291 Q1174 324 1129 324 Q1084 324 1060 291 Q1036 258 1036 197 Q1036 135 1060 102 Q1084 69 1129 69 Z " />
<glyph glyph-name="fraction" unicode="&#x2044;" horiz-adv-x="102" d="M-104 0 L-182 0 L210 690 L284 690 L-104 0 Z " />
<glyph glyph-name="uni2215" unicode="&#x2215;" horiz-adv-x="102" d="M-104 0 L-182 0 L210 690 L284 690 L-104 0 Z " />
<glyph glyph-name="zerosuperior" unicode="&#x2070;" horiz-adv-x="411" d="M205 303 Q128 303 81 357.5 Q34 412 34 501 Q34 590 81.5 645 Q129 700 205 700 Q281 700 328.5 645 Q376 590 376 501 Q376 413 328.5 358 Q281 303 205 303 Z M205 373 Q250 373 274 406 Q298 439 298 501 Q298 562 274 595 Q250 628 205 628 Q160 628 136 595 Q112 562 112 501 Q112 439 136 406 Q160 373 205 373 Z " />
<glyph glyph-name="onesuperior" unicode="&#xb9;" horiz-adv-x="411" d="M123 654 L194 692 L265 692 L265 304 L189 304 L189 614 L123 583 L123 654 Z " />
<glyph glyph-name="twosuperior" unicode="&#xb2;" horiz-adv-x="411" d="M187 631 Q160 631 135.5 623.5 Q111 616 87 600 L87 674 Q115 687 143 693.5 Q171 700 200 700 Q255 700 291 670.5 Q327 641 327 595 Q327 564 311 537 Q295 510 256 478 L197 429 Q178 414 168 400.5 Q158 387 157 376 L334 376 L334 308 L69 308 L69 334 Q69 371 85 401.5 Q101 432 133 458 L196 508 Q230 535 240.5 550 Q251 565 251 584 Q251 605 234 618 Q217 631 187 631 Z " />
<glyph glyph-name="threesuperior" unicode="&#xb3;" horiz-adv-x="411" d="M193 303 Q161 303 133.5 309 Q106 315 84 327 L84 398 Q111 385 135.5 379 Q160 373 186 373 Q225 373 246 387 Q267 401 267 427 Q267 452 248 465.5 Q229 479 195 479 L139 479 L139 530 L196 530 Q229 530 247 543 Q265 556 265 581 Q265 603 246 615.5 Q227 628 194 628 Q167 628 138.5 620.5 Q110 613 87 599 L87 670 Q110 685 138.5 692.5 Q167 700 199 700 Q258 700 298 669.5 Q338 639 338 593 Q338 562 320.5 538.5 Q303 515 273 505 Q306 495 324.5 471.5 Q343 448 343 416 Q343 367 300 335 Q257 303 193 303 Z " />
<glyph glyph-name="foursuperior" unicode="&#x2074;" horiz-adv-x="411" d="M194 691 L271 691 L129 435 L249 435 L249 508 L321 548 L321 435 L371 435 L371 371 L321 371 L321 305 L250 305 L250 371 L51 371 L51 433 L194 691 Z " />
<glyph glyph-name="onehalf" unicode="&#xbd;" horiz-adv-x="924" d="M123 654 L194 692 L265 692 L265 304 L189 304 L189 614 L123 583 L123 654 Z M295 0 L217 0 L609 690 L683 690 L295 0 Z M700 327 Q673 327 648.5 319.5 Q624 312 600 296 L600 370 Q628 383 656 389.5 Q684 396 713 396 Q768 396 804 366.5 Q840 337 840 291 Q840 260 824 233 Q808 206 769 174 L710 125 Q691 110 681 96.5 Q671 83 670 72 L847 72 L847 4 L582 4 L582 30 Q582 67 598 97.5 Q614 128 646 154 L709 204 Q743 231 753.5 246 Q764 261 764 280 Q764 301 747 314 Q730 327 700 327 Z " />
<glyph glyph-name="onequarter" unicode="&#xbc;" horiz-adv-x="924" d="M123 654 L194 692 L265 692 L265 304 L189 304 L189 614 L123 583 L123 654 Z M310 0 L232 0 L624 690 L698 690 L310 0 Z M707 387 L784 387 L642 131 L762 131 L762 204 L834 244 L834 131 L884 131 L884 67 L834 67 L834 1 L763 1 L763 67 L564 67 L564 129 L707 387 Z " />
<glyph glyph-name="threequarters" unicode="&#xbe;" horiz-adv-x="924" d="M193 303 Q161 303 133.5 309 Q106 315 84 327 L84 398 Q111 385 135.5 379 Q160 373 186 373 Q225 373 246 387 Q267 401 267 427 Q267 452 248 465.5 Q229 479 195 479 L139 479 L139 530 L196 530 Q229 530 247 543 Q265 556 265 581 Q265 603 246 615.5 Q227 628 194 628 Q167 628 138.5 620.5 Q110 613 87 599 L87 670 Q110 685 138.5 692.5 Q167 700 199 700 Q258 700 298 669.5 Q338 639 338 593 Q338 562 320.5 538.5 Q303 515 273 505 Q306 495 324.5 471.5 Q343 448 343 416 Q343 367 300 335 Q257 303 193 303 Z M320 0 L242 0 L634 690 L708 690 L320 0 Z M707 387 L784 387 L642 131 L762 131 L762 204 L834 244 L834 131 L884 131 L884 67 L834 67 L834 1 L763 1 L763 67 L564 67 L564 129 L707 387 Z " />
<glyph glyph-name="plus" unicode="&#x2b;" horiz-adv-x="571" d="M326 591 L326 380 L526 380 L526 304 L326 304 L326 89 L244 89 L244 304 L44 304 L44 380 L244 380 L244 591 L326 591 Z " />
<glyph glyph-name="minus" unicode="&#x2212;" horiz-adv-x="571" d="M44 304 L44 380 L526 380 L526 304 L44 304 Z " />
<glyph glyph-name="multiply" unicode="&#xd7;" horiz-adv-x="571" d="M133 543 L281 394 L432 545 L486 492 L335 341 L488 188 L434 135 L281 287 L132 138 L78 191 L228 341 L79 489 L133 543 Z " />
<glyph glyph-name="divide" unicode="&#xf7;" horiz-adv-x="571" d="M234 471 L234 584 L333 584 L333 471 L234 471 Z M44 304 L44 380 L526 380 L526 304 L44 304 Z M234 100 L234 213 L333 213 L333 100 L234 100 Z " />
<glyph glyph-name="equal" unicode="&#x3d;" horiz-adv-x="571" d="M44 396 L44 471 L526 471 L526 396 L44 396 Z M44 215 L44 291 L526 291 L526 215 L44 215 Z " />
<glyph glyph-name="logicalnot" unicode="&#xac;" horiz-adv-x="571" d="M44 304 L44 380 L526 380 L526 87 L445 87 L445 304 L44 304 Z " />
<glyph glyph-name="asciitilde" unicode="&#x7e;" horiz-adv-x="571" d="M44 308 L44 385 Q80 400 105 405 Q130 410 158 410 Q179 410 204 406 Q229 402 280 388 Q333 374 359.5 369.5 Q386 365 409 365 Q438 365 468 373 Q498 381 526 397 L526 321 Q488 302 462 295.5 Q436 289 406 289 Q382 289 355.5 293.5 Q329 298 278 312 Q229 326 204.5 330 Q180 334 158 334 Q137 334 115.5 330 Q94 326 44 308 Z " />
<glyph glyph-name="less" unicode="&#x3c;" horiz-adv-x="571" d="M44 302 L44 381 L526 606 L526 515 L146 342 L526 167 L526 76 L44 302 Z " />
<glyph glyph-name="greater" unicode="&#x3e;" horiz-adv-x="571" d="M424 342 L44 515 L44 606 L526 381 L526 302 L44 76 L44 167 L424 342 Z " />
<glyph glyph-name="plusminus" unicode="&#xb1;" horiz-adv-x="571" d="M324 620 L324 422 L526 422 L526 347 L324 347 L324 147 L243 147 L243 347 L44 347 L44 422 L243 422 L243 620 L324 620 Z M44 0 L44 75 L526 75 L526 0 L44 0 Z " />
<glyph glyph-name="asciicircum" unicode="&#x5e;" horiz-adv-x="571" d="M140 250 L53 250 L251 690 L326 690 L525 250 L438 250 L289 592 L140 250 Z " />
<glyph glyph-name="notequal" unicode="&#x2260;" horiz-adv-x="571" d="M526 291 L526 215 L267 215 L205 77 L125 77 L187 215 L44 215 L44 291 L221 291 L268 396 L44 396 L44 471 L301 471 L365 613 L446 613 L382 471 L526 471 L526 396 L348 396 L301 291 L526 291 Z " />
<glyph glyph-name="approxequal" unicode="&#x2248;" horiz-adv-x="571" d="M44 398 L44 474 Q80 489 105 494 Q130 499 158 499 Q179 499 204 495 Q229 491 280 477 Q333 463 359.5 458.5 Q386 454 409 454 Q438 454 468 462 Q498 470 526 486 L526 410 Q483 390 458 384 Q433 378 406 378 Q382 378 355.5 382.5 Q329 387 278 401 Q229 415 204.5 419 Q180 423 158 423 Q137 423 115.5 419 Q94 415 44 398 Z M44 219 L44 295 Q83 311 107.5 316 Q132 321 158 321 Q179 321 204 317 Q229 313 280 299 Q333 285 359.5 280.5 Q386 276 409 276 Q438 276 468 284 Q498 292 526 308 L526 232 Q488 213 462 206.5 Q436 200 406 200 Q382 200 355.5 204.5 Q329 209 278 223 Q229 237 204.5 241 Q180 245 158 245 Q139 245 119 241.5 Q99 238 44 219 Z " />
<glyph glyph-name="lessequal" unicode="&#x2264;" horiz-adv-x="571" d="M44 342 L44 422 L526 619 L526 537 L149 382 L526 226 L526 143 L44 342 Z M44 0 L44 75 L526 75 L526 0 L44 0 Z " />
<glyph glyph-name="greaterequal" unicode="&#x2265;" horiz-adv-x="571" d="M44 537 L44 619 L526 422 L526 342 L44 143 L44 226 L421 382 L44 537 Z M44 0 L44 75 L526 75 L526 0 L44 0 Z " />
<glyph glyph-name="infinity" unicode="&#x221e;" horiz-adv-x="801" d="M45 317 Q45 384 92 430.5 Q139 477 206 477 Q258 477 301.5 452.5 Q345 428 396 365 Q446 428 489.5 452.5 Q533 477 584 477 Q651 477 697.5 430.5 Q744 384 744 317 Q744 247 697 203.5 Q650 160 573 160 Q523 160 477.5 186.5 Q432 213 395 263 Q357 213 312 186.5 Q267 160 217 160 Q140 160 92.5 203.5 Q45 247 45 317 Z M573 409 Q536 409 498.5 385 Q461 361 430 317 Q465 268 498 246.5 Q531 225 569 225 Q612 225 641 251 Q670 277 670 317 Q670 358 643.5 383.5 Q617 409 573 409 Z M216 409 Q173 409 146.5 383.5 Q120 358 120 317 Q120 278 149 251.5 Q178 225 220 225 Q258 225 292 246.5 Q326 268 359 314 Q327 359 289 384 Q251 409 216 409 Z " />
<glyph glyph-name="lozenge" unicode="&#x25ca;" horiz-adv-x="532" d="M308 690 L497 346 L308 0 L222 0 L34 346 L222 690 L308 690 Z M265 87 L404 346 L265 602 L127 346 L265 87 Z " />
<glyph glyph-name="radical" unicode="&#x221a;" horiz-adv-x="568" d="M551 716 L285 0 L195 0 L94 250 L24 250 L24 341 L156 341 L243 113 L466 740 L551 716 Z " />
<glyph glyph-name="integral" unicode="&#x222b;" horiz-adv-x="547" d="M455 750 Q474 750 490 747.5 Q506 745 525 738 L525 647 Q510 652 494 654.5 Q478 657 464 657 Q412 657 384.5 625 Q357 593 347 522 L274 -18 Q263 -110 217.5 -160 Q172 -210 100 -210 Q78 -210 60 -207 Q42 -204 22 -197 L22 -106 Q40 -111 56 -113 Q72 -115 88 -115 Q125 -115 147 -91 Q169 -67 176 -16 L254 540 Q267 643 318.5 696.5 Q370 750 455 750 Z " />
<glyph glyph-name="partialdiff" unicode="&#x2202;" horiz-adv-x="625" d="M463 435 Q446 496 394 559 Q342 622 261 679 L313 740 Q450 647 514 537.5 Q578 428 578 292 Q578 159 502.5 74.5 Q427 -10 311 -10 Q193 -10 117 65 Q41 140 41 255 Q41 368 113.5 445.5 Q186 523 288 523 Q342 523 386.5 501 Q431 479 463 435 Z M310 434 Q236 434 188.5 384 Q141 334 141 256 Q141 178 188.5 128 Q236 78 310 78 Q385 78 431.5 129 Q478 180 478 264 Q478 338 430 386 Q382 434 310 434 Z " />
<glyph glyph-name="product" unicode="&#x220f;" horiz-adv-x="718" d="M83 -150 L83 690 L635 690 L635 -150 L532 -150 L532 598 L186 598 L186 -150 L83 -150 Z " />
<glyph glyph-name="pi" unicode="&#x3c0;" horiz-adv-x="736" d="M575 -10 Q516 -10 485 27.5 Q454 65 454 137 L454 432 L326 432 L294 0 L200 0 L233 432 L190 432 Q153 432 134 418 Q115 404 115 378 Q115 365 118 350 Q121 335 127 322 L50 322 Q42 342 38 363 Q34 384 34 403 Q34 456 73.5 484.5 Q113 513 186 513 L688 513 L688 432 L551 432 L551 140 Q551 108 562.5 91 Q574 74 597 74 Q612 74 626.5 80.5 Q641 87 653 99 L690 34 Q666 12 636.5 1 Q607 -10 575 -10 Z " />
<glyph glyph-name="mu" unicode="&#xb5;" horiz-adv-x="679" d="M439 92 Q406 47 354.5 18.5 Q303 -10 249 -10 Q231 -10 209.5 -4.5 Q188 1 174 8 L174 -200 L78 -200 L78 512 L180 512 L180 187 Q180 131 205.5 105 Q231 79 287 79 Q333 79 374 103.5 Q415 128 435 164 L435 513 L535 513 L535 140 Q535 108 547.5 91 Q560 74 583 74 Q597 74 609 79 Q621 84 630 94 L667 29 Q645 10 618.5 0 Q592 -10 560 -10 Q510 -10 479 16 Q448 42 439 92 Z " />
<glyph glyph-name="summation" unicode="&#x2211;" horiz-adv-x="561" d="M40 -64 L271 253 L40 604 L40 690 L523 690 L523 598 L162 598 L387 253 L162 -58 L523 -58 L523 -150 L40 -150 L40 -64 Z " />
<glyph glyph-name="Omega" unicode="&#x2126;" horiz-adv-x="783" d="M62 0 L62 85 L229 85 Q139 123 92 195.5 Q45 268 45 367 Q45 508 144.5 604 Q244 700 392 700 Q540 700 639 604 Q738 508 738 367 Q738 268 691.5 195.5 Q645 123 556 85 L721 85 L721 0 L443 0 L443 85 Q535 121 585.5 190 Q636 259 636 349 Q636 463 568 534 Q500 605 392 605 Q284 605 216 534 Q148 463 148 349 Q148 258 199 189 Q250 120 344 85 L344 0 L62 0 Z " />
<glyph glyph-name="uni03A9" unicode="&#x3a9;" horiz-adv-x="783" d="M62 0 L62 85 L229 85 Q139 123 92 195.5 Q45 268 45 367 Q45 508 144.5 604 Q244 700 392 700 Q540 700 639 604 Q738 508 738 367 Q738 268 691.5 195.5 Q645 123 556 85 L721 85 L721 0 L443 0 L443 85 Q535 121 585.5 190 Q636 259 636 349 Q636 463 568 534 Q500 605 392 605 Q284 605 216 534 Q148 463 148 349 Q148 258 199 189 Q250 120 344 85 L344 0 L62 0 Z " />
<glyph glyph-name="increment" unicode="&#x2206;" horiz-adv-x="708" d="M394 690 L694 0 L14 0 L312 690 L394 690 Z M353 556 L156 91 L552 91 L353 556 Z " />
<glyph glyph-name="uni0394" unicode="&#x394;" horiz-adv-x="708" d="M394 690 L694 0 L14 0 L312 690 L394 690 Z M353 556 L156 91 L552 91 L353 556 Z " />
<glyph glyph-name="uni2113" unicode="&#x2113;" horiz-adv-x="553" d="M281 -10 Q208 -10 165 38.5 Q122 87 114 180 Q98 170 70 155 Q42 140 39 139 L11 198 Q40 212 65.5 226.5 Q91 241 113 254 Q116 335 134 412 Q152 489 182 555 Q224 647 281.5 698.5 Q339 750 401 750 Q457 750 490.5 714 Q524 678 524 617 Q524 519 446.5 426.5 Q369 334 200 230 L200 218 Q200 141 224.5 102.5 Q249 64 297 64 Q331 64 361 85.5 Q391 107 416 150 L465 103 Q433 49 385.5 19.5 Q338 -10 281 -10 Z M446 605 Q446 637 432.5 656 Q419 675 396 675 Q336 675 279.5 566 Q223 457 209 313 Q327 389 386.5 462.5 Q446 536 446 605 Z " />
<glyph glyph-name="estimated" unicode="&#x212e;" horiz-adv-x="824" d="M790 311 L790 302 L207 302 Q204 302 203 301 Q202 300 202 298 L202 122 Q202 116 204 111 Q206 106 210 102 Q254 56 311 31 Q368 6 431 6 Q498 6 558 34 Q618 62 663 113 L715 113 Q664 54 589 20.5 Q514 -13 430 -13 Q281 -13 175.5 82 Q70 177 70 311 Q70 445 175.5 540 Q281 635 430 635 Q579 635 684.5 540 Q790 445 790 311 Z M658 325 L658 503 Q658 509 656 514.5 Q654 520 649 524 Q605 568 548.5 592 Q492 616 431 616 Q369 616 312 591.5 Q255 567 211 521 Q206 516 204 511 Q202 506 202 499 L202 325 Q202 323 203.5 321.5 Q205 320 207 320 L654 320 Q656 320 657 321.5 Q658 323 658 325 Z " />
<glyph glyph-name="heart" unicode="&#x2665;" horiz-adv-x="602" d="M199 500 Q229 500 255 482.5 Q281 465 297 435 L305 435 Q321 465 347 482.5 Q373 500 403 500 Q446 500 474 470.5 Q502 441 502 395 Q502 329 445.5 254.5 Q389 180 301 135 Q213 180 156.5 254.5 Q100 329 100 395 Q100 441 128 470.5 Q156 500 199 500 Z " />
</font>
</svg>
