<?xml version="1.0" encoding="UTF-8"?>
<svg xmlns="http://www.w3.org/2000/svg" xmlns:xlink="http://www.w3.org/1999/xlink" version="1.2" >
<font id="RCI Bk Italic">
<font-face  font-family="RCI" units-per-em="1000" ascent="980" descent="-322" font-style="italic" font-weight="250" font-stretch="normal" slope="-14" cap-height="700" x-height="510" underline-position="-100" underline-thickness="50" />
<missing-glyph  horiz-adv-x="602" d="M213 500 Q243 500 269 482.5 Q295 465 311 435 L319 435 Q335 465 361 482.5 Q387 500 417 500 Q460 500 488 470.5 Q516 441 516 395 Q516 329 459.5 254.5 Q403 180 315 135 Q227 180 170.5 254.5 Q114 329 114 395 Q114 441 142 470.5 Q170 500 213 500 Z " />
<glyph glyph-name="null" d="" />
<glyph glyph-name="CR" unicode="&#xd;" d="" />
<glyph glyph-name="space" unicode="&#x20;" horiz-adv-x="242" d="" />
<glyph glyph-name="uni00A0" unicode="&#xa0;" horiz-adv-x="242" d="" />
<glyph glyph-name="A" unicode="A" horiz-adv-x="680" d="M518 229 L453 617 L203 229 L518 229 Z M632 0 L557 0 L529 167 L163 167 L55 0 L-19 0 L430 690 L514 690 L632 0 Z " />
<glyph glyph-name="B" unicode="B" horiz-adv-x="645" d="M54 0 L222 690 L473 690 Q559 690 606.5 653 Q654 616 654 550 Q654 486 613.5 435 Q573 384 504 362 Q552 350 578.5 315.5 Q605 281 605 231 Q605 126 526 63 Q447 0 316 0 L54 0 Z M578 534 Q578 579 546.5 603 Q515 627 456 627 L279 627 L221 389 L415 389 Q483 389 530.5 430.5 Q578 472 578 534 Z M206 328 L142 62 L328 62 Q421 62 474.5 106 Q528 150 528 226 Q528 274 497 301 Q466 328 411 328 L206 328 Z " />
<glyph glyph-name="C" unicode="C" horiz-adv-x="637" d="M372 57 Q425 57 478 69.5 Q531 82 588 109 L570 37 Q521 13 468 1.5 Q415 -10 356 -10 Q231 -10 157.5 64 Q84 138 84 263 Q84 351 116.5 431 Q149 511 210 572 Q271 634 350.5 667 Q430 700 518 700 Q575 700 622.5 687 Q670 674 706 649 L689 578 Q653 604 607 618 Q561 632 511 632 Q363 632 262 528.5 Q161 425 161 274 Q161 172 217 114.5 Q273 57 372 57 Z " />
<glyph glyph-name="D" unicode="D" horiz-adv-x="706" d="M597 121 Q538 62 459 31 Q380 0 291 0 L54 0 L70 66 L70 66 L222 690 L462 690 Q581 690 651.5 617.5 Q722 545 722 425 Q722 337 690 258.5 Q658 180 597 121 Z M644 415 Q644 511 590 567 Q536 623 442 623 L278 623 L143 66 L304 66 Q449 66 546.5 166 Q644 266 644 415 Z " />
<glyph glyph-name="E" unicode="E" horiz-adv-x="577" d="M660 690 L644 623 L278 623 L221 387 L491 387 L475 321 L204 321 L143 66 L508 66 L492 0 L54 0 L222 690 L660 690 Z " />
<glyph glyph-name="F" unicode="F" horiz-adv-x="564" d="M660 690 L644 623 L278 623 L220 383 L490 383 L474 317 L204 317 L127 0 L54 0 L222 690 L660 690 Z " />
<glyph glyph-name="G" unicode="G" horiz-adv-x="708" d="M699 346 L633 76 Q575 33 506 11.5 Q437 -10 355 -10 Q232 -10 158 65 Q84 140 84 263 Q84 353 116.5 433 Q149 513 211 574 Q272 635 352.5 667.5 Q433 700 522 700 Q575 700 621.5 688 Q668 676 705 653 L688 581 Q651 606 605.5 619 Q560 632 511 632 Q364 632 262.5 528.5 Q161 425 161 275 Q161 175 218 116 Q275 57 374 57 Q434 57 483.5 71 Q533 85 574 114 L615 283 L424 283 L439 346 L699 346 Z " />
<glyph glyph-name="H" unicode="H" horiz-adv-x="733" d="M612 0 L539 0 L614 309 L202 309 L127 0 L54 0 L222 690 L294 690 L218 375 L630 375 L707 690 L779 690 L612 0 Z " />
<glyph glyph-name="I" unicode="I" horiz-adv-x="249" d="M222 690 L294 690 L127 0 L54 0 L222 690 Z " />
<glyph glyph-name="J" unicode="J" horiz-adv-x="438" d="M112 -10 Q85 -10 56.5 -5.5 Q28 -1 11 7 L27 74 Q45 65 69 61 Q93 57 125 57 Q193 57 238 97.5 Q283 138 302 219 L416 690 L489 690 L375 219 Q346 104 281 47 Q216 -10 112 -10 Z " />
<glyph glyph-name="K" unicode="K" horiz-adv-x="636" d="M580 0 L495 0 L307 319 L175 199 L127 0 L54 0 L222 690 L294 690 L199 298 L630 690 L716 690 L362 368 L580 0 Z " />
<glyph glyph-name="L" unicode="L" horiz-adv-x="562" d="M222 690 L294 690 L143 66 L512 66 L496 0 L54 0 L222 690 Z " />
<glyph glyph-name="M" unicode="M" horiz-adv-x="837" d="M453 273 L812 690 L882 690 L715 0 L642 0 L780 564 L468 200 L406 200 L262 562 L127 0 L54 0 L222 690 L291 690 L453 273 Z " />
<glyph glyph-name="N" unicode="N" horiz-adv-x="726" d="M605 0 L536 0 L265 570 L127 0 L54 0 L222 690 L290 690 L561 115 L700 690 L773 690 L605 0 Z " />
<glyph glyph-name="O" unicode="O" horiz-adv-x="774" d="M353 -10 Q234 -10 160.5 65.5 Q87 141 87 261 Q87 348 119.5 428 Q152 508 212 570 Q273 632 353 666 Q433 700 520 700 Q639 700 712.5 623.5 Q786 547 786 424 Q786 338 753 259 Q720 180 658 119 Q597 57 517.5 23.5 Q438 -10 353 -10 Z M609 166 Q657 217 683 281 Q709 345 709 413 Q709 512 654 572 Q599 632 506 632 Q439 632 375.5 603.5 Q312 575 263 524 Q216 473 190 409 Q164 345 164 276 Q164 176 219.5 116.5 Q275 57 368 57 Q435 57 497.5 85.5 Q560 114 609 166 Z " />
<glyph glyph-name="P" unicode="P" horiz-adv-x="623" d="M584 509 Q584 561 550.5 592 Q517 623 459 623 L278 623 L205 324 L384 324 Q468 324 526 377 Q584 430 584 509 Z M661 520 Q661 407 577 332.5 Q493 258 370 258 L189 258 L127 0 L54 0 L222 690 L475 690 Q559 690 610 643 Q661 596 661 520 Z " />
<glyph glyph-name="Q" unicode="Q" horiz-adv-x="774" d="M164 276 Q164 176 219.5 116.5 Q275 57 368 57 Q419 57 468 74 Q517 91 561 123 L447 219 L477 257 L598 154 Q651 205 680 273 Q709 341 709 413 Q709 512 654 572 Q599 632 506 632 Q439 632 375.5 603.5 Q312 575 263 524 Q216 473 190 409 Q164 345 164 276 Z M745 29 L715 -8 L613 79 Q556 36 489.5 13 Q423 -10 353 -10 Q234 -10 160.5 65.5 Q87 141 87 261 Q87 348 119.5 428 Q152 508 212 570 Q273 632 353 666 Q433 700 520 700 Q639 700 712.5 623.5 Q786 547 786 424 Q786 335 750.5 253.5 Q715 172 650 110 L745 29 Z " />
<glyph glyph-name="R" unicode="R" horiz-adv-x="633" d="M584 522 Q584 569 551.5 596 Q519 623 462 623 L278 623 L215 365 L399 365 Q477 365 530.5 410.5 Q584 456 584 522 Z M564 0 L480 0 L372 300 L200 300 L127 0 L54 0 L222 690 L478 690 Q561 690 611.5 647 Q662 604 662 534 Q662 451 602 387.5 Q542 324 448 306 L564 0 Z " />
<glyph glyph-name="S" unicode="S" horiz-adv-x="576" d="M249 -10 Q186 -10 126 7 Q66 24 30 52 L48 124 Q90 93 147.5 74.5 Q205 56 264 56 Q350 56 411 95 Q472 134 472 193 Q472 233 439 263 Q406 293 304 335 Q220 369 183.5 408 Q147 447 147 499 Q147 586 225.5 643 Q304 700 426 700 Q481 700 525 689.5 Q569 679 613 655 L595 584 Q557 608 511.5 620.5 Q466 633 416 633 Q337 633 281.5 599 Q226 565 226 515 Q226 478 257 450 Q288 422 375 387 Q470 348 510 307 Q550 266 550 211 Q550 113 464.5 51.5 Q379 -10 249 -10 Z " />
<glyph glyph-name="T" unicode="T" horiz-adv-x="581" d="M688 690 L672 623 L445 623 L293 0 L220 0 L372 623 L144 623 L160 690 L688 690 Z " />
<glyph glyph-name="U" unicode="U" horiz-adv-x="709" d="M585 266 L687 690 L760 690 L656 263 Q626 136 535.5 63 Q445 -10 319 -10 Q218 -10 161 42 Q104 94 104 186 Q104 206 106.5 225.5 Q109 245 114 265 L217 690 L289 690 L186 264 Q182 249 180 232.5 Q178 216 178 199 Q178 132 219.5 94.5 Q261 57 335 57 Q426 57 494 113.5 Q562 170 585 266 Z " />
<glyph glyph-name="V" unicode="V" horiz-adv-x="687" d="M732 690 L812 690 L351 0 L266 0 L144 690 L220 690 L327 74 L732 690 Z " />
<glyph glyph-name="W" unicode="W" horiz-adv-x="992" d="M686 79 L1035 690 L1114 690 L711 0 L630 0 L579 473 L297 0 L217 0 L144 690 L218 690 L281 79 L567 562 L635 562 L686 79 Z " />
<glyph glyph-name="X" unicode="X" horiz-adv-x="619" d="M570 0 L492 0 L347 291 L64 0 L-17 0 L319 347 L148 690 L226 690 L373 394 L659 690 L741 690 L400 340 L570 0 Z " />
<glyph glyph-name="Y" unicode="Y" horiz-adv-x="640" d="M678 690 L758 690 L393 287 L322 0 L250 0 L320 287 L148 690 L222 690 L369 351 L678 690 Z " />
<glyph glyph-name="Z" unicode="Z" horiz-adv-x="585" d="M511 0 L6 0 L21 60 L561 623 L161 623 L177 690 L670 690 L655 629 L115 66 L528 66 L511 0 Z " />
<glyph glyph-name="AE" unicode="&#xc6;" horiz-adv-x="936" d="M241 230 L469 230 L564 622 L241 230 Z M851 0 L413 0 L454 167 L191 167 L55 0 L-22 0 L542 690 L1019 690 L1003 623 L637 623 L579 387 L850 387 L834 321 L563 321 L501 66 L867 66 L851 0 Z " />
<glyph glyph-name="OE" unicode="&#x152;" horiz-adv-x="1138" d="M260 524 Q212 473 186 409 Q160 345 160 276 Q160 177 215.5 117 Q271 57 364 57 Q431 57 494 85.5 Q557 114 606 166 Q654 217 680 281.5 Q706 346 706 413 Q706 512 651 572 Q596 632 503 632 Q436 632 372.5 604 Q309 576 260 524 Z M616 0 L650 138 Q597 67 519 28.5 Q441 -10 350 -10 Q231 -10 157.5 65.5 Q84 141 84 261 Q84 348 116.5 428 Q149 508 209 570 Q270 632 349.5 666 Q429 700 516 700 Q604 700 664 655 Q724 610 744 530 L782 690 L1221 690 L1206 623 L839 623 L782 387 L1052 387 L1036 321 L766 321 L704 66 L1070 66 L1054 0 L616 0 Z " />
<glyph glyph-name="Lslash" unicode="&#x141;" horiz-adv-x="564" d="M513 66 L497 0 L56 0 L125 283 L44 249 L59 309 L139 343 L223 690 L296 690 L220 378 L444 474 L429 413 L205 318 L144 66 L513 66 Z " />
<glyph glyph-name="Oslash" unicode="&#xd8;" horiz-adv-x="774" d="M658 119 Q597 57 517.5 23.5 Q438 -10 353 -10 Q291 -10 240.5 11 Q190 32 154 73 L58 -8 L28 29 L125 112 Q106 143 96.5 181 Q87 219 87 261 Q87 348 119.5 428 Q152 508 212 570 Q273 632 353 666 Q433 700 520 700 Q581 700 632 678.5 Q683 657 719 616 L816 699 L846 661 L747 577 Q766 544 776 505 Q786 466 786 424 Q786 338 753 259 Q720 180 658 119 Z M263 524 Q216 473 190 409 Q164 345 164 276 Q164 245 170 216.5 Q176 188 187 164 L659 566 Q633 598 594 615 Q555 632 506 632 Q439 632 375.5 603.5 Q312 575 263 524 Z M368 57 Q435 57 497.5 85.5 Q560 114 609 166 Q657 217 683 281 Q709 345 709 413 Q709 444 703 472.5 Q697 501 686 525 L213 124 Q240 91 279.5 74 Q319 57 368 57 Z " />
<glyph glyph-name="Eth" unicode="&#xd0;" horiz-adv-x="708" d="M372 374 L359 318 L205 318 L144 66 L306 66 Q451 66 548.5 166 Q646 266 646 415 Q646 511 591.5 567 Q537 623 443 623 L280 623 L219 374 L372 374 Z M293 0 L56 0 L133 318 L67 318 L80 374 L147 374 L223 690 L463 690 Q582 690 652.5 618 Q723 546 723 425 Q723 244 600 122 Q477 0 293 0 Z " />
<glyph glyph-name="Thorn" unicode="&#xde;" horiz-adv-x="627" d="M553 382 Q553 434 519 465 Q485 496 427 496 L247 496 L175 197 L355 197 Q440 197 496.5 250 Q553 303 553 382 Z M630 392 Q630 280 546 205.5 Q462 131 339 131 L159 131 L127 0 L54 0 L222 690 L294 690 L263 562 L444 562 Q528 562 579 515.5 Q630 469 630 392 Z " />
<glyph glyph-name="a" unicode="a" horiz-adv-x="627" d="M483 163 L529 349 Q510 401 469.5 430 Q429 459 375 459 Q277 459 206 384 Q135 309 135 203 Q135 133 173 92 Q211 51 277 51 Q331 51 385.5 80.5 Q440 110 483 163 Z M443 0 L469 99 Q424 46 366.5 18 Q309 -10 244 -10 Q162 -10 112.5 44.5 Q63 99 63 189 Q63 326 155.5 423 Q248 520 375 520 Q436 520 479.5 493 Q523 466 544 416 L568 510 L637 510 L513 0 L443 0 Z " />
<glyph glyph-name="b" unicode="b" horiz-adv-x="626" d="M533 91 Q488 43 430.5 16.5 Q373 -10 312 -10 Q249 -10 204.5 18 Q160 46 140 98 L115 0 L46 0 L223 727 L295 740 L215 412 Q262 465 318 492.5 Q374 520 437 520 Q519 520 570 464.5 Q621 409 621 319 Q621 255 598 196 Q575 137 533 91 Z M548 307 Q548 376 510 417.5 Q472 459 409 459 Q353 459 298 428.5 Q243 398 199 342 L154 163 Q173 109 213.5 80 Q254 51 311 51 Q408 51 478 125.5 Q548 200 548 307 Z " />
<glyph glyph-name="c" unicode="c" horiz-adv-x="504" d="M378 459 Q276 459 205 384 Q134 309 134 202 Q134 131 175 90.5 Q216 50 288 50 Q331 50 369 62.5 Q407 75 452 105 L436 40 Q399 15 356 2.5 Q313 -10 267 -10 Q172 -10 117 44 Q62 98 62 190 Q62 328 155.5 424 Q249 520 382 520 Q432 520 471 506.5 Q510 493 535 466 L520 401 Q497 428 460 443.5 Q423 459 378 459 Z " />
<glyph glyph-name="d" unicode="d" horiz-adv-x="626" d="M484 166 L528 345 Q511 399 469 429 Q427 459 370 459 Q275 459 205 384 Q135 309 135 203 Q135 133 173 92 Q211 51 277 51 Q331 51 386 81.5 Q441 112 484 166 Z M443 0 L469 99 Q426 46 367.5 18 Q309 -10 244 -10 Q162 -10 112.5 44.5 Q63 99 63 189 Q63 253 85.5 312 Q108 371 150 418 Q194 467 251.5 493.5 Q309 520 370 520 Q432 520 478 492 Q524 464 544 415 L620 727 L693 740 L513 0 L443 0 Z " />
<glyph glyph-name="e" unicode="e" horiz-adv-x="558" d="M495 343 Q495 399 461.5 430.5 Q428 462 370 462 Q295 462 232.5 414.5 Q170 367 146 291 L489 291 Q492 302 493.5 315 Q495 328 495 343 Z M465 95 L450 32 Q418 12 373 1 Q328 -10 282 -10 Q183 -10 124 47.5 Q65 105 65 201 Q65 336 157 428 Q249 520 381 520 Q465 520 514 472 Q563 424 562 344 Q562 320 556.5 292.5 Q551 265 541 241 L136 241 Q135 229 134.5 222.5 Q134 216 134 211 Q134 136 178.5 92.5 Q223 49 298 49 Q340 49 385.5 61.5 Q431 74 465 95 Z " />
<glyph glyph-name="f" unicode="f" horiz-adv-x="332" d="M389 510 L375 453 L236 453 L126 0 L57 0 L167 453 L87 453 L101 510 L181 510 L191 548 Q214 642 266.5 691 Q319 740 395 740 Q419 740 438.5 734.5 Q458 729 471 719 L456 659 Q444 668 426 673 Q408 678 389 678 Q339 678 306.5 645 Q274 612 258 546 L250 510 L389 510 Z " />
<glyph glyph-name="g" unicode="g" horiz-adv-x="626" d="M484 164 L528 347 Q511 399 470 429 Q429 459 374 459 Q277 459 206 384.5 Q135 310 135 203 Q135 132 173 91.5 Q211 51 277 51 Q331 51 384 80 Q437 109 484 164 Z M450 25 L469 99 Q425 47 367.5 18.5 Q310 -10 248 -10 Q164 -10 113.5 44 Q63 98 63 188 Q63 326 155 423 Q247 520 375 520 Q436 520 480 492.5 Q524 465 544 415 L568 510 L636 510 L521 34 Q492 -83 410.5 -149.5 Q329 -216 215 -216 Q185 -216 156.5 -210 Q128 -204 112 -194 L126 -134 Q146 -144 173 -150 Q200 -156 225 -156 Q305 -156 366.5 -107 Q428 -58 450 25 Z " />
<glyph glyph-name="h" unicode="h" horiz-adv-x="592" d="M222 727 L295 740 L214 413 Q256 462 314 491 Q372 520 434 520 Q502 520 537 488.5 Q572 457 572 396 Q572 379 569.5 360.5 Q567 342 562 323 L483 0 L414 0 L492 317 Q496 334 497.5 345.5 Q499 357 499 367 Q499 412 474 435 Q449 458 400 458 Q348 458 293 429 Q238 400 201 354 L114 0 L45 0 L222 727 Z " />
<glyph glyph-name="i" unicode="i" horiz-adv-x="229" d="M224 726 L293 726 L261 597 L192 597 L224 726 Z M171 510 L240 510 L116 0 L46 0 L171 510 Z " />
<glyph glyph-name="j" unicode="j" horiz-adv-x="237" d="M268 597 L199 597 L231 726 L299 726 L268 597 Z M-66 -156 Q-24 -156 2.5 -128.5 Q29 -101 43 -44 L178 510 L247 510 L113 -41 Q92 -129 48 -172.5 Q4 -216 -64 -216 Q-76 -216 -88.5 -214.5 Q-101 -213 -112 -211 L-98 -153 Q-88 -155 -81 -155.5 Q-74 -156 -66 -156 Z " />
<glyph glyph-name="k" unicode="k" horiz-adv-x="526" d="M474 0 L396 0 L248 240 L155 163 L115 0 L46 0 L223 727 L295 740 L175 247 L484 510 L572 510 L301 285 L474 0 Z " />
<glyph glyph-name="l" unicode="l" horiz-adv-x="229" d="M295 740 L115 0 L46 0 L223 727 L295 740 Z " />
<glyph glyph-name="m" unicode="m" horiz-adv-x="929" d="M390 458 Q343 458 295 431 Q247 404 201 353 L115 0 L46 0 L170 510 L236 510 L211 411 Q255 463 310.5 491.5 Q366 520 426 520 Q485 520 520 490 Q555 460 558 409 Q603 462 659 491 Q715 520 775 520 Q840 520 875 488.5 Q910 457 910 399 Q910 386 908 371.5 Q906 357 902 341 L820 0 L751 0 L831 332 Q834 341 835 352 Q836 363 836 375 Q836 413 809.5 435.5 Q783 458 738 458 Q692 458 642.5 429 Q593 400 553 351 L468 0 L399 0 L481 339 Q483 348 484 355.5 Q485 363 485 372 Q485 411 459.5 434.5 Q434 458 390 458 Z " />
<glyph glyph-name="n" unicode="n" horiz-adv-x="593" d="M170 510 L236 510 L211 410 Q257 463 314 491.5 Q371 520 433 520 Q502 520 537.5 489 Q573 458 573 398 Q573 380 570.5 361.5 Q568 343 563 323 L484 0 L415 0 L492 317 Q495 331 497 344.5 Q499 358 499 371 Q499 414 473.5 436 Q448 458 399 458 Q347 458 293.5 429 Q240 400 201 353 L115 0 L46 0 L170 510 Z " />
<glyph glyph-name="o" unicode="o" horiz-adv-x="602" d="M390 520 Q481 520 538 463 Q595 406 595 315 Q595 250 569.5 191 Q544 132 497 86 Q450 40 390 15 Q330 -10 267 -10 Q177 -10 120.5 47 Q64 104 64 194 Q64 259 89 318 Q114 377 161 423 Q207 469 267 494.5 Q327 520 390 520 Z M280 50 Q376 50 449.5 125 Q523 200 523 304 Q523 374 483.5 417 Q444 460 378 460 Q282 460 208.5 384 Q135 308 135 206 Q135 135 174.5 92.5 Q214 50 280 50 Z " />
<glyph glyph-name="p" unicode="p" horiz-adv-x="626" d="M548 307 Q548 376 510 417.5 Q472 459 408 459 Q353 459 299 429.5 Q245 400 199 345 L154 159 Q174 108 214 79.5 Q254 51 308 51 Q406 51 477 126.5 Q548 202 548 307 Z M310 -10 Q250 -10 204.5 18.5 Q159 47 139 97 L67 -200 L-2 -200 L170 510 L239 510 L215 411 Q261 464 318 492 Q375 520 437 520 Q520 520 570.5 464.5 Q621 409 621 319 Q621 254 598 195 Q575 136 532 90 Q487 43 429 16.5 Q371 -10 310 -10 Z " />
<glyph glyph-name="q" unicode="q" horiz-adv-x="626" d="M395 -198 L468 99 Q424 46 367 18 Q310 -10 245 -10 Q164 -10 113.5 45 Q63 100 63 188 Q63 253 85.5 312.5 Q108 372 151 418 Q195 467 252.5 493.5 Q310 520 372 520 Q432 520 476.5 492 Q521 464 543 413 L568 511 L637 511 L465 -198 L395 -198 Z M483 163 L529 349 Q510 401 469.5 430 Q429 459 375 459 Q277 459 206 383.5 Q135 308 135 203 Q135 133 173 92 Q211 51 277 51 Q331 51 385.5 80.5 Q440 110 483 163 Z " />
<glyph glyph-name="r" unicode="r" horiz-adv-x="362" d="M375 520 Q390 520 403 517 Q416 514 426 508 L410 441 Q399 447 384.5 450.5 Q370 454 354 454 Q314 454 273 426 Q232 398 200 349 L115 0 L46 0 L170 510 L239 510 L214 410 Q246 463 287.5 491.5 Q329 520 375 520 Z " />
<glyph glyph-name="s" unicode="s" horiz-adv-x="457" d="M314 461 Q253 461 213 436.5 Q173 412 173 373 Q173 350 190 335 Q207 320 285 289 Q365 258 394 228.5 Q423 199 423 155 Q423 79 358.5 34.5 Q294 -10 191 -10 Q140 -10 94 3 Q48 16 23 37 L40 103 Q69 78 112.5 63 Q156 48 204 48 Q269 48 309.5 73.5 Q350 99 350 143 Q350 171 329 189.5 Q308 208 231 239 Q156 269 127.5 296.5 Q99 324 99 363 Q99 432 163 476 Q227 520 322 520 Q365 520 402 510 Q439 500 473 480 L456 415 Q427 436 390 448.5 Q353 461 314 461 Z " />
<glyph glyph-name="t" unicode="t" horiz-adv-x="342" d="M284 65 L268 3 Q246 -4 227 -7 Q208 -10 193 -10 Q137 -10 110 12.5 Q83 35 83 82 Q83 97 85 111.5 Q87 126 91 141 L167 453 L87 453 L101 510 L181 510 L210 631 L282 643 L250 510 L389 510 L375 453 L236 453 L162 149 Q159 135 157.5 125 Q156 115 157 107 Q158 80 173 67 Q188 54 219 54 Q234 54 249.5 56.5 Q265 59 284 65 Z " />
<glyph glyph-name="u" unicode="u" horiz-adv-x="575" d="M461 0 L395 0 L421 103 Q376 49 321 19.5 Q266 -10 209 -10 Q142 -10 108 20 Q74 50 74 109 Q74 125 76.5 143 Q79 161 83 179 L164 510 L233 510 L154 187 Q151 173 149 159.5 Q147 146 147 133 Q147 93 171.5 72 Q196 51 244 51 Q291 51 339 79 Q387 107 431 159 L516 510 L585 510 L461 0 Z " />
<glyph glyph-name="v" unicode="v" horiz-adv-x="530" d="M610 510 L261 0 L191 0 L103 510 L172 510 L243 70 L534 510 L610 510 Z " />
<glyph glyph-name="w" unicode="w" horiz-adv-x="816" d="M893 510 L580 0 L508 0 L470 412 L234 0 L166 0 L104 510 L172 510 L222 74 L469 510 L526 510 L565 74 L823 510 L893 510 Z " />
<glyph glyph-name="x" unicode="x" horiz-adv-x="489" d="M444 0 L371 0 L263 213 L57 0 L-18 0 L238 262 L113 510 L186 510 L289 306 L490 510 L564 510 L314 258 L444 0 Z " />
<glyph glyph-name="y" unicode="y" horiz-adv-x="529" d="M-9 -216 Q-19 -216 -29.5 -214.5 Q-40 -213 -49 -211 L-34 -151 Q-27 -153 -18 -154 Q-9 -155 0 -155 Q50 -155 100.5 -116.5 Q151 -78 202 0 L105 510 L174 510 L252 76 L536 510 L607 510 L265 -2 Q190 -115 124.5 -165.5 Q59 -216 -9 -216 Z " />
<glyph glyph-name="z" unicode="z" horiz-adv-x="471" d="M102 59 L418 59 L404 0 L0 0 L11 50 L421 451 L115 451 L129 510 L523 510 L511 460 L102 59 Z " />
<glyph glyph-name="ae" unicode="&#xe6;" horiz-adv-x="930" d="M867 344 Q867 399 833.5 430.5 Q800 462 742 462 Q671 462 611 415.5 Q551 369 525 291 L861 291 Q864 305 865.5 318.5 Q867 332 867 344 Z M655 -10 Q578 -10 524.5 25 Q471 60 454 121 Q409 60 341 25 Q273 -10 202 -10 Q130 -10 88 27.5 Q46 65 46 128 Q46 216 111.5 275 Q177 334 278 334 Q330 334 373.5 318 Q417 302 451 272 Q463 313 465.5 330.5 Q468 348 468 363 Q468 411 436 436 Q404 461 343 461 Q298 461 255.5 449 Q213 437 171 412 L185 475 Q225 497 271.5 508.5 Q318 520 366 520 Q441 520 477.5 492 Q514 464 520 401 Q565 459 626 489.5 Q687 520 757 520 Q839 520 887.5 473 Q936 426 935 348 Q935 323 929 294 Q923 265 913 241 L513 241 Q496 153 539.5 101 Q583 49 670 49 Q711 49 756 61.5 Q801 74 836 96 L822 34 Q789 14 744 2 Q699 -10 655 -10 Z M121 141 Q121 95 150.5 69 Q180 43 233 43 Q288 43 346 79.5 Q404 116 440 170 Q438 184 438.5 197 Q439 210 441 223 Q412 252 372.5 268.5 Q333 285 290 285 Q217 285 169 244 Q121 203 121 141 Z " />
<glyph glyph-name="oe" unicode="&#x153;" horiz-adv-x="1002" d="M908 96 L893 34 Q860 14 815 2 Q770 -10 726 -10 Q645 -10 591.5 29.5 Q538 69 525 139 Q481 69 412 29.5 Q343 -10 265 -10 Q175 -10 119.5 47.5 Q64 105 64 197 Q64 261 89 319.5 Q114 378 161 424 Q207 470 266.5 495 Q326 520 388 520 Q461 520 511.5 481 Q562 442 577 375 Q622 445 687.5 482.5 Q753 520 829 520 Q910 520 957.5 473.5 Q1005 427 1006 348 Q1006 323 1000.5 295 Q995 267 984 241 L584 241 Q567 154 610.5 101.5 Q654 49 742 49 Q782 49 827 61.5 Q872 74 908 96 Z M939 345 Q939 400 905 431 Q871 462 813 462 Q742 462 681.5 415 Q621 368 596 291 L932 291 Q936 310 937.5 322.5 Q939 335 939 345 Z M279 50 Q377 50 450 125 Q523 200 523 304 Q523 374 483.5 417 Q444 460 378 460 Q283 460 209 384 Q135 308 135 206 Q135 135 174.5 92.5 Q214 50 279 50 Z " />
<glyph glyph-name="lslash" unicode="&#x142;" horiz-adv-x="236" d="M209 374 L118 0 L49 0 L132 340 L58 308 L72 369 L147 402 L226 727 L299 740 L225 436 L301 469 L286 407 L209 374 Z " />
<glyph glyph-name="oslash" unicode="&#xf8;" horiz-adv-x="602" d="M497 86 Q450 40 390 15 Q330 -10 267 -10 Q223 -10 185 5 Q147 20 119 48 L50 -10 L25 22 L94 80 Q79 105 71.5 134 Q64 163 64 194 Q64 259 89 318 Q114 377 161 423 Q207 469 267 494.5 Q327 520 390 520 Q436 520 475 504 Q514 488 542 458 L615 520 L640 487 L567 425 Q581 401 588 373.5 Q595 346 595 315 Q595 250 569.5 191 Q544 132 497 86 Z M378 460 Q282 460 208.5 384 Q135 308 135 206 Q135 183 139 163.5 Q143 144 151 128 L487 412 Q468 435 440 447.5 Q412 460 378 460 Z M280 50 Q376 50 449.5 125 Q523 200 523 304 Q523 324 519.5 342.5 Q516 361 509 377 L173 94 Q192 73 219.5 61.5 Q247 50 280 50 Z " />
<glyph glyph-name="eth" unicode="&#xf0;" horiz-adv-x="595" d="M600 374 Q600 208 503.5 99 Q407 -10 264 -10 Q175 -10 119.5 46.5 Q64 103 64 194 Q64 323 156.5 417.5 Q249 512 373 512 Q427 512 469.5 486.5 Q512 461 533 418 Q527 468 506 518 Q485 568 449 615 L367 566 L352 597 L428 642 Q405 667 381.5 688.5 Q358 710 334 727 L398 740 Q421 724 441.5 707 Q462 690 479 672 L560 720 L575 690 L502 646 Q550 587 575 518.5 Q600 450 600 374 Z M519 306 Q519 372 478.5 413.5 Q438 455 374 455 Q279 455 207 380.5 Q135 306 135 207 Q135 135 173 93 Q211 51 276 51 Q376 51 447.5 126.5 Q519 202 519 306 Z " />
<glyph glyph-name="thorn" unicode="&#xfe;" horiz-adv-x="626" d="M548 304 Q548 375 509.5 417 Q471 459 406 459 Q351 459 297 428.5 Q243 398 199 342 L154 163 Q173 109 213 80 Q253 51 308 51 Q405 51 476.5 125 Q548 199 548 304 Z M310 -10 Q249 -10 204.5 17.5 Q160 45 139 96 L67 -200 L-2 -200 L223 727 L295 740 L215 412 Q261 465 317.5 492.5 Q374 520 436 520 Q519 520 570 465 Q621 410 621 319 Q621 254 598 195 Q575 136 532 90 Q487 43 429 16.5 Q371 -10 310 -10 Z " />
<glyph glyph-name="germandbls" unicode="&#xdf;" horiz-adv-x="574" d="M45 0 L170 512 Q196 621 265 680.5 Q334 740 434 740 Q509 740 551.5 702 Q594 664 594 599 Q594 530 553 476.5 Q512 423 443 397 Q495 384 523.5 346 Q552 308 552 249 Q552 139 475 64.5 Q398 -10 293 -10 Q256 -10 225 -2.5 Q194 5 169 19 L183 77 Q208 61 232 54 Q256 47 289 47 Q368 47 424 102.5 Q480 158 480 244 Q480 302 444.5 334 Q409 366 346 366 L360 422 Q423 422 471 468.5 Q519 515 519 582 Q519 627 492 652.5 Q465 678 417 678 Q354 678 305.5 633.5 Q257 589 240 516 L114 0 L45 0 Z " />
<glyph glyph-name="dotlessi" unicode="&#x131;" horiz-adv-x="229" d="M171 510 L240 510 L116 0 L46 0 L171 510 Z " />
<glyph glyph-name="dotlessj" unicode="&#x237;" horiz-adv-x="238" d="M-66 -156 Q-24 -156 2.5 -128.5 Q29 -101 43 -44 L178 510 L247 510 L113 -41 Q92 -129 48 -172.5 Q4 -216 -64 -216 Q-76 -216 -88.5 -214.5 Q-101 -213 -112 -211 L-98 -153 Q-88 -155 -81 -155.5 Q-74 -156 -66 -156 Z " />
<glyph glyph-name="fi" unicode="&#xfb01;" horiz-adv-x="535" d="M529 726 L598 726 L567 597 L498 597 L529 726 Z M389 510 L375 453 L236 453 L126 0 L57 0 L167 453 L87 453 L101 510 L181 510 L190 545 Q212 639 265 689.5 Q318 740 392 740 Q416 740 434 735 Q452 730 466 719 L451 658 Q441 667 424 672.5 Q407 678 387 678 Q339 678 306.5 645 Q274 612 258 546 L250 510 L389 510 Z M477 510 L546 510 L421 0 L352 0 L477 510 Z " />
<glyph glyph-name="fl" unicode="&#xfb02;" horiz-adv-x="535" d="M602 740 L421 0 L352 0 L529 727 L602 740 Z M389 510 L375 453 L236 453 L126 0 L57 0 L167 453 L87 453 L101 510 L181 510 L190 545 Q212 639 265 689.5 Q318 740 392 740 Q416 740 434 735 Q452 730 466 719 L451 658 Q441 667 424 672.5 Q407 678 387 678 Q339 678 306.5 645 Q274 612 258 546 L250 510 L389 510 Z " />
<glyph glyph-name="Aacute" unicode="&#xc1;" horiz-adv-x="680" d="M518 229 L453 617 L203 229 L518 229 Z M632 0 L557 0 L529 167 L163 167 L55 0 L-19 0 L430 690 L514 690 L632 0 Z M503 767 L440 767 L573 902 L655 902 L503 767 Z " />
<glyph glyph-name="Acircumflex" unicode="&#xc2;" horiz-adv-x="680" d="M518 229 L453 617 L203 229 L518 229 Z M632 0 L557 0 L529 167 L163 167 L55 0 L-19 0 L430 690 L514 690 L632 0 Z M641 767 L584 767 L518 865 L403 767 L343 767 L489 902 L563 902 L641 767 Z " />
<glyph glyph-name="Adieresis" unicode="&#xc4;" horiz-adv-x="680" d="M518 229 L453 617 L203 229 L518 229 Z M632 0 L557 0 L529 167 L163 167 L55 0 L-19 0 L430 690 L514 690 L632 0 Z M608 776 L547 776 L579 905 L641 905 L608 776 Z M443 776 L382 776 L414 905 L475 905 L443 776 Z " />
<glyph glyph-name="Agrave" unicode="&#xc0;" horiz-adv-x="680" d="M518 229 L453 617 L203 229 L518 229 Z M632 0 L557 0 L529 167 L163 167 L55 0 L-19 0 L430 690 L514 690 L632 0 Z M398 902 L478 902 L547 767 L484 767 L398 902 Z " />
<glyph glyph-name="Aring" unicode="&#xc5;" horiz-adv-x="680" d="M518 229 L453 617 L203 229 L518 229 Z M632 0 L557 0 L529 167 L163 167 L55 0 L-19 0 L430 690 L514 690 L632 0 Z M413 827 Q413 875 449.5 909.5 Q486 944 536 944 Q570 944 591 922.5 Q612 901 612 867 Q612 819 575.5 784 Q539 749 490 749 Q456 749 434.5 771 Q413 793 413 827 Z M456 834 Q456 814 468 802 Q480 790 500 790 Q528 790 548.5 811 Q569 832 569 861 Q569 880 557.5 892 Q546 904 527 904 Q498 904 477 883.5 Q456 863 456 834 Z " />
<glyph glyph-name="Atilde" unicode="&#xc3;" horiz-adv-x="680" d="M518 229 L453 617 L203 229 L518 229 Z M632 0 L557 0 L529 167 L163 167 L55 0 L-19 0 L430 690 L514 690 L632 0 Z M527 854 Q547 834 558.5 828 Q570 822 582 822 Q604 822 622.5 841 Q641 860 650 892 L699 892 Q683 837 651 806 Q619 775 579 775 Q559 775 542 783 Q525 791 498 817 Q478 836 467 842 Q456 848 445 848 Q421 848 401.5 829.5 Q382 811 370 776 L322 776 Q340 833 372.5 864.5 Q405 896 447 896 Q467 896 484 888 Q501 880 527 854 Z " />
<glyph glyph-name="Abreve" unicode="&#x102;" horiz-adv-x="680" d="M518 229 L453 617 L203 229 L518 229 Z M632 0 L557 0 L529 167 L163 167 L55 0 L-19 0 L430 690 L514 690 L632 0 Z M513 816 Q553 816 582 836.5 Q611 857 632 900 L681 900 Q659 839 612 804 Q565 769 502 769 Q440 769 409 804.5 Q378 840 386 900 L434 900 Q432 858 452 837 Q472 816 513 816 Z " />
<glyph glyph-name="Amacron" unicode="&#x100;" horiz-adv-x="680" d="M518 229 L453 617 L203 229 L518 229 Z M632 0 L557 0 L529 167 L163 167 L55 0 L-19 0 L430 690 L514 690 L632 0 Z M647 807 L358 807 L372 863 L661 863 L647 807 Z " />
<glyph glyph-name="Aogonek" unicode="&#x104;" horiz-adv-x="680" d="M595 -138 L583 -184 Q560 -197 538 -202.5 Q516 -208 488 -208 Q449 -208 424 -189 Q399 -170 399 -140 Q399 -97 438 -59.5 Q477 -22 556 11 L529 167 L163 167 L55 0 L-19 0 L430 690 L514 690 L632 0 L604 0 Q519 -39 488 -65.5 Q457 -92 457 -121 Q457 -142 471.5 -153 Q486 -164 512 -164 Q530 -164 552 -157 Q574 -150 595 -138 Z M518 229 L453 617 L203 229 L518 229 Z " />
<glyph glyph-name="Ccedilla" unicode="&#xc7;" horiz-adv-x="637" d="M424 -111 Q424 -152 390 -178 Q356 -204 304 -204 Q278 -204 258.5 -199.5 Q239 -195 221 -184 L230 -142 Q251 -154 268.5 -158.5 Q286 -163 308 -163 Q338 -163 354.5 -151.5 Q371 -140 371 -119 Q371 -105 359.5 -97.5 Q348 -90 327 -90 L282 -90 L319 -8 Q210 3 147 76 Q84 149 84 263 Q84 351 116.5 431 Q149 511 210 572 Q271 634 350.5 667 Q430 700 518 700 Q575 700 622.5 687 Q670 674 706 649 L689 578 Q653 604 607 618 Q561 632 511 632 Q363 632 262 528.5 Q161 425 161 274 Q161 172 217 114.5 Q273 57 372 57 Q425 57 478 69.5 Q531 82 588 109 L570 37 Q521 13 468 1.5 Q415 -10 356 -10 L356 -10 L334 -57 L351 -57 Q386 -57 405 -71 Q424 -85 424 -111 Z " />
<glyph glyph-name="Cacute" unicode="&#x106;" horiz-adv-x="637" d="M372 57 Q425 57 478 69.5 Q531 82 588 109 L570 37 Q521 13 468 1.5 Q415 -10 356 -10 Q231 -10 157.5 64 Q84 138 84 263 Q84 351 116.5 431 Q149 511 210 572 Q271 634 350.5 667 Q430 700 518 700 Q575 700 622.5 687 Q670 674 706 649 L689 578 Q653 604 607 618 Q561 632 511 632 Q363 632 262 528.5 Q161 425 161 274 Q161 172 217 114.5 Q273 57 372 57 Z M497 767 L434 767 L567 902 L649 902 L497 767 Z " />
<glyph glyph-name="Ccaron" unicode="&#x10c;" horiz-adv-x="637" d="M372 57 Q425 57 478 69.5 Q531 82 588 109 L570 37 Q521 13 468 1.5 Q415 -10 356 -10 Q231 -10 157.5 64 Q84 138 84 263 Q84 351 116.5 431 Q149 511 210 572 Q271 634 350.5 667 Q430 700 518 700 Q575 700 622.5 687 Q670 674 706 649 L689 578 Q653 604 607 618 Q561 632 511 632 Q363 632 262 528.5 Q161 425 161 274 Q161 172 217 114.5 Q273 57 372 57 Z M532 767 L458 767 L380 902 L436 902 L501 804 L616 902 L680 902 L532 767 Z " />
<glyph glyph-name="Ccircumflex" unicode="&#x108;" horiz-adv-x="637" d="M372 57 Q425 57 478 69.5 Q531 82 588 109 L570 37 Q521 13 468 1.5 Q415 -10 356 -10 Q231 -10 157.5 64 Q84 138 84 263 Q84 351 116.5 431 Q149 511 210 572 Q271 634 350.5 667 Q430 700 518 700 Q575 700 622.5 687 Q670 674 706 649 L689 578 Q653 604 607 618 Q561 632 511 632 Q363 632 262 528.5 Q161 425 161 274 Q161 172 217 114.5 Q273 57 372 57 Z M647 767 L590 767 L524 865 L409 767 L349 767 L495 902 L569 902 L647 767 Z " />
<glyph glyph-name="Cdotaccent" unicode="&#x10a;" horiz-adv-x="637" d="M372 57 Q425 57 478 69.5 Q531 82 588 109 L570 37 Q521 13 468 1.5 Q415 -10 356 -10 Q231 -10 157.5 64 Q84 138 84 263 Q84 351 116.5 431 Q149 511 210 572 Q271 634 350.5 667 Q430 700 518 700 Q575 700 622.5 687 Q670 674 706 649 L689 578 Q653 604 607 618 Q561 632 511 632 Q363 632 262 528.5 Q161 425 161 274 Q161 172 217 114.5 Q273 57 372 57 Z M491 905 L561 905 L529 776 L459 776 L491 905 Z " />
<glyph glyph-name="Dcaron" unicode="&#x10e;" horiz-adv-x="706" d="M597 121 Q538 62 459 31 Q380 0 291 0 L54 0 L70 66 L70 66 L222 690 L462 690 Q581 690 651.5 617.5 Q722 545 722 425 Q722 337 690 258.5 Q658 180 597 121 Z M644 415 Q644 511 590 567 Q536 623 442 623 L278 623 L143 66 L304 66 Q449 66 546.5 166 Q644 266 644 415 Z M513 767 L439 767 L361 902 L417 902 L482 804 L597 902 L661 902 L513 767 Z " />
<glyph glyph-name="Dcroat" unicode="&#x110;" horiz-adv-x="708" d="M372 374 L359 318 L205 318 L144 66 L306 66 Q451 66 548.5 166 Q646 266 646 415 Q646 511 591.5 567 Q537 623 443 623 L280 623 L219 374 L372 374 Z M293 0 L56 0 L133 318 L67 318 L80 374 L147 374 L223 690 L463 690 Q582 690 652.5 618 Q723 546 723 425 Q723 244 600 122 Q477 0 293 0 Z " />
<glyph glyph-name="Eacute" unicode="&#xc9;" horiz-adv-x="577" d="M660 690 L644 623 L278 623 L221 387 L491 387 L475 321 L204 321 L143 66 L508 66 L492 0 L54 0 L222 690 L660 690 Z M452 767 L389 767 L522 902 L604 902 L452 767 Z " />
<glyph glyph-name="Ecircumflex" unicode="&#xca;" horiz-adv-x="577" d="M660 690 L644 623 L278 623 L221 387 L491 387 L475 321 L204 321 L143 66 L508 66 L492 0 L54 0 L222 690 L660 690 Z M596 767 L539 767 L473 865 L358 767 L298 767 L444 902 L518 902 L596 767 Z " />
<glyph glyph-name="Edieresis" unicode="&#xcb;" horiz-adv-x="577" d="M660 690 L644 623 L278 623 L221 387 L491 387 L475 321 L204 321 L143 66 L508 66 L492 0 L54 0 L222 690 L660 690 Z M562 776 L501 776 L533 905 L595 905 L562 776 Z M397 776 L336 776 L368 905 L429 905 L397 776 Z " />
<glyph glyph-name="Egrave" unicode="&#xc8;" horiz-adv-x="577" d="M660 690 L644 623 L278 623 L221 387 L491 387 L475 321 L204 321 L143 66 L508 66 L492 0 L54 0 L222 690 L660 690 Z M371 902 L451 902 L520 767 L457 767 L371 902 Z " />
<glyph glyph-name="Ebreve" unicode="&#x114;" horiz-adv-x="577" d="M660 690 L644 623 L278 623 L221 387 L491 387 L475 321 L204 321 L143 66 L508 66 L492 0 L54 0 L222 690 L660 690 Z M461 816 Q501 816 530 836.5 Q559 857 580 900 L629 900 Q607 839 560 804 Q513 769 450 769 Q388 769 357 804.5 Q326 840 334 900 L382 900 Q380 858 400 837 Q420 816 461 816 Z " />
<glyph glyph-name="Ecaron" unicode="&#x11a;" horiz-adv-x="577" d="M660 690 L644 623 L278 623 L221 387 L491 387 L475 321 L204 321 L143 66 L508 66 L492 0 L54 0 L222 690 L660 690 Z M488 767 L414 767 L336 902 L392 902 L457 804 L572 902 L636 902 L488 767 Z " />
<glyph glyph-name="Edotaccent" unicode="&#x116;" horiz-adv-x="577" d="M660 690 L644 623 L278 623 L221 387 L491 387 L475 321 L204 321 L143 66 L508 66 L492 0 L54 0 L222 690 L660 690 Z M440 905 L510 905 L478 776 L408 776 L440 905 Z " />
<glyph glyph-name="Emacron" unicode="&#x112;" horiz-adv-x="577" d="M660 690 L644 623 L278 623 L221 387 L491 387 L475 321 L204 321 L143 66 L508 66 L492 0 L54 0 L222 690 L660 690 Z M595 807 L306 807 L320 863 L609 863 L595 807 Z " />
<glyph glyph-name="Eogonek" unicode="&#x118;" horiz-adv-x="577" d="M461 -138 L450 -182 Q424 -196 402 -202 Q380 -208 354 -208 Q315 -208 290 -189 Q265 -170 265 -140 Q265 -99 297.5 -65.5 Q330 -32 402 0 L54 0 L222 690 L660 690 L644 623 L278 623 L221 387 L491 387 L475 321 L204 321 L143 66 L508 66 L492 0 L457 0 Q377 -41 350 -67 Q323 -93 323 -121 Q323 -141 337.5 -152.5 Q352 -164 378 -164 Q397 -164 419.5 -157 Q442 -150 461 -138 Z " />
<glyph glyph-name="Gbreve" unicode="&#x11e;" horiz-adv-x="708" d="M699 346 L633 76 Q575 33 506 11.5 Q437 -10 355 -10 Q232 -10 158 65 Q84 140 84 263 Q84 353 116.5 433 Q149 513 211 574 Q272 635 352.5 667.5 Q433 700 522 700 Q575 700 621.5 688 Q668 676 705 653 L688 581 Q651 606 605.5 619 Q560 632 511 632 Q364 632 262.5 528.5 Q161 425 161 275 Q161 175 218 116 Q275 57 374 57 Q434 57 483.5 71 Q533 85 574 114 L615 283 L424 283 L439 346 L699 346 Z M527 816 Q567 816 596 836.5 Q625 857 646 900 L695 900 Q673 839 626 804 Q579 769 516 769 Q454 769 423 804.5 Q392 840 400 900 L448 900 Q446 858 466 837 Q486 816 527 816 Z " />
<glyph glyph-name="Gcircumflex" unicode="&#x11c;" horiz-adv-x="708" d="M699 346 L633 76 Q575 33 506 11.5 Q437 -10 355 -10 Q232 -10 158 65 Q84 140 84 263 Q84 353 116.5 433 Q149 513 211 574 Q272 635 352.5 667.5 Q433 700 522 700 Q575 700 621.5 688 Q668 676 705 653 L688 581 Q651 606 605.5 619 Q560 632 511 632 Q364 632 262.5 528.5 Q161 425 161 275 Q161 175 218 116 Q275 57 374 57 Q434 57 483.5 71 Q533 85 574 114 L615 283 L424 283 L439 346 L699 346 Z M655 767 L598 767 L532 865 L417 767 L357 767 L503 902 L577 902 L655 767 Z " />
<glyph glyph-name="Gcommaaccent" unicode="&#x122;" horiz-adv-x="708" d="M699 346 L633 76 Q575 33 506 11.5 Q437 -10 355 -10 Q232 -10 158 65 Q84 140 84 263 Q84 353 116.5 433 Q149 513 211 574 Q272 635 352.5 667.5 Q433 700 522 700 Q575 700 621.5 688 Q668 676 705 653 L688 581 Q651 606 605.5 619 Q560 632 511 632 Q364 632 262.5 528.5 Q161 425 161 275 Q161 175 218 116 Q275 57 374 57 Q434 57 483.5 71 Q533 85 574 114 L615 283 L424 283 L439 346 L699 346 Z M286 -160 L310 -62 L386 -62 L370 -131 Q361 -169 338.5 -196.5 Q316 -224 281 -240 L267 -224 Q287 -211 300.5 -195 Q314 -179 320 -160 L286 -160 Z " />
<glyph glyph-name="Gdotaccent" unicode="&#x120;" horiz-adv-x="708" d="M699 346 L633 76 Q575 33 506 11.5 Q437 -10 355 -10 Q232 -10 158 65 Q84 140 84 263 Q84 353 116.5 433 Q149 513 211 574 Q272 635 352.5 667.5 Q433 700 522 700 Q575 700 621.5 688 Q668 676 705 653 L688 581 Q651 606 605.5 619 Q560 632 511 632 Q364 632 262.5 528.5 Q161 425 161 275 Q161 175 218 116 Q275 57 374 57 Q434 57 483.5 71 Q533 85 574 114 L615 283 L424 283 L439 346 L699 346 Z M506 905 L576 905 L544 776 L474 776 L506 905 Z " />
<glyph glyph-name="Hbar" unicode="&#x126;" horiz-adv-x="733" d="M216 367 L628 367 L659 492 L246 492 L216 367 Z M612 0 L539 0 L614 309 L202 309 L127 0 L54 0 L174 492 L113 492 L127 549 L188 549 L222 690 L294 690 L260 549 L673 549 L707 690 L779 690 L745 549 L805 549 L791 492 L731 492 L612 0 Z " />
<glyph glyph-name="Hcircumflex" unicode="&#x124;" horiz-adv-x="733" d="M612 0 L539 0 L614 309 L202 309 L127 0 L54 0 L222 690 L294 690 L218 375 L630 375 L707 690 L779 690 L612 0 Z M658 767 L601 767 L535 865 L420 767 L360 767 L506 902 L580 902 L658 767 Z " />
<glyph glyph-name="Iacute" unicode="&#xcd;" horiz-adv-x="249" d="M222 690 L294 690 L127 0 L54 0 L222 690 Z M288 767 L225 767 L358 902 L440 902 L288 767 Z " />
<glyph glyph-name="Icircumflex" unicode="&#xce;" horiz-adv-x="249" d="M222 690 L294 690 L127 0 L54 0 L222 690 Z M426 767 L369 767 L303 865 L188 767 L128 767 L274 902 L348 902 L426 767 Z " />
<glyph glyph-name="Idieresis" unicode="&#xcf;" horiz-adv-x="249" d="M222 690 L294 690 L127 0 L54 0 L222 690 Z M393 776 L332 776 L364 905 L426 905 L393 776 Z M228 776 L167 776 L199 905 L260 905 L228 776 Z " />
<glyph glyph-name="Igrave" unicode="&#xcc;" horiz-adv-x="249" d="M222 690 L294 690 L127 0 L54 0 L222 690 Z M187 902 L267 902 L336 767 L273 767 L187 902 Z " />
<glyph glyph-name="Ibreve" unicode="&#x12c;" horiz-adv-x="249" d="M222 690 L294 690 L127 0 L54 0 L222 690 Z M298 816 Q338 816 367 836.5 Q396 857 417 900 L466 900 Q444 839 397 804 Q350 769 287 769 Q225 769 194 804.5 Q163 840 171 900 L219 900 Q217 858 237 837 Q257 816 298 816 Z " />
<glyph glyph-name="Idot" unicode="&#x130;" horiz-adv-x="249" d="M222 690 L294 690 L127 0 L54 0 L222 690 Z M277 905 L347 905 L315 776 L245 776 L277 905 Z " />
<glyph glyph-name="Imacron" unicode="&#x12a;" horiz-adv-x="249" d="M222 690 L294 690 L127 0 L54 0 L222 690 Z M432 807 L143 807 L157 863 L446 863 L432 807 Z " />
<glyph glyph-name="Iogonek" unicode="&#x12e;" horiz-adv-x="249" d="M105 -138 L94 -182 Q68 -196 46 -202 Q24 -208 -1 -208 Q-40 -208 -65 -189 Q-90 -170 -90 -140 Q-90 -97 -54 -60.5 Q-18 -24 57 9 L222 690 L294 690 L127 0 L99 0 Q21 -41 -5 -67 Q-31 -93 -31 -121 Q-31 -141 -17 -152.5 Q-3 -164 22 -164 Q41 -164 63 -157 Q85 -150 105 -138 Z " />
<glyph glyph-name="Itilde" unicode="&#x128;" horiz-adv-x="249" d="M222 690 L294 690 L127 0 L54 0 L222 690 Z M312 854 Q332 834 343.5 828 Q355 822 367 822 Q389 822 407.5 841 Q426 860 435 892 L484 892 Q468 837 436 806 Q404 775 364 775 Q344 775 327 783 Q310 791 283 817 Q263 836 252 842 Q241 848 230 848 Q206 848 186.5 829.5 Q167 811 155 776 L107 776 Q125 833 157.5 864.5 Q190 896 232 896 Q252 896 269 888 Q286 880 312 854 Z " />
<glyph glyph-name="Jcircumflex" unicode="&#x134;" horiz-adv-x="438" d="M112 -10 Q85 -10 56.5 -5.5 Q28 -1 11 7 L27 74 Q45 65 69 61 Q93 57 125 57 Q193 57 238 97.5 Q283 138 302 219 L416 690 L489 690 L375 219 Q346 104 281 47 Q216 -10 112 -10 Z M576 767 L519 767 L453 865 L338 767 L278 767 L424 902 L498 902 L576 767 Z " />
<glyph glyph-name="IJ" unicode="&#x132;" horiz-adv-x="687" d="M222 690 L294 690 L127 0 L54 0 L222 690 Z M361 -10 Q334 -10 305.5 -5.5 Q277 -1 260 7 L276 74 Q294 65 318 61 Q342 57 374 57 Q442 57 487 97.5 Q532 138 551 219 L665 690 L738 690 L624 219 Q595 104 530 47 Q465 -10 361 -10 Z " />
<glyph glyph-name="Kcommaaccent" unicode="&#x136;" horiz-adv-x="636" d="M580 0 L495 0 L307 319 L175 199 L127 0 L54 0 L222 690 L294 690 L199 298 L630 690 L716 690 L362 368 L580 0 Z M225 -160 L249 -62 L325 -62 L309 -131 Q300 -169 277.5 -196.5 Q255 -224 220 -240 L206 -224 Q226 -211 239.5 -195 Q253 -179 259 -160 L225 -160 Z " />
<glyph glyph-name="Lacute" unicode="&#x139;" horiz-adv-x="562" d="M222 690 L294 690 L143 66 L512 66 L496 0 L54 0 L222 690 Z M318 767 L255 767 L388 902 L470 902 L318 767 Z " />
<glyph glyph-name="Lcaron" unicode="&#x13d;" horiz-adv-x="562" d="M222 690 L294 690 L143 66 L512 66 L496 0 L54 0 L222 690 Z M419 612 L442 710 L519 710 L502 641 Q492 600 469 568.5 Q446 537 409 515 L395 531 Q415 547 430 568 Q445 589 452 612 L419 612 Z " />
<glyph glyph-name="Lcommaaccent" unicode="&#x13b;" horiz-adv-x="562" d="M222 690 L294 690 L143 66 L512 66 L496 0 L54 0 L222 690 Z M201 -160 L225 -62 L301 -62 L285 -131 Q276 -169 253.5 -196.5 Q231 -224 196 -240 L182 -224 Q202 -211 215.5 -195 Q229 -179 235 -160 L201 -160 Z " />
<glyph glyph-name="Ldot" unicode="&#x13f;" horiz-adv-x="562" d="M222 690 L294 690 L143 66 L512 66 L496 0 L54 0 L222 690 Z M397 311 L423 416 L504 416 L480 311 L397 311 Z " />
<glyph glyph-name="Ntilde" unicode="&#xd1;" horiz-adv-x="726" d="M605 0 L536 0 L265 570 L127 0 L54 0 L222 690 L290 690 L561 115 L700 690 L773 690 L605 0 Z M546 854 Q566 834 577.5 828 Q589 822 601 822 Q623 822 641.5 841 Q660 860 669 892 L718 892 Q702 837 670 806 Q638 775 598 775 Q578 775 561 783 Q544 791 517 817 Q497 836 486 842 Q475 848 464 848 Q440 848 420.5 829.5 Q401 811 389 776 L341 776 Q359 833 391.5 864.5 Q424 896 466 896 Q486 896 503 888 Q520 880 546 854 Z " />
<glyph glyph-name="Nacute" unicode="&#x143;" horiz-adv-x="726" d="M605 0 L536 0 L265 570 L127 0 L54 0 L222 690 L290 690 L561 115 L700 690 L773 690 L605 0 Z M517 767 L454 767 L587 902 L669 902 L517 767 Z " />
<glyph glyph-name="Ncaron" unicode="&#x147;" horiz-adv-x="726" d="M605 0 L536 0 L265 570 L127 0 L54 0 L222 690 L290 690 L561 115 L700 690 L773 690 L605 0 Z M553 767 L479 767 L401 902 L457 902 L522 804 L637 902 L701 902 L553 767 Z " />
<glyph glyph-name="Ncommaaccent" unicode="&#x145;" horiz-adv-x="726" d="M605 0 L536 0 L265 570 L127 0 L54 0 L222 690 L290 690 L561 115 L700 690 L773 690 L605 0 Z M285 -160 L309 -62 L385 -62 L369 -131 Q360 -169 337.5 -196.5 Q315 -224 280 -240 L266 -224 Q286 -211 299.5 -195 Q313 -179 319 -160 L285 -160 Z " />
<glyph glyph-name="Oacute" unicode="&#xd3;" horiz-adv-x="774" d="M353 -10 Q234 -10 160.5 65.5 Q87 141 87 261 Q87 348 119.5 428 Q152 508 212 570 Q273 632 353 666 Q433 700 520 700 Q639 700 712.5 623.5 Q786 547 786 424 Q786 338 753 259 Q720 180 658 119 Q597 57 517.5 23.5 Q438 -10 353 -10 Z M609 166 Q657 217 683 281 Q709 345 709 413 Q709 512 654 572 Q599 632 506 632 Q439 632 375.5 603.5 Q312 575 263 524 Q216 473 190 409 Q164 345 164 276 Q164 176 219.5 116.5 Q275 57 368 57 Q435 57 497.5 85.5 Q560 114 609 166 Z M541 767 L478 767 L611 902 L693 902 L541 767 Z " />
<glyph glyph-name="Ocircumflex" unicode="&#xd4;" horiz-adv-x="774" d="M353 -10 Q234 -10 160.5 65.5 Q87 141 87 261 Q87 348 119.5 428 Q152 508 212 570 Q273 632 353 666 Q433 700 520 700 Q639 700 712.5 623.5 Q786 547 786 424 Q786 338 753 259 Q720 180 658 119 Q597 57 517.5 23.5 Q438 -10 353 -10 Z M609 166 Q657 217 683 281 Q709 345 709 413 Q709 512 654 572 Q599 632 506 632 Q439 632 375.5 603.5 Q312 575 263 524 Q216 473 190 409 Q164 345 164 276 Q164 176 219.5 116.5 Q275 57 368 57 Q435 57 497.5 85.5 Q560 114 609 166 Z M688 767 L631 767 L565 865 L450 767 L390 767 L536 902 L610 902 L688 767 Z " />
<glyph glyph-name="Odieresis" unicode="&#xd6;" horiz-adv-x="774" d="M353 -10 Q234 -10 160.5 65.5 Q87 141 87 261 Q87 348 119.5 428 Q152 508 212 570 Q273 632 353 666 Q433 700 520 700 Q639 700 712.5 623.5 Q786 547 786 424 Q786 338 753 259 Q720 180 658 119 Q597 57 517.5 23.5 Q438 -10 353 -10 Z M609 166 Q657 217 683 281 Q709 345 709 413 Q709 512 654 572 Q599 632 506 632 Q439 632 375.5 603.5 Q312 575 263 524 Q216 473 190 409 Q164 345 164 276 Q164 176 219.5 116.5 Q275 57 368 57 Q435 57 497.5 85.5 Q560 114 609 166 Z M655 776 L594 776 L626 905 L688 905 L655 776 Z M490 776 L429 776 L461 905 L522 905 L490 776 Z " />
<glyph glyph-name="Ograve" unicode="&#xd2;" horiz-adv-x="774" d="M353 -10 Q234 -10 160.5 65.5 Q87 141 87 261 Q87 348 119.5 428 Q152 508 212 570 Q273 632 353 666 Q433 700 520 700 Q639 700 712.5 623.5 Q786 547 786 424 Q786 338 753 259 Q720 180 658 119 Q597 57 517.5 23.5 Q438 -10 353 -10 Z M609 166 Q657 217 683 281 Q709 345 709 413 Q709 512 654 572 Q599 632 506 632 Q439 632 375.5 603.5 Q312 575 263 524 Q216 473 190 409 Q164 345 164 276 Q164 176 219.5 116.5 Q275 57 368 57 Q435 57 497.5 85.5 Q560 114 609 166 Z M449 902 L529 902 L598 767 L535 767 L449 902 Z " />
<glyph glyph-name="Otilde" unicode="&#xd5;" horiz-adv-x="774" d="M353 -10 Q234 -10 160.5 65.5 Q87 141 87 261 Q87 348 119.5 428 Q152 508 212 570 Q273 632 353 666 Q433 700 520 700 Q639 700 712.5 623.5 Q786 547 786 424 Q786 338 753 259 Q720 180 658 119 Q597 57 517.5 23.5 Q438 -10 353 -10 Z M609 166 Q657 217 683 281 Q709 345 709 413 Q709 512 654 572 Q599 632 506 632 Q439 632 375.5 603.5 Q312 575 263 524 Q216 473 190 409 Q164 345 164 276 Q164 176 219.5 116.5 Q275 57 368 57 Q435 57 497.5 85.5 Q560 114 609 166 Z M569 854 Q589 834 600.5 828 Q612 822 624 822 Q646 822 664.5 841 Q683 860 692 892 L741 892 Q725 837 693 806 Q661 775 621 775 Q601 775 584 783 Q567 791 540 817 Q520 836 509 842 Q498 848 487 848 Q463 848 443.5 829.5 Q424 811 412 776 L364 776 Q382 833 414.5 864.5 Q447 896 489 896 Q509 896 526 888 Q543 880 569 854 Z " />
<glyph glyph-name="Obreve" unicode="&#x14e;" horiz-adv-x="774" d="M353 -10 Q234 -10 160.5 65.5 Q87 141 87 261 Q87 348 119.5 428 Q152 508 212 570 Q273 632 353 666 Q433 700 520 700 Q639 700 712.5 623.5 Q786 547 786 424 Q786 338 753 259 Q720 180 658 119 Q597 57 517.5 23.5 Q438 -10 353 -10 Z M609 166 Q657 217 683 281 Q709 345 709 413 Q709 512 654 572 Q599 632 506 632 Q439 632 375.5 603.5 Q312 575 263 524 Q216 473 190 409 Q164 345 164 276 Q164 176 219.5 116.5 Q275 57 368 57 Q435 57 497.5 85.5 Q560 114 609 166 Z M560 816 Q600 816 629 836.5 Q658 857 679 900 L728 900 Q706 839 659 804 Q612 769 549 769 Q487 769 456 804.5 Q425 840 433 900 L481 900 Q479 858 499 837 Q519 816 560 816 Z " />
<glyph glyph-name="Ohungarumlaut" unicode="&#x150;" horiz-adv-x="774" d="M353 -10 Q234 -10 160.5 65.5 Q87 141 87 261 Q87 348 119.5 428 Q152 508 212 570 Q273 632 353 666 Q433 700 520 700 Q639 700 712.5 623.5 Q786 547 786 424 Q786 338 753 259 Q720 180 658 119 Q597 57 517.5 23.5 Q438 -10 353 -10 Z M609 166 Q657 217 683 281 Q709 345 709 413 Q709 512 654 572 Q599 632 506 632 Q439 632 375.5 603.5 Q312 575 263 524 Q216 473 190 409 Q164 345 164 276 Q164 176 219.5 116.5 Q275 57 368 57 Q435 57 497.5 85.5 Q560 114 609 166 Z M609 767 L547 767 L678 902 L759 902 L609 767 Z M447 767 L385 767 L516 902 L597 902 L447 767 Z " />
<glyph glyph-name="Omacron" unicode="&#x14c;" horiz-adv-x="774" d="M353 -10 Q234 -10 160.5 65.5 Q87 141 87 261 Q87 348 119.5 428 Q152 508 212 570 Q273 632 353 666 Q433 700 520 700 Q639 700 712.5 623.5 Q786 547 786 424 Q786 338 753 259 Q720 180 658 119 Q597 57 517.5 23.5 Q438 -10 353 -10 Z M609 166 Q657 217 683 281 Q709 345 709 413 Q709 512 654 572 Q599 632 506 632 Q439 632 375.5 603.5 Q312 575 263 524 Q216 473 190 409 Q164 345 164 276 Q164 176 219.5 116.5 Q275 57 368 57 Q435 57 497.5 85.5 Q560 114 609 166 Z M694 807 L405 807 L419 863 L708 863 L694 807 Z " />
<glyph glyph-name="Racute" unicode="&#x154;" horiz-adv-x="633" d="M584 522 Q584 569 551.5 596 Q519 623 462 623 L278 623 L215 365 L399 365 Q477 365 530.5 410.5 Q584 456 584 522 Z M564 0 L480 0 L372 300 L200 300 L127 0 L54 0 L222 690 L478 690 Q561 690 611.5 647 Q662 604 662 534 Q662 451 602 387.5 Q542 324 448 306 L564 0 Z M447 767 L384 767 L517 902 L599 902 L447 767 Z " />
<glyph glyph-name="Rcaron" unicode="&#x158;" horiz-adv-x="633" d="M584 522 Q584 569 551.5 596 Q519 623 462 623 L278 623 L215 365 L399 365 Q477 365 530.5 410.5 Q584 456 584 522 Z M564 0 L480 0 L372 300 L200 300 L127 0 L54 0 L222 690 L478 690 Q561 690 611.5 647 Q662 604 662 534 Q662 451 602 387.5 Q542 324 448 306 L564 0 Z M479 767 L405 767 L327 902 L383 902 L448 804 L563 902 L627 902 L479 767 Z " />
<glyph glyph-name="Rcommaaccent" unicode="&#x156;" horiz-adv-x="633" d="M584 522 Q584 569 551.5 596 Q519 623 462 623 L278 623 L215 365 L399 365 Q477 365 530.5 410.5 Q584 456 584 522 Z M564 0 L480 0 L372 300 L200 300 L127 0 L54 0 L222 690 L478 690 Q561 690 611.5 647 Q662 604 662 534 Q662 451 602 387.5 Q542 324 448 306 L564 0 Z M227 -160 L251 -62 L327 -62 L311 -131 Q302 -169 279.5 -196.5 Q257 -224 222 -240 L208 -224 Q228 -211 241.5 -195 Q255 -179 261 -160 L227 -160 Z " />
<glyph glyph-name="Scaron" unicode="&#x160;" horiz-adv-x="576" d="M249 -10 Q186 -10 126 7 Q66 24 30 52 L48 124 Q90 93 147.5 74.5 Q205 56 264 56 Q350 56 411 95 Q472 134 472 193 Q472 233 439 263 Q406 293 304 335 Q220 369 183.5 408 Q147 447 147 499 Q147 586 225.5 643 Q304 700 426 700 Q481 700 525 689.5 Q569 679 613 655 L595 584 Q557 608 511.5 620.5 Q466 633 416 633 Q337 633 281.5 599 Q226 565 226 515 Q226 478 257 450 Q288 422 375 387 Q470 348 510 307 Q550 266 550 211 Q550 113 464.5 51.5 Q379 -10 249 -10 Z M452 767 L378 767 L300 902 L356 902 L421 804 L536 902 L600 902 L452 767 Z " />
<glyph glyph-name="Sacute" unicode="&#x15a;" horiz-adv-x="576" d="M249 -10 Q186 -10 126 7 Q66 24 30 52 L48 124 Q90 93 147.5 74.5 Q205 56 264 56 Q350 56 411 95 Q472 134 472 193 Q472 233 439 263 Q406 293 304 335 Q220 369 183.5 408 Q147 447 147 499 Q147 586 225.5 643 Q304 700 426 700 Q481 700 525 689.5 Q569 679 613 655 L595 584 Q557 608 511.5 620.5 Q466 633 416 633 Q337 633 281.5 599 Q226 565 226 515 Q226 478 257 450 Q288 422 375 387 Q470 348 510 307 Q550 266 550 211 Q550 113 464.5 51.5 Q379 -10 249 -10 Z M439 771 L376 771 L509 906 L591 906 L439 771 Z " />
<glyph glyph-name="Scedilla" unicode="&#x15e;" horiz-adv-x="576" d="M351 -111 Q351 -152 317 -178 Q283 -204 231 -204 Q205 -204 185.5 -199.5 Q166 -195 148 -184 L157 -142 Q178 -154 195.5 -158.5 Q213 -163 235 -163 Q265 -163 281.5 -151.5 Q298 -140 298 -119 Q298 -105 286.5 -97.5 Q275 -90 254 -90 L209 -90 L245 -10 Q183 -9 124.5 8 Q66 25 30 52 L48 124 Q90 93 147.5 74.5 Q205 56 264 56 Q350 56 411 95 Q472 134 472 193 Q472 233 439 263 Q406 293 304 335 Q220 369 183.5 408 Q147 447 147 499 Q147 586 225.5 643 Q304 700 426 700 Q481 700 525 689.5 Q569 679 613 655 L595 584 Q557 608 511.5 620.5 Q466 633 416 633 Q337 633 281.5 599 Q226 565 226 515 Q226 478 257 450 Q288 422 375 387 Q470 348 510 307 Q550 266 550 211 Q550 120 476 60 Q402 0 284 -9 L261 -57 L278 -57 Q313 -57 332 -71 Q351 -85 351 -111 Z " />
<glyph glyph-name="Scircumflex" unicode="&#x15c;" horiz-adv-x="576" d="M249 -10 Q186 -10 126 7 Q66 24 30 52 L48 124 Q90 93 147.5 74.5 Q205 56 264 56 Q350 56 411 95 Q472 134 472 193 Q472 233 439 263 Q406 293 304 335 Q220 369 183.5 408 Q147 447 147 499 Q147 586 225.5 643 Q304 700 426 700 Q481 700 525 689.5 Q569 679 613 655 L595 584 Q557 608 511.5 620.5 Q466 633 416 633 Q337 633 281.5 599 Q226 565 226 515 Q226 478 257 450 Q288 422 375 387 Q470 348 510 307 Q550 266 550 211 Q550 113 464.5 51.5 Q379 -10 249 -10 Z M580 767 L523 767 L457 865 L342 767 L282 767 L428 902 L502 902 L580 767 Z " />
<glyph glyph-name="uni0218" unicode="&#x218;" horiz-adv-x="576" d="M249 -10 Q186 -10 126 7 Q66 24 30 52 L48 124 Q90 93 147.5 74.5 Q205 56 264 56 Q350 56 411 95 Q472 134 472 193 Q472 233 439 263 Q406 293 304 335 Q220 369 183.5 408 Q147 447 147 499 Q147 586 225.5 643 Q304 700 426 700 Q481 700 525 689.5 Q569 679 613 655 L595 584 Q557 608 511.5 620.5 Q466 633 416 633 Q337 633 281.5 599 Q226 565 226 515 Q226 478 257 450 Q288 422 375 387 Q470 348 510 307 Q550 266 550 211 Q550 113 464.5 51.5 Q379 -10 249 -10 Z M203 -160 L227 -62 L303 -62 L287 -131 Q278 -169 255.5 -196.5 Q233 -224 198 -240 L184 -224 Q204 -211 217.5 -195 Q231 -179 237 -160 L203 -160 Z " />
<glyph glyph-name="Tbar" unicode="&#x166;" horiz-adv-x="581" d="M527 397 L513 340 L376 340 L293 0 L220 0 L303 340 L171 340 L185 397 L317 397 L372 623 L144 623 L160 690 L688 690 L672 623 L445 623 L390 397 L527 397 Z " />
<glyph glyph-name="Tcaron" unicode="&#x164;" horiz-adv-x="581" d="M688 690 L672 623 L445 623 L293 0 L220 0 L372 623 L144 623 L160 690 L688 690 Z M477 767 L403 767 L325 902 L381 902 L446 804 L561 902 L625 902 L477 767 Z " />
<glyph glyph-name="uni0162" unicode="&#x162;" horiz-adv-x="581" d="M688 690 L672 623 L445 623 L293 0 L220 0 L372 623 L144 623 L160 690 L688 690 Z M186 -160 L210 -62 L286 -62 L270 -131 Q261 -169 238.5 -196.5 Q216 -224 181 -240 L167 -224 Q187 -211 200.5 -195 Q214 -179 220 -160 L186 -160 Z " />
<glyph glyph-name="uni021A" unicode="&#x21a;" horiz-adv-x="581" d="M688 690 L672 623 L445 623 L293 0 L220 0 L372 623 L144 623 L160 690 L688 690 Z M186 -160 L210 -62 L286 -62 L270 -131 Q261 -169 238.5 -196.5 Q216 -224 181 -240 L167 -224 Q187 -211 200.5 -195 Q214 -179 220 -160 L186 -160 Z " />
<glyph glyph-name="Uacute" unicode="&#xda;" horiz-adv-x="709" d="M585 266 L687 690 L760 690 L656 263 Q626 136 535.5 63 Q445 -10 319 -10 Q218 -10 161 42 Q104 94 104 186 Q104 206 106.5 225.5 Q109 245 114 265 L217 690 L289 690 L186 264 Q182 249 180 232.5 Q178 216 178 199 Q178 132 219.5 94.5 Q261 57 335 57 Q426 57 494 113.5 Q562 170 585 266 Z M504 767 L441 767 L574 902 L656 902 L504 767 Z " />
<glyph glyph-name="Ucircumflex" unicode="&#xdb;" horiz-adv-x="709" d="M585 266 L687 690 L760 690 L656 263 Q626 136 535.5 63 Q445 -10 319 -10 Q218 -10 161 42 Q104 94 104 186 Q104 206 106.5 225.5 Q109 245 114 265 L217 690 L289 690 L186 264 Q182 249 180 232.5 Q178 216 178 199 Q178 132 219.5 94.5 Q261 57 335 57 Q426 57 494 113.5 Q562 170 585 266 Z M656 767 L599 767 L533 865 L418 767 L358 767 L504 902 L578 902 L656 767 Z " />
<glyph glyph-name="Udieresis" unicode="&#xdc;" horiz-adv-x="709" d="M585 266 L687 690 L760 690 L656 263 Q626 136 535.5 63 Q445 -10 319 -10 Q218 -10 161 42 Q104 94 104 186 Q104 206 106.5 225.5 Q109 245 114 265 L217 690 L289 690 L186 264 Q182 249 180 232.5 Q178 216 178 199 Q178 132 219.5 94.5 Q261 57 335 57 Q426 57 494 113.5 Q562 170 585 266 Z M623 776 L562 776 L594 905 L656 905 L623 776 Z M458 776 L397 776 L429 905 L490 905 L458 776 Z " />
<glyph glyph-name="Ugrave" unicode="&#xd9;" horiz-adv-x="709" d="M585 266 L687 690 L760 690 L656 263 Q626 136 535.5 63 Q445 -10 319 -10 Q218 -10 161 42 Q104 94 104 186 Q104 206 106.5 225.5 Q109 245 114 265 L217 690 L289 690 L186 264 Q182 249 180 232.5 Q178 216 178 199 Q178 132 219.5 94.5 Q261 57 335 57 Q426 57 494 113.5 Q562 170 585 266 Z M419 902 L499 902 L568 767 L505 767 L419 902 Z " />
<glyph glyph-name="Ubreve" unicode="&#x16c;" horiz-adv-x="709" d="M585 266 L687 690 L760 690 L656 263 Q626 136 535.5 63 Q445 -10 319 -10 Q218 -10 161 42 Q104 94 104 186 Q104 206 106.5 225.5 Q109 245 114 265 L217 690 L289 690 L186 264 Q182 249 180 232.5 Q178 216 178 199 Q178 132 219.5 94.5 Q261 57 335 57 Q426 57 494 113.5 Q562 170 585 266 Z M528 816 Q568 816 597 836.5 Q626 857 647 900 L696 900 Q674 839 627 804 Q580 769 517 769 Q455 769 424 804.5 Q393 840 401 900 L449 900 Q447 858 467 837 Q487 816 528 816 Z " />
<glyph glyph-name="Uhungarumlaut" unicode="&#x170;" horiz-adv-x="709" d="M585 266 L687 690 L760 690 L656 263 Q626 136 535.5 63 Q445 -10 319 -10 Q218 -10 161 42 Q104 94 104 186 Q104 206 106.5 225.5 Q109 245 114 265 L217 690 L289 690 L186 264 Q182 249 180 232.5 Q178 216 178 199 Q178 132 219.5 94.5 Q261 57 335 57 Q426 57 494 113.5 Q562 170 585 266 Z M600 767 L538 767 L669 902 L750 902 L600 767 Z M438 767 L376 767 L507 902 L588 902 L438 767 Z " />
<glyph glyph-name="Umacron" unicode="&#x16a;" horiz-adv-x="709" d="M585 266 L687 690 L760 690 L656 263 Q626 136 535.5 63 Q445 -10 319 -10 Q218 -10 161 42 Q104 94 104 186 Q104 206 106.5 225.5 Q109 245 114 265 L217 690 L289 690 L186 264 Q182 249 180 232.5 Q178 216 178 199 Q178 132 219.5 94.5 Q261 57 335 57 Q426 57 494 113.5 Q562 170 585 266 Z M662 807 L373 807 L387 863 L676 863 L662 807 Z " />
<glyph glyph-name="Uogonek" unicode="&#x172;" horiz-adv-x="709" d="M321 -208 Q282 -208 257 -189 Q232 -170 232 -140 Q232 -103 260 -71 Q288 -39 348 -9 Q343 -10 337 -10 Q331 -10 319 -10 Q218 -10 161 41 Q104 92 104 182 Q104 203 106.5 223.5 Q109 244 114 265 L217 690 L289 690 L186 264 Q182 249 180 232.5 Q178 216 178 199 Q178 132 219.5 94.5 Q261 57 335 57 Q426 57 494 113.5 Q562 170 585 266 L687 690 L760 690 L656 263 Q633 166 575 100 Q517 34 430 6 Q350 -35 320.5 -63 Q291 -91 291 -121 Q291 -142 305 -153 Q319 -164 345 -164 Q364 -164 386 -157 Q408 -150 428 -138 L417 -182 Q391 -196 369 -202 Q347 -208 321 -208 Z " />
<glyph glyph-name="Uring" unicode="&#x16e;" horiz-adv-x="709" d="M585 266 L687 690 L760 690 L656 263 Q626 136 535.5 63 Q445 -10 319 -10 Q218 -10 161 42 Q104 94 104 186 Q104 206 106.5 225.5 Q109 245 114 265 L217 690 L289 690 L186 264 Q182 249 180 232.5 Q178 216 178 199 Q178 132 219.5 94.5 Q261 57 335 57 Q426 57 494 113.5 Q562 170 585 266 Z M428 827 Q428 875 464.5 909.5 Q501 944 551 944 Q585 944 606 922.5 Q627 901 627 867 Q627 819 590.5 784 Q554 749 505 749 Q471 749 449.5 771 Q428 793 428 827 Z M471 834 Q471 814 483 802 Q495 790 515 790 Q543 790 563.5 811 Q584 832 584 861 Q584 880 572.5 892 Q561 904 542 904 Q513 904 492 883.5 Q471 863 471 834 Z " />
<glyph glyph-name="Utilde" unicode="&#x168;" horiz-adv-x="709" d="M585 266 L687 690 L760 690 L656 263 Q626 136 535.5 63 Q445 -10 319 -10 Q218 -10 161 42 Q104 94 104 186 Q104 206 106.5 225.5 Q109 245 114 265 L217 690 L289 690 L186 264 Q182 249 180 232.5 Q178 216 178 199 Q178 132 219.5 94.5 Q261 57 335 57 Q426 57 494 113.5 Q562 170 585 266 Z M534 854 Q554 834 565.5 828 Q577 822 589 822 Q611 822 629.5 841 Q648 860 657 892 L706 892 Q690 837 658 806 Q626 775 586 775 Q566 775 549 783 Q532 791 505 817 Q485 836 474 842 Q463 848 452 848 Q428 848 408.5 829.5 Q389 811 377 776 L329 776 Q347 833 379.5 864.5 Q412 896 454 896 Q474 896 491 888 Q508 880 534 854 Z " />
<glyph glyph-name="Wacute" unicode="&#x1e82;" horiz-adv-x="992" d="M686 79 L1035 690 L1114 690 L711 0 L630 0 L579 473 L297 0 L217 0 L144 690 L218 690 L281 79 L567 562 L635 562 L686 79 Z M652 767 L589 767 L722 902 L804 902 L652 767 Z " />
<glyph glyph-name="Wcircumflex" unicode="&#x174;" horiz-adv-x="992" d="M686 79 L1035 690 L1114 690 L711 0 L630 0 L579 473 L297 0 L217 0 L144 690 L218 690 L281 79 L567 562 L635 562 L686 79 Z M799 767 L742 767 L676 865 L561 767 L501 767 L647 902 L721 902 L799 767 Z " />
<glyph glyph-name="Wdieresis" unicode="&#x1e84;" horiz-adv-x="992" d="M686 79 L1035 690 L1114 690 L711 0 L630 0 L579 473 L297 0 L217 0 L144 690 L218 690 L281 79 L567 562 L635 562 L686 79 Z M766 776 L705 776 L737 905 L799 905 L766 776 Z M601 776 L540 776 L572 905 L633 905 L601 776 Z " />
<glyph glyph-name="Wgrave" unicode="&#x1e80;" horiz-adv-x="992" d="M686 79 L1035 690 L1114 690 L711 0 L630 0 L579 473 L297 0 L217 0 L144 690 L218 690 L281 79 L567 562 L635 562 L686 79 Z M566 902 L646 902 L715 767 L652 767 L566 902 Z " />
<glyph glyph-name="Yacute" unicode="&#xdd;" horiz-adv-x="640" d="M678 690 L758 690 L393 287 L322 0 L250 0 L320 287 L148 690 L222 690 L369 351 L678 690 Z M483 767 L420 767 L553 902 L635 902 L483 767 Z " />
<glyph glyph-name="Ydieresis" unicode="&#x178;" horiz-adv-x="640" d="M678 690 L758 690 L393 287 L322 0 L250 0 L320 287 L148 690 L222 690 L369 351 L678 690 Z M588 776 L527 776 L559 905 L621 905 L588 776 Z M423 776 L362 776 L394 905 L455 905 L423 776 Z " />
<glyph glyph-name="Ycircumflex" unicode="&#x176;" horiz-adv-x="640" d="M678 690 L758 690 L393 287 L322 0 L250 0 L320 287 L148 690 L222 690 L369 351 L678 690 Z M621 767 L564 767 L498 865 L383 767 L323 767 L469 902 L543 902 L621 767 Z " />
<glyph glyph-name="Ygrave" unicode="&#x1ef2;" horiz-adv-x="640" d="M678 690 L758 690 L393 287 L322 0 L250 0 L320 287 L148 690 L222 690 L369 351 L678 690 Z M388 902 L468 902 L537 767 L474 767 L388 902 Z " />
<glyph glyph-name="Zcaron" unicode="&#x17d;" horiz-adv-x="585" d="M511 0 L6 0 L21 60 L561 623 L161 623 L177 690 L670 690 L655 629 L115 66 L528 66 L511 0 Z M471 767 L397 767 L319 902 L375 902 L440 804 L555 902 L619 902 L471 767 Z " />
<glyph glyph-name="Zacute" unicode="&#x179;" horiz-adv-x="585" d="M511 0 L6 0 L21 60 L561 623 L161 623 L177 690 L670 690 L655 629 L115 66 L528 66 L511 0 Z M439 767 L376 767 L509 902 L591 902 L439 767 Z " />
<glyph glyph-name="Zdotaccent" unicode="&#x17b;" horiz-adv-x="585" d="M511 0 L6 0 L21 60 L561 623 L161 623 L177 690 L670 690 L655 629 L115 66 L528 66 L511 0 Z M437 905 L507 905 L475 776 L405 776 L437 905 Z " />
<glyph glyph-name="aacute" unicode="&#xe1;" horiz-adv-x="627" d="M483 163 L529 349 Q510 401 469.5 430 Q429 459 375 459 Q277 459 206 384 Q135 309 135 203 Q135 133 173 92 Q211 51 277 51 Q331 51 385.5 80.5 Q440 110 483 163 Z M443 0 L469 99 Q424 46 366.5 18 Q309 -10 244 -10 Q162 -10 112.5 44.5 Q63 99 63 189 Q63 326 155.5 423 Q248 520 375 520 Q436 520 479.5 493 Q523 466 544 416 L568 510 L637 510 L513 0 L443 0 Z M424 588 L361 588 L494 723 L576 723 L424 588 Z " />
<glyph glyph-name="acircumflex" unicode="&#xe2;" horiz-adv-x="627" d="M483 163 L529 349 Q510 401 469.5 430 Q429 459 375 459 Q277 459 206 384 Q135 309 135 203 Q135 133 173 92 Q211 51 277 51 Q331 51 385.5 80.5 Q440 110 483 163 Z M443 0 L469 99 Q424 46 366.5 18 Q309 -10 244 -10 Q162 -10 112.5 44.5 Q63 99 63 189 Q63 326 155.5 423 Q248 520 375 520 Q436 520 479.5 493 Q523 466 544 416 L568 510 L637 510 L513 0 L443 0 Z M567 588 L510 588 L444 686 L329 588 L269 588 L415 723 L489 723 L567 588 Z " />
<glyph glyph-name="adieresis" unicode="&#xe4;" horiz-adv-x="627" d="M483 163 L529 349 Q510 401 469.5 430 Q429 459 375 459 Q277 459 206 384 Q135 309 135 203 Q135 133 173 92 Q211 51 277 51 Q331 51 385.5 80.5 Q440 110 483 163 Z M443 0 L469 99 Q424 46 366.5 18 Q309 -10 244 -10 Q162 -10 112.5 44.5 Q63 99 63 189 Q63 326 155.5 423 Q248 520 375 520 Q436 520 479.5 493 Q523 466 544 416 L568 510 L637 510 L513 0 L443 0 Z M531 597 L470 597 L502 726 L564 726 L531 597 Z M366 597 L305 597 L337 726 L398 726 L366 597 Z " />
<glyph glyph-name="agrave" unicode="&#xe0;" horiz-adv-x="627" d="M483 163 L529 349 Q510 401 469.5 430 Q429 459 375 459 Q277 459 206 384 Q135 309 135 203 Q135 133 173 92 Q211 51 277 51 Q331 51 385.5 80.5 Q440 110 483 163 Z M443 0 L469 99 Q424 46 366.5 18 Q309 -10 244 -10 Q162 -10 112.5 44.5 Q63 99 63 189 Q63 326 155.5 423 Q248 520 375 520 Q436 520 479.5 493 Q523 466 544 416 L568 510 L637 510 L513 0 L443 0 Z M338 723 L418 723 L487 588 L424 588 L338 723 Z " />
<glyph glyph-name="aring" unicode="&#xe5;" horiz-adv-x="627" d="M483 163 L529 349 Q510 401 469.5 430 Q429 459 375 459 Q277 459 206 384 Q135 309 135 203 Q135 133 173 92 Q211 51 277 51 Q331 51 385.5 80.5 Q440 110 483 163 Z M443 0 L469 99 Q424 46 366.5 18 Q309 -10 244 -10 Q162 -10 112.5 44.5 Q63 99 63 189 Q63 326 155.5 423 Q248 520 375 520 Q436 520 479.5 493 Q523 466 544 416 L568 510 L637 510 L513 0 L443 0 Z M334 648 Q334 696 370.5 730.5 Q407 765 457 765 Q491 765 512 743.5 Q533 722 533 688 Q533 640 496.5 605 Q460 570 411 570 Q377 570 355.5 592 Q334 614 334 648 Z M377 655 Q377 635 389 623 Q401 611 421 611 Q449 611 469.5 632 Q490 653 490 682 Q490 701 478.5 713 Q467 725 448 725 Q419 725 398 704.5 Q377 684 377 655 Z " />
<glyph glyph-name="atilde" unicode="&#xe3;" horiz-adv-x="627" d="M483 163 L529 349 Q510 401 469.5 430 Q429 459 375 459 Q277 459 206 384 Q135 309 135 203 Q135 133 173 92 Q211 51 277 51 Q331 51 385.5 80.5 Q440 110 483 163 Z M443 0 L469 99 Q424 46 366.5 18 Q309 -10 244 -10 Q162 -10 112.5 44.5 Q63 99 63 189 Q63 326 155.5 423 Q248 520 375 520 Q436 520 479.5 493 Q523 466 544 416 L568 510 L637 510 L513 0 L443 0 Z M457 675 Q477 655 488.5 649 Q500 643 512 643 Q534 643 552.5 662 Q571 681 580 713 L629 713 Q613 658 581 627 Q549 596 509 596 Q489 596 472 604 Q455 612 428 638 Q408 657 397 663 Q386 669 375 669 Q351 669 331.5 650.5 Q312 632 300 597 L252 597 Q270 654 302.5 685.5 Q335 717 377 717 Q397 717 414 709 Q431 701 457 675 Z " />
<glyph glyph-name="abreve" unicode="&#x103;" horiz-adv-x="627" d="M483 163 L529 349 Q510 401 469.5 430 Q429 459 375 459 Q277 459 206 384 Q135 309 135 203 Q135 133 173 92 Q211 51 277 51 Q331 51 385.5 80.5 Q440 110 483 163 Z M443 0 L469 99 Q424 46 366.5 18 Q309 -10 244 -10 Q162 -10 112.5 44.5 Q63 99 63 189 Q63 326 155.5 423 Q248 520 375 520 Q436 520 479.5 493 Q523 466 544 416 L568 510 L637 510 L513 0 L443 0 Z M443 637 Q483 637 512 657.5 Q541 678 562 721 L611 721 Q589 660 542 625 Q495 590 432 590 Q370 590 339 625.5 Q308 661 316 721 L364 721 Q362 679 382 658 Q402 637 443 637 Z " />
<glyph glyph-name="amacron" unicode="&#x101;" horiz-adv-x="627" d="M483 163 L529 349 Q510 401 469.5 430 Q429 459 375 459 Q277 459 206 384 Q135 309 135 203 Q135 133 173 92 Q211 51 277 51 Q331 51 385.5 80.5 Q440 110 483 163 Z M443 0 L469 99 Q424 46 366.5 18 Q309 -10 244 -10 Q162 -10 112.5 44.5 Q63 99 63 189 Q63 326 155.5 423 Q248 520 375 520 Q436 520 479.5 493 Q523 466 544 416 L568 510 L637 510 L513 0 L443 0 Z M577 628 L288 628 L302 684 L591 684 L577 628 Z " />
<glyph glyph-name="aogonek" unicode="&#x105;" horiz-adv-x="627" d="M490 -138 L479 -182 Q454 -196 431.5 -202 Q409 -208 383 -208 Q345 -208 320 -189 Q295 -170 295 -140 Q295 -98 331.5 -61.5 Q368 -25 445 8 L469 99 Q424 46 366.5 18 Q309 -10 244 -10 Q162 -10 112.5 44.5 Q63 99 63 189 Q63 326 155.5 423 Q248 520 375 520 Q436 520 479.5 493 Q523 466 544 416 L568 510 L637 510 L513 0 L492 0 Q405 -44 379 -68.5 Q353 -93 353 -121 Q353 -142 367.5 -153 Q382 -164 408 -164 Q426 -164 448.5 -157 Q471 -150 490 -138 Z M483 163 L529 349 Q510 401 469.5 430 Q429 459 375 459 Q277 459 206 384 Q135 309 135 203 Q135 133 173 92 Q211 51 277 51 Q331 51 385.5 80.5 Q440 110 483 163 Z " />
<glyph glyph-name="ccedilla" unicode="&#xe7;" horiz-adv-x="504" d="M335 -111 Q335 -152 301 -178 Q267 -204 215 -204 Q189 -204 169.5 -199.5 Q150 -195 132 -184 L141 -142 Q162 -154 179.5 -158.5 Q197 -163 219 -163 Q249 -163 265.5 -151.5 Q282 -140 282 -119 Q282 -105 270.5 -97.5 Q259 -90 238 -90 L193 -90 L230 -8 Q151 2 106.5 55 Q62 108 62 190 Q62 328 155.5 424 Q249 520 382 520 Q432 520 471 506.5 Q510 493 535 466 L520 401 Q497 428 460 443.5 Q423 459 378 459 Q276 459 205 384 Q134 309 134 202 Q134 131 175 90.5 Q216 50 288 50 Q331 50 369 62.5 Q407 75 452 105 L436 40 Q399 15 356 2.5 Q313 -10 267 -10 L245 -57 L262 -57 Q297 -57 316 -71 Q335 -85 335 -111 Z " />
<glyph glyph-name="cacute" unicode="&#x107;" horiz-adv-x="504" d="M378 459 Q276 459 205 384 Q134 309 134 202 Q134 131 175 90.5 Q216 50 288 50 Q331 50 369 62.5 Q407 75 452 105 L436 40 Q399 15 356 2.5 Q313 -10 267 -10 Q172 -10 117 44 Q62 98 62 190 Q62 328 155.5 424 Q249 520 382 520 Q432 520 471 506.5 Q510 493 535 466 L520 401 Q497 428 460 443.5 Q423 459 378 459 Z M369 588 L306 588 L439 723 L521 723 L369 588 Z " />
<glyph glyph-name="ccaron" unicode="&#x10d;" horiz-adv-x="504" d="M378 459 Q276 459 205 384 Q134 309 134 202 Q134 131 175 90.5 Q216 50 288 50 Q331 50 369 62.5 Q407 75 452 105 L436 40 Q399 15 356 2.5 Q313 -10 267 -10 Q172 -10 117 44 Q62 98 62 190 Q62 328 155.5 424 Q249 520 382 520 Q432 520 471 506.5 Q510 493 535 466 L520 401 Q497 428 460 443.5 Q423 459 378 459 Z M397 588 L323 588 L245 723 L301 723 L366 625 L481 723 L545 723 L397 588 Z " />
<glyph glyph-name="ccircumflex" unicode="&#x109;" horiz-adv-x="504" d="M378 459 Q276 459 205 384 Q134 309 134 202 Q134 131 175 90.5 Q216 50 288 50 Q331 50 369 62.5 Q407 75 452 105 L436 40 Q399 15 356 2.5 Q313 -10 267 -10 Q172 -10 117 44 Q62 98 62 190 Q62 328 155.5 424 Q249 520 382 520 Q432 520 471 506.5 Q510 493 535 466 L520 401 Q497 428 460 443.5 Q423 459 378 459 Z M508 588 L451 588 L385 686 L270 588 L210 588 L356 723 L430 723 L508 588 Z " />
<glyph glyph-name="cdotaccent" unicode="&#x10b;" horiz-adv-x="504" d="M378 459 Q276 459 205 384 Q134 309 134 202 Q134 131 175 90.5 Q216 50 288 50 Q331 50 369 62.5 Q407 75 452 105 L436 40 Q399 15 356 2.5 Q313 -10 267 -10 Q172 -10 117 44 Q62 98 62 190 Q62 328 155.5 424 Q249 520 382 520 Q432 520 471 506.5 Q510 493 535 466 L520 401 Q497 428 460 443.5 Q423 459 378 459 Z M359 726 L429 726 L397 597 L327 597 L359 726 Z " />
<glyph glyph-name="dcaron" unicode="&#x10f;" horiz-adv-x="681" d="M484 166 L528 345 Q511 399 469 429 Q427 459 370 459 Q275 459 205 384 Q135 309 135 203 Q135 133 173 92 Q211 51 277 51 Q331 51 386 81.5 Q441 112 484 166 Z M443 0 L469 99 Q426 46 367.5 18 Q309 -10 244 -10 Q162 -10 112.5 44.5 Q63 99 63 189 Q63 253 85.5 312 Q108 371 150 418 Q194 467 251.5 493.5 Q309 520 370 520 Q432 520 478 492 Q524 464 544 415 L620 727 L693 740 L513 0 L443 0 Z M734 612 L757 710 L834 710 L817 641 Q807 600 784 568.5 Q761 537 724 515 L710 531 Q730 547 745 568 Q760 589 767 612 L734 612 Z " />
<glyph glyph-name="dslash" unicode="&#x111;" horiz-adv-x="630" d="M484 166 L528 345 Q511 399 469 429 Q427 459 370 459 Q275 459 205 384 Q135 309 135 203 Q135 133 173 92 Q211 51 277 51 Q331 51 386 81.5 Q441 112 484 166 Z M443 0 L469 99 Q426 46 367.5 18 Q309 -10 244 -10 Q162 -10 112.5 44.5 Q63 99 63 189 Q63 253 85.5 312 Q108 371 150 418 Q194 467 251.5 493.5 Q309 520 370 520 Q432 520 478 492 Q524 464 544 415 L589 601 L397 601 L407 645 L600 645 L620 727 L693 740 L670 645 L726 645 L715 601 L659 601 L513 0 L443 0 Z " />
<glyph glyph-name="eacute" unicode="&#xe9;" horiz-adv-x="558" d="M495 343 Q495 399 461.5 430.5 Q428 462 370 462 Q295 462 232.5 414.5 Q170 367 146 291 L489 291 Q492 302 493.5 315 Q495 328 495 343 Z M465 95 L450 32 Q418 12 373 1 Q328 -10 282 -10 Q183 -10 124 47.5 Q65 105 65 201 Q65 336 157 428 Q249 520 381 520 Q465 520 514 472 Q563 424 562 344 Q562 320 556.5 292.5 Q551 265 541 241 L136 241 Q135 229 134.5 222.5 Q134 216 134 211 Q134 136 178.5 92.5 Q223 49 298 49 Q340 49 385.5 61.5 Q431 74 465 95 Z M392 588 L329 588 L462 723 L544 723 L392 588 Z " />
<glyph glyph-name="ecircumflex" unicode="&#xea;" horiz-adv-x="558" d="M495 343 Q495 399 461.5 430.5 Q428 462 370 462 Q295 462 232.5 414.5 Q170 367 146 291 L489 291 Q492 302 493.5 315 Q495 328 495 343 Z M465 95 L450 32 Q418 12 373 1 Q328 -10 282 -10 Q183 -10 124 47.5 Q65 105 65 201 Q65 336 157 428 Q249 520 381 520 Q465 520 514 472 Q563 424 562 344 Q562 320 556.5 292.5 Q551 265 541 241 L136 241 Q135 229 134.5 222.5 Q134 216 134 211 Q134 136 178.5 92.5 Q223 49 298 49 Q340 49 385.5 61.5 Q431 74 465 95 Z M535 588 L478 588 L412 686 L297 588 L237 588 L383 723 L457 723 L535 588 Z " />
<glyph glyph-name="edieresis" unicode="&#xeb;" horiz-adv-x="558" d="M495 343 Q495 399 461.5 430.5 Q428 462 370 462 Q295 462 232.5 414.5 Q170 367 146 291 L489 291 Q492 302 493.5 315 Q495 328 495 343 Z M465 95 L450 32 Q418 12 373 1 Q328 -10 282 -10 Q183 -10 124 47.5 Q65 105 65 201 Q65 336 157 428 Q249 520 381 520 Q465 520 514 472 Q563 424 562 344 Q562 320 556.5 292.5 Q551 265 541 241 L136 241 Q135 229 134.5 222.5 Q134 216 134 211 Q134 136 178.5 92.5 Q223 49 298 49 Q340 49 385.5 61.5 Q431 74 465 95 Z M497 597 L436 597 L468 726 L530 726 L497 597 Z M332 597 L271 597 L303 726 L364 726 L332 597 Z " />
<glyph glyph-name="egrave" unicode="&#xe8;" horiz-adv-x="558" d="M495 343 Q495 399 461.5 430.5 Q428 462 370 462 Q295 462 232.5 414.5 Q170 367 146 291 L489 291 Q492 302 493.5 315 Q495 328 495 343 Z M465 95 L450 32 Q418 12 373 1 Q328 -10 282 -10 Q183 -10 124 47.5 Q65 105 65 201 Q65 336 157 428 Q249 520 381 520 Q465 520 514 472 Q563 424 562 344 Q562 320 556.5 292.5 Q551 265 541 241 L136 241 Q135 229 134.5 222.5 Q134 216 134 211 Q134 136 178.5 92.5 Q223 49 298 49 Q340 49 385.5 61.5 Q431 74 465 95 Z M294 723 L374 723 L443 588 L380 588 L294 723 Z " />
<glyph glyph-name="ebreve" unicode="&#x115;" horiz-adv-x="558" d="M495 343 Q495 399 461.5 430.5 Q428 462 370 462 Q295 462 232.5 414.5 Q170 367 146 291 L489 291 Q492 302 493.5 315 Q495 328 495 343 Z M465 95 L450 32 Q418 12 373 1 Q328 -10 282 -10 Q183 -10 124 47.5 Q65 105 65 201 Q65 336 157 428 Q249 520 381 520 Q465 520 514 472 Q563 424 562 344 Q562 320 556.5 292.5 Q551 265 541 241 L136 241 Q135 229 134.5 222.5 Q134 216 134 211 Q134 136 178.5 92.5 Q223 49 298 49 Q340 49 385.5 61.5 Q431 74 465 95 Z M407 637 Q447 637 476 657.5 Q505 678 526 721 L575 721 Q553 660 506 625 Q459 590 396 590 Q334 590 303 625.5 Q272 661 280 721 L328 721 Q326 679 346 658 Q366 637 407 637 Z " />
<glyph glyph-name="ecaron" unicode="&#x11b;" horiz-adv-x="558" d="M495 343 Q495 399 461.5 430.5 Q428 462 370 462 Q295 462 232.5 414.5 Q170 367 146 291 L489 291 Q492 302 493.5 315 Q495 328 495 343 Z M465 95 L450 32 Q418 12 373 1 Q328 -10 282 -10 Q183 -10 124 47.5 Q65 105 65 201 Q65 336 157 428 Q249 520 381 520 Q465 520 514 472 Q563 424 562 344 Q562 320 556.5 292.5 Q551 265 541 241 L136 241 Q135 229 134.5 222.5 Q134 216 134 211 Q134 136 178.5 92.5 Q223 49 298 49 Q340 49 385.5 61.5 Q431 74 465 95 Z M424 588 L350 588 L272 723 L328 723 L393 625 L508 723 L572 723 L424 588 Z " />
<glyph glyph-name="edotaccent" unicode="&#x117;" horiz-adv-x="558" d="M495 343 Q495 399 461.5 430.5 Q428 462 370 462 Q295 462 232.5 414.5 Q170 367 146 291 L489 291 Q492 302 493.5 315 Q495 328 495 343 Z M465 95 L450 32 Q418 12 373 1 Q328 -10 282 -10 Q183 -10 124 47.5 Q65 105 65 201 Q65 336 157 428 Q249 520 381 520 Q465 520 514 472 Q563 424 562 344 Q562 320 556.5 292.5 Q551 265 541 241 L136 241 Q135 229 134.5 222.5 Q134 216 134 211 Q134 136 178.5 92.5 Q223 49 298 49 Q340 49 385.5 61.5 Q431 74 465 95 Z M381 726 L451 726 L419 597 L349 597 L381 726 Z " />
<glyph glyph-name="emacron" unicode="&#x113;" horiz-adv-x="558" d="M495 343 Q495 399 461.5 430.5 Q428 462 370 462 Q295 462 232.5 414.5 Q170 367 146 291 L489 291 Q492 302 493.5 315 Q495 328 495 343 Z M465 95 L450 32 Q418 12 373 1 Q328 -10 282 -10 Q183 -10 124 47.5 Q65 105 65 201 Q65 336 157 428 Q249 520 381 520 Q465 520 514 472 Q563 424 562 344 Q562 320 556.5 292.5 Q551 265 541 241 L136 241 Q135 229 134.5 222.5 Q134 216 134 211 Q134 136 178.5 92.5 Q223 49 298 49 Q340 49 385.5 61.5 Q431 74 465 95 Z M541 628 L252 628 L266 684 L555 684 L541 628 Z " />
<glyph glyph-name="eogonek" unicode="&#x119;" horiz-adv-x="558" d="M360 -138 L349 -182 Q323 -196 301 -202 Q279 -208 253 -208 Q214 -208 189 -189 Q164 -170 164 -140 Q164 -103 192.5 -71.5 Q221 -40 283 -10 Q183 -10 124 47.5 Q65 105 65 201 Q65 336 157 428 Q249 520 381 520 Q465 520 514 472 Q563 424 562 344 Q562 320 556.5 292.5 Q551 265 541 241 L136 241 Q135 229 134.5 222.5 Q134 216 134 211 Q134 136 178.5 92.5 Q223 49 298 49 Q340 49 385.5 61.5 Q431 74 465 95 L450 32 Q430 20 404.5 11 Q379 2 347 -4 Q278 -39 250.5 -65.5 Q223 -92 223 -121 Q223 -142 237 -153 Q251 -164 277 -164 Q296 -164 318 -157 Q340 -150 360 -138 Z M495 343 Q495 399 461.5 430.5 Q428 462 370 462 Q295 462 232.5 414.5 Q170 367 146 291 L489 291 Q492 302 493.5 315 Q495 328 495 343 Z " />
<glyph glyph-name="gbreve" unicode="&#x11f;" horiz-adv-x="626" d="M484 164 L528 347 Q511 399 470 429 Q429 459 374 459 Q277 459 206 384.5 Q135 310 135 203 Q135 132 173 91.5 Q211 51 277 51 Q331 51 384 80 Q437 109 484 164 Z M450 25 L469 99 Q425 47 367.5 18.5 Q310 -10 248 -10 Q164 -10 113.5 44 Q63 98 63 188 Q63 326 155 423 Q247 520 375 520 Q436 520 480 492.5 Q524 465 544 415 L568 510 L636 510 L521 34 Q492 -83 410.5 -149.5 Q329 -216 215 -216 Q185 -216 156.5 -210 Q128 -204 112 -194 L126 -134 Q146 -144 173 -150 Q200 -156 225 -156 Q305 -156 366.5 -107 Q428 -58 450 25 Z M437 637 Q477 637 506 657.5 Q535 678 556 721 L605 721 Q583 660 536 625 Q489 590 426 590 Q364 590 333 625.5 Q302 661 310 721 L358 721 Q356 679 376 658 Q396 637 437 637 Z " />
<glyph glyph-name="gcircumflex" unicode="&#x11d;" horiz-adv-x="626" d="M484 164 L528 347 Q511 399 470 429 Q429 459 374 459 Q277 459 206 384.5 Q135 310 135 203 Q135 132 173 91.5 Q211 51 277 51 Q331 51 384 80 Q437 109 484 164 Z M450 25 L469 99 Q425 47 367.5 18.5 Q310 -10 248 -10 Q164 -10 113.5 44 Q63 98 63 188 Q63 326 155 423 Q247 520 375 520 Q436 520 480 492.5 Q524 465 544 415 L568 510 L636 510 L521 34 Q492 -83 410.5 -149.5 Q329 -216 215 -216 Q185 -216 156.5 -210 Q128 -204 112 -194 L126 -134 Q146 -144 173 -150 Q200 -156 225 -156 Q305 -156 366.5 -107 Q428 -58 450 25 Z M561 588 L504 588 L438 686 L323 588 L263 588 L409 723 L483 723 L561 588 Z " />
<glyph glyph-name="gcommaaccent" unicode="&#x123;" horiz-adv-x="626" d="M484 164 L528 347 Q511 399 470 429 Q429 459 374 459 Q277 459 206 384.5 Q135 310 135 203 Q135 132 173 91.5 Q211 51 277 51 Q331 51 384 80 Q437 109 484 164 Z M450 25 L469 99 Q425 47 367.5 18.5 Q310 -10 248 -10 Q164 -10 113.5 44 Q63 98 63 188 Q63 326 155 423 Q247 520 375 520 Q436 520 480 492.5 Q524 465 544 415 L568 510 L636 510 L521 34 Q492 -83 410.5 -149.5 Q329 -216 215 -216 Q185 -216 156.5 -210 Q128 -204 112 -194 L126 -134 Q146 -144 173 -150 Q200 -156 225 -156 Q305 -156 366.5 -107 Q428 -58 450 25 Z M460 678 L438 587 L361 587 L376 649 Q385 687 408 716 Q431 745 467 765 L480 749 Q461 736 446.5 717 Q432 698 426 678 L460 678 Z " />
<glyph glyph-name="gdotaccent" unicode="&#x121;" horiz-adv-x="626" d="M484 164 L528 347 Q511 399 470 429 Q429 459 374 459 Q277 459 206 384.5 Q135 310 135 203 Q135 132 173 91.5 Q211 51 277 51 Q331 51 384 80 Q437 109 484 164 Z M450 25 L469 99 Q425 47 367.5 18.5 Q310 -10 248 -10 Q164 -10 113.5 44 Q63 98 63 188 Q63 326 155 423 Q247 520 375 520 Q436 520 480 492.5 Q524 465 544 415 L568 510 L636 510 L521 34 Q492 -83 410.5 -149.5 Q329 -216 215 -216 Q185 -216 156.5 -210 Q128 -204 112 -194 L126 -134 Q146 -144 173 -150 Q200 -156 225 -156 Q305 -156 366.5 -107 Q428 -58 450 25 Z M393 726 L463 726 L431 597 L361 597 L393 726 Z " />
<glyph glyph-name="hbar" unicode="&#x127;" horiz-adv-x="593" d="M400 458 Q348 458 293 429 Q238 400 201 354 L114 0 L45 0 L191 601 L135 601 L146 645 L202 645 L222 727 L295 740 L271 645 L464 645 L454 601 L261 601 L214 413 Q256 462 314 491 Q372 520 434 520 Q502 520 537 488.5 Q572 457 572 396 Q572 379 569.5 360.5 Q567 342 562 323 L483 0 L414 0 L492 317 Q496 334 497.5 345.5 Q499 357 499 367 Q499 412 474 435 Q449 458 400 458 Z " />
<glyph glyph-name="hcircumflex" unicode="&#x125;" horiz-adv-x="593" d="M546 776 L489 776 L423 875 L306 776 L248 776 L394 911 L467 911 L546 776 Z M222 727 L295 740 L214 413 Q256 462 314 491 Q372 520 434 520 Q502 520 537 488.5 Q572 457 572 396 Q572 379 569.5 360.5 Q567 342 562 323 L483 0 L414 0 L492 317 Q496 334 497.5 345.5 Q499 357 499 367 Q499 412 474 435 Q449 458 400 458 Q348 458 293 429 Q238 400 201 354 L114 0 L45 0 L222 727 Z " />
<glyph glyph-name="iacute" unicode="&#xed;" horiz-adv-x="229" d="M171 510 L240 510 L116 0 L46 0 L171 510 Z M238 588 L175 588 L308 723 L390 723 L238 588 Z " />
<glyph glyph-name="icircumflex" unicode="&#xee;" horiz-adv-x="229" d="M171 510 L240 510 L116 0 L46 0 L171 510 Z M375 588 L318 588 L252 686 L137 588 L77 588 L223 723 L297 723 L375 588 Z " />
<glyph glyph-name="idieresis" unicode="&#xef;" horiz-adv-x="229" d="M171 510 L240 510 L116 0 L46 0 L171 510 Z M342 597 L281 597 L313 726 L375 726 L342 597 Z M177 597 L116 597 L148 726 L209 726 L177 597 Z " />
<glyph glyph-name="igrave" unicode="&#xec;" horiz-adv-x="229" d="M171 510 L240 510 L116 0 L46 0 L171 510 Z M137 723 L217 723 L286 588 L223 588 L137 723 Z " />
<glyph glyph-name="ibreve" unicode="&#x12d;" horiz-adv-x="229" d="M171 510 L240 510 L116 0 L46 0 L171 510 Z M247 637 Q287 637 316 657.5 Q345 678 366 721 L415 721 Q393 660 346 625 Q299 590 236 590 Q174 590 143 625.5 Q112 661 120 721 L168 721 Q166 679 186 658 Q206 637 247 637 Z " />
<glyph glyph-name="i.dot" unicode="&#xe166;" horiz-adv-x="229" d="M224 726 L293 726 L261 597 L192 597 L224 726 Z M171 510 L240 510 L116 0 L46 0 L171 510 Z " />
<glyph glyph-name="imacron" unicode="&#x12b;" horiz-adv-x="229" d="M171 510 L240 510 L116 0 L46 0 L171 510 Z M381 628 L92 628 L106 684 L395 684 L381 628 Z " />
<glyph glyph-name="iogonek" unicode="&#x12f;" horiz-adv-x="229" d="M223 726 L292 726 L260 597 L191 597 L223 726 Z M104 -138 L93 -182 Q69 -196 46.5 -202 Q24 -208 -2 -208 Q-40 -208 -65 -189 Q-90 -170 -90 -140 Q-90 -98 -56.5 -61.5 Q-23 -25 48 8 L171 510 L240 510 L116 0 L95 0 Q19 -40 -6.5 -65.5 Q-32 -91 -32 -121 Q-32 -142 -18 -153 Q-4 -164 22 -164 Q40 -164 62.5 -157 Q85 -150 104 -138 Z " />
<glyph glyph-name="itilde" unicode="&#x129;" horiz-adv-x="229" d="M171 510 L240 510 L116 0 L46 0 L171 510 Z M261 675 Q281 655 292.5 649 Q304 643 316 643 Q338 643 356.5 662 Q375 681 384 713 L433 713 Q417 658 385 627 Q353 596 313 596 Q293 596 276 604 Q259 612 232 638 Q212 657 201 663 Q190 669 179 669 Q155 669 135.5 650.5 Q116 632 104 597 L56 597 Q74 654 106.5 685.5 Q139 717 181 717 Q201 717 218 709 Q235 701 261 675 Z " />
<glyph glyph-name="jcircumflex" unicode="&#x135;" horiz-adv-x="238" d="M-66 -156 Q-24 -156 2.5 -128.5 Q29 -101 43 -44 L178 510 L247 510 L113 -41 Q92 -129 48 -172.5 Q4 -216 -64 -216 Q-76 -216 -88.5 -214.5 Q-101 -213 -112 -211 L-98 -153 Q-88 -155 -81 -155.5 Q-74 -156 -66 -156 Z M379 588 L322 588 L256 686 L141 588 L81 588 L227 723 L301 723 L379 588 Z " />
<glyph glyph-name="ij" unicode="&#x133;" horiz-adv-x="449" d="M224 726 L293 726 L261 597 L192 597 L224 726 Z M171 510 L240 510 L116 0 L46 0 L171 510 Z M478 597 L409 597 L441 726 L509 726 L478 597 Z M144 -156 Q186 -156 212.5 -128.5 Q239 -101 253 -44 L388 510 L457 510 L323 -41 Q302 -129 258 -172.5 Q214 -216 146 -216 Q134 -216 121.5 -214.5 Q109 -213 98 -211 L112 -153 Q122 -155 129 -155.5 Q136 -156 144 -156 Z " />
<glyph glyph-name="kcommaaccent" unicode="&#x137;" horiz-adv-x="526" d="M474 0 L396 0 L248 240 L155 163 L115 0 L46 0 L223 727 L295 740 L175 247 L484 510 L572 510 L301 285 L474 0 Z M178 -160 L202 -62 L278 -62 L262 -131 Q253 -169 230.5 -196.5 Q208 -224 173 -240 L159 -224 Q179 -211 192.5 -195 Q206 -179 212 -160 L178 -160 Z " />
<glyph glyph-name="lacute" unicode="&#x13a;" horiz-adv-x="229" d="M285 781 L221 781 L356 916 L435 916 L285 781 Z M295 740 L115 0 L46 0 L223 727 L295 740 Z " />
<glyph glyph-name="lcaron" unicode="&#x13e;" horiz-adv-x="283" d="M295 740 L115 0 L46 0 L223 727 L295 740 Z M335 612 L358 710 L435 710 L418 641 Q408 600 385 568.5 Q362 537 325 515 L311 531 Q331 547 346 568 Q361 589 368 612 L335 612 Z " />
<glyph glyph-name="lcommaaccent" unicode="&#x13c;" horiz-adv-x="229" d="M295 740 L115 0 L46 0 L223 727 L295 740 Z M10 -160 L34 -62 L110 -62 L94 -131 Q85 -169 62.5 -196.5 Q40 -224 5 -240 L-9 -224 Q11 -211 24.5 -195 Q38 -179 44 -160 L10 -160 Z " />
<glyph glyph-name="ldot" unicode="&#x140;" horiz-adv-x="292" d="M295 740 L115 0 L46 0 L223 727 L295 740 Z M258 300 L284 405 L365 405 L341 300 L258 300 Z " />
<glyph glyph-name="ntilde" unicode="&#xf1;" horiz-adv-x="593" d="M170 510 L236 510 L211 410 Q257 463 314 491.5 Q371 520 433 520 Q502 520 537.5 489 Q573 458 573 398 Q573 380 570.5 361.5 Q568 343 563 323 L484 0 L415 0 L492 317 Q495 331 497 344.5 Q499 358 499 371 Q499 414 473.5 436 Q448 458 399 458 Q347 458 293.5 429 Q240 400 201 353 L115 0 L46 0 L170 510 Z M442 675 Q462 655 473.5 649 Q485 643 497 643 Q519 643 537.5 662 Q556 681 565 713 L614 713 Q598 658 566 627 Q534 596 494 596 Q474 596 457 604 Q440 612 413 638 Q393 657 382 663 Q371 669 360 669 Q336 669 316.5 650.5 Q297 632 285 597 L237 597 Q255 654 287.5 685.5 Q320 717 362 717 Q382 717 399 709 Q416 701 442 675 Z " />
<glyph glyph-name="nacute" unicode="&#x144;" horiz-adv-x="593" d="M170 510 L236 510 L211 410 Q257 463 314 491.5 Q371 520 433 520 Q502 520 537.5 489 Q573 458 573 398 Q573 380 570.5 361.5 Q568 343 563 323 L484 0 L415 0 L492 317 Q495 331 497 344.5 Q499 358 499 371 Q499 414 473.5 436 Q448 458 399 458 Q347 458 293.5 429 Q240 400 201 353 L115 0 L46 0 L170 510 Z M399 588 L336 588 L469 723 L551 723 L399 588 Z " />
<glyph glyph-name="ncaron" unicode="&#x148;" horiz-adv-x="593" d="M170 510 L236 510 L211 410 Q257 463 314 491.5 Q371 520 433 520 Q502 520 537.5 489 Q573 458 573 398 Q573 380 570.5 361.5 Q568 343 563 323 L484 0 L415 0 L492 317 Q495 331 497 344.5 Q499 358 499 371 Q499 414 473.5 436 Q448 458 399 458 Q347 458 293.5 429 Q240 400 201 353 L115 0 L46 0 L170 510 Z M445 588 L371 588 L293 723 L349 723 L414 625 L529 723 L593 723 L445 588 Z " />
<glyph glyph-name="ncommaaccent" unicode="&#x146;" horiz-adv-x="593" d="M170 510 L236 510 L211 410 Q257 463 314 491.5 Q371 520 433 520 Q502 520 537.5 489 Q573 458 573 398 Q573 380 570.5 361.5 Q568 343 563 323 L484 0 L415 0 L492 317 Q495 331 497 344.5 Q499 358 499 371 Q499 414 473.5 436 Q448 458 399 458 Q347 458 293.5 429 Q240 400 201 353 L115 0 L46 0 L170 510 Z M193 -160 L217 -62 L293 -62 L277 -131 Q268 -169 245.5 -196.5 Q223 -224 188 -240 L174 -224 Q194 -211 207.5 -195 Q221 -179 227 -160 L193 -160 Z " />
<glyph glyph-name="oacute" unicode="&#xf3;" horiz-adv-x="602" d="M390 520 Q481 520 538 463 Q595 406 595 315 Q595 250 569.5 191 Q544 132 497 86 Q450 40 390 15 Q330 -10 267 -10 Q177 -10 120.5 47 Q64 104 64 194 Q64 259 89 318 Q114 377 161 423 Q207 469 267 494.5 Q327 520 390 520 Z M280 50 Q376 50 449.5 125 Q523 200 523 304 Q523 374 483.5 417 Q444 460 378 460 Q282 460 208.5 384 Q135 308 135 206 Q135 135 174.5 92.5 Q214 50 280 50 Z M410 588 L347 588 L480 723 L562 723 L410 588 Z " />
<glyph glyph-name="ocircumflex" unicode="&#xf4;" horiz-adv-x="602" d="M390 520 Q481 520 538 463 Q595 406 595 315 Q595 250 569.5 191 Q544 132 497 86 Q450 40 390 15 Q330 -10 267 -10 Q177 -10 120.5 47 Q64 104 64 194 Q64 259 89 318 Q114 377 161 423 Q207 469 267 494.5 Q327 520 390 520 Z M280 50 Q376 50 449.5 125 Q523 200 523 304 Q523 374 483.5 417 Q444 460 378 460 Q282 460 208.5 384 Q135 308 135 206 Q135 135 174.5 92.5 Q214 50 280 50 Z M557 588 L500 588 L434 686 L319 588 L259 588 L405 723 L479 723 L557 588 Z " />
<glyph glyph-name="odieresis" unicode="&#xf6;" horiz-adv-x="602" d="M390 520 Q481 520 538 463 Q595 406 595 315 Q595 250 569.5 191 Q544 132 497 86 Q450 40 390 15 Q330 -10 267 -10 Q177 -10 120.5 47 Q64 104 64 194 Q64 259 89 318 Q114 377 161 423 Q207 469 267 494.5 Q327 520 390 520 Z M280 50 Q376 50 449.5 125 Q523 200 523 304 Q523 374 483.5 417 Q444 460 378 460 Q282 460 208.5 384 Q135 308 135 206 Q135 135 174.5 92.5 Q214 50 280 50 Z M524 597 L463 597 L495 726 L557 726 L524 597 Z M359 597 L298 597 L330 726 L391 726 L359 597 Z " />
<glyph glyph-name="ograve" unicode="&#xf2;" horiz-adv-x="602" d="M390 520 Q481 520 538 463 Q595 406 595 315 Q595 250 569.5 191 Q544 132 497 86 Q450 40 390 15 Q330 -10 267 -10 Q177 -10 120.5 47 Q64 104 64 194 Q64 259 89 318 Q114 377 161 423 Q207 469 267 494.5 Q327 520 390 520 Z M280 50 Q376 50 449.5 125 Q523 200 523 304 Q523 374 483.5 417 Q444 460 378 460 Q282 460 208.5 384 Q135 308 135 206 Q135 135 174.5 92.5 Q214 50 280 50 Z M324 723 L404 723 L473 588 L410 588 L324 723 Z " />
<glyph glyph-name="otilde" unicode="&#xf5;" horiz-adv-x="602" d="M390 520 Q481 520 538 463 Q595 406 595 315 Q595 250 569.5 191 Q544 132 497 86 Q450 40 390 15 Q330 -10 267 -10 Q177 -10 120.5 47 Q64 104 64 194 Q64 259 89 318 Q114 377 161 423 Q207 469 267 494.5 Q327 520 390 520 Z M280 50 Q376 50 449.5 125 Q523 200 523 304 Q523 374 483.5 417 Q444 460 378 460 Q282 460 208.5 384 Q135 308 135 206 Q135 135 174.5 92.5 Q214 50 280 50 Z M443 675 Q463 655 474.5 649 Q486 643 498 643 Q520 643 538.5 662 Q557 681 566 713 L615 713 Q599 658 567 627 Q535 596 495 596 Q475 596 458 604 Q441 612 414 638 Q394 657 383 663 Q372 669 361 669 Q337 669 317.5 650.5 Q298 632 286 597 L238 597 Q256 654 288.5 685.5 Q321 717 363 717 Q383 717 400 709 Q417 701 443 675 Z " />
<glyph glyph-name="obreve" unicode="&#x14f;" horiz-adv-x="602" d="M390 520 Q481 520 538 463 Q595 406 595 315 Q595 250 569.5 191 Q544 132 497 86 Q450 40 390 15 Q330 -10 267 -10 Q177 -10 120.5 47 Q64 104 64 194 Q64 259 89 318 Q114 377 161 423 Q207 469 267 494.5 Q327 520 390 520 Z M280 50 Q376 50 449.5 125 Q523 200 523 304 Q523 374 483.5 417 Q444 460 378 460 Q282 460 208.5 384 Q135 308 135 206 Q135 135 174.5 92.5 Q214 50 280 50 Z M429 637 Q469 637 498 657.5 Q527 678 548 721 L597 721 Q575 660 528 625 Q481 590 418 590 Q356 590 325 625.5 Q294 661 302 721 L350 721 Q348 679 368 658 Q388 637 429 637 Z " />
<glyph glyph-name="ohungarumlaut" unicode="&#x151;" horiz-adv-x="602" d="M390 520 Q481 520 538 463 Q595 406 595 315 Q595 250 569.5 191 Q544 132 497 86 Q450 40 390 15 Q330 -10 267 -10 Q177 -10 120.5 47 Q64 104 64 194 Q64 259 89 318 Q114 377 161 423 Q207 469 267 494.5 Q327 520 390 520 Z M280 50 Q376 50 449.5 125 Q523 200 523 304 Q523 374 483.5 417 Q444 460 378 460 Q282 460 208.5 384 Q135 308 135 206 Q135 135 174.5 92.5 Q214 50 280 50 Z M487 588 L425 588 L556 723 L637 723 L487 588 Z M325 588 L263 588 L394 723 L475 723 L325 588 Z " />
<glyph glyph-name="omacron" unicode="&#x14d;" horiz-adv-x="602" d="M390 520 Q481 520 538 463 Q595 406 595 315 Q595 250 569.5 191 Q544 132 497 86 Q450 40 390 15 Q330 -10 267 -10 Q177 -10 120.5 47 Q64 104 64 194 Q64 259 89 318 Q114 377 161 423 Q207 469 267 494.5 Q327 520 390 520 Z M280 50 Q376 50 449.5 125 Q523 200 523 304 Q523 374 483.5 417 Q444 460 378 460 Q282 460 208.5 384 Q135 308 135 206 Q135 135 174.5 92.5 Q214 50 280 50 Z M563 628 L274 628 L288 684 L577 684 L563 628 Z " />
<glyph glyph-name="racute" unicode="&#x155;" horiz-adv-x="362" d="M375 520 Q390 520 403 517 Q416 514 426 508 L410 441 Q399 447 384.5 450.5 Q370 454 354 454 Q314 454 273 426 Q232 398 200 349 L115 0 L46 0 L170 510 L239 510 L214 410 Q246 463 287.5 491.5 Q329 520 375 520 Z M282 588 L219 588 L352 723 L434 723 L282 588 Z " />
<glyph glyph-name="rcaron" unicode="&#x159;" horiz-adv-x="362" d="M375 520 Q390 520 403 517 Q416 514 426 508 L410 441 Q399 447 384.5 450.5 Q370 454 354 454 Q314 454 273 426 Q232 398 200 349 L115 0 L46 0 L170 510 L239 510 L214 410 Q246 463 287.5 491.5 Q329 520 375 520 Z M339 588 L265 588 L187 723 L243 723 L308 625 L423 723 L487 723 L339 588 Z " />
<glyph glyph-name="rcommaaccent" unicode="&#x157;" horiz-adv-x="362" d="M375 520 Q390 520 403 517 Q416 514 426 508 L410 441 Q399 447 384.5 450.5 Q370 454 354 454 Q314 454 273 426 Q232 398 200 349 L115 0 L46 0 L170 510 L239 510 L214 410 Q246 463 287.5 491.5 Q329 520 375 520 Z M15 -160 L39 -62 L115 -62 L99 -131 Q90 -169 67.5 -196.5 Q45 -224 10 -240 L-4 -224 Q16 -211 29.5 -195 Q43 -179 49 -160 L15 -160 Z " />
<glyph glyph-name="scaron" unicode="&#x161;" horiz-adv-x="457" d="M313 461 Q252 461 212 436.5 Q172 412 172 373 Q172 350 189 335 Q206 320 284 289 Q364 258 393 228.5 Q422 199 422 155 Q422 79 357.5 34.5 Q293 -10 190 -10 Q139 -10 93 3 Q47 16 22 37 L39 103 Q68 78 111.5 63 Q155 48 203 48 Q268 48 308.5 73.5 Q349 99 349 143 Q349 171 328 189.5 Q307 208 230 239 Q155 269 126.5 296.5 Q98 324 98 363 Q98 432 162 476 Q226 520 321 520 Q364 520 401 510 Q438 500 472 480 L455 415 Q426 436 389 448.5 Q352 461 313 461 Z M357 588 L283 588 L205 723 L261 723 L326 625 L441 723 L505 723 L357 588 Z " />
<glyph glyph-name="sacute" unicode="&#x15b;" horiz-adv-x="457" d="M313 461 Q252 461 212 436.5 Q172 412 172 373 Q172 350 189 335 Q206 320 284 289 Q364 258 393 228.5 Q422 199 422 155 Q422 79 357.5 34.5 Q293 -10 190 -10 Q139 -10 93 3 Q47 16 22 37 L39 103 Q68 78 111.5 63 Q155 48 203 48 Q268 48 308.5 73.5 Q349 99 349 143 Q349 171 328 189.5 Q307 208 230 239 Q155 269 126.5 296.5 Q98 324 98 363 Q98 432 162 476 Q226 520 321 520 Q364 520 401 510 Q438 500 472 480 L455 415 Q426 436 389 448.5 Q352 461 313 461 Z M328 588 L265 588 L398 723 L480 723 L328 588 Z " />
<glyph glyph-name="scedilla" unicode="&#x15f;" horiz-adv-x="457" d="M274 -111 Q274 -152 240 -178 Q206 -204 154 -204 Q128 -204 108.5 -199.5 Q89 -195 71 -184 L80 -142 Q101 -154 118.5 -158.5 Q136 -163 158 -163 Q188 -163 204.5 -151.5 Q221 -140 221 -119 Q221 -105 209.5 -97.5 Q198 -90 177 -90 L132 -90 L169 -9 Q124 -7 84.5 5.5 Q45 18 22 37 L39 103 Q68 78 111.5 63 Q155 48 203 48 Q268 48 308.5 73.5 Q349 99 349 143 Q349 171 328 189.5 Q307 208 230 239 Q155 269 126.5 296.5 Q98 324 98 363 Q98 432 162 476 Q226 520 321 520 Q364 520 401 510 Q438 500 472 480 L455 415 Q426 436 389 448.5 Q352 461 313 461 Q252 461 212 436.5 Q172 412 172 373 Q172 350 189 335 Q206 320 284 289 Q364 258 393 228.5 Q422 199 422 155 Q422 82 363.5 38 Q305 -6 206 -10 L184 -57 L201 -57 Q236 -57 255 -71 Q274 -85 274 -111 Z " />
<glyph glyph-name="scircumflex" unicode="&#x15d;" horiz-adv-x="457" d="M313 461 Q252 461 212 436.5 Q172 412 172 373 Q172 350 189 335 Q206 320 284 289 Q364 258 393 228.5 Q422 199 422 155 Q422 79 357.5 34.5 Q293 -10 190 -10 Q139 -10 93 3 Q47 16 22 37 L39 103 Q68 78 111.5 63 Q155 48 203 48 Q268 48 308.5 73.5 Q349 99 349 143 Q349 171 328 189.5 Q307 208 230 239 Q155 269 126.5 296.5 Q98 324 98 363 Q98 432 162 476 Q226 520 321 520 Q364 520 401 510 Q438 500 472 480 L455 415 Q426 436 389 448.5 Q352 461 313 461 Z M485 588 L428 588 L362 686 L247 588 L187 588 L333 723 L407 723 L485 588 Z " />
<glyph glyph-name="uni0219" unicode="&#x219;" horiz-adv-x="457" d="M313 461 Q252 461 212 436.5 Q172 412 172 373 Q172 350 189 335 Q206 320 284 289 Q364 258 393 228.5 Q422 199 422 155 Q422 79 357.5 34.5 Q293 -10 190 -10 Q139 -10 93 3 Q47 16 22 37 L39 103 Q68 78 111.5 63 Q155 48 203 48 Q268 48 308.5 73.5 Q349 99 349 143 Q349 171 328 189.5 Q307 208 230 239 Q155 269 126.5 296.5 Q98 324 98 363 Q98 432 162 476 Q226 520 321 520 Q364 520 401 510 Q438 500 472 480 L455 415 Q426 436 389 448.5 Q352 461 313 461 Z M116 -160 L140 -62 L216 -62 L200 -131 Q191 -169 168.5 -196.5 Q146 -224 111 -240 L97 -224 Q117 -211 130.5 -195 Q144 -179 150 -160 L116 -160 Z " />
<glyph glyph-name="tbar" unicode="&#x167;" horiz-adv-x="342" d="M284 65 L268 3 Q246 -4 227 -7 Q208 -10 193 -10 Q137 -10 110 12.5 Q83 35 83 82 Q83 97 85 111.5 Q87 126 91 141 L124 277 L45 277 L58 329 L137 329 L168 457 L88 457 L101 510 L181 510 L210 631 L282 643 L250 510 L389 510 L376 458 L237 458 L206 329 L346 329 L334 277 L193 277 L162 149 Q159 135 157.5 125 Q156 115 157 107 Q158 80 173 67 Q188 54 219 54 Q234 54 249.5 56.5 Q265 59 284 65 Z " />
<glyph glyph-name="tcaron" unicode="&#x165;" horiz-adv-x="342" d="M284 65 L268 3 Q246 -4 227 -7 Q208 -10 193 -10 Q137 -10 110 12.5 Q83 35 83 82 Q83 97 85 111.5 Q87 126 91 141 L167 453 L87 453 L101 510 L181 510 L210 631 L282 643 L250 510 L389 510 L375 453 L236 453 L162 149 Q159 135 157.5 125 Q156 115 157 107 Q158 80 173 67 Q188 54 219 54 Q234 54 249.5 56.5 Q265 59 284 65 Z M338 652 L361 750 L438 750 L421 681 Q411 640 388 608.5 Q365 577 328 555 L314 571 Q334 587 349 608 Q364 629 371 652 L338 652 Z " />
<glyph glyph-name="uni0163" unicode="&#x163;" horiz-adv-x="342" d="M284 65 L268 3 Q246 -4 227 -7 Q208 -10 193 -10 Q137 -10 110 12.5 Q83 35 83 82 Q83 97 85 111.5 Q87 126 91 141 L167 453 L87 453 L101 510 L181 510 L210 631 L282 643 L250 510 L389 510 L375 453 L236 453 L162 149 Q159 135 157.5 125 Q156 115 157 107 Q158 80 173 67 Q188 54 219 54 Q234 54 249.5 56.5 Q265 59 284 65 Z M60 -160 L84 -62 L160 -62 L144 -131 Q135 -169 112.5 -196.5 Q90 -224 55 -240 L41 -224 Q61 -211 74.5 -195 Q88 -179 94 -160 L60 -160 Z " />
<glyph glyph-name="uni021B" unicode="&#x21b;" horiz-adv-x="342" d="M284 65 L268 3 Q246 -4 227 -7 Q208 -10 193 -10 Q137 -10 110 12.5 Q83 35 83 82 Q83 97 85 111.5 Q87 126 91 141 L167 453 L87 453 L101 510 L181 510 L210 631 L282 643 L250 510 L389 510 L375 453 L236 453 L162 149 Q159 135 157.5 125 Q156 115 157 107 Q158 80 173 67 Q188 54 219 54 Q234 54 249.5 56.5 Q265 59 284 65 Z M60 -160 L84 -62 L160 -62 L144 -131 Q135 -169 112.5 -196.5 Q90 -224 55 -240 L41 -224 Q61 -211 74.5 -195 Q88 -179 94 -160 L60 -160 Z " />
<glyph glyph-name="uacute" unicode="&#xfa;" horiz-adv-x="575" d="M461 0 L395 0 L421 103 Q376 49 321 19.5 Q266 -10 209 -10 Q142 -10 108 20 Q74 50 74 109 Q74 125 76.5 143 Q79 161 83 179 L164 510 L233 510 L154 187 Q151 173 149 159.5 Q147 146 147 133 Q147 93 171.5 72 Q196 51 244 51 Q291 51 339 79 Q387 107 431 159 L516 510 L585 510 L461 0 Z M408 588 L345 588 L478 723 L560 723 L408 588 Z " />
<glyph glyph-name="ucircumflex" unicode="&#xfb;" horiz-adv-x="575" d="M461 0 L395 0 L421 103 Q376 49 321 19.5 Q266 -10 209 -10 Q142 -10 108 20 Q74 50 74 109 Q74 125 76.5 143 Q79 161 83 179 L164 510 L233 510 L154 187 Q151 173 149 159.5 Q147 146 147 133 Q147 93 171.5 72 Q196 51 244 51 Q291 51 339 79 Q387 107 431 159 L516 510 L585 510 L461 0 Z M548 588 L491 588 L425 686 L310 588 L250 588 L396 723 L470 723 L548 588 Z " />
<glyph glyph-name="udieresis" unicode="&#xfc;" horiz-adv-x="575" d="M461 0 L395 0 L421 103 Q376 49 321 19.5 Q266 -10 209 -10 Q142 -10 108 20 Q74 50 74 109 Q74 125 76.5 143 Q79 161 83 179 L164 510 L233 510 L154 187 Q151 173 149 159.5 Q147 146 147 133 Q147 93 171.5 72 Q196 51 244 51 Q291 51 339 79 Q387 107 431 159 L516 510 L585 510 L461 0 Z M515 597 L454 597 L486 726 L548 726 L515 597 Z M350 597 L289 597 L321 726 L382 726 L350 597 Z " />
<glyph glyph-name="ugrave" unicode="&#xf9;" horiz-adv-x="575" d="M461 0 L395 0 L421 103 Q376 49 321 19.5 Q266 -10 209 -10 Q142 -10 108 20 Q74 50 74 109 Q74 125 76.5 143 Q79 161 83 179 L164 510 L233 510 L154 187 Q151 173 149 159.5 Q147 146 147 133 Q147 93 171.5 72 Q196 51 244 51 Q291 51 339 79 Q387 107 431 159 L516 510 L585 510 L461 0 Z M315 723 L395 723 L464 588 L401 588 L315 723 Z " />
<glyph glyph-name="ubreve" unicode="&#x16d;" horiz-adv-x="575" d="M461 0 L395 0 L421 103 Q376 49 321 19.5 Q266 -10 209 -10 Q142 -10 108 20 Q74 50 74 109 Q74 125 76.5 143 Q79 161 83 179 L164 510 L233 510 L154 187 Q151 173 149 159.5 Q147 146 147 133 Q147 93 171.5 72 Q196 51 244 51 Q291 51 339 79 Q387 107 431 159 L516 510 L585 510 L461 0 Z M420 637 Q460 637 489 657.5 Q518 678 539 721 L588 721 Q566 660 519 625 Q472 590 409 590 Q347 590 316 625.5 Q285 661 293 721 L341 721 Q339 679 359 658 Q379 637 420 637 Z " />
<glyph glyph-name="uhungarumlaut" unicode="&#x171;" horiz-adv-x="575" d="M461 0 L395 0 L421 103 Q376 49 321 19.5 Q266 -10 209 -10 Q142 -10 108 20 Q74 50 74 109 Q74 125 76.5 143 Q79 161 83 179 L164 510 L233 510 L154 187 Q151 173 149 159.5 Q147 146 147 133 Q147 93 171.5 72 Q196 51 244 51 Q291 51 339 79 Q387 107 431 159 L516 510 L585 510 L461 0 Z M485 588 L423 588 L554 723 L635 723 L485 588 Z M323 588 L261 588 L392 723 L473 723 L323 588 Z " />
<glyph glyph-name="umacron" unicode="&#x16b;" horiz-adv-x="575" d="M461 0 L395 0 L421 103 Q376 49 321 19.5 Q266 -10 209 -10 Q142 -10 108 20 Q74 50 74 109 Q74 125 76.5 143 Q79 161 83 179 L164 510 L233 510 L154 187 Q151 173 149 159.5 Q147 146 147 133 Q147 93 171.5 72 Q196 51 244 51 Q291 51 339 79 Q387 107 431 159 L516 510 L585 510 L461 0 Z M554 628 L265 628 L279 684 L568 684 L554 628 Z " />
<glyph glyph-name="uogonek" unicode="&#x173;" horiz-adv-x="575" d="M439 -138 L428 -182 Q402 -196 380 -202 Q358 -208 332 -208 Q293 -208 268 -189 Q243 -170 243 -140 Q243 -98 279.5 -62 Q316 -26 397 8 L422 105 Q376 50 321 20 Q266 -10 209 -10 Q142 -10 108 20 Q74 50 74 109 Q74 125 76.5 143 Q79 161 83 179 L164 510 L233 510 L154 187 Q151 173 149 159.5 Q147 146 147 133 Q147 93 171.5 72 Q196 51 244 51 Q291 51 339 79 Q387 107 431 159 L516 510 L585 510 L461 0 L438 0 Q354 -42 328 -67.5 Q302 -93 302 -121 Q302 -142 316 -153 Q330 -164 356 -164 Q375 -164 397 -157 Q419 -150 439 -138 Z " />
<glyph glyph-name="uring" unicode="&#x16f;" horiz-adv-x="575" d="M461 0 L395 0 L421 103 Q376 49 321 19.5 Q266 -10 209 -10 Q142 -10 108 20 Q74 50 74 109 Q74 125 76.5 143 Q79 161 83 179 L164 510 L233 510 L154 187 Q151 173 149 159.5 Q147 146 147 133 Q147 93 171.5 72 Q196 51 244 51 Q291 51 339 79 Q387 107 431 159 L516 510 L585 510 L461 0 Z M320 648 Q320 696 356.5 730.5 Q393 765 443 765 Q477 765 498 743.5 Q519 722 519 688 Q519 640 482.5 605 Q446 570 397 570 Q363 570 341.5 592 Q320 614 320 648 Z M363 655 Q363 635 375 623 Q387 611 407 611 Q435 611 455.5 632 Q476 653 476 682 Q476 701 464.5 713 Q453 725 434 725 Q405 725 384 704.5 Q363 684 363 655 Z " />
<glyph glyph-name="utilde" unicode="&#x169;" horiz-adv-x="575" d="M461 0 L395 0 L421 103 Q376 49 321 19.5 Q266 -10 209 -10 Q142 -10 108 20 Q74 50 74 109 Q74 125 76.5 143 Q79 161 83 179 L164 510 L233 510 L154 187 Q151 173 149 159.5 Q147 146 147 133 Q147 93 171.5 72 Q196 51 244 51 Q291 51 339 79 Q387 107 431 159 L516 510 L585 510 L461 0 Z M434 675 Q454 655 465.5 649 Q477 643 489 643 Q511 643 529.5 662 Q548 681 557 713 L606 713 Q590 658 558 627 Q526 596 486 596 Q466 596 449 604 Q432 612 405 638 Q385 657 374 663 Q363 669 352 669 Q328 669 308.5 650.5 Q289 632 277 597 L229 597 Q247 654 279.5 685.5 Q312 717 354 717 Q374 717 391 709 Q408 701 434 675 Z " />
<glyph glyph-name="wacute" unicode="&#x1e83;" horiz-adv-x="816" d="M893 510 L580 0 L508 0 L470 412 L234 0 L166 0 L104 510 L172 510 L222 74 L469 510 L526 510 L565 74 L823 510 L893 510 Z M524 588 L461 588 L594 723 L676 723 L524 588 Z " />
<glyph glyph-name="wcircumflex" unicode="&#x175;" horiz-adv-x="816" d="M893 510 L580 0 L508 0 L470 412 L234 0 L166 0 L104 510 L172 510 L222 74 L469 510 L526 510 L565 74 L823 510 L893 510 Z M664 588 L607 588 L541 686 L426 588 L366 588 L512 723 L586 723 L664 588 Z " />
<glyph glyph-name="wdieresis" unicode="&#x1e85;" horiz-adv-x="816" d="M893 510 L580 0 L508 0 L470 412 L234 0 L166 0 L104 510 L172 510 L222 74 L469 510 L526 510 L565 74 L823 510 L893 510 Z M631 597 L570 597 L602 726 L664 726 L631 597 Z M466 597 L405 597 L437 726 L498 726 L466 597 Z " />
<glyph glyph-name="wgrave" unicode="&#x1e81;" horiz-adv-x="816" d="M893 510 L580 0 L508 0 L470 412 L234 0 L166 0 L104 510 L172 510 L222 74 L469 510 L526 510 L565 74 L823 510 L893 510 Z M431 723 L511 723 L580 588 L517 588 L431 723 Z " />
<glyph glyph-name="yacute" unicode="&#xfd;" horiz-adv-x="529" d="M-9 -216 Q-19 -216 -29.5 -214.5 Q-40 -213 -49 -211 L-34 -151 Q-27 -153 -18 -154 Q-9 -155 0 -155 Q50 -155 100.5 -116.5 Q151 -78 202 0 L105 510 L174 510 L252 76 L536 510 L607 510 L265 -2 Q190 -115 124.5 -165.5 Q59 -216 -9 -216 Z M382 588 L319 588 L452 723 L534 723 L382 588 Z " />
<glyph glyph-name="ydieresis" unicode="&#xff;" horiz-adv-x="529" d="M-9 -216 Q-19 -216 -29.5 -214.5 Q-40 -213 -49 -211 L-34 -151 Q-27 -153 -18 -154 Q-9 -155 0 -155 Q50 -155 100.5 -116.5 Q151 -78 202 0 L105 510 L174 510 L252 76 L536 510 L607 510 L265 -2 Q190 -115 124.5 -165.5 Q59 -216 -9 -216 Z M488 597 L427 597 L459 726 L521 726 L488 597 Z M323 597 L262 597 L294 726 L355 726 L323 597 Z " />
<glyph glyph-name="ycircumflex" unicode="&#x177;" horiz-adv-x="529" d="M-9 -216 Q-19 -216 -29.5 -214.5 Q-40 -213 -49 -211 L-34 -151 Q-27 -153 -18 -154 Q-9 -155 0 -155 Q50 -155 100.5 -116.5 Q151 -78 202 0 L105 510 L174 510 L252 76 L536 510 L607 510 L265 -2 Q190 -115 124.5 -165.5 Q59 -216 -9 -216 Z M521 588 L464 588 L398 686 L283 588 L223 588 L369 723 L443 723 L521 588 Z " />
<glyph glyph-name="ygrave" unicode="&#x1ef3;" horiz-adv-x="529" d="M-9 -216 Q-19 -216 -29.5 -214.5 Q-40 -213 -49 -211 L-34 -151 Q-27 -153 -18 -154 Q-9 -155 0 -155 Q50 -155 100.5 -116.5 Q151 -78 202 0 L105 510 L174 510 L252 76 L536 510 L607 510 L265 -2 Q190 -115 124.5 -165.5 Q59 -216 -9 -216 Z M288 723 L368 723 L437 588 L374 588 L288 723 Z " />
<glyph glyph-name="zcaron" unicode="&#x17e;" horiz-adv-x="471" d="M102 59 L418 59 L404 0 L0 0 L11 50 L421 451 L115 451 L129 510 L523 510 L511 460 L102 59 Z M382 588 L308 588 L230 723 L286 723 L351 625 L466 723 L530 723 L382 588 Z " />
<glyph glyph-name="zacute" unicode="&#x17a;" horiz-adv-x="471" d="M102 59 L418 59 L404 0 L0 0 L11 50 L421 451 L115 451 L129 510 L523 510 L511 460 L102 59 Z M351 588 L288 588 L421 723 L503 723 L351 588 Z " />
<glyph glyph-name="zdotaccent" unicode="&#x17c;" horiz-adv-x="471" d="M102 59 L418 59 L404 0 L0 0 L11 50 L421 451 L115 451 L129 510 L523 510 L511 460 L102 59 Z M332 726 L402 726 L370 597 L300 597 L332 726 Z " />
<glyph glyph-name="acute" unicode="&#xb4;" horiz-adv-x="486" d="M353 588 L290 588 L423 723 L505 723 L353 588 Z " />
<glyph glyph-name="grave" unicode="&#x60;" horiz-adv-x="486" d="M267 723 L347 723 L416 588 L353 588 L267 723 Z " />
<glyph glyph-name="circumflex" unicode="&#x2c6;" horiz-adv-x="486" d="M500 588 L443 588 L377 686 L262 588 L202 588 L348 723 L422 723 L500 588 Z " />
<glyph glyph-name="caron" unicode="&#x2c7;" horiz-adv-x="486" d="M389 588 L315 588 L237 723 L293 723 L358 625 L473 723 L537 723 L389 588 Z " />
<glyph glyph-name="tilde" unicode="&#x2dc;" horiz-adv-x="486" d="M386 675 Q406 655 417.5 649 Q429 643 441 643 Q463 643 481.5 662 Q500 681 509 713 L558 713 Q542 658 510 627 Q478 596 438 596 Q418 596 401 604 Q384 612 357 638 Q337 657 326 663 Q315 669 304 669 Q280 669 260.5 650.5 Q241 632 229 597 L181 597 Q199 654 231.5 685.5 Q264 717 306 717 Q326 717 343 709 Q360 701 386 675 Z " />
<glyph glyph-name="dieresis" unicode="&#xa8;" horiz-adv-x="486" d="M467 597 L406 597 L438 726 L500 726 L467 597 Z M302 597 L241 597 L273 726 L334 726 L302 597 Z " />
<glyph glyph-name="ring" unicode="&#x2da;" horiz-adv-x="486" d="M272 648 Q272 696 308.5 730.5 Q345 765 395 765 Q429 765 450 743.5 Q471 722 471 688 Q471 640 434.5 605 Q398 570 349 570 Q315 570 293.5 592 Q272 614 272 648 Z M315 655 Q315 635 327 623 Q339 611 359 611 Q387 611 407.5 632 Q428 653 428 682 Q428 701 416.5 713 Q405 725 386 725 Q357 725 336 704.5 Q315 684 315 655 Z " />
<glyph glyph-name="cedilla" unicode="&#xb8;" horiz-adv-x="486" d="M265 -111 Q265 -152 231 -178 Q197 -204 145 -204 Q119 -204 99.5 -199.5 Q80 -195 62 -184 L71 -142 Q92 -154 109.5 -158.5 Q127 -163 149 -163 Q179 -163 195.5 -151.5 Q212 -140 212 -119 Q212 -105 200.5 -97.5 Q189 -90 168 -90 L123 -90 L171 16 L204 5 L175 -57 L192 -57 Q227 -57 246 -71 Q265 -85 265 -111 Z " />
<glyph glyph-name="hungarumlaut" unicode="&#x2dd;" horiz-adv-x="486" d="M412 588 L350 588 L481 723 L562 723 L412 588 Z M250 588 L188 588 L319 723 L400 723 L250 588 Z " />
<glyph glyph-name="breve" unicode="&#x2d8;" horiz-adv-x="486" d="M366 637 Q406 637 435 657.5 Q464 678 485 721 L534 721 Q512 660 465 625 Q418 590 355 590 Q293 590 262 625.5 Q231 661 239 721 L287 721 Q285 679 305 658 Q325 637 366 637 Z " />
<glyph glyph-name="overscore" unicode="&#xaf;" horiz-adv-x="486" d="M506 628 L217 628 L231 684 L520 684 L506 628 Z " />
<glyph glyph-name="dotaccent" unicode="&#x2d9;" horiz-adv-x="486" d="M351 726 L421 726 L389 597 L319 597 L351 726 Z " />
<glyph glyph-name="middot" unicode="&#xb7;" horiz-adv-x="486" d="M176 238 L202 342 L283 342 L258 238 L176 238 Z " />
<glyph glyph-name="ogonek" unicode="&#x2db;" horiz-adv-x="486" d="M187 -121 Q187 -142 201.5 -153 Q216 -164 242 -164 Q260 -164 282 -157 Q304 -150 325 -138 L313 -182 Q289 -196 266.5 -202 Q244 -208 218 -208 Q179 -208 154 -189 Q129 -170 129 -140 Q129 -96 168 -60 Q207 -24 315 19 L356 19 Q247 -35 217 -62.5 Q187 -90 187 -121 Z " />
<glyph glyph-name="commaaccent" unicode="&#xf6c3;" horiz-adv-x="486" d="M131 -160 L155 -62 L231 -62 L215 -131 Q206 -169 183.5 -196.5 Q161 -224 126 -240 L112 -224 Q132 -211 145.5 -195 Q159 -179 165 -160 L131 -160 Z " />
<glyph glyph-name="caron.alt" unicode="&#xe189;" horiz-adv-x="486" d="M274 612 L297 710 L374 710 L357 641 Q347 600 324 568.5 Q301 537 264 515 L250 531 Q270 547 285 568 Q300 589 307 612 L274 612 Z " />
<glyph glyph-name="revcommaaccent" unicode="&#xe18a;" horiz-adv-x="486" d="M406 678 L384 587 L307 587 L322 649 Q331 687 354 716 Q377 745 413 765 L426 749 Q407 736 392.5 717 Q378 698 372 678 L406 678 Z " />
<glyph glyph-name="period" unicode="&#x2e;" horiz-adv-x="185" d="M18 0 L43 104 L125 104 L100 0 L18 0 Z " />
<glyph glyph-name="comma" unicode="&#x2c;" horiz-adv-x="185" d="M18 0 L43 104 L125 104 L106 28 Q94 -21 64 -59 Q34 -97 -15 -126 L-25 -103 Q5 -81 24.5 -55 Q44 -29 52 0 L18 0 Z " />
<glyph glyph-name="colon" unicode="&#x3a;" horiz-adv-x="210" d="M128 403 L154 508 L236 508 L210 403 L128 403 Z M30 0 L56 104 L137 104 L113 0 L30 0 Z " />
<glyph glyph-name="semicolon" unicode="&#x3b;" horiz-adv-x="210" d="M128 403 L154 508 L236 508 L210 403 L128 403 Z M30 0 L56 104 L137 104 L119 28 Q106 -21 76.5 -59 Q47 -97 -3 -126 L-13 -103 Q18 -81 37.5 -55 Q57 -29 65 0 L30 0 Z " />
<glyph glyph-name="ellipsis" unicode="&#x2026;" horiz-adv-x="566" d="M398 0 L424 104 L505 104 L480 0 L398 0 Z M208 0 L234 104 L315 104 L290 0 L208 0 Z M18 0 L43 104 L125 104 L100 0 L18 0 Z " />
<glyph glyph-name="question" unicode="&#x3f;" horiz-adv-x="443" d="M224 198 L172 198 L205 375 L255 389 Q348 415 389.5 453 Q431 491 431 547 Q431 587 404 610.5 Q377 634 331 634 Q293 634 252.5 618.5 Q212 603 163 570 L143 624 Q203 665 252.5 682.5 Q302 700 353 700 Q422 700 463.5 662.5 Q505 625 505 564 Q505 487 456.5 434 Q408 381 306 349 L266 337 L224 198 Z M107 0 L133 104 L214 104 L189 0 L107 0 Z " />
<glyph glyph-name="exclam" unicode="&#x21;" horiz-adv-x="284" d="M133 196 L165 400 L235 690 L318 690 L248 400 L180 196 L133 196 Z M67 0 L92 104 L174 104 L149 0 L67 0 Z " />
<glyph glyph-name="questiondown" unicode="&#xbf;" horiz-adv-x="456" d="M405 510 L379 405 L298 405 L323 510 L405 510 Z M288 312 L340 312 L307 134 L257 120 Q165 94 123 56.5 Q81 19 81 -36 Q81 -76 108 -100 Q135 -124 181 -124 Q218 -124 258 -109 Q298 -94 349 -60 L369 -114 Q310 -154 260.5 -171.5 Q211 -189 159 -189 Q90 -189 48.5 -152 Q7 -115 7 -53 Q7 23 56.5 76 Q106 129 206 160 L246 172 L288 312 Z " />
<glyph glyph-name="exclamdown" unicode="&#xa1;" horiz-adv-x="275" d="M266 510 L240 405 L159 405 L184 510 L266 510 Z M101 -179 L17 -179 L87 110 L155 313 L202 313 L170 110 L101 -179 Z " />
<glyph glyph-name="parenleft" unicode="&#x28;" horiz-adv-x="348" d="M84 191 Q84 339 174 487 Q264 635 418 738 L445 709 Q308 597 232 459.5 Q156 322 156 184 Q156 101 179 21 Q202 -59 244 -115 L203 -143 Q147 -86 115.5 3.5 Q84 93 84 191 Z " />
<glyph glyph-name="parenright" unicode="&#x29;" horiz-adv-x="348" d="M342 403 Q342 255 252 107.5 Q162 -40 8 -143 L-18 -114 Q119 -3 194.5 134.5 Q270 272 270 410 Q270 492 246.5 572.5 Q223 653 182 710 L223 738 Q279 681 310.5 591.5 Q342 502 342 403 Z " />
<glyph glyph-name="braceleft" unicode="&#x7b;" horiz-adv-x="368" d="M203 543 Q203 633 273.5 686.5 Q344 740 468 740 L455 687 Q368 686 318.5 644.5 Q269 603 269 541 Q269 532 270 521 Q271 510 275 488 Q278 466 279 455 Q280 444 280 435 Q280 392 258.5 358.5 Q237 325 199 307 Q214 297 223 278 Q232 259 232 238 Q232 214 223.5 191 Q215 168 187 128 Q159 87 150 63 Q141 39 141 15 Q141 -27 174 -49.5 Q207 -72 271 -72 L258 -125 Q168 -125 121 -91.5 Q74 -58 74 5 Q74 35 84 63 Q94 91 127 135 Q153 172 161 191.5 Q169 211 169 231 Q169 255 157.5 267.5 Q146 280 123 280 L92 280 L105 334 L139 334 Q172 334 194 359 Q216 384 216 424 Q216 433 215 444 Q214 455 210 477 Q206 503 204.5 516.5 Q203 530 203 543 Z " />
<glyph glyph-name="braceright" unicode="&#x7d;" horiz-adv-x="368" d="M246 71 Q246 -18 175.5 -71.5 Q105 -125 -18 -125 L-5 -72 Q81 -71 130.5 -29.5 Q180 12 180 73 Q180 82 179 93 Q178 104 175 126 Q171 148 170 159 Q169 170 169 179 Q169 221 191 255 Q213 289 251 307 Q236 317 226.5 336 Q217 355 217 376 Q217 400 225.5 423 Q234 446 262 486 Q290 527 299 551 Q308 575 308 599 Q308 642 275 664.5 Q242 687 178 687 L191 740 Q281 740 328 706.5 Q375 673 375 609 Q375 579 365 551 Q355 523 322 479 Q296 442 288 422.5 Q280 403 280 383 Q280 358 292 346 Q304 334 327 334 L358 334 L344 280 L311 280 Q277 280 255 255 Q233 230 233 190 Q233 181 234 170 Q235 159 239 137 Q243 111 244.5 97.5 Q246 84 246 71 Z " />
<glyph glyph-name="bracketleft" unicode="&#x5b;" horiz-adv-x="345" d="M240 -123 L15 -123 L226 740 L450 740 L435 684 L276 684 L94 -67 L254 -67 L240 -123 Z " />
<glyph glyph-name="bracketright" unicode="&#x5d;" horiz-adv-x="345" d="M188 740 L412 740 L201 -123 L-22 -123 L-7 -67 L151 -67 L333 684 L174 684 L188 740 Z " />
<glyph glyph-name="slash" unicode="&#x2f;" horiz-adv-x="377" d="M56 0 L-11 0 L424 693 L491 693 L56 0 Z " />
<glyph glyph-name="backslash" unicode="&#x5c;" horiz-adv-x="377" d="M156 693 L222 693 L322 0 L255 0 L156 693 Z " />
<glyph glyph-name="underscore" unicode="&#x5f;" horiz-adv-x="480" d="M399 -107 L-37 -107 L-25 -51 L413 -51 L399 -107 Z " />
<glyph glyph-name="hyphen" unicode="&#x2d;" horiz-adv-x="393" d="M367 252 L81 252 L95 307 L382 307 L367 252 Z " />
<glyph glyph-name="uni00AD" unicode="&#xad;" horiz-adv-x="393" d="" />
<glyph glyph-name="endash" unicode="&#x2013;" horiz-adv-x="500" d="M472 242 L73 242 L87 297 L486 297 L472 242 Z " />
<glyph glyph-name="emdash" unicode="&#x2014;" horiz-adv-x="1000" d="M961 242 L75 242 L89 297 L975 297 L961 242 Z " />
<glyph glyph-name="brokenbar" unicode="&#xa6;" horiz-adv-x="232" d="M239 770 L298 770 L207 394 L148 394 L239 770 Z M124 296 L184 296 L92 -80 L33 -80 L124 296 Z " />
<glyph glyph-name="bar" unicode="&#x7c;" horiz-adv-x="232" d="M239 770 L298 770 L92 -80 L33 -80 L239 770 Z " />
<glyph glyph-name="guillemotleft" unicode="&#xab;" horiz-adv-x="575" d="M459 39 L298 232 L307 268 L562 461 L583 432 L369 246 L495 68 L459 39 Z M234 39 L72 232 L81 268 L336 461 L358 432 L144 246 L269 68 L234 39 Z " />
<glyph glyph-name="guillemotright" unicode="&#xbb;" horiz-adv-x="575" d="M395 461 L557 268 L548 232 L292 39 L271 68 L485 255 L359 432 L395 461 Z M169 461 L331 268 L322 232 L66 39 L45 68 L260 255 L134 432 L169 461 Z " />
<glyph glyph-name="guilsinglleft" unicode="&#x2039;" horiz-adv-x="349" d="M234 39 L72 232 L81 268 L336 461 L358 432 L144 246 L269 68 L234 39 Z " />
<glyph glyph-name="guilsinglright" unicode="&#x203a;" horiz-adv-x="349" d="M169 461 L331 268 L322 232 L66 39 L45 68 L260 255 L134 432 L169 461 Z " />
<glyph glyph-name="quotesinglbase" unicode="&#x201a;" horiz-adv-x="185" d="M18 0 L43 104 L125 104 L106 26 Q94 -21 60.5 -55 Q27 -89 -22 -106 L-13 -71 Q13 -58 29 -41 Q45 -24 55 0 L18 0 Z " />
<glyph glyph-name="quotedblbase" unicode="&#x201e;" horiz-adv-x="338" d="M170 0 L196 104 L278 104 L258 26 Q247 -20 213.5 -54.5 Q180 -89 130 -106 L139 -71 Q166 -58 182 -41 Q198 -24 207 0 L170 0 Z M18 0 L43 104 L125 104 L106 26 Q94 -21 60.5 -55 Q27 -89 -22 -106 L-13 -71 Q13 -58 29 -41 Q45 -24 55 0 L18 0 Z " />
<glyph glyph-name="quoteleft" unicode="&#x2018;" horiz-adv-x="185" d="M245 598 L219 493 L138 493 L157 571 Q169 619 202.5 653 Q236 687 286 704 L276 670 Q249 656 233 639.5 Q217 623 208 598 L245 598 Z " />
<glyph glyph-name="quotedblleft" unicode="&#x201c;" horiz-adv-x="336" d="M396 598 L370 493 L288 493 L308 571 Q320 618 353 652.5 Q386 687 436 704 L427 670 Q399 656 383 639 Q367 622 359 598 L396 598 Z M245 598 L219 493 L138 493 L157 571 Q169 619 202.5 653 Q236 687 286 704 L276 670 Q249 656 233 639.5 Q217 623 208 598 L245 598 Z " />
<glyph glyph-name="quoteright" unicode="&#x2019;" horiz-adv-x="185" d="M160 585 L185 690 L267 690 L248 612 Q236 565 202.5 530.5 Q169 496 119 479 L128 513 Q156 527 172 544 Q188 561 197 585 L160 585 Z " />
<glyph glyph-name="quotedblright" unicode="&#x201d;" horiz-adv-x="336" d="M311 585 L336 690 L418 690 L399 612 Q387 565 353.5 530.5 Q320 496 270 479 L279 513 Q307 527 323 544 Q339 561 348 585 L311 585 Z M160 585 L185 690 L267 690 L248 612 Q236 565 202.5 530.5 Q169 496 119 479 L128 513 Q156 527 172 544 Q188 561 197 585 L160 585 Z " />
<glyph glyph-name="quotesingle" unicode="&#x27;" horiz-adv-x="151" d="M189 512 L142 512 L177 690 L240 690 L189 512 Z " />
<glyph glyph-name="quotedbl" unicode="&#x22;" horiz-adv-x="291" d="M330 512 L283 512 L318 690 L381 690 L330 512 Z M189 512 L142 512 L177 690 L240 690 L189 512 Z " />
<glyph glyph-name="bullet" unicode="&#x2022;" horiz-adv-x="268" d="M198 400 Q228 400 246.5 381.5 Q265 363 265 332 Q265 288 232.5 256.5 Q200 225 155 225 Q123 225 105 243.5 Q87 262 87 293 Q87 337 120 368.5 Q153 400 198 400 Z " />
<glyph glyph-name="ampersand" unicode="&#x26;" horiz-adv-x="686" d="M619 33 L564 -10 L496 74 Q439 32 377 11 Q315 -10 246 -10 Q163 -10 110 32 Q57 74 56 144 Q55 218 104 270.5 Q153 323 262 362 Q230 402 216.5 433.5 Q203 465 203 498 Q203 582 268.5 641 Q334 700 435 700 Q504 700 545 664 Q586 628 586 569 Q586 501 532 448.5 Q478 396 361 353 L514 163 Q541 190 565.5 221.5 Q590 253 609 286 L667 267 Q640 224 610.5 187 Q581 150 549 119 L619 33 Z M421 641 Q361 641 318.5 602 Q276 563 276 508 Q276 482 288 455.5 Q300 429 335 385 Q434 428 473.5 466.5 Q513 505 513 554 Q513 593 487.5 617 Q462 641 421 641 Z M133 164 Q133 114 171.5 83.5 Q210 53 271 53 Q320 53 367.5 69.5 Q415 86 460 118 L290 328 Q210 301 171.5 260.5 Q133 220 133 164 Z " />
<glyph glyph-name="paragraph" unicode="&#xb6;" horiz-adv-x="480" d="M415 643 L259 0 L214 0 L292 322 L271 322 Q207 322 170.5 360 Q134 398 134 463 Q134 557 200 623.5 Q266 690 360 690 L532 690 L365 0 L321 0 L478 643 L415 643 Z " />
<glyph glyph-name="dagger" unicode="&#x2020;" horiz-adv-x="524" d="M549 460 L531 392 L358 400 L230 -125 L166 -125 L294 401 L115 392 L133 460 L306 453 L364 690 L428 690 L370 453 L549 460 Z " />
<glyph glyph-name="daggerdbl" unicode="&#x2021;" horiz-adv-x="524" d="M477 165 L459 97 L286 105 L230 -125 L166 -125 L222 105 L44 97 L62 165 L235 157 L295 407 L117 399 L134 467 L308 460 L364 690 L428 690 L372 460 L550 467 L533 399 L359 407 L299 157 L477 165 Z " />
<glyph glyph-name="section" unicode="&#xa7;" horiz-adv-x="480" d="M165 363 Q165 334 190.5 313.5 Q216 293 290 266 Q305 261 317 256.5 Q329 252 339 247 Q376 262 397.5 287 Q419 312 419 341 Q419 370 393.5 391 Q368 412 293 438 Q278 443 266 447.5 Q254 452 244 457 Q208 442 186.5 417 Q165 392 165 363 Z M419 145 Q419 77 355.5 33.5 Q292 -10 197 -10 Q152 -10 115 -1 Q78 8 49 26 L64 91 Q92 70 128.5 59 Q165 48 205 48 Q268 48 307 72.5 Q346 97 346 137 Q346 162 325 178.5 Q304 195 236 220 Q155 250 127 277 Q99 304 99 345 Q99 387 126 420.5 Q153 454 206 479 Q185 495 175 515 Q165 535 165 559 Q165 627 228.5 671 Q292 715 387 715 Q431 715 468.5 705.5 Q506 696 535 678 L519 613 Q490 634 454 645 Q418 656 378 656 Q315 656 276.5 631.5 Q238 607 238 567 Q238 541 260 524 Q282 507 348 484 Q427 456 456 428 Q485 400 485 359 Q485 317 458 283 Q431 249 377 224 Q398 208 408.5 188.5 Q419 169 419 145 Z " />
<glyph glyph-name="asterisk" unicode="&#x2a;" horiz-adv-x="393" d="M284 571 L313 718 L362 718 L320 573 L452 630 L463 583 L322 538 L390 429 L345 398 L289 514 L181 400 L148 434 L266 539 L146 583 L179 630 L284 571 Z " />
<glyph glyph-name="trademark" unicode="&#x2122;" horiz-adv-x="608" d="M367 690 L359 653 L276 653 L219 418 L179 418 L236 653 L153 653 L161 690 L367 690 Z M518 548 L646 690 L684 690 L618 418 L579 418 L630 625 L521 507 L494 507 L442 626 L391 418 L352 418 L418 690 L457 690 L518 548 Z " />
<glyph glyph-name="registered" unicode="&#xae;" horiz-adv-x="505" d="M387 700 Q461 700 510 649.5 Q559 599 559 524 Q559 420 474.5 340.5 Q390 261 283 261 Q209 261 160.5 311.5 Q112 362 112 437 Q112 542 195 621 Q278 700 387 700 Z M380 662 Q289 662 220.5 596.5 Q152 531 152 441 Q152 376 189 337 Q226 298 289 298 Q379 298 449 364 Q519 430 519 519 Q519 583 481 622.5 Q443 662 380 662 Z M365 560 L312 560 L295 489 L346 489 Q370 489 385 500.5 Q400 512 400 532 Q400 545 390.5 552.5 Q381 560 365 560 Z M402 377 L365 377 L334 461 L288 461 L267 377 L236 377 L287 590 L372 590 Q401 590 417.5 576.5 Q434 563 434 539 Q434 512 416 492.5 Q398 473 367 466 L402 377 Z " />
<glyph glyph-name="copyright" unicode="&#xa9;" horiz-adv-x="774" d="M518 700 Q638 700 716.5 619 Q795 538 795 416 Q795 333 760.5 254.5 Q726 176 662 115 Q600 55 520.5 22.5 Q441 -10 357 -10 Q236 -10 156.5 70.5 Q77 151 77 272 Q77 355 112 434 Q147 513 211 574 Q274 635 353.5 667.5 Q433 700 518 700 Z M244 540 Q189 486 159 418 Q129 350 129 277 Q129 170 193.5 104 Q258 38 365 38 Q439 38 508 66.5 Q577 95 631 148 Q685 201 714 269 Q743 337 743 412 Q743 518 678.5 584.5 Q614 651 509 651 Q437 651 367.5 622 Q298 593 244 540 Z M498 529 Q524 529 543 524 Q562 519 579 507 L567 459 Q549 471 531 476 Q513 481 489 481 Q419 481 368.5 431.5 Q318 382 318 313 Q318 265 346.5 238 Q375 211 427 211 Q451 211 470.5 215.5 Q490 220 511 229 L501 183 Q479 173 458.5 169 Q438 165 413 165 Q348 165 307 203.5 Q266 242 266 302 Q266 397 333.5 463 Q401 529 498 529 Z " />
<glyph glyph-name="at" unicode="&#x40;" horiz-adv-x="953" d="M431 -154 Q487 -154 545.5 -143 Q604 -132 670 -108 L677 -153 Q623 -176 554 -190 Q485 -204 419 -204 Q250 -204 151 -114.5 Q52 -25 52 127 Q52 234 95 331.5 Q138 429 217 504 Q294 576 393.5 615 Q493 654 602 654 Q758 654 853 567.5 Q948 481 948 341 Q948 279 931.5 221.5 Q915 164 884 116 Q846 58 795 24 Q744 -10 694 -10 Q649 -10 624 12 Q599 34 595 78 Q551 34 504 12 Q457 -10 408 -10 Q340 -10 299.5 36 Q259 82 259 156 Q259 274 338.5 360.5 Q418 447 524 447 Q569 447 603 426 Q637 405 657 365 L675 442 L739 442 L664 132 Q661 121 660 112 Q659 103 659 95 Q659 69 672.5 54.5 Q686 40 711 40 Q779 40 834 132 Q889 224 889 333 Q889 457 811 530 Q733 603 599 603 Q501 603 412.5 567.5 Q324 532 256 466 Q186 399 148.5 311 Q111 223 111 127 Q111 -3 198 -78.5 Q285 -154 431 -154 Z M440 46 Q484 46 528 69 Q572 92 600 131 L643 306 Q629 345 597.5 367.5 Q566 390 525 390 Q447 390 387 325 Q327 260 327 175 Q327 117 358 81.5 Q389 46 440 46 Z " />
<glyph glyph-name="ordfeminine" unicode="&#xaa;" horiz-adv-x="386" d="M357 481 L368 528 Q353 543 331 551.5 Q309 560 283 560 Q242 560 214 536.5 Q186 513 186 479 Q186 454 203 439.5 Q220 425 249 425 Q280 425 307 439 Q334 453 357 481 Z M207 629 L218 672 Q244 686 271.5 693 Q299 700 328 700 Q379 700 406 679.5 Q433 659 433 620 Q433 612 431.5 601 Q430 590 427 572 L383 392 L336 392 L350 447 Q323 418 290.5 402.5 Q258 387 223 387 Q184 387 159.5 410 Q135 433 135 470 Q135 520 176.5 556 Q218 592 278 592 Q305 592 328.5 583.5 Q352 575 375 557 L380 575 Q383 586 384 593.5 Q385 601 384 607 Q383 633 364.5 646.5 Q346 660 310 660 Q286 660 260.5 652.5 Q235 645 207 629 Z M380 273 L70 273 L81 317 L391 317 L380 273 Z " />
<glyph glyph-name="ordmasculine" unicode="&#xba;" horiz-adv-x="386" d="M255 387 Q200 387 167.5 419.5 Q135 452 135 506 Q135 587 191 643.5 Q247 700 328 700 Q382 700 414.5 667 Q447 634 447 580 Q447 499 391.5 443 Q336 387 255 387 Z M317 655 Q263 655 225 614.5 Q187 574 187 515 Q187 476 208 454 Q229 432 265 432 Q319 432 357 472.5 Q395 513 395 572 Q395 611 374.5 633 Q354 655 317 655 Z M380 273 L70 273 L81 317 L391 317 L380 273 Z " />
<glyph glyph-name="questiondown.case" unicode="&#xe1f6;" horiz-adv-x="456" d="M442 690 L416 585 L335 585 L360 690 L442 690 Z M325 491 L377 491 L344 314 L294 300 Q201 274 159.5 236 Q118 198 118 142 Q118 102 145 78.5 Q172 55 218 55 Q255 55 295.5 70 Q336 85 385 119 L406 65 Q347 25 297.5 7.5 Q248 -10 196 -10 Q127 -10 85.5 27 Q44 64 44 125 Q44 201 92.5 254.5 Q141 308 242 340 L283 352 L325 491 Z " />
<glyph glyph-name="exclamdown.case" unicode="&#xe1f7;" horiz-adv-x="275" d="M310 690 L285 585 L203 585 L228 690 L310 690 Z M145 0 L61 0 L131 289 L198 493 L246 493 L214 289 L145 0 Z " />
<glyph glyph-name="parenleft.case" unicode="&#xe1e8;" horiz-adv-x="348" d="M93 229 Q93 378 183 525.5 Q273 673 427 776 L454 748 Q317 635 241 497.5 Q165 360 165 223 Q165 139 188 59.5 Q211 -20 253 -76 L212 -105 Q156 -48 124.5 41.5 Q93 131 93 229 Z " />
<glyph glyph-name="parenright.case" unicode="&#xe1e9;" horiz-adv-x="348" d="M351 442 Q351 294 261 146 Q171 -2 17 -104 L-9 -75 Q128 36 203.5 173.5 Q279 311 279 449 Q279 532 256 612.5 Q233 693 191 749 L232 777 Q288 720 319.5 630.5 Q351 541 351 442 Z " />
<glyph glyph-name="braceleft.case" unicode="&#xe1ea;" horiz-adv-x="368" d="M214 582 Q214 671 284.5 724.5 Q355 778 480 778 L467 725 Q380 724 330.5 682.5 Q281 641 281 579 Q281 570 282 559 Q283 548 286 526 Q289 504 290 493 Q291 482 291 473 Q291 430 269.5 396.5 Q248 363 210 345 Q225 335 234.5 316 Q244 297 244 276 Q244 252 235.5 229 Q227 206 199 166 Q170 125 161.5 101.5 Q153 78 153 54 Q153 11 186 -11.5 Q219 -34 283 -34 L270 -86 Q179 -86 132.5 -53 Q86 -20 86 43 Q86 74 96.5 102 Q107 130 139 174 Q165 210 173 229.5 Q181 249 181 269 Q181 294 169 306 Q157 318 134 318 L103 318 L117 372 L150 372 Q183 372 205.5 397 Q228 422 228 463 Q228 472 227 482.5 Q226 493 222 515 Q217 540 215.5 554.5 Q214 569 214 582 Z " />
<glyph glyph-name="braceright.case" unicode="&#xe1eb;" horiz-adv-x="368" d="M257 109 Q257 20 187 -33 Q117 -86 -7 -86 L5 -34 Q92 -33 141 8.5 Q190 50 190 111 Q190 121 189 132 Q188 143 185 165 Q182 187 181 197.5 Q180 208 180 217 Q180 260 202 294 Q224 328 261 345 Q246 355 237 374 Q228 393 228 414 Q228 438 236.5 461.5 Q245 485 274 526 Q302 566 310.5 589.5 Q319 613 319 637 Q319 679 285.5 702 Q252 725 189 725 L201 778 Q292 778 338.5 745 Q385 712 385 647 Q385 617 375 589 Q365 561 332 517 Q306 481 298 461.5 Q290 442 290 422 Q290 398 302 385 Q314 372 337 372 L368 372 L354 318 L321 318 Q288 318 266 293 Q244 268 244 228 Q244 219 245 208.5 Q246 198 250 176 Q254 151 255.5 136.5 Q257 122 257 109 Z " />
<glyph glyph-name="bracketleft.case" unicode="&#xe1ec;" horiz-adv-x="345" d="M249 -85 L25 -85 L235 778 L458 778 L445 722 L286 722 L104 -29 L263 -29 L249 -85 Z " />
<glyph glyph-name="bracketright.case" unicode="&#xe1ed;" horiz-adv-x="345" d="M196 778 L420 778 L211 -85 L-12 -85 L2 -29 L160 -29 L342 722 L182 722 L196 778 Z " />
<glyph glyph-name="hyphen.case" unicode="&#xe1f8;" horiz-adv-x="393" d="M380 305 L94 305 L108 361 L394 361 L380 305 Z " />
<glyph glyph-name="endash.case" unicode="&#xe1ee;" horiz-adv-x="486" d="M481 295 L81 295 L96 351 L494 351 L481 295 Z " />
<glyph glyph-name="emdash.case" unicode="&#xe1ef;" horiz-adv-x="973" d="M967 295 L81 295 L96 351 L981 351 L967 295 Z " />
<glyph glyph-name="guilsinglleft.case" unicode="&#xe1f2;" horiz-adv-x="349" d="M252 113 L90 305 L99 342 L355 534 L376 505 L162 319 L287 141 L252 113 Z " />
<glyph glyph-name="guilsinglright.case" unicode="&#xe1f3;" horiz-adv-x="349" d="M187 534 L349 342 L340 305 L84 113 L63 141 L278 328 L152 505 L187 534 Z " />
<glyph glyph-name="guillemotleft.case" unicode="&#xe1f0;" horiz-adv-x="575" d="M477 113 L315 305 L324 342 L580 534 L601 505 L387 319 L512 141 L477 113 Z M251 113 L89 305 L98 342 L354 534 L375 505 L161 319 L287 141 L251 113 Z " />
<glyph glyph-name="guillemotright.case" unicode="&#xe1f1;" horiz-adv-x="575" d="M412 534 L574 342 L565 305 L309 113 L288 141 L503 328 L377 505 L412 534 Z M187 534 L348 342 L339 305 L84 113 L63 141 L277 328 L151 505 L187 534 Z " />
<glyph glyph-name="bullet.case" unicode="&#xe1f4;" horiz-adv-x="268" d="M210 447 Q240 447 258 428.5 Q276 410 276 379 Q276 335 243.5 303 Q211 271 166 271 Q135 271 116.5 289.5 Q98 308 98 339 Q98 384 131 415.5 Q164 447 210 447 Z " />
<glyph glyph-name="at.case" unicode="&#xe1fb;" horiz-adv-x="934" d="M451 -53 Q507 -53 565.5 -42 Q624 -31 690 -7 L697 -52 Q643 -75 574 -89 Q505 -103 439 -103 Q270 -103 171 -13.5 Q72 76 72 228 Q72 335 115 432.5 Q158 530 237 605 Q314 677 413.5 716 Q513 755 622 755 Q778 755 873 668.5 Q968 582 968 442 Q968 380 951.5 322.5 Q935 265 904 217 Q866 159 815 125 Q764 91 714 91 Q669 91 644 113 Q619 135 615 179 Q571 135 524 113 Q477 91 428 91 Q360 91 319.5 137 Q279 183 279 257 Q279 375 358.5 461.5 Q438 548 544 548 Q589 548 623 527 Q657 506 677 466 L695 543 L759 543 L684 233 Q681 222 680 213 Q679 204 679 196 Q679 170 692.5 155.5 Q706 141 731 141 Q799 141 854 233 Q909 325 909 434 Q909 558 831 631 Q753 704 619 704 Q521 704 432.5 668.5 Q344 633 276 567 Q206 500 168.5 412 Q131 324 131 228 Q131 98 218 22.5 Q305 -53 451 -53 Z M460 147 Q504 147 548 170 Q592 193 620 232 L663 407 Q649 446 617.5 468.5 Q586 491 545 491 Q467 491 407 426 Q347 361 347 276 Q347 218 378 182.5 Q409 147 460 147 Z " />
<glyph glyph-name="numbersign" unicode="&#x23;" horiz-adv-x="699" d="M263 259 L432 259 L532 425 L363 425 L263 259 Z M340 0 L277 0 L399 203 L230 203 L108 0 L46 0 L168 203 L46 203 L59 259 L201 259 L301 425 L173 425 L187 481 L335 481 L460 690 L522 690 L397 481 L566 481 L691 690 L753 690 L628 481 L753 481 L739 425 L594 425 L495 259 L624 259 L611 203 L462 203 L340 0 Z " />
<glyph glyph-name="Euro" unicode="&#x20ac;" horiz-adv-x="650" d="M596 96 L579 28 Q534 8 489.5 -1 Q445 -10 394 -10 Q279 -10 213 61.5 Q147 133 147 256 L147 257 L52 257 L70 305 L149 305 Q151 323 155 343 Q159 363 165 386 L99 386 L117 433 L181 433 Q231 555 336 627.5 Q441 700 570 700 Q618 700 655.5 690.5 Q693 681 725 660 L708 593 Q668 615 635 623.5 Q602 632 563 632 Q470 632 389 578 Q308 524 263 433 L592 433 L573 386 L243 386 Q237 365 232.5 345 Q228 325 226 305 L543 305 L525 257 L224 257 Q227 162 279.5 109.5 Q332 57 425 57 Q466 57 507.5 66.5 Q549 76 596 96 Z " />
<glyph glyph-name="dollar" unicode="&#x24;" horiz-adv-x="526" d="M227 509 Q227 481 242.5 459 Q258 437 294 414 L347 629 Q292 618 259.5 586 Q227 554 227 509 Z M408 197 Q408 230 388 256 Q368 282 319 311 L258 58 Q326 66 367 103.5 Q408 141 408 197 Z M242 -9 L224 -82 L174 -82 L191 -9 Q146 -7 104.5 8.5 Q63 24 34 49 L52 120 Q81 93 122.5 76 Q164 59 207 57 L275 335 Q202 376 175.5 411 Q149 446 149 493 Q149 574 208.5 631 Q268 688 364 698 L384 781 L434 781 L414 700 Q456 698 491 687.5 Q526 677 554 657 L537 589 Q506 610 471.5 621 Q437 632 398 633 L338 389 Q420 347 454 307.5 Q488 268 488 215 Q488 123 419 61.5 Q350 0 242 -9 Z " />
<glyph glyph-name="yen" unicode="&#xa5;" horiz-adv-x="653" d="M577 225 L566 177 L373 177 L329 0 L256 0 L299 177 L102 177 L113 225 L311 225 L326 287 L320 301 L132 301 L144 348 L300 348 L154 690 L234 690 L377 348 L683 690 L767 690 L456 348 L608 348 L596 301 L413 301 L400 287 L385 225 L577 225 Z " />
<glyph glyph-name="sterling" unicode="&#xa3;" horiz-adv-x="531" d="M170 66 L472 66 L456 0 L19 0 L35 66 L53 66 Q132 66 178.5 113.5 Q225 161 225 235 Q225 253 222 271.5 Q219 290 213 311 L99 311 L111 359 L198 359 Q186 400 182 421.5 Q178 443 178 463 Q178 566 255 633 Q332 700 445 700 Q487 700 517 693 Q547 686 567 671 L550 602 Q529 617 502 624.5 Q475 632 442 632 Q361 632 307.5 585.5 Q254 539 254 467 Q254 447 258.5 424.5 Q263 402 278 359 L454 359 L442 311 L293 311 Q297 295 299 279.5 Q301 264 301 249 Q301 189 266 140.5 Q231 92 170 66 Z " />
<glyph glyph-name="cent" unicode="&#xa2;" horiz-adv-x="509" d="M454 104 L438 40 Q402 17 360 4 Q318 -9 273 -10 L255 -82 L205 -82 L223 -7 Q148 5 106 57 Q64 109 64 190 Q64 317 146 410 Q228 503 350 517 L371 602 L421 602 L401 519 Q446 518 480.5 506 Q515 494 537 472 L521 408 Q497 433 463.5 445.5 Q430 458 386 458 L287 50 Q331 50 369.5 62 Q408 74 454 104 Z M136 202 Q136 146 162.5 108 Q189 70 239 57 L335 453 Q248 435 192 364.5 Q136 294 136 202 Z " />
<glyph glyph-name="florin" unicode="&#x192;" horiz-adv-x="519" d="M558 700 Q576 700 590 697.5 Q604 695 622 688 L606 622 Q594 627 578.5 630 Q563 633 549 633 Q499 633 462 598.5 Q425 564 395 487 L349 374 L471 374 L453 328 L329 328 L228 72 Q195 -11 146.5 -53 Q98 -95 35 -95 Q15 -95 -0.5 -92 Q-16 -89 -30 -83 L-14 -18 Q-1 -23 13 -25.5 Q27 -28 44 -28 Q80 -28 107.5 -3 Q135 22 158 75 L259 328 L164 328 L183 374 L277 374 L328 498 Q369 598 427 649 Q485 700 558 700 Z " />
<glyph glyph-name="currency" unicode="&#xa4;" horiz-adv-x="584" d="M533 153 L493 120 L433 202 Q402 183 368 173 Q334 163 298 163 Q264 163 236 173.5 Q208 184 187 205 L83 120 L59 152 L163 237 Q154 255 149 276 Q144 297 144 319 Q144 367 163 412 Q182 457 218 493 L160 572 L200 605 L258 525 Q289 546 324.5 556.5 Q360 567 397 567 Q432 567 461 556 Q490 545 511 524 L610 605 L635 573 L534 491 Q545 469 549 444 Q553 419 550 391 Q546 347 526.5 306 Q507 265 474 233 L533 153 Z M496 397 Q496 449 465.5 480 Q435 511 383 511 Q309 511 254.5 457.5 Q200 404 200 330 Q200 279 230.5 248.5 Q261 218 311 218 Q388 218 442 270 Q496 322 496 397 Z " />
<glyph glyph-name="zero" unicode="0" horiz-adv-x="667" d="M304 -10 Q202 -10 142.5 56.5 Q83 123 83 237 Q83 324 108.5 405 Q134 486 182 550 Q236 622 309 661 Q382 700 464 700 Q566 700 625 634.5 Q684 569 684 455 Q684 368 658.5 287 Q633 206 586 142 Q532 69 459.5 29.5 Q387 -10 304 -10 Z M317 57 Q439 57 523.5 170.5 Q608 284 608 440 Q608 531 566.5 581.5 Q525 632 450 632 Q386 632 330 598.5 Q274 565 232 502 Q198 449 179 383 Q160 317 160 250 Q160 158 201 107.5 Q242 57 317 57 Z " />
<glyph glyph-name="one" unicode="1" horiz-adv-x="328" d="M150 616 L306 690 L374 690 L206 0 L133 0 L282 615 L133 546 L150 616 Z " />
<glyph glyph-name="two" unicode="2" horiz-adv-x="531" d="M372 632 Q328 632 277.5 617.5 Q227 603 175 576 L193 650 Q243 674 295 687 Q347 700 398 700 Q477 700 523 661.5 Q569 623 569 559 Q569 497 530 442 Q491 387 387 313 L236 208 Q176 166 144.5 132.5 Q113 99 101 66 L469 66 L453 0 L1 0 L7 25 Q23 87 67.5 142.5 Q112 198 185 248 L324 345 Q428 417 460 457.5 Q492 498 492 541 Q491 583 459.5 607.5 Q428 632 372 632 Z " />
<glyph glyph-name="three" unicode="3" horiz-adv-x="533" d="M204 -10 Q148 -10 100.5 3 Q53 16 17 41 L35 109 Q74 83 118.5 70 Q163 57 210 57 Q304 57 366.5 104 Q429 151 429 224 Q429 272 393.5 299 Q358 326 297 326 L199 326 L213 386 L311 386 Q387 386 440.5 427.5 Q494 469 494 531 Q494 578 457.5 605 Q421 632 358 632 Q309 632 257 617.5 Q205 603 157 576 L174 647 Q223 673 274.5 686.5 Q326 700 379 700 Q467 700 518.5 660 Q570 620 570 552 Q570 484 523 430.5 Q476 377 401 355 Q448 343 475.5 309 Q503 275 503 227 Q503 124 418 57 Q333 -10 204 -10 Z " />
<glyph glyph-name="four" unicode="4" horiz-adv-x="572" d="M454 690 L532 690 L141 211 L395 211 L431 359 L510 398 L464 211 L553 211 L537 145 L448 145 L412 0 L345 0 L379 145 L43 145 L59 209 L454 690 Z " />
<glyph glyph-name="five" unicode="5" horiz-adv-x="553" d="M229 -10 Q172 -10 120.5 3 Q69 16 31 39 L49 111 Q89 85 136 71.5 Q183 58 235 58 Q330 58 391.5 111 Q453 164 453 246 Q453 303 413 334 Q373 365 299 365 Q262 365 220 360 Q178 355 131 345 L229 690 L575 690 L559 623 L276 623 L218 415 Q245 421 278 424.5 Q311 428 334 428 Q428 428 480 383.5 Q532 339 532 260 Q532 142 446.5 66 Q361 -10 229 -10 Z " />
<glyph glyph-name="six" unicode="6" horiz-adv-x="586" d="M401 443 Q480 443 526.5 396.5 Q573 350 573 272 Q573 155 485 72.5 Q397 -10 275 -10 Q180 -10 128.5 52 Q77 114 77 226 Q77 307 108 392.5 Q139 478 194 546 Q253 621 329.5 660.5 Q406 700 491 700 Q516 700 537.5 697 Q559 694 580 687 L562 617 Q543 624 522.5 628 Q502 632 481 632 Q373 632 288.5 554 Q204 476 168 350 Q219 396 278 419.5 Q337 443 401 443 Z M151 233 Q151 148 185.5 102.5 Q220 57 284 57 Q372 57 433.5 116.5 Q495 176 495 261 Q495 318 460 350.5 Q425 383 363 383 Q308 383 256 360 Q204 337 155 291 Q152 265 151.5 254 Q151 243 151 233 Z " />
<glyph glyph-name="seven" unicode="7" horiz-adv-x="497" d="M40 0 L505 623 L148 623 L164 690 L600 690 L586 629 L123 0 L40 0 Z " />
<glyph glyph-name="eight" unicode="8" horiz-adv-x="582" d="M560 220 Q560 124 473.5 57 Q387 -10 263 -10 Q166 -10 107 32.5 Q48 75 48 144 Q48 217 101 271.5 Q154 326 265 364 Q217 387 192 421 Q167 455 167 498 Q167 581 241.5 640.5 Q316 700 423 700 Q506 700 555 662 Q604 624 604 562 Q604 503 555.5 455 Q507 407 414 373 Q493 338 526.5 302.5 Q560 267 560 220 Z M244 509 Q244 478 264.5 454 Q285 430 329 410 L361 395 Q445 427 485 463.5 Q525 500 525 543 Q525 585 493.5 610 Q462 635 408 635 Q342 635 293 597 Q244 559 244 509 Z M129 164 Q129 114 169.5 84 Q210 54 277 54 Q361 54 421.5 98.5 Q482 143 482 207 Q482 241 459 265.5 Q436 290 380 314 L318 341 Q221 309 175 265.5 Q129 222 129 164 Z " />
<glyph glyph-name="nine" unicode="9" horiz-adv-x="589" d="M191 428 Q191 370 225.5 337.5 Q260 305 322 305 Q378 305 431.5 329 Q485 353 535 401 Q538 418 539 432.5 Q540 447 540 460 Q540 540 503 586 Q466 632 401 632 Q313 632 252 573 Q191 514 191 428 Z M496 145 Q435 71 356.5 31 Q278 -9 189 -9 Q162 -9 137.5 -5 Q113 -1 88 8 L105 78 Q127 68 151 63 Q175 58 199 58 Q311 58 398 136 Q485 214 522 340 Q471 294 410.5 269 Q350 244 292 244 Q210 244 161.5 291.5 Q113 339 113 417 Q113 536 201 618 Q289 700 416 700 Q508 700 561 638.5 Q614 577 614 473 Q614 388 582.5 301 Q551 214 496 145 Z " />
<glyph glyph-name="degree" unicode="&#xb0;" horiz-adv-x="334" d="M410 589 Q410 519 358.5 470 Q307 421 237 421 Q187 421 157 450.5 Q127 480 127 529 Q127 600 178 650 Q229 700 301 700 Q350 700 380 669.5 Q410 639 410 589 Z M362 580 Q362 614 342.5 635 Q323 656 291 656 Q245 656 210 621 Q175 586 175 538 Q175 505 194.5 484.5 Q214 464 246 464 Q293 464 327.5 498 Q362 532 362 580 Z " />
<glyph glyph-name="percent" unicode="&#x25;" horiz-adv-x="889" d="M241 303 Q183 303 149 341 Q115 379 115 445 Q115 549 178 624.5 Q241 700 331 700 Q389 700 422.5 662.5 Q456 625 456 560 Q456 453 393.5 378 Q331 303 241 303 Z M251 354 Q313 354 355.5 412.5 Q398 471 398 550 Q398 596 377.5 621 Q357 646 320 646 Q260 646 216.5 587.5 Q173 529 173 451 Q173 404 193 379 Q213 354 251 354 Z M256 0 L194 0 L741 690 L801 690 L256 0 Z M658 -2 Q600 -2 566 36 Q532 74 532 140 Q532 244 595 319.5 Q658 395 748 395 Q806 395 839.5 357.5 Q873 320 873 255 Q873 148 810.5 73 Q748 -2 658 -2 Z M668 49 Q730 49 772.5 107.5 Q815 166 815 245 Q815 291 794.5 316 Q774 341 737 341 Q677 341 633.5 282.5 Q590 224 590 146 Q590 99 610 74 Q630 49 668 49 Z " />
<glyph glyph-name="perthousand" unicode="&#x2030;" horiz-adv-x="1281" d="M241 303 Q183 303 149 341 Q115 379 115 445 Q115 549 178 624.5 Q241 700 331 700 Q389 700 422.5 662.5 Q456 625 456 560 Q456 453 393.5 378 Q331 303 241 303 Z M251 354 Q313 354 355.5 412.5 Q398 471 398 550 Q398 596 377.5 621 Q357 646 320 646 Q260 646 216.5 587.5 Q173 529 173 451 Q173 404 193 379 Q213 354 251 354 Z M256 0 L194 0 L741 690 L801 690 L256 0 Z M658 -2 Q600 -2 566 36 Q532 74 532 140 Q532 244 595 319.5 Q658 395 748 395 Q806 395 839.5 357.5 Q873 320 873 255 Q873 148 810.5 73 Q748 -2 658 -2 Z M668 49 Q730 49 772.5 107.5 Q815 166 815 245 Q815 291 794.5 316 Q774 341 737 341 Q677 341 633.5 282.5 Q590 224 590 146 Q590 99 610 74 Q630 49 668 49 Z M1051 -2 Q993 -2 959 36 Q925 74 925 140 Q925 244 988 319.5 Q1051 395 1141 395 Q1199 395 1232.5 357.5 Q1266 320 1266 255 Q1266 148 1203.5 73 Q1141 -2 1051 -2 Z M1061 49 Q1123 49 1165.5 107.5 Q1208 166 1208 245 Q1208 291 1187.5 316 Q1167 341 1130 341 Q1070 341 1026.5 282.5 Q983 224 983 146 Q983 99 1003 74 Q1023 49 1061 49 Z " />
<glyph glyph-name="fraction" unicode="&#x2044;" horiz-adv-x="97" d="M-140 0 L-202 0 L345 690 L405 690 L-140 0 Z " />
<glyph glyph-name="uni2215" unicode="&#x2215;" horiz-adv-x="97" d="M-140 0 L-202 0 L345 690 L405 690 L-140 0 Z " />
<glyph glyph-name="zerosuperior" unicode="&#x2070;" horiz-adv-x="396" d="M241 303 Q183 303 149 341 Q115 379 115 445 Q115 549 178 624.5 Q241 700 331 700 Q389 700 422.5 662.5 Q456 625 456 560 Q456 453 393.5 378 Q331 303 241 303 Z M251 354 Q313 354 355.5 412.5 Q398 471 398 550 Q398 596 377.5 621 Q357 646 320 646 Q260 646 216.5 587.5 Q173 529 173 451 Q173 404 193 379 Q213 354 251 354 Z " />
<glyph glyph-name="onesuperior" unicode="&#xb9;" horiz-adv-x="396" d="M242 653 L325 693 L377 693 L283 305 L227 305 L307 635 L229 599 L242 653 Z " />
<glyph glyph-name="twosuperior" unicode="&#xb2;" horiz-adv-x="396" d="M308 648 Q282 648 255 640 Q228 632 200 616 L213 672 Q240 686 269 693 Q298 700 327 700 Q373 700 399.5 678 Q426 656 426 620 Q426 583 404.5 552.5 Q383 522 324 481 L250 428 Q219 406 204.5 390.5 Q190 375 185 358 L374 358 L361 308 L107 308 L112 327 Q121 363 145 394 Q169 425 209 453 L284 507 Q334 541 350.5 561 Q367 581 367 602 Q367 624 351.5 636 Q336 648 308 648 Z " />
<glyph glyph-name="threesuperior" unicode="&#xb3;" horiz-adv-x="396" d="M219 303 Q186 303 160 309 Q134 315 115 328 L128 382 Q151 368 174.5 361.5 Q198 355 223 355 Q271 355 301.5 377.5 Q332 400 332 435 Q332 459 314.5 472.5 Q297 486 266 486 L211 486 L221 526 L275 526 Q315 526 341.5 546 Q368 566 368 598 Q368 621 350.5 633.5 Q333 646 301 646 Q273 646 244 638 Q215 630 188 615 L202 670 Q229 685 258 692.5 Q287 700 317 700 Q367 700 396.5 677 Q426 654 426 615 Q426 577 404 549.5 Q382 522 338 506 Q363 494 375.5 476 Q388 458 388 434 Q388 376 338.5 339.5 Q289 303 219 303 Z " />
<glyph glyph-name="foursuperior" unicode="&#x2074;" horiz-adv-x="396" d="M331 692 L389 692 L177 428 L309 428 L328 504 L387 533 L361 428 L414 428 L404 380 L350 380 L332 306 L281 306 L299 380 L107 380 L118 427 L331 692 Z " />
<glyph glyph-name="onehalf" unicode="&#xbd;" horiz-adv-x="889" d="M242 653 L325 693 L377 693 L283 305 L227 305 L307 635 L229 599 L242 653 Z M247 0 L185 0 L732 690 L792 690 L247 0 Z M725 343 Q699 343 672 335 Q645 327 617 311 L630 367 Q657 381 686 388 Q715 395 744 395 Q790 395 816.5 373 Q843 351 843 315 Q843 278 821.5 247.5 Q800 217 741 176 L667 123 Q636 101 621.5 85.5 Q607 70 602 53 L791 53 L778 3 L524 3 L529 22 Q538 58 562 89 Q586 120 626 148 L701 202 Q751 236 767.5 256 Q784 276 784 297 Q784 319 768.5 331 Q753 343 725 343 Z " />
<glyph glyph-name="onequarter" unicode="&#xbc;" horiz-adv-x="889" d="M242 653 L325 693 L377 693 L283 305 L227 305 L307 635 L229 599 L242 653 Z M256 0 L194 0 L741 690 L801 690 L256 0 Z M748 387 L806 387 L594 123 L726 123 L745 199 L804 228 L778 123 L831 123 L821 75 L767 75 L749 1 L698 1 L716 75 L524 75 L535 122 L748 387 Z " />
<glyph glyph-name="threequarters" unicode="&#xbe;" horiz-adv-x="889" d="M219 303 Q186 303 160 309 Q134 315 115 328 L128 382 Q151 368 174.5 361.5 Q198 355 223 355 Q271 355 301.5 377.5 Q332 400 332 435 Q332 459 314.5 472.5 Q297 486 266 486 L211 486 L221 526 L275 526 Q315 526 341.5 546 Q368 566 368 598 Q368 621 350.5 633.5 Q333 646 301 646 Q273 646 244 638 Q215 630 188 615 L202 670 Q229 685 258 692.5 Q287 700 317 700 Q367 700 396.5 677 Q426 654 426 615 Q426 577 404 549.5 Q382 522 338 506 Q363 494 375.5 476 Q388 458 388 434 Q388 376 338.5 339.5 Q289 303 219 303 Z M269 0 L207 0 L754 690 L814 690 L269 0 Z M748 387 L806 387 L594 123 L726 123 L745 199 L804 228 L778 123 L831 123 L821 75 L767 75 L749 1 L698 1 L716 75 L524 75 L535 122 L748 387 Z " />
<glyph glyph-name="plus" unicode="&#x2b;" horiz-adv-x="551" d="M414 587 L361 369 L562 369 L549 313 L348 313 L294 93 L235 93 L288 313 L87 313 L100 369 L302 369 L355 587 L414 587 Z " />
<glyph glyph-name="minus" unicode="&#x2212;" horiz-adv-x="551" d="M87 313 L100 369 L562 369 L549 313 L87 313 Z " />
<glyph glyph-name="multiply" unicode="&#xd7;" horiz-adv-x="551" d="M218 532 L330 379 L519 535 L549 494 L360 338 L474 183 L426 146 L313 301 L126 146 L96 187 L283 343 L171 495 L218 532 Z " />
<glyph glyph-name="divide" unicode="&#xf7;" horiz-adv-x="551" d="M317 476 L342 575 L418 575 L393 476 L317 476 Z M87 313 L100 369 L562 369 L549 313 L87 313 Z M228 107 L251 205 L328 205 L304 107 L228 107 Z " />
<glyph glyph-name="equal" unicode="&#x3d;" horiz-adv-x="551" d="M108 398 L121 454 L583 454 L569 398 L108 398 Z M67 232 L81 288 L543 288 L529 232 L67 232 Z " />
<glyph glyph-name="logicalnot" unicode="&#xac;" horiz-adv-x="551" d="M87 313 L100 369 L562 369 L495 91 L436 91 L490 313 L87 313 Z " />
<glyph glyph-name="asciitilde" unicode="&#x7e;" horiz-adv-x="551" d="M88 318 L102 375 Q151 394 172.5 398 Q194 402 217 402 Q238 402 261 398 Q284 394 330 380 Q377 366 401 361.5 Q425 357 447 357 Q474 357 504 365.5 Q534 374 567 391 L554 332 Q506 311 481.5 305.5 Q457 300 431 300 Q408 300 383.5 304.5 Q359 309 314 323 Q270 337 247 341 Q224 345 203 345 Q185 345 165.5 341.5 Q146 338 88 318 Z " />
<glyph glyph-name="less" unicode="&#x3c;" horiz-adv-x="551" d="M86 311 L101 372 L619 599 L602 531 L165 340 L509 151 L493 83 L86 311 Z " />
<glyph glyph-name="greater" unicode="&#x3e;" horiz-adv-x="551" d="M484 343 L140 531 L157 599 L563 372 L549 311 L31 83 L47 151 L484 343 Z " />
<glyph glyph-name="plusminus" unicode="&#xb1;" horiz-adv-x="551" d="M416 605 L366 397 L570 397 L556 341 L353 341 L300 130 L242 130 L293 341 L94 341 L108 397 L307 397 L357 605 L416 605 Z M11 0 L25 55 L486 55 L473 0 L11 0 Z " />
<glyph glyph-name="asciicircum" unicode="&#x5e;" horiz-adv-x="551" d="M148 250 L84 250 L387 690 L443 690 L532 250 L469 250 L398 619 L148 250 Z " />
<glyph glyph-name="notequal" unicode="&#x2260;" horiz-adv-x="551" d="M543 288 L529 232 L277 232 L173 81 L114 81 L218 232 L67 232 L81 288 L257 288 L333 398 L108 398 L121 454 L371 454 L478 609 L537 609 L430 454 L583 454 L569 398 L392 398 L316 288 L543 288 Z " />
<glyph glyph-name="approxequal" unicode="&#x2248;" horiz-adv-x="551" d="M108 400 L122 458 Q172 476 193 480 Q214 484 237 484 Q258 484 281 480 Q304 476 350 462 Q397 448 421 443.5 Q445 439 467 439 Q493 439 522 447 Q551 455 588 473 L574 415 Q529 394 504 388 Q479 382 452 382 Q429 382 404 386.5 Q379 391 333 405 Q290 419 267 423 Q244 427 223 427 Q205 427 185.5 423.5 Q166 420 108 400 Z M68 235 L82 293 Q132 311 153 315 Q174 319 197 319 Q218 319 241 315 Q264 311 310 297 Q357 283 381 278.5 Q405 274 427 274 Q453 274 482 282.5 Q511 291 548 309 L534 250 Q490 230 464 223.5 Q438 217 411 217 Q388 217 363.5 221.5 Q339 226 294 240 Q250 254 227 258 Q204 262 183 262 Q161 262 137.5 257 Q114 252 68 235 Z " />
<glyph glyph-name="lessequal" unicode="&#x2264;" horiz-adv-x="551" d="M94 340 L109 402 L621 608 L605 545 L174 369 L520 195 L505 133 L94 340 Z M11 0 L25 55 L486 55 L473 0 L11 0 Z " />
<glyph glyph-name="greaterequal" unicode="&#x2265;" horiz-adv-x="551" d="M144 545 L159 608 L571 402 L556 340 L44 133 L59 195 L490 372 L144 545 Z M11 0 L25 55 L486 55 L473 0 L11 0 Z " />
<glyph glyph-name="infinity" unicode="&#x221e;" horiz-adv-x="768" d="M88 286 Q88 363 144 417 Q200 471 280 471 Q328 471 364 445.5 Q400 420 436 352 Q499 417 548.5 444 Q598 471 649 471 Q701 471 733.5 438 Q766 405 766 352 Q766 273 709.5 219.5 Q653 166 569 166 Q520 166 482 194.5 Q444 223 419 277 Q368 222 317 194 Q266 166 217 166 Q158 166 123 199 Q88 232 88 286 Z M630 420 Q589 420 543.5 393.5 Q498 367 454 317 Q478 262 506.5 238.5 Q535 215 575 215 Q630 215 670 251.5 Q710 288 710 341 Q710 377 688.5 398.5 Q667 420 630 420 Z M276 420 Q221 420 183 384 Q145 348 145 297 Q145 261 169 238 Q193 215 231 215 Q271 215 312 239 Q353 263 399 314 Q374 367 343.5 393.5 Q313 420 276 420 Z " />
<glyph glyph-name="lozenge" unicode="&#x25ca;" horiz-adv-x="506" d="M417 690 L521 346 L249 0 L188 0 L85 346 L355 690 L417 690 Z M233 64 L453 346 L371 625 L152 346 L233 64 Z " />
<glyph glyph-name="radical" unicode="&#x221a;" horiz-adv-x="535" d="M658 717 L225 0 L160 0 L122 262 L55 262 L71 328 L179 328 L211 81 L604 740 L658 717 Z " />
<glyph glyph-name="integral" unicode="&#x222b;" horiz-adv-x="522" d="M585 750 Q601 750 615.5 747.5 Q630 745 647 738 L630 672 Q618 677 602.5 680 Q587 683 573 683 Q523 683 485 647 Q447 611 418 537 L198 -41 Q167 -126 119.5 -168 Q72 -210 6 -210 Q-12 -210 -28 -207 Q-44 -204 -60 -197 L-43 -132 Q-29 -137 -15 -139.5 Q-1 -142 15 -142 Q52 -142 81.5 -115 Q111 -88 130 -38 L354 547 Q394 651 450.5 700.5 Q507 750 585 750 Z " />
<glyph glyph-name="partialdiff" unicode="&#x2202;" horiz-adv-x="606" d="M539 413 Q536 485 497 562.5 Q458 640 395 696 L443 740 Q521 670 563 579.5 Q605 489 605 388 Q605 308 582.5 238.5 Q560 169 517 115 Q469 55 403 22.5 Q337 -10 264 -10 Q175 -10 119 47.5 Q63 105 63 196 Q63 259 86.5 317 Q110 375 154 421 Q199 468 256.5 493.5 Q314 519 375 519 Q435 519 476.5 492 Q518 465 539 413 Z M377 455 Q282 455 209.5 381.5 Q137 308 137 209 Q137 140 176.5 96.5 Q216 53 279 53 Q373 53 446.5 129.5 Q520 206 520 305 Q520 373 480.5 414 Q441 455 377 455 Z " />
<glyph glyph-name="product" unicode="&#x220f;" horiz-adv-x="701" d="M18 -150 L221 690 L747 690 L543 -150 L470 -150 L657 623 L279 623 L91 -150 L18 -150 Z " />
<glyph glyph-name="pi" unicode="&#x3c0;" horiz-adv-x="707" d="M519 -10 Q480 -10 459.5 11 Q439 32 439 72 Q439 84 440.5 96 Q442 108 446 126 L525 451 L377 451 L234 0 L167 0 L310 451 L254 451 Q207 451 183 428.5 Q159 406 159 363 Q159 357 159.5 346.5 Q160 336 161 329 L106 329 Q105 336 104 348 Q103 360 103 369 Q103 438 145 474 Q187 510 268 510 L748 510 L733 451 L593 451 L516 134 Q513 119 511.5 109.5 Q510 100 510 91 Q510 71 519.5 60.5 Q529 50 548 50 Q562 50 578.5 56.5 Q595 63 608 74 L625 28 Q601 10 573.5 0 Q546 -10 519 -10 Z " />
<glyph glyph-name="mu" unicode="&#xb5;" horiz-adv-x="652" d="M432 98 Q383 48 323.5 19 Q264 -10 206 -10 Q181 -10 158.5 0 Q136 10 124 25 L70 -200 L1 -200 L173 509 L245 509 L163 168 Q160 156 159 146.5 Q158 137 158 130 Q158 93 181 73.5 Q204 54 247 54 Q301 54 353 81.5 Q405 109 444 156 L531 510 L601 510 L508 128 Q506 119 505 111 Q504 103 504 95 Q504 72 513.5 61 Q523 50 542 50 Q556 50 570.5 55.5 Q585 61 597 71 L613 25 Q591 8 565.5 -1 Q540 -10 512 -10 Q472 -10 451 11 Q430 32 430 71 Q430 76 430.5 81.5 Q431 87 432 98 Z " />
<glyph glyph-name="summation" unicode="&#x2211;" horiz-adv-x="532" d="M74 -83 L442 -83 L426 -150 L-31 -150 L-16 -89 L306 255 L157 629 L172 690 L630 690 L614 623 L244 623 L388 253 L74 -83 Z " />
<glyph glyph-name="Omega" unicode="&#x2126;" horiz-adv-x="765" d="M29 0 L44 61 L225 61 Q160 93 125.5 152.5 Q91 212 91 291 Q91 373 123.5 448 Q156 523 216 581 Q275 638 351.5 669 Q428 700 510 700 Q631 700 706.5 626 Q782 552 782 434 Q782 307 710 210 Q638 113 506 61 L683 61 L668 0 L401 0 L416 61 Q552 111 628.5 205 Q705 299 705 417 Q705 514 648 573 Q591 632 497 632 Q431 632 369 604.5 Q307 577 259 527 Q212 478 187 415.5 Q162 353 162 285 Q162 208 201.5 150.5 Q241 93 316 61 L301 0 L29 0 Z " />
<glyph glyph-name="uni03A9" unicode="&#x3a9;" horiz-adv-x="765" d="M29 0 L44 61 L225 61 Q160 93 125.5 152.5 Q91 212 91 291 Q91 373 123.5 448 Q156 523 216 581 Q275 638 351.5 669 Q428 700 510 700 Q631 700 706.5 626 Q782 552 782 434 Q782 307 710 210 Q638 113 506 61 L683 61 L668 0 L401 0 L416 61 Q552 111 628.5 205 Q705 299 705 417 Q705 514 648 573 Q591 632 497 632 Q431 632 369 604.5 Q307 577 259 527 Q212 478 187 415.5 Q162 353 162 285 Q162 208 201.5 150.5 Q241 93 316 61 L301 0 L29 0 Z " />
<glyph glyph-name="increment" unicode="&#x2206;" horiz-adv-x="682" d="M505 690 L634 0 L-17 0 L444 690 L505 690 Z M452 595 L101 66 L547 66 L452 595 Z " />
<glyph glyph-name="uni0394" unicode="&#x394;" horiz-adv-x="682" d="M505 690 L634 0 L-17 0 L444 690 L505 690 Z M452 595 L101 66 L547 66 L452 595 Z " />
<glyph glyph-name="uni2113" unicode="&#x2113;" horiz-adv-x="522" d="M225 -10 Q169 -10 139.5 23.5 Q110 57 110 119 Q110 137 111.5 154 Q113 171 117 188 Q109 184 99.5 179.5 Q90 175 71 165 Q54 158 45.5 154 Q37 150 30 146 L21 190 Q36 197 52 205 Q68 213 127 243 Q150 327 184.5 406 Q219 485 263 552 Q325 645 392.5 697.5 Q460 750 521 750 Q561 750 584 725 Q607 700 607 656 Q607 549 506 445.5 Q405 342 185 223 Q182 214 178 186.5 Q174 159 174 135 Q174 91 193 67.5 Q212 44 248 44 Q284 44 320.5 68 Q357 92 391 138 L421 105 Q382 50 330.5 20 Q279 -10 225 -10 Z M546 638 Q546 665 535 680 Q524 695 504 695 Q437 695 347 571 Q257 447 206 286 Q376 381 461 469 Q546 557 546 638 Z " />
<glyph glyph-name="estimated" unicode="&#x212e;" horiz-adv-x="824" d="M797 311 L797 302 L214 302 Q211 302 210 301 Q209 300 209 298 L209 122 Q209 116 211 111 Q213 106 217 102 Q261 56 318 31 Q375 6 438 6 Q505 6 565 34 Q625 62 670 113 L722 113 Q671 54 596 20.5 Q521 -13 437 -13 Q288 -13 182.5 82 Q77 177 77 311 Q77 445 182.5 540 Q288 635 437 635 Q586 635 691.5 540 Q797 445 797 311 Z M665 325 L665 503 Q665 509 663 514.5 Q661 520 656 524 Q612 568 555.5 592 Q499 616 438 616 Q376 616 319 591.5 Q262 567 218 521 Q213 516 211 511 Q209 506 209 499 L209 325 Q209 323 210.5 321.5 Q212 320 214 320 L661 320 Q663 320 664 321.5 Q665 323 665 325 Z " />
<glyph glyph-name="heart" unicode="&#x2665;" horiz-adv-x="602" d="M216 500 Q246 500 272 482.5 Q298 465 314 435 L322 435 Q338 465 364 482.5 Q390 500 420 500 Q463 500 491 470.5 Q519 441 519 395 Q519 329 462.5 254.5 Q406 180 318 135 Q230 180 173.5 254.5 Q117 329 117 395 Q117 441 145 470.5 Q173 500 216 500 Z " />
</font>
</svg>
