<svg xmlns="http://www.w3.org/2000/svg" xmlns:xlink="http://www.w3.org/1999/xlink" width="133" height="133" viewBox="0 0 133 133">
    <defs>
        <circle id="b" cx="37.5" cy="37.5" r="37.5"/>
        <filter id="a" width="222.7%" height="222.7%" x="-61.3%" y="-58.7%" filterUnits="objectBoundingBox">
            <feOffset dy="2" in="SourceAlpha" result="shadowOffsetOuter1"/>
            <feGaussianBlur in="shadowOffsetOuter1" result="shadowBlurOuter1" stdDeviation="15"/>
            <feColorMatrix in="shadowBlurOuter1" values="0 0 0 0 0.203921569 0 0 0 0 0.168627451 0 0 0 0 0.180392157 0 0 0 0.4 0"/>
        </filter>
    </defs>
    <g fill="none" fill-rule="evenodd">
        <g transform="translate(29.412 27.22)">
            <use fill="#000" filter="url(#a)" xlink:href="#b"/>
            <use fill="#FFF" xlink:href="#b"/>
        </g>
        <path fill="#E22567" fill-rule="nonzero" d="M57.103 62.645c-2.59 0-4.69 2.1-4.69 4.69v8.769a1.136 1.136 0 0 0 1.889.85l1.037-.92a3 3 0 0 1 1.99-.754h7.168a4.594 4.594 0 0 0 4.595-4.594h-7.989a4 4 0 0 1-4-4v-4.041z"/>
        <path fill="#3C3C43" d="M76.346 52.22c2.798 0 5.066 2.258 5.066 5.043v15.266c0 .934-.76 1.69-1.698 1.69-.419 0-.822-.153-1.134-.43l-1.966-1.754a3.048 3.048 0 0 0-2.029-.773H61.48c-2.798 0-5.067-2.258-5.067-5.043v-8.956c0-2.785 2.269-5.043 5.067-5.043h14.867zm0 2.017H61.479a3.033 3.033 0 0 0-3.04 3.026v8.956a3.033 3.033 0 0 0 3.04 3.026h13.106a5.08 5.08 0 0 1 3.382 1.287l1.419 1.266V57.263a3.033 3.033 0 0 0-3.04-3.026zM64.412 60.22a1 1 0 1 1 0 2 1 1 0 0 1 0-2zm4 0a1 1 0 1 1 0 2 1 1 0 0 1 0-2zm4 0a1 1 0 1 1 0 2 1 1 0 0 1 0-2z"/>
    </g>
</svg>
