<svg xmlns="http://www.w3.org/2000/svg" width="39" height="28" viewBox="0 0 39 28">
    <path fill="#FF7900" fill-rule="nonzero" d="M35.185 0A3.821 3.821 0 0 1 39 3.818v20.364A3.821 3.821 0 0 1 35.185 28H3.815A3.821 3.821 0 0 1 0 24.182V3.818A3.821 3.821 0 0 1 3.815 0zm0 2.545H3.815c-.701 0-1.272.571-1.272 1.273v20.364c0 .702.571 1.273 1.272 1.273h31.37c.701 0 1.272-.571 1.272-1.273V3.818c0-.702-.571-1.273-1.272-1.273zM6.5 5C7.328 5 8 5.576 8 6.286v15.428C8 22.424 7.328 23 6.5 23S5 22.424 5 21.714V6.286C5 5.576 5.672 5 6.5 5zm26 0c.828 0 1.5.576 1.5 1.286v15.428c0 .71-.672 1.286-1.5 1.286s-1.5-.576-1.5-1.286V6.286C31 5.576 31.672 5 32.5 5zm-16 15a1.5 1.5 0 1 1 0 3 1.5 1.5 0 0 1 0-3zm5 0a1.5 1.5 0 1 1 0 3 1.5 1.5 0 0 1 0-3zm-10 0a1.5 1.5 0 1 1 0 3 1.5 1.5 0 0 1 0-3zm16 0a1.5 1.5 0 1 1 0 3 1.5 1.5 0 0 1 0-3zm-11-15c.828 0 1.5.582 1.5 1.3v10.4c0 .718-.672 1.3-1.5 1.3s-1.5-.582-1.5-1.3V6.3c0-.718.672-1.3 1.5-1.3zm11 0c.828 0 1.5.582 1.5 1.3v10.4c0 .718-.672 1.3-1.5 1.3s-1.5-.582-1.5-1.3V6.3c0-.718.672-1.3 1.5-1.3zm-6 0c.828 0 1.5.582 1.5 1.3v10.4c0 .718-.672 1.3-1.5 1.3s-1.5-.582-1.5-1.3V6.3c0-.718.672-1.3 1.5-1.3zm-10 0c.828 0 1.5.582 1.5 1.3v10.4c0 .718-.672 1.3-1.5 1.3s-1.5-.582-1.5-1.3V6.3c0-.718.672-1.3 1.5-1.3z"/>
</svg>
