<svg xmlns="http://www.w3.org/2000/svg" width="39" height="28" viewBox="0 0 39 28">
    <path fill="#FF7900" fill-rule="nonzero" d="M30.579 0c1.472 0 2.67 1.1 2.67 2.45v11.529c3.308.818 5.751 3.596 5.751 6.888C39 24.8 35.514 28 31.229 28c-3.788 0-6.95-2.5-7.634-5.797H2.67C1.197 22.203 0 21.104 0 19.753V2.45C0 1.1 1.197 0 2.67 0zm.65 15.834c-3.024 0-5.483 2.258-5.483 5.033 0 2.775 2.46 5.033 5.483 5.033 3.023 0 5.483-2.258 5.483-5.033 0-2.775-2.46-5.033-5.483-5.033zm2.435 2.817l1.39 1.668-4.406 3.094-3.05-1.978 1.32-1.715 1.676 1.087 3.07-2.156zm-2.704-6.5H2.288v7.602c0 .193.17.35.381.35h20.833c.407-3.495 3.576-6.243 7.458-6.364v-1.587zm-11.075 1.982v2.1h-6.522v-2.1h6.522zM30.579 2.1H2.669c-.21 0-.381.157-.381.35v2.797H30.96V2.45c0-.193-.17-.35-.381-.35z"/>
</svg>
