<svg xmlns="http://www.w3.org/2000/svg" xmlns:xlink="http://www.w3.org/1999/xlink" width="24" height="24" viewBox="0 0 24 24">
    <defs>
        <path id="a" d="M11 .5a.5.5 0 0 0-.5-.5H8C5.238 0 3 2.015 3 4.5v2.7H.5a.5.5 0 0 0-.5.5v2.6a.5.5 0 0 0 .5.5H3v6.7a.5.5 0 0 0 .5.5h3a.5.5 0 0 0 .5-.5v-6.7h2.619c.225 0 .422-.15.483-.366l.721-2.6a.5.5 0 0 0-.481-.634H7V4.5c0-.497.447-.9 1-.9h2.5a.5.5 0 0 0 .5-.5V.5z"/>
    </defs>
    <use fill="#ADADAD" fill-rule="evenodd" transform="translate(6 3)" xlink:href="#a"/>
</svg>
