<svg xmlns="http://www.w3.org/2000/svg" xmlns:xlink="http://www.w3.org/1999/xlink" width="24" height="24" viewBox="0 0 24 24">
    <defs>
        <path id="a" d="M15.495 11.98c-.666 2.143-2.326 3.625-4.535 3.952-3.37.5-6.68-2.056-6.943-5.457a6.001 6.001 0 0 1 8.253-6.03.503.503 0 0 0 .642-.216l1.435-2.647a.504.504 0 0 0-.224-.698A9.976 9.976 0 0 0 10.004 0C4.382 0-.156 4.636.004 10.293c.147 5.162 4.407 9.48 9.564 9.698 5.546.235 10.146-4.046 10.425-9.468a83.77 83.77 0 0 0 .003-2.027.497.497 0 0 0-.5-.495h-8.999a.5.5 0 0 0-.5.5v2.98a.5.5 0 0 0 .5.5h4.998"/>
    </defs>
    <use fill="#ADADAD" fill-rule="evenodd" transform="translate(2 2)" xlink:href="#a"/>
</svg>
