<svg xmlns="http://www.w3.org/2000/svg" width="24" height="24" viewBox="0 0 24 24">
    <path fill="#FF7900" fill-rule="nonzero" d="M23.24 12.195l.01-.195c0-.856-.62-1.562-1.42-1.658l-.187-.012-15.944.002 6.483-8.42a1.718 1.718 0 0 0-.101-2.205l-.15-.141a1.563 1.563 0 0 0-2.123.105l-.136.156-8.623 11.2-.077.121-.047.088-.058.13-.06.185-.034.151-.023.2v.197l.03.234.037.156.05.145.031.073a1.606 1.606 0 0 0 .201.336l-.112-.166c.034.058.072.114.113.167l8.572 11.13c.554.72 1.566.836 2.26.26.639-.532.784-1.468.366-2.175l-.116-.172L5.7 13.671l15.944-.001c.824 0 1.503-.645 1.596-1.475L23.25 12l-.01.195z"/>
</svg>
