<svg xmlns="http://www.w3.org/2000/svg" width="30" height="32" viewBox="0 0 30 32">
    <g fill="#FF7900" fill-rule="nonzero">
        <path d="M27.068 0H7.442C6.045 0 4.908 1.024 4.908 2.282V3.74H2.6C1.204 3.74.067 4.764.067 6.022v23.696C.067 30.976 1.204 32 2.6 32h19.627c1.397 0 2.534-1.024 2.534-2.282V28.26h2.306c1.398 0 2.534-1.024 2.534-2.282V2.282C29.602 1.024 28.466 0 27.068 0zm-4.333 29.718c0 .251-.228.456-.507.456H2.6c-.28 0-.507-.205-.507-.456V6.022c0-.252.228-.457.507-.457h2.307v20.413c0 1.258 1.137 2.282 2.534 2.282h15.293v1.458zm4.84-3.74c0 .252-.227.457-.507.457H7.442c-.28 0-.507-.205-.507-.457V2.282c0-.251.227-.456.507-.456h19.626c.28 0 .507.205.507.456v23.696z"/>
        <path d="M24.457 5.01h-14.2c-.534 0-.968.453-.968 1.013 0 .56.434 1.013.968 1.013h14.2c.534 0 .968-.453.968-1.013 0-.56-.434-1.014-.968-1.014zM24.457 9.831h-14.2c-.534 0-.968.454-.968 1.014s.434 1.013.968 1.013h14.2c.534 0 .968-.453.968-1.013 0-.56-.434-1.014-.968-1.014zM24.457 14.653h-14.2c-.534 0-.968.454-.968 1.014s.434 1.013.968 1.013h14.2c.534 0 .968-.453.968-1.013 0-.56-.434-1.014-.968-1.014zM24.457 19.475h-14.2c-.534 0-.968.454-.968 1.014s.434 1.013.968 1.013h14.2c.534 0 .968-.453.968-1.013 0-.56-.434-1.014-.968-1.014z"/>
    </g>
</svg>
