<svg xmlns="http://www.w3.org/2000/svg" xmlns:xlink="http://www.w3.org/1999/xlink" width="32" height="32" viewBox="0 0 32 32">
    <defs>
        <path id="a" d="M1.333 13.333a1.334 1.334 0 1 1 0 2.668 1.334 1.334 0 0 1 0-2.668zm21.42 0c.686 0 1.248.562 1.248 1.248v.171c0 .687-.562 1.248-1.248 1.248H6.58a1.25 1.25 0 0 1-1.247-1.248v-.17c0-.687.56-1.249 1.247-1.249zM1.333 6.667a1.334 1.334 0 1 1 0 2.667 1.334 1.334 0 0 1 0-2.667zm21.42 0c.686 0 1.248.561 1.248 1.248v.17c0 .687-.562 1.248-1.248 1.248H6.58a1.25 1.25 0 0 1-1.247-1.248v-.17c0-.687.56-1.248 1.247-1.248zM1.333 0a1.334 1.334 0 1 1 0 2.668 1.334 1.334 0 0 1 0-2.668zm21.42 0C23.439 0 24 .561 24 1.248v.17c0 .687-.562 1.249-1.248 1.249H6.58a1.25 1.25 0 0 1-1.247-1.248v-.171C5.334.561 5.894 0 6.581 0z"/>
    </defs>
    <use fill="#FF7900" fill-rule="nonzero" transform="translate(4 8)" xlink:href="#a"/>
</svg>
