<svg xmlns="http://www.w3.org/2000/svg" width="32" height="32" viewBox="0 0 32 32">
    <path fill="#FF7900" fill-rule="nonzero" d="M27.314 20.686a15.939 15.939 0 0 0-6.08-3.813A9.247 9.247 0 0 0 25.25 9.25C25.25 4.15 21.1 0 16 0S6.75 4.15 6.75 9.25a9.247 9.247 0 0 0 4.016 7.623 15.939 15.939 0 0 0-6.08 3.813A15.895 15.895 0 0 0 0 32h2.5c0-7.444 6.056-13.5 13.5-13.5S29.5 24.556 29.5 32H32c0-4.274-1.664-8.292-4.686-11.314zM16 16a6.758 6.758 0 0 1-6.75-6.75A6.758 6.758 0 0 1 16 2.5a6.758 6.758 0 0 1 6.75 6.75A6.758 6.758 0 0 1 16 16z"/>
</svg>
