<svg xmlns="http://www.w3.org/2000/svg" width="32" height="32" viewBox="0 0 32 32">
    <path fill="#FF7900" fill-rule="nonzero" d="M31.275 6.484a1.076 1.076 0 0 0-1.761-.365l-5.552 5.558-2.985-.643-.641-2.987 5.551-5.558a1.078 1.078 0 0 0-.364-1.764 10.254 10.254 0 0 0-11.046 2.286 10.242 10.242 0 0 0-2.771 5.074 10.31 10.31 0 0 0 .142 4.955L1.476 23.39A5.014 5.014 0 0 0 0 26.955c0 1.347.524 2.614 1.476 3.567A5.003 5.003 0 0 0 5.039 32a5.003 5.003 0 0 0 3.563-1.477l10.372-10.35c1.61.45 3.307.5 4.95.143a10.28 10.28 0 0 0 7.352-13.832zm-3.745 9.524a8.187 8.187 0 0 1-8.475 1.924 1.08 1.08 0 0 0-1.124.256L6.984 29.059a2.878 2.878 0 0 1-2.05.85 2.878 2.878 0 0 1-2.05-.85 2.885 2.885 0 0 1-.848-2.052c0-.775.301-1.504.849-2.052l10.947-10.87c.294-.295.393-.733.255-1.126a8.209 8.209 0 0 1 1.922-8.484 8.139 8.139 0 0 1 7.098-2.28L18.42 6.888c-.259.26-.37.633-.292.993l.915 4.26c.09.416.414.741.83.83l4.256.917a1.08 1.08 0 0 0 .991-.293l4.688-4.693a8.158 8.158 0 0 1-2.277 7.106z"/>
</svg>
