<svg xmlns="http://www.w3.org/2000/svg" width="20" height="20" viewBox="0 0 20 20"><path d="M10.237 11.074h8.729c.297 0 .534-.263.534-.591 0-.329-.237-.591-.534-.591h-8.729c-.249-1.371-1.345-2.41-2.658-2.41-1.314 0-2.41 1.039-2.66 2.41H1.035c-.297 0-.534.262-.534.59 0 .33.237.592.534.592H4.92c.249 1.37 1.345 2.409 2.659 2.409 1.31 0 2.41-1.034 2.658-2.409zm-4.3-.591c0-1.003.735-1.818 1.642-1.818.906 0 1.642.815 1.642 1.818 0 1.003-.736 1.817-1.642 1.817-.907 0-1.643-.814-1.643-1.817zm8.779-6.409h4.25c.297 0 .534-.263.534-.591 0-.329-.237-.591-.534-.591h-4.25c-.249-1.371-1.345-2.41-2.659-2.41-1.313 0-2.41 1.039-2.658 2.41H1.034c-.297 0-.534.262-.534.59 0 .33.237.592.534.592h8.369c.249 1.37 1.345 2.409 2.658 2.409 1.314 0 2.406-1.038 2.655-2.409zm-4.3-.591c0-1.003.735-1.818 1.641-1.818.907 0 1.643.815 1.643 1.818 0 1.003-.736 1.817-1.643 1.817-.906 0-1.642-.819-1.642-1.817zm4.301 13.591h4.249c.297 0 .534-.263.534-.591 0-.329-.237-.591-.534-.591h-4.249c-.249-1.371-1.345-2.41-2.658-2.41s-2.41 1.039-2.658 2.41H1.034c-.297 0-.534.262-.534.59 0 .33.237.592.534.592h8.37c.25 1.37 1.346 2.409 2.659 2.409 1.313 0 2.405-1.034 2.654-2.409zm-4.3-.591c0-1.003.736-1.818 1.642-1.818.906 0 1.642.815 1.642 1.818 0 1.003-.736 1.817-1.642 1.817-.906 0-1.642-.814-1.642-1.817z" fill="#FF7900"/></svg>