<svg xmlns="http://www.w3.org/2000/svg" width="20" height="20" viewBox="0 0 20 20">
    <path fill="#FF7900" fill-rule="nonzero" d="M10 6.364A3.635 3.635 0 0 0 6.364 10 3.635 3.635 0 0 0 10 13.636 3.635 3.635 0 0 0 13.636 10 3.635 3.635 0 0 0 10 6.364zm8.127 2.727a8.176 8.176 0 0 0-7.218-7.218V.909a.91.91 0 0 0-1.818 0v.964A8.176 8.176 0 0 0 1.873 9.09H.909a.91.91 0 1 0 0 1.818h.964a8.176 8.176 0 0 0 7.218 7.218v.964a.91.91 0 0 0 1.818 0v-.964a8.176 8.176 0 0 0 7.218-7.218h.964a.91.91 0 0 0 0-1.818h-.964zM10 16.364A6.359 6.359 0 0 1 3.636 10 6.359 6.359 0 0 1 10 3.636 6.359 6.359 0 0 1 16.364 10 6.359 6.359 0 0 1 10 16.364z"/>
</svg>
