<svg xmlns="http://www.w3.org/2000/svg" width="17" height="16" viewBox="0 0 17 16">
    <path fill="#FF7900" fill-rule="nonzero" d="M8.622.507L8.5.5c-.535 0-.976.414-1.036.947l-.007.125V12.2L2.195 7.88a1.023 1.023 0 0 0-1.378.067l-.088.1a1.093 1.093 0 0 0 .066 1.416l.097.09 7 5.749.076.051.054.031.082.039.115.04.095.023.125.015h.123l.146-.02.098-.025.09-.033.046-.02a.98.98 0 0 0 .21-.135l-.104.075c.037-.023.071-.048.105-.076l6.955-5.714c.45-.37.523-1.044.163-1.506a1.025 1.025 0 0 0-1.36-.245l-.106.078-5.26 4.321-.002-10.628c0-.55-.402-1.003-.921-1.065L8.5.5l.122.007z"/>
</svg>
