<svg xmlns="http://www.w3.org/2000/svg" width="76" height="76" viewBox="0 0 76 76">
    <g fill="none" fill-rule="evenodd">
        <circle cx="38" cy="38" r="38" fill="#FFF"/>
        <g fill="#FF7900" fill-rule="nonzero">
            <path d="M53.099 48H41.994c-1.048 0-1.901.885-1.901 1.973v.226a5.333 5.333 0 0 0-3.186 0v-.226c0-1.088-.853-1.973-1.901-1.973h-6.145c-.454 0-.822.382-.822.853 0 .47.368.852.822.852h6.145c.142 0 .258.12.258.268v5.099c0 2.328-1.825 4.223-4.069 4.223h-1.259c-3.47 0-6.293-2.93-6.293-6.532v-2.79c0-.147.116-.268.258-.268h1.893c.453 0 .821-.381.821-.852S26.247 48 25.794 48H23.9C22.853 48 22 48.885 22 49.973v2.79C22 57.305 25.56 61 29.936 61h1.259c3.15 0 5.712-2.66 5.712-5.928v-3.068c1.068-.455 2.118-.455 3.186 0v3.068c0 3.269 2.562 5.928 5.712 5.928h1.259C51.44 61 55 57.305 55 52.763v-2.79C55 48.885 54.148 48 53.099 48zm.258 4.763c0 3.601-2.823 6.532-6.293 6.532h-1.259c-2.243 0-4.069-1.895-4.069-4.223v-5.099c0-.147.116-.267.258-.267h11.105c.142 0 .258.12.258.267v2.79zM53.37 29.397a31.904 31.904 0 0 0-1-3.572.826.826 0 0 0-1.039-.502.792.792 0 0 0-.515 1.01c.34.985.635 2.02.887 3.116a89.96 89.96 0 0 1-27.409 0c.965-4.23 2.575-7.569 4.935-10.29 2.06-2.376 6.055-2.008 7.57.852.233.438.693.711 1.201.711.011-.003.81.025 1.201-.711 1.518-2.865 5.513-3.225 7.57-.852.966 1.114 1.69 2.146 2.815 4.362a.83.83 0 0 0 1.099.362.787.787 0 0 0 .372-1.068c-1.215-2.394-1.983-3.474-3.031-4.683-2.688-3.1-7.784-2.782-10.026.708-2.25-3.502-7.348-3.796-10.026-.708-2.591 2.988-4.333 6.639-5.347 11.265C18.948 29.953 10 31.562 10 35.19c0 9.06 56 9.099 56 0 0-3.63-8.954-5.238-12.63-5.793zm-1.347 1.617c.17.93.313 1.893.433 2.954-9.666 2.167-19.45 2.345-28.914.015.11-.979.253-1.976.435-2.97 4.654.72 9.339 1.08 14.023 1.08 4.684 0 9.369-.36 14.023-1.08zm5.013 7.675C51.96 39.818 45.2 40.439 38 40.439c-7.2 0-13.96-.622-19.036-1.75-5.405-1.203-7.323-2.636-7.323-3.499 0-.651 1.091-1.475 2.92-2.204 1.894-.755 4.553-1.415 7.74-1.924a48.168 48.168 0 0 0-.463 3.44c-.04.4.224.753.605.851A59.905 59.905 0 0 0 35.67 37.23c.645.02 1.293.03 1.943.03 5.191 0 10.513-.634 15.925-1.902a.8.8 0 0 0 .625-.852 48.303 48.303 0 0 0-.465-3.444c3.188.51 5.848 1.169 7.741 1.924 1.829.729 2.92 1.553 2.92 2.204 0 .863-1.918 2.296-7.323 3.499z"/>
        </g>
        <path stroke="#282832" stroke-width="3" d="M5.5 68.5l61-61"/>
    </g>
</svg>
