<svg xmlns="http://www.w3.org/2000/svg" width="76" height="76" viewBox="0 0 76 76">
    <g fill="none" fill-rule="evenodd">
        <circle cx="38" cy="38" r="38" fill="#FFF"/>
        <g fill="#FF7900" fill-rule="nonzero">
            <path d="M35.094 59H23.28A3.285 3.285 0 0 1 20 55.719V30.78a3.285 3.285 0 0 1 3.281-3.281h11.813a3.285 3.285 0 0 1 3.281 3.281V55.72A3.285 3.285 0 0 1 35.094 59zM23.28 28.812a1.971 1.971 0 0 0-1.968 1.97v24.937c0 1.085.883 1.968 1.968 1.968h11.813a1.971 1.971 0 0 0 1.968-1.968V30.78a1.971 1.971 0 0 0-1.968-1.968H23.28z"/>
            <path d="M29.188 47.188a3.285 3.285 0 0 1-3.282-3.282 3.285 3.285 0 0 1 3.282-3.281 3.285 3.285 0 0 1 3.28 3.281 3.285 3.285 0 0 1-3.28 3.282zm0-5.25a1.971 1.971 0 0 0-1.97 1.968c0 1.086.884 1.969 1.97 1.969a1.971 1.971 0 0 0 1.968-1.969 1.971 1.971 0 0 0-1.968-1.968zM24.594 34.063a1.971 1.971 0 0 1-1.969-1.97c0-1.085.883-1.968 1.969-1.968 1.085 0 1.968.883 1.968 1.969a1.971 1.971 0 0 1-1.968 1.968zm0-2.626a.657.657 0 1 0 .001 1.315.657.657 0 0 0-.001-1.315zM27.895 32.75a.659.659 0 0 1-.66-.656c0-.362.29-.657.652-.657h.008a.656.656 0 0 1 0 1.313zM33.781 56.375h-9.187a.655.655 0 1 1 0-1.313h9.187a.655.655 0 1 1 0 1.313zM56.094 53.094a.655.655 0 0 1-.657-.657 3.285 3.285 0 0 0-3.28-3.28.655.655 0 1 1 0-1.313 4.6 4.6 0 0 1 4.593 4.593.655.655 0 0 1-.656.657z"/>
            <path d="M52.156 49.156H46.25a.655.655 0 1 1 0-1.312h5.906a.655.655 0 1 1 0 1.312zM56.094 59a.655.655 0 0 1-.657-.656v-5.907a.655.655 0 1 1 1.313 0v5.907a.655.655 0 0 1-.656.656zM37.964 49.14a.656.656 0 0 1-.657-.656v-3.679a.655.655 0 1 1 1.313 0v3.68a.656.656 0 0 1-.656.656z"/>
            <path d="M46.25 49.156a.655.655 0 0 1-.656-.656v-3.153a.656.656 0 1 1 1.312 0V48.5a.655.655 0 0 1-.656.656zM42.969 46.526c-1.963 0-3.893-.516-5.58-1.494a.655.655 0 0 1-.24-.896.653.653 0 0 1 .897-.239 9.837 9.837 0 0 0 4.923 1.317.655.655 0 1 1 0 1.312z"/>
            <path d="M42.969 46.526a.656.656 0 1 1 0-1.312c4.697 0 8.76-3.342 9.66-7.944a.655.655 0 1 1 1.288.251c-1.021 5.219-5.626 9.005-10.948 9.005zM54.781 30.781a.656.656 0 0 1-.656-.656c0-6.513-5.3-11.813-11.813-11.813-5.846 0-10.751 4.183-11.665 9.947a.656.656 0 1 1-1.296-.206C30.366 21.648 35.818 17 42.313 17c7.237 0 13.124 5.888 13.124 13.125a.656.656 0 0 1-.656.656z"/>
            <path d="M54.781 45.875a.655.655 0 0 1-.656-.656V30.263a.656.656 0 1 1 1.313 0v14.956a.655.655 0 0 1-.657.656z"/>
            <path d="M54.781 38.656a.662.662 0 0 1-.243-.046l-17.064-6.825a.656.656 0 1 1 .487-1.22l17.064 6.826a.657.657 0 0 1-.244 1.265zM53.469 47.182a.656.656 0 1 1 0-1.312.657.657 0 0 0 .656-.656.655.655 0 1 1 1.313 0 1.971 1.971 0 0 1-1.97 1.968z"/>
            <path d="M53.469 47.188H46.25a.655.655 0 1 1 0-1.313h7.219a.655.655 0 1 1 0 1.313zM35.094 28.813a.656.656 0 0 1-.657-.657v-8.198a.656.656 0 1 1 1.313 0v8.198a.656.656 0 0 1-.656.657zM41.984 51.781a.655.655 0 0 1-.343-.097l-4.266-2.625a.657.657 0 0 1 .688-1.118l4.266 2.625a.657.657 0 0 1-.345 1.215z"/>
            <path d="M41.985 51.781a.656.656 0 0 1-.345-1.215l4.266-2.625a.656.656 0 1 1 .688 1.118l-4.266 2.625a.65.65 0 0 1-.343.097zM41.984 55.063a.661.661 0 0 1-.364-.11l-4.268-2.846a.656.656 0 1 1 .728-1.092l4.269 2.845a.656.656 0 0 1-.365 1.203z"/>
            <path d="M41.985 55.063a.655.655 0 0 1-.365-1.203l8.86-5.906a.656.656 0 1 1 .728 1.092l-8.86 5.906a.661.661 0 0 1-.363.11z"/>
        </g>
    </g>
</svg>
