<svg xmlns="http://www.w3.org/2000/svg" width="84" height="85" viewBox="0 0 84 85"><g fill="none" fill-rule="evenodd"><g fill="#6A6A6A" fill-rule="nonzero"><path stroke="#FFF" stroke-width=".7" d="M80.759 58.174l-1.992-1.98a7.011 7.011 0 0 0-8.825-.898l-1.094-1.095a1.402 1.402 0 0 0-2.393.997c0 .374.15.733.415.997l1.978 1.98a1.405 1.405 0 0 0 1.978 0 4.333 4.333 0 0 1 5.963 0l1.978 1.992a4.213 4.213 0 0 1 .827 4.787l-4.798-4.787a1.402 1.402 0 0 0-.982-.42 1.402 1.402 0 0 0-.996.42L66.87 66.12a1.404 1.404 0 0 0 0 1.98l4.784 4.8a4.207 4.207 0 0 1-4.784-.828l-1.992-1.979a4.213 4.213 0 0 1 0-5.966 1.404 1.404 0 0 0 0-1.98L62.9 60.168a1.403 1.403 0 1 0-1.992 1.98l1.094 1.095a7.022 7.022 0 0 0 .898 8.83l1.978 1.979a7.011 7.011 0 0 0 9.918 0c.265-.26.416-.613.421-.983a1.404 1.404 0 0 0-.42-.997l-4.953-4.955 3.97-3.973 4.953 4.942a1.402 1.402 0 0 0 1.992 0 7.022 7.022 0 0 0 0-9.925v.014zM70.062 45.586a5.55 5.55 0 0 0-1.722-4.035 5.44 5.44 0 0 0-4.092-1.49 5.555 5.555 0 0 0-1.606-4.25 5.442 5.442 0 0 0-4.221-1.593c.007-.12.007-.24 0-.36a5.55 5.55 0 0 0-1.722-4.033 5.44 5.44 0 0 0-4.092-1.491v-.345a5.525 5.525 0 0 0-3.36-4.982 5.432 5.432 0 0 0-5.873 1.087l-1.942 1.96-3.926-3.977c2.83-3.867 2.416-9.246-.971-12.624l-4.829-4.89a9.529 9.529 0 0 0-6.771-2.832 9.529 9.529 0 0 0-6.771 2.832 1.39 1.39 0 0 0 0 1.947l7.742 7.818-3.871 3.978-7.729-7.887a1.361 1.361 0 0 0-1.942 0 9.717 9.717 0 0 0-2.805 6.837 9.717 9.717 0 0 0 2.805 6.838l4.842 4.89a9.507 9.507 0 0 0 12.503.897l.903.925a1.359 1.359 0 0 0 1.928 0 1.388 1.388 0 0 0 0-1.961l-1.792-1.823a1.361 1.361 0 0 0-1.942 0 6.793 6.793 0 0 1-9.67 0l-4.83-4.876a6.957 6.957 0 0 1-.875-8.688l7.633 7.707a1.361 1.361 0 0 0 1.942 0l5.8-5.856a1.388 1.388 0 0 0 0-1.961L21.173 5.64a6.79 6.79 0 0 1 8.604.87l4.829 4.89c2.67 2.697 2.67 7.069 0 9.765a1.388 1.388 0 0 0 0 1.962l4.842 4.848-9.67 9.765a1.382 1.382 0 0 0-.315.484l-4.706 12.348-23.254 19.24a1.39 1.39 0 0 0-.192 1.948 1.36 1.36 0 0 0 1.916.193l23.54-19.434a1.36 1.36 0 0 0 .411-.58l4.733-12.43 10.437-10.54 2.9-2.928a2.722 2.722 0 0 1 1.936-.81 2.72 2.72 0 0 1 1.935.81c.51.512.8 1.207.807 1.934 0 .736-.29 1.442-.807 1.961l-6.675 6.74a1.39 1.39 0 0 0 0 1.948 1.359 1.359 0 0 0 1.929 0l6.689-6.74a2.717 2.717 0 0 1 3.857 0c.514.518.802 1.221.802 1.954 0 .733-.288 1.436-.802 1.955l-7.36 7.43a1.391 1.391 0 0 0-.3 1.511 1.37 1.37 0 0 0 1.272.852 1.37 1.37 0 0 0 .958-.415l7.372-7.43a2.72 2.72 0 0 1 2.644-.716 2.75 2.75 0 0 1 1.936 1.954 2.782 2.782 0 0 1-.708 2.67l-7.373 7.459a1.388 1.388 0 0 0 0 1.961 1.361 1.361 0 0 0 1.942 0l7.36-7.445a2.798 2.798 0 0 1 3.87 0c.513.522.798 1.227.794 1.962 0 .729-.285 1.43-.794 1.947L53.195 61l-12.31 4.78a1.368 1.368 0 0 0-.575.414l-13.077 16.16a1.39 1.39 0 0 0 .191 1.934c.254.212.574.325.903.318.41-.003.796-.19 1.054-.512l12.858-15.87 12.31-4.751c.175-.069.333-.172.466-.304l13.542-13.675a5.555 5.555 0 0 0 1.505-3.908z"/><path d="M33.406 21.918a.531.531 0 1 1 0 1.063.531.531 0 0 1 0-1.063zm0-2.125a.531.531 0 1 1 0 1.063.531.531 0 0 1 0-1.063zm-2.125 0a.531.531 0 1 1 0 1.063.531.531 0 0 1 0-1.063zm0-2.125a.531.531 0 1 1 0 1.063.531.531 0 0 1 0-1.063zm2.125 0a.531.531 0 1 1 0 1.063.531.531 0 0 1 0-1.063zm2.125 0a.531.531 0 1 1 0 1.063.531.531 0 0 1 0-1.063zm0-2.125a.531.531 0 1 1 0 1.063.531.531 0 0 1 0-1.063zm-2.125 0a.531.531 0 1 1 0 1.063.531.531 0 0 1 0-1.063zm-2.125 0a.531.531 0 1 1 0 1.063.531.531 0 0 1 0-1.063zm-1.062-2.125a.531.531 0 1 1 0 1.063.531.531 0 0 1 0-1.063zm2.125 0a.531.531 0 1 1 0 1.063.531.531 0 0 1 0-1.063zm2.125 0a.531.531 0 1 1 0 1.063.531.531 0 0 1 0-1.063zm-5.313-2.125a.531.531 0 1 1 0 1.063.531.531 0 0 1 0-1.063zm2.125 0a.531.531 0 1 1 0 1.063.531.531 0 0 1 0-1.063zm2.125 0a.531.531 0 1 1 0 1.063.531.531 0 0 1 0-1.063zm-4.25-2.125a.531.531 0 1 1 0 1.063.531.531 0 0 1 0-1.063zm2.125 0a.531.531 0 1 1 0 1.063.531.531 0 0 1 0-1.063zm-4.25-1.062a.531.531 0 1 1 0 1.062.531.531 0 0 1 0-1.062zm-2.125-1.063a.531.531 0 1 1 0 1.063.531.531 0 0 1 0-1.063zm4.25 0a.531.531 0 1 1 0 1.063.531.531 0 0 1 0-1.063zm-2.125-1.062a.531.531 0 1 1 0 1.062.531.531 0 0 1 0-1.062zm-2.125-1.063a.531.531 0 1 1 0 1.063.531.531 0 0 1 0-1.063zm44.625 66.938a.531.531 0 1 1 0 1.062.531.531 0 0 1 0-1.062zm-2.125-1.063a.531.531 0 1 1 0 1.063.531.531 0 0 1 0-1.063zm-1.062-1.062a.531.531 0 1 1 0 1.062.531.531 0 0 1 0-1.062zm2.125 0a.531.531 0 1 1 0 1.062.531.531 0 0 1 0-1.062zm-3.188-1.063a.531.531 0 1 1 0 1.063.531.531 0 0 1 0-1.063zm2.125 0a.531.531 0 1 1 0 1.063.531.531 0 0 1 0-1.063zm-3.187-1.062a.531.531 0 1 1 0 1.062.531.531 0 0 1 0-1.062zm2.125 0a.531.531 0 1 1 0 1.062.531.531 0 0 1 0-1.062zm-1.063-1.063a.531.531 0 1 1 0 1.063.531.531 0 0 1 0-1.063zm-1.062-1.062a.531.531 0 1 1 0 1.062.531.531 0 0 1 0-1.062zm2.125-1.063a.531.531 0 1 1 0 1.063.531.531 0 0 1 0-1.063zm-1.063-1.062a.531.531 0 1 1 0 1.062.531.531 0 0 1 0-1.062zm2.125 0a.531.531 0 1 1 0 1.062.531.531 0 0 1 0-1.062zm-1.062-1.063a.531.531 0 1 1 0 1.063.531.531 0 0 1 0-1.063zm2.125 0l.086.007a.531.531 0 0 1 0 1.049l-.086.007a.531.531 0 1 1 0-1.063zm-3.188-1.062a.531.531 0 1 1 0 1.062.531.531 0 0 1 0-1.062zm2.125 0a.531.531 0 1 1 0 1.062.531.531 0 0 1 0-1.062zm2.125 0a.531.531 0 1 1 0 1.062.531.531 0 0 1 0-1.062zm-3.187-1.063a.531.531 0 1 1 0 1.063.531.531 0 0 1 0-1.063zm-2.125-1.062a.531.531 0 1 1 0 1.062.531.531 0 0 1 0-1.062z"/></g><path fill="#FF7900" d="M32.269 25.742c1.356 1.306 8.696-3.775 8.696-10.816C40.965 7.884 30.98 0 25.97 0c-5.012 0-10.683 3.996-10.683 8.32 0 4.323 15.626 16.115 16.983 17.422zm35.136 51.426c4.078 2.038 8.322-1.642 10.083-4.134 1.76-2.491-8.71-15.01-13.698-15.01-4.988 0-4.621 3.932-4.621 8.92 0 4.988 4.159 8.186 8.236 10.224z" style="mix-blend-mode:multiply"/></g></svg>