<svg xmlns="http://www.w3.org/2000/svg" width="128" height="58" viewBox="0 0 128 58"><g fill="none" fill-rule="evenodd"><g fill="#676767" fill-rule="nonzero" stroke="#FFF"><path d="M48.528 24h7.181c1.055 0 1.91.895 1.91 2s-.855 2-1.91 2h-7.18c-1.055 0-1.91-.895-1.91-2s.855-2 1.91-2zm53.091 14c3.308 0 6 2.692 6 6s-2.692 6-6 6c-3.309 0-6-2.692-6-6s2.691-6 6-6zm0 8.26a2.263 2.263 0 0 0 2.26-2.26 2.263 2.263 0 0 0-2.26-2.26 2.263 2.263 0 0 0-2.26 2.26 2.263 2.263 0 0 0 2.26 2.26zm-83-8.26c3.308 0 6 2.692 6 6s-2.692 6-6 6c-3.309 0-6-2.692-6-6s2.691-6 6-6zm0 8.26a2.263 2.263 0 0 0 2.26-2.26 2.263 2.263 0 0 0-2.26-2.26 2.263 2.263 0 0 0-2.26 2.26 2.263 2.263 0 0 0 2.26 2.26z"/><path d="M.765 32.363c.491-3.866 2.199-7.572 4.856-10.424a18.758 18.758 0 0 1 9.515-5.488l7.667-7.335A25.533 25.533 0 0 1 40.53 2H55.4c8.237 0 16.49 1.943 23.869 5.62a1.934 1.934 0 0 1 .868 2.59 1.928 1.928 0 0 1-2.587.87A49.921 49.921 0 0 0 55.4 5.863h-9.836L44.009 17.38l47.657 1.852-7.236-4.25a1.934 1.934 0 0 1-.688-2.644 1.928 1.928 0 0 1 2.64-.69l13.457 7.904 6.793.303c2.154.096 4.23.565 6.158 1.349.051.016.103.033.153.054a18.609 18.609 0 0 1 9.222 8.292c.43.787.801 1.605 1.117 2.444.63 1.675 1.094 3.43 1.622 5.14l1.314 4.253.142.46a5.65 5.65 0 0 1-.857 5.065 5.634 5.634 0 0 1-4.579 2.316h-7.39C111.582 53.794 107.05 57 101.786 57c-5.265 0-9.796-3.207-11.75-7.772h-59.03C29.051 53.794 24.52 57 19.255 57s-9.796-3.207-11.75-7.772H2.549a1.93 1.93 0 0 1-1.93-1.932V34.668c0-.771.05-1.541.147-2.305zm9.101-9.126a14.902 14.902 0 0 0-5.004 8.08 6.071 6.071 0 0 0 5.004-5.972v-2.108zM40.53 5.864a21.693 21.693 0 0 0-15.061 6.047l-4.772 4.563 19.439.756L41.67 5.864h-1.14zm78.823 26.705c-.083-.191-.17-.38-.261-.568l-.007-.014a14.85 14.85 0 0 0-5.087-5.796v.533a6.07 6.07 0 0 0 5.435 6.033 17.822 17.822 0 0 0-.08-.188zm-24.82 16.826a9.002 9.002 0 0 0 3.58 2.948 8.891 8.891 0 0 0 9.05-1.02 8.98 8.98 0 0 0 3.54-7.119c0-4.924-4-8.93-8.918-8.93-4.918 0-8.919 4.006-8.919 8.936a8.972 8.972 0 0 0 1.668 5.185zm-5.473-4.03a12.85 12.85 0 0 1-.052-1.16c0-7.056 5.731-12.796 12.777-12.796 7.045 0 12.777 5.74 12.777 12.796v.011c0 .371-.019.769-.053 1.148h6.415a1.81 1.81 0 0 0 1.473-.746c.349-.473.45-1.067.276-1.63l-1.964-6.358a9.849 9.849 0 0 1-.655.023c-5.467 0-9.915-4.454-9.915-9.929v-2.22c0-.049.003-.098.004-.147a14.681 14.681 0 0 0-3.683-.642l-7.26-.323-11.259-.438c.725 4.574 1.728 14.603-1.664 22.41h2.783zm-31.326-.001h24.242c4.121-7.31 2.7-18.59 2.02-22.563l-40.413-1.57c-.228 4-.23 13.878 4.632 19.676 2.343 2.793 5.457 4.25 9.52 4.457zm-47.378-.578c.308 4.603 4.245 8.35 8.899 8.35 4.814 0 8.918-4.111 8.918-8.931 0-4.925-4-8.931-8.918-8.931-4.918 0-8.918 4.006-8.918 8.93 0 .196.006.39.019.582zm-5.879.578H6.53c-.648-7.134 4.938-13.575 12.068-13.938.218-.01.436-.017.657-.017 7.045 0 12.776 5.74 12.776 12.796 0 .382-.018.775-.052 1.159h15.24a16.488 16.488 0 0 1-1.967-1.982c-5.739-6.854-5.799-17.732-5.532-22.301l-23.48-.913a14.67 14.67 0 0 0-2.74.858 9.96 9.96 0 0 1 .225 2.1v2.22c0 5.25-4.09 9.558-9.248 9.903v10.115z"/></g><circle cx="98.5" cy="41.5" r="11.5" fill="#FF7900" style="mix-blend-mode:multiply"/><circle cx="19.5" cy="41.5" r="11.5" fill="#FF7900" style="mix-blend-mode:multiply"/><ellipse cx="117.628" cy="29.233" fill="#FF7900" rx="5.933" ry="2.976" style="mix-blend-mode:multiply" transform="rotate(60 117.628 29.233)"/><ellipse cx="6.93" cy="26.206" fill="#FF7900" rx="6.138" ry="3.079" style="mix-blend-mode:multiply" transform="scale(-1 1) rotate(60 0 14.203)"/><path fill="#FF7900" d="M64.54 17.22c10.419.547 17.325.496 26.183.819.075-11.57-36.562-19.188-40.84-16.608-2.852 1.72-4.314 6.762-4.385 15.128 5.749.076 12.096.296 19.042.661z" style="mix-blend-mode:multiply"/></g></svg>