<svg xmlns="http://www.w3.org/2000/svg" width="75" height="91" viewBox="0 0 75 91"><g fill="none" fill-rule="evenodd"><path fill="#6A6A6A" fill-rule="nonzero" stroke="#FFF" d="M76.046 71.961l-.196-.192-3.97-16.397c-1.63-6.728-7.683-11.428-14.727-11.428h-.11a.978.978 0 0 0-.991.965c0 .53.441.964.99.964h.111c6.117 0 11.381 4.088 12.799 9.942l3.227 13.329L59.237 55.44a1.004 1.004 0 0 0-.703-.286h-6.636a1.01 1.01 0 0 0-.362.07l-.22.084-.206-.117a24.208 24.208 0 0 0-11.94-3.139 24.18 24.18 0 0 0-11.942 3.139l-.205.116-.22-.084a1.011 1.011 0 0 0-.362-.069h-6.635c-.265 0-.518.104-.704.286L5.154 69.15 8.36 55.832c1.412-5.864 6.679-9.959 12.803-9.959h11.62l.142.122a9.456 9.456 0 0 0 6.226 2.308c2.522 0 4.89-.964 6.671-2.715a.953.953 0 0 0 .288-.68v-7.795l.237-.146c3.185-1.96 5.428-5.137 6.145-8.774l.08-.403h1.57c2.52 0 4.567-2.012 4.567-4.48v-.79c0-2.469-2.047-4.481-4.567-4.481H52.74v-2.19C52.74 8.49 46.645 2.5 39.15 2.5S25.56 8.49 25.56 15.848v2.191h-1.4c-2.52 0-4.568 2.012-4.568 4.48v.79c0 2.469 2.047 4.48 4.567 4.48h1.57l.08.404c.717 3.637 2.96 6.813 6.145 8.774l.237.146v6.83H21.163a15.378 15.378 0 0 0-9.394 3.21 14.905 14.905 0 0 0-5.337 8.238L2.49 71.77l-.195.192a2.612 2.612 0 0 0-.587 2.894 2.707 2.707 0 0 0 2.51 1.645h10.091a.996.996 0 0 0 .855-.477l5.265-8.745.432.273.458.29c.382.24.806.405 1.253.49l.606.114-.238.57a16.865 16.865 0 0 0-1.306 6.52c0 .53.442.965.99.965.55 0 .991-.434.991-.965 0-3.58 1.262-6.975 3.53-9.692l.347-.416 6.998 6.878-.21.34a5.488 5.488 0 0 0-.82 2.89c0 .53.442.965.99.965.55 0 .991-.434.991-.965 0-2.028 1.675-3.674 3.73-3.674 2.054 0 3.729 1.646 3.729 3.674 0 .53.441.965.99.965.55 0 .99-.434.99-.965a5.488 5.488 0 0 0-.82-2.89l-.209-.34 6.998-6.878.348.416a15.071 15.071 0 0 1 3.529 9.692c0 .531.441.965.99.965.55 0 .99-.434.99-.965 0-2.262-.447-4.466-1.305-6.52l-.238-.57.606-.114c.447-.085.871-.25 1.253-.49l.89-.563 5.265 8.745a.996.996 0 0 0 .855.477h10.09c1.106 0 2.09-.646 2.51-1.645.42-.996.192-2.13-.585-2.894zM56.728 22.52v.79c0 1.41-1.162 2.551-2.586 2.551H52.74V19.97h1.4c1.425 0 2.587 1.142 2.587 2.55zm-29.187-6.67c0-6.3 5.21-11.42 11.61-11.42 6.4 0 11.609 5.12 11.609 11.42v2.19h-4.414a4.802 4.802 0 0 1-2.437-.657l-.667-.39.63-.448a18.709 18.709 0 0 0 2.28-1.91.947.947 0 0 0 0-1.36 1.01 1.01 0 0 0-1.406 0c-3.126 3.073-7.282 4.765-11.7 4.765H27.54v-2.19zm-5.968 7.46v-.79c0-1.408 1.162-2.55 2.587-2.55h1.4v5.891h-1.4c-1.425 0-2.587-1.142-2.587-2.55zm6.969 2.343zm-1 0V19.97h5.503c2.86 0 5.635-.632 8.156-1.848l.305-.146.25.227a6.772 6.772 0 0 0 4.59 1.767h4.414v5.68c0 6.299-5.21 11.419-11.61 11.419-6.398 0-11.607-5.118-11.608-11.416zM39.15 38.998c1.485 0 2.939-.236 4.32-.692l.657-.217v6.413l-.18.15c-2.763 2.291-6.831 2.291-9.594 0l-.181-.15V38.09l.657.217c1.382.456 2.835.692 4.32.692zM50 57.386l-1.208 2.032a3.46 3.46 0 0 0-.344.79l-.176.596-.545-.3a17.666 17.666 0 0 0-8.558-2.196c-3.036 0-5.962.763-8.559 2.196l-.544.3-.177-.596a3.46 3.46 0 0 0-.343-.79l-1.474-2.477.455-.249a22.168 22.168 0 0 1 10.642-2.71c3.73 0 7.397.935 10.642 2.71l.454.248-.265.446zM13.741 74.57H4.217a.68.68 0 0 1-.36-.088.725.725 0 0 1-.318-.36c-.144-.342-.039-.607.162-.802l8.821-8.67 4.519 4.44-3.3 5.48zm6.896-9.46a1.01 1.01 0 0 0-.77-.129.988.988 0 0 0-.623.45l-1.166 1.937-4.16-4.09 6.3-6.193h5.652l.146.245 1.817 3.056a1.57 1.57 0 0 1-.162 1.829l-3.195 3.7c-.517.6-1.409.73-2.08.306l-1.76-1.111zm15.25 5.828l-7.003-6.883.437-.352a15.644 15.644 0 0 1 9.849-3.465c3.636 0 7.087 1.238 9.849 3.465l.436.352-7.002 6.883-.331-.198a5.752 5.752 0 0 0-2.952-.809 5.751 5.751 0 0 0-2.952.81l-.332.197zm21.816-5.828zm0 0l-1.759 1.111a1.618 1.618 0 0 1-2.08-.306l-3.195-3.7a1.569 1.569 0 0 1-.162-1.83l1.962-3.3h5.652l6.301 6.194-4.16 4.089-.327-.543-.84-1.394a.988.988 0 0 0-.623-.45 1.013 1.013 0 0 0-.77.129zM74.8 74.122a.725.725 0 0 1-.317.36.68.68 0 0 1-.36.088h-9.525l-3.3-5.48 4.519-4.44.35.344 8.47 8.324c.202.196.307.462.163.804z"/><path fill="#6A6A6A" fill-rule="nonzero" d="M29.5 17a.5.5 0 1 1 0 1 .5.5 0 0 1 0-1zm20-1a.5.5 0 1 1 0 1 .5.5 0 0 1 0-1zm-2 0a.5.5 0 1 1 0 1 .5.5 0 0 1 0-1zm-15 0a.5.5 0 1 1 0 1 .5.5 0 0 1 0-1zm3-1a.5.5 0 1 1 0 1 .5.5 0 0 1 0-1zm-7 0a.5.5 0 1 1 0 1 .5.5 0 0 1 0-1zm2 0a.5.5 0 1 1 0 1 .5.5 0 0 1 0-1zm3-1a.5.5 0 1 1 0 1 .5.5 0 0 1 0-1zm3 0a.5.5 0 1 1 0 1 .5.5 0 0 1 0-1zm2 0a.5.5 0 1 1 0 1 .5.5 0 0 1 0-1zm10 0a.5.5 0 1 1 0 1 .5.5 0 0 1 0-1zm-19-1a.5.5 0 1 1 0 1 .5.5 0 0 1 0-1zm2 0a.5.5 0 1 1 0 1 .5.5 0 0 1 0-1zm9 0a.5.5 0 1 1 0 1 .5.5 0 0 1 0-1zm-4-1a.5.5 0 1 1 0 1 .5.5 0 0 1 0-1zm-3 0a.5.5 0 1 1 0 1 .5.5 0 0 1 0-1zm9 0a.5.5 0 1 1 0 1 .5.5 0 0 1 0-1zm6 0a.5.5 0 1 1 0 1 .5.5 0 0 1 0-1zm-10 0a.5.5 0 1 1 0 1 .5.5 0 0 1 0-1zm-8-1a.5.5 0 1 1 0 1 .5.5 0 0 1 0-1zm14 0a.5.5 0 1 1 0 1 .5.5 0 0 1 0-1zm2 0a.5.5 0 1 1 0 1 .5.5 0 0 1 0-1zm-6 0a.5.5 0 1 1 0 1 .5.5 0 0 1 0-1zm-8-1a.5.5 0 1 1 0 1 .5.5 0 0 1 0-1zm4 0a.5.5 0 1 1 0 1 .5.5 0 0 1 0-1zm11 0a.5.5 0 1 1 0 1 .5.5 0 0 1 0-1zm-5 0a.5.5 0 1 1 0 1 .5.5 0 0 1 0-1zm-4 0a.5.5 0 1 1 0 1 .5.5 0 0 1 0-1zm-4 0a.5.5 0 1 1 0 1 .5.5 0 0 1 0-1zm11-1a.5.5 0 1 1 0 1 .5.5 0 0 1 0-1zm-2 0a.5.5 0 1 1 0 1 .5.5 0 0 1 0-1zm-3 0a.5.5 0 1 1 0 1 .5.5 0 0 1 0-1zm-8-1a.5.5 0 1 1 0 1 .5.5 0 0 1 0-1zm2 0a.5.5 0 1 1 0 1 .5.5 0 0 1 0-1zm2 0a.5.5 0 1 1 0 1 .5.5 0 0 1 0-1zm2 0a.5.5 0 1 1 0 1 .5.5 0 0 1 0-1zm8 0a.5.5 0 1 1 0 1 .5.5 0 0 1 0-1zm-4 0a.5.5 0 1 1 0 1 .5.5 0 0 1 0-1zm-2-1a.5.5 0 1 1 0 1 .5.5 0 0 1 0-1zm4 0a.5.5 0 1 1 0 1 .5.5 0 0 1 0-1zm-10-1a.5.5 0 1 1 0 1 .5.5 0 0 1 0-1zm2 0a.5.5 0 1 1 0 1 .5.5 0 0 1 0-1zm6 0a.5.5 0 1 1 0 1 .5.5 0 0 1 0-1zm-4 0a.5.5 0 1 1 0 1 .5.5 0 0 1 0-1zm2-1a.5.5 0 1 1 0 1 .5.5 0 0 1 0-1zm-3 70a.5.5 0 1 1 0 1 .5.5 0 0 1 0-1zm2 0a.5.5 0 1 1 0 1 .5.5 0 0 1 0-1zm2 0a.5.5 0 1 1 0 1 .5.5 0 0 1 0-1zm-1-1a.5.5 0 1 1 0 1 .5.5 0 0 1 0-1zm-2 0a.5.5 0 1 1 0 1 .5.5 0 0 1 0-1zm-2 0a.5.5 0 1 1 0 1 .5.5 0 0 1 0-1zm1-1a.5.5 0 1 1 0 1 .5.5 0 0 1 0-1zm2 0a.5.5 0 1 1 0 1 .5.5 0 0 1 0-1zm2 0a.5.5 0 1 1 0 1 .5.5 0 0 1 0-1z"/><g fill="#FF7900" transform="translate(23.583 -.495)"><circle cx="15.417" cy="76.588" r="14" style="mix-blend-mode:multiply"/><path d="M4.917 17.995c6.903 0 21.76-5.306 21.76-10 0-4.695-4.857-7.5-11.76-7.5-6.904 0-11.933 5.5-12.933 7.5s-3.97 10 2.933 10z" style="mix-blend-mode:multiply"/></g></g></svg>